%TF.GenerationSoftware,KiCad,Pcbnew,9.0.4*%
%TF.CreationDate,2025-12-12T14:24:18+03:00*%
%TF.ProjectId,mini_power_logger,6d696e69-5f70-46f7-9765-725f6c6f6767,rev?*%
%TF.SameCoordinates,Original*%
%TF.FileFunction,Paste,Top*%
%TF.FilePolarity,Positive*%
%FSLAX46Y46*%
G04 Gerber Fmt 4.6, Leading zero omitted, Abs format (unit mm)*
G04 Created by KiCad (PCBNEW 9.0.4) date 2025-12-12 14:24:18*
%MOMM*%
%LPD*%
G01*
G04 APERTURE LIST*
G04 Aperture macros list*
%AMRoundRect*
0 Rectangle with rounded corners*
0 $1 Rounding radius*
0 $2 $3 $4 $5 $6 $7 $8 $9 X,Y pos of 4 corners*
0 Add a 4 corners polygon primitive as box body*
4,1,4,$2,$3,$4,$5,$6,$7,$8,$9,$2,$3,0*
0 Add four circle primitives for the rounded corners*
1,1,$1+$1,$2,$3*
1,1,$1+$1,$4,$5*
1,1,$1+$1,$6,$7*
1,1,$1+$1,$8,$9*
0 Add four rect primitives between the rounded corners*
20,1,$1+$1,$2,$3,$4,$5,0*
20,1,$1+$1,$4,$5,$6,$7,0*
20,1,$1+$1,$6,$7,$8,$9,0*
20,1,$1+$1,$8,$9,$2,$3,0*%
G04 Aperture macros list end*
%ADD10RoundRect,0.150000X0.150000X-0.512500X0.150000X0.512500X-0.150000X0.512500X-0.150000X-0.512500X0*%
%ADD11R,1.000000X1.250000*%
%ADD12RoundRect,0.225000X0.250000X-0.225000X0.250000X0.225000X-0.250000X0.225000X-0.250000X-0.225000X0*%
%ADD13RoundRect,0.200000X-0.275000X0.200000X-0.275000X-0.200000X0.275000X-0.200000X0.275000X0.200000X0*%
%ADD14RoundRect,0.200000X-0.200000X-0.275000X0.200000X-0.275000X0.200000X0.275000X-0.200000X0.275000X0*%
%ADD15RoundRect,0.237500X0.237500X-0.250000X0.237500X0.250000X-0.237500X0.250000X-0.237500X-0.250000X0*%
%ADD16RoundRect,0.225000X-0.250000X0.225000X-0.250000X-0.225000X0.250000X-0.225000X0.250000X0.225000X0*%
%ADD17RoundRect,0.200000X0.275000X-0.200000X0.275000X0.200000X-0.275000X0.200000X-0.275000X-0.200000X0*%
%ADD18RoundRect,0.225000X0.225000X0.250000X-0.225000X0.250000X-0.225000X-0.250000X0.225000X-0.250000X0*%
%ADD19RoundRect,0.237500X-0.237500X0.250000X-0.237500X-0.250000X0.237500X-0.250000X0.237500X0.250000X0*%
%ADD20RoundRect,0.075000X0.650000X0.075000X-0.650000X0.075000X-0.650000X-0.075000X0.650000X-0.075000X0*%
%ADD21RoundRect,0.250000X-0.950000X-0.500000X0.950000X-0.500000X0.950000X0.500000X-0.950000X0.500000X0*%
%ADD22RoundRect,0.250000X-0.275000X-0.500000X0.275000X-0.500000X0.275000X0.500000X-0.275000X0.500000X0*%
%ADD23R,2.500000X1.700000*%
%ADD24R,2.600000X1.700000*%
%ADD25RoundRect,0.276785X1.523215X-0.498215X1.523215X0.498215X-1.523215X0.498215X-1.523215X-0.498215X0*%
%ADD26RoundRect,0.150000X0.425000X-0.150000X0.425000X0.150000X-0.425000X0.150000X-0.425000X-0.150000X0*%
%ADD27RoundRect,0.075000X0.500000X-0.075000X0.500000X0.075000X-0.500000X0.075000X-0.500000X-0.075000X0*%
%ADD28O,2.100000X1.000000*%
%ADD29O,1.800000X1.000000*%
%ADD30RoundRect,0.250000X0.250000X0.475000X-0.250000X0.475000X-0.250000X-0.475000X0.250000X-0.475000X0*%
%ADD31RoundRect,0.200000X0.200000X0.275000X-0.200000X0.275000X-0.200000X-0.275000X0.200000X-0.275000X0*%
%ADD32R,1.250000X1.000000*%
G04 APERTURE END LIST*
D10*
%TO.C,U5*%
X176250000Y-84137500D03*
X177200000Y-84137500D03*
X178150000Y-84137500D03*
X178150000Y-81862500D03*
X177200000Y-81862500D03*
X176250000Y-81862500D03*
%TD*%
D11*
%TO.C,SW2*%
X192000000Y-60425000D03*
X192000000Y-68175000D03*
%TD*%
D12*
%TO.C,C14*%
X188800000Y-78150000D03*
X188800000Y-76600000D03*
%TD*%
D13*
%TO.C,R20*%
X188700000Y-103875000D03*
X188700000Y-105525000D03*
%TD*%
D14*
%TO.C,R2*%
X184575000Y-60300000D03*
X186225000Y-60300000D03*
%TD*%
D15*
%TO.C,R15*%
X180000000Y-83762500D03*
X180000000Y-81937500D03*
%TD*%
D12*
%TO.C,C8*%
X186200000Y-58500000D03*
X186200000Y-56950000D03*
%TD*%
D16*
%TO.C,C25*%
X187100000Y-93925000D03*
X187100000Y-95475000D03*
%TD*%
D17*
%TO.C,R5*%
X188800000Y-91225000D03*
X188800000Y-89575000D03*
%TD*%
D18*
%TO.C,C26*%
X178050000Y-79862500D03*
X176500000Y-79862500D03*
%TD*%
D14*
%TO.C,R18*%
X176400000Y-78162500D03*
X178050000Y-78162500D03*
%TD*%
D13*
%TO.C,R21*%
X186900000Y-103875000D03*
X186900000Y-105525000D03*
%TD*%
D18*
%TO.C,C16*%
X169475000Y-92100000D03*
X167925000Y-92100000D03*
%TD*%
D19*
%TO.C,R16*%
X181600000Y-81950000D03*
X181600000Y-83775000D03*
%TD*%
D12*
%TO.C,C15*%
X188800000Y-87975000D03*
X188800000Y-86425000D03*
%TD*%
%TO.C,C2*%
X190250000Y-95475000D03*
X190250000Y-93925000D03*
%TD*%
D18*
%TO.C,C22*%
X177775000Y-87100000D03*
X176225000Y-87100000D03*
%TD*%
D20*
%TO.C,U2*%
X172250000Y-95750000D03*
X172250000Y-95250000D03*
X172250000Y-94750000D03*
X172250000Y-94250000D03*
X172250000Y-93750000D03*
X167850000Y-93750000D03*
X167850000Y-94250000D03*
X167850000Y-94750000D03*
X167850000Y-95250000D03*
X167850000Y-95750000D03*
%TD*%
D21*
%TO.C,D2*%
X177050000Y-92700000D03*
D22*
X174675000Y-92700000D03*
%TD*%
D23*
%TO.C,L1*%
X182300000Y-89275000D03*
D24*
X182300000Y-95700000D03*
%TD*%
D16*
%TO.C,C24*%
X188700000Y-93925000D03*
X188700000Y-95475000D03*
%TD*%
D25*
%TO.C,R6*%
X164000000Y-98550000D03*
X164000000Y-92450000D03*
%TD*%
D26*
%TO.C,J8*%
X191010000Y-105600000D03*
X191010000Y-104800000D03*
D27*
X191010000Y-103650000D03*
X191010000Y-102650000D03*
X191010000Y-102150000D03*
X191010000Y-101150000D03*
D26*
X191010000Y-100000000D03*
X191010000Y-99200000D03*
X191010000Y-99200000D03*
X191010000Y-100000000D03*
D27*
X191010000Y-100650000D03*
X191010000Y-101650000D03*
X191010000Y-103150000D03*
X191010000Y-104150000D03*
D26*
X191010000Y-104800000D03*
X191010000Y-105600000D03*
D28*
X191585000Y-106720000D03*
D29*
X195765000Y-106720000D03*
D28*
X191585000Y-98080000D03*
D29*
X195765000Y-98080000D03*
%TD*%
D18*
%TO.C,C28*%
X185575000Y-100700000D03*
X184025000Y-100700000D03*
%TD*%
D13*
%TO.C,R8*%
X187700000Y-53975000D03*
X187700000Y-55625000D03*
%TD*%
D30*
%TO.C,C21*%
X177950000Y-88900000D03*
X176050000Y-88900000D03*
%TD*%
D17*
%TO.C,R19*%
X179675000Y-78112500D03*
X179675000Y-76462500D03*
%TD*%
D11*
%TO.C,SW4*%
X192000000Y-80225000D03*
X192000000Y-87975000D03*
%TD*%
D12*
%TO.C,C13*%
X188720000Y-68275000D03*
X188800000Y-66725000D03*
%TD*%
D18*
%TO.C,C27*%
X185575000Y-99200000D03*
X184025000Y-99200000D03*
%TD*%
D31*
%TO.C,R17*%
X178100000Y-76462500D03*
X176450000Y-76462500D03*
%TD*%
D17*
%TO.C,R3*%
X188800000Y-71650000D03*
X188800000Y-70000000D03*
%TD*%
D32*
%TO.C,SW1*%
X176500000Y-58400000D03*
X184250000Y-58400000D03*
%TD*%
D31*
%TO.C,R7*%
X189925000Y-60200000D03*
X188275000Y-60200000D03*
%TD*%
D16*
%TO.C,C23*%
X174600000Y-81325000D03*
X174600000Y-82875000D03*
%TD*%
D11*
%TO.C,SW3*%
X192000000Y-70325000D03*
X192000000Y-78075000D03*
%TD*%
D17*
%TO.C,R4*%
X188800000Y-81525000D03*
X188800000Y-79875000D03*
%TD*%
M02*
