M48
; DRILL file {KiCad 9.0.4} date 2025-12-12T14:24:21+0300
; FORMAT={-:-/ absolute / metric / decimal}
; #@! TF.CreationDate,2025-12-12T14:24:21+03:00
; #@! TF.GenerationSoftware,Kicad,Pcbnew,9.0.4
; #@! TF.FileFunction,Plated,1,4,PTH
FMAT,2
METRIC
; #@! TA.AperFunction,Plated,PTH,ViaDrill
T1C0.200
; #@! TA.AperFunction,Plated,PTH,ViaDrill
T2C0.400
; #@! TA.AperFunction,Plated,PTH,ComponentDrill
T3C0.460
; #@! TA.AperFunction,Plated,PTH,ComponentDrill
T4C0.600
; #@! TA.AperFunction,Plated,PTH,ComponentDrill
T5C0.762
; #@! TA.AperFunction,Plated,PTH,ComponentDrill
T6C1.000
; #@! TA.AperFunction,Plated,PTH,ComponentDrill
T7C1.100
; #@! TA.AperFunction,Plated,PTH,ComponentDrill
T8C2.000
%
G90
G05
T1
X159.2Y-68.525
X159.262Y-67.787
X159.275Y-71.7
X159.275Y-73.15
X159.3Y-70.225
X159.35Y-74.539
X159.6Y-76.025
X159.65Y-77.525
X159.662Y-67.388
X162.7Y-81.05
X163.15Y-76.8
X163.325Y-78.15
X163.525Y-66.45
X163.65Y-81.0
X164.8Y-71.8
X165.775Y-59.5
X166.475Y-94.25
X166.7Y-91.75
X167.85Y-96.75
X167.875Y-65.65
X167.9Y-86.8
X167.975Y-66.5
X168.075Y-77.3
X168.2Y-78.75
X168.2Y-82.475
X168.575Y-65.8
X168.775Y-86.05
X168.8Y-87.5
X168.875Y-59.45
X168.9Y-82.2
X169.3Y-78.5
X169.475Y-91.175
X169.65Y-81.1
X170.15Y-97.8
X170.3Y-78.25
X170.6Y-82.075
X170.8Y-85.325
X171.0Y-73.75
X171.275Y-71.375
X171.35Y-86.1
X171.55Y-82.425
X171.8Y-84.975
X171.825Y-76.7
X172.1Y-80.6
X172.1Y-82.05
X172.25Y-96.225
X172.55Y-73.8
X172.8Y-85.25
X172.844Y-78.57
X172.95Y-80.85
X172.95Y-81.45
X173.0Y-71.85
X173.35Y-97.85
X173.6Y-82.35
X173.85Y-71.75
X174.5Y-68.9
X174.7Y-94.4
X174.85Y-59.3
X174.9Y-73.125
X175.125Y-85.825
X175.15Y-84.95
X175.15Y-90.5
X175.2Y-64.9
X175.2Y-88.05
X176.55Y-57.35
X176.9Y-85.15
X176.95Y-85.675
X177.0Y-73.6
X177.2Y-65.625
X177.2Y-80.85
X177.425Y-85.15
X177.464Y-85.712
X178.85Y-75.72
X179.15Y-80.7
X180.175Y-94.075
X180.7Y-75.8
X180.8Y-81.15
X181.1Y-73.1
X181.3Y-85.1
X181.3Y-85.6
X181.65Y-60.05
X181.8Y-85.1
X181.8Y-85.6
X182.8Y-100.725
X182.825Y-99.35
X183.375Y-65.85
X183.4Y-60.3
X184.25Y-74.15
X184.575Y-82.3
X185.0Y-87.2
X185.0Y-88.9
X185.9Y-89.5
X185.925Y-91.375
X186.2Y-61.15
X186.875Y-99.025
X186.977Y-71.607
X187.25Y-57.5
X187.3Y-60.25
X187.55Y-56.55
X187.55Y-91.375
X187.6Y-89.5
X187.625Y-92.925
X187.8Y-105.575
X188.125Y-97.25
X188.125Y-101.175
X188.7Y-92.95
X188.75Y-82.6
X188.75Y-92.15
X188.8Y-85.375
X188.825Y-65.65
X189.35Y-98.65
X190.2Y-92.925
X191.35Y-94.45
X191.35Y-94.95
X191.35Y-95.45
X191.35Y-95.95
X191.95Y-94.45
X191.95Y-94.95
X191.95Y-95.45
X191.95Y-95.95
X193.1Y-80.225
X193.134Y-102.234
X193.134Y-102.937
X193.225Y-100.175
X193.3Y-60.3
X194.6Y-83.15
X194.75Y-67.35
X195.625Y-100.675
T2
X184.2Y-97.8
T3
X165.1Y-69.9
X166.27Y-69.9
T5
X190.03Y-53.98
X190.03Y-57.08
X192.57Y-54.0
X192.57Y-57.1
T6
X160.1Y-89.735
X160.1Y-92.275
X161.912Y-70.59
X161.912Y-73.13
X161.912Y-75.67
X161.912Y-78.21
X163.38Y-106.25
X165.92Y-106.25
X168.36Y-89.4
X169.688Y-54.0
X170.9Y-89.4
X172.228Y-54.0
X173.44Y-89.4
X174.8Y-102.7
X176.39Y-54.3
X178.93Y-54.3
X179.8Y-102.7
X181.47Y-54.3
X184.01Y-54.3
T7
X162.095Y-103.782
X165.905Y-103.782
X168.395Y-56.482
X172.205Y-56.482
T8
X162.412Y-63.4
X162.412Y-85.4
X184.412Y-63.4
X184.412Y-85.4
T4
G00X191.035Y-98.08
M15
G01X192.135Y-98.08
M16
G05
G00X191.035Y-106.72
M15
G01X192.135Y-106.72
M16
G05
G00X195.365Y-98.08
M15
G01X196.165Y-98.08
M16
G05
G00X195.365Y-106.72
M15
G01X196.165Y-106.72
M16
G05
M30
