%TF.GenerationSoftware,KiCad,Pcbnew,9.0.4*%
%TF.CreationDate,2025-12-12T14:24:18+03:00*%
%TF.ProjectId,mini_power_logger,6d696e69-5f70-46f7-9765-725f6c6f6767,rev?*%
%TF.SameCoordinates,Original*%
%TF.FileFunction,Legend,Top*%
%TF.FilePolarity,Positive*%
%FSLAX46Y46*%
G04 Gerber Fmt 4.6, Leading zero omitted, Abs format (unit mm)*
G04 Created by KiCad (PCBNEW 9.0.4) date 2025-12-12 14:24:18*
%MOMM*%
%LPD*%
G01*
G04 APERTURE LIST*
%ADD10C,0.120000*%
%ADD11C,0.200000*%
%ADD12C,0.100000*%
%ADD13C,0.150000*%
%ADD14C,0.127000*%
%ADD15C,0.304800*%
%ADD16C,0.000000*%
G04 APERTURE END LIST*
D10*
X159750000Y-70100000D02*
X158525000Y-70100000D01*
X158500000Y-66000000D02*
X159750000Y-66000000D01*
X159750000Y-83225000D01*
X158500000Y-83225000D01*
X158500000Y-66000000D01*
X159725000Y-80825000D02*
X158500000Y-80825000D01*
X159725000Y-79250000D02*
X158500000Y-79250000D01*
X159762500Y-77575000D02*
X158537500Y-77575000D01*
X159750000Y-68500000D02*
X158525000Y-68500000D01*
X159750000Y-75425000D02*
X158525000Y-75425000D01*
X159725000Y-72775000D02*
X158500000Y-72775000D01*
D11*
X174657768Y-56141695D02*
X174924435Y-56941695D01*
X174924435Y-56941695D02*
X175191101Y-56141695D01*
X175457768Y-56636933D02*
X176067292Y-56636933D01*
X175762530Y-56941695D02*
X175762530Y-56332171D01*
X168482768Y-102816695D02*
X168749435Y-103616695D01*
X168749435Y-103616695D02*
X169016101Y-102816695D01*
X169282768Y-103311933D02*
X169892292Y-103311933D01*
X169587530Y-103616695D02*
X169587530Y-103007171D01*
D12*
X159428628Y-66426503D02*
X159428628Y-66797931D01*
X159428628Y-66797931D02*
X159200057Y-66597931D01*
X159200057Y-66597931D02*
X159200057Y-66683646D01*
X159200057Y-66683646D02*
X159171485Y-66740789D01*
X159171485Y-66740789D02*
X159142914Y-66769360D01*
X159142914Y-66769360D02*
X159085771Y-66797931D01*
X159085771Y-66797931D02*
X158942914Y-66797931D01*
X158942914Y-66797931D02*
X158885771Y-66769360D01*
X158885771Y-66769360D02*
X158857200Y-66740789D01*
X158857200Y-66740789D02*
X158828628Y-66683646D01*
X158828628Y-66683646D02*
X158828628Y-66512217D01*
X158828628Y-66512217D02*
X158857200Y-66455074D01*
X158857200Y-66455074D02*
X158885771Y-66426503D01*
X158885771Y-67055075D02*
X158857200Y-67083646D01*
X158857200Y-67083646D02*
X158828628Y-67055075D01*
X158828628Y-67055075D02*
X158857200Y-67026503D01*
X158857200Y-67026503D02*
X158885771Y-67055075D01*
X158885771Y-67055075D02*
X158828628Y-67055075D01*
X159428628Y-67283646D02*
X159428628Y-67655074D01*
X159428628Y-67655074D02*
X159200057Y-67455074D01*
X159200057Y-67455074D02*
X159200057Y-67540789D01*
X159200057Y-67540789D02*
X159171485Y-67597932D01*
X159171485Y-67597932D02*
X159142914Y-67626503D01*
X159142914Y-67626503D02*
X159085771Y-67655074D01*
X159085771Y-67655074D02*
X158942914Y-67655074D01*
X158942914Y-67655074D02*
X158885771Y-67626503D01*
X158885771Y-67626503D02*
X158857200Y-67597932D01*
X158857200Y-67597932D02*
X158828628Y-67540789D01*
X158828628Y-67540789D02*
X158828628Y-67369360D01*
X158828628Y-67369360D02*
X158857200Y-67312217D01*
X158857200Y-67312217D02*
X158885771Y-67283646D01*
X159428628Y-67826503D02*
X158828628Y-68026503D01*
X158828628Y-68026503D02*
X159428628Y-68226503D01*
X158885771Y-69226504D02*
X158857200Y-69197932D01*
X158857200Y-69197932D02*
X158828628Y-69112218D01*
X158828628Y-69112218D02*
X158828628Y-69055075D01*
X158828628Y-69055075D02*
X158857200Y-68969361D01*
X158857200Y-68969361D02*
X158914342Y-68912218D01*
X158914342Y-68912218D02*
X158971485Y-68883647D01*
X158971485Y-68883647D02*
X159085771Y-68855075D01*
X159085771Y-68855075D02*
X159171485Y-68855075D01*
X159171485Y-68855075D02*
X159285771Y-68883647D01*
X159285771Y-68883647D02*
X159342914Y-68912218D01*
X159342914Y-68912218D02*
X159400057Y-68969361D01*
X159400057Y-68969361D02*
X159428628Y-69055075D01*
X159428628Y-69055075D02*
X159428628Y-69112218D01*
X159428628Y-69112218D02*
X159400057Y-69197932D01*
X159400057Y-69197932D02*
X159371485Y-69226504D01*
X158857200Y-69455075D02*
X158828628Y-69540790D01*
X158828628Y-69540790D02*
X158828628Y-69683647D01*
X158828628Y-69683647D02*
X158857200Y-69740790D01*
X158857200Y-69740790D02*
X158885771Y-69769361D01*
X158885771Y-69769361D02*
X158942914Y-69797932D01*
X158942914Y-69797932D02*
X159000057Y-69797932D01*
X159000057Y-69797932D02*
X159057200Y-69769361D01*
X159057200Y-69769361D02*
X159085771Y-69740790D01*
X159085771Y-69740790D02*
X159114342Y-69683647D01*
X159114342Y-69683647D02*
X159142914Y-69569361D01*
X159142914Y-69569361D02*
X159171485Y-69512218D01*
X159171485Y-69512218D02*
X159200057Y-69483647D01*
X159200057Y-69483647D02*
X159257200Y-69455075D01*
X159257200Y-69455075D02*
X159314342Y-69455075D01*
X159314342Y-69455075D02*
X159371485Y-69483647D01*
X159371485Y-69483647D02*
X159400057Y-69512218D01*
X159400057Y-69512218D02*
X159428628Y-69569361D01*
X159428628Y-69569361D02*
X159428628Y-69712218D01*
X159428628Y-69712218D02*
X159400057Y-69797932D01*
X158828628Y-70512219D02*
X159428628Y-70512219D01*
X159428628Y-70512219D02*
X159000057Y-70712219D01*
X159000057Y-70712219D02*
X159428628Y-70912219D01*
X159428628Y-70912219D02*
X158828628Y-70912219D01*
X158828628Y-71197933D02*
X159428628Y-71197933D01*
X158857200Y-71455075D02*
X158828628Y-71540790D01*
X158828628Y-71540790D02*
X158828628Y-71683647D01*
X158828628Y-71683647D02*
X158857200Y-71740790D01*
X158857200Y-71740790D02*
X158885771Y-71769361D01*
X158885771Y-71769361D02*
X158942914Y-71797932D01*
X158942914Y-71797932D02*
X159000057Y-71797932D01*
X159000057Y-71797932D02*
X159057200Y-71769361D01*
X159057200Y-71769361D02*
X159085771Y-71740790D01*
X159085771Y-71740790D02*
X159114342Y-71683647D01*
X159114342Y-71683647D02*
X159142914Y-71569361D01*
X159142914Y-71569361D02*
X159171485Y-71512218D01*
X159171485Y-71512218D02*
X159200057Y-71483647D01*
X159200057Y-71483647D02*
X159257200Y-71455075D01*
X159257200Y-71455075D02*
X159314342Y-71455075D01*
X159314342Y-71455075D02*
X159371485Y-71483647D01*
X159371485Y-71483647D02*
X159400057Y-71512218D01*
X159400057Y-71512218D02*
X159428628Y-71569361D01*
X159428628Y-71569361D02*
X159428628Y-71712218D01*
X159428628Y-71712218D02*
X159400057Y-71797932D01*
X159428628Y-72169361D02*
X159428628Y-72283647D01*
X159428628Y-72283647D02*
X159400057Y-72340790D01*
X159400057Y-72340790D02*
X159342914Y-72397933D01*
X159342914Y-72397933D02*
X159228628Y-72426504D01*
X159228628Y-72426504D02*
X159028628Y-72426504D01*
X159028628Y-72426504D02*
X158914342Y-72397933D01*
X158914342Y-72397933D02*
X158857200Y-72340790D01*
X158857200Y-72340790D02*
X158828628Y-72283647D01*
X158828628Y-72283647D02*
X158828628Y-72169361D01*
X158828628Y-72169361D02*
X158857200Y-72112219D01*
X158857200Y-72112219D02*
X158914342Y-72055076D01*
X158914342Y-72055076D02*
X159028628Y-72026504D01*
X159028628Y-72026504D02*
X159228628Y-72026504D01*
X159228628Y-72026504D02*
X159342914Y-72055076D01*
X159342914Y-72055076D02*
X159400057Y-72112219D01*
X159400057Y-72112219D02*
X159428628Y-72169361D01*
X158828628Y-73140790D02*
X159428628Y-73140790D01*
X159428628Y-73140790D02*
X159000057Y-73340790D01*
X159000057Y-73340790D02*
X159428628Y-73540790D01*
X159428628Y-73540790D02*
X158828628Y-73540790D01*
X159428628Y-73940789D02*
X159428628Y-74055075D01*
X159428628Y-74055075D02*
X159400057Y-74112218D01*
X159400057Y-74112218D02*
X159342914Y-74169361D01*
X159342914Y-74169361D02*
X159228628Y-74197932D01*
X159228628Y-74197932D02*
X159028628Y-74197932D01*
X159028628Y-74197932D02*
X158914342Y-74169361D01*
X158914342Y-74169361D02*
X158857200Y-74112218D01*
X158857200Y-74112218D02*
X158828628Y-74055075D01*
X158828628Y-74055075D02*
X158828628Y-73940789D01*
X158828628Y-73940789D02*
X158857200Y-73883647D01*
X158857200Y-73883647D02*
X158914342Y-73826504D01*
X158914342Y-73826504D02*
X159028628Y-73797932D01*
X159028628Y-73797932D02*
X159228628Y-73797932D01*
X159228628Y-73797932D02*
X159342914Y-73826504D01*
X159342914Y-73826504D02*
X159400057Y-73883647D01*
X159400057Y-73883647D02*
X159428628Y-73940789D01*
X158857200Y-74426503D02*
X158828628Y-74512218D01*
X158828628Y-74512218D02*
X158828628Y-74655075D01*
X158828628Y-74655075D02*
X158857200Y-74712218D01*
X158857200Y-74712218D02*
X158885771Y-74740789D01*
X158885771Y-74740789D02*
X158942914Y-74769360D01*
X158942914Y-74769360D02*
X159000057Y-74769360D01*
X159000057Y-74769360D02*
X159057200Y-74740789D01*
X159057200Y-74740789D02*
X159085771Y-74712218D01*
X159085771Y-74712218D02*
X159114342Y-74655075D01*
X159114342Y-74655075D02*
X159142914Y-74540789D01*
X159142914Y-74540789D02*
X159171485Y-74483646D01*
X159171485Y-74483646D02*
X159200057Y-74455075D01*
X159200057Y-74455075D02*
X159257200Y-74426503D01*
X159257200Y-74426503D02*
X159314342Y-74426503D01*
X159314342Y-74426503D02*
X159371485Y-74455075D01*
X159371485Y-74455075D02*
X159400057Y-74483646D01*
X159400057Y-74483646D02*
X159428628Y-74540789D01*
X159428628Y-74540789D02*
X159428628Y-74683646D01*
X159428628Y-74683646D02*
X159400057Y-74769360D01*
X158828628Y-75026504D02*
X159428628Y-75026504D01*
X158857200Y-75740789D02*
X158828628Y-75826504D01*
X158828628Y-75826504D02*
X158828628Y-75969361D01*
X158828628Y-75969361D02*
X158857200Y-76026504D01*
X158857200Y-76026504D02*
X158885771Y-76055075D01*
X158885771Y-76055075D02*
X158942914Y-76083646D01*
X158942914Y-76083646D02*
X159000057Y-76083646D01*
X159000057Y-76083646D02*
X159057200Y-76055075D01*
X159057200Y-76055075D02*
X159085771Y-76026504D01*
X159085771Y-76026504D02*
X159114342Y-75969361D01*
X159114342Y-75969361D02*
X159142914Y-75855075D01*
X159142914Y-75855075D02*
X159171485Y-75797932D01*
X159171485Y-75797932D02*
X159200057Y-75769361D01*
X159200057Y-75769361D02*
X159257200Y-75740789D01*
X159257200Y-75740789D02*
X159314342Y-75740789D01*
X159314342Y-75740789D02*
X159371485Y-75769361D01*
X159371485Y-75769361D02*
X159400057Y-75797932D01*
X159400057Y-75797932D02*
X159428628Y-75855075D01*
X159428628Y-75855075D02*
X159428628Y-75997932D01*
X159428628Y-75997932D02*
X159400057Y-76083646D01*
X158885771Y-76683647D02*
X158857200Y-76655075D01*
X158857200Y-76655075D02*
X158828628Y-76569361D01*
X158828628Y-76569361D02*
X158828628Y-76512218D01*
X158828628Y-76512218D02*
X158857200Y-76426504D01*
X158857200Y-76426504D02*
X158914342Y-76369361D01*
X158914342Y-76369361D02*
X158971485Y-76340790D01*
X158971485Y-76340790D02*
X159085771Y-76312218D01*
X159085771Y-76312218D02*
X159171485Y-76312218D01*
X159171485Y-76312218D02*
X159285771Y-76340790D01*
X159285771Y-76340790D02*
X159342914Y-76369361D01*
X159342914Y-76369361D02*
X159400057Y-76426504D01*
X159400057Y-76426504D02*
X159428628Y-76512218D01*
X159428628Y-76512218D02*
X159428628Y-76569361D01*
X159428628Y-76569361D02*
X159400057Y-76655075D01*
X159400057Y-76655075D02*
X159371485Y-76683647D01*
X158828628Y-76940790D02*
X159428628Y-76940790D01*
X158828628Y-77283647D02*
X159171485Y-77026504D01*
X159428628Y-77283647D02*
X159085771Y-76940790D01*
X158828628Y-78340790D02*
X159114342Y-78140790D01*
X158828628Y-77997933D02*
X159428628Y-77997933D01*
X159428628Y-77997933D02*
X159428628Y-78226504D01*
X159428628Y-78226504D02*
X159400057Y-78283647D01*
X159400057Y-78283647D02*
X159371485Y-78312218D01*
X159371485Y-78312218D02*
X159314342Y-78340790D01*
X159314342Y-78340790D02*
X159228628Y-78340790D01*
X159228628Y-78340790D02*
X159171485Y-78312218D01*
X159171485Y-78312218D02*
X159142914Y-78283647D01*
X159142914Y-78283647D02*
X159114342Y-78226504D01*
X159114342Y-78226504D02*
X159114342Y-77997933D01*
X159428628Y-78540790D02*
X158828628Y-78940790D01*
X159428628Y-78940790D02*
X158828628Y-78540790D01*
X159428628Y-79540790D02*
X159428628Y-79883648D01*
X158828628Y-79712219D02*
X159428628Y-79712219D01*
X159428628Y-80026505D02*
X158828628Y-80426505D01*
X159428628Y-80426505D02*
X158828628Y-80026505D01*
X159400057Y-81426505D02*
X159428628Y-81369363D01*
X159428628Y-81369363D02*
X159428628Y-81283648D01*
X159428628Y-81283648D02*
X159400057Y-81197934D01*
X159400057Y-81197934D02*
X159342914Y-81140791D01*
X159342914Y-81140791D02*
X159285771Y-81112220D01*
X159285771Y-81112220D02*
X159171485Y-81083648D01*
X159171485Y-81083648D02*
X159085771Y-81083648D01*
X159085771Y-81083648D02*
X158971485Y-81112220D01*
X158971485Y-81112220D02*
X158914342Y-81140791D01*
X158914342Y-81140791D02*
X158857200Y-81197934D01*
X158857200Y-81197934D02*
X158828628Y-81283648D01*
X158828628Y-81283648D02*
X158828628Y-81340791D01*
X158828628Y-81340791D02*
X158857200Y-81426505D01*
X158857200Y-81426505D02*
X158885771Y-81455077D01*
X158885771Y-81455077D02*
X159085771Y-81455077D01*
X159085771Y-81455077D02*
X159085771Y-81340791D01*
X158828628Y-81712220D02*
X159428628Y-81712220D01*
X159428628Y-81712220D02*
X158828628Y-82055077D01*
X158828628Y-82055077D02*
X159428628Y-82055077D01*
X158828628Y-82340791D02*
X159428628Y-82340791D01*
X159428628Y-82340791D02*
X159428628Y-82483648D01*
X159428628Y-82483648D02*
X159400057Y-82569362D01*
X159400057Y-82569362D02*
X159342914Y-82626505D01*
X159342914Y-82626505D02*
X159285771Y-82655076D01*
X159285771Y-82655076D02*
X159171485Y-82683648D01*
X159171485Y-82683648D02*
X159085771Y-82683648D01*
X159085771Y-82683648D02*
X158971485Y-82655076D01*
X158971485Y-82655076D02*
X158914342Y-82626505D01*
X158914342Y-82626505D02*
X158857200Y-82569362D01*
X158857200Y-82569362D02*
X158828628Y-82483648D01*
X158828628Y-82483648D02*
X158828628Y-82340791D01*
D10*
X159025375Y-94173736D02*
X159118232Y-94204688D01*
X159118232Y-94204688D02*
X159149185Y-94235640D01*
X159149185Y-94235640D02*
X159180137Y-94297545D01*
X159180137Y-94297545D02*
X159180137Y-94390402D01*
X159180137Y-94390402D02*
X159149185Y-94452307D01*
X159149185Y-94452307D02*
X159118232Y-94483260D01*
X159118232Y-94483260D02*
X159056327Y-94514212D01*
X159056327Y-94514212D02*
X158808708Y-94514212D01*
X158808708Y-94514212D02*
X158808708Y-93864212D01*
X158808708Y-93864212D02*
X159025375Y-93864212D01*
X159025375Y-93864212D02*
X159087280Y-93895164D01*
X159087280Y-93895164D02*
X159118232Y-93926117D01*
X159118232Y-93926117D02*
X159149185Y-93988021D01*
X159149185Y-93988021D02*
X159149185Y-94049926D01*
X159149185Y-94049926D02*
X159118232Y-94111831D01*
X159118232Y-94111831D02*
X159087280Y-94142783D01*
X159087280Y-94142783D02*
X159025375Y-94173736D01*
X159025375Y-94173736D02*
X158808708Y-94173736D01*
X159582518Y-93864212D02*
X159706327Y-93864212D01*
X159706327Y-93864212D02*
X159768232Y-93895164D01*
X159768232Y-93895164D02*
X159830137Y-93957069D01*
X159830137Y-93957069D02*
X159861089Y-94080879D01*
X159861089Y-94080879D02*
X159861089Y-94297545D01*
X159861089Y-94297545D02*
X159830137Y-94421355D01*
X159830137Y-94421355D02*
X159768232Y-94483260D01*
X159768232Y-94483260D02*
X159706327Y-94514212D01*
X159706327Y-94514212D02*
X159582518Y-94514212D01*
X159582518Y-94514212D02*
X159520613Y-94483260D01*
X159520613Y-94483260D02*
X159458708Y-94421355D01*
X159458708Y-94421355D02*
X159427756Y-94297545D01*
X159427756Y-94297545D02*
X159427756Y-94080879D01*
X159427756Y-94080879D02*
X159458708Y-93957069D01*
X159458708Y-93957069D02*
X159520613Y-93895164D01*
X159520613Y-93895164D02*
X159582518Y-93864212D01*
X160263470Y-93864212D02*
X160387279Y-93864212D01*
X160387279Y-93864212D02*
X160449184Y-93895164D01*
X160449184Y-93895164D02*
X160511089Y-93957069D01*
X160511089Y-93957069D02*
X160542041Y-94080879D01*
X160542041Y-94080879D02*
X160542041Y-94297545D01*
X160542041Y-94297545D02*
X160511089Y-94421355D01*
X160511089Y-94421355D02*
X160449184Y-94483260D01*
X160449184Y-94483260D02*
X160387279Y-94514212D01*
X160387279Y-94514212D02*
X160263470Y-94514212D01*
X160263470Y-94514212D02*
X160201565Y-94483260D01*
X160201565Y-94483260D02*
X160139660Y-94421355D01*
X160139660Y-94421355D02*
X160108708Y-94297545D01*
X160108708Y-94297545D02*
X160108708Y-94080879D01*
X160108708Y-94080879D02*
X160139660Y-93957069D01*
X160139660Y-93957069D02*
X160201565Y-93895164D01*
X160201565Y-93895164D02*
X160263470Y-93864212D01*
X160727755Y-93864212D02*
X161099184Y-93864212D01*
X160913470Y-94514212D02*
X160913470Y-93864212D01*
X162927756Y-95783260D02*
X163020613Y-95814212D01*
X163020613Y-95814212D02*
X163175375Y-95814212D01*
X163175375Y-95814212D02*
X163237280Y-95783260D01*
X163237280Y-95783260D02*
X163268232Y-95752307D01*
X163268232Y-95752307D02*
X163299185Y-95690402D01*
X163299185Y-95690402D02*
X163299185Y-95628498D01*
X163299185Y-95628498D02*
X163268232Y-95566593D01*
X163268232Y-95566593D02*
X163237280Y-95535640D01*
X163237280Y-95535640D02*
X163175375Y-95504688D01*
X163175375Y-95504688D02*
X163051566Y-95473736D01*
X163051566Y-95473736D02*
X162989661Y-95442783D01*
X162989661Y-95442783D02*
X162958708Y-95411831D01*
X162958708Y-95411831D02*
X162927756Y-95349926D01*
X162927756Y-95349926D02*
X162927756Y-95288021D01*
X162927756Y-95288021D02*
X162958708Y-95226117D01*
X162958708Y-95226117D02*
X162989661Y-95195164D01*
X162989661Y-95195164D02*
X163051566Y-95164212D01*
X163051566Y-95164212D02*
X163206327Y-95164212D01*
X163206327Y-95164212D02*
X163299185Y-95195164D01*
X163577756Y-95473736D02*
X163794423Y-95473736D01*
X163887280Y-95814212D02*
X163577756Y-95814212D01*
X163577756Y-95814212D02*
X163577756Y-95164212D01*
X163577756Y-95164212D02*
X163887280Y-95164212D01*
X164165851Y-95814212D02*
X164165851Y-95164212D01*
X164165851Y-95164212D02*
X164537280Y-95814212D01*
X164537280Y-95814212D02*
X164537280Y-95164212D01*
X164815851Y-95783260D02*
X164908708Y-95814212D01*
X164908708Y-95814212D02*
X165063470Y-95814212D01*
X165063470Y-95814212D02*
X165125375Y-95783260D01*
X165125375Y-95783260D02*
X165156327Y-95752307D01*
X165156327Y-95752307D02*
X165187280Y-95690402D01*
X165187280Y-95690402D02*
X165187280Y-95628498D01*
X165187280Y-95628498D02*
X165156327Y-95566593D01*
X165156327Y-95566593D02*
X165125375Y-95535640D01*
X165125375Y-95535640D02*
X165063470Y-95504688D01*
X165063470Y-95504688D02*
X164939661Y-95473736D01*
X164939661Y-95473736D02*
X164877756Y-95442783D01*
X164877756Y-95442783D02*
X164846803Y-95411831D01*
X164846803Y-95411831D02*
X164815851Y-95349926D01*
X164815851Y-95349926D02*
X164815851Y-95288021D01*
X164815851Y-95288021D02*
X164846803Y-95226117D01*
X164846803Y-95226117D02*
X164877756Y-95195164D01*
X164877756Y-95195164D02*
X164939661Y-95164212D01*
X164939661Y-95164212D02*
X165094422Y-95164212D01*
X165094422Y-95164212D02*
X165187280Y-95195164D01*
D11*
X164482768Y-56141695D02*
X164749435Y-56941695D01*
X164749435Y-56941695D02*
X165016101Y-56141695D01*
X165282768Y-56636933D02*
X165892292Y-56636933D01*
D10*
X188365851Y-58839212D02*
X188737280Y-58839212D01*
X188551566Y-59489212D02*
X188551566Y-58839212D01*
X188953946Y-59148736D02*
X189170613Y-59148736D01*
X189263470Y-59489212D02*
X188953946Y-59489212D01*
X188953946Y-59489212D02*
X188953946Y-58839212D01*
X188953946Y-58839212D02*
X189263470Y-58839212D01*
X189542041Y-59489212D02*
X189542041Y-58839212D01*
X189542041Y-58839212D02*
X189758708Y-59303498D01*
X189758708Y-59303498D02*
X189975375Y-58839212D01*
X189975375Y-58839212D02*
X189975375Y-59489212D01*
X190284898Y-59489212D02*
X190284898Y-58839212D01*
X190284898Y-58839212D02*
X190532517Y-58839212D01*
X190532517Y-58839212D02*
X190594422Y-58870164D01*
X190594422Y-58870164D02*
X190625375Y-58901117D01*
X190625375Y-58901117D02*
X190656327Y-58963021D01*
X190656327Y-58963021D02*
X190656327Y-59055879D01*
X190656327Y-59055879D02*
X190625375Y-59117783D01*
X190625375Y-59117783D02*
X190594422Y-59148736D01*
X190594422Y-59148736D02*
X190532517Y-59179688D01*
X190532517Y-59179688D02*
X190284898Y-59179688D01*
X191399184Y-59458260D02*
X191492041Y-59489212D01*
X191492041Y-59489212D02*
X191646803Y-59489212D01*
X191646803Y-59489212D02*
X191708708Y-59458260D01*
X191708708Y-59458260D02*
X191739660Y-59427307D01*
X191739660Y-59427307D02*
X191770613Y-59365402D01*
X191770613Y-59365402D02*
X191770613Y-59303498D01*
X191770613Y-59303498D02*
X191739660Y-59241593D01*
X191739660Y-59241593D02*
X191708708Y-59210640D01*
X191708708Y-59210640D02*
X191646803Y-59179688D01*
X191646803Y-59179688D02*
X191522994Y-59148736D01*
X191522994Y-59148736D02*
X191461089Y-59117783D01*
X191461089Y-59117783D02*
X191430136Y-59086831D01*
X191430136Y-59086831D02*
X191399184Y-59024926D01*
X191399184Y-59024926D02*
X191399184Y-58963021D01*
X191399184Y-58963021D02*
X191430136Y-58901117D01*
X191430136Y-58901117D02*
X191461089Y-58870164D01*
X191461089Y-58870164D02*
X191522994Y-58839212D01*
X191522994Y-58839212D02*
X191677755Y-58839212D01*
X191677755Y-58839212D02*
X191770613Y-58870164D01*
X192049184Y-59148736D02*
X192265851Y-59148736D01*
X192358708Y-59489212D02*
X192049184Y-59489212D01*
X192049184Y-59489212D02*
X192049184Y-58839212D01*
X192049184Y-58839212D02*
X192358708Y-58839212D01*
X192637279Y-59489212D02*
X192637279Y-58839212D01*
X192637279Y-58839212D02*
X193008708Y-59489212D01*
X193008708Y-59489212D02*
X193008708Y-58839212D01*
X193287279Y-59458260D02*
X193380136Y-59489212D01*
X193380136Y-59489212D02*
X193534898Y-59489212D01*
X193534898Y-59489212D02*
X193596803Y-59458260D01*
X193596803Y-59458260D02*
X193627755Y-59427307D01*
X193627755Y-59427307D02*
X193658708Y-59365402D01*
X193658708Y-59365402D02*
X193658708Y-59303498D01*
X193658708Y-59303498D02*
X193627755Y-59241593D01*
X193627755Y-59241593D02*
X193596803Y-59210640D01*
X193596803Y-59210640D02*
X193534898Y-59179688D01*
X193534898Y-59179688D02*
X193411089Y-59148736D01*
X193411089Y-59148736D02*
X193349184Y-59117783D01*
X193349184Y-59117783D02*
X193318231Y-59086831D01*
X193318231Y-59086831D02*
X193287279Y-59024926D01*
X193287279Y-59024926D02*
X193287279Y-58963021D01*
X193287279Y-58963021D02*
X193318231Y-58901117D01*
X193318231Y-58901117D02*
X193349184Y-58870164D01*
X193349184Y-58870164D02*
X193411089Y-58839212D01*
X193411089Y-58839212D02*
X193565850Y-58839212D01*
X193565850Y-58839212D02*
X193658708Y-58870164D01*
X193937279Y-59427307D02*
X193968232Y-59458260D01*
X193968232Y-59458260D02*
X193937279Y-59489212D01*
X193937279Y-59489212D02*
X193906327Y-59458260D01*
X193906327Y-59458260D02*
X193937279Y-59427307D01*
X193937279Y-59427307D02*
X193937279Y-59489212D01*
X162033708Y-89939212D02*
X162033708Y-89289212D01*
X162033708Y-89289212D02*
X162281327Y-89289212D01*
X162281327Y-89289212D02*
X162343232Y-89320164D01*
X162343232Y-89320164D02*
X162374185Y-89351117D01*
X162374185Y-89351117D02*
X162405137Y-89413021D01*
X162405137Y-89413021D02*
X162405137Y-89505879D01*
X162405137Y-89505879D02*
X162374185Y-89567783D01*
X162374185Y-89567783D02*
X162343232Y-89598736D01*
X162343232Y-89598736D02*
X162281327Y-89629688D01*
X162281327Y-89629688D02*
X162033708Y-89629688D01*
X162621804Y-89289212D02*
X162776566Y-89939212D01*
X162776566Y-89939212D02*
X162900375Y-89474926D01*
X162900375Y-89474926D02*
X163024185Y-89939212D01*
X163024185Y-89939212D02*
X163178947Y-89289212D01*
X163797994Y-89939212D02*
X163581327Y-89629688D01*
X163426565Y-89939212D02*
X163426565Y-89289212D01*
X163426565Y-89289212D02*
X163674184Y-89289212D01*
X163674184Y-89289212D02*
X163736089Y-89320164D01*
X163736089Y-89320164D02*
X163767042Y-89351117D01*
X163767042Y-89351117D02*
X163797994Y-89413021D01*
X163797994Y-89413021D02*
X163797994Y-89505879D01*
X163797994Y-89505879D02*
X163767042Y-89567783D01*
X163767042Y-89567783D02*
X163736089Y-89598736D01*
X163736089Y-89598736D02*
X163674184Y-89629688D01*
X163674184Y-89629688D02*
X163426565Y-89629688D01*
X164540851Y-89908260D02*
X164633708Y-89939212D01*
X164633708Y-89939212D02*
X164788470Y-89939212D01*
X164788470Y-89939212D02*
X164850375Y-89908260D01*
X164850375Y-89908260D02*
X164881327Y-89877307D01*
X164881327Y-89877307D02*
X164912280Y-89815402D01*
X164912280Y-89815402D02*
X164912280Y-89753498D01*
X164912280Y-89753498D02*
X164881327Y-89691593D01*
X164881327Y-89691593D02*
X164850375Y-89660640D01*
X164850375Y-89660640D02*
X164788470Y-89629688D01*
X164788470Y-89629688D02*
X164664661Y-89598736D01*
X164664661Y-89598736D02*
X164602756Y-89567783D01*
X164602756Y-89567783D02*
X164571803Y-89536831D01*
X164571803Y-89536831D02*
X164540851Y-89474926D01*
X164540851Y-89474926D02*
X164540851Y-89413021D01*
X164540851Y-89413021D02*
X164571803Y-89351117D01*
X164571803Y-89351117D02*
X164602756Y-89320164D01*
X164602756Y-89320164D02*
X164664661Y-89289212D01*
X164664661Y-89289212D02*
X164819422Y-89289212D01*
X164819422Y-89289212D02*
X164912280Y-89320164D01*
X165500375Y-89939212D02*
X165190851Y-89939212D01*
X165190851Y-89939212D02*
X165190851Y-89289212D01*
X166088470Y-89877307D02*
X166057518Y-89908260D01*
X166057518Y-89908260D02*
X165964660Y-89939212D01*
X165964660Y-89939212D02*
X165902756Y-89939212D01*
X165902756Y-89939212D02*
X165809899Y-89908260D01*
X165809899Y-89908260D02*
X165747994Y-89846355D01*
X165747994Y-89846355D02*
X165717041Y-89784450D01*
X165717041Y-89784450D02*
X165686089Y-89660640D01*
X165686089Y-89660640D02*
X165686089Y-89567783D01*
X165686089Y-89567783D02*
X165717041Y-89443974D01*
X165717041Y-89443974D02*
X165747994Y-89382069D01*
X165747994Y-89382069D02*
X165809899Y-89320164D01*
X165809899Y-89320164D02*
X165902756Y-89289212D01*
X165902756Y-89289212D02*
X165964660Y-89289212D01*
X165964660Y-89289212D02*
X166057518Y-89320164D01*
X166057518Y-89320164D02*
X166088470Y-89351117D01*
X166274184Y-89289212D02*
X166645613Y-89289212D01*
X166459899Y-89939212D02*
X166459899Y-89289212D01*
D11*
X158307768Y-102816695D02*
X158574435Y-103616695D01*
X158574435Y-103616695D02*
X158841101Y-102816695D01*
X159107768Y-103311933D02*
X159717292Y-103311933D01*
D10*
X167533708Y-91714212D02*
X167533708Y-91064212D01*
X167843232Y-91714212D02*
X167843232Y-91064212D01*
X167843232Y-91064212D02*
X168214661Y-91714212D01*
X168214661Y-91714212D02*
X168214661Y-91064212D01*
X172486088Y-91064212D02*
X172486088Y-91590402D01*
X172486088Y-91590402D02*
X172517041Y-91652307D01*
X172517041Y-91652307D02*
X172547993Y-91683260D01*
X172547993Y-91683260D02*
X172609898Y-91714212D01*
X172609898Y-91714212D02*
X172733707Y-91714212D01*
X172733707Y-91714212D02*
X172795612Y-91683260D01*
X172795612Y-91683260D02*
X172826565Y-91652307D01*
X172826565Y-91652307D02*
X172857517Y-91590402D01*
X172857517Y-91590402D02*
X172857517Y-91064212D01*
X173136088Y-91683260D02*
X173228945Y-91714212D01*
X173228945Y-91714212D02*
X173383707Y-91714212D01*
X173383707Y-91714212D02*
X173445612Y-91683260D01*
X173445612Y-91683260D02*
X173476564Y-91652307D01*
X173476564Y-91652307D02*
X173507517Y-91590402D01*
X173507517Y-91590402D02*
X173507517Y-91528498D01*
X173507517Y-91528498D02*
X173476564Y-91466593D01*
X173476564Y-91466593D02*
X173445612Y-91435640D01*
X173445612Y-91435640D02*
X173383707Y-91404688D01*
X173383707Y-91404688D02*
X173259898Y-91373736D01*
X173259898Y-91373736D02*
X173197993Y-91342783D01*
X173197993Y-91342783D02*
X173167040Y-91311831D01*
X173167040Y-91311831D02*
X173136088Y-91249926D01*
X173136088Y-91249926D02*
X173136088Y-91188021D01*
X173136088Y-91188021D02*
X173167040Y-91126117D01*
X173167040Y-91126117D02*
X173197993Y-91095164D01*
X173197993Y-91095164D02*
X173259898Y-91064212D01*
X173259898Y-91064212D02*
X173414659Y-91064212D01*
X173414659Y-91064212D02*
X173507517Y-91095164D01*
X174002755Y-91373736D02*
X174095612Y-91404688D01*
X174095612Y-91404688D02*
X174126565Y-91435640D01*
X174126565Y-91435640D02*
X174157517Y-91497545D01*
X174157517Y-91497545D02*
X174157517Y-91590402D01*
X174157517Y-91590402D02*
X174126565Y-91652307D01*
X174126565Y-91652307D02*
X174095612Y-91683260D01*
X174095612Y-91683260D02*
X174033707Y-91714212D01*
X174033707Y-91714212D02*
X173786088Y-91714212D01*
X173786088Y-91714212D02*
X173786088Y-91064212D01*
X173786088Y-91064212D02*
X174002755Y-91064212D01*
X174002755Y-91064212D02*
X174064660Y-91095164D01*
X174064660Y-91095164D02*
X174095612Y-91126117D01*
X174095612Y-91126117D02*
X174126565Y-91188021D01*
X174126565Y-91188021D02*
X174126565Y-91249926D01*
X174126565Y-91249926D02*
X174095612Y-91311831D01*
X174095612Y-91311831D02*
X174064660Y-91342783D01*
X174064660Y-91342783D02*
X174002755Y-91373736D01*
X174002755Y-91373736D02*
X173786088Y-91373736D01*
X176754761Y-85269462D02*
X176754761Y-85795652D01*
X176754761Y-85795652D02*
X176785714Y-85857557D01*
X176785714Y-85857557D02*
X176816666Y-85888510D01*
X176816666Y-85888510D02*
X176878571Y-85919462D01*
X176878571Y-85919462D02*
X177002380Y-85919462D01*
X177002380Y-85919462D02*
X177064285Y-85888510D01*
X177064285Y-85888510D02*
X177095238Y-85857557D01*
X177095238Y-85857557D02*
X177126190Y-85795652D01*
X177126190Y-85795652D02*
X177126190Y-85269462D01*
X177745237Y-85269462D02*
X177435713Y-85269462D01*
X177435713Y-85269462D02*
X177404761Y-85578986D01*
X177404761Y-85578986D02*
X177435713Y-85548033D01*
X177435713Y-85548033D02*
X177497618Y-85517081D01*
X177497618Y-85517081D02*
X177652380Y-85517081D01*
X177652380Y-85517081D02*
X177714285Y-85548033D01*
X177714285Y-85548033D02*
X177745237Y-85578986D01*
X177745237Y-85578986D02*
X177776190Y-85640890D01*
X177776190Y-85640890D02*
X177776190Y-85795652D01*
X177776190Y-85795652D02*
X177745237Y-85857557D01*
X177745237Y-85857557D02*
X177714285Y-85888510D01*
X177714285Y-85888510D02*
X177652380Y-85919462D01*
X177652380Y-85919462D02*
X177497618Y-85919462D01*
X177497618Y-85919462D02*
X177435713Y-85888510D01*
X177435713Y-85888510D02*
X177404761Y-85857557D01*
X186607142Y-77607557D02*
X186576190Y-77638510D01*
X186576190Y-77638510D02*
X186483332Y-77669462D01*
X186483332Y-77669462D02*
X186421428Y-77669462D01*
X186421428Y-77669462D02*
X186328571Y-77638510D01*
X186328571Y-77638510D02*
X186266666Y-77576605D01*
X186266666Y-77576605D02*
X186235713Y-77514700D01*
X186235713Y-77514700D02*
X186204761Y-77390890D01*
X186204761Y-77390890D02*
X186204761Y-77298033D01*
X186204761Y-77298033D02*
X186235713Y-77174224D01*
X186235713Y-77174224D02*
X186266666Y-77112319D01*
X186266666Y-77112319D02*
X186328571Y-77050414D01*
X186328571Y-77050414D02*
X186421428Y-77019462D01*
X186421428Y-77019462D02*
X186483332Y-77019462D01*
X186483332Y-77019462D02*
X186576190Y-77050414D01*
X186576190Y-77050414D02*
X186607142Y-77081367D01*
X187226190Y-77669462D02*
X186854761Y-77669462D01*
X187040475Y-77669462D02*
X187040475Y-77019462D01*
X187040475Y-77019462D02*
X186978571Y-77112319D01*
X186978571Y-77112319D02*
X186916666Y-77174224D01*
X186916666Y-77174224D02*
X186854761Y-77205176D01*
X187783333Y-77236129D02*
X187783333Y-77669462D01*
X187628571Y-76988510D02*
X187473809Y-77452795D01*
X187473809Y-77452795D02*
X187876190Y-77452795D01*
X188782142Y-107094462D02*
X188565475Y-106784938D01*
X188410713Y-107094462D02*
X188410713Y-106444462D01*
X188410713Y-106444462D02*
X188658332Y-106444462D01*
X188658332Y-106444462D02*
X188720237Y-106475414D01*
X188720237Y-106475414D02*
X188751190Y-106506367D01*
X188751190Y-106506367D02*
X188782142Y-106568271D01*
X188782142Y-106568271D02*
X188782142Y-106661129D01*
X188782142Y-106661129D02*
X188751190Y-106723033D01*
X188751190Y-106723033D02*
X188720237Y-106753986D01*
X188720237Y-106753986D02*
X188658332Y-106784938D01*
X188658332Y-106784938D02*
X188410713Y-106784938D01*
X189029761Y-106506367D02*
X189060713Y-106475414D01*
X189060713Y-106475414D02*
X189122618Y-106444462D01*
X189122618Y-106444462D02*
X189277380Y-106444462D01*
X189277380Y-106444462D02*
X189339285Y-106475414D01*
X189339285Y-106475414D02*
X189370237Y-106506367D01*
X189370237Y-106506367D02*
X189401190Y-106568271D01*
X189401190Y-106568271D02*
X189401190Y-106630176D01*
X189401190Y-106630176D02*
X189370237Y-106723033D01*
X189370237Y-106723033D02*
X188998809Y-107094462D01*
X188998809Y-107094462D02*
X189401190Y-107094462D01*
X189803571Y-106444462D02*
X189865476Y-106444462D01*
X189865476Y-106444462D02*
X189927380Y-106475414D01*
X189927380Y-106475414D02*
X189958333Y-106506367D01*
X189958333Y-106506367D02*
X189989285Y-106568271D01*
X189989285Y-106568271D02*
X190020238Y-106692081D01*
X190020238Y-106692081D02*
X190020238Y-106846843D01*
X190020238Y-106846843D02*
X189989285Y-106970652D01*
X189989285Y-106970652D02*
X189958333Y-107032557D01*
X189958333Y-107032557D02*
X189927380Y-107063510D01*
X189927380Y-107063510D02*
X189865476Y-107094462D01*
X189865476Y-107094462D02*
X189803571Y-107094462D01*
X189803571Y-107094462D02*
X189741666Y-107063510D01*
X189741666Y-107063510D02*
X189710714Y-107032557D01*
X189710714Y-107032557D02*
X189679761Y-106970652D01*
X189679761Y-106970652D02*
X189648809Y-106846843D01*
X189648809Y-106846843D02*
X189648809Y-106692081D01*
X189648809Y-106692081D02*
X189679761Y-106568271D01*
X189679761Y-106568271D02*
X189710714Y-106506367D01*
X189710714Y-106506367D02*
X189741666Y-106475414D01*
X189741666Y-106475414D02*
X189803571Y-106444462D01*
X185791666Y-59544462D02*
X185574999Y-59234938D01*
X185420237Y-59544462D02*
X185420237Y-58894462D01*
X185420237Y-58894462D02*
X185667856Y-58894462D01*
X185667856Y-58894462D02*
X185729761Y-58925414D01*
X185729761Y-58925414D02*
X185760714Y-58956367D01*
X185760714Y-58956367D02*
X185791666Y-59018271D01*
X185791666Y-59018271D02*
X185791666Y-59111129D01*
X185791666Y-59111129D02*
X185760714Y-59173033D01*
X185760714Y-59173033D02*
X185729761Y-59203986D01*
X185729761Y-59203986D02*
X185667856Y-59234938D01*
X185667856Y-59234938D02*
X185420237Y-59234938D01*
X186039285Y-58956367D02*
X186070237Y-58925414D01*
X186070237Y-58925414D02*
X186132142Y-58894462D01*
X186132142Y-58894462D02*
X186286904Y-58894462D01*
X186286904Y-58894462D02*
X186348809Y-58925414D01*
X186348809Y-58925414D02*
X186379761Y-58956367D01*
X186379761Y-58956367D02*
X186410714Y-59018271D01*
X186410714Y-59018271D02*
X186410714Y-59080176D01*
X186410714Y-59080176D02*
X186379761Y-59173033D01*
X186379761Y-59173033D02*
X186008333Y-59544462D01*
X186008333Y-59544462D02*
X186410714Y-59544462D01*
X179282142Y-81044462D02*
X179065475Y-80734938D01*
X178910713Y-81044462D02*
X178910713Y-80394462D01*
X178910713Y-80394462D02*
X179158332Y-80394462D01*
X179158332Y-80394462D02*
X179220237Y-80425414D01*
X179220237Y-80425414D02*
X179251190Y-80456367D01*
X179251190Y-80456367D02*
X179282142Y-80518271D01*
X179282142Y-80518271D02*
X179282142Y-80611129D01*
X179282142Y-80611129D02*
X179251190Y-80673033D01*
X179251190Y-80673033D02*
X179220237Y-80703986D01*
X179220237Y-80703986D02*
X179158332Y-80734938D01*
X179158332Y-80734938D02*
X178910713Y-80734938D01*
X179901190Y-81044462D02*
X179529761Y-81044462D01*
X179715475Y-81044462D02*
X179715475Y-80394462D01*
X179715475Y-80394462D02*
X179653571Y-80487319D01*
X179653571Y-80487319D02*
X179591666Y-80549224D01*
X179591666Y-80549224D02*
X179529761Y-80580176D01*
X180489285Y-80394462D02*
X180179761Y-80394462D01*
X180179761Y-80394462D02*
X180148809Y-80703986D01*
X180148809Y-80703986D02*
X180179761Y-80673033D01*
X180179761Y-80673033D02*
X180241666Y-80642081D01*
X180241666Y-80642081D02*
X180396428Y-80642081D01*
X180396428Y-80642081D02*
X180458333Y-80673033D01*
X180458333Y-80673033D02*
X180489285Y-80703986D01*
X180489285Y-80703986D02*
X180520238Y-80765890D01*
X180520238Y-80765890D02*
X180520238Y-80920652D01*
X180520238Y-80920652D02*
X180489285Y-80982557D01*
X180489285Y-80982557D02*
X180458333Y-81013510D01*
X180458333Y-81013510D02*
X180396428Y-81044462D01*
X180396428Y-81044462D02*
X180241666Y-81044462D01*
X180241666Y-81044462D02*
X180179761Y-81013510D01*
X180179761Y-81013510D02*
X180148809Y-80982557D01*
X184866666Y-57407557D02*
X184835714Y-57438510D01*
X184835714Y-57438510D02*
X184742856Y-57469462D01*
X184742856Y-57469462D02*
X184680952Y-57469462D01*
X184680952Y-57469462D02*
X184588095Y-57438510D01*
X184588095Y-57438510D02*
X184526190Y-57376605D01*
X184526190Y-57376605D02*
X184495237Y-57314700D01*
X184495237Y-57314700D02*
X184464285Y-57190890D01*
X184464285Y-57190890D02*
X184464285Y-57098033D01*
X184464285Y-57098033D02*
X184495237Y-56974224D01*
X184495237Y-56974224D02*
X184526190Y-56912319D01*
X184526190Y-56912319D02*
X184588095Y-56850414D01*
X184588095Y-56850414D02*
X184680952Y-56819462D01*
X184680952Y-56819462D02*
X184742856Y-56819462D01*
X184742856Y-56819462D02*
X184835714Y-56850414D01*
X184835714Y-56850414D02*
X184866666Y-56881367D01*
X185238095Y-57098033D02*
X185176190Y-57067081D01*
X185176190Y-57067081D02*
X185145237Y-57036129D01*
X185145237Y-57036129D02*
X185114285Y-56974224D01*
X185114285Y-56974224D02*
X185114285Y-56943271D01*
X185114285Y-56943271D02*
X185145237Y-56881367D01*
X185145237Y-56881367D02*
X185176190Y-56850414D01*
X185176190Y-56850414D02*
X185238095Y-56819462D01*
X185238095Y-56819462D02*
X185361904Y-56819462D01*
X185361904Y-56819462D02*
X185423809Y-56850414D01*
X185423809Y-56850414D02*
X185454761Y-56881367D01*
X185454761Y-56881367D02*
X185485714Y-56943271D01*
X185485714Y-56943271D02*
X185485714Y-56974224D01*
X185485714Y-56974224D02*
X185454761Y-57036129D01*
X185454761Y-57036129D02*
X185423809Y-57067081D01*
X185423809Y-57067081D02*
X185361904Y-57098033D01*
X185361904Y-57098033D02*
X185238095Y-57098033D01*
X185238095Y-57098033D02*
X185176190Y-57128986D01*
X185176190Y-57128986D02*
X185145237Y-57159938D01*
X185145237Y-57159938D02*
X185114285Y-57221843D01*
X185114285Y-57221843D02*
X185114285Y-57345652D01*
X185114285Y-57345652D02*
X185145237Y-57407557D01*
X185145237Y-57407557D02*
X185176190Y-57438510D01*
X185176190Y-57438510D02*
X185238095Y-57469462D01*
X185238095Y-57469462D02*
X185361904Y-57469462D01*
X185361904Y-57469462D02*
X185423809Y-57438510D01*
X185423809Y-57438510D02*
X185454761Y-57407557D01*
X185454761Y-57407557D02*
X185485714Y-57345652D01*
X185485714Y-57345652D02*
X185485714Y-57221843D01*
X185485714Y-57221843D02*
X185454761Y-57159938D01*
X185454761Y-57159938D02*
X185423809Y-57128986D01*
X185423809Y-57128986D02*
X185361904Y-57098033D01*
X186182142Y-96957557D02*
X186151190Y-96988510D01*
X186151190Y-96988510D02*
X186058332Y-97019462D01*
X186058332Y-97019462D02*
X185996428Y-97019462D01*
X185996428Y-97019462D02*
X185903571Y-96988510D01*
X185903571Y-96988510D02*
X185841666Y-96926605D01*
X185841666Y-96926605D02*
X185810713Y-96864700D01*
X185810713Y-96864700D02*
X185779761Y-96740890D01*
X185779761Y-96740890D02*
X185779761Y-96648033D01*
X185779761Y-96648033D02*
X185810713Y-96524224D01*
X185810713Y-96524224D02*
X185841666Y-96462319D01*
X185841666Y-96462319D02*
X185903571Y-96400414D01*
X185903571Y-96400414D02*
X185996428Y-96369462D01*
X185996428Y-96369462D02*
X186058332Y-96369462D01*
X186058332Y-96369462D02*
X186151190Y-96400414D01*
X186151190Y-96400414D02*
X186182142Y-96431367D01*
X186429761Y-96431367D02*
X186460713Y-96400414D01*
X186460713Y-96400414D02*
X186522618Y-96369462D01*
X186522618Y-96369462D02*
X186677380Y-96369462D01*
X186677380Y-96369462D02*
X186739285Y-96400414D01*
X186739285Y-96400414D02*
X186770237Y-96431367D01*
X186770237Y-96431367D02*
X186801190Y-96493271D01*
X186801190Y-96493271D02*
X186801190Y-96555176D01*
X186801190Y-96555176D02*
X186770237Y-96648033D01*
X186770237Y-96648033D02*
X186398809Y-97019462D01*
X186398809Y-97019462D02*
X186801190Y-97019462D01*
X187389285Y-96369462D02*
X187079761Y-96369462D01*
X187079761Y-96369462D02*
X187048809Y-96678986D01*
X187048809Y-96678986D02*
X187079761Y-96648033D01*
X187079761Y-96648033D02*
X187141666Y-96617081D01*
X187141666Y-96617081D02*
X187296428Y-96617081D01*
X187296428Y-96617081D02*
X187358333Y-96648033D01*
X187358333Y-96648033D02*
X187389285Y-96678986D01*
X187389285Y-96678986D02*
X187420238Y-96740890D01*
X187420238Y-96740890D02*
X187420238Y-96895652D01*
X187420238Y-96895652D02*
X187389285Y-96957557D01*
X187389285Y-96957557D02*
X187358333Y-96988510D01*
X187358333Y-96988510D02*
X187296428Y-97019462D01*
X187296428Y-97019462D02*
X187141666Y-97019462D01*
X187141666Y-97019462D02*
X187079761Y-96988510D01*
X187079761Y-96988510D02*
X187048809Y-96957557D01*
X190216666Y-90669462D02*
X189999999Y-90359938D01*
X189845237Y-90669462D02*
X189845237Y-90019462D01*
X189845237Y-90019462D02*
X190092856Y-90019462D01*
X190092856Y-90019462D02*
X190154761Y-90050414D01*
X190154761Y-90050414D02*
X190185714Y-90081367D01*
X190185714Y-90081367D02*
X190216666Y-90143271D01*
X190216666Y-90143271D02*
X190216666Y-90236129D01*
X190216666Y-90236129D02*
X190185714Y-90298033D01*
X190185714Y-90298033D02*
X190154761Y-90328986D01*
X190154761Y-90328986D02*
X190092856Y-90359938D01*
X190092856Y-90359938D02*
X189845237Y-90359938D01*
X190804761Y-90019462D02*
X190495237Y-90019462D01*
X190495237Y-90019462D02*
X190464285Y-90328986D01*
X190464285Y-90328986D02*
X190495237Y-90298033D01*
X190495237Y-90298033D02*
X190557142Y-90267081D01*
X190557142Y-90267081D02*
X190711904Y-90267081D01*
X190711904Y-90267081D02*
X190773809Y-90298033D01*
X190773809Y-90298033D02*
X190804761Y-90328986D01*
X190804761Y-90328986D02*
X190835714Y-90390890D01*
X190835714Y-90390890D02*
X190835714Y-90545652D01*
X190835714Y-90545652D02*
X190804761Y-90607557D01*
X190804761Y-90607557D02*
X190773809Y-90638510D01*
X190773809Y-90638510D02*
X190711904Y-90669462D01*
X190711904Y-90669462D02*
X190557142Y-90669462D01*
X190557142Y-90669462D02*
X190495237Y-90638510D01*
X190495237Y-90638510D02*
X190464285Y-90607557D01*
X174457142Y-80082557D02*
X174426190Y-80113510D01*
X174426190Y-80113510D02*
X174333332Y-80144462D01*
X174333332Y-80144462D02*
X174271428Y-80144462D01*
X174271428Y-80144462D02*
X174178571Y-80113510D01*
X174178571Y-80113510D02*
X174116666Y-80051605D01*
X174116666Y-80051605D02*
X174085713Y-79989700D01*
X174085713Y-79989700D02*
X174054761Y-79865890D01*
X174054761Y-79865890D02*
X174054761Y-79773033D01*
X174054761Y-79773033D02*
X174085713Y-79649224D01*
X174085713Y-79649224D02*
X174116666Y-79587319D01*
X174116666Y-79587319D02*
X174178571Y-79525414D01*
X174178571Y-79525414D02*
X174271428Y-79494462D01*
X174271428Y-79494462D02*
X174333332Y-79494462D01*
X174333332Y-79494462D02*
X174426190Y-79525414D01*
X174426190Y-79525414D02*
X174457142Y-79556367D01*
X174704761Y-79556367D02*
X174735713Y-79525414D01*
X174735713Y-79525414D02*
X174797618Y-79494462D01*
X174797618Y-79494462D02*
X174952380Y-79494462D01*
X174952380Y-79494462D02*
X175014285Y-79525414D01*
X175014285Y-79525414D02*
X175045237Y-79556367D01*
X175045237Y-79556367D02*
X175076190Y-79618271D01*
X175076190Y-79618271D02*
X175076190Y-79680176D01*
X175076190Y-79680176D02*
X175045237Y-79773033D01*
X175045237Y-79773033D02*
X174673809Y-80144462D01*
X174673809Y-80144462D02*
X175076190Y-80144462D01*
X175633333Y-79494462D02*
X175509523Y-79494462D01*
X175509523Y-79494462D02*
X175447619Y-79525414D01*
X175447619Y-79525414D02*
X175416666Y-79556367D01*
X175416666Y-79556367D02*
X175354761Y-79649224D01*
X175354761Y-79649224D02*
X175323809Y-79773033D01*
X175323809Y-79773033D02*
X175323809Y-80020652D01*
X175323809Y-80020652D02*
X175354761Y-80082557D01*
X175354761Y-80082557D02*
X175385714Y-80113510D01*
X175385714Y-80113510D02*
X175447619Y-80144462D01*
X175447619Y-80144462D02*
X175571428Y-80144462D01*
X175571428Y-80144462D02*
X175633333Y-80113510D01*
X175633333Y-80113510D02*
X175664285Y-80082557D01*
X175664285Y-80082557D02*
X175695238Y-80020652D01*
X175695238Y-80020652D02*
X175695238Y-79865890D01*
X175695238Y-79865890D02*
X175664285Y-79803986D01*
X175664285Y-79803986D02*
X175633333Y-79773033D01*
X175633333Y-79773033D02*
X175571428Y-79742081D01*
X175571428Y-79742081D02*
X175447619Y-79742081D01*
X175447619Y-79742081D02*
X175385714Y-79773033D01*
X175385714Y-79773033D02*
X175354761Y-79803986D01*
X175354761Y-79803986D02*
X175323809Y-79865890D01*
X174457142Y-78419462D02*
X174240475Y-78109938D01*
X174085713Y-78419462D02*
X174085713Y-77769462D01*
X174085713Y-77769462D02*
X174333332Y-77769462D01*
X174333332Y-77769462D02*
X174395237Y-77800414D01*
X174395237Y-77800414D02*
X174426190Y-77831367D01*
X174426190Y-77831367D02*
X174457142Y-77893271D01*
X174457142Y-77893271D02*
X174457142Y-77986129D01*
X174457142Y-77986129D02*
X174426190Y-78048033D01*
X174426190Y-78048033D02*
X174395237Y-78078986D01*
X174395237Y-78078986D02*
X174333332Y-78109938D01*
X174333332Y-78109938D02*
X174085713Y-78109938D01*
X175076190Y-78419462D02*
X174704761Y-78419462D01*
X174890475Y-78419462D02*
X174890475Y-77769462D01*
X174890475Y-77769462D02*
X174828571Y-77862319D01*
X174828571Y-77862319D02*
X174766666Y-77924224D01*
X174766666Y-77924224D02*
X174704761Y-77955176D01*
X175447619Y-78048033D02*
X175385714Y-78017081D01*
X175385714Y-78017081D02*
X175354761Y-77986129D01*
X175354761Y-77986129D02*
X175323809Y-77924224D01*
X175323809Y-77924224D02*
X175323809Y-77893271D01*
X175323809Y-77893271D02*
X175354761Y-77831367D01*
X175354761Y-77831367D02*
X175385714Y-77800414D01*
X175385714Y-77800414D02*
X175447619Y-77769462D01*
X175447619Y-77769462D02*
X175571428Y-77769462D01*
X175571428Y-77769462D02*
X175633333Y-77800414D01*
X175633333Y-77800414D02*
X175664285Y-77831367D01*
X175664285Y-77831367D02*
X175695238Y-77893271D01*
X175695238Y-77893271D02*
X175695238Y-77924224D01*
X175695238Y-77924224D02*
X175664285Y-77986129D01*
X175664285Y-77986129D02*
X175633333Y-78017081D01*
X175633333Y-78017081D02*
X175571428Y-78048033D01*
X175571428Y-78048033D02*
X175447619Y-78048033D01*
X175447619Y-78048033D02*
X175385714Y-78078986D01*
X175385714Y-78078986D02*
X175354761Y-78109938D01*
X175354761Y-78109938D02*
X175323809Y-78171843D01*
X175323809Y-78171843D02*
X175323809Y-78295652D01*
X175323809Y-78295652D02*
X175354761Y-78357557D01*
X175354761Y-78357557D02*
X175385714Y-78388510D01*
X175385714Y-78388510D02*
X175447619Y-78419462D01*
X175447619Y-78419462D02*
X175571428Y-78419462D01*
X175571428Y-78419462D02*
X175633333Y-78388510D01*
X175633333Y-78388510D02*
X175664285Y-78357557D01*
X175664285Y-78357557D02*
X175695238Y-78295652D01*
X175695238Y-78295652D02*
X175695238Y-78171843D01*
X175695238Y-78171843D02*
X175664285Y-78109938D01*
X175664285Y-78109938D02*
X175633333Y-78078986D01*
X175633333Y-78078986D02*
X175571428Y-78048033D01*
X186582142Y-107094462D02*
X186365475Y-106784938D01*
X186210713Y-107094462D02*
X186210713Y-106444462D01*
X186210713Y-106444462D02*
X186458332Y-106444462D01*
X186458332Y-106444462D02*
X186520237Y-106475414D01*
X186520237Y-106475414D02*
X186551190Y-106506367D01*
X186551190Y-106506367D02*
X186582142Y-106568271D01*
X186582142Y-106568271D02*
X186582142Y-106661129D01*
X186582142Y-106661129D02*
X186551190Y-106723033D01*
X186551190Y-106723033D02*
X186520237Y-106753986D01*
X186520237Y-106753986D02*
X186458332Y-106784938D01*
X186458332Y-106784938D02*
X186210713Y-106784938D01*
X186829761Y-106506367D02*
X186860713Y-106475414D01*
X186860713Y-106475414D02*
X186922618Y-106444462D01*
X186922618Y-106444462D02*
X187077380Y-106444462D01*
X187077380Y-106444462D02*
X187139285Y-106475414D01*
X187139285Y-106475414D02*
X187170237Y-106506367D01*
X187170237Y-106506367D02*
X187201190Y-106568271D01*
X187201190Y-106568271D02*
X187201190Y-106630176D01*
X187201190Y-106630176D02*
X187170237Y-106723033D01*
X187170237Y-106723033D02*
X186798809Y-107094462D01*
X186798809Y-107094462D02*
X187201190Y-107094462D01*
X187820238Y-107094462D02*
X187448809Y-107094462D01*
X187634523Y-107094462D02*
X187634523Y-106444462D01*
X187634523Y-106444462D02*
X187572619Y-106537319D01*
X187572619Y-106537319D02*
X187510714Y-106599224D01*
X187510714Y-106599224D02*
X187448809Y-106630176D01*
X170607142Y-92432557D02*
X170576190Y-92463510D01*
X170576190Y-92463510D02*
X170483332Y-92494462D01*
X170483332Y-92494462D02*
X170421428Y-92494462D01*
X170421428Y-92494462D02*
X170328571Y-92463510D01*
X170328571Y-92463510D02*
X170266666Y-92401605D01*
X170266666Y-92401605D02*
X170235713Y-92339700D01*
X170235713Y-92339700D02*
X170204761Y-92215890D01*
X170204761Y-92215890D02*
X170204761Y-92123033D01*
X170204761Y-92123033D02*
X170235713Y-91999224D01*
X170235713Y-91999224D02*
X170266666Y-91937319D01*
X170266666Y-91937319D02*
X170328571Y-91875414D01*
X170328571Y-91875414D02*
X170421428Y-91844462D01*
X170421428Y-91844462D02*
X170483332Y-91844462D01*
X170483332Y-91844462D02*
X170576190Y-91875414D01*
X170576190Y-91875414D02*
X170607142Y-91906367D01*
X171226190Y-92494462D02*
X170854761Y-92494462D01*
X171040475Y-92494462D02*
X171040475Y-91844462D01*
X171040475Y-91844462D02*
X170978571Y-91937319D01*
X170978571Y-91937319D02*
X170916666Y-91999224D01*
X170916666Y-91999224D02*
X170854761Y-92030176D01*
X171783333Y-91844462D02*
X171659523Y-91844462D01*
X171659523Y-91844462D02*
X171597619Y-91875414D01*
X171597619Y-91875414D02*
X171566666Y-91906367D01*
X171566666Y-91906367D02*
X171504761Y-91999224D01*
X171504761Y-91999224D02*
X171473809Y-92123033D01*
X171473809Y-92123033D02*
X171473809Y-92370652D01*
X171473809Y-92370652D02*
X171504761Y-92432557D01*
X171504761Y-92432557D02*
X171535714Y-92463510D01*
X171535714Y-92463510D02*
X171597619Y-92494462D01*
X171597619Y-92494462D02*
X171721428Y-92494462D01*
X171721428Y-92494462D02*
X171783333Y-92463510D01*
X171783333Y-92463510D02*
X171814285Y-92432557D01*
X171814285Y-92432557D02*
X171845238Y-92370652D01*
X171845238Y-92370652D02*
X171845238Y-92215890D01*
X171845238Y-92215890D02*
X171814285Y-92153986D01*
X171814285Y-92153986D02*
X171783333Y-92123033D01*
X171783333Y-92123033D02*
X171721428Y-92092081D01*
X171721428Y-92092081D02*
X171597619Y-92092081D01*
X171597619Y-92092081D02*
X171535714Y-92123033D01*
X171535714Y-92123033D02*
X171504761Y-92153986D01*
X171504761Y-92153986D02*
X171473809Y-92215890D01*
X181507142Y-81044462D02*
X181290475Y-80734938D01*
X181135713Y-81044462D02*
X181135713Y-80394462D01*
X181135713Y-80394462D02*
X181383332Y-80394462D01*
X181383332Y-80394462D02*
X181445237Y-80425414D01*
X181445237Y-80425414D02*
X181476190Y-80456367D01*
X181476190Y-80456367D02*
X181507142Y-80518271D01*
X181507142Y-80518271D02*
X181507142Y-80611129D01*
X181507142Y-80611129D02*
X181476190Y-80673033D01*
X181476190Y-80673033D02*
X181445237Y-80703986D01*
X181445237Y-80703986D02*
X181383332Y-80734938D01*
X181383332Y-80734938D02*
X181135713Y-80734938D01*
X182126190Y-81044462D02*
X181754761Y-81044462D01*
X181940475Y-81044462D02*
X181940475Y-80394462D01*
X181940475Y-80394462D02*
X181878571Y-80487319D01*
X181878571Y-80487319D02*
X181816666Y-80549224D01*
X181816666Y-80549224D02*
X181754761Y-80580176D01*
X182683333Y-80394462D02*
X182559523Y-80394462D01*
X182559523Y-80394462D02*
X182497619Y-80425414D01*
X182497619Y-80425414D02*
X182466666Y-80456367D01*
X182466666Y-80456367D02*
X182404761Y-80549224D01*
X182404761Y-80549224D02*
X182373809Y-80673033D01*
X182373809Y-80673033D02*
X182373809Y-80920652D01*
X182373809Y-80920652D02*
X182404761Y-80982557D01*
X182404761Y-80982557D02*
X182435714Y-81013510D01*
X182435714Y-81013510D02*
X182497619Y-81044462D01*
X182497619Y-81044462D02*
X182621428Y-81044462D01*
X182621428Y-81044462D02*
X182683333Y-81013510D01*
X182683333Y-81013510D02*
X182714285Y-80982557D01*
X182714285Y-80982557D02*
X182745238Y-80920652D01*
X182745238Y-80920652D02*
X182745238Y-80765890D01*
X182745238Y-80765890D02*
X182714285Y-80703986D01*
X182714285Y-80703986D02*
X182683333Y-80673033D01*
X182683333Y-80673033D02*
X182621428Y-80642081D01*
X182621428Y-80642081D02*
X182497619Y-80642081D01*
X182497619Y-80642081D02*
X182435714Y-80673033D01*
X182435714Y-80673033D02*
X182404761Y-80703986D01*
X182404761Y-80703986D02*
X182373809Y-80765890D01*
X188332142Y-85257557D02*
X188301190Y-85288510D01*
X188301190Y-85288510D02*
X188208332Y-85319462D01*
X188208332Y-85319462D02*
X188146428Y-85319462D01*
X188146428Y-85319462D02*
X188053571Y-85288510D01*
X188053571Y-85288510D02*
X187991666Y-85226605D01*
X187991666Y-85226605D02*
X187960713Y-85164700D01*
X187960713Y-85164700D02*
X187929761Y-85040890D01*
X187929761Y-85040890D02*
X187929761Y-84948033D01*
X187929761Y-84948033D02*
X187960713Y-84824224D01*
X187960713Y-84824224D02*
X187991666Y-84762319D01*
X187991666Y-84762319D02*
X188053571Y-84700414D01*
X188053571Y-84700414D02*
X188146428Y-84669462D01*
X188146428Y-84669462D02*
X188208332Y-84669462D01*
X188208332Y-84669462D02*
X188301190Y-84700414D01*
X188301190Y-84700414D02*
X188332142Y-84731367D01*
X188951190Y-85319462D02*
X188579761Y-85319462D01*
X188765475Y-85319462D02*
X188765475Y-84669462D01*
X188765475Y-84669462D02*
X188703571Y-84762319D01*
X188703571Y-84762319D02*
X188641666Y-84824224D01*
X188641666Y-84824224D02*
X188579761Y-84855176D01*
X189539285Y-84669462D02*
X189229761Y-84669462D01*
X189229761Y-84669462D02*
X189198809Y-84978986D01*
X189198809Y-84978986D02*
X189229761Y-84948033D01*
X189229761Y-84948033D02*
X189291666Y-84917081D01*
X189291666Y-84917081D02*
X189446428Y-84917081D01*
X189446428Y-84917081D02*
X189508333Y-84948033D01*
X189508333Y-84948033D02*
X189539285Y-84978986D01*
X189539285Y-84978986D02*
X189570238Y-85040890D01*
X189570238Y-85040890D02*
X189570238Y-85195652D01*
X189570238Y-85195652D02*
X189539285Y-85257557D01*
X189539285Y-85257557D02*
X189508333Y-85288510D01*
X189508333Y-85288510D02*
X189446428Y-85319462D01*
X189446428Y-85319462D02*
X189291666Y-85319462D01*
X189291666Y-85319462D02*
X189229761Y-85288510D01*
X189229761Y-85288510D02*
X189198809Y-85257557D01*
X190416666Y-96882557D02*
X190385714Y-96913510D01*
X190385714Y-96913510D02*
X190292856Y-96944462D01*
X190292856Y-96944462D02*
X190230952Y-96944462D01*
X190230952Y-96944462D02*
X190138095Y-96913510D01*
X190138095Y-96913510D02*
X190076190Y-96851605D01*
X190076190Y-96851605D02*
X190045237Y-96789700D01*
X190045237Y-96789700D02*
X190014285Y-96665890D01*
X190014285Y-96665890D02*
X190014285Y-96573033D01*
X190014285Y-96573033D02*
X190045237Y-96449224D01*
X190045237Y-96449224D02*
X190076190Y-96387319D01*
X190076190Y-96387319D02*
X190138095Y-96325414D01*
X190138095Y-96325414D02*
X190230952Y-96294462D01*
X190230952Y-96294462D02*
X190292856Y-96294462D01*
X190292856Y-96294462D02*
X190385714Y-96325414D01*
X190385714Y-96325414D02*
X190416666Y-96356367D01*
X190664285Y-96356367D02*
X190695237Y-96325414D01*
X190695237Y-96325414D02*
X190757142Y-96294462D01*
X190757142Y-96294462D02*
X190911904Y-96294462D01*
X190911904Y-96294462D02*
X190973809Y-96325414D01*
X190973809Y-96325414D02*
X191004761Y-96356367D01*
X191004761Y-96356367D02*
X191035714Y-96418271D01*
X191035714Y-96418271D02*
X191035714Y-96480176D01*
X191035714Y-96480176D02*
X191004761Y-96573033D01*
X191004761Y-96573033D02*
X190633333Y-96944462D01*
X190633333Y-96944462D02*
X191035714Y-96944462D01*
D13*
X176519047Y-97231009D02*
X176661904Y-97278628D01*
X176661904Y-97278628D02*
X176709523Y-97326247D01*
X176709523Y-97326247D02*
X176757142Y-97421485D01*
X176757142Y-97421485D02*
X176757142Y-97564342D01*
X176757142Y-97564342D02*
X176709523Y-97659580D01*
X176709523Y-97659580D02*
X176661904Y-97707200D01*
X176661904Y-97707200D02*
X176566666Y-97754819D01*
X176566666Y-97754819D02*
X176185714Y-97754819D01*
X176185714Y-97754819D02*
X176185714Y-96754819D01*
X176185714Y-96754819D02*
X176519047Y-96754819D01*
X176519047Y-96754819D02*
X176614285Y-96802438D01*
X176614285Y-96802438D02*
X176661904Y-96850057D01*
X176661904Y-96850057D02*
X176709523Y-96945295D01*
X176709523Y-96945295D02*
X176709523Y-97040533D01*
X176709523Y-97040533D02*
X176661904Y-97135771D01*
X176661904Y-97135771D02*
X176614285Y-97183390D01*
X176614285Y-97183390D02*
X176519047Y-97231009D01*
X176519047Y-97231009D02*
X176185714Y-97231009D01*
X177090476Y-96754819D02*
X177757142Y-96754819D01*
X177757142Y-96754819D02*
X177090476Y-97754819D01*
X177090476Y-97754819D02*
X177757142Y-97754819D01*
X178661904Y-97754819D02*
X178090476Y-97754819D01*
X178376190Y-97754819D02*
X178376190Y-96754819D01*
X178376190Y-96754819D02*
X178280952Y-96897676D01*
X178280952Y-96897676D02*
X178185714Y-96992914D01*
X178185714Y-96992914D02*
X178090476Y-97040533D01*
D10*
X174382142Y-86807557D02*
X174351190Y-86838510D01*
X174351190Y-86838510D02*
X174258332Y-86869462D01*
X174258332Y-86869462D02*
X174196428Y-86869462D01*
X174196428Y-86869462D02*
X174103571Y-86838510D01*
X174103571Y-86838510D02*
X174041666Y-86776605D01*
X174041666Y-86776605D02*
X174010713Y-86714700D01*
X174010713Y-86714700D02*
X173979761Y-86590890D01*
X173979761Y-86590890D02*
X173979761Y-86498033D01*
X173979761Y-86498033D02*
X174010713Y-86374224D01*
X174010713Y-86374224D02*
X174041666Y-86312319D01*
X174041666Y-86312319D02*
X174103571Y-86250414D01*
X174103571Y-86250414D02*
X174196428Y-86219462D01*
X174196428Y-86219462D02*
X174258332Y-86219462D01*
X174258332Y-86219462D02*
X174351190Y-86250414D01*
X174351190Y-86250414D02*
X174382142Y-86281367D01*
X174629761Y-86281367D02*
X174660713Y-86250414D01*
X174660713Y-86250414D02*
X174722618Y-86219462D01*
X174722618Y-86219462D02*
X174877380Y-86219462D01*
X174877380Y-86219462D02*
X174939285Y-86250414D01*
X174939285Y-86250414D02*
X174970237Y-86281367D01*
X174970237Y-86281367D02*
X175001190Y-86343271D01*
X175001190Y-86343271D02*
X175001190Y-86405176D01*
X175001190Y-86405176D02*
X174970237Y-86498033D01*
X174970237Y-86498033D02*
X174598809Y-86869462D01*
X174598809Y-86869462D02*
X175001190Y-86869462D01*
X175248809Y-86281367D02*
X175279761Y-86250414D01*
X175279761Y-86250414D02*
X175341666Y-86219462D01*
X175341666Y-86219462D02*
X175496428Y-86219462D01*
X175496428Y-86219462D02*
X175558333Y-86250414D01*
X175558333Y-86250414D02*
X175589285Y-86281367D01*
X175589285Y-86281367D02*
X175620238Y-86343271D01*
X175620238Y-86343271D02*
X175620238Y-86405176D01*
X175620238Y-86405176D02*
X175589285Y-86498033D01*
X175589285Y-86498033D02*
X175217857Y-86869462D01*
X175217857Y-86869462D02*
X175620238Y-86869462D01*
X169554761Y-94444462D02*
X169554761Y-94970652D01*
X169554761Y-94970652D02*
X169585714Y-95032557D01*
X169585714Y-95032557D02*
X169616666Y-95063510D01*
X169616666Y-95063510D02*
X169678571Y-95094462D01*
X169678571Y-95094462D02*
X169802380Y-95094462D01*
X169802380Y-95094462D02*
X169864285Y-95063510D01*
X169864285Y-95063510D02*
X169895238Y-95032557D01*
X169895238Y-95032557D02*
X169926190Y-94970652D01*
X169926190Y-94970652D02*
X169926190Y-94444462D01*
X170204761Y-94506367D02*
X170235713Y-94475414D01*
X170235713Y-94475414D02*
X170297618Y-94444462D01*
X170297618Y-94444462D02*
X170452380Y-94444462D01*
X170452380Y-94444462D02*
X170514285Y-94475414D01*
X170514285Y-94475414D02*
X170545237Y-94506367D01*
X170545237Y-94506367D02*
X170576190Y-94568271D01*
X170576190Y-94568271D02*
X170576190Y-94630176D01*
X170576190Y-94630176D02*
X170545237Y-94723033D01*
X170545237Y-94723033D02*
X170173809Y-95094462D01*
X170173809Y-95094462D02*
X170576190Y-95094462D01*
X175745237Y-94719462D02*
X175745237Y-94069462D01*
X175745237Y-94069462D02*
X175899999Y-94069462D01*
X175899999Y-94069462D02*
X175992856Y-94100414D01*
X175992856Y-94100414D02*
X176054761Y-94162319D01*
X176054761Y-94162319D02*
X176085714Y-94224224D01*
X176085714Y-94224224D02*
X176116666Y-94348033D01*
X176116666Y-94348033D02*
X176116666Y-94440890D01*
X176116666Y-94440890D02*
X176085714Y-94564700D01*
X176085714Y-94564700D02*
X176054761Y-94626605D01*
X176054761Y-94626605D02*
X175992856Y-94688510D01*
X175992856Y-94688510D02*
X175899999Y-94719462D01*
X175899999Y-94719462D02*
X175745237Y-94719462D01*
X176364285Y-94131367D02*
X176395237Y-94100414D01*
X176395237Y-94100414D02*
X176457142Y-94069462D01*
X176457142Y-94069462D02*
X176611904Y-94069462D01*
X176611904Y-94069462D02*
X176673809Y-94100414D01*
X176673809Y-94100414D02*
X176704761Y-94131367D01*
X176704761Y-94131367D02*
X176735714Y-94193271D01*
X176735714Y-94193271D02*
X176735714Y-94255176D01*
X176735714Y-94255176D02*
X176704761Y-94348033D01*
X176704761Y-94348033D02*
X176333333Y-94719462D01*
X176333333Y-94719462D02*
X176735714Y-94719462D01*
X184466666Y-88844462D02*
X184157142Y-88844462D01*
X184157142Y-88844462D02*
X184157142Y-88194462D01*
X185023809Y-88844462D02*
X184652380Y-88844462D01*
X184838094Y-88844462D02*
X184838094Y-88194462D01*
X184838094Y-88194462D02*
X184776190Y-88287319D01*
X184776190Y-88287319D02*
X184714285Y-88349224D01*
X184714285Y-88349224D02*
X184652380Y-88380176D01*
X188257142Y-96907557D02*
X188226190Y-96938510D01*
X188226190Y-96938510D02*
X188133332Y-96969462D01*
X188133332Y-96969462D02*
X188071428Y-96969462D01*
X188071428Y-96969462D02*
X187978571Y-96938510D01*
X187978571Y-96938510D02*
X187916666Y-96876605D01*
X187916666Y-96876605D02*
X187885713Y-96814700D01*
X187885713Y-96814700D02*
X187854761Y-96690890D01*
X187854761Y-96690890D02*
X187854761Y-96598033D01*
X187854761Y-96598033D02*
X187885713Y-96474224D01*
X187885713Y-96474224D02*
X187916666Y-96412319D01*
X187916666Y-96412319D02*
X187978571Y-96350414D01*
X187978571Y-96350414D02*
X188071428Y-96319462D01*
X188071428Y-96319462D02*
X188133332Y-96319462D01*
X188133332Y-96319462D02*
X188226190Y-96350414D01*
X188226190Y-96350414D02*
X188257142Y-96381367D01*
X188504761Y-96381367D02*
X188535713Y-96350414D01*
X188535713Y-96350414D02*
X188597618Y-96319462D01*
X188597618Y-96319462D02*
X188752380Y-96319462D01*
X188752380Y-96319462D02*
X188814285Y-96350414D01*
X188814285Y-96350414D02*
X188845237Y-96381367D01*
X188845237Y-96381367D02*
X188876190Y-96443271D01*
X188876190Y-96443271D02*
X188876190Y-96505176D01*
X188876190Y-96505176D02*
X188845237Y-96598033D01*
X188845237Y-96598033D02*
X188473809Y-96969462D01*
X188473809Y-96969462D02*
X188876190Y-96969462D01*
X189433333Y-96536129D02*
X189433333Y-96969462D01*
X189278571Y-96288510D02*
X189123809Y-96752795D01*
X189123809Y-96752795D02*
X189526190Y-96752795D01*
X193208333Y-96194462D02*
X193208333Y-96658748D01*
X193208333Y-96658748D02*
X193177380Y-96751605D01*
X193177380Y-96751605D02*
X193115476Y-96813510D01*
X193115476Y-96813510D02*
X193022618Y-96844462D01*
X193022618Y-96844462D02*
X192960714Y-96844462D01*
X193610714Y-96473033D02*
X193548809Y-96442081D01*
X193548809Y-96442081D02*
X193517856Y-96411129D01*
X193517856Y-96411129D02*
X193486904Y-96349224D01*
X193486904Y-96349224D02*
X193486904Y-96318271D01*
X193486904Y-96318271D02*
X193517856Y-96256367D01*
X193517856Y-96256367D02*
X193548809Y-96225414D01*
X193548809Y-96225414D02*
X193610714Y-96194462D01*
X193610714Y-96194462D02*
X193734523Y-96194462D01*
X193734523Y-96194462D02*
X193796428Y-96225414D01*
X193796428Y-96225414D02*
X193827380Y-96256367D01*
X193827380Y-96256367D02*
X193858333Y-96318271D01*
X193858333Y-96318271D02*
X193858333Y-96349224D01*
X193858333Y-96349224D02*
X193827380Y-96411129D01*
X193827380Y-96411129D02*
X193796428Y-96442081D01*
X193796428Y-96442081D02*
X193734523Y-96473033D01*
X193734523Y-96473033D02*
X193610714Y-96473033D01*
X193610714Y-96473033D02*
X193548809Y-96503986D01*
X193548809Y-96503986D02*
X193517856Y-96534938D01*
X193517856Y-96534938D02*
X193486904Y-96596843D01*
X193486904Y-96596843D02*
X193486904Y-96720652D01*
X193486904Y-96720652D02*
X193517856Y-96782557D01*
X193517856Y-96782557D02*
X193548809Y-96813510D01*
X193548809Y-96813510D02*
X193610714Y-96844462D01*
X193610714Y-96844462D02*
X193734523Y-96844462D01*
X193734523Y-96844462D02*
X193796428Y-96813510D01*
X193796428Y-96813510D02*
X193827380Y-96782557D01*
X193827380Y-96782557D02*
X193858333Y-96720652D01*
X193858333Y-96720652D02*
X193858333Y-96596843D01*
X193858333Y-96596843D02*
X193827380Y-96534938D01*
X193827380Y-96534938D02*
X193796428Y-96503986D01*
X193796428Y-96503986D02*
X193734523Y-96473033D01*
X186982142Y-100957557D02*
X186951190Y-100988510D01*
X186951190Y-100988510D02*
X186858332Y-101019462D01*
X186858332Y-101019462D02*
X186796428Y-101019462D01*
X186796428Y-101019462D02*
X186703571Y-100988510D01*
X186703571Y-100988510D02*
X186641666Y-100926605D01*
X186641666Y-100926605D02*
X186610713Y-100864700D01*
X186610713Y-100864700D02*
X186579761Y-100740890D01*
X186579761Y-100740890D02*
X186579761Y-100648033D01*
X186579761Y-100648033D02*
X186610713Y-100524224D01*
X186610713Y-100524224D02*
X186641666Y-100462319D01*
X186641666Y-100462319D02*
X186703571Y-100400414D01*
X186703571Y-100400414D02*
X186796428Y-100369462D01*
X186796428Y-100369462D02*
X186858332Y-100369462D01*
X186858332Y-100369462D02*
X186951190Y-100400414D01*
X186951190Y-100400414D02*
X186982142Y-100431367D01*
X187229761Y-100431367D02*
X187260713Y-100400414D01*
X187260713Y-100400414D02*
X187322618Y-100369462D01*
X187322618Y-100369462D02*
X187477380Y-100369462D01*
X187477380Y-100369462D02*
X187539285Y-100400414D01*
X187539285Y-100400414D02*
X187570237Y-100431367D01*
X187570237Y-100431367D02*
X187601190Y-100493271D01*
X187601190Y-100493271D02*
X187601190Y-100555176D01*
X187601190Y-100555176D02*
X187570237Y-100648033D01*
X187570237Y-100648033D02*
X187198809Y-101019462D01*
X187198809Y-101019462D02*
X187601190Y-101019462D01*
X187972619Y-100648033D02*
X187910714Y-100617081D01*
X187910714Y-100617081D02*
X187879761Y-100586129D01*
X187879761Y-100586129D02*
X187848809Y-100524224D01*
X187848809Y-100524224D02*
X187848809Y-100493271D01*
X187848809Y-100493271D02*
X187879761Y-100431367D01*
X187879761Y-100431367D02*
X187910714Y-100400414D01*
X187910714Y-100400414D02*
X187972619Y-100369462D01*
X187972619Y-100369462D02*
X188096428Y-100369462D01*
X188096428Y-100369462D02*
X188158333Y-100400414D01*
X188158333Y-100400414D02*
X188189285Y-100431367D01*
X188189285Y-100431367D02*
X188220238Y-100493271D01*
X188220238Y-100493271D02*
X188220238Y-100524224D01*
X188220238Y-100524224D02*
X188189285Y-100586129D01*
X188189285Y-100586129D02*
X188158333Y-100617081D01*
X188158333Y-100617081D02*
X188096428Y-100648033D01*
X188096428Y-100648033D02*
X187972619Y-100648033D01*
X187972619Y-100648033D02*
X187910714Y-100678986D01*
X187910714Y-100678986D02*
X187879761Y-100709938D01*
X187879761Y-100709938D02*
X187848809Y-100771843D01*
X187848809Y-100771843D02*
X187848809Y-100895652D01*
X187848809Y-100895652D02*
X187879761Y-100957557D01*
X187879761Y-100957557D02*
X187910714Y-100988510D01*
X187910714Y-100988510D02*
X187972619Y-101019462D01*
X187972619Y-101019462D02*
X188096428Y-101019462D01*
X188096428Y-101019462D02*
X188158333Y-100988510D01*
X188158333Y-100988510D02*
X188189285Y-100957557D01*
X188189285Y-100957557D02*
X188220238Y-100895652D01*
X188220238Y-100895652D02*
X188220238Y-100771843D01*
X188220238Y-100771843D02*
X188189285Y-100709938D01*
X188189285Y-100709938D02*
X188158333Y-100678986D01*
X188158333Y-100678986D02*
X188096428Y-100648033D01*
X186166666Y-55069462D02*
X185949999Y-54759938D01*
X185795237Y-55069462D02*
X185795237Y-54419462D01*
X185795237Y-54419462D02*
X186042856Y-54419462D01*
X186042856Y-54419462D02*
X186104761Y-54450414D01*
X186104761Y-54450414D02*
X186135714Y-54481367D01*
X186135714Y-54481367D02*
X186166666Y-54543271D01*
X186166666Y-54543271D02*
X186166666Y-54636129D01*
X186166666Y-54636129D02*
X186135714Y-54698033D01*
X186135714Y-54698033D02*
X186104761Y-54728986D01*
X186104761Y-54728986D02*
X186042856Y-54759938D01*
X186042856Y-54759938D02*
X185795237Y-54759938D01*
X186538095Y-54698033D02*
X186476190Y-54667081D01*
X186476190Y-54667081D02*
X186445237Y-54636129D01*
X186445237Y-54636129D02*
X186414285Y-54574224D01*
X186414285Y-54574224D02*
X186414285Y-54543271D01*
X186414285Y-54543271D02*
X186445237Y-54481367D01*
X186445237Y-54481367D02*
X186476190Y-54450414D01*
X186476190Y-54450414D02*
X186538095Y-54419462D01*
X186538095Y-54419462D02*
X186661904Y-54419462D01*
X186661904Y-54419462D02*
X186723809Y-54450414D01*
X186723809Y-54450414D02*
X186754761Y-54481367D01*
X186754761Y-54481367D02*
X186785714Y-54543271D01*
X186785714Y-54543271D02*
X186785714Y-54574224D01*
X186785714Y-54574224D02*
X186754761Y-54636129D01*
X186754761Y-54636129D02*
X186723809Y-54667081D01*
X186723809Y-54667081D02*
X186661904Y-54698033D01*
X186661904Y-54698033D02*
X186538095Y-54698033D01*
X186538095Y-54698033D02*
X186476190Y-54728986D01*
X186476190Y-54728986D02*
X186445237Y-54759938D01*
X186445237Y-54759938D02*
X186414285Y-54821843D01*
X186414285Y-54821843D02*
X186414285Y-54945652D01*
X186414285Y-54945652D02*
X186445237Y-55007557D01*
X186445237Y-55007557D02*
X186476190Y-55038510D01*
X186476190Y-55038510D02*
X186538095Y-55069462D01*
X186538095Y-55069462D02*
X186661904Y-55069462D01*
X186661904Y-55069462D02*
X186723809Y-55038510D01*
X186723809Y-55038510D02*
X186754761Y-55007557D01*
X186754761Y-55007557D02*
X186785714Y-54945652D01*
X186785714Y-54945652D02*
X186785714Y-54821843D01*
X186785714Y-54821843D02*
X186754761Y-54759938D01*
X186754761Y-54759938D02*
X186723809Y-54728986D01*
X186723809Y-54728986D02*
X186661904Y-54698033D01*
X176557142Y-90582557D02*
X176526190Y-90613510D01*
X176526190Y-90613510D02*
X176433332Y-90644462D01*
X176433332Y-90644462D02*
X176371428Y-90644462D01*
X176371428Y-90644462D02*
X176278571Y-90613510D01*
X176278571Y-90613510D02*
X176216666Y-90551605D01*
X176216666Y-90551605D02*
X176185713Y-90489700D01*
X176185713Y-90489700D02*
X176154761Y-90365890D01*
X176154761Y-90365890D02*
X176154761Y-90273033D01*
X176154761Y-90273033D02*
X176185713Y-90149224D01*
X176185713Y-90149224D02*
X176216666Y-90087319D01*
X176216666Y-90087319D02*
X176278571Y-90025414D01*
X176278571Y-90025414D02*
X176371428Y-89994462D01*
X176371428Y-89994462D02*
X176433332Y-89994462D01*
X176433332Y-89994462D02*
X176526190Y-90025414D01*
X176526190Y-90025414D02*
X176557142Y-90056367D01*
X176804761Y-90056367D02*
X176835713Y-90025414D01*
X176835713Y-90025414D02*
X176897618Y-89994462D01*
X176897618Y-89994462D02*
X177052380Y-89994462D01*
X177052380Y-89994462D02*
X177114285Y-90025414D01*
X177114285Y-90025414D02*
X177145237Y-90056367D01*
X177145237Y-90056367D02*
X177176190Y-90118271D01*
X177176190Y-90118271D02*
X177176190Y-90180176D01*
X177176190Y-90180176D02*
X177145237Y-90273033D01*
X177145237Y-90273033D02*
X176773809Y-90644462D01*
X176773809Y-90644462D02*
X177176190Y-90644462D01*
X177795238Y-90644462D02*
X177423809Y-90644462D01*
X177609523Y-90644462D02*
X177609523Y-89994462D01*
X177609523Y-89994462D02*
X177547619Y-90087319D01*
X177547619Y-90087319D02*
X177485714Y-90149224D01*
X177485714Y-90149224D02*
X177423809Y-90180176D01*
X181057142Y-77469462D02*
X180840475Y-77159938D01*
X180685713Y-77469462D02*
X180685713Y-76819462D01*
X180685713Y-76819462D02*
X180933332Y-76819462D01*
X180933332Y-76819462D02*
X180995237Y-76850414D01*
X180995237Y-76850414D02*
X181026190Y-76881367D01*
X181026190Y-76881367D02*
X181057142Y-76943271D01*
X181057142Y-76943271D02*
X181057142Y-77036129D01*
X181057142Y-77036129D02*
X181026190Y-77098033D01*
X181026190Y-77098033D02*
X180995237Y-77128986D01*
X180995237Y-77128986D02*
X180933332Y-77159938D01*
X180933332Y-77159938D02*
X180685713Y-77159938D01*
X181676190Y-77469462D02*
X181304761Y-77469462D01*
X181490475Y-77469462D02*
X181490475Y-76819462D01*
X181490475Y-76819462D02*
X181428571Y-76912319D01*
X181428571Y-76912319D02*
X181366666Y-76974224D01*
X181366666Y-76974224D02*
X181304761Y-77005176D01*
X181985714Y-77469462D02*
X182109523Y-77469462D01*
X182109523Y-77469462D02*
X182171428Y-77438510D01*
X182171428Y-77438510D02*
X182202380Y-77407557D01*
X182202380Y-77407557D02*
X182264285Y-77314700D01*
X182264285Y-77314700D02*
X182295238Y-77190890D01*
X182295238Y-77190890D02*
X182295238Y-76943271D01*
X182295238Y-76943271D02*
X182264285Y-76881367D01*
X182264285Y-76881367D02*
X182233333Y-76850414D01*
X182233333Y-76850414D02*
X182171428Y-76819462D01*
X182171428Y-76819462D02*
X182047619Y-76819462D01*
X182047619Y-76819462D02*
X181985714Y-76850414D01*
X181985714Y-76850414D02*
X181954761Y-76881367D01*
X181954761Y-76881367D02*
X181923809Y-76943271D01*
X181923809Y-76943271D02*
X181923809Y-77098033D01*
X181923809Y-77098033D02*
X181954761Y-77159938D01*
X181954761Y-77159938D02*
X181985714Y-77190890D01*
X181985714Y-77190890D02*
X182047619Y-77221843D01*
X182047619Y-77221843D02*
X182171428Y-77221843D01*
X182171428Y-77221843D02*
X182233333Y-77190890D01*
X182233333Y-77190890D02*
X182264285Y-77159938D01*
X182264285Y-77159938D02*
X182295238Y-77098033D01*
X186832142Y-67957557D02*
X186801190Y-67988510D01*
X186801190Y-67988510D02*
X186708332Y-68019462D01*
X186708332Y-68019462D02*
X186646428Y-68019462D01*
X186646428Y-68019462D02*
X186553571Y-67988510D01*
X186553571Y-67988510D02*
X186491666Y-67926605D01*
X186491666Y-67926605D02*
X186460713Y-67864700D01*
X186460713Y-67864700D02*
X186429761Y-67740890D01*
X186429761Y-67740890D02*
X186429761Y-67648033D01*
X186429761Y-67648033D02*
X186460713Y-67524224D01*
X186460713Y-67524224D02*
X186491666Y-67462319D01*
X186491666Y-67462319D02*
X186553571Y-67400414D01*
X186553571Y-67400414D02*
X186646428Y-67369462D01*
X186646428Y-67369462D02*
X186708332Y-67369462D01*
X186708332Y-67369462D02*
X186801190Y-67400414D01*
X186801190Y-67400414D02*
X186832142Y-67431367D01*
X187451190Y-68019462D02*
X187079761Y-68019462D01*
X187265475Y-68019462D02*
X187265475Y-67369462D01*
X187265475Y-67369462D02*
X187203571Y-67462319D01*
X187203571Y-67462319D02*
X187141666Y-67524224D01*
X187141666Y-67524224D02*
X187079761Y-67555176D01*
X187667857Y-67369462D02*
X188070238Y-67369462D01*
X188070238Y-67369462D02*
X187853571Y-67617081D01*
X187853571Y-67617081D02*
X187946428Y-67617081D01*
X187946428Y-67617081D02*
X188008333Y-67648033D01*
X188008333Y-67648033D02*
X188039285Y-67678986D01*
X188039285Y-67678986D02*
X188070238Y-67740890D01*
X188070238Y-67740890D02*
X188070238Y-67895652D01*
X188070238Y-67895652D02*
X188039285Y-67957557D01*
X188039285Y-67957557D02*
X188008333Y-67988510D01*
X188008333Y-67988510D02*
X187946428Y-68019462D01*
X187946428Y-68019462D02*
X187760714Y-68019462D01*
X187760714Y-68019462D02*
X187698809Y-67988510D01*
X187698809Y-67988510D02*
X187667857Y-67957557D01*
X186957142Y-99282557D02*
X186926190Y-99313510D01*
X186926190Y-99313510D02*
X186833332Y-99344462D01*
X186833332Y-99344462D02*
X186771428Y-99344462D01*
X186771428Y-99344462D02*
X186678571Y-99313510D01*
X186678571Y-99313510D02*
X186616666Y-99251605D01*
X186616666Y-99251605D02*
X186585713Y-99189700D01*
X186585713Y-99189700D02*
X186554761Y-99065890D01*
X186554761Y-99065890D02*
X186554761Y-98973033D01*
X186554761Y-98973033D02*
X186585713Y-98849224D01*
X186585713Y-98849224D02*
X186616666Y-98787319D01*
X186616666Y-98787319D02*
X186678571Y-98725414D01*
X186678571Y-98725414D02*
X186771428Y-98694462D01*
X186771428Y-98694462D02*
X186833332Y-98694462D01*
X186833332Y-98694462D02*
X186926190Y-98725414D01*
X186926190Y-98725414D02*
X186957142Y-98756367D01*
X187204761Y-98756367D02*
X187235713Y-98725414D01*
X187235713Y-98725414D02*
X187297618Y-98694462D01*
X187297618Y-98694462D02*
X187452380Y-98694462D01*
X187452380Y-98694462D02*
X187514285Y-98725414D01*
X187514285Y-98725414D02*
X187545237Y-98756367D01*
X187545237Y-98756367D02*
X187576190Y-98818271D01*
X187576190Y-98818271D02*
X187576190Y-98880176D01*
X187576190Y-98880176D02*
X187545237Y-98973033D01*
X187545237Y-98973033D02*
X187173809Y-99344462D01*
X187173809Y-99344462D02*
X187576190Y-99344462D01*
X187792857Y-98694462D02*
X188226190Y-98694462D01*
X188226190Y-98694462D02*
X187947619Y-99344462D01*
X174532142Y-76769462D02*
X174315475Y-76459938D01*
X174160713Y-76769462D02*
X174160713Y-76119462D01*
X174160713Y-76119462D02*
X174408332Y-76119462D01*
X174408332Y-76119462D02*
X174470237Y-76150414D01*
X174470237Y-76150414D02*
X174501190Y-76181367D01*
X174501190Y-76181367D02*
X174532142Y-76243271D01*
X174532142Y-76243271D02*
X174532142Y-76336129D01*
X174532142Y-76336129D02*
X174501190Y-76398033D01*
X174501190Y-76398033D02*
X174470237Y-76428986D01*
X174470237Y-76428986D02*
X174408332Y-76459938D01*
X174408332Y-76459938D02*
X174160713Y-76459938D01*
X175151190Y-76769462D02*
X174779761Y-76769462D01*
X174965475Y-76769462D02*
X174965475Y-76119462D01*
X174965475Y-76119462D02*
X174903571Y-76212319D01*
X174903571Y-76212319D02*
X174841666Y-76274224D01*
X174841666Y-76274224D02*
X174779761Y-76305176D01*
X175367857Y-76119462D02*
X175801190Y-76119462D01*
X175801190Y-76119462D02*
X175522619Y-76769462D01*
X187266666Y-71194462D02*
X187049999Y-70884938D01*
X186895237Y-71194462D02*
X186895237Y-70544462D01*
X186895237Y-70544462D02*
X187142856Y-70544462D01*
X187142856Y-70544462D02*
X187204761Y-70575414D01*
X187204761Y-70575414D02*
X187235714Y-70606367D01*
X187235714Y-70606367D02*
X187266666Y-70668271D01*
X187266666Y-70668271D02*
X187266666Y-70761129D01*
X187266666Y-70761129D02*
X187235714Y-70823033D01*
X187235714Y-70823033D02*
X187204761Y-70853986D01*
X187204761Y-70853986D02*
X187142856Y-70884938D01*
X187142856Y-70884938D02*
X186895237Y-70884938D01*
X187483333Y-70544462D02*
X187885714Y-70544462D01*
X187885714Y-70544462D02*
X187669047Y-70792081D01*
X187669047Y-70792081D02*
X187761904Y-70792081D01*
X187761904Y-70792081D02*
X187823809Y-70823033D01*
X187823809Y-70823033D02*
X187854761Y-70853986D01*
X187854761Y-70853986D02*
X187885714Y-70915890D01*
X187885714Y-70915890D02*
X187885714Y-71070652D01*
X187885714Y-71070652D02*
X187854761Y-71132557D01*
X187854761Y-71132557D02*
X187823809Y-71163510D01*
X187823809Y-71163510D02*
X187761904Y-71194462D01*
X187761904Y-71194462D02*
X187576190Y-71194462D01*
X187576190Y-71194462D02*
X187514285Y-71163510D01*
X187514285Y-71163510D02*
X187483333Y-71132557D01*
X175513510Y-59566666D02*
X175544462Y-59473809D01*
X175544462Y-59473809D02*
X175544462Y-59319047D01*
X175544462Y-59319047D02*
X175513510Y-59257142D01*
X175513510Y-59257142D02*
X175482557Y-59226190D01*
X175482557Y-59226190D02*
X175420652Y-59195237D01*
X175420652Y-59195237D02*
X175358748Y-59195237D01*
X175358748Y-59195237D02*
X175296843Y-59226190D01*
X175296843Y-59226190D02*
X175265890Y-59257142D01*
X175265890Y-59257142D02*
X175234938Y-59319047D01*
X175234938Y-59319047D02*
X175203986Y-59442856D01*
X175203986Y-59442856D02*
X175173033Y-59504761D01*
X175173033Y-59504761D02*
X175142081Y-59535714D01*
X175142081Y-59535714D02*
X175080176Y-59566666D01*
X175080176Y-59566666D02*
X175018271Y-59566666D01*
X175018271Y-59566666D02*
X174956367Y-59535714D01*
X174956367Y-59535714D02*
X174925414Y-59504761D01*
X174925414Y-59504761D02*
X174894462Y-59442856D01*
X174894462Y-59442856D02*
X174894462Y-59288095D01*
X174894462Y-59288095D02*
X174925414Y-59195237D01*
X174894462Y-58978570D02*
X175544462Y-58823808D01*
X175544462Y-58823808D02*
X175080176Y-58699999D01*
X175080176Y-58699999D02*
X175544462Y-58576189D01*
X175544462Y-58576189D02*
X174894462Y-58421428D01*
X175544462Y-57833332D02*
X175544462Y-58204761D01*
X175544462Y-58019047D02*
X174894462Y-58019047D01*
X174894462Y-58019047D02*
X174987319Y-58080951D01*
X174987319Y-58080951D02*
X175049224Y-58142856D01*
X175049224Y-58142856D02*
X175080176Y-58204761D01*
X188991666Y-61924462D02*
X188774999Y-61614938D01*
X188620237Y-61924462D02*
X188620237Y-61274462D01*
X188620237Y-61274462D02*
X188867856Y-61274462D01*
X188867856Y-61274462D02*
X188929761Y-61305414D01*
X188929761Y-61305414D02*
X188960714Y-61336367D01*
X188960714Y-61336367D02*
X188991666Y-61398271D01*
X188991666Y-61398271D02*
X188991666Y-61491129D01*
X188991666Y-61491129D02*
X188960714Y-61553033D01*
X188960714Y-61553033D02*
X188929761Y-61583986D01*
X188929761Y-61583986D02*
X188867856Y-61614938D01*
X188867856Y-61614938D02*
X188620237Y-61614938D01*
X189208333Y-61274462D02*
X189641666Y-61274462D01*
X189641666Y-61274462D02*
X189363095Y-61924462D01*
X172657142Y-82157557D02*
X172626190Y-82188510D01*
X172626190Y-82188510D02*
X172533332Y-82219462D01*
X172533332Y-82219462D02*
X172471428Y-82219462D01*
X172471428Y-82219462D02*
X172378571Y-82188510D01*
X172378571Y-82188510D02*
X172316666Y-82126605D01*
X172316666Y-82126605D02*
X172285713Y-82064700D01*
X172285713Y-82064700D02*
X172254761Y-81940890D01*
X172254761Y-81940890D02*
X172254761Y-81848033D01*
X172254761Y-81848033D02*
X172285713Y-81724224D01*
X172285713Y-81724224D02*
X172316666Y-81662319D01*
X172316666Y-81662319D02*
X172378571Y-81600414D01*
X172378571Y-81600414D02*
X172471428Y-81569462D01*
X172471428Y-81569462D02*
X172533332Y-81569462D01*
X172533332Y-81569462D02*
X172626190Y-81600414D01*
X172626190Y-81600414D02*
X172657142Y-81631367D01*
X172904761Y-81631367D02*
X172935713Y-81600414D01*
X172935713Y-81600414D02*
X172997618Y-81569462D01*
X172997618Y-81569462D02*
X173152380Y-81569462D01*
X173152380Y-81569462D02*
X173214285Y-81600414D01*
X173214285Y-81600414D02*
X173245237Y-81631367D01*
X173245237Y-81631367D02*
X173276190Y-81693271D01*
X173276190Y-81693271D02*
X173276190Y-81755176D01*
X173276190Y-81755176D02*
X173245237Y-81848033D01*
X173245237Y-81848033D02*
X172873809Y-82219462D01*
X172873809Y-82219462D02*
X173276190Y-82219462D01*
X173492857Y-81569462D02*
X173895238Y-81569462D01*
X173895238Y-81569462D02*
X173678571Y-81817081D01*
X173678571Y-81817081D02*
X173771428Y-81817081D01*
X173771428Y-81817081D02*
X173833333Y-81848033D01*
X173833333Y-81848033D02*
X173864285Y-81878986D01*
X173864285Y-81878986D02*
X173895238Y-81940890D01*
X173895238Y-81940890D02*
X173895238Y-82095652D01*
X173895238Y-82095652D02*
X173864285Y-82157557D01*
X173864285Y-82157557D02*
X173833333Y-82188510D01*
X173833333Y-82188510D02*
X173771428Y-82219462D01*
X173771428Y-82219462D02*
X173585714Y-82219462D01*
X173585714Y-82219462D02*
X173523809Y-82188510D01*
X173523809Y-82188510D02*
X173492857Y-82157557D01*
X187166666Y-80994462D02*
X186949999Y-80684938D01*
X186795237Y-80994462D02*
X186795237Y-80344462D01*
X186795237Y-80344462D02*
X187042856Y-80344462D01*
X187042856Y-80344462D02*
X187104761Y-80375414D01*
X187104761Y-80375414D02*
X187135714Y-80406367D01*
X187135714Y-80406367D02*
X187166666Y-80468271D01*
X187166666Y-80468271D02*
X187166666Y-80561129D01*
X187166666Y-80561129D02*
X187135714Y-80623033D01*
X187135714Y-80623033D02*
X187104761Y-80653986D01*
X187104761Y-80653986D02*
X187042856Y-80684938D01*
X187042856Y-80684938D02*
X186795237Y-80684938D01*
X187723809Y-80561129D02*
X187723809Y-80994462D01*
X187569047Y-80313510D02*
X187414285Y-80777795D01*
X187414285Y-80777795D02*
X187816666Y-80777795D01*
%TO.C,U5*%
X175640000Y-83000000D02*
X175640000Y-82200000D01*
X175640000Y-83000000D02*
X175640000Y-83800000D01*
X178760000Y-83000000D02*
X178760000Y-82200000D01*
X178760000Y-83000000D02*
X178760000Y-83800000D01*
X175690000Y-84300000D02*
X175360000Y-84540000D01*
X175360000Y-84060000D01*
X175690000Y-84300000D01*
G36*
X175690000Y-84300000D02*
G01*
X175360000Y-84540000D01*
X175360000Y-84060000D01*
X175690000Y-84300000D01*
G37*
D14*
%TO.C,U4*%
X160412500Y-61400000D02*
X186412500Y-61400000D01*
X160412500Y-87400000D02*
X160412500Y-61400000D01*
X184412500Y-67400000D02*
X184412500Y-81400000D01*
X184412500Y-81400000D02*
X186412500Y-81400000D01*
X186412500Y-61400000D02*
X186412500Y-67400000D01*
X186412500Y-67400000D02*
X184412500Y-67400000D01*
X186412500Y-81400000D02*
X186412500Y-87400000D01*
X186412500Y-87400000D02*
X160412500Y-87400000D01*
D11*
X160012500Y-78400000D02*
G75*
G02*
X159812500Y-78400000I-100000J0D01*
G01*
X159812500Y-78400000D02*
G75*
G02*
X160012500Y-78400000I100000J0D01*
G01*
D10*
%TO.C,SW2*%
X190000000Y-61100000D02*
X190000000Y-67500000D01*
X190000000Y-67500000D02*
X191200000Y-67500000D01*
X191200000Y-61100000D02*
X190000000Y-61100000D01*
X192800000Y-67500000D02*
X194000000Y-67500000D01*
X194000000Y-61100000D02*
X192800000Y-61100000D01*
X194000000Y-67500000D02*
X194000000Y-61100000D01*
%TO.C,C14*%
X188290000Y-77515580D02*
X188290000Y-77234420D01*
X189310000Y-77515580D02*
X189310000Y-77234420D01*
%TO.C,R20*%
X188177500Y-104462742D02*
X188177500Y-104937258D01*
X189222500Y-104462742D02*
X189222500Y-104937258D01*
%TO.C,R2*%
X185162742Y-59777500D02*
X185637258Y-59777500D01*
X185162742Y-60822500D02*
X185637258Y-60822500D01*
%TO.C,R15*%
X179477500Y-83104724D02*
X179477500Y-82595276D01*
X180522500Y-83104724D02*
X180522500Y-82595276D01*
%TO.C,C8*%
X185690000Y-57865580D02*
X185690000Y-57584420D01*
X186710000Y-57865580D02*
X186710000Y-57584420D01*
%TO.C,J1*%
X162000000Y-104870000D02*
X162000000Y-107630000D01*
X164650000Y-104870000D02*
X162000000Y-104870000D01*
X164650000Y-104870000D02*
X164650000Y-107630000D01*
X164650000Y-107630000D02*
X162000000Y-107630000D01*
X165920000Y-104870000D02*
X167300000Y-104870000D01*
X167300000Y-104870000D02*
X167300000Y-106250000D01*
%TO.C,C25*%
X186590000Y-94559420D02*
X186590000Y-94840580D01*
X187610000Y-94559420D02*
X187610000Y-94840580D01*
%TO.C,R5*%
X188277500Y-90637258D02*
X188277500Y-90162742D01*
X189322500Y-90637258D02*
X189322500Y-90162742D01*
%TO.C,C26*%
X177415580Y-79352500D02*
X177134420Y-79352500D01*
X177415580Y-80372500D02*
X177134420Y-80372500D01*
%TO.C,R18*%
X176987742Y-77640000D02*
X177462258Y-77640000D01*
X176987742Y-78685000D02*
X177462258Y-78685000D01*
%TO.C,R21*%
X186377500Y-104462742D02*
X186377500Y-104937258D01*
X187422500Y-104462742D02*
X187422500Y-104937258D01*
%TO.C,C16*%
X168840580Y-91590000D02*
X168559420Y-91590000D01*
X168840580Y-92610000D02*
X168559420Y-92610000D01*
%TO.C,R16*%
X181077500Y-82607776D02*
X181077500Y-83117224D01*
X182122500Y-82607776D02*
X182122500Y-83117224D01*
%TO.C,C15*%
X188290000Y-87340580D02*
X188290000Y-87059420D01*
X189310000Y-87340580D02*
X189310000Y-87059420D01*
%TO.C,C2*%
X189740000Y-94840580D02*
X189740000Y-94559420D01*
X190760000Y-94840580D02*
X190760000Y-94559420D01*
%TO.C,BZ1*%
X172573431Y-104199999D02*
G75*
G02*
X172573431Y-101200000I6400009J1499999D01*
G01*
X181800000Y-102700000D02*
G75*
G02*
X172800000Y-102700000I-4500000J0D01*
G01*
X172800000Y-102700000D02*
G75*
G02*
X181800000Y-102700000I4500000J0D01*
G01*
%TO.C,C22*%
X177140580Y-86590000D02*
X176859420Y-86590000D01*
X177140580Y-87610000D02*
X176859420Y-87610000D01*
%TO.C,U2*%
X170050000Y-93140000D02*
X168550000Y-93140000D01*
X170050000Y-93140000D02*
X171550000Y-93140000D01*
X170050000Y-96360000D02*
X168550000Y-96360000D01*
X170050000Y-96360000D02*
X171550000Y-96360000D01*
X172502500Y-96490000D02*
X172022500Y-96490000D01*
X172262500Y-96160000D01*
X172502500Y-96490000D01*
G36*
X172502500Y-96490000D02*
G01*
X172022500Y-96490000D01*
X172262500Y-96160000D01*
X172502500Y-96490000D01*
G37*
D12*
%TO.C,J7*%
X188670000Y-52600000D02*
X188670000Y-53100000D01*
X188670000Y-52600000D02*
X189170000Y-52600000D01*
X188670000Y-55400000D02*
X188670000Y-54900000D01*
X188670000Y-55400000D02*
X189170000Y-55400000D01*
X193970000Y-52600000D02*
X193470000Y-52600000D01*
X193970000Y-52600000D02*
X193970000Y-53100000D01*
X193970000Y-55400000D02*
X193470000Y-55400000D01*
X193970000Y-55400000D02*
X193970000Y-54900000D01*
%TO.C,J6*%
X188670000Y-55700000D02*
X188670000Y-56200000D01*
X188670000Y-55700000D02*
X189170000Y-55700000D01*
X188670000Y-58500000D02*
X188670000Y-58000000D01*
X188670000Y-58500000D02*
X189170000Y-58500000D01*
X193970000Y-55700000D02*
X193470000Y-55700000D01*
X193970000Y-55700000D02*
X193970000Y-56200000D01*
X193970000Y-58500000D02*
X193470000Y-58500000D01*
X193970000Y-58500000D02*
X193970000Y-58000000D01*
D10*
%TO.C,D2*%
X175200000Y-93710000D02*
X178510000Y-93710000D01*
X178510000Y-91690000D02*
X175200000Y-91690000D01*
X178510000Y-91690000D02*
X178510000Y-93710000D01*
D15*
%TO.C,L1*%
X179300000Y-89300000D02*
X179300000Y-95700000D01*
X179300000Y-95700000D02*
X180050000Y-95700000D01*
X180050000Y-89300000D02*
X179300000Y-89300000D01*
X184550000Y-89300000D02*
X185300000Y-89300000D01*
X185300000Y-89300000D02*
X185300000Y-95700000D01*
X185300000Y-95700000D02*
X184550000Y-95700000D01*
D16*
%TO.C,G\u002A\u002A\u002A*%
G36*
X197569283Y-83286084D02*
G01*
X197580358Y-83288609D01*
X197596777Y-83294538D01*
X197614146Y-83302676D01*
X197619488Y-83305657D01*
X197626613Y-83311133D01*
X197639091Y-83322107D01*
X197656183Y-83337871D01*
X197677147Y-83357721D01*
X197701244Y-83380952D01*
X197727731Y-83406858D01*
X197755869Y-83434733D01*
X197772221Y-83451092D01*
X197807331Y-83486396D01*
X197836784Y-83516264D01*
X197861077Y-83541402D01*
X197880710Y-83562517D01*
X197896181Y-83580314D01*
X197907987Y-83595500D01*
X197916629Y-83608780D01*
X197922604Y-83620861D01*
X197926410Y-83632448D01*
X197928546Y-83644247D01*
X197929511Y-83656965D01*
X197929803Y-83671307D01*
X197929824Y-83674316D01*
X197929922Y-83685604D01*
X197929820Y-83695704D01*
X197929144Y-83705078D01*
X197927519Y-83714187D01*
X197924573Y-83723494D01*
X197919930Y-83733459D01*
X197913217Y-83744546D01*
X197904061Y-83757215D01*
X197892086Y-83771928D01*
X197876920Y-83789148D01*
X197858187Y-83809336D01*
X197835515Y-83832954D01*
X197808530Y-83860464D01*
X197776856Y-83892327D01*
X197740122Y-83929006D01*
X197697951Y-83970962D01*
X197655230Y-84013428D01*
X197539750Y-84128235D01*
X197430280Y-84237061D01*
X197326662Y-84340062D01*
X197228743Y-84437391D01*
X197136367Y-84529202D01*
X197049379Y-84615648D01*
X196967623Y-84696883D01*
X196890944Y-84773062D01*
X196819187Y-84844337D01*
X196752197Y-84910862D01*
X196689818Y-84972793D01*
X196631895Y-85030281D01*
X196578273Y-85083481D01*
X196528797Y-85132547D01*
X196483311Y-85177633D01*
X196441659Y-85218892D01*
X196403688Y-85256477D01*
X196369241Y-85290544D01*
X196338163Y-85321245D01*
X196310299Y-85348735D01*
X196285494Y-85373167D01*
X196263592Y-85394695D01*
X196244438Y-85413473D01*
X196227878Y-85429654D01*
X196213754Y-85443393D01*
X196201913Y-85454842D01*
X196192199Y-85464157D01*
X196184457Y-85471490D01*
X196178532Y-85476996D01*
X196174267Y-85480827D01*
X196171509Y-85483139D01*
X196170682Y-85483749D01*
X196141169Y-85498839D01*
X196108563Y-85507062D01*
X196074694Y-85508497D01*
X196041390Y-85503223D01*
X196010482Y-85491316D01*
X195987304Y-85475910D01*
X195982745Y-85471608D01*
X195972134Y-85461279D01*
X195955577Y-85445029D01*
X195933183Y-85422968D01*
X195905062Y-85395202D01*
X195871321Y-85361839D01*
X195832069Y-85322988D01*
X195787415Y-85278755D01*
X195737467Y-85229248D01*
X195682333Y-85174576D01*
X195622123Y-85114845D01*
X195556945Y-85050165D01*
X195486907Y-84980641D01*
X195412118Y-84906383D01*
X195332686Y-84827497D01*
X195248721Y-84744092D01*
X195160329Y-84656275D01*
X195067621Y-84564153D01*
X194970704Y-84467836D01*
X194869688Y-84367430D01*
X194764680Y-84263043D01*
X194655789Y-84154782D01*
X194543124Y-84042757D01*
X194489596Y-83989528D01*
X194444458Y-83944638D01*
X194405080Y-83905405D01*
X194371070Y-83871337D01*
X194342036Y-83841946D01*
X194317587Y-83816741D01*
X194297329Y-83795232D01*
X194280872Y-83776931D01*
X194267823Y-83761346D01*
X194257791Y-83747989D01*
X194250383Y-83736370D01*
X194245208Y-83725998D01*
X194241873Y-83716384D01*
X194239987Y-83707038D01*
X194239157Y-83697471D01*
X194238992Y-83687192D01*
X194239093Y-83676493D01*
X194240786Y-83649326D01*
X194245733Y-83626275D01*
X194249437Y-83615532D01*
X194252198Y-83608921D01*
X194255640Y-83602286D01*
X194260335Y-83594990D01*
X194266853Y-83586399D01*
X194275765Y-83575877D01*
X194287640Y-83562787D01*
X194303050Y-83546494D01*
X194322565Y-83526362D01*
X194346756Y-83501755D01*
X194376192Y-83472037D01*
X194396916Y-83451181D01*
X194433058Y-83414897D01*
X194463778Y-83384322D01*
X194489755Y-83358967D01*
X194511668Y-83338344D01*
X194530196Y-83321965D01*
X194546017Y-83309341D01*
X194559810Y-83299985D01*
X194572255Y-83293407D01*
X194584029Y-83289120D01*
X194595811Y-83286636D01*
X194608281Y-83285465D01*
X194622116Y-83285120D01*
X194627772Y-83285104D01*
X194647613Y-83285504D01*
X194662302Y-83287204D01*
X194675367Y-83290943D01*
X194690332Y-83297460D01*
X194693094Y-83298788D01*
X194719608Y-83315005D01*
X194747985Y-83338694D01*
X194753964Y-83344427D01*
X194761643Y-83351948D01*
X194775065Y-83365090D01*
X194793758Y-83383391D01*
X194817248Y-83406389D01*
X194845066Y-83433621D01*
X194876738Y-83464626D01*
X194911793Y-83498943D01*
X194949758Y-83536108D01*
X194990163Y-83575660D01*
X195032535Y-83617137D01*
X195076402Y-83660078D01*
X195101790Y-83684929D01*
X195151021Y-83733120D01*
X195202337Y-83783351D01*
X195254895Y-83834799D01*
X195307854Y-83886639D01*
X195360372Y-83938048D01*
X195411607Y-83988201D01*
X195460717Y-84036274D01*
X195506860Y-84081442D01*
X195549194Y-84122882D01*
X195586876Y-84159769D01*
X195614813Y-84187117D01*
X195653575Y-84225070D01*
X195693820Y-84264492D01*
X195734542Y-84304397D01*
X195774738Y-84343800D01*
X195813400Y-84381714D01*
X195849526Y-84417156D01*
X195882109Y-84449138D01*
X195910146Y-84476677D01*
X195925683Y-84491951D01*
X195952652Y-84518434D01*
X195978608Y-84543842D01*
X196002667Y-84567316D01*
X196023947Y-84588000D01*
X196041565Y-84605033D01*
X196054639Y-84617558D01*
X196061591Y-84624086D01*
X196084436Y-84645018D01*
X196109417Y-84621748D01*
X196117096Y-84614439D01*
X196130601Y-84601399D01*
X196149558Y-84582996D01*
X196173594Y-84559595D01*
X196202334Y-84531562D01*
X196235404Y-84499263D01*
X196272429Y-84463065D01*
X196313036Y-84423333D01*
X196356850Y-84380434D01*
X196403498Y-84334734D01*
X196452604Y-84286599D01*
X196503794Y-84236395D01*
X196556695Y-84184488D01*
X196610933Y-84131244D01*
X196649486Y-84093381D01*
X196733939Y-84010441D01*
X196812424Y-83933395D01*
X196885162Y-83862030D01*
X196952376Y-83796132D01*
X197014286Y-83735489D01*
X197071114Y-83679888D01*
X197123083Y-83629114D01*
X197170412Y-83582956D01*
X197213326Y-83541199D01*
X197252043Y-83503630D01*
X197286788Y-83470037D01*
X197317780Y-83440205D01*
X197345242Y-83413923D01*
X197369395Y-83390975D01*
X197390461Y-83371150D01*
X197408662Y-83354234D01*
X197424218Y-83340014D01*
X197437353Y-83328276D01*
X197448286Y-83318808D01*
X197457241Y-83311395D01*
X197464438Y-83305826D01*
X197470100Y-83301886D01*
X197474447Y-83299362D01*
X197475047Y-83299071D01*
X197505572Y-83288547D01*
X197538005Y-83284117D01*
X197569283Y-83286084D01*
G37*
D10*
%TO.C,C24*%
X188190000Y-94559420D02*
X188190000Y-94840580D01*
X189210000Y-94559420D02*
X189210000Y-94840580D01*
%TO.C,J3*%
X160075000Y-100062500D02*
X165605000Y-100062500D01*
X160075000Y-107602500D02*
X160075000Y-100062500D01*
X166205000Y-100062500D02*
X167925000Y-100062500D01*
X167925000Y-100062500D02*
X167925000Y-107602500D01*
X167925000Y-107602500D02*
X160075000Y-107602500D01*
X165905000Y-100062500D02*
X165465000Y-99452500D01*
X166345000Y-99452500D01*
X165905000Y-100062500D01*
G36*
X165905000Y-100062500D02*
G01*
X165465000Y-99452500D01*
X166345000Y-99452500D01*
X165905000Y-100062500D01*
G37*
%TO.C,J1*%
X168307502Y-52620000D02*
X168307502Y-55380000D01*
X170957502Y-52620000D02*
X168307502Y-52620000D01*
X170957502Y-52620000D02*
X170957502Y-55380000D01*
X170957502Y-55380000D02*
X168307502Y-55380000D01*
X172227502Y-52620000D02*
X173607502Y-52620000D01*
X173607502Y-52620000D02*
X173607502Y-54000000D01*
%TO.C,R6*%
X162290000Y-97677064D02*
X162290000Y-93322936D01*
X165710000Y-97677064D02*
X165710000Y-93322936D01*
%TO.C,J8*%
X194590000Y-97730000D02*
X192890000Y-97730000D01*
X194590000Y-107070000D02*
X192890000Y-107070000D01*
%TO.C,C28*%
X184940580Y-100190000D02*
X184659420Y-100190000D01*
X184940580Y-101210000D02*
X184659420Y-101210000D01*
%TO.C,R8*%
X187177500Y-54562742D02*
X187177500Y-55037258D01*
X188222500Y-54562742D02*
X188222500Y-55037258D01*
%TO.C,C21*%
X177261252Y-88165000D02*
X176738748Y-88165000D01*
X177261252Y-89635000D02*
X176738748Y-89635000D01*
%TO.C,R19*%
X179152500Y-77524758D02*
X179152500Y-77050242D01*
X180197500Y-77524758D02*
X180197500Y-77050242D01*
%TO.C,J5*%
X158720000Y-91005000D02*
X158720000Y-88355000D01*
X161480000Y-88355000D02*
X158720000Y-88355000D01*
X161480000Y-91005000D02*
X158720000Y-91005000D01*
X161480000Y-91005000D02*
X161480000Y-88355000D01*
X161480000Y-92275000D02*
X161480000Y-93655000D01*
X161480000Y-93655000D02*
X160100000Y-93655000D01*
%TO.C,SW4*%
X190000000Y-80900000D02*
X190000000Y-87300000D01*
X190000000Y-87300000D02*
X191200000Y-87300000D01*
X191200000Y-80900000D02*
X190000000Y-80900000D01*
X192800000Y-87300000D02*
X194000000Y-87300000D01*
X194000000Y-80900000D02*
X192800000Y-80900000D01*
X194000000Y-87300000D02*
X194000000Y-80900000D01*
%TO.C,J2*%
X166375000Y-52762500D02*
X171905000Y-52762500D01*
X166375000Y-60302500D02*
X166375000Y-52762500D01*
X172505000Y-52762500D02*
X174225000Y-52762500D01*
X174225000Y-52762500D02*
X174225000Y-60302500D01*
X174225000Y-60302500D02*
X166375000Y-60302500D01*
X172205000Y-52762500D02*
X171765000Y-52152500D01*
X172645000Y-52152500D01*
X172205000Y-52762500D01*
G36*
X172205000Y-52762500D02*
G01*
X171765000Y-52152500D01*
X172645000Y-52152500D01*
X172205000Y-52762500D01*
G37*
%TO.C,C13*%
X188290000Y-67640580D02*
X188290000Y-67359420D01*
X189310000Y-67640580D02*
X189310000Y-67359420D01*
D16*
%TO.C,G\u002A\u002A\u002A*%
G36*
X195642129Y-72379578D02*
G01*
X195651503Y-72380254D01*
X195660612Y-72381879D01*
X195669919Y-72384825D01*
X195679884Y-72389468D01*
X195690971Y-72396181D01*
X195703640Y-72405337D01*
X195718353Y-72417312D01*
X195735573Y-72432478D01*
X195755761Y-72451211D01*
X195779379Y-72473883D01*
X195806889Y-72500868D01*
X195838752Y-72532542D01*
X195875431Y-72569276D01*
X195917387Y-72611447D01*
X195959853Y-72654168D01*
X196074660Y-72769648D01*
X196183486Y-72879118D01*
X196286487Y-72982736D01*
X196383816Y-73080655D01*
X196475627Y-73173031D01*
X196562073Y-73260019D01*
X196643308Y-73341775D01*
X196719487Y-73418454D01*
X196790762Y-73490211D01*
X196857287Y-73557201D01*
X196919218Y-73619580D01*
X196976706Y-73677503D01*
X197029906Y-73731125D01*
X197078972Y-73780601D01*
X197124058Y-73826087D01*
X197165317Y-73867739D01*
X197202902Y-73905710D01*
X197236969Y-73940157D01*
X197267670Y-73971235D01*
X197295160Y-73999099D01*
X197319592Y-74023904D01*
X197341120Y-74045806D01*
X197359898Y-74064960D01*
X197376079Y-74081520D01*
X197389818Y-74095644D01*
X197401267Y-74107485D01*
X197410582Y-74117199D01*
X197417915Y-74124941D01*
X197423421Y-74130866D01*
X197427252Y-74135131D01*
X197429564Y-74137889D01*
X197430174Y-74138716D01*
X197445264Y-74168229D01*
X197453487Y-74200835D01*
X197454922Y-74234704D01*
X197449648Y-74268008D01*
X197437741Y-74298916D01*
X197422335Y-74322094D01*
X197418033Y-74326653D01*
X197407704Y-74337264D01*
X197391454Y-74353821D01*
X197369393Y-74376215D01*
X197341627Y-74404336D01*
X197308264Y-74438077D01*
X197269413Y-74477329D01*
X197225180Y-74521983D01*
X197175673Y-74571931D01*
X197121001Y-74627065D01*
X197061270Y-74687275D01*
X196996590Y-74752453D01*
X196927066Y-74822491D01*
X196852808Y-74897280D01*
X196773922Y-74976712D01*
X196690517Y-75060677D01*
X196602700Y-75149069D01*
X196510578Y-75241777D01*
X196414261Y-75338694D01*
X196313855Y-75439710D01*
X196209468Y-75544718D01*
X196101207Y-75653609D01*
X195989182Y-75766274D01*
X195935953Y-75819802D01*
X195891063Y-75864940D01*
X195851830Y-75904318D01*
X195817762Y-75938328D01*
X195788371Y-75967362D01*
X195763166Y-75991811D01*
X195741657Y-76012069D01*
X195723356Y-76028526D01*
X195707771Y-76041575D01*
X195694414Y-76051607D01*
X195682795Y-76059015D01*
X195672423Y-76064190D01*
X195662809Y-76067525D01*
X195653463Y-76069411D01*
X195643896Y-76070241D01*
X195633617Y-76070406D01*
X195622918Y-76070305D01*
X195595751Y-76068612D01*
X195572700Y-76063665D01*
X195561957Y-76059961D01*
X195555346Y-76057200D01*
X195548711Y-76053758D01*
X195541415Y-76049063D01*
X195532824Y-76042545D01*
X195522302Y-76033633D01*
X195509212Y-76021758D01*
X195492919Y-76006348D01*
X195472787Y-75986833D01*
X195448180Y-75962642D01*
X195418462Y-75933206D01*
X195397606Y-75912482D01*
X195361322Y-75876340D01*
X195330747Y-75845620D01*
X195305392Y-75819643D01*
X195284769Y-75797730D01*
X195268390Y-75779202D01*
X195255766Y-75763381D01*
X195246410Y-75749588D01*
X195239832Y-75737143D01*
X195235545Y-75725369D01*
X195233061Y-75713587D01*
X195231890Y-75701117D01*
X195231545Y-75687282D01*
X195231529Y-75681626D01*
X195231929Y-75661785D01*
X195233629Y-75647096D01*
X195237368Y-75634031D01*
X195243885Y-75619066D01*
X195245213Y-75616304D01*
X195261430Y-75589790D01*
X195285119Y-75561413D01*
X195290852Y-75555434D01*
X195298373Y-75547755D01*
X195311515Y-75534333D01*
X195329816Y-75515640D01*
X195352814Y-75492150D01*
X195380046Y-75464332D01*
X195411051Y-75432660D01*
X195445368Y-75397605D01*
X195482533Y-75359640D01*
X195522085Y-75319235D01*
X195563562Y-75276863D01*
X195606503Y-75232996D01*
X195631354Y-75207608D01*
X195679545Y-75158377D01*
X195729776Y-75107061D01*
X195781224Y-75054503D01*
X195833064Y-75001544D01*
X195884473Y-74949026D01*
X195934626Y-74897791D01*
X195982699Y-74848681D01*
X196027867Y-74802538D01*
X196069307Y-74760204D01*
X196106194Y-74722522D01*
X196133542Y-74694585D01*
X196171495Y-74655823D01*
X196210917Y-74615578D01*
X196250822Y-74574856D01*
X196290225Y-74534660D01*
X196328139Y-74495998D01*
X196363581Y-74459872D01*
X196395563Y-74427289D01*
X196423102Y-74399252D01*
X196438376Y-74383715D01*
X196464859Y-74356746D01*
X196490267Y-74330790D01*
X196513741Y-74306731D01*
X196534425Y-74285451D01*
X196551458Y-74267833D01*
X196563983Y-74254759D01*
X196570511Y-74247807D01*
X196591443Y-74224962D01*
X196568173Y-74199981D01*
X196560864Y-74192302D01*
X196547824Y-74178797D01*
X196529421Y-74159840D01*
X196506020Y-74135804D01*
X196477987Y-74107064D01*
X196445688Y-74073994D01*
X196409490Y-74036969D01*
X196369758Y-73996362D01*
X196326859Y-73952548D01*
X196281159Y-73905900D01*
X196233024Y-73856794D01*
X196182820Y-73805604D01*
X196130913Y-73752703D01*
X196077669Y-73698465D01*
X196039806Y-73659912D01*
X195956866Y-73575459D01*
X195879820Y-73496974D01*
X195808455Y-73424236D01*
X195742557Y-73357022D01*
X195681914Y-73295112D01*
X195626313Y-73238284D01*
X195575539Y-73186315D01*
X195529381Y-73138986D01*
X195487624Y-73096072D01*
X195450055Y-73057355D01*
X195416462Y-73022610D01*
X195386630Y-72991618D01*
X195360348Y-72964156D01*
X195337400Y-72940003D01*
X195317575Y-72918937D01*
X195300659Y-72900736D01*
X195286439Y-72885180D01*
X195274701Y-72872045D01*
X195265233Y-72861112D01*
X195257820Y-72852157D01*
X195252251Y-72844960D01*
X195248311Y-72839298D01*
X195245787Y-72834951D01*
X195245496Y-72834351D01*
X195234972Y-72803826D01*
X195230542Y-72771393D01*
X195232509Y-72740115D01*
X195235034Y-72729040D01*
X195240963Y-72712621D01*
X195249101Y-72695252D01*
X195252082Y-72689910D01*
X195257558Y-72682785D01*
X195268532Y-72670307D01*
X195284296Y-72653215D01*
X195304146Y-72632251D01*
X195327377Y-72608154D01*
X195353283Y-72581667D01*
X195381158Y-72553529D01*
X195397517Y-72537177D01*
X195432821Y-72502067D01*
X195462689Y-72472614D01*
X195487827Y-72448321D01*
X195508942Y-72428688D01*
X195526739Y-72413217D01*
X195541925Y-72401411D01*
X195555205Y-72392769D01*
X195567286Y-72386794D01*
X195578873Y-72382988D01*
X195590672Y-72380852D01*
X195603390Y-72379887D01*
X195617732Y-72379595D01*
X195620741Y-72379574D01*
X195632029Y-72379476D01*
X195642129Y-72379578D01*
G37*
D10*
%TO.C,C27*%
X184940580Y-98690000D02*
X184659420Y-98690000D01*
X184940580Y-99710000D02*
X184659420Y-99710000D01*
%TO.C,J4*%
X175010000Y-55680000D02*
X175010000Y-54300000D01*
X176390000Y-55680000D02*
X175010000Y-55680000D01*
X177660000Y-52920000D02*
X185390000Y-52920000D01*
X177660000Y-55680000D02*
X177660000Y-52920000D01*
X177660000Y-55680000D02*
X185390000Y-55680000D01*
X185390000Y-55680000D02*
X185390000Y-52920000D01*
%TO.C,R17*%
X177512258Y-75940000D02*
X177037742Y-75940000D01*
X177512258Y-76985000D02*
X177037742Y-76985000D01*
%TO.C,R3*%
X188277500Y-71062258D02*
X188277500Y-70587742D01*
X189322500Y-71062258D02*
X189322500Y-70587742D01*
D16*
%TO.C,G\u002A\u002A\u002A*%
G36*
X196127524Y-62996659D02*
G01*
X196158432Y-63008566D01*
X196181610Y-63023972D01*
X196186169Y-63028274D01*
X196196780Y-63038603D01*
X196213337Y-63054853D01*
X196235731Y-63076914D01*
X196263852Y-63104680D01*
X196297593Y-63138043D01*
X196336845Y-63176894D01*
X196381499Y-63221127D01*
X196431447Y-63270634D01*
X196486581Y-63325306D01*
X196546791Y-63385037D01*
X196611969Y-63449717D01*
X196682007Y-63519241D01*
X196756796Y-63593499D01*
X196836228Y-63672385D01*
X196920193Y-63755790D01*
X197008585Y-63843607D01*
X197101293Y-63935729D01*
X197198210Y-64032046D01*
X197299226Y-64132452D01*
X197404234Y-64236839D01*
X197513125Y-64345100D01*
X197625790Y-64457125D01*
X197679318Y-64510354D01*
X197724456Y-64555244D01*
X197763834Y-64594477D01*
X197797844Y-64628545D01*
X197826878Y-64657936D01*
X197851327Y-64683141D01*
X197871585Y-64704650D01*
X197888042Y-64722951D01*
X197901091Y-64738536D01*
X197911123Y-64751893D01*
X197918531Y-64763512D01*
X197923706Y-64773884D01*
X197927041Y-64783498D01*
X197928927Y-64792844D01*
X197929757Y-64802411D01*
X197929922Y-64812690D01*
X197929821Y-64823389D01*
X197928128Y-64850556D01*
X197923181Y-64873607D01*
X197919477Y-64884350D01*
X197916716Y-64890961D01*
X197913274Y-64897596D01*
X197908579Y-64904892D01*
X197902061Y-64913483D01*
X197893149Y-64924005D01*
X197881274Y-64937095D01*
X197865864Y-64953388D01*
X197846349Y-64973520D01*
X197822158Y-64998127D01*
X197792722Y-65027845D01*
X197771998Y-65048701D01*
X197735856Y-65084985D01*
X197705136Y-65115560D01*
X197679159Y-65140915D01*
X197657246Y-65161538D01*
X197638718Y-65177917D01*
X197622897Y-65190541D01*
X197609104Y-65199897D01*
X197596659Y-65206475D01*
X197584885Y-65210762D01*
X197573103Y-65213246D01*
X197560633Y-65214417D01*
X197546798Y-65214762D01*
X197541142Y-65214778D01*
X197521301Y-65214378D01*
X197506612Y-65212678D01*
X197493547Y-65208939D01*
X197478582Y-65202422D01*
X197475820Y-65201094D01*
X197449306Y-65184877D01*
X197420929Y-65161188D01*
X197414950Y-65155455D01*
X197407271Y-65147934D01*
X197393849Y-65134792D01*
X197375156Y-65116491D01*
X197351666Y-65093493D01*
X197323848Y-65066261D01*
X197292176Y-65035256D01*
X197257121Y-65000939D01*
X197219156Y-64963774D01*
X197178751Y-64924222D01*
X197136379Y-64882745D01*
X197092512Y-64839804D01*
X197067124Y-64814953D01*
X197017893Y-64766762D01*
X196966577Y-64716531D01*
X196914019Y-64665083D01*
X196861060Y-64613243D01*
X196808542Y-64561834D01*
X196757307Y-64511681D01*
X196708197Y-64463608D01*
X196662054Y-64418440D01*
X196619720Y-64377000D01*
X196582038Y-64340113D01*
X196554101Y-64312765D01*
X196515339Y-64274812D01*
X196475094Y-64235390D01*
X196434372Y-64195485D01*
X196394176Y-64156082D01*
X196355514Y-64118168D01*
X196319388Y-64082726D01*
X196286805Y-64050744D01*
X196258768Y-64023205D01*
X196243231Y-64007931D01*
X196216262Y-63981448D01*
X196190306Y-63956040D01*
X196166247Y-63932566D01*
X196144967Y-63911882D01*
X196127349Y-63894849D01*
X196114275Y-63882324D01*
X196107323Y-63875796D01*
X196084478Y-63854864D01*
X196059497Y-63878134D01*
X196051818Y-63885443D01*
X196038313Y-63898483D01*
X196019356Y-63916886D01*
X195995320Y-63940287D01*
X195966580Y-63968320D01*
X195933510Y-64000619D01*
X195896485Y-64036817D01*
X195855878Y-64076549D01*
X195812064Y-64119448D01*
X195765416Y-64165148D01*
X195716310Y-64213283D01*
X195665120Y-64263487D01*
X195612219Y-64315394D01*
X195557981Y-64368638D01*
X195519428Y-64406501D01*
X195434975Y-64489441D01*
X195356490Y-64566487D01*
X195283752Y-64637852D01*
X195216538Y-64703750D01*
X195154628Y-64764393D01*
X195097800Y-64819994D01*
X195045831Y-64870768D01*
X194998502Y-64916926D01*
X194955588Y-64958683D01*
X194916871Y-64996252D01*
X194882126Y-65029845D01*
X194851134Y-65059677D01*
X194823672Y-65085959D01*
X194799519Y-65108907D01*
X194778453Y-65128732D01*
X194760252Y-65145648D01*
X194744696Y-65159868D01*
X194731561Y-65171606D01*
X194720628Y-65181074D01*
X194711673Y-65188487D01*
X194704476Y-65194056D01*
X194698814Y-65197996D01*
X194694467Y-65200520D01*
X194693867Y-65200811D01*
X194663342Y-65211335D01*
X194630909Y-65215765D01*
X194599631Y-65213798D01*
X194588556Y-65211273D01*
X194572137Y-65205344D01*
X194554768Y-65197206D01*
X194549426Y-65194225D01*
X194542301Y-65188749D01*
X194529823Y-65177775D01*
X194512731Y-65162011D01*
X194491767Y-65142161D01*
X194467670Y-65118930D01*
X194441183Y-65093024D01*
X194413045Y-65065149D01*
X194396693Y-65048790D01*
X194361583Y-65013486D01*
X194332130Y-64983618D01*
X194307837Y-64958480D01*
X194288204Y-64937365D01*
X194272733Y-64919568D01*
X194260927Y-64904382D01*
X194252285Y-64891102D01*
X194246310Y-64879021D01*
X194242504Y-64867434D01*
X194240368Y-64855635D01*
X194239403Y-64842917D01*
X194239111Y-64828575D01*
X194239090Y-64825566D01*
X194238992Y-64814278D01*
X194239094Y-64804178D01*
X194239770Y-64794804D01*
X194241395Y-64785695D01*
X194244341Y-64776388D01*
X194248984Y-64766423D01*
X194255697Y-64755336D01*
X194264853Y-64742667D01*
X194276828Y-64727954D01*
X194291994Y-64710734D01*
X194310727Y-64690546D01*
X194333399Y-64666928D01*
X194360384Y-64639418D01*
X194392058Y-64607555D01*
X194428792Y-64570876D01*
X194470963Y-64528920D01*
X194513684Y-64486454D01*
X194629164Y-64371647D01*
X194738634Y-64262821D01*
X194842252Y-64159820D01*
X194940171Y-64062491D01*
X195032547Y-63970680D01*
X195119535Y-63884234D01*
X195201291Y-63802999D01*
X195277970Y-63726820D01*
X195349727Y-63655545D01*
X195416717Y-63589020D01*
X195479096Y-63527089D01*
X195537019Y-63469601D01*
X195590641Y-63416401D01*
X195640117Y-63367335D01*
X195685603Y-63322249D01*
X195727255Y-63280990D01*
X195765226Y-63243405D01*
X195799673Y-63209338D01*
X195830751Y-63178637D01*
X195858615Y-63151147D01*
X195883420Y-63126715D01*
X195905322Y-63105187D01*
X195924476Y-63086409D01*
X195941036Y-63070228D01*
X195955160Y-63056489D01*
X195967001Y-63045040D01*
X195976715Y-63035725D01*
X195984457Y-63028392D01*
X195990382Y-63022886D01*
X195994647Y-63019055D01*
X195997405Y-63016743D01*
X195998232Y-63016133D01*
X196027745Y-63001043D01*
X196060351Y-62992820D01*
X196094220Y-62991385D01*
X196127524Y-62996659D01*
G37*
D10*
%TO.C,SW1*%
X177175000Y-56400000D02*
X177175000Y-57600000D01*
X177175000Y-59200000D02*
X177175000Y-60400000D01*
X177175000Y-60400000D02*
X183575000Y-60400000D01*
X183575000Y-56400000D02*
X177175000Y-56400000D01*
X183575000Y-57600000D02*
X183575000Y-56400000D01*
X183575000Y-60400000D02*
X183575000Y-59200000D01*
%TO.C,R7*%
X189337258Y-59677500D02*
X188862742Y-59677500D01*
X189337258Y-60722500D02*
X188862742Y-60722500D01*
%TO.C,C23*%
X174090000Y-81959420D02*
X174090000Y-82240580D01*
X175110000Y-81959420D02*
X175110000Y-82240580D01*
%TO.C,SW3*%
X190000000Y-71000000D02*
X190000000Y-77400000D01*
X190000000Y-77400000D02*
X191200000Y-77400000D01*
X191200000Y-71000000D02*
X190000000Y-71000000D01*
X192800000Y-77400000D02*
X194000000Y-77400000D01*
X194000000Y-71000000D02*
X192800000Y-71000000D01*
X194000000Y-77400000D02*
X194000000Y-71000000D01*
%TO.C,J1*%
X166980000Y-90780000D02*
X166980000Y-89400000D01*
X168360000Y-90780000D02*
X166980000Y-90780000D01*
X169630000Y-88020000D02*
X174820000Y-88020000D01*
X169630000Y-90780000D02*
X169630000Y-88020000D01*
X169630000Y-90780000D02*
X174820000Y-90780000D01*
X174820000Y-90780000D02*
X174820000Y-88020000D01*
%TO.C,R4*%
X188277500Y-80937258D02*
X188277500Y-80462742D01*
X189322500Y-80937258D02*
X189322500Y-80462742D01*
%TD*%
M02*
