%TF.GenerationSoftware,KiCad,Pcbnew,9.0.4*%
%TF.CreationDate,2025-12-12T14:24:18+03:00*%
%TF.ProjectId,mini_power_logger,6d696e69-5f70-46f7-9765-725f6c6f6767,rev?*%
%TF.SameCoordinates,Original*%
%TF.FileFunction,Copper,L3,Inr*%
%TF.FilePolarity,Positive*%
%FSLAX46Y46*%
G04 Gerber Fmt 4.6, Leading zero omitted, Abs format (unit mm)*
G04 Created by KiCad (PCBNEW 9.0.4) date 2025-12-12 14:24:18*
%MOMM*%
%LPD*%
G01*
G04 APERTURE LIST*
G04 Aperture macros list*
%AMRoundRect*
0 Rectangle with rounded corners*
0 $1 Rounding radius*
0 $2 $3 $4 $5 $6 $7 $8 $9 X,Y pos of 4 corners*
0 Add a 4 corners polygon primitive as box body*
4,1,4,$2,$3,$4,$5,$6,$7,$8,$9,$2,$3,0*
0 Add four circle primitives for the rounded corners*
1,1,$1+$1,$2,$3*
1,1,$1+$1,$4,$5*
1,1,$1+$1,$6,$7*
1,1,$1+$1,$8,$9*
0 Add four rect primitives between the rounded corners*
20,1,$1+$1,$2,$3,$4,$5,0*
20,1,$1+$1,$4,$5,$6,$7,0*
20,1,$1+$1,$6,$7,$8,$9,0*
20,1,$1+$1,$8,$9,$2,$3,0*%
G04 Aperture macros list end*
%TA.AperFunction,ComponentPad*%
%ADD10R,1.508000X1.508000*%
%TD*%
%TA.AperFunction,ComponentPad*%
%ADD11C,1.508000*%
%TD*%
%TA.AperFunction,ComponentPad*%
%ADD12C,3.000000*%
%TD*%
%TA.AperFunction,ComponentPad*%
%ADD13R,1.700000X1.700000*%
%TD*%
%TA.AperFunction,ComponentPad*%
%ADD14C,1.700000*%
%TD*%
%TA.AperFunction,ComponentPad*%
%ADD15R,2.000000X2.000000*%
%TD*%
%TA.AperFunction,ComponentPad*%
%ADD16C,2.000000*%
%TD*%
%TA.AperFunction,ComponentPad*%
%ADD17C,1.524000*%
%TD*%
%TA.AperFunction,ComponentPad*%
%ADD18RoundRect,0.250000X0.750000X0.750000X-0.750000X0.750000X-0.750000X-0.750000X0.750000X-0.750000X0*%
%TD*%
%TA.AperFunction,HeatsinkPad*%
%ADD19O,2.100000X1.000000*%
%TD*%
%TA.AperFunction,HeatsinkPad*%
%ADD20O,1.800000X1.000000*%
%TD*%
%TA.AperFunction,ComponentPad*%
%ADD21C,0.810000*%
%TD*%
%TA.AperFunction,ViaPad*%
%ADD22C,0.450000*%
%TD*%
%TA.AperFunction,ViaPad*%
%ADD23C,0.600000*%
%TD*%
%TA.AperFunction,Conductor*%
%ADD24C,0.130000*%
%TD*%
G04 APERTURE END LIST*
D10*
%TO.N,GND*%
%TO.C,U4*%
X161912500Y-78210000D03*
D11*
%TO.N,+3.3V*%
X161912500Y-75670000D03*
%TO.N,/SD Card & Oled Screen/OLED_SCL*%
X161912500Y-73130000D03*
%TO.N,/SD Card & Oled Screen/OLED_SDA*%
X161912500Y-70590000D03*
D12*
%TO.N,N/C*%
X162412500Y-85400000D03*
X162412500Y-63400000D03*
X184412500Y-63400000D03*
X184412500Y-85400000D03*
%TD*%
D13*
%TO.N,/SHUNT_V+*%
%TO.C,J1*%
X165920000Y-106250000D03*
D14*
%TO.N,GND*%
X163380000Y-106250000D03*
%TD*%
D15*
%TO.N,+3.3V*%
%TO.C,BZ1*%
X174800000Y-102700000D03*
D16*
%TO.N,Net-(BZ1--)*%
X179800000Y-102700000D03*
%TD*%
D17*
%TO.N,GND*%
%TO.C,J7*%
X192570000Y-54000000D03*
%TO.N,Net-(J7-Pad2)*%
X190030000Y-53980000D03*
%TD*%
%TO.N,GND*%
%TO.C,J6*%
X192570000Y-57100000D03*
%TO.N,Net-(J6-Pad2)*%
X190030000Y-57080000D03*
%TD*%
D18*
%TO.N,/SHUNT_V+*%
%TO.C,J3*%
X165905000Y-103782500D03*
D16*
%TO.N,GND*%
X162095000Y-103782500D03*
%TD*%
D13*
%TO.N,/SHUNT_V-*%
%TO.C,J1*%
X172227502Y-54000000D03*
D14*
%TO.N,GND*%
X169687502Y-54000000D03*
%TD*%
D19*
%TO.N,GND*%
%TO.C,J8*%
X191585000Y-106720000D03*
D20*
X195765000Y-106720000D03*
D19*
X191585000Y-98080000D03*
D20*
X195765000Y-98080000D03*
%TD*%
D13*
%TO.N,+3.3V*%
%TO.C,J5*%
X160100000Y-92275000D03*
D14*
%TO.N,Net-(J5-Pin_2)*%
X160100000Y-89735000D03*
%TD*%
D18*
%TO.N,/SHUNT_V-*%
%TO.C,J2*%
X172205000Y-56482500D03*
D16*
%TO.N,GND*%
X168395000Y-56482500D03*
%TD*%
D13*
%TO.N,GND*%
%TO.C,J4*%
X176390000Y-54300000D03*
D14*
%TO.N,+3.3V*%
X178930000Y-54300000D03*
%TO.N,/stm32f103/DIO*%
X181470000Y-54300000D03*
%TO.N,/stm32f103/CLK*%
X184010000Y-54300000D03*
%TD*%
D13*
%TO.N,/SHUNT_V+*%
%TO.C,J1*%
X168360000Y-89400000D03*
D14*
%TO.N,/Power/POWER_IN_P*%
X170900000Y-89400000D03*
%TO.N,/USB_PWR*%
X173440000Y-89400000D03*
%TD*%
D21*
%TO.N,Net-(U1-PC14-OSC32_IN)*%
%TO.C,Y1*%
X165100000Y-69900000D03*
%TO.N,Net-(U1-PC15-OSC32_OUT)*%
X166270000Y-69900000D03*
%TD*%
D22*
%TO.N,GND*%
X168075000Y-77300000D03*
X187600000Y-89500000D03*
X187250000Y-57500000D03*
X171000000Y-73750000D03*
X188800000Y-85375000D03*
X177200000Y-65625000D03*
X175150000Y-90500000D03*
X195625000Y-100675000D03*
X182825000Y-99350000D03*
X166475000Y-94250000D03*
X176550000Y-57350000D03*
X187550000Y-91375000D03*
X168200000Y-82475000D03*
X163325000Y-78150000D03*
X163525000Y-66450000D03*
X193100000Y-80225000D03*
X165775000Y-59500000D03*
X186875000Y-99025000D03*
X169475000Y-91175000D03*
X185900000Y-89500000D03*
X174500000Y-68900000D03*
X187625000Y-92925000D03*
X175150000Y-84950000D03*
X193225000Y-100175000D03*
X188125000Y-101175000D03*
X189350000Y-98650000D03*
X171275000Y-71375000D03*
X185925000Y-91375000D03*
X193300000Y-60300000D03*
X185000000Y-87200000D03*
X194750000Y-67350000D03*
X168575000Y-65800000D03*
X183375000Y-65850000D03*
X184575000Y-82300000D03*
X167875000Y-65650000D03*
X175200000Y-88050000D03*
X194600000Y-83150000D03*
X173850000Y-71750000D03*
X168800000Y-87500000D03*
X175125000Y-85825000D03*
X172250000Y-96225000D03*
X180700000Y-75800000D03*
X188825000Y-65650000D03*
X167975000Y-66500000D03*
X172550000Y-73800000D03*
X182800000Y-100725000D03*
X168875000Y-59450000D03*
X170800000Y-85325000D03*
X190200000Y-92925000D03*
X185000000Y-88900000D03*
X188700000Y-92950000D03*
X188125000Y-97250000D03*
X187800000Y-105575000D03*
X172100000Y-82050000D03*
X168775000Y-86050000D03*
%TO.N,+3.3V*%
X187300000Y-60250000D03*
X191950000Y-94450000D03*
X167900000Y-86800000D03*
X191350000Y-95450000D03*
X179150000Y-80700000D03*
X173000000Y-71850000D03*
X178850000Y-75720000D03*
X163150000Y-76800000D03*
X191950000Y-95450000D03*
X191350000Y-95950000D03*
X159262500Y-67787500D03*
X191350000Y-94950000D03*
X186976670Y-71607339D03*
X164800000Y-71800000D03*
X184250000Y-74150000D03*
X159662500Y-67387500D03*
X191350000Y-94450000D03*
X191950000Y-94950000D03*
X183400000Y-60300000D03*
X191950000Y-95950000D03*
X188750000Y-82600000D03*
X170150000Y-97800000D03*
X166700000Y-91750000D03*
X175200000Y-64900000D03*
X187550000Y-56550000D03*
X159200000Y-68525000D03*
X188750000Y-92150000D03*
%TO.N,Net-(U1-NRST)*%
X172843714Y-78569888D03*
X186200000Y-61150000D03*
%TO.N,/stm32f103/BUTTON_1*%
X170300000Y-78250000D03*
%TO.N,/stm32f103/BUTTON_2*%
X169300000Y-78500000D03*
%TO.N,/stm32f103/BUTTON_3*%
X168200000Y-78750000D03*
%TO.N,/SPI2_MISO*%
X171550000Y-82425000D03*
X159275000Y-71700000D03*
%TO.N,/SPI2_SCK*%
X159350000Y-74538574D03*
X172800000Y-85250000D03*
%TO.N,/SPI2_MOSI*%
X159275000Y-73150000D03*
X171800000Y-84975000D03*
%TO.N,/SPI2_CS*%
X171350000Y-86100000D03*
X159300000Y-70225000D03*
D23*
%TO.N,/USB_PWR*%
X184200000Y-97800000D03*
D22*
%TO.N,/stm32f103/CLK*%
X169650000Y-81100000D03*
%TO.N,/stm32f103/DIO*%
X168900000Y-82200000D03*
%TO.N,Net-(U5-SW)*%
X173600000Y-82350000D03*
X177425000Y-85150000D03*
X177463694Y-85711692D03*
X181300000Y-85100000D03*
X181800000Y-85100000D03*
X181300000Y-85600000D03*
X176900000Y-85150000D03*
X181800000Y-85600000D03*
X176950000Y-85675000D03*
%TO.N,Net-(J6-Pad2)*%
X174850000Y-59300000D03*
%TO.N,/Type C Connector/USB2_P*%
X193133629Y-102233548D03*
%TO.N,/Type C Connector/USB2_N*%
X193133629Y-102936548D03*
%TO.N,/SD Card & Oled Screen/SD_SCK*%
X177000000Y-73600000D03*
X181100000Y-73100000D03*
%TO.N,/UART2_RX*%
X159600000Y-76025000D03*
X171825000Y-76700000D03*
%TO.N,/UART2_TX*%
X174900000Y-73125000D03*
X159650000Y-77525000D03*
%TO.N,/Temp. & Power Sensors/SDA*%
X174700000Y-94400000D03*
X172950000Y-81450000D03*
%TO.N,/Temp. & Power Sensors/SCL*%
X167850000Y-96750000D03*
X172950000Y-80850000D03*
%TO.N,/Temp. & Power Sensors/ALERT*%
X173350000Y-97850000D03*
X172100000Y-80600000D03*
%TO.N,Net-(U5-EN)*%
X177200000Y-80850000D03*
X180800000Y-81150000D03*
%TO.N,Net-(J7-Pad2)*%
X181650000Y-60050000D03*
%TO.N,/SD Card & Oled Screen/OLED_SDA*%
X162700000Y-81050000D03*
%TO.N,/SD Card & Oled Screen/OLED_SCL*%
X163650000Y-81000000D03*
%TO.N,/BUZZER_PIN*%
X170600000Y-82075000D03*
X180175000Y-94075000D03*
%TD*%
D24*
%TO.N,/UART2_RX*%
X165425000Y-74550000D02*
X166775000Y-75900000D01*
X159450000Y-75575000D02*
X160475000Y-74550000D01*
X169250000Y-75900000D02*
X170050000Y-76700000D01*
X159600000Y-76025000D02*
X159450000Y-75875000D01*
X160475000Y-74550000D02*
X165425000Y-74550000D01*
X166775000Y-75900000D02*
X169250000Y-75900000D01*
X159450000Y-75875000D02*
X159450000Y-75575000D01*
X170050000Y-76700000D02*
X171825000Y-76700000D01*
%TO.N,/UART2_TX*%
X159650000Y-77525000D02*
X159450000Y-77525000D01*
X174900000Y-75075000D02*
X174900000Y-73125000D01*
X160550000Y-79500000D02*
X170475000Y-79500000D01*
X159450000Y-77525000D02*
X159200000Y-77775000D01*
X170475000Y-79500000D02*
X174900000Y-75075000D01*
X159200000Y-78150000D02*
X160550000Y-79500000D01*
X159200000Y-77775000D02*
X159200000Y-78150000D01*
%TD*%
%TA.AperFunction,Conductor*%
%TO.N,GND*%
G36*
X196004042Y-51910765D02*
G01*
X196028951Y-51912397D01*
X196251586Y-51926989D01*
X196267647Y-51929104D01*
X196506963Y-51976708D01*
X196522606Y-51980900D01*
X196753657Y-52059331D01*
X196768629Y-52065532D01*
X196983293Y-52171392D01*
X196987460Y-52173447D01*
X197001507Y-52181557D01*
X197204377Y-52317111D01*
X197217241Y-52326982D01*
X197400678Y-52487852D01*
X197412147Y-52499321D01*
X197573017Y-52682758D01*
X197582891Y-52695626D01*
X197718442Y-52898492D01*
X197726552Y-52912539D01*
X197834464Y-53131363D01*
X197840671Y-53146349D01*
X197919096Y-53377382D01*
X197923294Y-53393048D01*
X197970893Y-53632340D01*
X197973011Y-53648422D01*
X197989235Y-53895956D01*
X197989500Y-53904066D01*
X197989500Y-105895933D01*
X197989235Y-105904042D01*
X197989235Y-105904043D01*
X197973011Y-106151577D01*
X197970893Y-106167659D01*
X197923294Y-106406951D01*
X197919096Y-106422617D01*
X197840671Y-106653650D01*
X197834464Y-106668636D01*
X197726552Y-106887460D01*
X197718442Y-106901507D01*
X197582891Y-107104373D01*
X197573017Y-107117241D01*
X197412147Y-107300678D01*
X197400678Y-107312147D01*
X197217241Y-107473017D01*
X197204373Y-107482891D01*
X197001507Y-107618442D01*
X196987460Y-107626552D01*
X196768636Y-107734464D01*
X196753650Y-107740671D01*
X196522617Y-107819096D01*
X196506951Y-107823294D01*
X196267659Y-107870893D01*
X196251577Y-107873011D01*
X196004043Y-107889235D01*
X195995933Y-107889500D01*
X160004067Y-107889500D01*
X159995957Y-107889235D01*
X159748422Y-107873011D01*
X159732340Y-107870893D01*
X159493048Y-107823294D01*
X159477382Y-107819096D01*
X159246349Y-107740671D01*
X159231363Y-107734464D01*
X159012539Y-107626552D01*
X158998492Y-107618442D01*
X158795626Y-107482891D01*
X158782758Y-107473017D01*
X158599321Y-107312147D01*
X158587852Y-107300678D01*
X158500780Y-107201391D01*
X158426979Y-107117238D01*
X158417108Y-107104373D01*
X158360311Y-107019371D01*
X158281557Y-106901507D01*
X158273447Y-106887460D01*
X158225942Y-106791129D01*
X158165532Y-106668629D01*
X158159331Y-106653657D01*
X158080900Y-106422606D01*
X158076708Y-106406963D01*
X158029104Y-106167647D01*
X158026989Y-106151586D01*
X158010765Y-105904042D01*
X158010500Y-105895933D01*
X158010500Y-102993145D01*
X164554500Y-102993145D01*
X164554500Y-104571863D01*
X164569953Y-104689253D01*
X164569956Y-104689262D01*
X164619814Y-104809631D01*
X164630464Y-104835341D01*
X164726718Y-104960782D01*
X164776832Y-104999236D01*
X164818034Y-105055661D01*
X164822189Y-105125407D01*
X164789029Y-105185288D01*
X164780803Y-105193513D01*
X164729426Y-105298608D01*
X164719500Y-105366739D01*
X164719500Y-107133260D01*
X164729426Y-107201391D01*
X164780803Y-107306485D01*
X164863514Y-107389196D01*
X164863515Y-107389196D01*
X164863517Y-107389198D01*
X164968607Y-107440573D01*
X165002673Y-107445536D01*
X165036739Y-107450500D01*
X165036740Y-107450500D01*
X166803261Y-107450500D01*
X166825971Y-107447191D01*
X166871393Y-107440573D01*
X166976483Y-107389198D01*
X167059198Y-107306483D01*
X167110573Y-107201393D01*
X167120500Y-107133260D01*
X167120500Y-105366740D01*
X167110573Y-105298607D01*
X167073187Y-105222133D01*
X191569500Y-105222133D01*
X191569500Y-105357867D01*
X191571878Y-105366740D01*
X191604632Y-105488978D01*
X191672495Y-105606520D01*
X191672497Y-105606522D01*
X191672498Y-105606524D01*
X191768476Y-105702502D01*
X191768477Y-105702503D01*
X191768479Y-105702504D01*
X191886021Y-105770367D01*
X191886022Y-105770367D01*
X191886025Y-105770369D01*
X192017133Y-105805500D01*
X192017135Y-105805500D01*
X192152865Y-105805500D01*
X192152867Y-105805500D01*
X192283975Y-105770369D01*
X192401524Y-105702502D01*
X192497502Y-105606524D01*
X192565369Y-105488975D01*
X192600500Y-105357867D01*
X192600500Y-105222133D01*
X192565369Y-105091025D01*
X192561453Y-105084243D01*
X192497504Y-104973479D01*
X192497499Y-104973473D01*
X192401526Y-104877500D01*
X192401520Y-104877495D01*
X192283978Y-104809632D01*
X192283979Y-104809632D01*
X192268484Y-104805480D01*
X192152867Y-104774500D01*
X192017133Y-104774500D01*
X191901515Y-104805480D01*
X191886021Y-104809632D01*
X191768479Y-104877495D01*
X191768473Y-104877500D01*
X191672500Y-104973473D01*
X191672495Y-104973479D01*
X191604632Y-105091021D01*
X191604631Y-105091025D01*
X191569500Y-105222133D01*
X167073187Y-105222133D01*
X167059198Y-105193517D01*
X167028140Y-105162459D01*
X167020741Y-105150725D01*
X167014826Y-105129922D01*
X167004463Y-105110943D01*
X167005461Y-105096981D01*
X167001634Y-105083519D01*
X167007904Y-105062824D01*
X167009447Y-105041251D01*
X167017907Y-105029807D01*
X167021894Y-105016651D01*
X167037394Y-105003451D01*
X167050141Y-104986211D01*
X167083282Y-104960782D01*
X167179536Y-104835341D01*
X167240044Y-104689262D01*
X167255500Y-104571861D01*
X167255499Y-102993140D01*
X167255499Y-102993139D01*
X167255499Y-102993136D01*
X167240046Y-102875746D01*
X167240044Y-102875739D01*
X167240044Y-102875738D01*
X167179536Y-102729659D01*
X167083282Y-102604218D01*
X166957841Y-102507964D01*
X166811762Y-102447456D01*
X166811760Y-102447455D01*
X166694370Y-102432001D01*
X166694367Y-102432000D01*
X166694361Y-102432000D01*
X166694354Y-102432000D01*
X165115636Y-102432000D01*
X164998246Y-102447453D01*
X164998237Y-102447456D01*
X164852160Y-102507963D01*
X164726718Y-102604218D01*
X164630463Y-102729660D01*
X164569956Y-102875737D01*
X164569955Y-102875739D01*
X164554501Y-102993129D01*
X164554501Y-102993136D01*
X164554500Y-102993145D01*
X158010500Y-102993145D01*
X158010500Y-101666739D01*
X173449500Y-101666739D01*
X173449500Y-103733260D01*
X173459426Y-103801391D01*
X173510803Y-103906485D01*
X173593514Y-103989196D01*
X173593515Y-103989196D01*
X173593517Y-103989198D01*
X173698607Y-104040573D01*
X173732673Y-104045536D01*
X173766739Y-104050500D01*
X173766740Y-104050500D01*
X175833261Y-104050500D01*
X175855971Y-104047191D01*
X175901393Y-104040573D01*
X176006483Y-103989198D01*
X176089198Y-103906483D01*
X176140573Y-103801393D01*
X176150500Y-103733260D01*
X176150500Y-102593713D01*
X178449500Y-102593713D01*
X178449500Y-102806286D01*
X178482753Y-103016239D01*
X178548444Y-103218414D01*
X178644951Y-103407820D01*
X178769890Y-103579786D01*
X178920213Y-103730109D01*
X179092179Y-103855048D01*
X179092181Y-103855049D01*
X179092184Y-103855051D01*
X179281588Y-103951557D01*
X179483757Y-104017246D01*
X179693713Y-104050500D01*
X179693714Y-104050500D01*
X179906286Y-104050500D01*
X179906287Y-104050500D01*
X180116243Y-104017246D01*
X180318412Y-103951557D01*
X180507816Y-103855051D01*
X180529789Y-103839086D01*
X180679786Y-103730109D01*
X180679788Y-103730106D01*
X180679792Y-103730104D01*
X180830104Y-103579792D01*
X180830106Y-103579788D01*
X180830109Y-103579786D01*
X180955048Y-103407820D01*
X180955047Y-103407820D01*
X180955051Y-103407816D01*
X181051557Y-103218412D01*
X181117246Y-103016243D01*
X181150500Y-102806287D01*
X181150500Y-102593713D01*
X181117246Y-102383757D01*
X181051557Y-102181588D01*
X181039427Y-102157782D01*
X192558129Y-102157782D01*
X192558129Y-102309314D01*
X192595144Y-102447455D01*
X192597348Y-102455682D01*
X192597349Y-102455685D01*
X192636241Y-102523048D01*
X192652714Y-102590948D01*
X192636241Y-102647048D01*
X192597349Y-102714410D01*
X192597348Y-102714413D01*
X192558129Y-102860782D01*
X192558129Y-103012313D01*
X192597348Y-103158684D01*
X192631833Y-103218412D01*
X192673114Y-103289913D01*
X192780264Y-103397063D01*
X192911494Y-103472829D01*
X193057863Y-103512048D01*
X193057865Y-103512048D01*
X193209393Y-103512048D01*
X193209395Y-103512048D01*
X193355764Y-103472829D01*
X193486994Y-103397063D01*
X193594144Y-103289913D01*
X193669910Y-103158683D01*
X193709129Y-103012314D01*
X193709129Y-102860782D01*
X193669910Y-102714413D01*
X193669909Y-102714412D01*
X193669909Y-102714410D01*
X193631017Y-102647050D01*
X193614543Y-102579150D01*
X193631017Y-102523046D01*
X193639726Y-102507963D01*
X193669910Y-102455683D01*
X193709129Y-102309314D01*
X193709129Y-102157782D01*
X193669910Y-102011413D01*
X193594144Y-101880183D01*
X193486994Y-101773033D01*
X193421379Y-101735150D01*
X193355765Y-101697267D01*
X193282579Y-101677657D01*
X193209395Y-101658048D01*
X193057863Y-101658048D01*
X192911492Y-101697267D01*
X192780264Y-101773033D01*
X192780261Y-101773035D01*
X192673116Y-101880180D01*
X192673114Y-101880183D01*
X192597348Y-102011411D01*
X192558129Y-102157782D01*
X181039427Y-102157782D01*
X180955051Y-101992184D01*
X180955049Y-101992181D01*
X180955048Y-101992179D01*
X180830109Y-101820213D01*
X180679786Y-101669890D01*
X180507820Y-101544951D01*
X180318414Y-101448444D01*
X180318413Y-101448443D01*
X180318412Y-101448443D01*
X180116243Y-101382754D01*
X180116241Y-101382753D01*
X180116240Y-101382753D01*
X179954957Y-101357208D01*
X179906287Y-101349500D01*
X179693713Y-101349500D01*
X179645042Y-101357208D01*
X179483760Y-101382753D01*
X179281585Y-101448444D01*
X179092179Y-101544951D01*
X178920213Y-101669890D01*
X178769890Y-101820213D01*
X178644951Y-101992179D01*
X178548444Y-102181585D01*
X178482753Y-102383760D01*
X178449500Y-102593713D01*
X176150500Y-102593713D01*
X176150500Y-101666740D01*
X176140573Y-101598607D01*
X176089198Y-101493517D01*
X176089196Y-101493515D01*
X176089196Y-101493514D01*
X176006485Y-101410803D01*
X175901391Y-101359426D01*
X175833261Y-101349500D01*
X175833260Y-101349500D01*
X173766740Y-101349500D01*
X173766739Y-101349500D01*
X173698608Y-101359426D01*
X173593514Y-101410803D01*
X173510803Y-101493514D01*
X173459426Y-101598608D01*
X173449500Y-101666739D01*
X158010500Y-101666739D01*
X158010500Y-99442133D01*
X191569500Y-99442133D01*
X191569500Y-99577867D01*
X191604631Y-99708975D01*
X191604632Y-99708978D01*
X191672495Y-99826520D01*
X191672497Y-99826522D01*
X191672498Y-99826524D01*
X191768476Y-99922502D01*
X191768477Y-99922503D01*
X191768479Y-99922504D01*
X191886021Y-99990367D01*
X191886022Y-99990367D01*
X191886025Y-99990369D01*
X192017133Y-100025500D01*
X192017135Y-100025500D01*
X192152865Y-100025500D01*
X192152867Y-100025500D01*
X192283975Y-99990369D01*
X192401524Y-99922502D01*
X192497502Y-99826524D01*
X192565369Y-99708975D01*
X192600500Y-99577867D01*
X192600500Y-99442133D01*
X192565369Y-99311025D01*
X192497502Y-99193476D01*
X192401524Y-99097498D01*
X192401522Y-99097497D01*
X192401520Y-99097495D01*
X192283978Y-99029632D01*
X192283979Y-99029632D01*
X192268484Y-99025480D01*
X192152867Y-98994500D01*
X192017133Y-98994500D01*
X191901515Y-99025480D01*
X191886021Y-99029632D01*
X191768479Y-99097495D01*
X191768473Y-99097500D01*
X191672500Y-99193473D01*
X191672495Y-99193479D01*
X191604632Y-99311021D01*
X191604631Y-99311025D01*
X191569500Y-99442133D01*
X158010500Y-99442133D01*
X158010500Y-97724234D01*
X169574500Y-97724234D01*
X169574500Y-97875765D01*
X169613719Y-98022136D01*
X169642587Y-98072136D01*
X169689485Y-98153365D01*
X169796635Y-98260515D01*
X169927865Y-98336281D01*
X170074234Y-98375500D01*
X170074236Y-98375500D01*
X170225764Y-98375500D01*
X170225766Y-98375500D01*
X170372135Y-98336281D01*
X170503365Y-98260515D01*
X170610515Y-98153365D01*
X170686281Y-98022135D01*
X170725500Y-97875766D01*
X170725500Y-97774234D01*
X172774500Y-97774234D01*
X172774500Y-97925765D01*
X172813719Y-98072136D01*
X172851602Y-98137750D01*
X172889485Y-98203365D01*
X172996635Y-98310515D01*
X173127865Y-98386281D01*
X173274234Y-98425500D01*
X173274236Y-98425500D01*
X173425764Y-98425500D01*
X173425766Y-98425500D01*
X173572135Y-98386281D01*
X173703365Y-98310515D01*
X173810515Y-98203365D01*
X173886281Y-98072135D01*
X173925500Y-97925766D01*
X173925500Y-97864071D01*
X183549499Y-97864071D01*
X183574497Y-97989738D01*
X183574499Y-97989744D01*
X183623533Y-98108124D01*
X183623538Y-98108133D01*
X183694723Y-98214668D01*
X183694726Y-98214672D01*
X183785327Y-98305273D01*
X183785331Y-98305276D01*
X183891866Y-98376461D01*
X183891872Y-98376464D01*
X183891873Y-98376465D01*
X184010256Y-98425501D01*
X184010260Y-98425501D01*
X184010261Y-98425502D01*
X184135928Y-98450500D01*
X184135931Y-98450500D01*
X184264071Y-98450500D01*
X184348615Y-98433682D01*
X184389744Y-98425501D01*
X184508127Y-98376465D01*
X184614669Y-98305276D01*
X184705276Y-98214669D01*
X184776465Y-98108127D01*
X184825501Y-97989744D01*
X184838228Y-97925764D01*
X184850500Y-97864071D01*
X184850500Y-97735928D01*
X184825502Y-97610261D01*
X184825501Y-97610260D01*
X184825501Y-97610256D01*
X184787574Y-97518692D01*
X184776466Y-97491875D01*
X184776461Y-97491866D01*
X184705276Y-97385331D01*
X184705273Y-97385327D01*
X184614672Y-97294726D01*
X184614668Y-97294723D01*
X184508133Y-97223538D01*
X184508124Y-97223533D01*
X184389744Y-97174499D01*
X184389738Y-97174497D01*
X184264071Y-97149500D01*
X184264069Y-97149500D01*
X184135931Y-97149500D01*
X184135929Y-97149500D01*
X184010261Y-97174497D01*
X184010255Y-97174499D01*
X183891875Y-97223533D01*
X183891866Y-97223538D01*
X183785331Y-97294723D01*
X183785327Y-97294726D01*
X183694726Y-97385327D01*
X183694723Y-97385331D01*
X183623538Y-97491866D01*
X183623533Y-97491875D01*
X183574499Y-97610255D01*
X183574497Y-97610261D01*
X183549500Y-97735928D01*
X183549500Y-97735931D01*
X183549500Y-97864069D01*
X183549500Y-97864071D01*
X183549499Y-97864071D01*
X173925500Y-97864071D01*
X173925500Y-97774234D01*
X173886281Y-97627865D01*
X173810515Y-97496635D01*
X173703365Y-97389485D01*
X173637750Y-97351602D01*
X173572136Y-97313719D01*
X173498950Y-97294109D01*
X173425766Y-97274500D01*
X173274234Y-97274500D01*
X173127863Y-97313719D01*
X172996635Y-97389485D01*
X172996632Y-97389487D01*
X172889487Y-97496632D01*
X172889485Y-97496635D01*
X172813719Y-97627863D01*
X172774500Y-97774234D01*
X170725500Y-97774234D01*
X170725500Y-97724234D01*
X170686281Y-97577865D01*
X170610515Y-97446635D01*
X170503365Y-97339485D01*
X170437750Y-97301602D01*
X170372136Y-97263719D01*
X170298950Y-97244109D01*
X170225766Y-97224500D01*
X170074234Y-97224500D01*
X169927863Y-97263719D01*
X169796635Y-97339485D01*
X169796632Y-97339487D01*
X169689487Y-97446632D01*
X169689485Y-97446635D01*
X169613719Y-97577863D01*
X169574500Y-97724234D01*
X158010500Y-97724234D01*
X158010500Y-95798435D01*
X158709500Y-95798435D01*
X158709500Y-96001564D01*
X158741277Y-96202194D01*
X158741277Y-96202197D01*
X158804045Y-96395377D01*
X158827457Y-96441325D01*
X158870346Y-96525499D01*
X158896268Y-96576372D01*
X159015656Y-96740697D01*
X159015660Y-96740702D01*
X159159297Y-96884339D01*
X159159302Y-96884343D01*
X159280140Y-96972136D01*
X159323631Y-97003734D01*
X159504620Y-97095953D01*
X159504622Y-97095954D01*
X159697803Y-97158722D01*
X159697804Y-97158722D01*
X159697807Y-97158723D01*
X159898435Y-97190500D01*
X159898436Y-97190500D01*
X160101564Y-97190500D01*
X160101565Y-97190500D01*
X160302193Y-97158723D01*
X160302196Y-97158722D01*
X160302197Y-97158722D01*
X160495377Y-97095954D01*
X160495377Y-97095953D01*
X160495380Y-97095953D01*
X160676369Y-97003734D01*
X160840704Y-96884338D01*
X160984338Y-96740704D01*
X161032631Y-96674234D01*
X167274500Y-96674234D01*
X167274500Y-96825766D01*
X167294109Y-96898950D01*
X167313719Y-96972136D01*
X167351602Y-97037750D01*
X167389485Y-97103365D01*
X167496635Y-97210515D01*
X167627865Y-97286281D01*
X167774234Y-97325500D01*
X167774236Y-97325500D01*
X167925764Y-97325500D01*
X167925766Y-97325500D01*
X168072135Y-97286281D01*
X168203365Y-97210515D01*
X168310515Y-97103365D01*
X168386281Y-96972135D01*
X168425500Y-96825766D01*
X168425500Y-96674234D01*
X168386281Y-96527865D01*
X168310515Y-96396635D01*
X168203365Y-96289485D01*
X168137750Y-96251602D01*
X168072136Y-96213719D01*
X167998950Y-96194109D01*
X167925766Y-96174500D01*
X167774234Y-96174500D01*
X167627863Y-96213719D01*
X167496635Y-96289485D01*
X167496632Y-96289487D01*
X167389487Y-96396632D01*
X167389485Y-96396635D01*
X167313719Y-96527863D01*
X167300721Y-96576373D01*
X167274500Y-96674234D01*
X161032631Y-96674234D01*
X161103734Y-96576369D01*
X161195953Y-96395380D01*
X161225850Y-96303367D01*
X161258722Y-96202197D01*
X161258722Y-96202196D01*
X161258723Y-96202193D01*
X161290500Y-96001565D01*
X161290500Y-95798435D01*
X161258723Y-95597807D01*
X161258722Y-95597803D01*
X161258722Y-95597802D01*
X161195954Y-95404622D01*
X161180469Y-95374232D01*
X161103734Y-95223631D01*
X161063248Y-95167906D01*
X160984343Y-95059302D01*
X160984339Y-95059297D01*
X160840702Y-94915660D01*
X160840697Y-94915656D01*
X160676372Y-94796268D01*
X160676371Y-94796267D01*
X160676369Y-94796266D01*
X160550421Y-94732092D01*
X160495377Y-94704045D01*
X160302196Y-94641277D01*
X160151722Y-94617444D01*
X160101565Y-94609500D01*
X159898435Y-94609500D01*
X159831559Y-94620092D01*
X159697805Y-94641277D01*
X159697802Y-94641277D01*
X159504622Y-94704045D01*
X159323627Y-94796268D01*
X159159302Y-94915656D01*
X159159297Y-94915660D01*
X159015660Y-95059297D01*
X159015656Y-95059302D01*
X158896268Y-95223627D01*
X158804045Y-95404622D01*
X158741277Y-95597802D01*
X158741277Y-95597805D01*
X158709500Y-95798435D01*
X158010500Y-95798435D01*
X158010500Y-94324234D01*
X174124500Y-94324234D01*
X174124500Y-94475765D01*
X174163719Y-94622136D01*
X174201602Y-94687750D01*
X174239485Y-94753365D01*
X174346635Y-94860515D01*
X174477865Y-94936281D01*
X174624234Y-94975500D01*
X174624236Y-94975500D01*
X174775764Y-94975500D01*
X174775766Y-94975500D01*
X174922135Y-94936281D01*
X175053365Y-94860515D01*
X175160515Y-94753365D01*
X175236281Y-94622135D01*
X175275500Y-94475766D01*
X175275500Y-94324234D01*
X175236281Y-94177865D01*
X175220635Y-94150766D01*
X175164254Y-94053111D01*
X175164253Y-94053110D01*
X175160515Y-94046635D01*
X175113114Y-93999234D01*
X179599500Y-93999234D01*
X179599500Y-94150765D01*
X179638719Y-94297136D01*
X179676602Y-94362750D01*
X179714485Y-94428365D01*
X179821635Y-94535515D01*
X179952865Y-94611281D01*
X180099234Y-94650500D01*
X180099236Y-94650500D01*
X180250764Y-94650500D01*
X180250766Y-94650500D01*
X180397135Y-94611281D01*
X180528365Y-94535515D01*
X180635515Y-94428365D01*
X180666768Y-94374234D01*
X190774500Y-94374234D01*
X190774500Y-94525767D01*
X190812585Y-94667908D01*
X190812585Y-94732092D01*
X190774500Y-94874232D01*
X190774500Y-95025767D01*
X190812585Y-95167908D01*
X190812585Y-95232092D01*
X190774500Y-95374232D01*
X190774500Y-95525767D01*
X190812585Y-95667908D01*
X190812585Y-95732092D01*
X190774500Y-95874232D01*
X190774500Y-96025765D01*
X190813719Y-96172136D01*
X190851602Y-96237750D01*
X190889485Y-96303365D01*
X190996635Y-96410515D01*
X191083468Y-96460648D01*
X191127861Y-96486279D01*
X191127865Y-96486281D01*
X191274234Y-96525500D01*
X191274236Y-96525500D01*
X191425764Y-96525500D01*
X191425766Y-96525500D01*
X191572135Y-96486281D01*
X191587997Y-96477123D01*
X191655896Y-96460648D01*
X191712003Y-96477123D01*
X191727861Y-96486279D01*
X191727862Y-96486279D01*
X191727865Y-96486281D01*
X191874234Y-96525500D01*
X191874236Y-96525500D01*
X192025764Y-96525500D01*
X192025766Y-96525500D01*
X192172135Y-96486281D01*
X192303365Y-96410515D01*
X192410515Y-96303365D01*
X192486281Y-96172135D01*
X192525500Y-96025766D01*
X192525500Y-95874234D01*
X192505190Y-95798435D01*
X194509500Y-95798435D01*
X194509500Y-96001564D01*
X194541277Y-96202194D01*
X194541277Y-96202197D01*
X194604045Y-96395377D01*
X194627457Y-96441325D01*
X194670346Y-96525499D01*
X194696268Y-96576372D01*
X194815656Y-96740697D01*
X194815660Y-96740702D01*
X194959297Y-96884339D01*
X194959302Y-96884343D01*
X195080140Y-96972136D01*
X195123631Y-97003734D01*
X195304620Y-97095953D01*
X195304622Y-97095954D01*
X195497803Y-97158722D01*
X195497804Y-97158722D01*
X195497807Y-97158723D01*
X195698435Y-97190500D01*
X195698436Y-97190500D01*
X195901564Y-97190500D01*
X195901565Y-97190500D01*
X196102193Y-97158723D01*
X196102196Y-97158722D01*
X196102197Y-97158722D01*
X196295377Y-97095954D01*
X196295377Y-97095953D01*
X196295380Y-97095953D01*
X196476369Y-97003734D01*
X196640704Y-96884338D01*
X196784338Y-96740704D01*
X196903734Y-96576369D01*
X196995953Y-96395380D01*
X197025850Y-96303367D01*
X197058722Y-96202197D01*
X197058722Y-96202196D01*
X197058723Y-96202193D01*
X197090500Y-96001565D01*
X197090500Y-95798435D01*
X197058723Y-95597807D01*
X197058722Y-95597803D01*
X197058722Y-95597802D01*
X196995954Y-95404622D01*
X196980469Y-95374232D01*
X196903734Y-95223631D01*
X196863248Y-95167906D01*
X196784343Y-95059302D01*
X196784339Y-95059297D01*
X196640702Y-94915660D01*
X196640697Y-94915656D01*
X196476372Y-94796268D01*
X196476371Y-94796267D01*
X196476369Y-94796266D01*
X196350421Y-94732092D01*
X196295377Y-94704045D01*
X196102196Y-94641277D01*
X195951722Y-94617444D01*
X195901565Y-94609500D01*
X195698435Y-94609500D01*
X195631559Y-94620092D01*
X195497805Y-94641277D01*
X195497802Y-94641277D01*
X195304622Y-94704045D01*
X195123627Y-94796268D01*
X194959302Y-94915656D01*
X194959297Y-94915660D01*
X194815660Y-95059297D01*
X194815656Y-95059302D01*
X194696268Y-95223627D01*
X194604045Y-95404622D01*
X194541277Y-95597802D01*
X194541277Y-95597805D01*
X194509500Y-95798435D01*
X192505190Y-95798435D01*
X192487413Y-95732089D01*
X192487413Y-95667910D01*
X192525500Y-95525766D01*
X192525500Y-95374234D01*
X192487413Y-95232089D01*
X192487413Y-95167910D01*
X192525500Y-95025766D01*
X192525500Y-94874234D01*
X192487413Y-94732089D01*
X192487413Y-94667910D01*
X192525500Y-94525766D01*
X192525500Y-94374234D01*
X192486281Y-94227865D01*
X192410515Y-94096635D01*
X192303365Y-93989485D01*
X192237750Y-93951602D01*
X192172136Y-93913719D01*
X192098950Y-93894109D01*
X192025766Y-93874500D01*
X191874234Y-93874500D01*
X191727865Y-93913719D01*
X191727860Y-93913721D01*
X191711998Y-93922879D01*
X191644097Y-93939350D01*
X191588002Y-93922879D01*
X191572139Y-93913721D01*
X191572137Y-93913720D01*
X191572135Y-93913719D01*
X191425766Y-93874500D01*
X191274234Y-93874500D01*
X191127863Y-93913719D01*
X190996635Y-93989485D01*
X190996632Y-93989487D01*
X190889487Y-94096632D01*
X190889485Y-94096635D01*
X190813719Y-94227863D01*
X190774500Y-94374234D01*
X180666768Y-94374234D01*
X180711281Y-94297135D01*
X180750500Y-94150766D01*
X180750500Y-93999234D01*
X180711281Y-93852865D01*
X180635515Y-93721635D01*
X180528365Y-93614485D01*
X180462750Y-93576602D01*
X180397136Y-93538719D01*
X180323950Y-93519109D01*
X180250766Y-93499500D01*
X180099234Y-93499500D01*
X179952863Y-93538719D01*
X179821635Y-93614485D01*
X179821632Y-93614487D01*
X179714487Y-93721632D01*
X179714485Y-93721635D01*
X179638719Y-93852863D01*
X179599500Y-93999234D01*
X175113114Y-93999234D01*
X175053365Y-93939485D01*
X174987750Y-93901602D01*
X174922136Y-93863719D01*
X174848950Y-93844109D01*
X174775766Y-93824500D01*
X174624234Y-93824500D01*
X174477863Y-93863719D01*
X174346635Y-93939485D01*
X174346632Y-93939487D01*
X174239487Y-94046632D01*
X174239485Y-94046635D01*
X174163719Y-94177863D01*
X174124500Y-94324234D01*
X158010500Y-94324234D01*
X158010500Y-89640513D01*
X158899500Y-89640513D01*
X158899500Y-89829486D01*
X158929059Y-90016118D01*
X158987454Y-90195836D01*
X159066714Y-90351391D01*
X159073240Y-90364199D01*
X159184310Y-90517073D01*
X159317927Y-90650690D01*
X159470801Y-90761760D01*
X159567207Y-90810881D01*
X159624385Y-90840015D01*
X159675181Y-90887990D01*
X159691976Y-90955811D01*
X159669439Y-91021946D01*
X159614723Y-91065397D01*
X159568090Y-91074500D01*
X159216739Y-91074500D01*
X159148608Y-91084426D01*
X159043514Y-91135803D01*
X158960803Y-91218514D01*
X158909426Y-91323608D01*
X158899500Y-91391739D01*
X158899500Y-93158260D01*
X158909426Y-93226391D01*
X158960803Y-93331485D01*
X159043514Y-93414196D01*
X159043515Y-93414196D01*
X159043517Y-93414198D01*
X159148607Y-93465573D01*
X159182673Y-93470536D01*
X159216739Y-93475500D01*
X159216740Y-93475500D01*
X160983261Y-93475500D01*
X161005971Y-93472191D01*
X161051393Y-93465573D01*
X161156483Y-93414198D01*
X161239198Y-93331483D01*
X161290573Y-93226393D01*
X161300500Y-93158260D01*
X161300500Y-91674234D01*
X166124500Y-91674234D01*
X166124500Y-91825765D01*
X166163719Y-91972136D01*
X166182178Y-92004107D01*
X166239485Y-92103365D01*
X166346635Y-92210515D01*
X166477865Y-92286281D01*
X166624234Y-92325500D01*
X166624236Y-92325500D01*
X166775764Y-92325500D01*
X166775766Y-92325500D01*
X166922135Y-92286281D01*
X167053365Y-92210515D01*
X167160515Y-92103365D01*
X167177334Y-92074234D01*
X188174500Y-92074234D01*
X188174500Y-92225766D01*
X188190715Y-92286281D01*
X188213719Y-92372136D01*
X188251602Y-92437750D01*
X188289485Y-92503365D01*
X188396635Y-92610515D01*
X188527865Y-92686281D01*
X188674234Y-92725500D01*
X188674236Y-92725500D01*
X188825764Y-92725500D01*
X188825766Y-92725500D01*
X188972135Y-92686281D01*
X189103365Y-92610515D01*
X189210515Y-92503365D01*
X189286281Y-92372135D01*
X189325500Y-92225766D01*
X189325500Y-92074234D01*
X189286281Y-91927865D01*
X189210515Y-91796635D01*
X189103365Y-91689485D01*
X189037750Y-91651602D01*
X188972136Y-91613719D01*
X188898950Y-91594109D01*
X188825766Y-91574500D01*
X188674234Y-91574500D01*
X188527863Y-91613719D01*
X188396635Y-91689485D01*
X188396632Y-91689487D01*
X188289487Y-91796632D01*
X188289485Y-91796635D01*
X188213719Y-91927863D01*
X188193290Y-92004107D01*
X188174500Y-92074234D01*
X167177334Y-92074234D01*
X167236281Y-91972135D01*
X167275500Y-91825766D01*
X167275500Y-91674234D01*
X167236281Y-91527865D01*
X167160515Y-91396635D01*
X167053365Y-91289485D01*
X166987750Y-91251602D01*
X166922136Y-91213719D01*
X166848950Y-91194109D01*
X166775766Y-91174500D01*
X166624234Y-91174500D01*
X166477863Y-91213719D01*
X166346635Y-91289485D01*
X166346632Y-91289487D01*
X166239487Y-91396632D01*
X166239485Y-91396635D01*
X166163719Y-91527863D01*
X166124500Y-91674234D01*
X161300500Y-91674234D01*
X161300500Y-91391740D01*
X161290573Y-91323607D01*
X161239198Y-91218517D01*
X161239196Y-91218515D01*
X161239196Y-91218514D01*
X161156485Y-91135803D01*
X161051391Y-91084426D01*
X160983261Y-91074500D01*
X160983260Y-91074500D01*
X160631910Y-91074500D01*
X160564871Y-91054815D01*
X160519116Y-91002011D01*
X160509172Y-90932853D01*
X160538197Y-90869297D01*
X160575615Y-90840015D01*
X160610224Y-90822380D01*
X160729199Y-90761760D01*
X160882073Y-90650690D01*
X161015690Y-90517073D01*
X161126760Y-90364199D01*
X161212547Y-90195832D01*
X161270940Y-90016118D01*
X161300500Y-89829486D01*
X161300500Y-89640513D01*
X161270940Y-89453881D01*
X161243846Y-89370497D01*
X161212547Y-89274168D01*
X161212545Y-89274165D01*
X161212545Y-89274163D01*
X161133425Y-89118882D01*
X161126760Y-89105801D01*
X161015690Y-88952927D01*
X160882073Y-88819310D01*
X160729199Y-88708240D01*
X160561392Y-88622738D01*
X160561390Y-88622736D01*
X160560839Y-88622456D01*
X160560835Y-88622455D01*
X160560832Y-88622453D01*
X160485271Y-88597901D01*
X160381118Y-88564059D01*
X160194486Y-88534500D01*
X160194481Y-88534500D01*
X160005519Y-88534500D01*
X160005514Y-88534500D01*
X159818881Y-88564059D01*
X159639163Y-88622454D01*
X159470800Y-88708240D01*
X159384695Y-88770800D01*
X159317927Y-88819310D01*
X159317925Y-88819312D01*
X159317924Y-88819312D01*
X159184312Y-88952924D01*
X159184312Y-88952925D01*
X159184310Y-88952927D01*
X159155939Y-88991976D01*
X159073240Y-89105800D01*
X158987454Y-89274163D01*
X158929059Y-89453881D01*
X158899500Y-89640513D01*
X158010500Y-89640513D01*
X158010500Y-88516739D01*
X167159500Y-88516739D01*
X167159500Y-90283260D01*
X167169426Y-90351391D01*
X167220803Y-90456485D01*
X167303514Y-90539196D01*
X167303515Y-90539196D01*
X167303517Y-90539198D01*
X167408607Y-90590573D01*
X167442673Y-90595536D01*
X167476739Y-90600500D01*
X167476740Y-90600500D01*
X169243261Y-90600500D01*
X169265971Y-90597191D01*
X169311393Y-90590573D01*
X169416483Y-90539198D01*
X169499198Y-90456483D01*
X169550573Y-90351393D01*
X169560500Y-90283260D01*
X169560500Y-89931909D01*
X169580185Y-89864870D01*
X169632989Y-89819115D01*
X169702147Y-89809171D01*
X169765703Y-89838196D01*
X169794984Y-89875613D01*
X169873240Y-90029199D01*
X169984310Y-90182073D01*
X170117927Y-90315690D01*
X170270801Y-90426760D01*
X170329136Y-90456483D01*
X170439163Y-90512545D01*
X170439165Y-90512545D01*
X170439168Y-90512547D01*
X170521185Y-90539196D01*
X170618881Y-90570940D01*
X170805514Y-90600500D01*
X170805519Y-90600500D01*
X170994486Y-90600500D01*
X171181118Y-90570940D01*
X171360832Y-90512547D01*
X171529199Y-90426760D01*
X171682073Y-90315690D01*
X171815690Y-90182073D01*
X171926760Y-90029199D01*
X172012547Y-89860832D01*
X172052069Y-89739195D01*
X172091507Y-89681521D01*
X172155866Y-89654323D01*
X172224712Y-89666238D01*
X172276188Y-89713482D01*
X172287931Y-89739196D01*
X172327454Y-89860836D01*
X172363668Y-89931909D01*
X172413240Y-90029199D01*
X172524310Y-90182073D01*
X172657927Y-90315690D01*
X172810801Y-90426760D01*
X172869136Y-90456483D01*
X172979163Y-90512545D01*
X172979165Y-90512545D01*
X172979168Y-90512547D01*
X173061185Y-90539196D01*
X173158881Y-90570940D01*
X173345514Y-90600500D01*
X173345519Y-90600500D01*
X173534486Y-90600500D01*
X173721118Y-90570940D01*
X173900832Y-90512547D01*
X174069199Y-90426760D01*
X174222073Y-90315690D01*
X174355690Y-90182073D01*
X174466760Y-90029199D01*
X174552547Y-89860832D01*
X174610940Y-89681118D01*
X174617371Y-89640513D01*
X174640500Y-89494486D01*
X174640500Y-89305513D01*
X174610940Y-89118881D01*
X174564248Y-88975181D01*
X174552547Y-88939168D01*
X174552545Y-88939165D01*
X174552545Y-88939163D01*
X174507290Y-88850347D01*
X174466760Y-88770801D01*
X174355690Y-88617927D01*
X174222073Y-88484310D01*
X174069199Y-88373240D01*
X173900836Y-88287454D01*
X173721118Y-88229059D01*
X173534486Y-88199500D01*
X173534481Y-88199500D01*
X173345519Y-88199500D01*
X173345514Y-88199500D01*
X173158881Y-88229059D01*
X172979163Y-88287454D01*
X172810800Y-88373240D01*
X172723579Y-88436610D01*
X172657927Y-88484310D01*
X172657925Y-88484312D01*
X172657924Y-88484312D01*
X172524312Y-88617924D01*
X172524312Y-88617925D01*
X172524310Y-88617927D01*
X172520815Y-88622738D01*
X172413240Y-88770800D01*
X172327454Y-88939163D01*
X172287931Y-89060803D01*
X172248493Y-89118478D01*
X172184134Y-89145676D01*
X172115288Y-89133761D01*
X172063812Y-89086516D01*
X172052069Y-89060803D01*
X172024248Y-88975181D01*
X172012547Y-88939168D01*
X172012545Y-88939165D01*
X172012545Y-88939163D01*
X171967290Y-88850347D01*
X171926760Y-88770801D01*
X171815690Y-88617927D01*
X171682073Y-88484310D01*
X171529199Y-88373240D01*
X171360836Y-88287454D01*
X171181118Y-88229059D01*
X170994486Y-88199500D01*
X170994481Y-88199500D01*
X170805519Y-88199500D01*
X170805514Y-88199500D01*
X170618881Y-88229059D01*
X170439163Y-88287454D01*
X170270800Y-88373240D01*
X170183579Y-88436610D01*
X170117927Y-88484310D01*
X170117925Y-88484312D01*
X170117924Y-88484312D01*
X169984312Y-88617924D01*
X169984312Y-88617925D01*
X169984310Y-88617927D01*
X169980815Y-88622738D01*
X169873240Y-88770800D01*
X169794985Y-88924385D01*
X169747010Y-88975181D01*
X169679189Y-88991976D01*
X169613054Y-88969439D01*
X169569603Y-88914723D01*
X169560500Y-88868090D01*
X169560500Y-88516739D01*
X169550573Y-88448608D01*
X169550573Y-88448607D01*
X169499198Y-88343517D01*
X169499196Y-88343515D01*
X169499196Y-88343514D01*
X169416485Y-88260803D01*
X169311391Y-88209426D01*
X169243261Y-88199500D01*
X169243260Y-88199500D01*
X167476740Y-88199500D01*
X167476739Y-88199500D01*
X167408608Y-88209426D01*
X167303514Y-88260803D01*
X167220803Y-88343514D01*
X167169426Y-88448608D01*
X167159500Y-88516739D01*
X158010500Y-88516739D01*
X158010500Y-85278711D01*
X160562000Y-85278711D01*
X160562000Y-85521288D01*
X160593661Y-85761785D01*
X160656447Y-85996104D01*
X160729390Y-86172204D01*
X160749276Y-86220212D01*
X160870564Y-86430289D01*
X160870566Y-86430292D01*
X160870567Y-86430293D01*
X161018233Y-86622736D01*
X161018239Y-86622743D01*
X161189756Y-86794260D01*
X161189762Y-86794265D01*
X161382211Y-86941936D01*
X161592288Y-87063224D01*
X161816400Y-87156054D01*
X162050711Y-87218838D01*
X162231086Y-87242584D01*
X162291211Y-87250500D01*
X162291212Y-87250500D01*
X162533789Y-87250500D01*
X162581888Y-87244167D01*
X162774289Y-87218838D01*
X163008600Y-87156054D01*
X163232712Y-87063224D01*
X163442789Y-86941936D01*
X163635238Y-86794265D01*
X163705269Y-86724234D01*
X167324500Y-86724234D01*
X167324500Y-86875765D01*
X167363719Y-87022136D01*
X167387442Y-87063224D01*
X167439485Y-87153365D01*
X167546635Y-87260515D01*
X167677865Y-87336281D01*
X167824234Y-87375500D01*
X167824236Y-87375500D01*
X167975764Y-87375500D01*
X167975766Y-87375500D01*
X168122135Y-87336281D01*
X168253365Y-87260515D01*
X168360515Y-87153365D01*
X168436281Y-87022135D01*
X168475500Y-86875766D01*
X168475500Y-86724234D01*
X168436281Y-86577865D01*
X168360515Y-86446635D01*
X168253365Y-86339485D01*
X168187750Y-86301602D01*
X168122136Y-86263719D01*
X168018263Y-86235887D01*
X167975766Y-86224500D01*
X167824234Y-86224500D01*
X167677863Y-86263719D01*
X167546635Y-86339485D01*
X167546632Y-86339487D01*
X167439487Y-86446632D01*
X167439485Y-86446635D01*
X167363719Y-86577863D01*
X167324500Y-86724234D01*
X163705269Y-86724234D01*
X163801078Y-86628426D01*
X163806760Y-86622743D01*
X163806765Y-86622738D01*
X163954436Y-86430289D01*
X164075724Y-86220212D01*
X164156901Y-86024234D01*
X170774500Y-86024234D01*
X170774500Y-86175766D01*
X170790609Y-86235887D01*
X170813719Y-86322136D01*
X170823736Y-86339485D01*
X170889485Y-86453365D01*
X170996635Y-86560515D01*
X171127865Y-86636281D01*
X171274234Y-86675500D01*
X171274236Y-86675500D01*
X171425764Y-86675500D01*
X171425766Y-86675500D01*
X171572135Y-86636281D01*
X171703365Y-86560515D01*
X171810515Y-86453365D01*
X171886281Y-86322135D01*
X171925500Y-86175766D01*
X171925500Y-86024234D01*
X171886281Y-85877865D01*
X171810515Y-85746635D01*
X171810512Y-85746632D01*
X171810511Y-85746630D01*
X171809784Y-85745682D01*
X171809418Y-85744737D01*
X171806451Y-85739597D01*
X171807252Y-85739134D01*
X171784588Y-85680514D01*
X171798625Y-85612069D01*
X171847438Y-85562078D01*
X171876058Y-85550421D01*
X172022135Y-85511281D01*
X172112885Y-85458885D01*
X172180785Y-85442412D01*
X172246812Y-85465264D01*
X172282272Y-85504270D01*
X172339485Y-85603365D01*
X172446635Y-85710515D01*
X172577865Y-85786281D01*
X172724234Y-85825500D01*
X172724236Y-85825500D01*
X172875764Y-85825500D01*
X172875766Y-85825500D01*
X173022135Y-85786281D01*
X173153365Y-85710515D01*
X173260515Y-85603365D01*
X173336281Y-85472135D01*
X173375500Y-85325766D01*
X173375500Y-85174234D01*
X173348705Y-85074234D01*
X176324500Y-85074234D01*
X176324500Y-85225766D01*
X176359649Y-85356946D01*
X176363720Y-85372137D01*
X176363720Y-85372138D01*
X176386962Y-85412394D01*
X176403435Y-85480294D01*
X176399350Y-85506485D01*
X176374500Y-85599229D01*
X176374500Y-85599234D01*
X176374500Y-85750766D01*
X176393623Y-85822135D01*
X176413719Y-85897136D01*
X176446185Y-85953367D01*
X176489485Y-86028365D01*
X176596635Y-86135515D01*
X176727865Y-86211281D01*
X176874234Y-86250500D01*
X176874236Y-86250500D01*
X177025763Y-86250500D01*
X177025766Y-86250500D01*
X177126535Y-86223499D01*
X177196381Y-86225162D01*
X177220624Y-86235886D01*
X177241559Y-86247973D01*
X177387928Y-86287192D01*
X177387930Y-86287192D01*
X177539458Y-86287192D01*
X177539460Y-86287192D01*
X177685829Y-86247973D01*
X177817059Y-86172207D01*
X177924209Y-86065057D01*
X177999975Y-85933827D01*
X178039194Y-85787458D01*
X178039194Y-85635926D01*
X177999975Y-85489557D01*
X177989916Y-85472135D01*
X177977738Y-85451041D01*
X177961264Y-85383141D01*
X177965346Y-85356962D01*
X178000500Y-85225766D01*
X178000500Y-85074234D01*
X177987103Y-85024234D01*
X180724500Y-85024234D01*
X180724500Y-85175767D01*
X180762585Y-85317908D01*
X180762585Y-85382092D01*
X180724500Y-85524232D01*
X180724500Y-85675765D01*
X180763719Y-85822136D01*
X180795894Y-85877863D01*
X180839485Y-85953365D01*
X180946635Y-86060515D01*
X181050000Y-86120193D01*
X181076536Y-86135514D01*
X181077865Y-86136281D01*
X181224234Y-86175500D01*
X181224236Y-86175500D01*
X181375763Y-86175500D01*
X181375766Y-86175500D01*
X181517910Y-86137413D01*
X181582090Y-86137413D01*
X181724234Y-86175500D01*
X181724237Y-86175500D01*
X181875764Y-86175500D01*
X181875766Y-86175500D01*
X182022135Y-86136281D01*
X182153365Y-86060515D01*
X182260515Y-85953365D01*
X182336281Y-85822135D01*
X182353282Y-85758685D01*
X182389646Y-85699027D01*
X182452492Y-85668497D01*
X182521868Y-85676791D01*
X182575746Y-85721276D01*
X182592831Y-85758686D01*
X182593661Y-85761785D01*
X182593662Y-85761789D01*
X182639760Y-85933827D01*
X182656447Y-85996104D01*
X182729390Y-86172204D01*
X182749276Y-86220212D01*
X182870564Y-86430289D01*
X182870566Y-86430292D01*
X182870567Y-86430293D01*
X183018233Y-86622736D01*
X183018239Y-86622743D01*
X183189756Y-86794260D01*
X183189762Y-86794265D01*
X183382211Y-86941936D01*
X183592288Y-87063224D01*
X183816400Y-87156054D01*
X184050711Y-87218838D01*
X184231086Y-87242584D01*
X184291211Y-87250500D01*
X184291212Y-87250500D01*
X184533789Y-87250500D01*
X184581888Y-87244167D01*
X184774289Y-87218838D01*
X185008600Y-87156054D01*
X185232712Y-87063224D01*
X185442789Y-86941936D01*
X185635238Y-86794265D01*
X185806765Y-86622738D01*
X185954436Y-86430289D01*
X186075724Y-86220212D01*
X186168554Y-85996100D01*
X186231338Y-85761789D01*
X186263000Y-85521288D01*
X186263000Y-85278712D01*
X186231338Y-85038211D01*
X186168554Y-84803900D01*
X186075724Y-84579788D01*
X185954436Y-84369711D01*
X185806765Y-84177262D01*
X185806760Y-84177256D01*
X185635243Y-84005739D01*
X185635236Y-84005733D01*
X185442793Y-83858067D01*
X185442792Y-83858066D01*
X185442789Y-83858064D01*
X185232712Y-83736776D01*
X185232705Y-83736773D01*
X185008604Y-83643947D01*
X184774285Y-83581161D01*
X184533789Y-83549500D01*
X184533788Y-83549500D01*
X184291212Y-83549500D01*
X184291211Y-83549500D01*
X184050714Y-83581161D01*
X183816395Y-83643947D01*
X183592294Y-83736773D01*
X183592285Y-83736777D01*
X183382206Y-83858067D01*
X183189763Y-84005733D01*
X183189756Y-84005739D01*
X183018239Y-84177256D01*
X183018233Y-84177263D01*
X182870567Y-84369706D01*
X182749277Y-84579785D01*
X182749273Y-84579794D01*
X182656447Y-84803895D01*
X182606228Y-84991314D01*
X182569862Y-85050974D01*
X182507015Y-85081503D01*
X182437640Y-85073208D01*
X182383762Y-85028722D01*
X182366680Y-84991318D01*
X182336281Y-84877865D01*
X182260515Y-84746635D01*
X182153365Y-84639485D01*
X182087750Y-84601602D01*
X182022136Y-84563719D01*
X181948950Y-84544109D01*
X181875766Y-84524500D01*
X181724234Y-84524500D01*
X181724232Y-84524500D01*
X181582092Y-84562585D01*
X181517908Y-84562585D01*
X181375767Y-84524500D01*
X181375766Y-84524500D01*
X181224234Y-84524500D01*
X181077863Y-84563719D01*
X180946635Y-84639485D01*
X180946632Y-84639487D01*
X180839487Y-84746632D01*
X180839485Y-84746635D01*
X180763719Y-84877863D01*
X180724500Y-85024234D01*
X177987103Y-85024234D01*
X177961281Y-84927865D01*
X177885515Y-84796635D01*
X177778365Y-84689485D01*
X177712750Y-84651602D01*
X177647136Y-84613719D01*
X177520568Y-84579806D01*
X177500766Y-84574500D01*
X177349234Y-84574500D01*
X177202865Y-84613719D01*
X177202863Y-84613720D01*
X177195015Y-84615823D01*
X177194128Y-84612515D01*
X177140286Y-84618216D01*
X177130141Y-84615237D01*
X177129985Y-84615823D01*
X177122136Y-84613720D01*
X177122135Y-84613719D01*
X176975766Y-84574500D01*
X176824234Y-84574500D01*
X176677863Y-84613719D01*
X176546635Y-84689485D01*
X176546632Y-84689487D01*
X176439487Y-84796632D01*
X176439485Y-84796635D01*
X176363719Y-84927863D01*
X176346718Y-84991313D01*
X176324500Y-85074234D01*
X173348705Y-85074234D01*
X173336281Y-85027865D01*
X173260515Y-84896635D01*
X173153365Y-84789485D01*
X173079142Y-84746632D01*
X173022136Y-84713719D01*
X172931691Y-84689485D01*
X172875766Y-84674500D01*
X172724234Y-84674500D01*
X172577865Y-84713719D01*
X172577864Y-84713719D01*
X172577862Y-84713720D01*
X172577861Y-84713720D01*
X172487113Y-84766114D01*
X172419213Y-84782587D01*
X172353186Y-84759734D01*
X172317726Y-84720727D01*
X172260515Y-84621635D01*
X172153365Y-84514485D01*
X172087750Y-84476602D01*
X172022136Y-84438719D01*
X171948950Y-84419109D01*
X171875766Y-84399500D01*
X171724234Y-84399500D01*
X171577863Y-84438719D01*
X171446635Y-84514485D01*
X171446632Y-84514487D01*
X171339487Y-84621632D01*
X171339485Y-84621635D01*
X171263719Y-84752863D01*
X171224500Y-84899234D01*
X171224500Y-85050765D01*
X171263719Y-85197136D01*
X171280249Y-85225766D01*
X171339485Y-85328365D01*
X171339488Y-85328368D01*
X171340217Y-85329318D01*
X171340584Y-85330267D01*
X171343549Y-85335403D01*
X171342748Y-85335865D01*
X171365411Y-85394488D01*
X171351373Y-85462932D01*
X171302559Y-85512922D01*
X171273934Y-85524580D01*
X171127865Y-85563719D01*
X171127863Y-85563719D01*
X171127863Y-85563720D01*
X170996635Y-85639485D01*
X170996632Y-85639487D01*
X170889487Y-85746632D01*
X170889485Y-85746635D01*
X170813719Y-85877863D01*
X170785277Y-85984013D01*
X170774500Y-86024234D01*
X164156901Y-86024234D01*
X164168554Y-85996100D01*
X164231338Y-85761789D01*
X164263000Y-85521288D01*
X164263000Y-85278712D01*
X164231338Y-85038211D01*
X164168554Y-84803900D01*
X164075724Y-84579788D01*
X163954436Y-84369711D01*
X163806765Y-84177262D01*
X163806760Y-84177256D01*
X163635243Y-84005739D01*
X163635236Y-84005733D01*
X163442793Y-83858067D01*
X163442792Y-83858066D01*
X163442789Y-83858064D01*
X163232712Y-83736776D01*
X163232705Y-83736773D01*
X163008604Y-83643947D01*
X162774285Y-83581161D01*
X162533789Y-83549500D01*
X162533788Y-83549500D01*
X162291212Y-83549500D01*
X162291211Y-83549500D01*
X162050714Y-83581161D01*
X161816395Y-83643947D01*
X161592294Y-83736773D01*
X161592285Y-83736777D01*
X161382206Y-83858067D01*
X161189763Y-84005733D01*
X161189756Y-84005739D01*
X161018239Y-84177256D01*
X161018233Y-84177263D01*
X160870567Y-84369706D01*
X160749277Y-84579785D01*
X160749273Y-84579794D01*
X160656447Y-84803895D01*
X160593661Y-85038214D01*
X160562000Y-85278711D01*
X158010500Y-85278711D01*
X158010500Y-82124234D01*
X168324500Y-82124234D01*
X168324500Y-82275765D01*
X168363719Y-82422136D01*
X168367317Y-82428367D01*
X168439485Y-82553365D01*
X168546635Y-82660515D01*
X168677865Y-82736281D01*
X168824234Y-82775500D01*
X168824236Y-82775500D01*
X168975764Y-82775500D01*
X168975766Y-82775500D01*
X169122135Y-82736281D01*
X169253365Y-82660515D01*
X169360515Y-82553365D01*
X169436281Y-82422135D01*
X169475500Y-82275766D01*
X169475500Y-82124234D01*
X169436281Y-81977865D01*
X169360515Y-81846635D01*
X169360513Y-81846633D01*
X169356451Y-81839597D01*
X169358260Y-81838552D01*
X169337077Y-81783745D01*
X169351121Y-81715301D01*
X169399939Y-81665316D01*
X169468032Y-81649658D01*
X169492727Y-81653660D01*
X169574234Y-81675500D01*
X169574237Y-81675500D01*
X169725764Y-81675500D01*
X169725766Y-81675500D01*
X169872135Y-81636281D01*
X169946305Y-81593458D01*
X170014203Y-81576986D01*
X170080230Y-81599838D01*
X170123421Y-81654759D01*
X170130063Y-81724312D01*
X170115691Y-81762846D01*
X170063720Y-81852861D01*
X170063720Y-81852862D01*
X170024500Y-81999234D01*
X170024500Y-82150765D01*
X170063719Y-82297136D01*
X170093800Y-82349236D01*
X170139485Y-82428365D01*
X170246635Y-82535515D01*
X170357093Y-82599288D01*
X170377861Y-82611279D01*
X170377865Y-82611281D01*
X170524234Y-82650500D01*
X170524236Y-82650500D01*
X170675764Y-82650500D01*
X170675766Y-82650500D01*
X170822135Y-82611281D01*
X170842907Y-82599287D01*
X170910806Y-82582813D01*
X170976834Y-82605663D01*
X171012297Y-82644672D01*
X171013718Y-82647134D01*
X171013719Y-82647135D01*
X171089485Y-82778365D01*
X171196635Y-82885515D01*
X171327865Y-82961281D01*
X171474234Y-83000500D01*
X171474236Y-83000500D01*
X171625764Y-83000500D01*
X171625766Y-83000500D01*
X171772135Y-82961281D01*
X171903365Y-82885515D01*
X172010515Y-82778365D01*
X172086281Y-82647135D01*
X172125500Y-82500766D01*
X172125500Y-82349234D01*
X172086281Y-82202865D01*
X172010515Y-82071635D01*
X171903365Y-81964485D01*
X171837750Y-81926602D01*
X171772136Y-81888719D01*
X171698950Y-81869109D01*
X171625766Y-81849500D01*
X171474234Y-81849500D01*
X171327862Y-81888719D01*
X171307088Y-81900714D01*
X171239187Y-81917185D01*
X171173161Y-81894333D01*
X171137702Y-81855326D01*
X171096374Y-81783745D01*
X171060515Y-81721635D01*
X170953365Y-81614485D01*
X170859887Y-81560515D01*
X170822136Y-81538719D01*
X170716871Y-81510514D01*
X170675766Y-81499500D01*
X170524234Y-81499500D01*
X170377865Y-81538719D01*
X170377864Y-81538719D01*
X170377862Y-81538720D01*
X170377861Y-81538720D01*
X170303695Y-81581540D01*
X170235794Y-81598013D01*
X170169768Y-81575160D01*
X170126577Y-81520239D01*
X170119936Y-81450685D01*
X170134309Y-81412152D01*
X170139383Y-81403365D01*
X170186281Y-81322135D01*
X170225500Y-81175766D01*
X170225500Y-81024234D01*
X170186281Y-80877865D01*
X170110515Y-80746635D01*
X170003365Y-80639485D01*
X169916763Y-80589485D01*
X169872136Y-80563719D01*
X169781691Y-80539485D01*
X169725766Y-80524500D01*
X169574234Y-80524500D01*
X169427863Y-80563719D01*
X169296635Y-80639485D01*
X169296632Y-80639487D01*
X169189487Y-80746632D01*
X169189485Y-80746635D01*
X169113719Y-80877863D01*
X169087897Y-80974234D01*
X169074500Y-81024234D01*
X169074500Y-81175766D01*
X169090715Y-81236281D01*
X169113719Y-81322136D01*
X169143800Y-81374236D01*
X169189485Y-81453365D01*
X169189486Y-81453366D01*
X169193549Y-81460403D01*
X169191740Y-81461447D01*
X169212922Y-81516258D01*
X169198876Y-81584702D01*
X169150056Y-81634685D01*
X169081963Y-81650341D01*
X169057263Y-81646336D01*
X168975766Y-81624500D01*
X168824234Y-81624500D01*
X168677863Y-81663719D01*
X168546635Y-81739485D01*
X168546632Y-81739487D01*
X168439487Y-81846632D01*
X168439485Y-81846635D01*
X168363719Y-81977863D01*
X168324500Y-82124234D01*
X158010500Y-82124234D01*
X158010500Y-80974234D01*
X162124500Y-80974234D01*
X162124500Y-81125766D01*
X162133675Y-81160008D01*
X162163719Y-81272136D01*
X162201602Y-81337750D01*
X162239485Y-81403365D01*
X162346635Y-81510515D01*
X162477865Y-81586281D01*
X162624234Y-81625500D01*
X162624236Y-81625500D01*
X162775764Y-81625500D01*
X162775766Y-81625500D01*
X162922135Y-81586281D01*
X163053365Y-81510515D01*
X163112319Y-81451561D01*
X163173642Y-81418076D01*
X163243334Y-81423060D01*
X163287681Y-81451561D01*
X163296635Y-81460515D01*
X163427865Y-81536281D01*
X163574234Y-81575500D01*
X163574236Y-81575500D01*
X163725764Y-81575500D01*
X163725766Y-81575500D01*
X163872135Y-81536281D01*
X164003365Y-81460515D01*
X164110515Y-81353365D01*
X164186281Y-81222135D01*
X164225500Y-81075766D01*
X164225500Y-80924234D01*
X164186281Y-80777865D01*
X164110515Y-80646635D01*
X164003365Y-80539485D01*
X163976950Y-80524234D01*
X171524500Y-80524234D01*
X171524500Y-80675766D01*
X171543488Y-80746632D01*
X171563719Y-80822136D01*
X171567026Y-80827863D01*
X171639485Y-80953365D01*
X171746635Y-81060515D01*
X171877865Y-81136281D01*
X172024234Y-81175500D01*
X172024236Y-81175500D01*
X172175763Y-81175500D01*
X172175766Y-81175500D01*
X172239789Y-81158345D01*
X172309635Y-81160008D01*
X172367497Y-81199170D01*
X172395002Y-81263398D01*
X172391654Y-81310212D01*
X172374500Y-81374232D01*
X172374500Y-81374234D01*
X172374500Y-81525766D01*
X172390715Y-81586281D01*
X172413719Y-81672136D01*
X172444529Y-81725499D01*
X172489485Y-81803365D01*
X172596635Y-81910515D01*
X172727865Y-81986281D01*
X172874234Y-82025500D01*
X172874236Y-82025500D01*
X172929548Y-82025500D01*
X172996587Y-82045185D01*
X173042342Y-82097989D01*
X173052286Y-82167147D01*
X173049323Y-82181589D01*
X173024500Y-82274234D01*
X173024500Y-82425766D01*
X173025197Y-82428367D01*
X173063719Y-82572136D01*
X173079396Y-82599288D01*
X173139485Y-82703365D01*
X173246635Y-82810515D01*
X173360281Y-82876129D01*
X173376536Y-82885514D01*
X173377865Y-82886281D01*
X173524234Y-82925500D01*
X173524236Y-82925500D01*
X173675764Y-82925500D01*
X173675766Y-82925500D01*
X173822135Y-82886281D01*
X173953365Y-82810515D01*
X174060515Y-82703365D01*
X174136281Y-82572135D01*
X174149116Y-82524234D01*
X188174500Y-82524234D01*
X188174500Y-82675766D01*
X188190715Y-82736281D01*
X188213719Y-82822136D01*
X188250310Y-82885512D01*
X188289485Y-82953365D01*
X188396635Y-83060515D01*
X188527865Y-83136281D01*
X188674234Y-83175500D01*
X188674236Y-83175500D01*
X188825764Y-83175500D01*
X188825766Y-83175500D01*
X188972135Y-83136281D01*
X189103365Y-83060515D01*
X189210515Y-82953365D01*
X189286281Y-82822135D01*
X189325500Y-82675766D01*
X189325500Y-82524234D01*
X189286281Y-82377865D01*
X189210515Y-82246635D01*
X189103365Y-82139485D01*
X189031492Y-82097989D01*
X188972136Y-82063719D01*
X188898950Y-82044109D01*
X188825766Y-82024500D01*
X188674234Y-82024500D01*
X188527863Y-82063719D01*
X188396635Y-82139485D01*
X188396632Y-82139487D01*
X188289487Y-82246632D01*
X188289485Y-82246635D01*
X188213719Y-82377863D01*
X188200187Y-82428367D01*
X188174500Y-82524234D01*
X174149116Y-82524234D01*
X174175500Y-82425766D01*
X174175500Y-82274234D01*
X174136281Y-82127865D01*
X174060515Y-81996635D01*
X173953365Y-81889485D01*
X173865147Y-81838552D01*
X173822136Y-81813719D01*
X173710269Y-81783745D01*
X173675766Y-81774500D01*
X173620452Y-81774500D01*
X173553413Y-81754815D01*
X173507658Y-81702011D01*
X173497714Y-81632853D01*
X173500677Y-81618407D01*
X173525500Y-81525766D01*
X173525500Y-81374234D01*
X173486281Y-81227865D01*
X173482973Y-81222136D01*
X173477123Y-81212003D01*
X173460648Y-81144104D01*
X173477123Y-81087997D01*
X173481401Y-81080587D01*
X173486281Y-81072135D01*
X173525500Y-80925766D01*
X173525500Y-80774234D01*
X176624500Y-80774234D01*
X176624500Y-80925766D01*
X176631895Y-80953364D01*
X176663719Y-81072136D01*
X176672877Y-81087997D01*
X176739485Y-81203365D01*
X176846635Y-81310515D01*
X176977865Y-81386281D01*
X177124234Y-81425500D01*
X177124236Y-81425500D01*
X177275764Y-81425500D01*
X177275766Y-81425500D01*
X177422135Y-81386281D01*
X177553365Y-81310515D01*
X177660515Y-81203365D01*
X177736281Y-81072135D01*
X177775500Y-80925766D01*
X177775500Y-80774234D01*
X177736281Y-80627865D01*
X177734185Y-80624234D01*
X178574500Y-80624234D01*
X178574500Y-80775766D01*
X178580091Y-80796632D01*
X178613719Y-80922136D01*
X178651602Y-80987750D01*
X178689485Y-81053365D01*
X178796635Y-81160515D01*
X178927865Y-81236281D01*
X179074234Y-81275500D01*
X179074236Y-81275500D01*
X179225764Y-81275500D01*
X179225766Y-81275500D01*
X179372135Y-81236281D01*
X179503365Y-81160515D01*
X179589646Y-81074234D01*
X180224500Y-81074234D01*
X180224500Y-81225766D01*
X180234583Y-81263398D01*
X180263719Y-81372136D01*
X180281751Y-81403367D01*
X180339485Y-81503365D01*
X180446635Y-81610515D01*
X180577865Y-81686281D01*
X180724234Y-81725500D01*
X180724236Y-81725500D01*
X180875764Y-81725500D01*
X180875766Y-81725500D01*
X181022135Y-81686281D01*
X181153365Y-81610515D01*
X181260515Y-81503365D01*
X181336281Y-81372135D01*
X181375500Y-81225766D01*
X181375500Y-81074234D01*
X181336281Y-80927865D01*
X181260515Y-80796635D01*
X181153365Y-80689485D01*
X181079142Y-80646632D01*
X181022136Y-80613719D01*
X180931691Y-80589485D01*
X180875766Y-80574500D01*
X180724234Y-80574500D01*
X180577863Y-80613719D01*
X180446635Y-80689485D01*
X180446632Y-80689487D01*
X180339487Y-80796632D01*
X180339485Y-80796635D01*
X180263719Y-80927863D01*
X180243290Y-81004107D01*
X180224500Y-81074234D01*
X179589646Y-81074234D01*
X179610515Y-81053365D01*
X179686281Y-80922135D01*
X179725500Y-80775766D01*
X179725500Y-80624234D01*
X179686281Y-80477865D01*
X179610515Y-80346635D01*
X179503365Y-80239485D01*
X179437750Y-80201602D01*
X179372136Y-80163719D01*
X179281691Y-80139485D01*
X179225766Y-80124500D01*
X179074234Y-80124500D01*
X178927863Y-80163719D01*
X178796635Y-80239485D01*
X178796632Y-80239487D01*
X178689487Y-80346632D01*
X178689485Y-80346635D01*
X178613719Y-80477863D01*
X178590715Y-80563719D01*
X178574500Y-80624234D01*
X177734185Y-80624234D01*
X177660515Y-80496635D01*
X177553365Y-80389485D01*
X177479142Y-80346632D01*
X177422136Y-80313719D01*
X177338428Y-80291290D01*
X177275766Y-80274500D01*
X177124234Y-80274500D01*
X176977863Y-80313719D01*
X176846635Y-80389485D01*
X176846632Y-80389487D01*
X176739487Y-80496632D01*
X176739485Y-80496635D01*
X176663719Y-80627863D01*
X176631896Y-80746632D01*
X176624500Y-80774234D01*
X173525500Y-80774234D01*
X173486281Y-80627865D01*
X173483757Y-80623494D01*
X173464122Y-80589485D01*
X173410515Y-80496635D01*
X173303365Y-80389485D01*
X173229142Y-80346632D01*
X173172136Y-80313719D01*
X173088428Y-80291290D01*
X173025766Y-80274500D01*
X172874234Y-80274500D01*
X172727864Y-80313719D01*
X172724534Y-80315099D01*
X172721498Y-80315425D01*
X172720014Y-80315823D01*
X172719951Y-80315591D01*
X172655064Y-80322566D01*
X172592585Y-80291290D01*
X172569696Y-80262537D01*
X172560515Y-80246635D01*
X172453365Y-80139485D01*
X172387750Y-80101602D01*
X172322136Y-80063719D01*
X172248950Y-80044109D01*
X172175766Y-80024500D01*
X172024234Y-80024500D01*
X171877863Y-80063719D01*
X171746635Y-80139485D01*
X171746632Y-80139487D01*
X171639487Y-80246632D01*
X171639485Y-80246635D01*
X171563719Y-80377863D01*
X171551223Y-80424500D01*
X171524500Y-80524234D01*
X163976950Y-80524234D01*
X163929142Y-80496632D01*
X163872136Y-80463719D01*
X163798950Y-80444109D01*
X163725766Y-80424500D01*
X163574234Y-80424500D01*
X163427863Y-80463719D01*
X163296635Y-80539485D01*
X163237679Y-80598440D01*
X163176355Y-80631924D01*
X163106664Y-80626938D01*
X163062318Y-80598438D01*
X163053367Y-80589487D01*
X163053365Y-80589485D01*
X162987750Y-80551602D01*
X162922136Y-80513719D01*
X162788324Y-80477865D01*
X162775766Y-80474500D01*
X162624234Y-80474500D01*
X162477863Y-80513719D01*
X162346635Y-80589485D01*
X162346632Y-80589487D01*
X162239487Y-80696632D01*
X162239485Y-80696635D01*
X162163719Y-80827863D01*
X162138460Y-80922135D01*
X162124500Y-80974234D01*
X158010500Y-80974234D01*
X158010500Y-74462808D01*
X158774500Y-74462808D01*
X158774500Y-74614339D01*
X158813719Y-74760710D01*
X158851602Y-74826324D01*
X158889485Y-74891939D01*
X158996635Y-74999089D01*
X159127865Y-75074855D01*
X159134904Y-75078919D01*
X159133416Y-75081495D01*
X159144739Y-75090614D01*
X159168899Y-75106262D01*
X159171609Y-75112252D01*
X159176732Y-75116378D01*
X159185833Y-75143692D01*
X159197699Y-75169920D01*
X159196740Y-75176425D01*
X159198819Y-75182665D01*
X159191707Y-75210564D01*
X159187510Y-75239043D01*
X159182684Y-75245967D01*
X159181562Y-75250370D01*
X159168323Y-75268667D01*
X159165552Y-75271841D01*
X159117517Y-75319877D01*
X159111602Y-75330123D01*
X159105572Y-75340567D01*
X159105567Y-75340573D01*
X159062817Y-75414619D01*
X159062816Y-75414623D01*
X159034500Y-75520298D01*
X159034500Y-75520300D01*
X159034500Y-75895588D01*
X159030275Y-75927680D01*
X159024500Y-75949232D01*
X159024500Y-75949234D01*
X159024500Y-76100766D01*
X159041368Y-76163719D01*
X159063719Y-76247136D01*
X159085292Y-76284500D01*
X159139485Y-76378365D01*
X159246635Y-76485515D01*
X159377865Y-76561281D01*
X159524234Y-76600500D01*
X159524236Y-76600500D01*
X159675764Y-76600500D01*
X159675766Y-76600500D01*
X159822135Y-76561281D01*
X159953365Y-76485515D01*
X160060515Y-76378365D01*
X160136281Y-76247135D01*
X160175500Y-76100766D01*
X160175500Y-75949234D01*
X160136281Y-75802865D01*
X160136279Y-75802861D01*
X160064333Y-75678247D01*
X160047860Y-75610347D01*
X160070712Y-75544320D01*
X160084033Y-75528572D01*
X160610787Y-75001819D01*
X160637714Y-74987115D01*
X160663533Y-74970523D01*
X160669733Y-74969631D01*
X160672110Y-74968334D01*
X160698468Y-74965500D01*
X160829502Y-74965500D01*
X160896541Y-74985185D01*
X160942296Y-75037989D01*
X160952240Y-75107147D01*
X160939987Y-75145795D01*
X160888918Y-75246021D01*
X160835197Y-75411357D01*
X160835197Y-75411360D01*
X160816633Y-75528566D01*
X160808000Y-75583074D01*
X160808000Y-75756926D01*
X160814152Y-75795765D01*
X160835197Y-75928639D01*
X160835197Y-75928642D01*
X160888918Y-76093978D01*
X160892377Y-76100766D01*
X160967847Y-76248884D01*
X161070035Y-76389533D01*
X161192967Y-76512465D01*
X161333616Y-76614653D01*
X161476649Y-76687532D01*
X161488521Y-76693581D01*
X161653858Y-76747302D01*
X161653859Y-76747302D01*
X161653862Y-76747303D01*
X161825574Y-76774500D01*
X161825575Y-76774500D01*
X161999425Y-76774500D01*
X161999426Y-76774500D01*
X162171138Y-76747303D01*
X162171141Y-76747302D01*
X162171142Y-76747302D01*
X162336478Y-76693581D01*
X162336478Y-76693580D01*
X162336481Y-76693580D01*
X162394205Y-76664167D01*
X162462874Y-76651272D01*
X162527614Y-76677548D01*
X162567872Y-76734654D01*
X162574500Y-76774653D01*
X162574500Y-76875765D01*
X162613719Y-77022136D01*
X162638170Y-77064485D01*
X162689485Y-77153365D01*
X162796635Y-77260515D01*
X162927865Y-77336281D01*
X163074234Y-77375500D01*
X163074236Y-77375500D01*
X163225764Y-77375500D01*
X163225766Y-77375500D01*
X163372135Y-77336281D01*
X163503365Y-77260515D01*
X163610515Y-77153365D01*
X163686281Y-77022135D01*
X163725500Y-76875766D01*
X163725500Y-76724234D01*
X163686281Y-76577865D01*
X163610515Y-76446635D01*
X163503365Y-76339485D01*
X163427181Y-76295500D01*
X163372136Y-76263719D01*
X163255559Y-76232483D01*
X163225766Y-76224500D01*
X163074234Y-76224500D01*
X163066107Y-76224500D01*
X163066107Y-76221451D01*
X163011376Y-76212897D01*
X162959136Y-76166500D01*
X162940273Y-76099224D01*
X162946332Y-76062427D01*
X162989803Y-75928638D01*
X163017000Y-75756926D01*
X163017000Y-75583074D01*
X162989803Y-75411362D01*
X162989802Y-75411358D01*
X162989802Y-75411357D01*
X162936081Y-75246021D01*
X162936080Y-75246019D01*
X162885012Y-75145793D01*
X162872117Y-75077126D01*
X162898393Y-75012386D01*
X162955499Y-74972128D01*
X162995498Y-74965500D01*
X165201532Y-74965500D01*
X165268571Y-74985185D01*
X165289213Y-75001819D01*
X166519877Y-76232483D01*
X166519879Y-76232484D01*
X166519883Y-76232487D01*
X166602392Y-76280123D01*
X166602395Y-76280124D01*
X166614623Y-76287184D01*
X166720298Y-76315500D01*
X169026532Y-76315500D01*
X169093571Y-76335185D01*
X169114213Y-76351819D01*
X169794877Y-77032483D01*
X169889623Y-77087184D01*
X169995298Y-77115500D01*
X169995299Y-77115500D01*
X170104701Y-77115500D01*
X171375258Y-77115500D01*
X171442297Y-77135185D01*
X171462939Y-77151819D01*
X171471635Y-77160515D01*
X171602865Y-77236281D01*
X171749234Y-77275500D01*
X171749236Y-77275500D01*
X171812532Y-77275500D01*
X171879571Y-77295185D01*
X171925326Y-77347989D01*
X171935270Y-77417147D01*
X171906245Y-77480703D01*
X171900213Y-77487181D01*
X171087181Y-78300213D01*
X171025858Y-78333698D01*
X170956166Y-78328714D01*
X170900233Y-78286842D01*
X170875816Y-78221378D01*
X170875500Y-78212532D01*
X170875500Y-78174236D01*
X170875500Y-78174234D01*
X170836281Y-78027865D01*
X170760515Y-77896635D01*
X170653365Y-77789485D01*
X170533534Y-77720300D01*
X170522136Y-77713719D01*
X170448950Y-77694109D01*
X170375766Y-77674500D01*
X170224234Y-77674500D01*
X170077863Y-77713719D01*
X169946635Y-77789485D01*
X169946632Y-77789487D01*
X169839487Y-77896632D01*
X169839480Y-77896641D01*
X169793097Y-77976978D01*
X169742530Y-78025193D01*
X169673922Y-78038415D01*
X169623711Y-78022364D01*
X169575255Y-77994388D01*
X169522136Y-77963719D01*
X169448950Y-77944109D01*
X169375766Y-77924500D01*
X169224234Y-77924500D01*
X169077863Y-77963719D01*
X168946635Y-78039485D01*
X168946632Y-78039487D01*
X168839487Y-78146632D01*
X168839485Y-78146635D01*
X168763270Y-78278642D01*
X168712702Y-78326857D01*
X168644095Y-78340079D01*
X168579231Y-78314111D01*
X168568202Y-78304322D01*
X168553367Y-78289487D01*
X168553365Y-78289485D01*
X168465857Y-78238962D01*
X168422136Y-78213719D01*
X168348950Y-78194109D01*
X168275766Y-78174500D01*
X168124234Y-78174500D01*
X167977863Y-78213719D01*
X167846635Y-78289485D01*
X167846632Y-78289487D01*
X167739487Y-78396632D01*
X167739485Y-78396635D01*
X167663719Y-78527863D01*
X167646064Y-78593754D01*
X167624500Y-78674234D01*
X167624500Y-78825766D01*
X167652002Y-78928409D01*
X167650340Y-78998256D01*
X167611178Y-79056119D01*
X167546949Y-79083623D01*
X167532228Y-79084500D01*
X160773468Y-79084500D01*
X160706429Y-79064815D01*
X160685787Y-79048181D01*
X159876568Y-78238962D01*
X159843083Y-78177639D01*
X159848067Y-78107947D01*
X159889939Y-78052014D01*
X159902241Y-78043898D01*
X160003365Y-77985515D01*
X160110515Y-77878365D01*
X160186281Y-77747135D01*
X160225500Y-77600766D01*
X160225500Y-77449234D01*
X160186281Y-77302865D01*
X160110515Y-77171635D01*
X160003365Y-77064485D01*
X159930013Y-77022135D01*
X159872136Y-76988719D01*
X159798950Y-76969109D01*
X159725766Y-76949500D01*
X159574234Y-76949500D01*
X159427863Y-76988719D01*
X159296635Y-77064485D01*
X159189485Y-77171635D01*
X159161755Y-77219663D01*
X159142051Y-77245342D01*
X158867515Y-77519879D01*
X158830319Y-77584307D01*
X158830318Y-77584309D01*
X158812816Y-77614621D01*
X158802235Y-77654112D01*
X158784500Y-77720298D01*
X158784500Y-78204702D01*
X158804313Y-78278642D01*
X158812525Y-78309290D01*
X158812526Y-78309303D01*
X158812528Y-78309303D01*
X158812814Y-78310372D01*
X158812815Y-78310375D01*
X158862616Y-78396635D01*
X158867517Y-78405123D01*
X160294877Y-79832483D01*
X160389623Y-79887184D01*
X160495298Y-79915500D01*
X160495301Y-79915500D01*
X170529699Y-79915500D01*
X170529702Y-79915500D01*
X170635377Y-79887184D01*
X170730123Y-79832483D01*
X172056533Y-78506073D01*
X172117856Y-78472588D01*
X172187548Y-78477572D01*
X172243481Y-78519444D01*
X172267898Y-78584908D01*
X172268214Y-78593754D01*
X172268214Y-78645653D01*
X172307433Y-78792024D01*
X172331275Y-78833318D01*
X172383199Y-78923253D01*
X172490349Y-79030403D01*
X172621579Y-79106169D01*
X172767948Y-79145388D01*
X172767950Y-79145388D01*
X172919478Y-79145388D01*
X172919480Y-79145388D01*
X173065849Y-79106169D01*
X173197079Y-79030403D01*
X173304229Y-78923253D01*
X173379995Y-78792023D01*
X173419214Y-78645654D01*
X173419214Y-78494122D01*
X173379995Y-78347753D01*
X173304229Y-78216523D01*
X173294617Y-78206911D01*
X192659500Y-78206911D01*
X192659500Y-78333088D01*
X192684112Y-78456819D01*
X192684115Y-78456831D01*
X192732394Y-78573388D01*
X192732396Y-78573392D01*
X192802487Y-78678290D01*
X192802493Y-78678298D01*
X192891701Y-78767506D01*
X192891709Y-78767512D01*
X192996607Y-78837603D01*
X192996611Y-78837605D01*
X193113168Y-78885884D01*
X193113173Y-78885886D01*
X193236911Y-78910499D01*
X193236914Y-78910500D01*
X193236916Y-78910500D01*
X193363086Y-78910500D01*
X193363087Y-78910499D01*
X193486827Y-78885886D01*
X193603390Y-78837604D01*
X193603392Y-78837603D01*
X193655490Y-78802791D01*
X193708295Y-78767509D01*
X193797509Y-78678295D01*
X193832791Y-78625490D01*
X193867603Y-78573392D01*
X193867605Y-78573388D01*
X193889949Y-78519444D01*
X193915886Y-78456827D01*
X193940500Y-78333084D01*
X193940500Y-78206916D01*
X193940500Y-78206913D01*
X193940499Y-78206911D01*
X193934052Y-78174500D01*
X193915886Y-78083173D01*
X193879110Y-77994388D01*
X193867605Y-77966611D01*
X193867603Y-77966607D01*
X193797512Y-77861709D01*
X193797506Y-77861701D01*
X193708298Y-77772493D01*
X193708290Y-77772487D01*
X193603392Y-77702396D01*
X193603388Y-77702394D01*
X193486831Y-77654115D01*
X193486819Y-77654112D01*
X193363087Y-77629500D01*
X193363084Y-77629500D01*
X193236916Y-77629500D01*
X193236913Y-77629500D01*
X193113180Y-77654112D01*
X193113168Y-77654115D01*
X192996611Y-77702394D01*
X192996607Y-77702396D01*
X192891709Y-77772487D01*
X192891701Y-77772493D01*
X192802493Y-77861701D01*
X192802487Y-77861709D01*
X192732396Y-77966607D01*
X192732394Y-77966611D01*
X192684115Y-78083168D01*
X192684112Y-78083180D01*
X192659500Y-78206911D01*
X173294617Y-78206911D01*
X173197079Y-78109373D01*
X173083667Y-78043894D01*
X173065850Y-78033607D01*
X172992664Y-78013997D01*
X172919480Y-77994388D01*
X172867580Y-77994388D01*
X172800541Y-77974703D01*
X172754786Y-77921899D01*
X172744842Y-77852741D01*
X172773867Y-77789185D01*
X172779899Y-77782707D01*
X174918372Y-75644234D01*
X178274500Y-75644234D01*
X178274500Y-75795766D01*
X178276402Y-75802865D01*
X178313719Y-75942136D01*
X178351602Y-76007750D01*
X178389485Y-76073365D01*
X178496635Y-76180515D01*
X178627865Y-76256281D01*
X178774234Y-76295500D01*
X178774236Y-76295500D01*
X178925764Y-76295500D01*
X178925766Y-76295500D01*
X179072135Y-76256281D01*
X179203365Y-76180515D01*
X179310515Y-76073365D01*
X179386281Y-75942135D01*
X179425500Y-75795766D01*
X179425500Y-75644234D01*
X179386281Y-75497865D01*
X179310515Y-75366635D01*
X179203365Y-75259485D01*
X179118632Y-75210564D01*
X179072136Y-75183719D01*
X178998950Y-75164109D01*
X178925766Y-75144500D01*
X178774234Y-75144500D01*
X178627863Y-75183719D01*
X178496635Y-75259485D01*
X178496632Y-75259487D01*
X178389487Y-75366632D01*
X178389485Y-75366635D01*
X178313719Y-75497863D01*
X178283580Y-75610347D01*
X178274500Y-75644234D01*
X174918372Y-75644234D01*
X175014180Y-75548426D01*
X175114425Y-75448181D01*
X175232483Y-75330123D01*
X175287184Y-75235377D01*
X175299928Y-75187816D01*
X175315500Y-75129702D01*
X175315500Y-73574742D01*
X175330331Y-73524234D01*
X176424500Y-73524234D01*
X176424500Y-73675766D01*
X176433374Y-73708884D01*
X176463719Y-73822136D01*
X176479537Y-73849533D01*
X176539485Y-73953365D01*
X176646635Y-74060515D01*
X176777865Y-74136281D01*
X176924234Y-74175500D01*
X176924236Y-74175500D01*
X177075764Y-74175500D01*
X177075766Y-74175500D01*
X177222135Y-74136281D01*
X177329603Y-74074234D01*
X183674500Y-74074234D01*
X183674500Y-74225765D01*
X183713719Y-74372136D01*
X183720938Y-74384639D01*
X183789485Y-74503365D01*
X183896635Y-74610515D01*
X184027865Y-74686281D01*
X184174234Y-74725500D01*
X184174236Y-74725500D01*
X184325764Y-74725500D01*
X184325766Y-74725500D01*
X184472135Y-74686281D01*
X184603365Y-74610515D01*
X184710515Y-74503365D01*
X184786281Y-74372135D01*
X184825500Y-74225766D01*
X184825500Y-74074234D01*
X184786281Y-73927865D01*
X184710515Y-73796635D01*
X184603365Y-73689485D01*
X184537750Y-73651602D01*
X184472136Y-73613719D01*
X184398950Y-73594109D01*
X184325766Y-73574500D01*
X184174234Y-73574500D01*
X184027863Y-73613719D01*
X183896635Y-73689485D01*
X183896632Y-73689487D01*
X183789487Y-73796632D01*
X183789485Y-73796635D01*
X183713719Y-73927863D01*
X183674500Y-74074234D01*
X177329603Y-74074234D01*
X177353365Y-74060515D01*
X177460515Y-73953365D01*
X177536281Y-73822135D01*
X177575500Y-73675766D01*
X177575500Y-73524234D01*
X177536281Y-73377865D01*
X177460515Y-73246635D01*
X177353365Y-73139485D01*
X177276797Y-73095278D01*
X177222136Y-73063719D01*
X177145086Y-73043074D01*
X177075766Y-73024500D01*
X176924234Y-73024500D01*
X176777863Y-73063719D01*
X176646635Y-73139485D01*
X176646632Y-73139487D01*
X176539487Y-73246632D01*
X176539485Y-73246635D01*
X176463719Y-73377863D01*
X176436791Y-73478364D01*
X176424500Y-73524234D01*
X175330331Y-73524234D01*
X175335185Y-73507703D01*
X175339025Y-73502073D01*
X175344821Y-73494058D01*
X175360515Y-73478365D01*
X175436281Y-73347135D01*
X175475500Y-73200766D01*
X175475500Y-73049234D01*
X175468801Y-73024234D01*
X180524500Y-73024234D01*
X180524500Y-73175766D01*
X180535529Y-73216926D01*
X180563719Y-73322136D01*
X180592587Y-73372136D01*
X180639485Y-73453365D01*
X180746635Y-73560515D01*
X180877865Y-73636281D01*
X181024234Y-73675500D01*
X181024236Y-73675500D01*
X181175764Y-73675500D01*
X181175766Y-73675500D01*
X181322135Y-73636281D01*
X181453365Y-73560515D01*
X181560515Y-73453365D01*
X181636281Y-73322135D01*
X181675500Y-73175766D01*
X181675500Y-73024234D01*
X181636281Y-72877865D01*
X181632526Y-72871362D01*
X181626129Y-72860281D01*
X181560515Y-72746635D01*
X181453365Y-72639485D01*
X181365436Y-72588719D01*
X181322136Y-72563719D01*
X181248950Y-72544109D01*
X181175766Y-72524500D01*
X181024234Y-72524500D01*
X180877863Y-72563719D01*
X180746635Y-72639485D01*
X180746632Y-72639487D01*
X180639487Y-72746632D01*
X180639485Y-72746635D01*
X180563719Y-72877863D01*
X180524500Y-73024234D01*
X175468801Y-73024234D01*
X175436281Y-72902865D01*
X175360515Y-72771635D01*
X175253365Y-72664485D01*
X175165436Y-72613719D01*
X175122136Y-72588719D01*
X175048950Y-72569109D01*
X174975766Y-72549500D01*
X174824234Y-72549500D01*
X174677863Y-72588719D01*
X174546635Y-72664485D01*
X174546632Y-72664487D01*
X174439487Y-72771632D01*
X174439485Y-72771635D01*
X174363719Y-72902863D01*
X174357020Y-72927865D01*
X174324500Y-73049234D01*
X174324500Y-73200766D01*
X174344109Y-73273950D01*
X174363719Y-73347136D01*
X174378153Y-73372136D01*
X174439485Y-73478365D01*
X174439487Y-73478367D01*
X174448181Y-73487061D01*
X174481666Y-73548384D01*
X174484500Y-73574742D01*
X174484500Y-74851532D01*
X174464815Y-74918571D01*
X174448181Y-74939213D01*
X172612181Y-76775213D01*
X172550858Y-76808698D01*
X172481166Y-76803714D01*
X172425233Y-76761842D01*
X172400816Y-76696378D01*
X172400500Y-76687532D01*
X172400500Y-76624236D01*
X172400500Y-76624234D01*
X172361281Y-76477865D01*
X172285515Y-76346635D01*
X172178365Y-76239485D01*
X172112750Y-76201602D01*
X172047136Y-76163719D01*
X171973950Y-76144109D01*
X171900766Y-76124500D01*
X171749234Y-76124500D01*
X171602863Y-76163719D01*
X171471635Y-76239485D01*
X171471632Y-76239487D01*
X171462939Y-76248181D01*
X171401616Y-76281666D01*
X171375258Y-76284500D01*
X170273468Y-76284500D01*
X170206429Y-76264815D01*
X170185787Y-76248181D01*
X169505124Y-75567518D01*
X169505123Y-75567517D01*
X169410377Y-75512816D01*
X169410378Y-75512816D01*
X169383958Y-75505737D01*
X169304702Y-75484500D01*
X169304699Y-75484500D01*
X166998468Y-75484500D01*
X166931429Y-75464815D01*
X166910787Y-75448181D01*
X165680124Y-74217518D01*
X165680123Y-74217517D01*
X165585377Y-74162816D01*
X165585378Y-74162816D01*
X165550908Y-74153580D01*
X165479702Y-74134500D01*
X165479699Y-74134500D01*
X162769360Y-74134500D01*
X162702321Y-74114815D01*
X162656566Y-74062011D01*
X162646622Y-73992853D01*
X162675647Y-73929297D01*
X162681679Y-73922819D01*
X162754965Y-73849533D01*
X162857153Y-73708884D01*
X162936080Y-73553981D01*
X162951117Y-73507703D01*
X162989802Y-73388642D01*
X162989802Y-73388641D01*
X162989803Y-73388638D01*
X163017000Y-73216926D01*
X163017000Y-73043074D01*
X162989803Y-72871362D01*
X162989802Y-72871358D01*
X162989802Y-72871357D01*
X162936081Y-72706021D01*
X162936080Y-72706019D01*
X162857153Y-72551116D01*
X162754965Y-72410467D01*
X162632033Y-72287535D01*
X162491384Y-72185347D01*
X162486460Y-72182838D01*
X162336478Y-72106418D01*
X162171141Y-72052697D01*
X162042354Y-72032299D01*
X161999426Y-72025500D01*
X161825574Y-72025500D01*
X161768336Y-72034565D01*
X161653860Y-72052697D01*
X161653857Y-72052697D01*
X161488521Y-72106418D01*
X161333615Y-72185347D01*
X161263513Y-72236280D01*
X161192967Y-72287535D01*
X161192965Y-72287537D01*
X161192964Y-72287537D01*
X161070037Y-72410464D01*
X161070037Y-72410465D01*
X161070035Y-72410467D01*
X161059114Y-72425499D01*
X160967847Y-72551115D01*
X160888918Y-72706021D01*
X160835197Y-72871357D01*
X160835197Y-72871360D01*
X160808000Y-73043074D01*
X160808000Y-73216925D01*
X160835197Y-73388639D01*
X160835197Y-73388642D01*
X160888918Y-73553978D01*
X160956330Y-73686280D01*
X160967847Y-73708884D01*
X161070035Y-73849533D01*
X161070037Y-73849535D01*
X161143321Y-73922819D01*
X161176806Y-73984142D01*
X161171822Y-74053834D01*
X161129950Y-74109767D01*
X161064486Y-74134184D01*
X161055640Y-74134500D01*
X160420298Y-74134500D01*
X160349092Y-74153580D01*
X160349091Y-74153579D01*
X160314627Y-74162814D01*
X160314622Y-74162816D01*
X160219879Y-74217515D01*
X160086239Y-74351155D01*
X160024916Y-74384639D01*
X159955224Y-74379655D01*
X159899291Y-74337783D01*
X159890949Y-74323129D01*
X159890345Y-74323478D01*
X159886280Y-74316437D01*
X159810515Y-74185209D01*
X159703365Y-74078059D01*
X159637750Y-74040176D01*
X159572136Y-74002293D01*
X159483061Y-73978426D01*
X159425766Y-73963074D01*
X159274234Y-73963074D01*
X159216939Y-73978426D01*
X159127863Y-74002293D01*
X158996635Y-74078059D01*
X158996632Y-74078061D01*
X158889487Y-74185206D01*
X158889485Y-74185209D01*
X158813719Y-74316437D01*
X158774500Y-74462808D01*
X158010500Y-74462808D01*
X158010500Y-73074234D01*
X158699500Y-73074234D01*
X158699500Y-73225765D01*
X158738719Y-73372136D01*
X158748249Y-73388642D01*
X158814485Y-73503365D01*
X158921635Y-73610515D01*
X159052865Y-73686281D01*
X159199234Y-73725500D01*
X159199236Y-73725500D01*
X159215541Y-73725500D01*
X159350766Y-73725500D01*
X159497135Y-73686281D01*
X159628365Y-73610515D01*
X159735515Y-73503365D01*
X159811281Y-73372135D01*
X159850500Y-73225766D01*
X159850500Y-73074234D01*
X159811281Y-72927865D01*
X159735515Y-72796635D01*
X159628365Y-72689485D01*
X159562750Y-72651602D01*
X159497136Y-72613719D01*
X159423950Y-72594109D01*
X159350766Y-72574500D01*
X159199234Y-72574500D01*
X159052863Y-72613719D01*
X158921635Y-72689485D01*
X158921632Y-72689487D01*
X158814487Y-72796632D01*
X158814485Y-72796635D01*
X158738719Y-72927863D01*
X158699500Y-73074234D01*
X158010500Y-73074234D01*
X158010500Y-71624234D01*
X158699500Y-71624234D01*
X158699500Y-71775765D01*
X158738719Y-71922136D01*
X158740815Y-71925766D01*
X158814485Y-72053365D01*
X158921635Y-72160515D01*
X159052865Y-72236281D01*
X159199234Y-72275500D01*
X159199236Y-72275500D01*
X159350764Y-72275500D01*
X159350766Y-72275500D01*
X159497135Y-72236281D01*
X159628365Y-72160515D01*
X159735515Y-72053365D01*
X159811281Y-71922135D01*
X159850500Y-71775766D01*
X159850500Y-71724234D01*
X164224500Y-71724234D01*
X164224500Y-71875765D01*
X164263719Y-72022136D01*
X164292587Y-72072136D01*
X164339485Y-72153365D01*
X164446635Y-72260515D01*
X164577865Y-72336281D01*
X164724234Y-72375500D01*
X164724236Y-72375500D01*
X164875764Y-72375500D01*
X164875766Y-72375500D01*
X165022135Y-72336281D01*
X165153365Y-72260515D01*
X165260515Y-72153365D01*
X165336281Y-72022135D01*
X165375500Y-71875766D01*
X165375500Y-71774234D01*
X172424500Y-71774234D01*
X172424500Y-71925765D01*
X172463719Y-72072136D01*
X172501602Y-72137750D01*
X172539485Y-72203365D01*
X172646635Y-72310515D01*
X172777865Y-72386281D01*
X172924234Y-72425500D01*
X172924236Y-72425500D01*
X173075764Y-72425500D01*
X173075766Y-72425500D01*
X173222135Y-72386281D01*
X173353365Y-72310515D01*
X173460515Y-72203365D01*
X173536281Y-72072135D01*
X173575500Y-71925766D01*
X173575500Y-71774234D01*
X173536281Y-71627865D01*
X173523439Y-71605622D01*
X173511792Y-71585448D01*
X173511791Y-71585447D01*
X173505160Y-71573963D01*
X173480686Y-71531573D01*
X186401170Y-71531573D01*
X186401170Y-71683104D01*
X186440389Y-71829475D01*
X186467115Y-71875765D01*
X186516155Y-71960704D01*
X186623305Y-72067854D01*
X186754535Y-72143620D01*
X186900904Y-72182839D01*
X186900906Y-72182839D01*
X187052434Y-72182839D01*
X187052436Y-72182839D01*
X187198805Y-72143620D01*
X187330035Y-72067854D01*
X187437185Y-71960704D01*
X187512951Y-71829474D01*
X187552170Y-71683105D01*
X187552170Y-71531573D01*
X187512951Y-71385204D01*
X187437185Y-71253974D01*
X187330035Y-71146824D01*
X187264420Y-71108941D01*
X187198806Y-71071058D01*
X187125620Y-71051448D01*
X187052436Y-71031839D01*
X186900904Y-71031839D01*
X186754533Y-71071058D01*
X186623305Y-71146824D01*
X186623302Y-71146826D01*
X186516157Y-71253971D01*
X186516155Y-71253974D01*
X186440389Y-71385202D01*
X186401170Y-71531573D01*
X173480686Y-71531573D01*
X173460515Y-71496635D01*
X173353365Y-71389485D01*
X173279142Y-71346632D01*
X173222136Y-71313719D01*
X173148950Y-71294109D01*
X173075766Y-71274500D01*
X172924234Y-71274500D01*
X172777863Y-71313719D01*
X172646635Y-71389485D01*
X172646632Y-71389487D01*
X172539487Y-71496632D01*
X172539485Y-71496635D01*
X172463719Y-71627863D01*
X172424500Y-71774234D01*
X165375500Y-71774234D01*
X165375500Y-71724234D01*
X165336281Y-71577865D01*
X165260515Y-71446635D01*
X165153365Y-71339485D01*
X165087750Y-71301602D01*
X165022136Y-71263719D01*
X164931691Y-71239485D01*
X164875766Y-71224500D01*
X164724234Y-71224500D01*
X164577863Y-71263719D01*
X164446635Y-71339485D01*
X164446632Y-71339487D01*
X164339487Y-71446632D01*
X164339485Y-71446635D01*
X164263719Y-71577863D01*
X164224500Y-71724234D01*
X159850500Y-71724234D01*
X159850500Y-71624234D01*
X159811281Y-71477865D01*
X159735515Y-71346635D01*
X159628365Y-71239485D01*
X159562750Y-71201602D01*
X159497136Y-71163719D01*
X159423950Y-71144109D01*
X159350766Y-71124500D01*
X159199234Y-71124500D01*
X159052863Y-71163719D01*
X158921635Y-71239485D01*
X158921632Y-71239487D01*
X158814487Y-71346632D01*
X158814485Y-71346635D01*
X158738719Y-71477863D01*
X158699500Y-71624234D01*
X158010500Y-71624234D01*
X158010500Y-70149234D01*
X158724500Y-70149234D01*
X158724500Y-70300766D01*
X158733160Y-70333086D01*
X158763719Y-70447136D01*
X158801602Y-70512750D01*
X158839485Y-70578365D01*
X158946635Y-70685515D01*
X159077865Y-70761281D01*
X159224234Y-70800500D01*
X159224236Y-70800500D01*
X159375764Y-70800500D01*
X159375766Y-70800500D01*
X159522135Y-70761281D01*
X159653365Y-70685515D01*
X159760515Y-70578365D01*
X159803984Y-70503074D01*
X160808000Y-70503074D01*
X160808000Y-70676926D01*
X160821361Y-70761280D01*
X160835197Y-70848639D01*
X160835197Y-70848642D01*
X160888918Y-71013978D01*
X160888920Y-71013981D01*
X160967847Y-71168884D01*
X161070035Y-71309533D01*
X161192967Y-71432465D01*
X161333616Y-71534653D01*
X161433305Y-71585447D01*
X161488521Y-71613581D01*
X161653858Y-71667302D01*
X161653859Y-71667302D01*
X161653862Y-71667303D01*
X161825574Y-71694500D01*
X161825575Y-71694500D01*
X161999425Y-71694500D01*
X161999426Y-71694500D01*
X162171138Y-71667303D01*
X162171141Y-71667302D01*
X162171142Y-71667302D01*
X162292528Y-71627861D01*
X162336481Y-71613580D01*
X162352098Y-71605623D01*
X162352100Y-71605622D01*
X162391695Y-71585447D01*
X162491384Y-71534653D01*
X162632033Y-71432465D01*
X162754965Y-71309533D01*
X162857153Y-71168884D01*
X162936080Y-71013981D01*
X162977700Y-70885887D01*
X162989802Y-70848642D01*
X162989802Y-70848641D01*
X162989803Y-70848638D01*
X163017000Y-70676926D01*
X163017000Y-70503074D01*
X162989803Y-70331362D01*
X162989802Y-70331358D01*
X162989802Y-70331357D01*
X162936081Y-70166021D01*
X162929639Y-70153377D01*
X162857153Y-70011116D01*
X162754965Y-69870467D01*
X162710083Y-69825585D01*
X164344500Y-69825585D01*
X164344500Y-69974414D01*
X164373530Y-70120363D01*
X164373533Y-70120372D01*
X164430480Y-70257857D01*
X164430487Y-70257870D01*
X164513163Y-70381602D01*
X164513166Y-70381606D01*
X164618393Y-70486833D01*
X164618397Y-70486836D01*
X164742129Y-70569512D01*
X164742142Y-70569519D01*
X164845255Y-70612229D01*
X164879629Y-70626467D01*
X164879631Y-70626467D01*
X164879636Y-70626469D01*
X165025585Y-70655499D01*
X165025589Y-70655500D01*
X165025590Y-70655500D01*
X165174411Y-70655500D01*
X165174412Y-70655499D01*
X165223063Y-70645822D01*
X165320363Y-70626469D01*
X165320366Y-70626467D01*
X165320371Y-70626467D01*
X165437718Y-70577860D01*
X165457857Y-70569519D01*
X165457857Y-70569518D01*
X165457864Y-70569516D01*
X165581603Y-70486836D01*
X165597317Y-70471122D01*
X165658639Y-70437635D01*
X165728331Y-70442618D01*
X165772683Y-70471122D01*
X165788394Y-70486834D01*
X165788397Y-70486836D01*
X165912129Y-70569512D01*
X165912142Y-70569519D01*
X166015255Y-70612229D01*
X166049629Y-70626467D01*
X166049631Y-70626467D01*
X166049636Y-70626469D01*
X166195585Y-70655499D01*
X166195589Y-70655500D01*
X166195590Y-70655500D01*
X166344411Y-70655500D01*
X166344412Y-70655499D01*
X166393063Y-70645822D01*
X166490363Y-70626469D01*
X166490366Y-70626467D01*
X166490371Y-70626467D01*
X166607718Y-70577860D01*
X166627857Y-70569519D01*
X166627857Y-70569518D01*
X166627864Y-70569516D01*
X166751603Y-70486836D01*
X166856836Y-70381603D01*
X166939516Y-70257864D01*
X166960621Y-70206911D01*
X192659500Y-70206911D01*
X192659500Y-70333088D01*
X192684112Y-70456819D01*
X192684115Y-70456831D01*
X192732394Y-70573388D01*
X192732396Y-70573392D01*
X192802487Y-70678290D01*
X192802493Y-70678298D01*
X192891701Y-70767506D01*
X192891709Y-70767512D01*
X192996607Y-70837603D01*
X192996611Y-70837605D01*
X193113168Y-70885884D01*
X193113173Y-70885886D01*
X193236911Y-70910499D01*
X193236914Y-70910500D01*
X193236916Y-70910500D01*
X193363086Y-70910500D01*
X193363087Y-70910499D01*
X193486827Y-70885886D01*
X193603390Y-70837604D01*
X193603392Y-70837603D01*
X193658922Y-70800499D01*
X193708295Y-70767509D01*
X193797509Y-70678295D01*
X193832791Y-70625490D01*
X193867603Y-70573392D01*
X193867605Y-70573388D01*
X193903456Y-70486836D01*
X193915886Y-70456827D01*
X193940500Y-70333084D01*
X193940500Y-70206916D01*
X193940500Y-70206913D01*
X193940499Y-70206911D01*
X193929850Y-70153377D01*
X193915886Y-70083173D01*
X193886039Y-70011115D01*
X193867605Y-69966611D01*
X193867603Y-69966607D01*
X193797512Y-69861709D01*
X193797506Y-69861701D01*
X193708298Y-69772493D01*
X193708290Y-69772487D01*
X193603392Y-69702396D01*
X193603388Y-69702394D01*
X193486831Y-69654115D01*
X193486819Y-69654112D01*
X193363087Y-69629500D01*
X193363084Y-69629500D01*
X193236916Y-69629500D01*
X193236913Y-69629500D01*
X193113180Y-69654112D01*
X193113168Y-69654115D01*
X192996611Y-69702394D01*
X192996607Y-69702396D01*
X192891709Y-69772487D01*
X192891701Y-69772493D01*
X192802493Y-69861701D01*
X192802487Y-69861709D01*
X192732396Y-69966607D01*
X192732394Y-69966611D01*
X192684115Y-70083168D01*
X192684112Y-70083180D01*
X192659500Y-70206911D01*
X166960621Y-70206911D01*
X166996467Y-70120371D01*
X167025500Y-69974410D01*
X167025500Y-69825590D01*
X167014938Y-69772491D01*
X166996469Y-69679636D01*
X166996466Y-69679627D01*
X166939519Y-69542142D01*
X166939512Y-69542129D01*
X166856836Y-69418397D01*
X166856833Y-69418393D01*
X166751606Y-69313166D01*
X166751602Y-69313163D01*
X166627870Y-69230487D01*
X166627857Y-69230480D01*
X166490372Y-69173533D01*
X166490363Y-69173530D01*
X166344414Y-69144500D01*
X166344410Y-69144500D01*
X166195590Y-69144500D01*
X166195585Y-69144500D01*
X166049636Y-69173530D01*
X166049627Y-69173533D01*
X165912142Y-69230480D01*
X165912129Y-69230487D01*
X165788397Y-69313163D01*
X165788393Y-69313166D01*
X165772681Y-69328879D01*
X165711358Y-69362364D01*
X165641666Y-69357380D01*
X165597319Y-69328879D01*
X165581606Y-69313166D01*
X165581602Y-69313163D01*
X165457870Y-69230487D01*
X165457857Y-69230480D01*
X165320372Y-69173533D01*
X165320363Y-69173530D01*
X165174414Y-69144500D01*
X165174410Y-69144500D01*
X165025590Y-69144500D01*
X165025585Y-69144500D01*
X164879636Y-69173530D01*
X164879627Y-69173533D01*
X164742142Y-69230480D01*
X164742129Y-69230487D01*
X164618397Y-69313163D01*
X164618393Y-69313166D01*
X164513166Y-69418393D01*
X164513163Y-69418397D01*
X164430487Y-69542129D01*
X164430480Y-69542142D01*
X164373533Y-69679627D01*
X164373530Y-69679636D01*
X164344500Y-69825585D01*
X162710083Y-69825585D01*
X162632033Y-69747535D01*
X162491384Y-69645347D01*
X162460283Y-69629500D01*
X162336478Y-69566418D01*
X162171141Y-69512697D01*
X162042354Y-69492299D01*
X161999426Y-69485500D01*
X161825574Y-69485500D01*
X161768336Y-69494565D01*
X161653860Y-69512697D01*
X161653857Y-69512697D01*
X161488521Y-69566418D01*
X161333615Y-69645347D01*
X161286431Y-69679629D01*
X161192967Y-69747535D01*
X161192965Y-69747537D01*
X161192964Y-69747537D01*
X161070037Y-69870464D01*
X161070037Y-69870465D01*
X161070035Y-69870467D01*
X161026149Y-69930869D01*
X160967847Y-70011115D01*
X160888918Y-70166021D01*
X160835197Y-70331357D01*
X160835197Y-70331360D01*
X160818365Y-70437635D01*
X160808000Y-70503074D01*
X159803984Y-70503074D01*
X159836281Y-70447135D01*
X159875500Y-70300766D01*
X159875500Y-70149234D01*
X159836281Y-70002865D01*
X159760515Y-69871635D01*
X159653365Y-69764485D01*
X159587750Y-69726602D01*
X159522136Y-69688719D01*
X159448950Y-69669109D01*
X159375766Y-69649500D01*
X159224234Y-69649500D01*
X159077863Y-69688719D01*
X158946635Y-69764485D01*
X158946632Y-69764487D01*
X158839487Y-69871632D01*
X158839485Y-69871635D01*
X158763719Y-70002863D01*
X158761508Y-70011115D01*
X158724500Y-70149234D01*
X158010500Y-70149234D01*
X158010500Y-68449234D01*
X158624500Y-68449234D01*
X158624500Y-68600765D01*
X158663719Y-68747136D01*
X158701602Y-68812750D01*
X158739485Y-68878365D01*
X158846635Y-68985515D01*
X158977865Y-69061281D01*
X159124234Y-69100500D01*
X159124236Y-69100500D01*
X159275764Y-69100500D01*
X159275766Y-69100500D01*
X159422135Y-69061281D01*
X159553365Y-68985515D01*
X159660515Y-68878365D01*
X159736281Y-68747135D01*
X159775500Y-68600766D01*
X159775500Y-68449234D01*
X159736281Y-68302865D01*
X159718638Y-68272306D01*
X159702166Y-68204410D01*
X159717435Y-68150443D01*
X159722347Y-68141532D01*
X159723015Y-68140865D01*
X159798781Y-68009635D01*
X159802298Y-67996508D01*
X159809578Y-67983303D01*
X159824100Y-67968897D01*
X159834746Y-67951427D01*
X159850243Y-67942964D01*
X159859182Y-67934098D01*
X159871160Y-67931542D01*
X159877595Y-67928028D01*
X159877125Y-67926892D01*
X159884633Y-67923782D01*
X159884635Y-67923781D01*
X160015865Y-67848015D01*
X160123015Y-67740865D01*
X160198781Y-67609635D01*
X160238000Y-67463266D01*
X160238000Y-67311734D01*
X160198781Y-67165365D01*
X160123015Y-67034135D01*
X160015865Y-66926985D01*
X159950250Y-66889102D01*
X159884636Y-66851219D01*
X159811450Y-66831609D01*
X159738266Y-66812000D01*
X159586734Y-66812000D01*
X159440363Y-66851219D01*
X159309135Y-66926985D01*
X159309132Y-66926987D01*
X159201987Y-67034132D01*
X159201985Y-67034135D01*
X159126218Y-67165365D01*
X159123111Y-67172869D01*
X159121549Y-67172222D01*
X159090230Y-67223593D01*
X159047400Y-67246979D01*
X159047869Y-67248111D01*
X159040365Y-67251218D01*
X158909135Y-67326985D01*
X158909132Y-67326987D01*
X158801987Y-67434132D01*
X158801985Y-67434135D01*
X158726219Y-67565363D01*
X158687000Y-67711734D01*
X158687000Y-67863266D01*
X158719164Y-67983303D01*
X158726219Y-68009634D01*
X158726220Y-68009637D01*
X158743860Y-68040190D01*
X158760333Y-68108090D01*
X158741237Y-68163263D01*
X158743548Y-68164597D01*
X158663720Y-68302861D01*
X158663720Y-68302862D01*
X158624500Y-68449234D01*
X158010500Y-68449234D01*
X158010500Y-63278711D01*
X160562000Y-63278711D01*
X160562000Y-63521288D01*
X160593661Y-63761785D01*
X160656447Y-63996104D01*
X160749273Y-64220205D01*
X160749276Y-64220212D01*
X160870564Y-64430289D01*
X160870566Y-64430292D01*
X160870567Y-64430293D01*
X161018233Y-64622736D01*
X161018239Y-64622743D01*
X161189756Y-64794260D01*
X161189762Y-64794265D01*
X161382211Y-64941936D01*
X161592288Y-65063224D01*
X161816400Y-65156054D01*
X162050711Y-65218838D01*
X162231086Y-65242584D01*
X162291211Y-65250500D01*
X162291212Y-65250500D01*
X162533789Y-65250500D01*
X162581888Y-65244167D01*
X162774289Y-65218838D01*
X163008600Y-65156054D01*
X163232712Y-65063224D01*
X163442789Y-64941936D01*
X163596182Y-64824234D01*
X174624500Y-64824234D01*
X174624500Y-64975765D01*
X174663719Y-65122136D01*
X174683301Y-65156052D01*
X174739485Y-65253365D01*
X174846635Y-65360515D01*
X174977865Y-65436281D01*
X175124234Y-65475500D01*
X175124236Y-65475500D01*
X175275764Y-65475500D01*
X175275766Y-65475500D01*
X175422135Y-65436281D01*
X175553365Y-65360515D01*
X175660515Y-65253365D01*
X175736281Y-65122135D01*
X175775500Y-64975766D01*
X175775500Y-64824234D01*
X175736281Y-64677865D01*
X175660515Y-64546635D01*
X175553365Y-64439485D01*
X175487750Y-64401602D01*
X175422136Y-64363719D01*
X175348950Y-64344109D01*
X175275766Y-64324500D01*
X175124234Y-64324500D01*
X174977863Y-64363719D01*
X174846635Y-64439485D01*
X174846632Y-64439487D01*
X174739487Y-64546632D01*
X174739485Y-64546635D01*
X174663719Y-64677863D01*
X174624500Y-64824234D01*
X163596182Y-64824234D01*
X163635238Y-64794265D01*
X163635243Y-64794260D01*
X163701078Y-64728426D01*
X163806760Y-64622743D01*
X163806765Y-64622738D01*
X163954436Y-64430289D01*
X164075724Y-64220212D01*
X164168554Y-63996100D01*
X164231338Y-63761789D01*
X164263000Y-63521288D01*
X164263000Y-63278712D01*
X164263000Y-63278711D01*
X182562000Y-63278711D01*
X182562000Y-63521288D01*
X182593661Y-63761785D01*
X182656447Y-63996104D01*
X182749273Y-64220205D01*
X182749276Y-64220212D01*
X182870564Y-64430289D01*
X182870566Y-64430292D01*
X182870567Y-64430293D01*
X183018233Y-64622736D01*
X183018239Y-64622743D01*
X183189756Y-64794260D01*
X183189762Y-64794265D01*
X183382211Y-64941936D01*
X183592288Y-65063224D01*
X183816400Y-65156054D01*
X184050711Y-65218838D01*
X184231086Y-65242584D01*
X184291211Y-65250500D01*
X184291212Y-65250500D01*
X184533789Y-65250500D01*
X184581888Y-65244167D01*
X184774289Y-65218838D01*
X185008600Y-65156054D01*
X185232712Y-65063224D01*
X185442789Y-64941936D01*
X185635238Y-64794265D01*
X185806765Y-64622738D01*
X185954436Y-64430289D01*
X186075724Y-64220212D01*
X186168554Y-63996100D01*
X186231338Y-63761789D01*
X186263000Y-63521288D01*
X186263000Y-63278712D01*
X186231338Y-63038211D01*
X186168554Y-62803900D01*
X186075724Y-62579788D01*
X185954436Y-62369711D01*
X185806765Y-62177262D01*
X185806760Y-62177256D01*
X185635243Y-62005739D01*
X185635236Y-62005733D01*
X185442793Y-61858067D01*
X185442792Y-61858066D01*
X185442789Y-61858064D01*
X185232712Y-61736776D01*
X185232705Y-61736773D01*
X185008604Y-61643947D01*
X184774285Y-61581161D01*
X184533789Y-61549500D01*
X184533788Y-61549500D01*
X184291212Y-61549500D01*
X184291211Y-61549500D01*
X184050714Y-61581161D01*
X183816395Y-61643947D01*
X183592294Y-61736773D01*
X183592285Y-61736777D01*
X183382206Y-61858067D01*
X183189763Y-62005733D01*
X183189756Y-62005739D01*
X183018239Y-62177256D01*
X183018233Y-62177263D01*
X182870567Y-62369706D01*
X182749277Y-62579785D01*
X182749273Y-62579794D01*
X182656447Y-62803895D01*
X182593661Y-63038214D01*
X182562000Y-63278711D01*
X164263000Y-63278711D01*
X164231338Y-63038211D01*
X164168554Y-62803900D01*
X164075724Y-62579788D01*
X163954436Y-62369711D01*
X163806765Y-62177262D01*
X163806760Y-62177256D01*
X163635243Y-62005739D01*
X163635236Y-62005733D01*
X163442793Y-61858067D01*
X163442792Y-61858066D01*
X163442789Y-61858064D01*
X163232712Y-61736776D01*
X163232705Y-61736773D01*
X163008604Y-61643947D01*
X162774285Y-61581161D01*
X162533789Y-61549500D01*
X162533788Y-61549500D01*
X162291212Y-61549500D01*
X162291211Y-61549500D01*
X162050714Y-61581161D01*
X161816395Y-61643947D01*
X161592294Y-61736773D01*
X161592285Y-61736777D01*
X161382206Y-61858067D01*
X161189763Y-62005733D01*
X161189756Y-62005739D01*
X161018239Y-62177256D01*
X161018233Y-62177263D01*
X160870567Y-62369706D01*
X160749277Y-62579785D01*
X160749273Y-62579794D01*
X160656447Y-62803895D01*
X160593661Y-63038214D01*
X160562000Y-63278711D01*
X158010500Y-63278711D01*
X158010500Y-61074234D01*
X185624500Y-61074234D01*
X185624500Y-61225765D01*
X185663719Y-61372136D01*
X185701602Y-61437750D01*
X185739485Y-61503365D01*
X185846635Y-61610515D01*
X185977865Y-61686281D01*
X186124234Y-61725500D01*
X186124236Y-61725500D01*
X186275764Y-61725500D01*
X186275766Y-61725500D01*
X186422135Y-61686281D01*
X186553365Y-61610515D01*
X186660515Y-61503365D01*
X186736281Y-61372135D01*
X186775500Y-61225766D01*
X186775500Y-61074234D01*
X186736281Y-60927865D01*
X186660515Y-60796635D01*
X186553365Y-60689485D01*
X186487750Y-60651602D01*
X186422136Y-60613719D01*
X186348950Y-60594109D01*
X186275766Y-60574500D01*
X186124234Y-60574500D01*
X185977863Y-60613719D01*
X185846635Y-60689485D01*
X185846632Y-60689487D01*
X185739487Y-60796632D01*
X185739485Y-60796635D01*
X185663719Y-60927863D01*
X185624500Y-61074234D01*
X158010500Y-61074234D01*
X158010500Y-59974234D01*
X181074500Y-59974234D01*
X181074500Y-60125765D01*
X181113719Y-60272136D01*
X181144682Y-60325764D01*
X181189485Y-60403365D01*
X181296635Y-60510515D01*
X181427865Y-60586281D01*
X181574234Y-60625500D01*
X181574236Y-60625500D01*
X181725764Y-60625500D01*
X181725766Y-60625500D01*
X181872135Y-60586281D01*
X182003365Y-60510515D01*
X182110515Y-60403365D01*
X182186281Y-60272135D01*
X182199116Y-60224234D01*
X182824500Y-60224234D01*
X182824500Y-60375765D01*
X182863719Y-60522136D01*
X182893952Y-60574500D01*
X182939485Y-60653365D01*
X183046635Y-60760515D01*
X183177865Y-60836281D01*
X183324234Y-60875500D01*
X183324236Y-60875500D01*
X183475764Y-60875500D01*
X183475766Y-60875500D01*
X183622135Y-60836281D01*
X183753365Y-60760515D01*
X183860515Y-60653365D01*
X183936281Y-60522135D01*
X183975500Y-60375766D01*
X183975500Y-60224234D01*
X183962103Y-60174234D01*
X186724500Y-60174234D01*
X186724500Y-60325765D01*
X186763719Y-60472136D01*
X186792587Y-60522136D01*
X186839485Y-60603365D01*
X186946635Y-60710515D01*
X187077865Y-60786281D01*
X187224234Y-60825500D01*
X187224236Y-60825500D01*
X187375764Y-60825500D01*
X187375766Y-60825500D01*
X187522135Y-60786281D01*
X187653365Y-60710515D01*
X187760515Y-60603365D01*
X187836281Y-60472135D01*
X187875500Y-60325766D01*
X187875500Y-60174234D01*
X187836281Y-60027865D01*
X187760515Y-59896635D01*
X187653365Y-59789485D01*
X187587750Y-59751602D01*
X187522136Y-59713719D01*
X187448950Y-59694109D01*
X187375766Y-59674500D01*
X187224234Y-59674500D01*
X187077863Y-59713719D01*
X186946635Y-59789485D01*
X186946632Y-59789487D01*
X186839487Y-59896632D01*
X186839485Y-59896635D01*
X186763719Y-60027863D01*
X186724500Y-60174234D01*
X183962103Y-60174234D01*
X183936281Y-60077865D01*
X183860515Y-59946635D01*
X183753365Y-59839485D01*
X183687750Y-59801602D01*
X183622136Y-59763719D01*
X183548950Y-59744109D01*
X183475766Y-59724500D01*
X183324234Y-59724500D01*
X183177863Y-59763719D01*
X183046635Y-59839485D01*
X183046632Y-59839487D01*
X182939487Y-59946632D01*
X182939485Y-59946635D01*
X182863719Y-60077863D01*
X182824500Y-60224234D01*
X182199116Y-60224234D01*
X182225500Y-60125766D01*
X182225500Y-59974234D01*
X182186281Y-59827865D01*
X182110515Y-59696635D01*
X182003365Y-59589485D01*
X181886714Y-59522136D01*
X181872136Y-59513719D01*
X181798950Y-59494109D01*
X181725766Y-59474500D01*
X181574234Y-59474500D01*
X181427863Y-59513719D01*
X181296635Y-59589485D01*
X181296632Y-59589487D01*
X181189487Y-59696632D01*
X181189485Y-59696635D01*
X181113719Y-59827863D01*
X181074500Y-59974234D01*
X158010500Y-59974234D01*
X158010500Y-59224234D01*
X174274500Y-59224234D01*
X174274500Y-59375765D01*
X174313719Y-59522136D01*
X174351602Y-59587750D01*
X174389485Y-59653365D01*
X174496635Y-59760515D01*
X174627865Y-59836281D01*
X174774234Y-59875500D01*
X174774236Y-59875500D01*
X174925764Y-59875500D01*
X174925766Y-59875500D01*
X175072135Y-59836281D01*
X175203365Y-59760515D01*
X175310515Y-59653365D01*
X175386281Y-59522135D01*
X175425500Y-59375766D01*
X175425500Y-59224234D01*
X175386281Y-59077865D01*
X175310515Y-58946635D01*
X175203365Y-58839485D01*
X175137750Y-58801602D01*
X175072136Y-58763719D01*
X174998950Y-58744109D01*
X174925766Y-58724500D01*
X174774234Y-58724500D01*
X174627863Y-58763719D01*
X174496635Y-58839485D01*
X174496632Y-58839487D01*
X174389487Y-58946632D01*
X174389485Y-58946635D01*
X174313719Y-59077863D01*
X174274500Y-59224234D01*
X158010500Y-59224234D01*
X158010500Y-55693145D01*
X170854500Y-55693145D01*
X170854500Y-57271863D01*
X170869953Y-57389253D01*
X170869956Y-57389262D01*
X170930464Y-57535341D01*
X171026718Y-57660782D01*
X171152159Y-57757036D01*
X171298238Y-57817544D01*
X171415639Y-57833000D01*
X172994360Y-57832999D01*
X172994363Y-57832999D01*
X173111753Y-57817546D01*
X173111757Y-57817544D01*
X173111762Y-57817544D01*
X173257841Y-57757036D01*
X173383282Y-57660782D01*
X173479536Y-57535341D01*
X173540044Y-57389262D01*
X173555500Y-57271861D01*
X173555499Y-56474234D01*
X186974500Y-56474234D01*
X186974500Y-56625765D01*
X187013719Y-56772136D01*
X187041058Y-56819487D01*
X187089485Y-56903365D01*
X187196635Y-57010515D01*
X187327865Y-57086281D01*
X187474234Y-57125500D01*
X187474236Y-57125500D01*
X187625764Y-57125500D01*
X187625766Y-57125500D01*
X187772135Y-57086281D01*
X187903365Y-57010515D01*
X187921436Y-56992444D01*
X188917500Y-56992444D01*
X188917500Y-57167555D01*
X188944894Y-57340512D01*
X188999004Y-57507049D01*
X188999005Y-57507052D01*
X189077335Y-57660781D01*
X189078505Y-57663077D01*
X189181433Y-57804745D01*
X189305255Y-57928567D01*
X189446923Y-58031495D01*
X189523448Y-58070486D01*
X189602947Y-58110994D01*
X189602950Y-58110995D01*
X189686218Y-58138050D01*
X189769489Y-58165106D01*
X189942444Y-58192500D01*
X189942445Y-58192500D01*
X190117555Y-58192500D01*
X190117556Y-58192500D01*
X190290511Y-58165106D01*
X190457052Y-58110994D01*
X190613077Y-58031495D01*
X190754745Y-57928567D01*
X190878567Y-57804745D01*
X190981495Y-57663077D01*
X191060994Y-57507052D01*
X191115106Y-57340511D01*
X191142500Y-57167556D01*
X191142500Y-56992444D01*
X191115106Y-56819489D01*
X191060994Y-56652948D01*
X191060994Y-56652947D01*
X190981494Y-56496922D01*
X190878567Y-56355255D01*
X190754745Y-56231433D01*
X190613077Y-56128505D01*
X190457052Y-56049005D01*
X190457049Y-56049004D01*
X190290512Y-55994894D01*
X190161751Y-55974500D01*
X190117556Y-55967500D01*
X189942444Y-55967500D01*
X189898249Y-55974500D01*
X189769487Y-55994894D01*
X189602950Y-56049004D01*
X189602947Y-56049005D01*
X189446922Y-56128505D01*
X189366095Y-56187229D01*
X189305255Y-56231433D01*
X189305253Y-56231435D01*
X189305252Y-56231435D01*
X189181435Y-56355252D01*
X189181435Y-56355253D01*
X189181433Y-56355255D01*
X189137229Y-56416095D01*
X189078505Y-56496922D01*
X188999005Y-56652947D01*
X188999004Y-56652950D01*
X188944894Y-56819487D01*
X188917500Y-56992444D01*
X187921436Y-56992444D01*
X188010515Y-56903365D01*
X188086281Y-56772135D01*
X188125500Y-56625766D01*
X188125500Y-56474234D01*
X188086281Y-56327865D01*
X188010515Y-56196635D01*
X187903365Y-56089485D01*
X187833250Y-56049004D01*
X187772136Y-56013719D01*
X187698950Y-55994109D01*
X187625766Y-55974500D01*
X187474234Y-55974500D01*
X187327863Y-56013719D01*
X187196635Y-56089485D01*
X187196632Y-56089487D01*
X187089487Y-56196632D01*
X187089485Y-56196635D01*
X187013719Y-56327863D01*
X186974500Y-56474234D01*
X173555499Y-56474234D01*
X173555499Y-55693140D01*
X173555499Y-55693139D01*
X173555499Y-55693136D01*
X173540046Y-55575746D01*
X173540044Y-55575739D01*
X173540044Y-55575738D01*
X173479536Y-55429659D01*
X173383282Y-55304218D01*
X173345899Y-55275533D01*
X173304697Y-55219105D01*
X173300543Y-55149358D01*
X173333707Y-55089476D01*
X173366698Y-55056485D01*
X173366700Y-55056483D01*
X173418075Y-54951393D01*
X173428002Y-54883260D01*
X173428002Y-54205513D01*
X177729500Y-54205513D01*
X177729500Y-54394486D01*
X177759059Y-54581118D01*
X177817454Y-54760836D01*
X177879833Y-54883260D01*
X177903240Y-54929199D01*
X178014310Y-55082073D01*
X178147927Y-55215690D01*
X178300801Y-55326760D01*
X178363530Y-55358722D01*
X178469163Y-55412545D01*
X178469165Y-55412545D01*
X178469168Y-55412547D01*
X178565497Y-55443846D01*
X178648881Y-55470940D01*
X178835514Y-55500500D01*
X178835519Y-55500500D01*
X179024486Y-55500500D01*
X179211118Y-55470940D01*
X179390832Y-55412547D01*
X179559199Y-55326760D01*
X179712073Y-55215690D01*
X179845690Y-55082073D01*
X179956760Y-54929199D01*
X180042547Y-54760832D01*
X180082069Y-54639195D01*
X180121507Y-54581521D01*
X180185866Y-54554323D01*
X180254712Y-54566238D01*
X180306188Y-54613482D01*
X180317931Y-54639196D01*
X180357454Y-54760836D01*
X180419833Y-54883260D01*
X180443240Y-54929199D01*
X180554310Y-55082073D01*
X180687927Y-55215690D01*
X180840801Y-55326760D01*
X180903530Y-55358722D01*
X181009163Y-55412545D01*
X181009165Y-55412545D01*
X181009168Y-55412547D01*
X181105497Y-55443846D01*
X181188881Y-55470940D01*
X181375514Y-55500500D01*
X181375519Y-55500500D01*
X181564486Y-55500500D01*
X181751118Y-55470940D01*
X181930832Y-55412547D01*
X182099199Y-55326760D01*
X182252073Y-55215690D01*
X182385690Y-55082073D01*
X182496760Y-54929199D01*
X182582547Y-54760832D01*
X182622069Y-54639195D01*
X182661507Y-54581521D01*
X182725866Y-54554323D01*
X182794712Y-54566238D01*
X182846188Y-54613482D01*
X182857931Y-54639196D01*
X182897454Y-54760836D01*
X182959833Y-54883260D01*
X182983240Y-54929199D01*
X183094310Y-55082073D01*
X183227927Y-55215690D01*
X183380801Y-55326760D01*
X183443530Y-55358722D01*
X183549163Y-55412545D01*
X183549165Y-55412545D01*
X183549168Y-55412547D01*
X183645497Y-55443846D01*
X183728881Y-55470940D01*
X183915514Y-55500500D01*
X183915519Y-55500500D01*
X184104486Y-55500500D01*
X184291118Y-55470940D01*
X184470832Y-55412547D01*
X184639199Y-55326760D01*
X184792073Y-55215690D01*
X184925690Y-55082073D01*
X185036760Y-54929199D01*
X185122547Y-54760832D01*
X185180940Y-54581118D01*
X185185184Y-54554323D01*
X185210500Y-54394486D01*
X185210500Y-54205513D01*
X185180940Y-54018881D01*
X185150725Y-53925891D01*
X185143634Y-53904066D01*
X185139858Y-53892444D01*
X188917500Y-53892444D01*
X188917500Y-54067555D01*
X188944894Y-54240512D01*
X188999004Y-54407049D01*
X188999005Y-54407052D01*
X189074045Y-54554323D01*
X189078505Y-54563077D01*
X189181433Y-54704745D01*
X189305255Y-54828567D01*
X189446923Y-54931495D01*
X189464993Y-54940702D01*
X189602947Y-55010994D01*
X189602950Y-55010995D01*
X189686218Y-55038050D01*
X189769489Y-55065106D01*
X189942444Y-55092500D01*
X189942445Y-55092500D01*
X190117555Y-55092500D01*
X190117556Y-55092500D01*
X190290511Y-55065106D01*
X190457052Y-55010994D01*
X190613077Y-54931495D01*
X190754745Y-54828567D01*
X190878567Y-54704745D01*
X190981495Y-54563077D01*
X191060994Y-54407052D01*
X191115106Y-54240511D01*
X191142500Y-54067556D01*
X191142500Y-53998435D01*
X194509500Y-53998435D01*
X194509500Y-54201564D01*
X194541277Y-54402194D01*
X194541277Y-54402197D01*
X194604045Y-54595377D01*
X194604047Y-54595380D01*
X194688351Y-54760836D01*
X194696268Y-54776372D01*
X194815656Y-54940697D01*
X194815660Y-54940702D01*
X194959297Y-55084339D01*
X194959302Y-55084343D01*
X195080220Y-55172194D01*
X195123631Y-55203734D01*
X195264544Y-55275533D01*
X195304622Y-55295954D01*
X195497803Y-55358722D01*
X195497804Y-55358722D01*
X195497807Y-55358723D01*
X195698435Y-55390500D01*
X195698436Y-55390500D01*
X195901564Y-55390500D01*
X195901565Y-55390500D01*
X196102193Y-55358723D01*
X196102196Y-55358722D01*
X196102197Y-55358722D01*
X196295377Y-55295954D01*
X196295377Y-55295953D01*
X196295380Y-55295953D01*
X196476369Y-55203734D01*
X196640704Y-55084338D01*
X196784338Y-54940704D01*
X196903734Y-54776369D01*
X196995953Y-54595380D01*
X197009293Y-54554323D01*
X197058722Y-54402197D01*
X197058722Y-54402196D01*
X197058723Y-54402193D01*
X197090500Y-54201565D01*
X197090500Y-53998435D01*
X197058723Y-53797807D01*
X197058722Y-53797803D01*
X197058722Y-53797802D01*
X196995954Y-53604622D01*
X196995953Y-53604620D01*
X196903734Y-53423631D01*
X196794469Y-53273240D01*
X196784343Y-53259302D01*
X196784339Y-53259297D01*
X196640702Y-53115660D01*
X196640697Y-53115656D01*
X196476372Y-52996268D01*
X196476371Y-52996267D01*
X196476369Y-52996266D01*
X196372838Y-52943514D01*
X196295377Y-52904045D01*
X196102196Y-52841277D01*
X195951722Y-52817444D01*
X195901565Y-52809500D01*
X195698435Y-52809500D01*
X195631559Y-52820092D01*
X195497805Y-52841277D01*
X195497802Y-52841277D01*
X195304622Y-52904045D01*
X195123627Y-52996268D01*
X194959302Y-53115656D01*
X194959297Y-53115660D01*
X194815660Y-53259297D01*
X194815656Y-53259302D01*
X194696268Y-53423627D01*
X194604045Y-53604622D01*
X194541277Y-53797802D01*
X194541277Y-53797805D01*
X194509500Y-53998435D01*
X191142500Y-53998435D01*
X191142500Y-53892444D01*
X191115106Y-53719489D01*
X191060994Y-53552948D01*
X191060994Y-53552947D01*
X190981494Y-53396922D01*
X190878567Y-53255255D01*
X190754745Y-53131433D01*
X190613077Y-53028505D01*
X190457052Y-52949005D01*
X190457049Y-52949004D01*
X190290512Y-52894894D01*
X190204033Y-52881197D01*
X190117556Y-52867500D01*
X189942444Y-52867500D01*
X189884792Y-52876631D01*
X189769487Y-52894894D01*
X189602950Y-52949004D01*
X189602947Y-52949005D01*
X189446922Y-53028505D01*
X189366095Y-53087229D01*
X189305255Y-53131433D01*
X189305253Y-53131435D01*
X189305252Y-53131435D01*
X189181435Y-53255252D01*
X189181435Y-53255253D01*
X189181433Y-53255255D01*
X189178493Y-53259302D01*
X189078505Y-53396922D01*
X188999005Y-53552947D01*
X188999004Y-53552950D01*
X188944894Y-53719487D01*
X188917500Y-53892444D01*
X185139858Y-53892444D01*
X185122547Y-53839168D01*
X185122545Y-53839165D01*
X185122545Y-53839163D01*
X185061568Y-53719489D01*
X185036760Y-53670801D01*
X184925690Y-53517927D01*
X184792073Y-53384310D01*
X184639199Y-53273240D01*
X184611844Y-53259302D01*
X184470836Y-53187454D01*
X184291118Y-53129059D01*
X184104486Y-53099500D01*
X184104481Y-53099500D01*
X183915519Y-53099500D01*
X183915514Y-53099500D01*
X183728881Y-53129059D01*
X183549163Y-53187454D01*
X183380800Y-53273240D01*
X183293579Y-53336610D01*
X183227927Y-53384310D01*
X183227925Y-53384312D01*
X183227924Y-53384312D01*
X183094312Y-53517924D01*
X183094312Y-53517925D01*
X183094310Y-53517927D01*
X183068866Y-53552948D01*
X182983240Y-53670800D01*
X182897454Y-53839163D01*
X182857931Y-53960803D01*
X182818493Y-54018478D01*
X182754134Y-54045676D01*
X182685288Y-54033761D01*
X182633812Y-53986516D01*
X182622069Y-53960803D01*
X182600999Y-53895956D01*
X182582547Y-53839168D01*
X182582545Y-53839165D01*
X182582545Y-53839163D01*
X182521568Y-53719489D01*
X182496760Y-53670801D01*
X182385690Y-53517927D01*
X182252073Y-53384310D01*
X182099199Y-53273240D01*
X182071844Y-53259302D01*
X181930836Y-53187454D01*
X181751118Y-53129059D01*
X181564486Y-53099500D01*
X181564481Y-53099500D01*
X181375519Y-53099500D01*
X181375514Y-53099500D01*
X181188881Y-53129059D01*
X181009163Y-53187454D01*
X180840800Y-53273240D01*
X180753579Y-53336610D01*
X180687927Y-53384310D01*
X180687925Y-53384312D01*
X180687924Y-53384312D01*
X180554312Y-53517924D01*
X180554312Y-53517925D01*
X180554310Y-53517927D01*
X180528866Y-53552948D01*
X180443240Y-53670800D01*
X180357454Y-53839163D01*
X180317931Y-53960803D01*
X180278493Y-54018478D01*
X180214134Y-54045676D01*
X180145288Y-54033761D01*
X180093812Y-53986516D01*
X180082069Y-53960803D01*
X180060999Y-53895956D01*
X180042547Y-53839168D01*
X180042545Y-53839165D01*
X180042545Y-53839163D01*
X179981568Y-53719489D01*
X179956760Y-53670801D01*
X179845690Y-53517927D01*
X179712073Y-53384310D01*
X179559199Y-53273240D01*
X179531844Y-53259302D01*
X179390836Y-53187454D01*
X179211118Y-53129059D01*
X179024486Y-53099500D01*
X179024481Y-53099500D01*
X178835519Y-53099500D01*
X178835514Y-53099500D01*
X178648881Y-53129059D01*
X178469163Y-53187454D01*
X178300800Y-53273240D01*
X178213579Y-53336610D01*
X178147927Y-53384310D01*
X178147925Y-53384312D01*
X178147924Y-53384312D01*
X178014312Y-53517924D01*
X178014312Y-53517925D01*
X178014310Y-53517927D01*
X177988866Y-53552948D01*
X177903240Y-53670800D01*
X177817454Y-53839163D01*
X177759059Y-54018881D01*
X177729500Y-54205513D01*
X173428002Y-54205513D01*
X173428002Y-53116740D01*
X173418075Y-53048607D01*
X173366700Y-52943517D01*
X173366698Y-52943515D01*
X173366698Y-52943514D01*
X173283987Y-52860803D01*
X173178893Y-52809426D01*
X173110763Y-52799500D01*
X173110762Y-52799500D01*
X171344242Y-52799500D01*
X171344241Y-52799500D01*
X171276110Y-52809426D01*
X171171016Y-52860803D01*
X171088305Y-52943514D01*
X171036928Y-53048608D01*
X171027002Y-53116739D01*
X171027002Y-54883260D01*
X171036928Y-54951391D01*
X171088305Y-55056485D01*
X171101758Y-55069938D01*
X171135243Y-55131261D01*
X171130259Y-55200953D01*
X171089564Y-55255994D01*
X171026720Y-55304216D01*
X170930463Y-55429660D01*
X170869956Y-55575737D01*
X170869955Y-55575739D01*
X170854501Y-55693129D01*
X170854501Y-55693136D01*
X170854500Y-55693145D01*
X158010500Y-55693145D01*
X158010500Y-53998435D01*
X158709500Y-53998435D01*
X158709500Y-54201564D01*
X158741277Y-54402194D01*
X158741277Y-54402197D01*
X158804045Y-54595377D01*
X158804047Y-54595380D01*
X158888351Y-54760836D01*
X158896268Y-54776372D01*
X159015656Y-54940697D01*
X159015660Y-54940702D01*
X159159297Y-55084339D01*
X159159302Y-55084343D01*
X159280220Y-55172194D01*
X159323631Y-55203734D01*
X159464544Y-55275533D01*
X159504622Y-55295954D01*
X159697803Y-55358722D01*
X159697804Y-55358722D01*
X159697807Y-55358723D01*
X159898435Y-55390500D01*
X159898436Y-55390500D01*
X160101564Y-55390500D01*
X160101565Y-55390500D01*
X160302193Y-55358723D01*
X160302196Y-55358722D01*
X160302197Y-55358722D01*
X160495377Y-55295954D01*
X160495377Y-55295953D01*
X160495380Y-55295953D01*
X160676369Y-55203734D01*
X160840704Y-55084338D01*
X160984338Y-54940704D01*
X161103734Y-54776369D01*
X161195953Y-54595380D01*
X161209293Y-54554323D01*
X161258722Y-54402197D01*
X161258722Y-54402196D01*
X161258723Y-54402193D01*
X161290500Y-54201565D01*
X161290500Y-53998435D01*
X161258723Y-53797807D01*
X161258722Y-53797803D01*
X161258722Y-53797802D01*
X161195954Y-53604622D01*
X161195953Y-53604620D01*
X161103734Y-53423631D01*
X160994469Y-53273240D01*
X160984343Y-53259302D01*
X160984339Y-53259297D01*
X160840702Y-53115660D01*
X160840697Y-53115656D01*
X160676372Y-52996268D01*
X160676371Y-52996267D01*
X160676369Y-52996266D01*
X160572838Y-52943514D01*
X160495377Y-52904045D01*
X160302196Y-52841277D01*
X160151722Y-52817444D01*
X160101565Y-52809500D01*
X159898435Y-52809500D01*
X159831559Y-52820092D01*
X159697805Y-52841277D01*
X159697802Y-52841277D01*
X159504622Y-52904045D01*
X159323627Y-52996268D01*
X159159302Y-53115656D01*
X159159297Y-53115660D01*
X159015660Y-53259297D01*
X159015656Y-53259302D01*
X158896268Y-53423627D01*
X158804045Y-53604622D01*
X158741277Y-53797802D01*
X158741277Y-53797805D01*
X158709500Y-53998435D01*
X158010500Y-53998435D01*
X158010500Y-53904066D01*
X158010765Y-53895957D01*
X158017198Y-53797802D01*
X158026989Y-53648411D01*
X158029104Y-53632354D01*
X158076709Y-53393033D01*
X158080898Y-53377397D01*
X158159332Y-53146337D01*
X158165529Y-53131375D01*
X158273450Y-52912533D01*
X158281553Y-52898498D01*
X158417116Y-52695614D01*
X158426973Y-52682768D01*
X158587857Y-52499315D01*
X158599315Y-52487857D01*
X158782768Y-52326973D01*
X158795614Y-52317116D01*
X158998498Y-52181553D01*
X159012533Y-52173450D01*
X159231375Y-52065529D01*
X159246337Y-52059332D01*
X159477397Y-51980898D01*
X159493033Y-51976709D01*
X159732354Y-51929104D01*
X159748411Y-51926989D01*
X159972936Y-51912273D01*
X159995958Y-51910765D01*
X160004067Y-51910500D01*
X195995933Y-51910500D01*
X196004042Y-51910765D01*
G37*
%TD.AperFunction*%
%TD*%
M02*
