%TF.GenerationSoftware,KiCad,Pcbnew,9.0.4*%
%TF.CreationDate,2025-12-12T14:24:18+03:00*%
%TF.ProjectId,mini_power_logger,6d696e69-5f70-46f7-9765-725f6c6f6767,rev?*%
%TF.SameCoordinates,Original*%
%TF.FileFunction,Copper,L2,Inr*%
%TF.FilePolarity,Positive*%
%FSLAX46Y46*%
G04 Gerber Fmt 4.6, Leading zero omitted, Abs format (unit mm)*
G04 Created by KiCad (PCBNEW 9.0.4) date 2025-12-12 14:24:18*
%MOMM*%
%LPD*%
G01*
G04 APERTURE LIST*
G04 Aperture macros list*
%AMRoundRect*
0 Rectangle with rounded corners*
0 $1 Rounding radius*
0 $2 $3 $4 $5 $6 $7 $8 $9 X,Y pos of 4 corners*
0 Add a 4 corners polygon primitive as box body*
4,1,4,$2,$3,$4,$5,$6,$7,$8,$9,$2,$3,0*
0 Add four circle primitives for the rounded corners*
1,1,$1+$1,$2,$3*
1,1,$1+$1,$4,$5*
1,1,$1+$1,$6,$7*
1,1,$1+$1,$8,$9*
0 Add four rect primitives between the rounded corners*
20,1,$1+$1,$2,$3,$4,$5,0*
20,1,$1+$1,$4,$5,$6,$7,0*
20,1,$1+$1,$6,$7,$8,$9,0*
20,1,$1+$1,$8,$9,$2,$3,0*%
G04 Aperture macros list end*
%TA.AperFunction,ComponentPad*%
%ADD10R,1.508000X1.508000*%
%TD*%
%TA.AperFunction,ComponentPad*%
%ADD11C,1.508000*%
%TD*%
%TA.AperFunction,ComponentPad*%
%ADD12C,3.000000*%
%TD*%
%TA.AperFunction,ComponentPad*%
%ADD13R,1.700000X1.700000*%
%TD*%
%TA.AperFunction,ComponentPad*%
%ADD14C,1.700000*%
%TD*%
%TA.AperFunction,ComponentPad*%
%ADD15R,2.000000X2.000000*%
%TD*%
%TA.AperFunction,ComponentPad*%
%ADD16C,2.000000*%
%TD*%
%TA.AperFunction,ComponentPad*%
%ADD17C,1.524000*%
%TD*%
%TA.AperFunction,ComponentPad*%
%ADD18RoundRect,0.250000X0.750000X0.750000X-0.750000X0.750000X-0.750000X-0.750000X0.750000X-0.750000X0*%
%TD*%
%TA.AperFunction,HeatsinkPad*%
%ADD19O,2.100000X1.000000*%
%TD*%
%TA.AperFunction,HeatsinkPad*%
%ADD20O,1.800000X1.000000*%
%TD*%
%TA.AperFunction,ComponentPad*%
%ADD21C,0.810000*%
%TD*%
%TA.AperFunction,ViaPad*%
%ADD22C,0.450000*%
%TD*%
%TA.AperFunction,ViaPad*%
%ADD23C,0.600000*%
%TD*%
%TA.AperFunction,Conductor*%
%ADD24C,1.000000*%
%TD*%
%TA.AperFunction,Conductor*%
%ADD25C,0.200000*%
%TD*%
G04 APERTURE END LIST*
D10*
%TO.N,GND*%
%TO.C,U4*%
X161912500Y-78210000D03*
D11*
%TO.N,+3.3V*%
X161912500Y-75670000D03*
%TO.N,/SD Card & Oled Screen/OLED_SCL*%
X161912500Y-73130000D03*
%TO.N,/SD Card & Oled Screen/OLED_SDA*%
X161912500Y-70590000D03*
D12*
%TO.N,N/C*%
X162412500Y-85400000D03*
X162412500Y-63400000D03*
X184412500Y-63400000D03*
X184412500Y-85400000D03*
%TD*%
D13*
%TO.N,/SHUNT_V+*%
%TO.C,J1*%
X165920000Y-106250000D03*
D14*
%TO.N,GND*%
X163380000Y-106250000D03*
%TD*%
D15*
%TO.N,+3.3V*%
%TO.C,BZ1*%
X174800000Y-102700000D03*
D16*
%TO.N,Net-(BZ1--)*%
X179800000Y-102700000D03*
%TD*%
D17*
%TO.N,GND*%
%TO.C,J7*%
X192570000Y-54000000D03*
%TO.N,Net-(J7-Pad2)*%
X190030000Y-53980000D03*
%TD*%
%TO.N,GND*%
%TO.C,J6*%
X192570000Y-57100000D03*
%TO.N,Net-(J6-Pad2)*%
X190030000Y-57080000D03*
%TD*%
D18*
%TO.N,/SHUNT_V+*%
%TO.C,J3*%
X165905000Y-103782500D03*
D16*
%TO.N,GND*%
X162095000Y-103782500D03*
%TD*%
D13*
%TO.N,/SHUNT_V-*%
%TO.C,J1*%
X172227502Y-54000000D03*
D14*
%TO.N,GND*%
X169687502Y-54000000D03*
%TD*%
D19*
%TO.N,GND*%
%TO.C,J8*%
X191585000Y-106720000D03*
D20*
X195765000Y-106720000D03*
D19*
X191585000Y-98080000D03*
D20*
X195765000Y-98080000D03*
%TD*%
D13*
%TO.N,+3.3V*%
%TO.C,J5*%
X160100000Y-92275000D03*
D14*
%TO.N,Net-(J5-Pin_2)*%
X160100000Y-89735000D03*
%TD*%
D18*
%TO.N,/SHUNT_V-*%
%TO.C,J2*%
X172205000Y-56482500D03*
D16*
%TO.N,GND*%
X168395000Y-56482500D03*
%TD*%
D13*
%TO.N,GND*%
%TO.C,J4*%
X176390000Y-54300000D03*
D14*
%TO.N,+3.3V*%
X178930000Y-54300000D03*
%TO.N,/stm32f103/DIO*%
X181470000Y-54300000D03*
%TO.N,/stm32f103/CLK*%
X184010000Y-54300000D03*
%TD*%
D13*
%TO.N,/SHUNT_V+*%
%TO.C,J1*%
X168360000Y-89400000D03*
D14*
%TO.N,/Power/POWER_IN_P*%
X170900000Y-89400000D03*
%TO.N,/USB_PWR*%
X173440000Y-89400000D03*
%TD*%
D21*
%TO.N,Net-(U1-PC14-OSC32_IN)*%
%TO.C,Y1*%
X165100000Y-69900000D03*
%TO.N,Net-(U1-PC15-OSC32_OUT)*%
X166270000Y-69900000D03*
%TD*%
D22*
%TO.N,GND*%
X168075000Y-77300000D03*
X187600000Y-89500000D03*
X187250000Y-57500000D03*
X171000000Y-73750000D03*
X188800000Y-85375000D03*
X177200000Y-65625000D03*
X175150000Y-90500000D03*
X195625000Y-100675000D03*
X182825000Y-99350000D03*
X166475000Y-94250000D03*
X176550000Y-57350000D03*
X187550000Y-91375000D03*
X168200000Y-82475000D03*
X163325000Y-78150000D03*
X163525000Y-66450000D03*
X193100000Y-80225000D03*
X165775000Y-59500000D03*
X186875000Y-99025000D03*
X169475000Y-91175000D03*
X185900000Y-89500000D03*
X174500000Y-68900000D03*
X187625000Y-92925000D03*
X175150000Y-84950000D03*
X193225000Y-100175000D03*
X188125000Y-101175000D03*
X189350000Y-98650000D03*
X171275000Y-71375000D03*
X185925000Y-91375000D03*
X193300000Y-60300000D03*
X185000000Y-87200000D03*
X194750000Y-67350000D03*
X168575000Y-65800000D03*
X183375000Y-65850000D03*
X184575000Y-82300000D03*
X167875000Y-65650000D03*
X175200000Y-88050000D03*
X194600000Y-83150000D03*
X173850000Y-71750000D03*
X168800000Y-87500000D03*
X175125000Y-85825000D03*
X172250000Y-96225000D03*
X180700000Y-75800000D03*
X188825000Y-65650000D03*
X167975000Y-66500000D03*
X172550000Y-73800000D03*
X182800000Y-100725000D03*
X168875000Y-59450000D03*
X170800000Y-85325000D03*
X190200000Y-92925000D03*
X185000000Y-88900000D03*
X188700000Y-92950000D03*
X188125000Y-97250000D03*
X187800000Y-105575000D03*
X172100000Y-82050000D03*
X168775000Y-86050000D03*
%TO.N,+3.3V*%
X187300000Y-60250000D03*
X191950000Y-94450000D03*
X167900000Y-86800000D03*
X191350000Y-95450000D03*
X179150000Y-80700000D03*
X173000000Y-71850000D03*
X178850000Y-75720000D03*
X163150000Y-76800000D03*
X191950000Y-95450000D03*
X191350000Y-95950000D03*
X159262500Y-67787500D03*
X191350000Y-94950000D03*
X186976670Y-71607339D03*
X164800000Y-71800000D03*
X184250000Y-74150000D03*
X159662500Y-67387500D03*
X191350000Y-94450000D03*
X191950000Y-94950000D03*
X183400000Y-60300000D03*
X191950000Y-95950000D03*
X188750000Y-82600000D03*
X170150000Y-97800000D03*
X166700000Y-91750000D03*
X175200000Y-64900000D03*
X187550000Y-56550000D03*
X159200000Y-68525000D03*
X188750000Y-92150000D03*
%TO.N,Net-(U1-NRST)*%
X172843714Y-78569888D03*
X186200000Y-61150000D03*
%TO.N,/stm32f103/BUTTON_1*%
X170300000Y-78250000D03*
%TO.N,/stm32f103/BUTTON_2*%
X169300000Y-78500000D03*
%TO.N,/stm32f103/BUTTON_3*%
X168200000Y-78750000D03*
%TO.N,/SPI2_MISO*%
X171550000Y-82425000D03*
X159275000Y-71700000D03*
%TO.N,/SPI2_SCK*%
X159350000Y-74538574D03*
X172800000Y-85250000D03*
%TO.N,/SPI2_MOSI*%
X159275000Y-73150000D03*
X171800000Y-84975000D03*
%TO.N,/SPI2_CS*%
X171350000Y-86100000D03*
X159300000Y-70225000D03*
D23*
%TO.N,/USB_PWR*%
X184200000Y-97800000D03*
D22*
%TO.N,/stm32f103/CLK*%
X169650000Y-81100000D03*
%TO.N,/stm32f103/DIO*%
X168900000Y-82200000D03*
%TO.N,Net-(U5-SW)*%
X173600000Y-82350000D03*
X177425000Y-85150000D03*
X177463694Y-85711692D03*
X181300000Y-85100000D03*
X181800000Y-85100000D03*
X181300000Y-85600000D03*
X176900000Y-85150000D03*
X181800000Y-85600000D03*
X176950000Y-85675000D03*
%TO.N,Net-(J6-Pad2)*%
X174850000Y-59300000D03*
%TO.N,/Type C Connector/USB2_P*%
X193133629Y-102233548D03*
%TO.N,/Type C Connector/USB2_N*%
X193133629Y-102936548D03*
%TO.N,/SD Card & Oled Screen/SD_SCK*%
X177000000Y-73600000D03*
X181100000Y-73100000D03*
%TO.N,/UART2_RX*%
X159600000Y-76025000D03*
X171825000Y-76700000D03*
%TO.N,/UART2_TX*%
X174900000Y-73125000D03*
X159650000Y-77525000D03*
%TO.N,/Temp. & Power Sensors/SDA*%
X174700000Y-94400000D03*
X172950000Y-81450000D03*
%TO.N,/Temp. & Power Sensors/SCL*%
X167850000Y-96750000D03*
X172950000Y-80850000D03*
%TO.N,/Temp. & Power Sensors/ALERT*%
X173350000Y-97850000D03*
X172100000Y-80600000D03*
%TO.N,Net-(U5-EN)*%
X177200000Y-80850000D03*
X180800000Y-81150000D03*
%TO.N,Net-(J7-Pad2)*%
X181650000Y-60050000D03*
%TO.N,/SD Card & Oled Screen/OLED_SDA*%
X162700000Y-81050000D03*
%TO.N,/SD Card & Oled Screen/OLED_SCL*%
X163650000Y-81000000D03*
%TO.N,/BUZZER_PIN*%
X170600000Y-82075000D03*
X180175000Y-94075000D03*
%TD*%
D24*
%TO.N,+3.3V*%
X191350000Y-60525000D02*
X189825000Y-59000000D01*
X159400000Y-67350000D02*
X159175000Y-67575000D01*
X180406000Y-52824000D02*
X178930000Y-54300000D01*
X159175000Y-67575000D02*
X159175000Y-68175000D01*
X159175000Y-68175000D02*
X159225000Y-68225000D01*
X184621380Y-52824000D02*
X180406000Y-52824000D01*
X189825000Y-59000000D02*
X186650000Y-59000000D01*
X178930000Y-57020000D02*
X168600000Y-67350000D01*
X185650000Y-58000000D02*
X185650000Y-53852620D01*
X168600000Y-67350000D02*
X159400000Y-67350000D01*
X191350000Y-95450000D02*
X191350000Y-60525000D01*
X186650000Y-59000000D02*
X185650000Y-58000000D01*
X178930000Y-54300000D02*
X178930000Y-57020000D01*
X185650000Y-53852620D02*
X184621380Y-52824000D01*
D25*
%TO.N,Net-(U1-NRST)*%
X177850000Y-73700000D02*
X177850000Y-63800000D01*
X177850000Y-63800000D02*
X180500000Y-61150000D01*
X172843714Y-78569888D02*
X172980112Y-78569888D01*
X180500000Y-61150000D02*
X186200000Y-61150000D01*
X172980112Y-78569888D02*
X177850000Y-73700000D01*
%TO.N,/SPI2_MISO*%
X170950000Y-83025000D02*
X171550000Y-82425000D01*
X159275000Y-71075000D02*
X161725000Y-68625000D01*
X159275000Y-71700000D02*
X159275000Y-71075000D01*
X167131038Y-69431038D02*
X167131038Y-82331038D01*
X167131038Y-82331038D02*
X167825000Y-83025000D01*
X161725000Y-68625000D02*
X166325000Y-68625000D01*
X166325000Y-68625000D02*
X167131038Y-69431038D01*
X167825000Y-83025000D02*
X170950000Y-83025000D01*
%TO.N,/SPI2_SCK*%
X159034000Y-79997962D02*
X160711038Y-81675000D01*
X165050000Y-81675000D02*
X167025000Y-83650000D01*
X160711038Y-81675000D02*
X165050000Y-81675000D01*
X171200000Y-83650000D02*
X172800000Y-85250000D01*
X159336426Y-74538574D02*
X159034000Y-74841000D01*
X159034000Y-74841000D02*
X159034000Y-79997962D01*
X167025000Y-83650000D02*
X171200000Y-83650000D01*
X159350000Y-74538574D02*
X159336426Y-74538574D01*
%TO.N,/SPI2_MOSI*%
X164775000Y-82175000D02*
X167275000Y-84675000D01*
X158600000Y-73825000D02*
X158600000Y-80325000D01*
X159275000Y-73150000D02*
X158600000Y-73825000D01*
X171500000Y-84675000D02*
X171800000Y-84975000D01*
X160450000Y-82175000D02*
X164775000Y-82175000D01*
X167275000Y-84675000D02*
X171500000Y-84675000D01*
X158600000Y-80325000D02*
X160450000Y-82175000D01*
%TO.N,/SPI2_CS*%
X170016000Y-86466000D02*
X170984000Y-86466000D01*
X166950000Y-85325000D02*
X168875000Y-85325000D01*
X170984000Y-86466000D02*
X171350000Y-86100000D01*
X158225000Y-80750000D02*
X160125000Y-82650000D01*
X164275000Y-82650000D02*
X166950000Y-85325000D01*
X168875000Y-85325000D02*
X170016000Y-86466000D01*
X160125000Y-82650000D02*
X164275000Y-82650000D01*
X159300000Y-70225000D02*
X158225000Y-71300000D01*
X158225000Y-71300000D02*
X158225000Y-80750000D01*
%TO.N,/stm32f103/CLK*%
X176549000Y-74201000D02*
X176549000Y-63801000D01*
X176549000Y-63801000D02*
X184010000Y-56340000D01*
X184010000Y-56340000D02*
X184010000Y-54300000D01*
X169650000Y-81100000D02*
X176549000Y-74201000D01*
%TO.N,/stm32f103/DIO*%
X175650000Y-73950000D02*
X175650000Y-63300000D01*
X181470000Y-57480000D02*
X181470000Y-54300000D01*
X175650000Y-63300000D02*
X181470000Y-57480000D01*
X168900000Y-82200000D02*
X168850000Y-82150000D01*
X168850000Y-80750000D02*
X175650000Y-73950000D01*
X168850000Y-82150000D02*
X168850000Y-80750000D01*
%TO.N,/Temp. & Power Sensors/SDA*%
X174200000Y-81450000D02*
X174575000Y-81825000D01*
X172950000Y-81450000D02*
X174200000Y-81450000D01*
X174575000Y-94275000D02*
X174700000Y-94400000D01*
X174575000Y-81825000D02*
X174575000Y-94275000D01*
%TO.N,/Temp. & Power Sensors/SCL*%
X173050000Y-80750000D02*
X175400000Y-80750000D01*
X174550000Y-96750000D02*
X167850000Y-96750000D01*
X175400000Y-80750000D02*
X175750000Y-81100000D01*
X172950000Y-80850000D02*
X173050000Y-80750000D01*
X175750000Y-81100000D02*
X175750000Y-95550000D01*
X175750000Y-95550000D02*
X174550000Y-96750000D01*
%TO.N,/Temp. & Power Sensors/ALERT*%
X175750000Y-80050000D02*
X172650000Y-80050000D01*
X173350000Y-97850000D02*
X174150000Y-97850000D01*
X174150000Y-97850000D02*
X176400000Y-95600000D01*
X172650000Y-80050000D02*
X172100000Y-80600000D01*
X176400000Y-80700000D02*
X175750000Y-80050000D01*
X176400000Y-95600000D02*
X176400000Y-80700000D01*
%TO.N,/SD Card & Oled Screen/OLED_SDA*%
X162700000Y-81050000D02*
X162650000Y-81100000D01*
X160125000Y-72377500D02*
X161912500Y-70590000D01*
X160125000Y-80175000D02*
X160125000Y-72377500D01*
X162650000Y-81100000D02*
X161050000Y-81100000D01*
X161050000Y-81100000D02*
X160125000Y-80175000D01*
%TO.N,/SD Card & Oled Screen/OLED_SCL*%
X160500000Y-79950000D02*
X160900000Y-80350000D01*
X160900000Y-80350000D02*
X162950000Y-80350000D01*
X163600000Y-81000000D02*
X163650000Y-81000000D01*
X162950000Y-80350000D02*
X163600000Y-81000000D01*
X161912500Y-73130000D02*
X160500000Y-74542500D01*
X160500000Y-74542500D02*
X160500000Y-79950000D01*
%TO.N,/BUZZER_PIN*%
X166975000Y-96125000D02*
X172150000Y-90950000D01*
X172763189Y-82075378D02*
X172187811Y-81500000D01*
X172763189Y-82588189D02*
X172763189Y-82075378D01*
X173250000Y-83075000D02*
X172763189Y-82588189D01*
X172150000Y-88375000D02*
X173250000Y-87275000D01*
X166975000Y-98500000D02*
X166975000Y-96125000D01*
X180175000Y-94075000D02*
X174850000Y-99400000D01*
X174850000Y-99400000D02*
X167875000Y-99400000D01*
X172187811Y-81500000D02*
X171175000Y-81500000D01*
X171175000Y-81500000D02*
X170600000Y-82075000D01*
X167875000Y-99400000D02*
X166975000Y-98500000D01*
X172150000Y-90950000D02*
X172150000Y-88375000D01*
X173250000Y-87275000D02*
X173250000Y-83075000D01*
%TD*%
%TA.AperFunction,Conductor*%
%TO.N,GND*%
G36*
X197893039Y-97869685D02*
G01*
X197938794Y-97922489D01*
X197950000Y-97974000D01*
X197950000Y-106260481D01*
X197947617Y-106284673D01*
X197923294Y-106406951D01*
X197919096Y-106422617D01*
X197840671Y-106653650D01*
X197834464Y-106668636D01*
X197726552Y-106887460D01*
X197718442Y-106901507D01*
X197582891Y-107104373D01*
X197573017Y-107117241D01*
X197412147Y-107300678D01*
X197400678Y-107312147D01*
X197217241Y-107473017D01*
X197204373Y-107482891D01*
X197001507Y-107618442D01*
X196987460Y-107626552D01*
X196768636Y-107734464D01*
X196753649Y-107740671D01*
X196598259Y-107793419D01*
X196558402Y-107800000D01*
X189224000Y-107800000D01*
X189156961Y-107780315D01*
X189111206Y-107727511D01*
X189100000Y-107676000D01*
X189100000Y-105222133D01*
X191569500Y-105222133D01*
X191569500Y-105357867D01*
X191604631Y-105488975D01*
X191604632Y-105488978D01*
X191672495Y-105606520D01*
X191672497Y-105606522D01*
X191672498Y-105606524D01*
X191768476Y-105702502D01*
X191768477Y-105702503D01*
X191768479Y-105702504D01*
X191886021Y-105770367D01*
X191886022Y-105770367D01*
X191886025Y-105770369D01*
X192017133Y-105805500D01*
X192017135Y-105805500D01*
X192152865Y-105805500D01*
X192152867Y-105805500D01*
X192283975Y-105770369D01*
X192401524Y-105702502D01*
X192497502Y-105606524D01*
X192565369Y-105488975D01*
X192600500Y-105357867D01*
X192600500Y-105222133D01*
X192565369Y-105091025D01*
X192497502Y-104973476D01*
X192401524Y-104877498D01*
X192401522Y-104877497D01*
X192401520Y-104877495D01*
X192283978Y-104809632D01*
X192283979Y-104809632D01*
X192268484Y-104805480D01*
X192152867Y-104774500D01*
X192017133Y-104774500D01*
X191901515Y-104805480D01*
X191886021Y-104809632D01*
X191768479Y-104877495D01*
X191768473Y-104877500D01*
X191672500Y-104973473D01*
X191672495Y-104973479D01*
X191604632Y-105091021D01*
X191604631Y-105091025D01*
X191569500Y-105222133D01*
X189100000Y-105222133D01*
X189100000Y-102164365D01*
X192608129Y-102164365D01*
X192608129Y-102302730D01*
X192643941Y-102436383D01*
X192643941Y-102436384D01*
X192693976Y-102523049D01*
X192710447Y-102590950D01*
X192693976Y-102647047D01*
X192643941Y-102733711D01*
X192643941Y-102733712D01*
X192608129Y-102867365D01*
X192608129Y-103005730D01*
X192643941Y-103139383D01*
X192643942Y-103139386D01*
X192713121Y-103259209D01*
X192713123Y-103259212D01*
X192713124Y-103259213D01*
X192810964Y-103357053D01*
X192930793Y-103426236D01*
X193064446Y-103462048D01*
X193064448Y-103462048D01*
X193202810Y-103462048D01*
X193202812Y-103462048D01*
X193336465Y-103426236D01*
X193456294Y-103357053D01*
X193554134Y-103259213D01*
X193623317Y-103139384D01*
X193659129Y-103005731D01*
X193659129Y-102867365D01*
X193623317Y-102733712D01*
X193573282Y-102647048D01*
X193556809Y-102579147D01*
X193573282Y-102523048D01*
X193585149Y-102502492D01*
X193623317Y-102436384D01*
X193659129Y-102302731D01*
X193659129Y-102164365D01*
X193623317Y-102030712D01*
X193554134Y-101910883D01*
X193456294Y-101813043D01*
X193456293Y-101813042D01*
X193456290Y-101813040D01*
X193336467Y-101743861D01*
X193336466Y-101743860D01*
X193336465Y-101743860D01*
X193202812Y-101708048D01*
X193064446Y-101708048D01*
X192930793Y-101743860D01*
X192930790Y-101743861D01*
X192810967Y-101813040D01*
X192810962Y-101813044D01*
X192713125Y-101910881D01*
X192713121Y-101910886D01*
X192643942Y-102030709D01*
X192643941Y-102030712D01*
X192608129Y-102164365D01*
X189100000Y-102164365D01*
X189100000Y-99442133D01*
X191569500Y-99442133D01*
X191569500Y-99577867D01*
X191604631Y-99708975D01*
X191604632Y-99708978D01*
X191672495Y-99826520D01*
X191672497Y-99826522D01*
X191672498Y-99826524D01*
X191768476Y-99922502D01*
X191768477Y-99922503D01*
X191768479Y-99922504D01*
X191886021Y-99990367D01*
X191886022Y-99990367D01*
X191886025Y-99990369D01*
X192017133Y-100025500D01*
X192017135Y-100025500D01*
X192152865Y-100025500D01*
X192152867Y-100025500D01*
X192283975Y-99990369D01*
X192401524Y-99922502D01*
X192497502Y-99826524D01*
X192565369Y-99708975D01*
X192600500Y-99577867D01*
X192600500Y-99442133D01*
X192565369Y-99311025D01*
X192497502Y-99193476D01*
X192401524Y-99097498D01*
X192401522Y-99097497D01*
X192401520Y-99097495D01*
X192283978Y-99029632D01*
X192283979Y-99029632D01*
X192268484Y-99025480D01*
X192152867Y-98994500D01*
X192017133Y-98994500D01*
X191901515Y-99025480D01*
X191886021Y-99029632D01*
X191768479Y-99097495D01*
X191768473Y-99097500D01*
X191672500Y-99193473D01*
X191672495Y-99193479D01*
X191604632Y-99311021D01*
X191604631Y-99311025D01*
X191569500Y-99442133D01*
X189100000Y-99442133D01*
X189100000Y-97974000D01*
X189119685Y-97906961D01*
X189172489Y-97861206D01*
X189224000Y-97850000D01*
X197826000Y-97850000D01*
X197893039Y-97869685D01*
G37*
%TD.AperFunction*%
%TD*%
%TA.AperFunction,Conductor*%
%TO.N,+3.3V*%
G36*
X196598254Y-52006579D02*
G01*
X196753670Y-52059335D01*
X196768629Y-52065532D01*
X196983293Y-52171392D01*
X196987460Y-52173447D01*
X197001507Y-52181557D01*
X197204377Y-52317111D01*
X197217241Y-52326982D01*
X197400678Y-52487852D01*
X197412147Y-52499321D01*
X197573017Y-52682758D01*
X197582891Y-52695626D01*
X197718442Y-52898492D01*
X197726552Y-52912539D01*
X197834464Y-53131363D01*
X197840671Y-53146349D01*
X197919096Y-53377382D01*
X197923293Y-53393047D01*
X197925698Y-53405135D01*
X197970893Y-53632340D01*
X197973011Y-53648422D01*
X197989235Y-53895956D01*
X197989500Y-53904066D01*
X197989500Y-97076000D01*
X197969815Y-97143039D01*
X197917011Y-97188794D01*
X197865500Y-97200000D01*
X196587865Y-97200000D01*
X196520826Y-97180315D01*
X196475071Y-97127511D01*
X196465127Y-97058353D01*
X196494152Y-96994797D01*
X196514980Y-96975682D01*
X196640698Y-96884343D01*
X196640700Y-96884340D01*
X196640704Y-96884338D01*
X196784338Y-96740704D01*
X196903734Y-96576369D01*
X196995953Y-96395380D01*
X197058723Y-96202193D01*
X197090500Y-96001565D01*
X197090500Y-95798435D01*
X197058723Y-95597807D01*
X197058722Y-95597803D01*
X197058722Y-95597802D01*
X196995954Y-95404622D01*
X196985501Y-95384107D01*
X196903734Y-95223631D01*
X196888480Y-95202635D01*
X196784343Y-95059302D01*
X196784339Y-95059297D01*
X196640702Y-94915660D01*
X196640697Y-94915656D01*
X196476372Y-94796268D01*
X196476371Y-94796267D01*
X196476369Y-94796266D01*
X196331912Y-94722661D01*
X196295377Y-94704045D01*
X196102196Y-94641277D01*
X195951722Y-94617444D01*
X195901565Y-94609500D01*
X195698435Y-94609500D01*
X195631559Y-94620092D01*
X195497805Y-94641277D01*
X195497802Y-94641277D01*
X195304622Y-94704045D01*
X195123627Y-94796268D01*
X194959302Y-94915656D01*
X194959297Y-94915660D01*
X194815660Y-95059297D01*
X194815656Y-95059302D01*
X194696268Y-95223627D01*
X194604045Y-95404622D01*
X194541277Y-95597802D01*
X194541277Y-95597805D01*
X194509500Y-95798435D01*
X194509500Y-96001564D01*
X194541277Y-96202194D01*
X194541277Y-96202197D01*
X194604045Y-96395377D01*
X194696268Y-96576372D01*
X194815656Y-96740697D01*
X194815660Y-96740702D01*
X194959301Y-96884343D01*
X195085020Y-96975682D01*
X195127686Y-97031011D01*
X195133665Y-97100625D01*
X195101060Y-97162420D01*
X195040221Y-97196777D01*
X195012135Y-97200000D01*
X188750788Y-97200000D01*
X188683749Y-97180315D01*
X188637994Y-97127511D01*
X188631016Y-97108101D01*
X188614688Y-97047164D01*
X188545505Y-96927335D01*
X188447665Y-96829495D01*
X188447664Y-96829494D01*
X188447661Y-96829492D01*
X188327838Y-96760313D01*
X188327837Y-96760312D01*
X188327836Y-96760312D01*
X188194183Y-96724500D01*
X188055817Y-96724500D01*
X187922164Y-96760312D01*
X187922161Y-96760313D01*
X187802338Y-96829492D01*
X187802333Y-96829496D01*
X187704496Y-96927333D01*
X187704492Y-96927338D01*
X187635313Y-97047161D01*
X187635312Y-97047164D01*
X187599500Y-97180817D01*
X187599500Y-97319183D01*
X187610521Y-97360312D01*
X187635312Y-97452835D01*
X187635313Y-97452838D01*
X187704492Y-97572661D01*
X187704494Y-97572664D01*
X187704495Y-97572665D01*
X187802335Y-97670505D01*
X187922164Y-97739688D01*
X188055817Y-97775500D01*
X188055819Y-97775500D01*
X188194180Y-97775500D01*
X188194183Y-97775500D01*
X188243908Y-97762176D01*
X188313756Y-97763839D01*
X188371619Y-97803001D01*
X188399123Y-97867230D01*
X188400000Y-97881951D01*
X188400000Y-100543048D01*
X188380315Y-100610087D01*
X188327511Y-100655842D01*
X188258353Y-100665786D01*
X188243908Y-100662823D01*
X188194184Y-100649500D01*
X188194183Y-100649500D01*
X188055817Y-100649500D01*
X187922164Y-100685312D01*
X187922161Y-100685313D01*
X187802338Y-100754492D01*
X187802333Y-100754496D01*
X187704496Y-100852333D01*
X187704492Y-100852338D01*
X187635313Y-100972161D01*
X187635312Y-100972164D01*
X187599500Y-101105817D01*
X187599500Y-101244183D01*
X187601193Y-101250499D01*
X187635312Y-101377835D01*
X187635313Y-101377838D01*
X187704492Y-101497661D01*
X187704494Y-101497664D01*
X187704495Y-101497665D01*
X187802335Y-101595505D01*
X187922164Y-101664688D01*
X188055817Y-101700500D01*
X188055819Y-101700500D01*
X188194180Y-101700500D01*
X188194183Y-101700500D01*
X188243908Y-101687176D01*
X188313756Y-101688839D01*
X188371619Y-101728001D01*
X188399123Y-101792230D01*
X188400000Y-101806951D01*
X188400000Y-105132468D01*
X188380315Y-105199507D01*
X188327511Y-105245262D01*
X188258353Y-105255206D01*
X188194797Y-105226181D01*
X188188319Y-105220149D01*
X188122666Y-105154496D01*
X188122661Y-105154492D01*
X188002838Y-105085313D01*
X188002837Y-105085312D01*
X188002836Y-105085312D01*
X187869183Y-105049500D01*
X187730817Y-105049500D01*
X187597164Y-105085312D01*
X187597161Y-105085313D01*
X187477338Y-105154492D01*
X187477333Y-105154496D01*
X187379496Y-105252333D01*
X187379492Y-105252338D01*
X187310313Y-105372161D01*
X187310312Y-105372164D01*
X187274500Y-105505817D01*
X187274500Y-105644182D01*
X187310312Y-105777835D01*
X187310313Y-105777838D01*
X187379492Y-105897661D01*
X187379494Y-105897664D01*
X187379495Y-105897665D01*
X187477335Y-105995505D01*
X187597164Y-106064688D01*
X187730817Y-106100500D01*
X187730819Y-106100500D01*
X187869181Y-106100500D01*
X187869183Y-106100500D01*
X188002836Y-106064688D01*
X188122665Y-105995505D01*
X188188319Y-105929851D01*
X188249642Y-105896366D01*
X188319334Y-105901350D01*
X188375267Y-105943222D01*
X188399684Y-106008686D01*
X188400000Y-106017532D01*
X188400000Y-107648638D01*
X188391355Y-107678078D01*
X188384832Y-107708065D01*
X188381077Y-107713080D01*
X188380315Y-107715677D01*
X188363681Y-107736319D01*
X188336319Y-107763681D01*
X188274996Y-107797166D01*
X188248638Y-107800000D01*
X169624000Y-107800000D01*
X169556961Y-107780315D01*
X169511206Y-107727511D01*
X169500000Y-107676000D01*
X169500000Y-102597648D01*
X178499500Y-102597648D01*
X178499500Y-102802351D01*
X178531522Y-103004534D01*
X178594781Y-103199223D01*
X178687715Y-103381613D01*
X178808028Y-103547213D01*
X178952786Y-103691971D01*
X179107749Y-103804556D01*
X179118390Y-103812287D01*
X179234607Y-103871503D01*
X179300776Y-103905218D01*
X179300778Y-103905218D01*
X179300781Y-103905220D01*
X179405137Y-103939127D01*
X179495465Y-103968477D01*
X179596557Y-103984488D01*
X179697648Y-104000500D01*
X179697649Y-104000500D01*
X179902351Y-104000500D01*
X179902352Y-104000500D01*
X180104534Y-103968477D01*
X180299219Y-103905220D01*
X180481610Y-103812287D01*
X180574590Y-103744732D01*
X180647213Y-103691971D01*
X180647215Y-103691968D01*
X180647219Y-103691966D01*
X180791966Y-103547219D01*
X180791968Y-103547215D01*
X180791971Y-103547213D01*
X180844732Y-103474590D01*
X180912287Y-103381610D01*
X181005220Y-103199219D01*
X181068477Y-103004534D01*
X181100500Y-102802352D01*
X181100500Y-102597648D01*
X181068477Y-102395466D01*
X181005220Y-102200781D01*
X181005218Y-102200778D01*
X181005218Y-102200776D01*
X180971503Y-102134607D01*
X180912287Y-102018390D01*
X180904556Y-102007749D01*
X180791971Y-101852786D01*
X180647213Y-101708028D01*
X180481613Y-101587715D01*
X180481612Y-101587714D01*
X180481610Y-101587713D01*
X180424653Y-101558691D01*
X180299223Y-101494781D01*
X180104534Y-101431522D01*
X179929995Y-101403878D01*
X179902352Y-101399500D01*
X179697648Y-101399500D01*
X179673329Y-101403351D01*
X179495465Y-101431522D01*
X179300776Y-101494781D01*
X179118386Y-101587715D01*
X178952786Y-101708028D01*
X178808028Y-101852786D01*
X178687715Y-102018386D01*
X178594781Y-102200776D01*
X178531522Y-102395465D01*
X178499500Y-102597648D01*
X169500000Y-102597648D01*
X169500000Y-100655817D01*
X182274500Y-100655817D01*
X182274500Y-100794183D01*
X182290083Y-100852338D01*
X182310312Y-100927835D01*
X182310313Y-100927838D01*
X182379492Y-101047661D01*
X182379494Y-101047664D01*
X182379495Y-101047665D01*
X182477335Y-101145505D01*
X182597164Y-101214688D01*
X182730817Y-101250500D01*
X182730819Y-101250500D01*
X182869181Y-101250500D01*
X182869183Y-101250500D01*
X183002836Y-101214688D01*
X183122665Y-101145505D01*
X183220505Y-101047665D01*
X183289688Y-100927836D01*
X183325500Y-100794183D01*
X183325500Y-100655817D01*
X183289688Y-100522164D01*
X183220505Y-100402335D01*
X183122665Y-100304495D01*
X183122664Y-100304494D01*
X183122661Y-100304492D01*
X183002838Y-100235313D01*
X183002837Y-100235312D01*
X183002836Y-100235312D01*
X182869183Y-100199500D01*
X182730817Y-100199500D01*
X182597164Y-100235312D01*
X182597161Y-100235313D01*
X182477338Y-100304492D01*
X182477333Y-100304496D01*
X182379496Y-100402333D01*
X182379492Y-100402338D01*
X182310313Y-100522161D01*
X182310312Y-100522164D01*
X182274500Y-100655817D01*
X169500000Y-100655817D01*
X169500000Y-99924500D01*
X169519685Y-99857461D01*
X169572489Y-99811706D01*
X169624000Y-99800500D01*
X174902725Y-99800500D01*
X174902727Y-99800500D01*
X175004588Y-99773207D01*
X175095913Y-99720480D01*
X175535576Y-99280817D01*
X182299500Y-99280817D01*
X182299500Y-99419183D01*
X182325091Y-99514688D01*
X182335312Y-99552835D01*
X182335313Y-99552838D01*
X182404492Y-99672661D01*
X182404494Y-99672664D01*
X182404495Y-99672665D01*
X182502335Y-99770505D01*
X182622164Y-99839688D01*
X182755817Y-99875500D01*
X182755819Y-99875500D01*
X182894181Y-99875500D01*
X182894183Y-99875500D01*
X183027836Y-99839688D01*
X183147665Y-99770505D01*
X183245505Y-99672665D01*
X183314688Y-99552836D01*
X183350500Y-99419183D01*
X183350500Y-99280817D01*
X183314688Y-99147164D01*
X183245505Y-99027335D01*
X183173987Y-98955817D01*
X186349500Y-98955817D01*
X186349500Y-99094183D01*
X186363696Y-99147161D01*
X186385312Y-99227835D01*
X186385313Y-99227838D01*
X186454492Y-99347661D01*
X186454494Y-99347664D01*
X186454495Y-99347665D01*
X186552335Y-99445505D01*
X186672164Y-99514688D01*
X186805817Y-99550500D01*
X186805819Y-99550500D01*
X186944181Y-99550500D01*
X186944183Y-99550500D01*
X187077836Y-99514688D01*
X187197665Y-99445505D01*
X187295505Y-99347665D01*
X187364688Y-99227836D01*
X187400500Y-99094183D01*
X187400500Y-98955817D01*
X187364688Y-98822164D01*
X187295505Y-98702335D01*
X187197665Y-98604495D01*
X187197664Y-98604494D01*
X187197661Y-98604492D01*
X187077838Y-98535313D01*
X187077837Y-98535312D01*
X187077836Y-98535312D01*
X186944183Y-98499500D01*
X186805817Y-98499500D01*
X186672164Y-98535312D01*
X186672161Y-98535313D01*
X186552338Y-98604492D01*
X186552333Y-98604496D01*
X186454496Y-98702333D01*
X186454492Y-98702338D01*
X186385313Y-98822161D01*
X186385312Y-98822164D01*
X186349500Y-98955817D01*
X183173987Y-98955817D01*
X183147665Y-98929495D01*
X183147664Y-98929494D01*
X183147661Y-98929492D01*
X183027838Y-98860313D01*
X183027837Y-98860312D01*
X183027836Y-98860312D01*
X182894183Y-98824500D01*
X182755817Y-98824500D01*
X182622164Y-98860312D01*
X182622161Y-98860313D01*
X182502338Y-98929492D01*
X182502333Y-98929496D01*
X182404496Y-99027333D01*
X182404492Y-99027338D01*
X182335313Y-99147161D01*
X182335312Y-99147164D01*
X182299500Y-99280817D01*
X175535576Y-99280817D01*
X177095450Y-97720943D01*
X183599500Y-97720943D01*
X183599500Y-97879057D01*
X183610252Y-97919182D01*
X183640423Y-98031783D01*
X183640426Y-98031790D01*
X183719475Y-98168709D01*
X183719479Y-98168714D01*
X183719480Y-98168716D01*
X183831284Y-98280520D01*
X183831286Y-98280521D01*
X183831290Y-98280524D01*
X183933763Y-98339686D01*
X183968216Y-98359577D01*
X184120943Y-98400500D01*
X184120945Y-98400500D01*
X184279055Y-98400500D01*
X184279057Y-98400500D01*
X184431784Y-98359577D01*
X184568716Y-98280520D01*
X184680520Y-98168716D01*
X184759577Y-98031784D01*
X184800500Y-97879057D01*
X184800500Y-97720943D01*
X184759577Y-97568216D01*
X184735975Y-97527335D01*
X184680524Y-97431290D01*
X184680518Y-97431282D01*
X184568717Y-97319481D01*
X184568709Y-97319475D01*
X184431790Y-97240426D01*
X184431786Y-97240424D01*
X184431784Y-97240423D01*
X184279057Y-97199500D01*
X184120943Y-97199500D01*
X183968216Y-97240423D01*
X183968209Y-97240426D01*
X183831290Y-97319475D01*
X183831282Y-97319481D01*
X183719481Y-97431282D01*
X183719475Y-97431290D01*
X183640426Y-97568209D01*
X183640423Y-97568216D01*
X183599500Y-97720943D01*
X177095450Y-97720943D01*
X180182046Y-94634346D01*
X180237632Y-94602254D01*
X180244178Y-94600500D01*
X180244183Y-94600500D01*
X180377836Y-94564688D01*
X180497665Y-94495505D01*
X180595505Y-94397665D01*
X180664688Y-94277836D01*
X180700500Y-94144183D01*
X180700500Y-94005817D01*
X180664688Y-93872164D01*
X180595505Y-93752335D01*
X180497665Y-93654495D01*
X180497664Y-93654494D01*
X180497661Y-93654492D01*
X180377838Y-93585313D01*
X180377837Y-93585312D01*
X180377836Y-93585312D01*
X180244183Y-93549500D01*
X180105817Y-93549500D01*
X179972164Y-93585312D01*
X179972161Y-93585313D01*
X179852338Y-93654492D01*
X179852333Y-93654496D01*
X179754496Y-93752333D01*
X179754492Y-93752338D01*
X179685313Y-93872161D01*
X179685312Y-93872162D01*
X179647745Y-94012368D01*
X179615651Y-94067955D01*
X174720426Y-98963181D01*
X174659103Y-98996666D01*
X174632745Y-98999500D01*
X169624000Y-98999500D01*
X169556961Y-98979815D01*
X169511206Y-98927011D01*
X169500000Y-98875500D01*
X169500000Y-97274500D01*
X169519685Y-97207461D01*
X169572489Y-97161706D01*
X169624000Y-97150500D01*
X173047795Y-97150500D01*
X173114834Y-97170185D01*
X173160589Y-97222989D01*
X173170533Y-97292147D01*
X173141508Y-97355703D01*
X173109796Y-97381886D01*
X173064477Y-97408050D01*
X173027336Y-97429494D01*
X173027333Y-97429496D01*
X172929496Y-97527333D01*
X172929492Y-97527338D01*
X172860313Y-97647161D01*
X172860312Y-97647164D01*
X172824500Y-97780817D01*
X172824500Y-97919182D01*
X172860312Y-98052835D01*
X172860313Y-98052838D01*
X172929492Y-98172661D01*
X172929494Y-98172664D01*
X172929495Y-98172665D01*
X173027335Y-98270505D01*
X173027336Y-98270506D01*
X173027338Y-98270507D01*
X173044688Y-98280524D01*
X173147164Y-98339688D01*
X173280817Y-98375500D01*
X173280819Y-98375500D01*
X173419181Y-98375500D01*
X173419183Y-98375500D01*
X173552836Y-98339688D01*
X173655312Y-98280524D01*
X173678541Y-98267113D01*
X173740541Y-98250500D01*
X174202725Y-98250500D01*
X174202727Y-98250500D01*
X174304588Y-98223207D01*
X174395913Y-98170480D01*
X176635703Y-95930687D01*
X176635708Y-95930684D01*
X176645911Y-95920480D01*
X176645913Y-95920480D01*
X176720480Y-95845913D01*
X176773207Y-95754587D01*
X176786604Y-95704588D01*
X176800501Y-95652726D01*
X176800501Y-95547273D01*
X176800500Y-95547269D01*
X176800500Y-92855817D01*
X187099500Y-92855817D01*
X187099500Y-92994183D01*
X187134842Y-93126080D01*
X187135312Y-93127835D01*
X187135313Y-93127838D01*
X187204492Y-93247661D01*
X187204494Y-93247664D01*
X187204495Y-93247665D01*
X187302335Y-93345505D01*
X187422164Y-93414688D01*
X187555817Y-93450500D01*
X187555819Y-93450500D01*
X187694181Y-93450500D01*
X187694183Y-93450500D01*
X187827836Y-93414688D01*
X187947665Y-93345505D01*
X188045505Y-93247665D01*
X188047893Y-93243529D01*
X188098457Y-93195310D01*
X188167064Y-93182084D01*
X188231930Y-93208048D01*
X188262669Y-93243522D01*
X188265062Y-93247666D01*
X188279492Y-93272661D01*
X188279495Y-93272665D01*
X188377335Y-93370505D01*
X188497164Y-93439688D01*
X188630817Y-93475500D01*
X188630819Y-93475500D01*
X188769181Y-93475500D01*
X188769183Y-93475500D01*
X188902836Y-93439688D01*
X189022665Y-93370505D01*
X189120505Y-93272665D01*
X189189688Y-93152836D01*
X189225500Y-93019183D01*
X189225500Y-92880817D01*
X189218801Y-92855817D01*
X189674500Y-92855817D01*
X189674500Y-92994183D01*
X189709842Y-93126080D01*
X189710312Y-93127835D01*
X189710313Y-93127838D01*
X189779492Y-93247661D01*
X189779494Y-93247664D01*
X189779495Y-93247665D01*
X189877335Y-93345505D01*
X189997164Y-93414688D01*
X190130817Y-93450500D01*
X190130819Y-93450500D01*
X190269181Y-93450500D01*
X190269183Y-93450500D01*
X190402836Y-93414688D01*
X190522665Y-93345505D01*
X190620505Y-93247665D01*
X190689688Y-93127836D01*
X190725500Y-92994183D01*
X190725500Y-92855817D01*
X190689688Y-92722164D01*
X190635040Y-92627511D01*
X190620507Y-92602338D01*
X190620503Y-92602333D01*
X190522666Y-92504496D01*
X190522661Y-92504492D01*
X190402838Y-92435313D01*
X190402837Y-92435312D01*
X190402836Y-92435312D01*
X190269183Y-92399500D01*
X190130817Y-92399500D01*
X189997164Y-92435312D01*
X189997161Y-92435313D01*
X189877338Y-92504492D01*
X189877333Y-92504496D01*
X189779496Y-92602333D01*
X189779492Y-92602338D01*
X189710313Y-92722161D01*
X189710312Y-92722164D01*
X189674500Y-92855817D01*
X189218801Y-92855817D01*
X189189688Y-92747164D01*
X189143372Y-92666942D01*
X189120507Y-92627338D01*
X189120503Y-92627333D01*
X189022666Y-92529496D01*
X189022661Y-92529492D01*
X188902838Y-92460313D01*
X188902837Y-92460312D01*
X188902836Y-92460312D01*
X188769183Y-92424500D01*
X188630817Y-92424500D01*
X188497164Y-92460312D01*
X188497161Y-92460313D01*
X188377338Y-92529492D01*
X188377333Y-92529496D01*
X188279496Y-92627333D01*
X188279492Y-92627338D01*
X188277100Y-92631482D01*
X188226530Y-92679695D01*
X188157922Y-92692914D01*
X188093059Y-92666942D01*
X188062328Y-92631474D01*
X188059938Y-92627335D01*
X188045505Y-92602335D01*
X187947665Y-92504495D01*
X187947664Y-92504494D01*
X187947661Y-92504492D01*
X187827838Y-92435313D01*
X187827837Y-92435312D01*
X187827836Y-92435312D01*
X187694183Y-92399500D01*
X187555817Y-92399500D01*
X187422164Y-92435312D01*
X187422161Y-92435313D01*
X187302338Y-92504492D01*
X187302333Y-92504496D01*
X187204496Y-92602333D01*
X187204492Y-92602338D01*
X187135313Y-92722161D01*
X187135312Y-92722164D01*
X187099500Y-92855817D01*
X176800500Y-92855817D01*
X176800500Y-91305817D01*
X185399500Y-91305817D01*
X185399500Y-91444183D01*
X185413831Y-91497665D01*
X185435312Y-91577835D01*
X185435313Y-91577838D01*
X185504492Y-91697661D01*
X185504494Y-91697664D01*
X185504495Y-91697665D01*
X185602335Y-91795505D01*
X185722164Y-91864688D01*
X185855817Y-91900500D01*
X185855819Y-91900500D01*
X185994181Y-91900500D01*
X185994183Y-91900500D01*
X186127836Y-91864688D01*
X186247665Y-91795505D01*
X186345505Y-91697665D01*
X186414688Y-91577836D01*
X186450500Y-91444183D01*
X186450500Y-91305817D01*
X187024500Y-91305817D01*
X187024500Y-91444183D01*
X187038831Y-91497665D01*
X187060312Y-91577835D01*
X187060313Y-91577838D01*
X187129492Y-91697661D01*
X187129494Y-91697664D01*
X187129495Y-91697665D01*
X187227335Y-91795505D01*
X187347164Y-91864688D01*
X187480817Y-91900500D01*
X187480819Y-91900500D01*
X187619181Y-91900500D01*
X187619183Y-91900500D01*
X187752836Y-91864688D01*
X187872665Y-91795505D01*
X187970505Y-91697665D01*
X188039688Y-91577836D01*
X188075500Y-91444183D01*
X188075500Y-91305817D01*
X188039688Y-91172164D01*
X187970505Y-91052335D01*
X187872665Y-90954495D01*
X187872664Y-90954494D01*
X187872661Y-90954492D01*
X187752838Y-90885313D01*
X187752837Y-90885312D01*
X187752836Y-90885312D01*
X187619183Y-90849500D01*
X187480817Y-90849500D01*
X187347164Y-90885312D01*
X187347161Y-90885313D01*
X187227338Y-90954492D01*
X187227333Y-90954496D01*
X187129496Y-91052333D01*
X187129492Y-91052338D01*
X187060313Y-91172161D01*
X187060312Y-91172164D01*
X187024500Y-91305817D01*
X186450500Y-91305817D01*
X186414688Y-91172164D01*
X186345505Y-91052335D01*
X186247665Y-90954495D01*
X186247664Y-90954494D01*
X186247661Y-90954492D01*
X186127838Y-90885313D01*
X186127837Y-90885312D01*
X186127836Y-90885312D01*
X185994183Y-90849500D01*
X185855817Y-90849500D01*
X185722164Y-90885312D01*
X185722161Y-90885313D01*
X185602338Y-90954492D01*
X185602333Y-90954496D01*
X185504496Y-91052333D01*
X185504492Y-91052338D01*
X185435313Y-91172161D01*
X185435312Y-91172164D01*
X185399500Y-91305817D01*
X176800500Y-91305817D01*
X176800500Y-88830817D01*
X184474500Y-88830817D01*
X184474500Y-88969183D01*
X184487545Y-89017866D01*
X184510312Y-89102835D01*
X184510313Y-89102838D01*
X184579492Y-89222661D01*
X184579494Y-89222664D01*
X184579495Y-89222665D01*
X184677335Y-89320505D01*
X184797164Y-89389688D01*
X184930817Y-89425500D01*
X184930819Y-89425500D01*
X185069181Y-89425500D01*
X185069183Y-89425500D01*
X185202836Y-89389688D01*
X185202845Y-89389682D01*
X185203044Y-89389601D01*
X185203236Y-89389580D01*
X185210687Y-89387584D01*
X185210998Y-89388745D01*
X185272513Y-89382131D01*
X185334993Y-89413404D01*
X185370647Y-89473491D01*
X185374500Y-89504161D01*
X185374500Y-89569183D01*
X185401356Y-89669409D01*
X185410312Y-89702835D01*
X185410313Y-89702838D01*
X185479492Y-89822661D01*
X185479494Y-89822664D01*
X185479495Y-89822665D01*
X185577335Y-89920505D01*
X185697164Y-89989688D01*
X185830817Y-90025500D01*
X185830819Y-90025500D01*
X185969181Y-90025500D01*
X185969183Y-90025500D01*
X186102836Y-89989688D01*
X186222665Y-89920505D01*
X186320505Y-89822665D01*
X186389688Y-89702836D01*
X186425500Y-89569183D01*
X186425500Y-89430817D01*
X187074500Y-89430817D01*
X187074500Y-89569183D01*
X187101356Y-89669409D01*
X187110312Y-89702835D01*
X187110313Y-89702838D01*
X187179492Y-89822661D01*
X187179494Y-89822664D01*
X187179495Y-89822665D01*
X187277335Y-89920505D01*
X187397164Y-89989688D01*
X187530817Y-90025500D01*
X187530819Y-90025500D01*
X187669181Y-90025500D01*
X187669183Y-90025500D01*
X187802836Y-89989688D01*
X187922665Y-89920505D01*
X188020505Y-89822665D01*
X188089688Y-89702836D01*
X188125500Y-89569183D01*
X188125500Y-89430817D01*
X188089688Y-89297164D01*
X188020505Y-89177335D01*
X187922665Y-89079495D01*
X187922664Y-89079494D01*
X187922661Y-89079492D01*
X187802838Y-89010313D01*
X187802837Y-89010312D01*
X187802836Y-89010312D01*
X187669183Y-88974500D01*
X187530817Y-88974500D01*
X187397164Y-89010312D01*
X187397161Y-89010313D01*
X187277338Y-89079492D01*
X187277333Y-89079496D01*
X187179496Y-89177333D01*
X187179492Y-89177338D01*
X187110313Y-89297161D01*
X187110312Y-89297164D01*
X187074500Y-89430817D01*
X186425500Y-89430817D01*
X186389688Y-89297164D01*
X186320505Y-89177335D01*
X186222665Y-89079495D01*
X186222664Y-89079494D01*
X186222661Y-89079492D01*
X186102838Y-89010313D01*
X186102837Y-89010312D01*
X186102836Y-89010312D01*
X185969183Y-88974500D01*
X185830817Y-88974500D01*
X185697160Y-89010313D01*
X185696944Y-89010403D01*
X185696746Y-89010424D01*
X185689313Y-89012416D01*
X185689002Y-89011256D01*
X185627474Y-89017866D01*
X185564997Y-88986586D01*
X185529349Y-88926494D01*
X185525500Y-88895838D01*
X185525500Y-88830819D01*
X185525500Y-88830817D01*
X185489688Y-88697164D01*
X185432864Y-88598742D01*
X185420507Y-88577338D01*
X185420503Y-88577333D01*
X185322666Y-88479496D01*
X185322661Y-88479492D01*
X185202838Y-88410313D01*
X185202837Y-88410312D01*
X185202836Y-88410312D01*
X185069183Y-88374500D01*
X184930817Y-88374500D01*
X184797164Y-88410312D01*
X184797161Y-88410313D01*
X184677338Y-88479492D01*
X184677333Y-88479496D01*
X184579496Y-88577333D01*
X184579492Y-88577338D01*
X184510313Y-88697161D01*
X184510312Y-88697164D01*
X184474500Y-88830817D01*
X176800500Y-88830817D01*
X176800500Y-86324500D01*
X176820185Y-86257461D01*
X176872989Y-86211706D01*
X176906751Y-86201777D01*
X176915581Y-86200500D01*
X177019183Y-86200500D01*
X177140688Y-86167942D01*
X177147941Y-86166894D01*
X177175555Y-86170840D01*
X177203446Y-86171505D01*
X177214541Y-86176413D01*
X177217107Y-86176780D01*
X177218925Y-86178352D01*
X177227688Y-86182229D01*
X177252954Y-86196816D01*
X177260854Y-86201378D01*
X177260858Y-86201380D01*
X177394511Y-86237192D01*
X177394513Y-86237192D01*
X177532875Y-86237192D01*
X177532877Y-86237192D01*
X177666530Y-86201380D01*
X177786359Y-86132197D01*
X177884199Y-86034357D01*
X177953382Y-85914528D01*
X177989194Y-85780875D01*
X177989194Y-85642509D01*
X177953382Y-85508856D01*
X177923796Y-85457612D01*
X177907325Y-85389713D01*
X177913751Y-85360999D01*
X177912584Y-85360687D01*
X177914688Y-85352836D01*
X177950500Y-85219183D01*
X177950500Y-85080817D01*
X177937103Y-85030817D01*
X180774500Y-85030817D01*
X180774500Y-85169183D01*
X180808926Y-85297665D01*
X180812416Y-85310687D01*
X180811107Y-85311037D01*
X180817659Y-85372026D01*
X180810668Y-85395833D01*
X180782623Y-85500500D01*
X180774500Y-85530817D01*
X180774500Y-85669183D01*
X180809014Y-85797989D01*
X180810312Y-85802835D01*
X180810313Y-85802838D01*
X180879492Y-85922661D01*
X180879494Y-85922664D01*
X180879495Y-85922665D01*
X180977335Y-86020505D01*
X180977336Y-86020506D01*
X180977338Y-86020507D01*
X181001327Y-86034357D01*
X181097164Y-86089688D01*
X181230817Y-86125500D01*
X181230819Y-86125500D01*
X181369181Y-86125500D01*
X181369183Y-86125500D01*
X181502836Y-86089688D01*
X181502837Y-86089687D01*
X181510687Y-86087584D01*
X181511038Y-86088895D01*
X181572011Y-86082337D01*
X181595800Y-86089322D01*
X181597162Y-86089687D01*
X181597164Y-86089688D01*
X181730817Y-86125500D01*
X181730819Y-86125500D01*
X181869181Y-86125500D01*
X181869183Y-86125500D01*
X182002836Y-86089688D01*
X182122665Y-86020505D01*
X182220505Y-85922665D01*
X182289688Y-85802836D01*
X182325500Y-85669183D01*
X182325500Y-85530817D01*
X182289688Y-85397164D01*
X182289687Y-85397162D01*
X182287584Y-85389313D01*
X182288895Y-85388961D01*
X182287276Y-85373915D01*
X182280374Y-85351262D01*
X182283245Y-85336434D01*
X182282337Y-85327989D01*
X182285041Y-85316278D01*
X182288026Y-85305714D01*
X182289688Y-85302836D01*
X182295272Y-85281995D01*
X182612000Y-85281995D01*
X182612000Y-85518004D01*
X182612001Y-85518020D01*
X182641949Y-85745503D01*
X182642807Y-85752014D01*
X182672998Y-85864687D01*
X182703894Y-85979993D01*
X182794214Y-86198045D01*
X182794219Y-86198056D01*
X182836185Y-86270742D01*
X182912227Y-86402450D01*
X182912229Y-86402453D01*
X182912230Y-86402454D01*
X183055906Y-86589697D01*
X183055912Y-86589704D01*
X183222795Y-86756587D01*
X183222801Y-86756592D01*
X183410050Y-86900273D01*
X183538615Y-86974500D01*
X183614443Y-87018280D01*
X183614448Y-87018282D01*
X183614451Y-87018284D01*
X183832507Y-87108606D01*
X184060486Y-87169693D01*
X184294489Y-87200500D01*
X184360948Y-87200500D01*
X184427987Y-87220185D01*
X184473742Y-87272989D01*
X184480721Y-87292401D01*
X184510312Y-87402836D01*
X184510313Y-87402837D01*
X184510313Y-87402838D01*
X184579492Y-87522661D01*
X184579494Y-87522664D01*
X184579495Y-87522665D01*
X184677335Y-87620505D01*
X184797164Y-87689688D01*
X184930817Y-87725500D01*
X184930819Y-87725500D01*
X185069181Y-87725500D01*
X185069183Y-87725500D01*
X185202836Y-87689688D01*
X185322665Y-87620505D01*
X185420505Y-87522665D01*
X185489688Y-87402836D01*
X185525500Y-87269183D01*
X185525500Y-87130817D01*
X185489688Y-86997164D01*
X185482350Y-86984454D01*
X185465876Y-86916554D01*
X185488728Y-86850527D01*
X185514248Y-86824078D01*
X185602199Y-86756592D01*
X185769092Y-86589699D01*
X185912773Y-86402450D01*
X186030784Y-86198049D01*
X186121106Y-85979993D01*
X186182193Y-85752014D01*
X186213000Y-85518011D01*
X186213000Y-85305817D01*
X188274500Y-85305817D01*
X188274500Y-85444183D01*
X188308927Y-85572665D01*
X188310312Y-85577835D01*
X188310313Y-85577838D01*
X188379492Y-85697661D01*
X188379494Y-85697664D01*
X188379495Y-85697665D01*
X188477335Y-85795505D01*
X188477336Y-85795506D01*
X188477338Y-85795507D01*
X188537249Y-85830096D01*
X188597164Y-85864688D01*
X188730817Y-85900500D01*
X188730819Y-85900500D01*
X188869181Y-85900500D01*
X188869183Y-85900500D01*
X189002836Y-85864688D01*
X189122665Y-85795505D01*
X189220505Y-85697665D01*
X189289688Y-85577836D01*
X189325500Y-85444183D01*
X189325500Y-85305817D01*
X189289688Y-85172164D01*
X189233879Y-85075500D01*
X189220507Y-85052338D01*
X189220503Y-85052333D01*
X189122666Y-84954496D01*
X189122661Y-84954492D01*
X189002838Y-84885313D01*
X189002837Y-84885312D01*
X189002836Y-84885312D01*
X188869183Y-84849500D01*
X188730817Y-84849500D01*
X188597164Y-84885312D01*
X188597161Y-84885313D01*
X188477338Y-84954492D01*
X188477333Y-84954496D01*
X188379496Y-85052333D01*
X188379492Y-85052338D01*
X188310313Y-85172161D01*
X188310312Y-85172164D01*
X188274500Y-85305817D01*
X186213000Y-85305817D01*
X186213000Y-85281989D01*
X186182193Y-85047986D01*
X186121106Y-84820007D01*
X186030784Y-84601951D01*
X186030782Y-84601948D01*
X186030780Y-84601943D01*
X185972211Y-84500500D01*
X185912773Y-84397550D01*
X185769092Y-84210301D01*
X185769087Y-84210295D01*
X185602204Y-84043412D01*
X185602197Y-84043406D01*
X185414954Y-83899730D01*
X185414953Y-83899729D01*
X185414950Y-83899727D01*
X185333457Y-83852677D01*
X185210556Y-83781719D01*
X185210545Y-83781714D01*
X184992493Y-83691394D01*
X184799524Y-83639688D01*
X184764514Y-83630307D01*
X184764513Y-83630306D01*
X184764510Y-83630306D01*
X184530520Y-83599501D01*
X184530517Y-83599500D01*
X184530511Y-83599500D01*
X184294489Y-83599500D01*
X184294483Y-83599500D01*
X184294479Y-83599501D01*
X184060489Y-83630306D01*
X183832506Y-83691394D01*
X183614454Y-83781714D01*
X183614443Y-83781719D01*
X183410045Y-83899730D01*
X183222802Y-84043406D01*
X183222795Y-84043412D01*
X183055912Y-84210295D01*
X183055906Y-84210302D01*
X182912230Y-84397545D01*
X182794219Y-84601943D01*
X182794214Y-84601954D01*
X182703894Y-84820006D01*
X182642806Y-85047989D01*
X182612001Y-85281979D01*
X182612000Y-85281995D01*
X182295272Y-85281995D01*
X182325500Y-85169183D01*
X182325500Y-85030817D01*
X182289688Y-84897164D01*
X182220505Y-84777335D01*
X182122665Y-84679495D01*
X182122664Y-84679494D01*
X182122661Y-84679492D01*
X182002838Y-84610313D01*
X182002837Y-84610312D01*
X182002836Y-84610312D01*
X181869183Y-84574500D01*
X181730817Y-84574500D01*
X181597164Y-84610312D01*
X181597162Y-84610312D01*
X181589313Y-84612416D01*
X181588962Y-84611107D01*
X181527974Y-84617659D01*
X181504166Y-84610668D01*
X181421156Y-84588426D01*
X181369183Y-84574500D01*
X181230817Y-84574500D01*
X181097164Y-84610312D01*
X181097161Y-84610313D01*
X180977338Y-84679492D01*
X180977333Y-84679496D01*
X180879496Y-84777333D01*
X180879492Y-84777338D01*
X180810313Y-84897161D01*
X180810312Y-84897164D01*
X180774500Y-85030817D01*
X177937103Y-85030817D01*
X177914688Y-84947164D01*
X177845505Y-84827335D01*
X177747665Y-84729495D01*
X177747664Y-84729494D01*
X177747661Y-84729492D01*
X177627838Y-84660313D01*
X177627837Y-84660312D01*
X177627836Y-84660312D01*
X177494183Y-84624500D01*
X177355817Y-84624500D01*
X177222164Y-84660312D01*
X177222160Y-84660314D01*
X177214655Y-84663423D01*
X177213876Y-84661544D01*
X177156583Y-84675435D01*
X177136481Y-84672816D01*
X177117402Y-84668721D01*
X177102836Y-84660312D01*
X176969183Y-84624500D01*
X176911342Y-84624500D01*
X176898481Y-84621740D01*
X176878866Y-84611100D01*
X176857461Y-84604815D01*
X176848753Y-84594766D01*
X176837065Y-84588426D01*
X176826316Y-84568872D01*
X176811706Y-84552011D01*
X176808207Y-84535927D01*
X176803408Y-84527197D01*
X176804103Y-84517066D01*
X176800500Y-84500500D01*
X176800500Y-83080817D01*
X194074500Y-83080817D01*
X194074500Y-83219183D01*
X194091254Y-83281708D01*
X194110312Y-83352835D01*
X194110313Y-83352838D01*
X194179492Y-83472661D01*
X194179494Y-83472664D01*
X194179495Y-83472665D01*
X194277335Y-83570505D01*
X194397164Y-83639688D01*
X194530817Y-83675500D01*
X194530819Y-83675500D01*
X194669181Y-83675500D01*
X194669183Y-83675500D01*
X194802836Y-83639688D01*
X194922665Y-83570505D01*
X195020505Y-83472665D01*
X195089688Y-83352836D01*
X195125500Y-83219183D01*
X195125500Y-83080817D01*
X195089688Y-82947164D01*
X195030997Y-82845507D01*
X195020507Y-82827338D01*
X195020503Y-82827333D01*
X194922666Y-82729496D01*
X194922661Y-82729492D01*
X194802838Y-82660313D01*
X194802837Y-82660312D01*
X194802836Y-82660312D01*
X194669183Y-82624500D01*
X194530817Y-82624500D01*
X194397164Y-82660312D01*
X194397161Y-82660313D01*
X194277338Y-82729492D01*
X194277333Y-82729496D01*
X194179496Y-82827333D01*
X194179492Y-82827338D01*
X194110313Y-82947161D01*
X194110312Y-82947164D01*
X194074500Y-83080817D01*
X176800500Y-83080817D01*
X176800500Y-82230817D01*
X184049500Y-82230817D01*
X184049500Y-82369183D01*
X184062898Y-82419183D01*
X184085312Y-82502835D01*
X184085313Y-82502838D01*
X184154492Y-82622661D01*
X184154494Y-82622664D01*
X184154495Y-82622665D01*
X184252335Y-82720505D01*
X184372164Y-82789688D01*
X184505817Y-82825500D01*
X184505819Y-82825500D01*
X184644181Y-82825500D01*
X184644183Y-82825500D01*
X184777836Y-82789688D01*
X184897665Y-82720505D01*
X184995505Y-82622665D01*
X185064688Y-82502836D01*
X185100500Y-82369183D01*
X185100500Y-82230817D01*
X185064688Y-82097164D01*
X185006953Y-81997164D01*
X184995507Y-81977338D01*
X184995503Y-81977333D01*
X184897666Y-81879496D01*
X184897661Y-81879492D01*
X184777838Y-81810313D01*
X184777837Y-81810312D01*
X184777836Y-81810312D01*
X184644183Y-81774500D01*
X184505817Y-81774500D01*
X184372164Y-81810312D01*
X184372161Y-81810313D01*
X184252338Y-81879492D01*
X184252333Y-81879496D01*
X184154496Y-81977333D01*
X184154492Y-81977338D01*
X184085313Y-82097161D01*
X184085312Y-82097164D01*
X184049500Y-82230817D01*
X176800500Y-82230817D01*
X176800500Y-81440918D01*
X176820185Y-81373879D01*
X176872989Y-81328124D01*
X176942147Y-81318180D01*
X176986497Y-81333529D01*
X176997164Y-81339688D01*
X177130817Y-81375500D01*
X177130819Y-81375500D01*
X177269181Y-81375500D01*
X177269183Y-81375500D01*
X177402836Y-81339688D01*
X177522665Y-81270505D01*
X177620505Y-81172665D01*
X177673533Y-81080817D01*
X180274500Y-81080817D01*
X180274500Y-81219183D01*
X180306789Y-81339686D01*
X180310312Y-81352835D01*
X180310313Y-81352838D01*
X180379492Y-81472661D01*
X180379494Y-81472664D01*
X180379495Y-81472665D01*
X180477335Y-81570505D01*
X180477336Y-81570506D01*
X180477338Y-81570507D01*
X180510559Y-81589687D01*
X180597164Y-81639688D01*
X180730817Y-81675500D01*
X180730819Y-81675500D01*
X180869181Y-81675500D01*
X180869183Y-81675500D01*
X181002836Y-81639688D01*
X181122665Y-81570505D01*
X181220505Y-81472665D01*
X181289688Y-81352836D01*
X181325500Y-81219183D01*
X181325500Y-81080817D01*
X181289688Y-80947164D01*
X181220505Y-80827335D01*
X181122665Y-80729495D01*
X181122664Y-80729494D01*
X181122661Y-80729492D01*
X181002838Y-80660313D01*
X181002837Y-80660312D01*
X181002836Y-80660312D01*
X180869183Y-80624500D01*
X180730817Y-80624500D01*
X180597164Y-80660312D01*
X180597161Y-80660313D01*
X180477338Y-80729492D01*
X180477333Y-80729496D01*
X180379496Y-80827333D01*
X180379492Y-80827338D01*
X180310313Y-80947161D01*
X180310312Y-80947164D01*
X180274500Y-81080817D01*
X177673533Y-81080817D01*
X177689688Y-81052836D01*
X177725500Y-80919183D01*
X177725500Y-80780817D01*
X177689688Y-80647164D01*
X177632243Y-80547666D01*
X177620507Y-80527338D01*
X177620503Y-80527333D01*
X177522666Y-80429496D01*
X177522661Y-80429492D01*
X177402838Y-80360313D01*
X177402837Y-80360312D01*
X177402836Y-80360312D01*
X177269183Y-80324500D01*
X177130817Y-80324500D01*
X176997164Y-80360312D01*
X176997161Y-80360313D01*
X176877338Y-80429492D01*
X176877330Y-80429498D01*
X176874287Y-80432542D01*
X176871090Y-80434287D01*
X176870890Y-80434441D01*
X176870866Y-80434409D01*
X176812962Y-80466024D01*
X176743271Y-80461035D01*
X176698930Y-80432537D01*
X176422210Y-80155817D01*
X192574500Y-80155817D01*
X192574500Y-80294183D01*
X192592220Y-80360313D01*
X192610312Y-80427835D01*
X192610313Y-80427838D01*
X192679492Y-80547661D01*
X192679494Y-80547664D01*
X192679495Y-80547665D01*
X192777335Y-80645505D01*
X192777336Y-80645506D01*
X192777338Y-80645507D01*
X192802983Y-80660313D01*
X192897164Y-80714688D01*
X193030817Y-80750500D01*
X193030819Y-80750500D01*
X193169181Y-80750500D01*
X193169183Y-80750500D01*
X193302836Y-80714688D01*
X193422665Y-80645505D01*
X193520505Y-80547665D01*
X193589688Y-80427836D01*
X193625500Y-80294183D01*
X193625500Y-80155817D01*
X193589688Y-80022164D01*
X193547736Y-79949500D01*
X193520507Y-79902338D01*
X193520503Y-79902333D01*
X193422666Y-79804496D01*
X193422661Y-79804492D01*
X193302838Y-79735313D01*
X193302837Y-79735312D01*
X193302836Y-79735312D01*
X193169183Y-79699500D01*
X193030817Y-79699500D01*
X192897164Y-79735312D01*
X192897161Y-79735313D01*
X192777338Y-79804492D01*
X192777333Y-79804496D01*
X192679496Y-79902333D01*
X192679492Y-79902338D01*
X192610313Y-80022161D01*
X192610312Y-80022164D01*
X192574500Y-80155817D01*
X176422210Y-80155817D01*
X175995915Y-79729522D01*
X175995913Y-79729520D01*
X175943917Y-79699500D01*
X175904589Y-79676793D01*
X175853657Y-79663146D01*
X175802727Y-79649500D01*
X172597273Y-79649500D01*
X172495413Y-79676793D01*
X172495410Y-79676794D01*
X172404085Y-79729521D01*
X172092955Y-80040651D01*
X172037368Y-80072745D01*
X172030818Y-80074500D01*
X172030817Y-80074500D01*
X171984468Y-80086918D01*
X171897162Y-80110312D01*
X171897161Y-80110313D01*
X171777338Y-80179492D01*
X171777333Y-80179496D01*
X171679496Y-80277333D01*
X171679492Y-80277338D01*
X171610313Y-80397161D01*
X171610312Y-80397164D01*
X171574500Y-80530817D01*
X171574500Y-80669183D01*
X171608792Y-80797161D01*
X171610312Y-80802835D01*
X171610315Y-80802842D01*
X171674203Y-80913501D01*
X171690676Y-80981401D01*
X171667823Y-81047428D01*
X171612902Y-81090618D01*
X171566816Y-81099500D01*
X171122273Y-81099500D01*
X171020410Y-81126793D01*
X170929087Y-81179520D01*
X170929084Y-81179522D01*
X170592955Y-81515651D01*
X170537368Y-81547745D01*
X170530818Y-81549500D01*
X170530817Y-81549500D01*
X170484468Y-81561918D01*
X170397162Y-81585312D01*
X170397161Y-81585313D01*
X170277338Y-81654492D01*
X170277333Y-81654496D01*
X170179496Y-81752333D01*
X170179492Y-81752338D01*
X170110313Y-81872161D01*
X170110312Y-81872164D01*
X170074500Y-82005817D01*
X170074500Y-82144183D01*
X170107994Y-82269183D01*
X170110312Y-82277835D01*
X170110313Y-82277838D01*
X170179492Y-82397661D01*
X170179496Y-82397666D01*
X170194649Y-82412819D01*
X170228134Y-82474142D01*
X170223150Y-82543834D01*
X170181278Y-82599767D01*
X170115814Y-82624184D01*
X170106968Y-82624500D01*
X169476485Y-82624500D01*
X169409446Y-82604815D01*
X169363691Y-82552011D01*
X169353747Y-82482853D01*
X169369097Y-82438501D01*
X169383924Y-82412819D01*
X169389688Y-82402836D01*
X169425500Y-82269183D01*
X169425500Y-82130817D01*
X169389688Y-81997164D01*
X169321752Y-81879495D01*
X169320507Y-81877338D01*
X169320503Y-81877333D01*
X169286819Y-81843649D01*
X169272115Y-81816721D01*
X169255523Y-81790903D01*
X169254631Y-81784702D01*
X169253334Y-81782326D01*
X169250500Y-81755968D01*
X169250500Y-81690918D01*
X169270185Y-81623879D01*
X169322989Y-81578124D01*
X169392147Y-81568180D01*
X169436497Y-81583529D01*
X169447164Y-81589688D01*
X169580817Y-81625500D01*
X169580819Y-81625500D01*
X169719181Y-81625500D01*
X169719183Y-81625500D01*
X169852836Y-81589688D01*
X169972665Y-81520505D01*
X170070505Y-81422665D01*
X170139688Y-81302836D01*
X170175500Y-81169183D01*
X170175500Y-81169178D01*
X170177254Y-81162632D01*
X170209346Y-81107046D01*
X172335843Y-78980548D01*
X172397166Y-78947064D01*
X172466858Y-78952048D01*
X172511205Y-78980549D01*
X172521049Y-78990393D01*
X172521050Y-78990394D01*
X172521052Y-78990395D01*
X172553049Y-79008868D01*
X172640878Y-79059576D01*
X172774531Y-79095388D01*
X172774533Y-79095388D01*
X172912895Y-79095388D01*
X172912897Y-79095388D01*
X173046550Y-79059576D01*
X173166379Y-78990393D01*
X173264219Y-78892553D01*
X173311217Y-78811147D01*
X173330918Y-78785473D01*
X173909480Y-78206911D01*
X192659500Y-78206911D01*
X192659500Y-78333088D01*
X192684112Y-78456819D01*
X192684115Y-78456831D01*
X192732394Y-78573388D01*
X192732396Y-78573392D01*
X192802487Y-78678290D01*
X192802493Y-78678298D01*
X192891701Y-78767506D01*
X192891709Y-78767512D01*
X192996607Y-78837603D01*
X192996611Y-78837605D01*
X193113168Y-78885884D01*
X193113173Y-78885886D01*
X193224011Y-78907933D01*
X193236911Y-78910499D01*
X193236914Y-78910500D01*
X193236916Y-78910500D01*
X193363086Y-78910500D01*
X193363087Y-78910499D01*
X193486827Y-78885886D01*
X193603390Y-78837604D01*
X193603392Y-78837603D01*
X193687399Y-78781471D01*
X193708295Y-78767509D01*
X193797509Y-78678295D01*
X193867604Y-78573390D01*
X193915886Y-78456827D01*
X193940500Y-78333084D01*
X193940500Y-78206916D01*
X193940500Y-78206913D01*
X193940499Y-78206911D01*
X193935309Y-78180817D01*
X193915886Y-78083173D01*
X193914910Y-78080817D01*
X193867605Y-77966611D01*
X193867603Y-77966607D01*
X193797512Y-77861709D01*
X193797506Y-77861701D01*
X193708298Y-77772493D01*
X193708290Y-77772487D01*
X193603392Y-77702396D01*
X193603388Y-77702394D01*
X193486831Y-77654115D01*
X193486819Y-77654112D01*
X193363087Y-77629500D01*
X193363084Y-77629500D01*
X193236916Y-77629500D01*
X193236913Y-77629500D01*
X193113180Y-77654112D01*
X193113168Y-77654115D01*
X192996611Y-77702394D01*
X192996607Y-77702396D01*
X192891709Y-77772487D01*
X192891701Y-77772493D01*
X192802493Y-77861701D01*
X192802487Y-77861709D01*
X192732396Y-77966607D01*
X192732394Y-77966611D01*
X192684115Y-78083168D01*
X192684112Y-78083180D01*
X192659500Y-78206911D01*
X173909480Y-78206911D01*
X176385573Y-75730817D01*
X180174500Y-75730817D01*
X180174500Y-75869182D01*
X180210312Y-76002835D01*
X180210313Y-76002838D01*
X180279492Y-76122661D01*
X180279494Y-76122664D01*
X180279495Y-76122665D01*
X180377335Y-76220505D01*
X180497164Y-76289688D01*
X180630817Y-76325500D01*
X180630819Y-76325500D01*
X180769181Y-76325500D01*
X180769183Y-76325500D01*
X180902836Y-76289688D01*
X181022665Y-76220505D01*
X181120505Y-76122665D01*
X181189688Y-76002836D01*
X181225500Y-75869183D01*
X181225500Y-75730817D01*
X181189688Y-75597164D01*
X181120505Y-75477335D01*
X181022665Y-75379495D01*
X181022664Y-75379494D01*
X181022661Y-75379492D01*
X180902838Y-75310313D01*
X180902837Y-75310312D01*
X180902836Y-75310312D01*
X180769183Y-75274500D01*
X180630817Y-75274500D01*
X180497164Y-75310312D01*
X180497161Y-75310313D01*
X180377338Y-75379492D01*
X180377333Y-75379496D01*
X180279496Y-75477333D01*
X180279492Y-75477338D01*
X180210313Y-75597161D01*
X180210312Y-75597164D01*
X180174500Y-75730817D01*
X176385573Y-75730817D01*
X178085703Y-74030687D01*
X178085708Y-74030684D01*
X178095911Y-74020480D01*
X178095913Y-74020480D01*
X178170480Y-73945913D01*
X178223207Y-73854587D01*
X178230386Y-73827794D01*
X178250501Y-73752727D01*
X178250501Y-73647273D01*
X178250500Y-73647269D01*
X178250500Y-73030817D01*
X180574500Y-73030817D01*
X180574500Y-73169183D01*
X180602720Y-73274500D01*
X180610312Y-73302835D01*
X180610313Y-73302838D01*
X180679492Y-73422661D01*
X180679494Y-73422664D01*
X180679495Y-73422665D01*
X180777335Y-73520505D01*
X180777336Y-73520506D01*
X180777338Y-73520507D01*
X180805176Y-73536579D01*
X180897164Y-73589688D01*
X181030817Y-73625500D01*
X181030819Y-73625500D01*
X181169181Y-73625500D01*
X181169183Y-73625500D01*
X181302836Y-73589688D01*
X181422665Y-73520505D01*
X181520505Y-73422665D01*
X181589688Y-73302836D01*
X181625500Y-73169183D01*
X181625500Y-73030817D01*
X181589688Y-72897164D01*
X181546528Y-72822409D01*
X181520507Y-72777338D01*
X181520503Y-72777333D01*
X181422666Y-72679496D01*
X181422661Y-72679492D01*
X181302838Y-72610313D01*
X181302837Y-72610312D01*
X181302836Y-72610312D01*
X181169183Y-72574500D01*
X181030817Y-72574500D01*
X180897164Y-72610312D01*
X180897161Y-72610313D01*
X180777338Y-72679492D01*
X180777333Y-72679496D01*
X180679496Y-72777333D01*
X180679492Y-72777338D01*
X180610313Y-72897161D01*
X180610312Y-72897164D01*
X180574500Y-73030817D01*
X178250500Y-73030817D01*
X178250500Y-70206911D01*
X192659500Y-70206911D01*
X192659500Y-70333088D01*
X192684112Y-70456819D01*
X192684115Y-70456831D01*
X192732394Y-70573388D01*
X192732396Y-70573392D01*
X192802487Y-70678290D01*
X192802493Y-70678298D01*
X192891701Y-70767506D01*
X192891709Y-70767512D01*
X192996607Y-70837603D01*
X192996611Y-70837605D01*
X193113168Y-70885884D01*
X193113173Y-70885886D01*
X193236911Y-70910499D01*
X193236914Y-70910500D01*
X193236916Y-70910500D01*
X193363086Y-70910500D01*
X193363087Y-70910499D01*
X193486827Y-70885886D01*
X193603390Y-70837604D01*
X193603392Y-70837603D01*
X193704700Y-70769911D01*
X193708295Y-70767509D01*
X193797509Y-70678295D01*
X193864264Y-70578389D01*
X193867603Y-70573392D01*
X193867605Y-70573388D01*
X193915884Y-70456831D01*
X193915886Y-70456827D01*
X193940500Y-70333084D01*
X193940500Y-70206916D01*
X193940500Y-70206913D01*
X193940499Y-70206911D01*
X193920384Y-70105787D01*
X193915886Y-70083173D01*
X193915884Y-70083168D01*
X193867605Y-69966611D01*
X193867603Y-69966607D01*
X193797512Y-69861709D01*
X193797506Y-69861701D01*
X193708298Y-69772493D01*
X193708290Y-69772487D01*
X193603392Y-69702396D01*
X193603388Y-69702394D01*
X193486831Y-69654115D01*
X193486819Y-69654112D01*
X193363087Y-69629500D01*
X193363084Y-69629500D01*
X193236916Y-69629500D01*
X193236913Y-69629500D01*
X193113180Y-69654112D01*
X193113168Y-69654115D01*
X192996611Y-69702394D01*
X192996607Y-69702396D01*
X192891709Y-69772487D01*
X192891701Y-69772493D01*
X192802493Y-69861701D01*
X192802487Y-69861709D01*
X192732396Y-69966607D01*
X192732394Y-69966611D01*
X192684115Y-70083168D01*
X192684112Y-70083180D01*
X192659500Y-70206911D01*
X178250500Y-70206911D01*
X178250500Y-67280817D01*
X194224500Y-67280817D01*
X194224500Y-67419182D01*
X194260312Y-67552835D01*
X194260313Y-67552838D01*
X194329492Y-67672661D01*
X194329494Y-67672664D01*
X194329495Y-67672665D01*
X194427335Y-67770505D01*
X194547164Y-67839688D01*
X194680817Y-67875500D01*
X194680819Y-67875500D01*
X194819181Y-67875500D01*
X194819183Y-67875500D01*
X194952836Y-67839688D01*
X195072665Y-67770505D01*
X195170505Y-67672665D01*
X195239688Y-67552836D01*
X195275500Y-67419183D01*
X195275500Y-67280817D01*
X195239688Y-67147164D01*
X195170505Y-67027335D01*
X195072665Y-66929495D01*
X195072664Y-66929494D01*
X195072661Y-66929492D01*
X194952838Y-66860313D01*
X194952837Y-66860312D01*
X194952836Y-66860312D01*
X194819183Y-66824500D01*
X194680817Y-66824500D01*
X194547164Y-66860312D01*
X194547161Y-66860313D01*
X194427338Y-66929492D01*
X194427333Y-66929496D01*
X194329496Y-67027333D01*
X194329492Y-67027338D01*
X194260313Y-67147161D01*
X194260312Y-67147164D01*
X194224500Y-67280817D01*
X178250500Y-67280817D01*
X178250500Y-65780817D01*
X182849500Y-65780817D01*
X182849500Y-65919183D01*
X182871915Y-66002835D01*
X182885312Y-66052835D01*
X182885313Y-66052838D01*
X182954492Y-66172661D01*
X182954494Y-66172664D01*
X182954495Y-66172665D01*
X183052335Y-66270505D01*
X183052336Y-66270506D01*
X183052338Y-66270507D01*
X183085559Y-66289687D01*
X183172164Y-66339688D01*
X183305817Y-66375500D01*
X183305819Y-66375500D01*
X183444181Y-66375500D01*
X183444183Y-66375500D01*
X183577836Y-66339688D01*
X183697665Y-66270505D01*
X183795505Y-66172665D01*
X183864688Y-66052836D01*
X183900500Y-65919183D01*
X183900500Y-65780817D01*
X183864688Y-65647164D01*
X183857485Y-65634688D01*
X183857485Y-65634687D01*
X183826383Y-65580817D01*
X188299500Y-65580817D01*
X188299500Y-65719183D01*
X188302618Y-65730817D01*
X188335312Y-65852835D01*
X188335313Y-65852838D01*
X188404492Y-65972661D01*
X188404494Y-65972664D01*
X188404495Y-65972665D01*
X188502335Y-66070505D01*
X188622164Y-66139688D01*
X188755817Y-66175500D01*
X188755819Y-66175500D01*
X188894181Y-66175500D01*
X188894183Y-66175500D01*
X189027836Y-66139688D01*
X189147665Y-66070505D01*
X189245505Y-65972665D01*
X189314688Y-65852836D01*
X189350500Y-65719183D01*
X189350500Y-65580817D01*
X189314688Y-65447164D01*
X189245505Y-65327335D01*
X189147665Y-65229495D01*
X189147664Y-65229494D01*
X189147661Y-65229492D01*
X189027838Y-65160313D01*
X189027837Y-65160312D01*
X189027836Y-65160312D01*
X188894183Y-65124500D01*
X188755817Y-65124500D01*
X188622164Y-65160312D01*
X188622161Y-65160313D01*
X188502338Y-65229492D01*
X188502333Y-65229496D01*
X188404496Y-65327333D01*
X188404492Y-65327338D01*
X188335313Y-65447161D01*
X188335312Y-65447164D01*
X188299500Y-65580817D01*
X183826383Y-65580817D01*
X183795509Y-65527341D01*
X183795503Y-65527333D01*
X183697666Y-65429496D01*
X183697661Y-65429492D01*
X183577838Y-65360313D01*
X183577837Y-65360312D01*
X183577836Y-65360312D01*
X183444183Y-65324500D01*
X183305817Y-65324500D01*
X183172164Y-65360312D01*
X183172161Y-65360313D01*
X183052338Y-65429492D01*
X183052333Y-65429496D01*
X182954496Y-65527333D01*
X182954492Y-65527338D01*
X182885313Y-65647161D01*
X182885312Y-65647164D01*
X182849500Y-65780817D01*
X178250500Y-65780817D01*
X178250500Y-64017255D01*
X178270185Y-63950216D01*
X178286819Y-63929574D01*
X180629574Y-61586819D01*
X180690897Y-61553334D01*
X180717255Y-61550500D01*
X183552154Y-61550500D01*
X183619193Y-61570185D01*
X183664948Y-61622989D01*
X183674892Y-61692147D01*
X183645867Y-61755703D01*
X183614154Y-61781887D01*
X183410045Y-61899730D01*
X183222802Y-62043406D01*
X183222795Y-62043412D01*
X183055912Y-62210295D01*
X183055906Y-62210302D01*
X182912230Y-62397545D01*
X182794219Y-62601943D01*
X182794214Y-62601954D01*
X182703894Y-62820006D01*
X182642806Y-63047989D01*
X182612001Y-63281979D01*
X182612000Y-63281995D01*
X182612000Y-63518004D01*
X182612001Y-63518020D01*
X182642806Y-63752010D01*
X182703894Y-63979993D01*
X182794214Y-64198045D01*
X182794219Y-64198056D01*
X182865177Y-64320957D01*
X182912227Y-64402450D01*
X182912229Y-64402453D01*
X182912230Y-64402454D01*
X183055906Y-64589697D01*
X183055912Y-64589704D01*
X183222795Y-64756587D01*
X183222801Y-64756592D01*
X183410050Y-64900273D01*
X183541418Y-64976118D01*
X183614443Y-65018280D01*
X183614448Y-65018282D01*
X183614451Y-65018284D01*
X183832507Y-65108606D01*
X184060486Y-65169693D01*
X184294489Y-65200500D01*
X184294496Y-65200500D01*
X184530504Y-65200500D01*
X184530511Y-65200500D01*
X184764514Y-65169693D01*
X184992493Y-65108606D01*
X185210549Y-65018284D01*
X185414950Y-64900273D01*
X185602199Y-64756592D01*
X185769092Y-64589699D01*
X185912773Y-64402450D01*
X186030784Y-64198049D01*
X186121106Y-63979993D01*
X186182193Y-63752014D01*
X186213000Y-63518011D01*
X186213000Y-63281989D01*
X186182193Y-63047986D01*
X186121106Y-62820007D01*
X186030784Y-62601951D01*
X186030782Y-62601948D01*
X186030780Y-62601943D01*
X185988618Y-62528918D01*
X185912773Y-62397550D01*
X185769092Y-62210301D01*
X185769087Y-62210295D01*
X185602204Y-62043412D01*
X185602197Y-62043406D01*
X185414954Y-61899730D01*
X185414953Y-61899729D01*
X185414950Y-61899727D01*
X185293822Y-61829794D01*
X185210846Y-61781887D01*
X185162630Y-61731320D01*
X185149408Y-61662713D01*
X185175376Y-61597848D01*
X185232290Y-61557320D01*
X185272846Y-61550500D01*
X185809459Y-61550500D01*
X185871459Y-61567113D01*
X185953025Y-61614204D01*
X185997164Y-61639688D01*
X186130817Y-61675500D01*
X186130819Y-61675500D01*
X186269181Y-61675500D01*
X186269183Y-61675500D01*
X186402836Y-61639688D01*
X186522665Y-61570505D01*
X186620505Y-61472665D01*
X186689688Y-61352836D01*
X186725500Y-61219183D01*
X186725500Y-61080817D01*
X186689688Y-60947164D01*
X186620505Y-60827335D01*
X186522665Y-60729495D01*
X186522664Y-60729494D01*
X186522661Y-60729492D01*
X186402838Y-60660313D01*
X186402837Y-60660312D01*
X186402836Y-60660312D01*
X186269183Y-60624500D01*
X186130817Y-60624500D01*
X185997164Y-60660312D01*
X185997161Y-60660313D01*
X185871459Y-60732887D01*
X185809459Y-60749500D01*
X181952205Y-60749500D01*
X181885166Y-60729815D01*
X181839411Y-60677011D01*
X181829467Y-60607853D01*
X181858492Y-60544297D01*
X181890203Y-60518113D01*
X181972665Y-60470505D01*
X182070505Y-60372665D01*
X182139688Y-60252836D01*
X182145588Y-60230817D01*
X192774500Y-60230817D01*
X192774500Y-60369183D01*
X192801649Y-60470503D01*
X192810312Y-60502835D01*
X192810313Y-60502838D01*
X192879492Y-60622661D01*
X192879494Y-60622664D01*
X192879495Y-60622665D01*
X192977335Y-60720505D01*
X193097164Y-60789688D01*
X193230817Y-60825500D01*
X193230819Y-60825500D01*
X193369181Y-60825500D01*
X193369183Y-60825500D01*
X193502836Y-60789688D01*
X193622665Y-60720505D01*
X193720505Y-60622665D01*
X193789688Y-60502836D01*
X193825500Y-60369183D01*
X193825500Y-60230817D01*
X193789688Y-60097164D01*
X193743374Y-60016945D01*
X193720507Y-59977338D01*
X193720503Y-59977333D01*
X193622666Y-59879496D01*
X193622661Y-59879492D01*
X193502838Y-59810313D01*
X193502837Y-59810312D01*
X193502836Y-59810312D01*
X193369183Y-59774500D01*
X193230817Y-59774500D01*
X193097164Y-59810312D01*
X193097161Y-59810313D01*
X192977338Y-59879492D01*
X192977333Y-59879496D01*
X192879496Y-59977333D01*
X192879492Y-59977338D01*
X192810313Y-60097161D01*
X192810312Y-60097164D01*
X192774500Y-60230817D01*
X182145588Y-60230817D01*
X182175500Y-60119183D01*
X182175500Y-59980817D01*
X182139688Y-59847164D01*
X182070505Y-59727335D01*
X181972665Y-59629495D01*
X181972664Y-59629494D01*
X181972661Y-59629492D01*
X181852838Y-59560313D01*
X181852837Y-59560312D01*
X181852836Y-59560312D01*
X181719183Y-59524500D01*
X181691255Y-59524500D01*
X181624216Y-59504815D01*
X181578461Y-59452011D01*
X181568517Y-59382853D01*
X181597542Y-59319297D01*
X181603574Y-59312819D01*
X183485576Y-57430817D01*
X186724500Y-57430817D01*
X186724500Y-57569183D01*
X186745156Y-57646270D01*
X186760312Y-57702835D01*
X186760313Y-57702838D01*
X186829492Y-57822661D01*
X186829494Y-57822664D01*
X186829495Y-57822665D01*
X186927335Y-57920505D01*
X186927336Y-57920506D01*
X186927338Y-57920507D01*
X186987249Y-57955096D01*
X187047164Y-57989688D01*
X187180817Y-58025500D01*
X187180819Y-58025500D01*
X187319181Y-58025500D01*
X187319183Y-58025500D01*
X187452836Y-57989688D01*
X187572665Y-57920505D01*
X187670505Y-57822665D01*
X187739688Y-57702836D01*
X187775500Y-57569183D01*
X187775500Y-57430817D01*
X187739688Y-57297164D01*
X187670505Y-57177335D01*
X187572665Y-57079495D01*
X187572664Y-57079494D01*
X187572661Y-57079492D01*
X187567736Y-57076649D01*
X187567735Y-57076648D01*
X187567734Y-57076648D01*
X187452838Y-57010313D01*
X187452837Y-57010312D01*
X187452836Y-57010312D01*
X187322348Y-56975348D01*
X188967500Y-56975348D01*
X188967500Y-57184651D01*
X189008329Y-57389912D01*
X189008331Y-57389920D01*
X189088423Y-57583280D01*
X189204703Y-57757306D01*
X189352693Y-57905296D01*
X189526719Y-58021576D01*
X189623399Y-58061622D01*
X189720080Y-58101669D01*
X189925348Y-58142499D01*
X189925352Y-58142500D01*
X189925353Y-58142500D01*
X190134648Y-58142500D01*
X190134649Y-58142499D01*
X190339920Y-58101669D01*
X190504964Y-58033304D01*
X190533280Y-58021576D01*
X190533280Y-58021575D01*
X190533282Y-58021575D01*
X190707304Y-57905298D01*
X190855298Y-57757304D01*
X190971575Y-57583282D01*
X190977416Y-57569182D01*
X191016646Y-57474471D01*
X191051669Y-57389920D01*
X191092500Y-57184647D01*
X191092500Y-56995348D01*
X191507500Y-56995348D01*
X191507500Y-57204651D01*
X191548329Y-57409912D01*
X191548331Y-57409920D01*
X191628423Y-57603280D01*
X191744703Y-57777306D01*
X191892693Y-57925296D01*
X192066719Y-58041576D01*
X192163399Y-58081622D01*
X192260080Y-58121669D01*
X192465348Y-58162499D01*
X192465352Y-58162500D01*
X192465353Y-58162500D01*
X192674648Y-58162500D01*
X192674649Y-58162499D01*
X192879920Y-58121669D01*
X193073282Y-58041575D01*
X193247304Y-57925298D01*
X193395298Y-57777304D01*
X193511575Y-57603282D01*
X193591669Y-57409920D01*
X193632500Y-57204647D01*
X193632500Y-56995353D01*
X193591669Y-56790080D01*
X193551622Y-56693399D01*
X193511576Y-56596719D01*
X193395296Y-56422693D01*
X193247306Y-56274703D01*
X193073280Y-56158423D01*
X192879920Y-56078331D01*
X192879912Y-56078329D01*
X192674651Y-56037500D01*
X192674647Y-56037500D01*
X192465353Y-56037500D01*
X192465348Y-56037500D01*
X192260087Y-56078329D01*
X192260079Y-56078331D01*
X192066719Y-56158423D01*
X191892693Y-56274703D01*
X191744703Y-56422693D01*
X191628423Y-56596719D01*
X191548331Y-56790079D01*
X191548329Y-56790087D01*
X191507500Y-56995348D01*
X191092500Y-56995348D01*
X191092500Y-56975353D01*
X191051669Y-56770080D01*
X190979860Y-56596719D01*
X190971576Y-56576719D01*
X190855296Y-56402693D01*
X190707306Y-56254703D01*
X190533280Y-56138423D01*
X190339920Y-56058331D01*
X190339912Y-56058329D01*
X190134651Y-56017500D01*
X190134647Y-56017500D01*
X189925353Y-56017500D01*
X189925348Y-56017500D01*
X189720087Y-56058329D01*
X189720079Y-56058331D01*
X189526719Y-56138423D01*
X189352693Y-56254703D01*
X189204703Y-56402693D01*
X189088423Y-56576719D01*
X189008331Y-56770079D01*
X189008329Y-56770087D01*
X188967500Y-56975348D01*
X187322348Y-56975348D01*
X187319183Y-56974500D01*
X187180817Y-56974500D01*
X187047164Y-57010312D01*
X187047161Y-57010313D01*
X186927338Y-57079492D01*
X186927333Y-57079496D01*
X186829496Y-57177333D01*
X186829492Y-57177338D01*
X186760313Y-57297161D01*
X186760312Y-57297164D01*
X186724500Y-57430817D01*
X183485576Y-57430817D01*
X183581384Y-57335009D01*
X183941893Y-56974500D01*
X184330480Y-56585913D01*
X184350842Y-56550645D01*
X184383207Y-56494587D01*
X184410500Y-56392727D01*
X184410500Y-55463159D01*
X184430185Y-55396120D01*
X184478202Y-55352675D01*
X184612994Y-55283996D01*
X184759501Y-55177553D01*
X184887553Y-55049501D01*
X184993996Y-54902994D01*
X185076211Y-54741639D01*
X185132171Y-54569409D01*
X185152408Y-54441636D01*
X185160500Y-54390551D01*
X185160500Y-54209448D01*
X185140733Y-54084648D01*
X185132171Y-54030591D01*
X185111057Y-53965609D01*
X185092203Y-53907579D01*
X185081731Y-53875348D01*
X188967500Y-53875348D01*
X188967500Y-54084651D01*
X189008329Y-54289912D01*
X189008331Y-54289920D01*
X189088423Y-54483280D01*
X189204703Y-54657306D01*
X189352693Y-54805296D01*
X189526719Y-54921576D01*
X189623399Y-54961622D01*
X189720080Y-55001669D01*
X189925348Y-55042499D01*
X189925352Y-55042500D01*
X189925353Y-55042500D01*
X190134648Y-55042500D01*
X190134649Y-55042499D01*
X190339920Y-55001669D01*
X190533282Y-54921575D01*
X190707304Y-54805298D01*
X190855298Y-54657304D01*
X190971575Y-54483282D01*
X191051669Y-54289920D01*
X191092500Y-54084647D01*
X191092500Y-53895348D01*
X191507500Y-53895348D01*
X191507500Y-54104651D01*
X191548329Y-54309912D01*
X191548331Y-54309920D01*
X191628423Y-54503280D01*
X191744703Y-54677306D01*
X191892693Y-54825296D01*
X192066719Y-54941576D01*
X192163399Y-54981622D01*
X192260080Y-55021669D01*
X192465348Y-55062499D01*
X192465352Y-55062500D01*
X192465353Y-55062500D01*
X192674648Y-55062500D01*
X192674649Y-55062499D01*
X192879920Y-55021669D01*
X193073282Y-54941575D01*
X193247304Y-54825298D01*
X193395298Y-54677304D01*
X193511575Y-54503282D01*
X193591669Y-54309920D01*
X193632500Y-54104647D01*
X193632500Y-53998435D01*
X194509500Y-53998435D01*
X194509500Y-54201565D01*
X194520246Y-54269409D01*
X194541277Y-54402194D01*
X194541277Y-54402197D01*
X194604045Y-54595377D01*
X194607928Y-54602997D01*
X194682572Y-54749494D01*
X194696268Y-54776372D01*
X194815656Y-54940697D01*
X194815660Y-54940702D01*
X194959297Y-55084339D01*
X194959302Y-55084343D01*
X195087596Y-55177553D01*
X195123631Y-55203734D01*
X195281153Y-55283996D01*
X195304622Y-55295954D01*
X195497803Y-55358722D01*
X195497804Y-55358722D01*
X195497807Y-55358723D01*
X195698435Y-55390500D01*
X195698436Y-55390500D01*
X195901564Y-55390500D01*
X195901565Y-55390500D01*
X196102193Y-55358723D01*
X196102196Y-55358722D01*
X196102197Y-55358722D01*
X196295377Y-55295954D01*
X196295377Y-55295953D01*
X196295380Y-55295953D01*
X196476369Y-55203734D01*
X196640704Y-55084338D01*
X196784338Y-54940704D01*
X196903734Y-54776369D01*
X196995953Y-54595380D01*
X197004391Y-54569410D01*
X197058722Y-54402197D01*
X197058722Y-54402196D01*
X197058723Y-54402193D01*
X197090500Y-54201565D01*
X197090500Y-53998435D01*
X197058723Y-53797807D01*
X197058722Y-53797803D01*
X197058722Y-53797802D01*
X196995954Y-53604622D01*
X196995953Y-53604620D01*
X196903734Y-53423631D01*
X196830401Y-53322696D01*
X196784343Y-53259302D01*
X196784339Y-53259297D01*
X196640702Y-53115660D01*
X196640697Y-53115656D01*
X196476372Y-52996268D01*
X196476371Y-52996267D01*
X196476369Y-52996266D01*
X196353748Y-52933787D01*
X196295377Y-52904045D01*
X196102196Y-52841277D01*
X195951722Y-52817444D01*
X195901565Y-52809500D01*
X195698435Y-52809500D01*
X195631559Y-52820092D01*
X195497805Y-52841277D01*
X195497802Y-52841277D01*
X195304622Y-52904045D01*
X195123627Y-52996268D01*
X194959302Y-53115656D01*
X194959297Y-53115660D01*
X194815660Y-53259297D01*
X194815656Y-53259302D01*
X194696268Y-53423627D01*
X194604045Y-53604622D01*
X194541277Y-53797802D01*
X194541277Y-53797805D01*
X194528606Y-53877806D01*
X194509500Y-53998435D01*
X193632500Y-53998435D01*
X193632500Y-53895353D01*
X193591669Y-53690080D01*
X193551622Y-53593399D01*
X193511576Y-53496719D01*
X193395296Y-53322693D01*
X193247306Y-53174703D01*
X193073280Y-53058423D01*
X192879920Y-52978331D01*
X192879912Y-52978329D01*
X192674651Y-52937500D01*
X192674647Y-52937500D01*
X192465353Y-52937500D01*
X192465348Y-52937500D01*
X192260087Y-52978329D01*
X192260079Y-52978331D01*
X192066719Y-53058423D01*
X191892693Y-53174703D01*
X191744703Y-53322693D01*
X191628423Y-53496719D01*
X191548331Y-53690079D01*
X191548329Y-53690087D01*
X191507500Y-53895348D01*
X191092500Y-53895348D01*
X191092500Y-53875353D01*
X191051669Y-53670080D01*
X191002137Y-53550500D01*
X190971576Y-53476719D01*
X190855296Y-53302693D01*
X190707306Y-53154703D01*
X190533280Y-53038423D01*
X190339920Y-52958331D01*
X190339912Y-52958329D01*
X190134651Y-52917500D01*
X190134647Y-52917500D01*
X189925353Y-52917500D01*
X189925348Y-52917500D01*
X189720087Y-52958329D01*
X189720079Y-52958331D01*
X189526719Y-53038423D01*
X189352693Y-53154703D01*
X189204703Y-53302693D01*
X189088423Y-53476719D01*
X189008331Y-53670079D01*
X189008329Y-53670087D01*
X188967500Y-53875348D01*
X185081731Y-53875348D01*
X185076212Y-53858363D01*
X185076211Y-53858360D01*
X185030284Y-53768225D01*
X184993996Y-53697006D01*
X184974433Y-53670080D01*
X184887558Y-53550505D01*
X184887554Y-53550500D01*
X184759499Y-53422445D01*
X184759494Y-53422441D01*
X184612997Y-53316006D01*
X184612996Y-53316005D01*
X184612994Y-53316004D01*
X184536906Y-53277235D01*
X184451639Y-53233788D01*
X184451636Y-53233787D01*
X184279410Y-53177829D01*
X184100551Y-53149500D01*
X184100546Y-53149500D01*
X183919454Y-53149500D01*
X183919449Y-53149500D01*
X183740589Y-53177829D01*
X183568363Y-53233787D01*
X183568360Y-53233788D01*
X183407002Y-53316006D01*
X183260505Y-53422441D01*
X183260500Y-53422445D01*
X183132445Y-53550500D01*
X183132441Y-53550505D01*
X183026006Y-53697002D01*
X182943788Y-53858360D01*
X182943787Y-53858363D01*
X182887829Y-54030589D01*
X182862473Y-54190678D01*
X182832544Y-54253813D01*
X182773232Y-54290744D01*
X182703369Y-54289746D01*
X182645137Y-54251136D01*
X182617527Y-54190678D01*
X182600733Y-54084648D01*
X182592171Y-54030591D01*
X182549740Y-53900000D01*
X182536212Y-53858363D01*
X182536211Y-53858360D01*
X182490284Y-53768225D01*
X182453996Y-53697006D01*
X182434433Y-53670080D01*
X182347558Y-53550505D01*
X182347554Y-53550500D01*
X182219499Y-53422445D01*
X182219494Y-53422441D01*
X182072997Y-53316006D01*
X182072996Y-53316005D01*
X182072994Y-53316004D01*
X181996906Y-53277235D01*
X181911639Y-53233788D01*
X181911636Y-53233787D01*
X181739410Y-53177829D01*
X181560551Y-53149500D01*
X181560546Y-53149500D01*
X181379454Y-53149500D01*
X181379449Y-53149500D01*
X181200589Y-53177829D01*
X181028363Y-53233787D01*
X181028360Y-53233788D01*
X180867002Y-53316006D01*
X180720505Y-53422441D01*
X180720500Y-53422445D01*
X180592445Y-53550500D01*
X180592441Y-53550505D01*
X180486006Y-53697002D01*
X180403788Y-53858360D01*
X180403787Y-53858363D01*
X180347829Y-54030589D01*
X180319500Y-54209448D01*
X180319500Y-54390551D01*
X180347829Y-54569410D01*
X180403787Y-54741636D01*
X180403788Y-54741639D01*
X180459664Y-54851300D01*
X180481857Y-54894856D01*
X180486006Y-54902997D01*
X180592441Y-55049494D01*
X180592445Y-55049499D01*
X180720500Y-55177554D01*
X180720505Y-55177558D01*
X180867001Y-55283993D01*
X180867003Y-55283994D01*
X180867006Y-55283996D01*
X181001796Y-55352675D01*
X181052591Y-55400648D01*
X181069500Y-55463159D01*
X181069500Y-57262745D01*
X181049815Y-57329784D01*
X181033181Y-57350426D01*
X175329522Y-63054084D01*
X175329518Y-63054090D01*
X175276792Y-63145412D01*
X175276793Y-63145413D01*
X175249500Y-63247273D01*
X175249500Y-68724923D01*
X175229815Y-68791962D01*
X175177011Y-68837717D01*
X175107853Y-68847661D01*
X175044297Y-68818636D01*
X175006523Y-68759858D01*
X175005725Y-68757017D01*
X174997125Y-68724923D01*
X174989688Y-68697164D01*
X174920505Y-68577335D01*
X174822665Y-68479495D01*
X174822664Y-68479494D01*
X174822661Y-68479492D01*
X174702838Y-68410313D01*
X174702837Y-68410312D01*
X174702836Y-68410312D01*
X174569183Y-68374500D01*
X174430817Y-68374500D01*
X174297164Y-68410312D01*
X174297161Y-68410313D01*
X174177338Y-68479492D01*
X174177333Y-68479496D01*
X174079496Y-68577333D01*
X174079492Y-68577338D01*
X174010313Y-68697161D01*
X174010313Y-68697162D01*
X174010312Y-68697164D01*
X173974500Y-68830817D01*
X173974500Y-68969183D01*
X174009014Y-69097989D01*
X174010312Y-69102835D01*
X174010313Y-69102838D01*
X174079492Y-69222661D01*
X174079494Y-69222664D01*
X174079495Y-69222665D01*
X174177335Y-69320505D01*
X174297164Y-69389688D01*
X174430817Y-69425500D01*
X174430819Y-69425500D01*
X174569181Y-69425500D01*
X174569183Y-69425500D01*
X174702836Y-69389688D01*
X174822665Y-69320505D01*
X174920505Y-69222665D01*
X174989688Y-69102836D01*
X175005725Y-69042981D01*
X175042090Y-68983322D01*
X175104937Y-68952793D01*
X175174312Y-68961088D01*
X175228190Y-69005573D01*
X175249465Y-69072125D01*
X175249500Y-69075076D01*
X175249500Y-72513010D01*
X175229815Y-72580049D01*
X175177011Y-72625804D01*
X175107853Y-72635748D01*
X175093407Y-72632785D01*
X175009534Y-72610312D01*
X174969183Y-72599500D01*
X174830817Y-72599500D01*
X174697164Y-72635312D01*
X174697161Y-72635313D01*
X174577338Y-72704492D01*
X174577333Y-72704496D01*
X174479496Y-72802333D01*
X174479492Y-72802338D01*
X174410313Y-72922161D01*
X174410312Y-72922164D01*
X174374500Y-73055817D01*
X174374500Y-73194183D01*
X174405617Y-73310312D01*
X174410312Y-73327835D01*
X174410313Y-73327838D01*
X174479492Y-73447661D01*
X174479494Y-73447664D01*
X174479495Y-73447665D01*
X174577335Y-73545505D01*
X174697164Y-73614688D01*
X174830817Y-73650500D01*
X174830819Y-73650500D01*
X174969180Y-73650500D01*
X174969183Y-73650500D01*
X175087612Y-73618767D01*
X175157458Y-73620430D01*
X175215321Y-73659592D01*
X175242825Y-73723820D01*
X175231239Y-73792723D01*
X175207383Y-73826223D01*
X172510124Y-76523482D01*
X172448801Y-76556967D01*
X172379109Y-76551983D01*
X172323176Y-76510111D01*
X172315056Y-76497801D01*
X172245507Y-76377338D01*
X172245503Y-76377333D01*
X172147666Y-76279496D01*
X172147661Y-76279492D01*
X172027838Y-76210313D01*
X172027837Y-76210312D01*
X172027836Y-76210312D01*
X171894183Y-76174500D01*
X171755817Y-76174500D01*
X171622164Y-76210312D01*
X171622161Y-76210313D01*
X171502338Y-76279492D01*
X171502333Y-76279496D01*
X171404496Y-76377333D01*
X171404492Y-76377338D01*
X171335313Y-76497161D01*
X171335312Y-76497164D01*
X171299500Y-76630817D01*
X171299500Y-76769183D01*
X171331501Y-76888611D01*
X171335312Y-76902835D01*
X171335313Y-76902838D01*
X171404492Y-77022661D01*
X171404494Y-77022664D01*
X171404495Y-77022665D01*
X171502335Y-77120505D01*
X171502336Y-77120506D01*
X171502338Y-77120507D01*
X171622801Y-77190056D01*
X171671016Y-77240623D01*
X171684240Y-77309230D01*
X171658272Y-77374094D01*
X171648482Y-77385124D01*
X170975973Y-78057633D01*
X170914650Y-78091118D01*
X170844958Y-78086134D01*
X170789025Y-78044262D01*
X170780910Y-78031960D01*
X170720505Y-77927335D01*
X170622665Y-77829495D01*
X170622664Y-77829494D01*
X170622661Y-77829492D01*
X170502838Y-77760313D01*
X170502837Y-77760312D01*
X170502836Y-77760312D01*
X170369183Y-77724500D01*
X170230817Y-77724500D01*
X170097164Y-77760312D01*
X170097161Y-77760313D01*
X169977338Y-77829492D01*
X169977333Y-77829496D01*
X169879496Y-77927333D01*
X169879492Y-77927338D01*
X169810464Y-78046899D01*
X169759897Y-78095115D01*
X169691290Y-78108337D01*
X169627588Y-78083273D01*
X169622661Y-78079492D01*
X169502838Y-78010313D01*
X169502837Y-78010312D01*
X169502836Y-78010312D01*
X169369183Y-77974500D01*
X169230817Y-77974500D01*
X169097164Y-78010312D01*
X169097161Y-78010313D01*
X168977338Y-78079492D01*
X168977333Y-78079496D01*
X168879496Y-78177333D01*
X168879492Y-78177338D01*
X168810313Y-78297161D01*
X168810310Y-78297168D01*
X168798279Y-78342068D01*
X168761913Y-78401728D01*
X168699066Y-78432256D01*
X168629691Y-78423961D01*
X168590824Y-78397654D01*
X168522666Y-78329496D01*
X168522661Y-78329492D01*
X168402838Y-78260313D01*
X168402837Y-78260312D01*
X168402836Y-78260312D01*
X168269183Y-78224500D01*
X168130817Y-78224500D01*
X167997164Y-78260312D01*
X167997161Y-78260313D01*
X167877338Y-78329492D01*
X167877333Y-78329496D01*
X167779494Y-78427335D01*
X167762925Y-78456035D01*
X167712358Y-78504250D01*
X167643750Y-78517472D01*
X167578886Y-78491504D01*
X167538358Y-78434590D01*
X167531538Y-78394034D01*
X167531538Y-77799070D01*
X167551223Y-77732031D01*
X167604027Y-77686276D01*
X167673185Y-77676332D01*
X167736741Y-77705357D01*
X167743219Y-77711389D01*
X167752335Y-77720505D01*
X167752336Y-77720506D01*
X167752338Y-77720507D01*
X167812249Y-77755096D01*
X167872164Y-77789688D01*
X168005817Y-77825500D01*
X168005819Y-77825500D01*
X168144181Y-77825500D01*
X168144183Y-77825500D01*
X168277836Y-77789688D01*
X168397665Y-77720505D01*
X168495505Y-77622665D01*
X168564688Y-77502836D01*
X168600500Y-77369183D01*
X168600500Y-77230817D01*
X168564688Y-77097164D01*
X168495505Y-76977335D01*
X168397665Y-76879495D01*
X168397664Y-76879494D01*
X168397661Y-76879492D01*
X168277838Y-76810313D01*
X168277837Y-76810312D01*
X168277836Y-76810312D01*
X168144183Y-76774500D01*
X168005817Y-76774500D01*
X167872164Y-76810312D01*
X167872161Y-76810313D01*
X167752338Y-76879492D01*
X167752333Y-76879496D01*
X167743219Y-76888611D01*
X167681896Y-76922096D01*
X167612204Y-76917112D01*
X167556271Y-76875240D01*
X167531854Y-76809776D01*
X167531538Y-76800930D01*
X167531538Y-73680817D01*
X170474500Y-73680817D01*
X170474500Y-73819183D01*
X170509757Y-73950762D01*
X170510312Y-73952835D01*
X170510313Y-73952838D01*
X170579492Y-74072661D01*
X170579494Y-74072664D01*
X170579495Y-74072665D01*
X170677335Y-74170505D01*
X170797164Y-74239688D01*
X170930817Y-74275500D01*
X170930819Y-74275500D01*
X171069181Y-74275500D01*
X171069183Y-74275500D01*
X171202836Y-74239688D01*
X171322665Y-74170505D01*
X171420505Y-74072665D01*
X171489688Y-73952836D01*
X171525500Y-73819183D01*
X171525500Y-73730817D01*
X172024500Y-73730817D01*
X172024500Y-73869183D01*
X172058798Y-73997183D01*
X172060312Y-74002835D01*
X172060313Y-74002838D01*
X172129492Y-74122661D01*
X172129494Y-74122664D01*
X172129495Y-74122665D01*
X172227335Y-74220505D01*
X172227336Y-74220506D01*
X172227338Y-74220507D01*
X172260559Y-74239687D01*
X172347164Y-74289688D01*
X172480817Y-74325500D01*
X172480819Y-74325500D01*
X172619181Y-74325500D01*
X172619183Y-74325500D01*
X172752836Y-74289688D01*
X172872665Y-74220505D01*
X172970505Y-74122665D01*
X173039688Y-74002836D01*
X173075500Y-73869183D01*
X173075500Y-73730817D01*
X173039688Y-73597164D01*
X172970505Y-73477335D01*
X172872665Y-73379495D01*
X172872664Y-73379494D01*
X172872661Y-73379492D01*
X172752838Y-73310313D01*
X172752837Y-73310312D01*
X172752836Y-73310312D01*
X172619183Y-73274500D01*
X172480817Y-73274500D01*
X172347164Y-73310312D01*
X172347161Y-73310313D01*
X172227338Y-73379492D01*
X172227333Y-73379496D01*
X172129496Y-73477333D01*
X172129492Y-73477338D01*
X172060313Y-73597161D01*
X172060312Y-73597164D01*
X172024500Y-73730817D01*
X171525500Y-73730817D01*
X171525500Y-73680817D01*
X171489688Y-73547164D01*
X171432243Y-73447666D01*
X171420507Y-73427338D01*
X171420503Y-73427333D01*
X171322666Y-73329496D01*
X171322661Y-73329492D01*
X171202838Y-73260313D01*
X171202837Y-73260312D01*
X171202836Y-73260312D01*
X171069183Y-73224500D01*
X170930817Y-73224500D01*
X170797164Y-73260312D01*
X170797161Y-73260313D01*
X170677338Y-73329492D01*
X170677333Y-73329496D01*
X170579496Y-73427333D01*
X170579492Y-73427338D01*
X170510313Y-73547161D01*
X170510312Y-73547164D01*
X170474500Y-73680817D01*
X167531538Y-73680817D01*
X167531538Y-71305817D01*
X170749500Y-71305817D01*
X170749500Y-71444183D01*
X170771018Y-71524487D01*
X170785312Y-71577835D01*
X170785313Y-71577838D01*
X170854492Y-71697661D01*
X170854494Y-71697664D01*
X170854495Y-71697665D01*
X170952335Y-71795505D01*
X171072164Y-71864688D01*
X171205817Y-71900500D01*
X171205819Y-71900500D01*
X171344181Y-71900500D01*
X171344183Y-71900500D01*
X171477836Y-71864688D01*
X171597665Y-71795505D01*
X171695505Y-71697665D01*
X171705232Y-71680817D01*
X173324500Y-71680817D01*
X173324500Y-71819183D01*
X173346289Y-71900499D01*
X173360312Y-71952835D01*
X173360313Y-71952838D01*
X173429492Y-72072661D01*
X173429494Y-72072664D01*
X173429495Y-72072665D01*
X173527335Y-72170505D01*
X173527336Y-72170506D01*
X173527338Y-72170507D01*
X173570652Y-72195514D01*
X173647164Y-72239688D01*
X173780817Y-72275500D01*
X173780819Y-72275500D01*
X173919181Y-72275500D01*
X173919183Y-72275500D01*
X174052836Y-72239688D01*
X174172665Y-72170505D01*
X174270505Y-72072665D01*
X174339688Y-71952836D01*
X174375500Y-71819183D01*
X174375500Y-71680817D01*
X174339688Y-71547164D01*
X174270505Y-71427335D01*
X174172665Y-71329495D01*
X174172664Y-71329494D01*
X174172661Y-71329492D01*
X174052838Y-71260313D01*
X174052837Y-71260312D01*
X174052836Y-71260312D01*
X173919183Y-71224500D01*
X173780817Y-71224500D01*
X173647164Y-71260312D01*
X173647161Y-71260313D01*
X173527338Y-71329492D01*
X173527333Y-71329496D01*
X173429496Y-71427333D01*
X173429492Y-71427338D01*
X173360313Y-71547161D01*
X173360312Y-71547164D01*
X173324500Y-71680817D01*
X171705232Y-71680817D01*
X171764688Y-71577836D01*
X171800500Y-71444183D01*
X171800500Y-71305817D01*
X171764688Y-71172164D01*
X171695505Y-71052335D01*
X171597665Y-70954495D01*
X171597664Y-70954494D01*
X171597661Y-70954492D01*
X171477838Y-70885313D01*
X171477837Y-70885312D01*
X171477836Y-70885312D01*
X171344183Y-70849500D01*
X171205817Y-70849500D01*
X171072164Y-70885312D01*
X171072161Y-70885313D01*
X170952338Y-70954492D01*
X170952333Y-70954496D01*
X170854496Y-71052333D01*
X170854492Y-71052338D01*
X170785313Y-71172161D01*
X170785312Y-71172164D01*
X170749500Y-71305817D01*
X167531538Y-71305817D01*
X167531538Y-69378313D01*
X167531538Y-69378311D01*
X167504245Y-69276451D01*
X167504245Y-69276450D01*
X167451518Y-69185125D01*
X166570913Y-68304520D01*
X166525250Y-68278156D01*
X166479589Y-68251793D01*
X166428657Y-68238146D01*
X166377727Y-68224500D01*
X161777727Y-68224500D01*
X161672273Y-68224500D01*
X161570410Y-68251793D01*
X161479087Y-68304520D01*
X161479084Y-68304522D01*
X159888569Y-69895037D01*
X159827246Y-69928522D01*
X159757554Y-69923538D01*
X159713207Y-69895037D01*
X159622666Y-69804496D01*
X159622661Y-69804492D01*
X159502838Y-69735313D01*
X159502837Y-69735312D01*
X159502836Y-69735312D01*
X159369183Y-69699500D01*
X159230817Y-69699500D01*
X159097164Y-69735312D01*
X159097161Y-69735313D01*
X158977338Y-69804492D01*
X158977333Y-69804496D01*
X158879496Y-69902333D01*
X158879492Y-69902338D01*
X158810313Y-70022161D01*
X158810312Y-70022162D01*
X158772745Y-70162368D01*
X158740651Y-70217955D01*
X158222181Y-70736426D01*
X158160858Y-70769911D01*
X158091167Y-70764927D01*
X158035233Y-70723056D01*
X158010816Y-70657591D01*
X158010500Y-70648745D01*
X158010500Y-66380817D01*
X162999500Y-66380817D01*
X162999500Y-66519183D01*
X163012898Y-66569183D01*
X163035312Y-66652835D01*
X163035313Y-66652838D01*
X163104492Y-66772661D01*
X163104494Y-66772664D01*
X163104495Y-66772665D01*
X163202335Y-66870505D01*
X163322164Y-66939688D01*
X163455817Y-66975500D01*
X163455819Y-66975500D01*
X163594181Y-66975500D01*
X163594183Y-66975500D01*
X163727836Y-66939688D01*
X163847665Y-66870505D01*
X163945505Y-66772665D01*
X164014688Y-66652836D01*
X164050500Y-66519183D01*
X164050500Y-66380817D01*
X164014688Y-66247164D01*
X163978700Y-66184831D01*
X163945507Y-66127338D01*
X163945503Y-66127333D01*
X163847666Y-66029496D01*
X163847661Y-66029492D01*
X163727838Y-65960313D01*
X163727837Y-65960312D01*
X163727836Y-65960312D01*
X163594183Y-65924500D01*
X163455817Y-65924500D01*
X163322164Y-65960312D01*
X163322161Y-65960313D01*
X163202338Y-66029492D01*
X163202333Y-66029496D01*
X163104496Y-66127333D01*
X163104492Y-66127338D01*
X163035313Y-66247161D01*
X163035312Y-66247164D01*
X162999500Y-66380817D01*
X158010500Y-66380817D01*
X158010500Y-65580817D01*
X167349500Y-65580817D01*
X167349500Y-65719183D01*
X167352618Y-65730817D01*
X167385312Y-65852835D01*
X167385313Y-65852838D01*
X167454492Y-65972661D01*
X167454496Y-65972666D01*
X167525526Y-66043696D01*
X167559011Y-66105019D01*
X167554027Y-66174711D01*
X167545233Y-66193376D01*
X167485312Y-66297163D01*
X167485312Y-66297164D01*
X167449500Y-66430817D01*
X167449500Y-66569183D01*
X167471915Y-66652835D01*
X167485312Y-66702835D01*
X167485313Y-66702838D01*
X167554492Y-66822661D01*
X167554494Y-66822664D01*
X167554495Y-66822665D01*
X167652335Y-66920505D01*
X167652336Y-66920506D01*
X167652338Y-66920507D01*
X167685559Y-66939687D01*
X167772164Y-66989688D01*
X167905817Y-67025500D01*
X167905819Y-67025500D01*
X168044181Y-67025500D01*
X168044183Y-67025500D01*
X168177836Y-66989688D01*
X168297665Y-66920505D01*
X168395505Y-66822665D01*
X168464688Y-66702836D01*
X168500500Y-66569183D01*
X168500500Y-66449500D01*
X168520185Y-66382461D01*
X168572989Y-66336706D01*
X168624500Y-66325500D01*
X168644181Y-66325500D01*
X168644183Y-66325500D01*
X168777836Y-66289688D01*
X168897665Y-66220505D01*
X168995505Y-66122665D01*
X169064688Y-66002836D01*
X169100500Y-65869183D01*
X169100500Y-65730817D01*
X169064688Y-65597164D01*
X168995505Y-65477335D01*
X168897665Y-65379495D01*
X168897664Y-65379494D01*
X168897661Y-65379492D01*
X168777838Y-65310313D01*
X168777837Y-65310312D01*
X168777836Y-65310312D01*
X168644183Y-65274500D01*
X168505817Y-65274500D01*
X168367430Y-65311580D01*
X168297580Y-65309917D01*
X168247656Y-65279486D01*
X168197666Y-65229496D01*
X168197661Y-65229492D01*
X168077838Y-65160313D01*
X168077837Y-65160312D01*
X168077836Y-65160312D01*
X167944183Y-65124500D01*
X167805817Y-65124500D01*
X167672164Y-65160312D01*
X167672161Y-65160313D01*
X167552338Y-65229492D01*
X167552333Y-65229496D01*
X167454496Y-65327333D01*
X167454492Y-65327338D01*
X167385313Y-65447161D01*
X167385312Y-65447164D01*
X167349500Y-65580817D01*
X158010500Y-65580817D01*
X158010500Y-63281995D01*
X160612000Y-63281995D01*
X160612000Y-63518004D01*
X160612001Y-63518020D01*
X160642806Y-63752010D01*
X160703894Y-63979993D01*
X160794214Y-64198045D01*
X160794219Y-64198056D01*
X160865177Y-64320957D01*
X160912227Y-64402450D01*
X160912229Y-64402453D01*
X160912230Y-64402454D01*
X161055906Y-64589697D01*
X161055912Y-64589704D01*
X161222795Y-64756587D01*
X161222801Y-64756592D01*
X161410050Y-64900273D01*
X161541418Y-64976118D01*
X161614443Y-65018280D01*
X161614448Y-65018282D01*
X161614451Y-65018284D01*
X161832507Y-65108606D01*
X162060486Y-65169693D01*
X162294489Y-65200500D01*
X162294496Y-65200500D01*
X162530504Y-65200500D01*
X162530511Y-65200500D01*
X162764514Y-65169693D01*
X162992493Y-65108606D01*
X163210549Y-65018284D01*
X163414950Y-64900273D01*
X163602199Y-64756592D01*
X163769092Y-64589699D01*
X163912773Y-64402450D01*
X164030784Y-64198049D01*
X164121106Y-63979993D01*
X164182193Y-63752014D01*
X164213000Y-63518011D01*
X164213000Y-63281989D01*
X164182193Y-63047986D01*
X164121106Y-62820007D01*
X164030784Y-62601951D01*
X164030782Y-62601948D01*
X164030780Y-62601943D01*
X163988618Y-62528918D01*
X163912773Y-62397550D01*
X163769092Y-62210301D01*
X163769087Y-62210295D01*
X163602204Y-62043412D01*
X163602197Y-62043406D01*
X163414954Y-61899730D01*
X163414953Y-61899729D01*
X163414950Y-61899727D01*
X163333457Y-61852677D01*
X163210556Y-61781719D01*
X163210545Y-61781714D01*
X162992493Y-61691394D01*
X162799524Y-61639688D01*
X162764514Y-61630307D01*
X162764513Y-61630306D01*
X162764510Y-61630306D01*
X162530520Y-61599501D01*
X162530517Y-61599500D01*
X162530511Y-61599500D01*
X162294489Y-61599500D01*
X162294483Y-61599500D01*
X162294479Y-61599501D01*
X162060489Y-61630306D01*
X161832506Y-61691394D01*
X161614454Y-61781714D01*
X161614443Y-61781719D01*
X161410045Y-61899730D01*
X161222802Y-62043406D01*
X161222795Y-62043412D01*
X161055912Y-62210295D01*
X161055906Y-62210302D01*
X160912230Y-62397545D01*
X160794219Y-62601943D01*
X160794214Y-62601954D01*
X160703894Y-62820006D01*
X160642806Y-63047989D01*
X160612001Y-63281979D01*
X160612000Y-63281995D01*
X158010500Y-63281995D01*
X158010500Y-59430817D01*
X165249500Y-59430817D01*
X165249500Y-59569183D01*
X165271915Y-59652835D01*
X165285312Y-59702835D01*
X165285313Y-59702838D01*
X165354492Y-59822661D01*
X165354494Y-59822664D01*
X165354495Y-59822665D01*
X165452335Y-59920505D01*
X165452336Y-59920506D01*
X165452338Y-59920507D01*
X165485559Y-59939687D01*
X165572164Y-59989688D01*
X165705817Y-60025500D01*
X165705819Y-60025500D01*
X165844181Y-60025500D01*
X165844183Y-60025500D01*
X165977836Y-59989688D01*
X166097665Y-59920505D01*
X166195505Y-59822665D01*
X166264688Y-59702836D01*
X166300500Y-59569183D01*
X166300500Y-59430817D01*
X166287103Y-59380817D01*
X168349500Y-59380817D01*
X168349500Y-59519183D01*
X168362898Y-59569183D01*
X168385312Y-59652835D01*
X168385313Y-59652838D01*
X168454492Y-59772661D01*
X168454494Y-59772664D01*
X168454495Y-59772665D01*
X168552335Y-59870505D01*
X168672164Y-59939688D01*
X168805817Y-59975500D01*
X168805819Y-59975500D01*
X168944181Y-59975500D01*
X168944183Y-59975500D01*
X169077836Y-59939688D01*
X169197665Y-59870505D01*
X169295505Y-59772665D01*
X169364688Y-59652836D01*
X169400500Y-59519183D01*
X169400500Y-59380817D01*
X169364688Y-59247164D01*
X169355250Y-59230817D01*
X174324500Y-59230817D01*
X174324500Y-59369183D01*
X174327618Y-59380817D01*
X174360312Y-59502835D01*
X174360313Y-59502838D01*
X174429492Y-59622661D01*
X174429494Y-59622664D01*
X174429495Y-59622665D01*
X174527335Y-59720505D01*
X174647164Y-59789688D01*
X174780817Y-59825500D01*
X174780819Y-59825500D01*
X174919181Y-59825500D01*
X174919183Y-59825500D01*
X175052836Y-59789688D01*
X175172665Y-59720505D01*
X175270505Y-59622665D01*
X175339688Y-59502836D01*
X175375500Y-59369183D01*
X175375500Y-59230817D01*
X175339688Y-59097164D01*
X175270505Y-58977335D01*
X175172665Y-58879495D01*
X175172664Y-58879494D01*
X175172661Y-58879492D01*
X175052838Y-58810313D01*
X175052837Y-58810312D01*
X175052836Y-58810312D01*
X174919183Y-58774500D01*
X174780817Y-58774500D01*
X174647164Y-58810312D01*
X174647161Y-58810313D01*
X174527338Y-58879492D01*
X174527333Y-58879496D01*
X174429496Y-58977333D01*
X174429492Y-58977338D01*
X174360313Y-59097161D01*
X174360312Y-59097164D01*
X174324500Y-59230817D01*
X169355250Y-59230817D01*
X169295505Y-59127335D01*
X169197665Y-59029495D01*
X169197664Y-59029494D01*
X169197661Y-59029492D01*
X169077838Y-58960313D01*
X169077837Y-58960312D01*
X169077836Y-58960312D01*
X168944183Y-58924500D01*
X168805817Y-58924500D01*
X168672164Y-58960312D01*
X168672161Y-58960313D01*
X168552338Y-59029492D01*
X168552333Y-59029496D01*
X168454496Y-59127333D01*
X168454492Y-59127338D01*
X168385313Y-59247161D01*
X168385312Y-59247164D01*
X168349500Y-59380817D01*
X166287103Y-59380817D01*
X166264688Y-59297164D01*
X166195505Y-59177335D01*
X166097665Y-59079495D01*
X166097664Y-59079494D01*
X166097661Y-59079492D01*
X165977838Y-59010313D01*
X165977837Y-59010312D01*
X165977836Y-59010312D01*
X165844183Y-58974500D01*
X165705817Y-58974500D01*
X165572164Y-59010312D01*
X165572161Y-59010313D01*
X165452338Y-59079492D01*
X165452333Y-59079496D01*
X165354496Y-59177333D01*
X165354492Y-59177338D01*
X165285313Y-59297161D01*
X165285312Y-59297164D01*
X165249500Y-59430817D01*
X158010500Y-59430817D01*
X158010500Y-56380148D01*
X167094500Y-56380148D01*
X167094500Y-56584852D01*
X167096380Y-56596719D01*
X167126522Y-56787034D01*
X167189781Y-56981723D01*
X167282715Y-57164113D01*
X167403028Y-57329713D01*
X167547786Y-57474471D01*
X167678146Y-57569181D01*
X167713390Y-57594787D01*
X167791504Y-57634588D01*
X167895776Y-57687718D01*
X167895778Y-57687718D01*
X167895781Y-57687720D01*
X167985465Y-57716860D01*
X168090465Y-57750977D01*
X168191557Y-57766988D01*
X168292648Y-57783000D01*
X168292649Y-57783000D01*
X168497351Y-57783000D01*
X168497352Y-57783000D01*
X168699534Y-57750977D01*
X168894219Y-57687720D01*
X169076610Y-57594787D01*
X169169590Y-57527232D01*
X169242213Y-57474471D01*
X169242215Y-57474468D01*
X169242219Y-57474466D01*
X169386966Y-57329719D01*
X169386968Y-57329715D01*
X169386971Y-57329713D01*
X169477832Y-57204651D01*
X169507287Y-57164110D01*
X169600220Y-56981719D01*
X169663477Y-56787034D01*
X169695500Y-56584852D01*
X169695500Y-56380148D01*
X169663477Y-56177966D01*
X169650629Y-56138425D01*
X169624605Y-56058331D01*
X169600220Y-55983281D01*
X169600218Y-55983278D01*
X169600218Y-55983276D01*
X169566503Y-55917107D01*
X169507287Y-55800890D01*
X169499556Y-55790249D01*
X169386971Y-55635286D01*
X169242213Y-55490528D01*
X169076613Y-55370215D01*
X169076612Y-55370214D01*
X169076610Y-55370213D01*
X169019653Y-55341191D01*
X168894223Y-55277281D01*
X168699534Y-55214022D01*
X168524995Y-55186378D01*
X168497352Y-55182000D01*
X168292648Y-55182000D01*
X168268329Y-55185851D01*
X168090465Y-55214022D01*
X167895776Y-55277281D01*
X167713386Y-55370215D01*
X167547786Y-55490528D01*
X167403028Y-55635286D01*
X167282715Y-55800886D01*
X167189781Y-55983276D01*
X167126522Y-56177965D01*
X167111201Y-56274702D01*
X167094500Y-56380148D01*
X158010500Y-56380148D01*
X158010500Y-53998435D01*
X158709500Y-53998435D01*
X158709500Y-54201565D01*
X158720246Y-54269409D01*
X158741277Y-54402194D01*
X158741277Y-54402197D01*
X158804045Y-54595377D01*
X158807928Y-54602997D01*
X158882572Y-54749494D01*
X158896268Y-54776372D01*
X159015656Y-54940697D01*
X159015660Y-54940702D01*
X159159297Y-55084339D01*
X159159302Y-55084343D01*
X159287596Y-55177553D01*
X159323631Y-55203734D01*
X159481153Y-55283996D01*
X159504622Y-55295954D01*
X159697803Y-55358722D01*
X159697804Y-55358722D01*
X159697807Y-55358723D01*
X159898435Y-55390500D01*
X159898436Y-55390500D01*
X160101564Y-55390500D01*
X160101565Y-55390500D01*
X160302193Y-55358723D01*
X160302196Y-55358722D01*
X160302197Y-55358722D01*
X160495377Y-55295954D01*
X160495377Y-55295953D01*
X160495380Y-55295953D01*
X160676369Y-55203734D01*
X160840704Y-55084338D01*
X160984338Y-54940704D01*
X161103734Y-54776369D01*
X161195953Y-54595380D01*
X161204391Y-54569410D01*
X161258722Y-54402197D01*
X161258722Y-54402196D01*
X161258723Y-54402193D01*
X161290500Y-54201565D01*
X161290500Y-53998435D01*
X161276406Y-53909448D01*
X168537002Y-53909448D01*
X168537002Y-54090551D01*
X168565331Y-54269410D01*
X168621289Y-54441636D01*
X168621290Y-54441639D01*
X168677166Y-54551300D01*
X168699626Y-54595380D01*
X168703508Y-54602997D01*
X168809943Y-54749494D01*
X168809947Y-54749499D01*
X168938002Y-54877554D01*
X168938007Y-54877558D01*
X169065789Y-54970396D01*
X169084508Y-54983996D01*
X169160596Y-55022765D01*
X169245862Y-55066211D01*
X169245865Y-55066212D01*
X169301653Y-55084338D01*
X169418093Y-55122171D01*
X169500931Y-55135291D01*
X169596951Y-55150500D01*
X169596956Y-55150500D01*
X169778053Y-55150500D01*
X169866788Y-55136445D01*
X169956911Y-55122171D01*
X170129141Y-55066211D01*
X170290496Y-54983996D01*
X170437003Y-54877553D01*
X170565055Y-54749501D01*
X170671498Y-54602994D01*
X170753713Y-54441639D01*
X170809673Y-54269409D01*
X170830529Y-54137729D01*
X170860458Y-54074595D01*
X170919769Y-54037663D01*
X170989632Y-54038661D01*
X171047865Y-54077271D01*
X171075979Y-54141234D01*
X171077002Y-54157127D01*
X171077002Y-54894856D01*
X171077004Y-54894882D01*
X171079915Y-54919987D01*
X171079917Y-54919991D01*
X171125295Y-55022764D01*
X171177653Y-55075122D01*
X171211138Y-55136445D01*
X171206154Y-55206137D01*
X171164898Y-55261607D01*
X171062076Y-55339579D01*
X170970639Y-55460156D01*
X170915122Y-55600938D01*
X170910998Y-55635286D01*
X170904500Y-55689398D01*
X170904500Y-57275602D01*
X170909124Y-57314107D01*
X170915122Y-57364061D01*
X170970639Y-57504843D01*
X171062077Y-57625422D01*
X171182656Y-57716860D01*
X171182657Y-57716860D01*
X171182658Y-57716861D01*
X171323436Y-57772377D01*
X171411898Y-57783000D01*
X171411903Y-57783000D01*
X172998097Y-57783000D01*
X172998102Y-57783000D01*
X173086564Y-57772377D01*
X173227342Y-57716861D01*
X173347922Y-57625422D01*
X173439361Y-57504842D01*
X173494877Y-57364064D01*
X173504874Y-57280817D01*
X176024500Y-57280817D01*
X176024500Y-57419183D01*
X176047453Y-57504843D01*
X176060312Y-57552835D01*
X176060313Y-57552838D01*
X176129492Y-57672661D01*
X176129494Y-57672664D01*
X176129495Y-57672665D01*
X176227335Y-57770505D01*
X176227336Y-57770506D01*
X176227338Y-57770507D01*
X176248977Y-57783000D01*
X176347164Y-57839688D01*
X176480817Y-57875500D01*
X176480819Y-57875500D01*
X176619181Y-57875500D01*
X176619183Y-57875500D01*
X176752836Y-57839688D01*
X176872665Y-57770505D01*
X176970505Y-57672665D01*
X177039688Y-57552836D01*
X177075500Y-57419183D01*
X177075500Y-57280817D01*
X177039688Y-57147164D01*
X176970505Y-57027335D01*
X176872665Y-56929495D01*
X176872664Y-56929494D01*
X176872661Y-56929492D01*
X176752838Y-56860313D01*
X176752837Y-56860312D01*
X176752836Y-56860312D01*
X176619183Y-56824500D01*
X176480817Y-56824500D01*
X176347164Y-56860312D01*
X176347161Y-56860313D01*
X176227338Y-56929492D01*
X176227333Y-56929496D01*
X176129496Y-57027333D01*
X176129492Y-57027338D01*
X176060313Y-57147161D01*
X176060312Y-57147164D01*
X176024500Y-57280817D01*
X173504874Y-57280817D01*
X173505500Y-57275602D01*
X173505500Y-55689398D01*
X173494877Y-55600936D01*
X173439361Y-55460158D01*
X173439360Y-55460157D01*
X173439360Y-55460156D01*
X173347922Y-55339577D01*
X173270697Y-55281016D01*
X173229173Y-55224823D01*
X173224622Y-55155102D01*
X173257938Y-55094534D01*
X173329708Y-55022765D01*
X173375087Y-54919991D01*
X173378002Y-54894865D01*
X173378001Y-53405131D01*
X175239500Y-53405131D01*
X175239500Y-55194856D01*
X175239502Y-55194882D01*
X175242413Y-55219987D01*
X175242415Y-55219991D01*
X175287793Y-55322764D01*
X175287794Y-55322765D01*
X175367235Y-55402206D01*
X175470009Y-55447585D01*
X175495135Y-55450500D01*
X177284864Y-55450499D01*
X177284879Y-55450497D01*
X177284882Y-55450497D01*
X177309987Y-55447586D01*
X177309988Y-55447585D01*
X177309991Y-55447585D01*
X177412765Y-55402206D01*
X177492206Y-55322765D01*
X177537585Y-55219991D01*
X177540500Y-55194865D01*
X177540499Y-53405136D01*
X177540497Y-53405117D01*
X177537586Y-53380012D01*
X177537585Y-53380010D01*
X177537585Y-53380009D01*
X177492206Y-53277235D01*
X177412765Y-53197794D01*
X177412763Y-53197793D01*
X177309992Y-53152415D01*
X177284865Y-53149500D01*
X175495143Y-53149500D01*
X175495117Y-53149502D01*
X175470012Y-53152413D01*
X175470008Y-53152415D01*
X175367235Y-53197793D01*
X175287794Y-53277234D01*
X175242415Y-53380006D01*
X175242415Y-53380008D01*
X175239500Y-53405131D01*
X173378001Y-53405131D01*
X173378001Y-53105136D01*
X173377999Y-53105117D01*
X173375088Y-53080012D01*
X173375087Y-53080010D01*
X173375087Y-53080009D01*
X173329708Y-52977235D01*
X173250267Y-52897794D01*
X173250265Y-52897793D01*
X173147494Y-52852415D01*
X173122367Y-52849500D01*
X171332645Y-52849500D01*
X171332619Y-52849502D01*
X171307514Y-52852413D01*
X171307510Y-52852415D01*
X171204737Y-52897793D01*
X171125296Y-52977234D01*
X171079917Y-53080006D01*
X171079917Y-53080008D01*
X171077002Y-53105131D01*
X171077002Y-53842871D01*
X171057317Y-53909910D01*
X171004513Y-53955665D01*
X170935355Y-53965609D01*
X170871799Y-53936584D01*
X170834025Y-53877806D01*
X170830529Y-53862269D01*
X170820319Y-53797807D01*
X170809673Y-53730591D01*
X170753713Y-53558361D01*
X170753713Y-53558360D01*
X170712114Y-53476719D01*
X170671498Y-53397006D01*
X170617507Y-53322693D01*
X170565060Y-53250505D01*
X170565056Y-53250500D01*
X170437001Y-53122445D01*
X170436996Y-53122441D01*
X170290499Y-53016006D01*
X170290498Y-53016005D01*
X170290496Y-53016004D01*
X170216559Y-52978331D01*
X170129141Y-52933788D01*
X170129138Y-52933787D01*
X169956912Y-52877829D01*
X169778053Y-52849500D01*
X169778048Y-52849500D01*
X169596956Y-52849500D01*
X169596951Y-52849500D01*
X169418091Y-52877829D01*
X169245865Y-52933787D01*
X169245862Y-52933788D01*
X169084504Y-53016006D01*
X168938007Y-53122441D01*
X168938002Y-53122445D01*
X168809947Y-53250500D01*
X168809943Y-53250505D01*
X168703508Y-53397002D01*
X168621290Y-53558360D01*
X168621289Y-53558363D01*
X168565331Y-53730589D01*
X168537002Y-53909448D01*
X161276406Y-53909448D01*
X161258723Y-53797807D01*
X161258722Y-53797803D01*
X161258722Y-53797802D01*
X161195954Y-53604622D01*
X161195953Y-53604620D01*
X161103734Y-53423631D01*
X161030401Y-53322696D01*
X160984343Y-53259302D01*
X160984339Y-53259297D01*
X160840702Y-53115660D01*
X160840697Y-53115656D01*
X160676372Y-52996268D01*
X160676371Y-52996267D01*
X160676369Y-52996266D01*
X160553748Y-52933787D01*
X160495377Y-52904045D01*
X160302196Y-52841277D01*
X160151722Y-52817444D01*
X160101565Y-52809500D01*
X159898435Y-52809500D01*
X159831559Y-52820092D01*
X159697805Y-52841277D01*
X159697802Y-52841277D01*
X159504622Y-52904045D01*
X159323627Y-52996268D01*
X159159302Y-53115656D01*
X159159297Y-53115660D01*
X159015660Y-53259297D01*
X159015656Y-53259302D01*
X158896268Y-53423627D01*
X158804045Y-53604622D01*
X158741277Y-53797802D01*
X158741277Y-53797805D01*
X158728606Y-53877806D01*
X158709500Y-53998435D01*
X158010500Y-53998435D01*
X158010500Y-53904066D01*
X158010765Y-53895957D01*
X158017198Y-53797802D01*
X158026989Y-53648411D01*
X158029104Y-53632354D01*
X158076709Y-53393033D01*
X158080898Y-53377397D01*
X158159332Y-53146337D01*
X158165529Y-53131375D01*
X158273450Y-52912533D01*
X158281553Y-52898498D01*
X158417116Y-52695614D01*
X158426973Y-52682768D01*
X158587857Y-52499315D01*
X158599315Y-52487857D01*
X158782768Y-52326973D01*
X158795614Y-52317116D01*
X158998498Y-52181553D01*
X159012533Y-52173450D01*
X159231375Y-52065529D01*
X159246323Y-52059337D01*
X159401745Y-52006579D01*
X159441598Y-52000000D01*
X196558402Y-52000000D01*
X196598254Y-52006579D01*
G37*
%TD.AperFunction*%
%TA.AperFunction,Conductor*%
G36*
X158215703Y-81307541D02*
G01*
X158222181Y-81313573D01*
X159804518Y-82895910D01*
X159804520Y-82895913D01*
X159879087Y-82970480D01*
X159910626Y-82988689D01*
X159970412Y-83023207D01*
X160072273Y-83050500D01*
X164057745Y-83050500D01*
X164124784Y-83070185D01*
X164145426Y-83086819D01*
X166704087Y-85645480D01*
X166795412Y-85698207D01*
X166897273Y-85725500D01*
X167002727Y-85725500D01*
X168156312Y-85725500D01*
X168223351Y-85745185D01*
X168269106Y-85797989D01*
X168279050Y-85867147D01*
X168276087Y-85881590D01*
X168249500Y-85980817D01*
X168249500Y-86119183D01*
X168274292Y-86211706D01*
X168285312Y-86252835D01*
X168285313Y-86252838D01*
X168354492Y-86372661D01*
X168354494Y-86372664D01*
X168354495Y-86372665D01*
X168452335Y-86470505D01*
X168452336Y-86470506D01*
X168452338Y-86470507D01*
X168512249Y-86505096D01*
X168572164Y-86539688D01*
X168705817Y-86575500D01*
X168705819Y-86575500D01*
X168844181Y-86575500D01*
X168844183Y-86575500D01*
X168977836Y-86539688D01*
X169097665Y-86470505D01*
X169188210Y-86379959D01*
X169249529Y-86346477D01*
X169319221Y-86351461D01*
X169363569Y-86379962D01*
X169691179Y-86707571D01*
X169691189Y-86707582D01*
X169695519Y-86711912D01*
X169695520Y-86711913D01*
X169770087Y-86786480D01*
X169861413Y-86839207D01*
X169963273Y-86866501D01*
X169963275Y-86866501D01*
X170076323Y-86866501D01*
X170076339Y-86866500D01*
X171036725Y-86866500D01*
X171036727Y-86866500D01*
X171138588Y-86839207D01*
X171229913Y-86786480D01*
X171357047Y-86659345D01*
X171412632Y-86627254D01*
X171419178Y-86625500D01*
X171419183Y-86625500D01*
X171552836Y-86589688D01*
X171672665Y-86520505D01*
X171770505Y-86422665D01*
X171839688Y-86302836D01*
X171875500Y-86169183D01*
X171875500Y-86030817D01*
X171839688Y-85897164D01*
X171805096Y-85837249D01*
X171770507Y-85777338D01*
X171770503Y-85777333D01*
X171705351Y-85712181D01*
X171671866Y-85650858D01*
X171676850Y-85581166D01*
X171718722Y-85525233D01*
X171784186Y-85500816D01*
X171793032Y-85500500D01*
X171869181Y-85500500D01*
X171869183Y-85500500D01*
X172002836Y-85464688D01*
X172090843Y-85413877D01*
X172129703Y-85391442D01*
X172131029Y-85393740D01*
X172183946Y-85373257D01*
X172252397Y-85387267D01*
X172302407Y-85436060D01*
X172308875Y-85449367D01*
X172310312Y-85452836D01*
X172379492Y-85572661D01*
X172379494Y-85572664D01*
X172379495Y-85572665D01*
X172477335Y-85670505D01*
X172597164Y-85739688D01*
X172730817Y-85775500D01*
X172730825Y-85775500D01*
X172738877Y-85776561D01*
X172738513Y-85779321D01*
X172792539Y-85795185D01*
X172838294Y-85847989D01*
X172849500Y-85899500D01*
X172849500Y-87057745D01*
X172829815Y-87124784D01*
X172813181Y-87145426D01*
X171829522Y-88129084D01*
X171829520Y-88129087D01*
X171776793Y-88220411D01*
X171756563Y-88295913D01*
X171749500Y-88322271D01*
X171749500Y-88351736D01*
X171729815Y-88418775D01*
X171677011Y-88464530D01*
X171607853Y-88474474D01*
X171552616Y-88452055D01*
X171502996Y-88416005D01*
X171341639Y-88333788D01*
X171341636Y-88333787D01*
X171169410Y-88277829D01*
X170990551Y-88249500D01*
X170990546Y-88249500D01*
X170809454Y-88249500D01*
X170809449Y-88249500D01*
X170630589Y-88277829D01*
X170458363Y-88333787D01*
X170458360Y-88333788D01*
X170297002Y-88416006D01*
X170150505Y-88522441D01*
X170150500Y-88522445D01*
X170022445Y-88650500D01*
X170022441Y-88650505D01*
X169916006Y-88797002D01*
X169833788Y-88958360D01*
X169833787Y-88958363D01*
X169777829Y-89130589D01*
X169756972Y-89262271D01*
X169727042Y-89325405D01*
X169667731Y-89362336D01*
X169597868Y-89361338D01*
X169539636Y-89322728D01*
X169511522Y-89258764D01*
X169510499Y-89242872D01*
X169510499Y-88505143D01*
X169510499Y-88505136D01*
X169510497Y-88505117D01*
X169507586Y-88480012D01*
X169507585Y-88480010D01*
X169507585Y-88480009D01*
X169462206Y-88377235D01*
X169382765Y-88297794D01*
X169369770Y-88292056D01*
X169279992Y-88252415D01*
X169254868Y-88249500D01*
X168975075Y-88249500D01*
X168908036Y-88229815D01*
X168862281Y-88177011D01*
X168852337Y-88107853D01*
X168881362Y-88044297D01*
X168940140Y-88006523D01*
X168942924Y-88005741D01*
X169002836Y-87989688D01*
X169122665Y-87920505D01*
X169220505Y-87822665D01*
X169289688Y-87702836D01*
X169325500Y-87569183D01*
X169325500Y-87430817D01*
X169289688Y-87297164D01*
X169220505Y-87177335D01*
X169122665Y-87079495D01*
X169122664Y-87079494D01*
X169122661Y-87079492D01*
X169002838Y-87010313D01*
X169002837Y-87010312D01*
X169002836Y-87010312D01*
X168869183Y-86974500D01*
X168730817Y-86974500D01*
X168597164Y-87010312D01*
X168597161Y-87010313D01*
X168477338Y-87079492D01*
X168477333Y-87079496D01*
X168379496Y-87177333D01*
X168379492Y-87177338D01*
X168310313Y-87297161D01*
X168310312Y-87297164D01*
X168274500Y-87430817D01*
X168274500Y-87569183D01*
X168306789Y-87689686D01*
X168310312Y-87702835D01*
X168310313Y-87702838D01*
X168379492Y-87822661D01*
X168379494Y-87822664D01*
X168379495Y-87822665D01*
X168477335Y-87920505D01*
X168597164Y-87989688D01*
X168657018Y-88005725D01*
X168716678Y-88042090D01*
X168747207Y-88104937D01*
X168738912Y-88174312D01*
X168694427Y-88228190D01*
X168627875Y-88249465D01*
X168624924Y-88249500D01*
X167465143Y-88249500D01*
X167465117Y-88249502D01*
X167440012Y-88252413D01*
X167440008Y-88252415D01*
X167337235Y-88297793D01*
X167257794Y-88377234D01*
X167212415Y-88480006D01*
X167212415Y-88480008D01*
X167209500Y-88505131D01*
X167209500Y-90294856D01*
X167209502Y-90294882D01*
X167212413Y-90319987D01*
X167212415Y-90319991D01*
X167257793Y-90422764D01*
X167257794Y-90422765D01*
X167337235Y-90502206D01*
X167440009Y-90547585D01*
X167465135Y-90550500D01*
X169056968Y-90550499D01*
X169124007Y-90570184D01*
X169169762Y-90622987D01*
X169179706Y-90692146D01*
X169150681Y-90755702D01*
X169144650Y-90762180D01*
X169054492Y-90852338D01*
X168985313Y-90972161D01*
X168985312Y-90972164D01*
X168949500Y-91105817D01*
X168949500Y-91244182D01*
X168985312Y-91377835D01*
X168985313Y-91377838D01*
X169054492Y-91497661D01*
X169054494Y-91497664D01*
X169054495Y-91497665D01*
X169152335Y-91595505D01*
X169272164Y-91664688D01*
X169405817Y-91700500D01*
X169405819Y-91700500D01*
X169544181Y-91700500D01*
X169544183Y-91700500D01*
X169677836Y-91664688D01*
X169797665Y-91595505D01*
X169895505Y-91497665D01*
X169964688Y-91377836D01*
X170000500Y-91244183D01*
X170000500Y-91105817D01*
X169964688Y-90972164D01*
X169898297Y-90857171D01*
X169895507Y-90852338D01*
X169895503Y-90852333D01*
X169797666Y-90754496D01*
X169797661Y-90754492D01*
X169677838Y-90685313D01*
X169677837Y-90685312D01*
X169677836Y-90685312D01*
X169544183Y-90649500D01*
X169534833Y-90649500D01*
X169467794Y-90629815D01*
X169422039Y-90577011D01*
X169412095Y-90507853D01*
X169441120Y-90444297D01*
X169447152Y-90437819D01*
X169462206Y-90422765D01*
X169507585Y-90319991D01*
X169510500Y-90294865D01*
X169510499Y-89557125D01*
X169530183Y-89490089D01*
X169582987Y-89444334D01*
X169652146Y-89434390D01*
X169715702Y-89463415D01*
X169753476Y-89522193D01*
X169756972Y-89537729D01*
X169777829Y-89669410D01*
X169833787Y-89841636D01*
X169833788Y-89841639D01*
X169889664Y-89951300D01*
X169909224Y-89989688D01*
X169916006Y-90002997D01*
X170022441Y-90149494D01*
X170022445Y-90149499D01*
X170150500Y-90277554D01*
X170150505Y-90277558D01*
X170215068Y-90324465D01*
X170297006Y-90383996D01*
X170373094Y-90422765D01*
X170458360Y-90466211D01*
X170458363Y-90466212D01*
X170544476Y-90494191D01*
X170630591Y-90522171D01*
X170713429Y-90535291D01*
X170809449Y-90550500D01*
X170809454Y-90550500D01*
X170990551Y-90550500D01*
X171077259Y-90536765D01*
X171169409Y-90522171D01*
X171341639Y-90466211D01*
X171502994Y-90383996D01*
X171532168Y-90362799D01*
X171552615Y-90347945D01*
X171618421Y-90324465D01*
X171686475Y-90340291D01*
X171735170Y-90390396D01*
X171749500Y-90448263D01*
X171749500Y-90732744D01*
X171729815Y-90799783D01*
X171713181Y-90820425D01*
X169711681Y-92821925D01*
X169650358Y-92855410D01*
X169580666Y-92850426D01*
X169524733Y-92808554D01*
X169500316Y-92743090D01*
X169500000Y-92734244D01*
X169500000Y-92700000D01*
X158134500Y-92700000D01*
X158067461Y-92680315D01*
X158021706Y-92627511D01*
X158010500Y-92576000D01*
X158010500Y-89644448D01*
X158949500Y-89644448D01*
X158949500Y-89825551D01*
X158977829Y-90004410D01*
X159033787Y-90176636D01*
X159033788Y-90176639D01*
X159085208Y-90277554D01*
X159106266Y-90318883D01*
X159116006Y-90337997D01*
X159222441Y-90484494D01*
X159222445Y-90484499D01*
X159350500Y-90612554D01*
X159350505Y-90612558D01*
X159374258Y-90629815D01*
X159497006Y-90718996D01*
X159581759Y-90762180D01*
X159658360Y-90801211D01*
X159658363Y-90801212D01*
X159744476Y-90829191D01*
X159830591Y-90857171D01*
X159913429Y-90870291D01*
X160009449Y-90885500D01*
X160009454Y-90885500D01*
X160190551Y-90885500D01*
X160277259Y-90871765D01*
X160369409Y-90857171D01*
X160541639Y-90801211D01*
X160702994Y-90718996D01*
X160849501Y-90612553D01*
X160977553Y-90484501D01*
X161083996Y-90337994D01*
X161166211Y-90176639D01*
X161222171Y-90004409D01*
X161246548Y-89850500D01*
X161250500Y-89825551D01*
X161250500Y-89644448D01*
X161223422Y-89473491D01*
X161222171Y-89465591D01*
X161175031Y-89320507D01*
X161166212Y-89293363D01*
X161166211Y-89293360D01*
X161130187Y-89222661D01*
X161083996Y-89132006D01*
X161062802Y-89102835D01*
X160977558Y-88985505D01*
X160977554Y-88985500D01*
X160849499Y-88857445D01*
X160849494Y-88857441D01*
X160702997Y-88751006D01*
X160702996Y-88751005D01*
X160702994Y-88751004D01*
X160651300Y-88724664D01*
X160541639Y-88668788D01*
X160541636Y-88668787D01*
X160369410Y-88612829D01*
X160190551Y-88584500D01*
X160190546Y-88584500D01*
X160009454Y-88584500D01*
X160009449Y-88584500D01*
X159830589Y-88612829D01*
X159658363Y-88668787D01*
X159658360Y-88668788D01*
X159497002Y-88751006D01*
X159350505Y-88857441D01*
X159350500Y-88857445D01*
X159222445Y-88985500D01*
X159222441Y-88985505D01*
X159116006Y-89132002D01*
X159033788Y-89293360D01*
X159033787Y-89293363D01*
X158977829Y-89465589D01*
X158949500Y-89644448D01*
X158010500Y-89644448D01*
X158010500Y-85281995D01*
X160612000Y-85281995D01*
X160612000Y-85518004D01*
X160612001Y-85518020D01*
X160641949Y-85745503D01*
X160642807Y-85752014D01*
X160672998Y-85864687D01*
X160703894Y-85979993D01*
X160794214Y-86198045D01*
X160794219Y-86198056D01*
X160836185Y-86270742D01*
X160912227Y-86402450D01*
X160912229Y-86402453D01*
X160912230Y-86402454D01*
X161055906Y-86589697D01*
X161055912Y-86589704D01*
X161222795Y-86756587D01*
X161222801Y-86756592D01*
X161410050Y-86900273D01*
X161538615Y-86974500D01*
X161614443Y-87018280D01*
X161614448Y-87018282D01*
X161614451Y-87018284D01*
X161832507Y-87108606D01*
X162060486Y-87169693D01*
X162294489Y-87200500D01*
X162294496Y-87200500D01*
X162530504Y-87200500D01*
X162530511Y-87200500D01*
X162764514Y-87169693D01*
X162992493Y-87108606D01*
X163210549Y-87018284D01*
X163414950Y-86900273D01*
X163602199Y-86756592D01*
X163769092Y-86589699D01*
X163912773Y-86402450D01*
X164030784Y-86198049D01*
X164121106Y-85979993D01*
X164182193Y-85752014D01*
X164213000Y-85518011D01*
X164213000Y-85281989D01*
X164182193Y-85047986D01*
X164121106Y-84820007D01*
X164030784Y-84601951D01*
X164030782Y-84601948D01*
X164030780Y-84601943D01*
X163972211Y-84500500D01*
X163912773Y-84397550D01*
X163769092Y-84210301D01*
X163769087Y-84210295D01*
X163602204Y-84043412D01*
X163602197Y-84043406D01*
X163414954Y-83899730D01*
X163414953Y-83899729D01*
X163414950Y-83899727D01*
X163333457Y-83852677D01*
X163210556Y-83781719D01*
X163210545Y-83781714D01*
X162992493Y-83691394D01*
X162799524Y-83639688D01*
X162764514Y-83630307D01*
X162764513Y-83630306D01*
X162764510Y-83630306D01*
X162530520Y-83599501D01*
X162530517Y-83599500D01*
X162530511Y-83599500D01*
X162294489Y-83599500D01*
X162294483Y-83599500D01*
X162294479Y-83599501D01*
X162060489Y-83630306D01*
X161832506Y-83691394D01*
X161614454Y-83781714D01*
X161614443Y-83781719D01*
X161410045Y-83899730D01*
X161222802Y-84043406D01*
X161222795Y-84043412D01*
X161055912Y-84210295D01*
X161055906Y-84210302D01*
X160912230Y-84397545D01*
X160794219Y-84601943D01*
X160794214Y-84601954D01*
X160703894Y-84820006D01*
X160642806Y-85047989D01*
X160612001Y-85281979D01*
X160612000Y-85281995D01*
X158010500Y-85281995D01*
X158010500Y-81401254D01*
X158030185Y-81334215D01*
X158082989Y-81288460D01*
X158152147Y-81278516D01*
X158215703Y-81307541D01*
G37*
%TD.AperFunction*%
%TA.AperFunction,Conductor*%
G36*
X164811318Y-69045185D02*
G01*
X164857073Y-69097989D01*
X164867017Y-69167147D01*
X164837992Y-69230703D01*
X164791731Y-69264061D01*
X164765825Y-69274790D01*
X164765813Y-69274797D01*
X164650270Y-69352001D01*
X164650266Y-69352004D01*
X164552004Y-69450266D01*
X164552001Y-69450270D01*
X164474797Y-69565813D01*
X164474790Y-69565826D01*
X164421613Y-69694208D01*
X164421610Y-69694220D01*
X164394500Y-69830509D01*
X164394500Y-69969490D01*
X164421610Y-70105779D01*
X164421613Y-70105791D01*
X164474790Y-70234173D01*
X164474797Y-70234186D01*
X164552001Y-70349729D01*
X164552004Y-70349733D01*
X164650266Y-70447995D01*
X164650270Y-70447998D01*
X164765813Y-70525202D01*
X164765826Y-70525209D01*
X164894208Y-70578386D01*
X164894213Y-70578388D01*
X165030509Y-70605499D01*
X165030512Y-70605500D01*
X165030514Y-70605500D01*
X165169488Y-70605500D01*
X165169489Y-70605499D01*
X165305787Y-70578388D01*
X165434180Y-70525206D01*
X165549730Y-70447998D01*
X165560538Y-70437190D01*
X165597319Y-70400410D01*
X165658642Y-70366925D01*
X165728334Y-70371909D01*
X165772681Y-70400410D01*
X165820266Y-70447995D01*
X165820270Y-70447998D01*
X165935813Y-70525202D01*
X165935826Y-70525209D01*
X166064208Y-70578386D01*
X166064213Y-70578388D01*
X166200509Y-70605499D01*
X166200512Y-70605500D01*
X166200514Y-70605500D01*
X166339488Y-70605500D01*
X166339489Y-70605499D01*
X166475787Y-70578388D01*
X166559087Y-70543883D01*
X166628554Y-70536415D01*
X166691033Y-70567690D01*
X166726686Y-70627778D01*
X166730538Y-70658445D01*
X166730538Y-82383766D01*
X166759142Y-82490521D01*
X166757479Y-82560371D01*
X166718316Y-82618233D01*
X166654087Y-82645736D01*
X166585185Y-82634149D01*
X166551686Y-82610294D01*
X166222209Y-82280817D01*
X165295913Y-81354520D01*
X165231369Y-81317255D01*
X165204589Y-81301793D01*
X165117715Y-81278516D01*
X165102727Y-81274500D01*
X165102726Y-81274500D01*
X164282085Y-81274500D01*
X164215046Y-81254815D01*
X164169291Y-81202011D01*
X164159347Y-81132853D01*
X164162307Y-81118418D01*
X164175500Y-81069183D01*
X164175500Y-80930817D01*
X164139688Y-80797164D01*
X164070505Y-80677335D01*
X163972665Y-80579495D01*
X163972664Y-80579494D01*
X163972661Y-80579492D01*
X163852838Y-80510313D01*
X163852837Y-80510312D01*
X163852836Y-80510312D01*
X163719183Y-80474500D01*
X163719182Y-80474500D01*
X163692255Y-80474500D01*
X163625216Y-80454815D01*
X163604574Y-80438181D01*
X163195915Y-80029522D01*
X163195913Y-80029520D01*
X163150250Y-80003156D01*
X163104589Y-79976793D01*
X163053657Y-79963146D01*
X163002727Y-79949500D01*
X163002726Y-79949500D01*
X161117255Y-79949500D01*
X161087814Y-79940855D01*
X161057828Y-79934332D01*
X161052812Y-79930577D01*
X161050216Y-79929815D01*
X161029574Y-79913181D01*
X160936819Y-79820426D01*
X160903334Y-79759103D01*
X160900500Y-79732745D01*
X160900500Y-79368872D01*
X160920185Y-79301833D01*
X160972989Y-79256078D01*
X161042147Y-79246134D01*
X161074587Y-79255438D01*
X161088509Y-79261585D01*
X161113635Y-79264500D01*
X162711364Y-79264499D01*
X162711379Y-79264497D01*
X162711382Y-79264497D01*
X162736487Y-79261586D01*
X162736488Y-79261585D01*
X162736491Y-79261585D01*
X162839265Y-79216206D01*
X162918706Y-79136765D01*
X162964085Y-79033991D01*
X162967000Y-79008865D01*
X162966999Y-78759709D01*
X162986683Y-78692672D01*
X163039487Y-78646917D01*
X163108646Y-78636973D01*
X163123078Y-78639932D01*
X163255817Y-78675500D01*
X163255820Y-78675500D01*
X163394181Y-78675500D01*
X163394183Y-78675500D01*
X163527836Y-78639688D01*
X163647665Y-78570505D01*
X163745505Y-78472665D01*
X163814688Y-78352836D01*
X163850500Y-78219183D01*
X163850500Y-78080817D01*
X163814688Y-77947164D01*
X163765351Y-77861709D01*
X163745507Y-77827338D01*
X163745503Y-77827333D01*
X163647666Y-77729496D01*
X163647661Y-77729492D01*
X163527838Y-77660313D01*
X163527837Y-77660312D01*
X163527836Y-77660312D01*
X163394183Y-77624500D01*
X163255817Y-77624500D01*
X163123092Y-77660063D01*
X163053242Y-77658400D01*
X162995380Y-77619237D01*
X162967876Y-77555008D01*
X162966999Y-77540288D01*
X162966999Y-77411143D01*
X162966999Y-77411136D01*
X162966997Y-77411117D01*
X162964086Y-77386012D01*
X162964085Y-77386010D01*
X162964085Y-77386009D01*
X162918706Y-77283235D01*
X162839265Y-77203794D01*
X162736492Y-77158415D01*
X162711365Y-77155500D01*
X161113643Y-77155500D01*
X161113617Y-77155502D01*
X161088512Y-77158413D01*
X161088510Y-77158414D01*
X161074585Y-77164563D01*
X161005307Y-77173634D01*
X160942122Y-77143809D01*
X160905092Y-77084560D01*
X160900500Y-77051128D01*
X160900500Y-74759753D01*
X160920185Y-74692714D01*
X160936815Y-74672076D01*
X161447335Y-74161555D01*
X161508656Y-74128072D01*
X161578347Y-74133056D01*
X161582406Y-74134653D01*
X161604914Y-74143976D01*
X161738274Y-74170503D01*
X161808636Y-74184499D01*
X161808639Y-74184500D01*
X161808641Y-74184500D01*
X162016361Y-74184500D01*
X162016362Y-74184499D01*
X162220086Y-74143976D01*
X162411993Y-74064486D01*
X162584704Y-73949083D01*
X162731583Y-73802204D01*
X162846986Y-73629493D01*
X162926476Y-73437586D01*
X162967000Y-73233859D01*
X162967000Y-73026141D01*
X162967000Y-73026138D01*
X162966999Y-73026136D01*
X162951290Y-72947164D01*
X162926476Y-72822414D01*
X162888748Y-72731330D01*
X162846988Y-72630511D01*
X162846987Y-72630509D01*
X162843843Y-72625804D01*
X162731583Y-72457796D01*
X162731580Y-72457792D01*
X162584706Y-72310918D01*
X162584703Y-72310916D01*
X162411990Y-72195512D01*
X162411988Y-72195511D01*
X162220090Y-72116025D01*
X162220078Y-72116022D01*
X162016362Y-72075500D01*
X162016359Y-72075500D01*
X161808641Y-72075500D01*
X161808638Y-72075500D01*
X161604921Y-72116022D01*
X161604909Y-72116025D01*
X161413011Y-72195511D01*
X161413009Y-72195512D01*
X161240296Y-72310916D01*
X161240294Y-72310918D01*
X161093419Y-72457792D01*
X161093416Y-72457796D01*
X160978012Y-72630509D01*
X160978011Y-72630511D01*
X160898525Y-72822409D01*
X160898522Y-72822421D01*
X160858000Y-73026136D01*
X160858000Y-73233863D01*
X160898522Y-73437578D01*
X160898525Y-73437590D01*
X160907821Y-73460032D01*
X160915290Y-73529501D01*
X160884014Y-73591980D01*
X160880942Y-73595165D01*
X160737179Y-73738927D01*
X160675859Y-73772411D01*
X160606167Y-73767427D01*
X160550233Y-73725556D01*
X160525816Y-73660091D01*
X160525500Y-73651245D01*
X160525500Y-72594753D01*
X160545185Y-72527714D01*
X160561815Y-72507076D01*
X161447335Y-71621555D01*
X161508656Y-71588072D01*
X161578347Y-71593056D01*
X161582406Y-71594653D01*
X161604914Y-71603976D01*
X161808636Y-71644499D01*
X161808639Y-71644500D01*
X161808641Y-71644500D01*
X162016361Y-71644500D01*
X162016362Y-71644499D01*
X162220086Y-71603976D01*
X162411993Y-71524486D01*
X162584704Y-71409083D01*
X162731583Y-71262204D01*
X162846986Y-71089493D01*
X162926476Y-70897586D01*
X162967000Y-70693859D01*
X162967000Y-70486141D01*
X162967000Y-70486138D01*
X162966999Y-70486136D01*
X162940536Y-70353099D01*
X162926476Y-70282414D01*
X162914954Y-70254598D01*
X162846988Y-70090511D01*
X162846987Y-70090509D01*
X162842085Y-70083173D01*
X162731583Y-69917796D01*
X162731580Y-69917792D01*
X162584707Y-69770919D01*
X162584703Y-69770916D01*
X162411990Y-69655512D01*
X162411988Y-69655511D01*
X162220090Y-69576025D01*
X162220078Y-69576022D01*
X162016362Y-69535500D01*
X162016359Y-69535500D01*
X161808641Y-69535500D01*
X161808636Y-69535500D01*
X161675599Y-69561963D01*
X161606008Y-69555736D01*
X161550830Y-69512873D01*
X161527586Y-69446983D01*
X161543654Y-69378986D01*
X161563723Y-69352669D01*
X161854574Y-69061819D01*
X161915897Y-69028334D01*
X161942255Y-69025500D01*
X164744279Y-69025500D01*
X164811318Y-69045185D01*
G37*
%TD.AperFunction*%
%TD*%
%TA.AperFunction,Conductor*%
%TO.N,GND*%
G36*
X159015706Y-93319685D02*
G01*
X159036348Y-93336319D01*
X159077235Y-93377206D01*
X159180009Y-93422585D01*
X159205135Y-93425500D01*
X160994864Y-93425499D01*
X160994879Y-93425497D01*
X160994882Y-93425497D01*
X161019987Y-93422586D01*
X161019988Y-93422585D01*
X161019991Y-93422585D01*
X161122765Y-93377206D01*
X161163652Y-93336319D01*
X161224975Y-93302834D01*
X161251333Y-93300000D01*
X168876000Y-93300000D01*
X168884685Y-93302550D01*
X168893647Y-93301262D01*
X168917687Y-93312240D01*
X168943039Y-93319685D01*
X168948966Y-93326525D01*
X168957203Y-93330287D01*
X168971492Y-93352521D01*
X168988794Y-93372489D01*
X168991081Y-93383003D01*
X168994977Y-93389065D01*
X169000000Y-93424000D01*
X169000000Y-93482245D01*
X168980315Y-93549284D01*
X168963681Y-93569926D01*
X166654522Y-95879084D01*
X166654518Y-95879090D01*
X166601792Y-95970412D01*
X166601793Y-95970413D01*
X166574500Y-96072273D01*
X166574500Y-98552726D01*
X166601793Y-98654589D01*
X166628156Y-98700250D01*
X166654520Y-98745913D01*
X167629087Y-99720480D01*
X167720412Y-99773207D01*
X167822273Y-99800500D01*
X167822275Y-99800500D01*
X168876000Y-99800500D01*
X168943039Y-99820185D01*
X168988794Y-99872989D01*
X169000000Y-99924500D01*
X169000000Y-107676000D01*
X168980315Y-107743039D01*
X168927511Y-107788794D01*
X168876000Y-107800000D01*
X159441598Y-107800000D01*
X159438233Y-107799444D01*
X159436435Y-107799892D01*
X159401740Y-107793419D01*
X159246349Y-107740671D01*
X159231363Y-107734464D01*
X159012539Y-107626552D01*
X158998492Y-107618442D01*
X158795626Y-107482891D01*
X158782758Y-107473017D01*
X158599321Y-107312147D01*
X158587852Y-107300678D01*
X158426982Y-107117241D01*
X158417108Y-107104373D01*
X158360311Y-107019371D01*
X158281557Y-106901507D01*
X158273447Y-106887460D01*
X158225942Y-106791129D01*
X158165532Y-106668629D01*
X158159331Y-106653657D01*
X158080900Y-106422606D01*
X158076708Y-106406963D01*
X158029104Y-106167647D01*
X158026989Y-106151586D01*
X158010765Y-105904042D01*
X158010500Y-105895933D01*
X158010500Y-102989398D01*
X164604500Y-102989398D01*
X164604500Y-104575602D01*
X164610126Y-104622454D01*
X164615122Y-104664061D01*
X164670639Y-104804843D01*
X164762076Y-104925420D01*
X164762078Y-104925422D01*
X164835036Y-104980748D01*
X164852100Y-104993688D01*
X164893623Y-105049881D01*
X164898174Y-105119602D01*
X164864856Y-105180172D01*
X164817794Y-105227234D01*
X164772415Y-105330006D01*
X164772415Y-105330008D01*
X164769500Y-105355131D01*
X164769500Y-107144856D01*
X164769502Y-107144882D01*
X164772413Y-107169987D01*
X164772415Y-107169991D01*
X164817793Y-107272764D01*
X164817794Y-107272765D01*
X164897235Y-107352206D01*
X165000009Y-107397585D01*
X165025135Y-107400500D01*
X166814864Y-107400499D01*
X166814879Y-107400497D01*
X166814882Y-107400497D01*
X166839987Y-107397586D01*
X166839988Y-107397585D01*
X166839991Y-107397585D01*
X166942765Y-107352206D01*
X167022206Y-107272765D01*
X167067585Y-107169991D01*
X167070500Y-107144865D01*
X167070499Y-105355136D01*
X167070497Y-105355117D01*
X167067586Y-105330012D01*
X167067585Y-105330010D01*
X167067585Y-105330009D01*
X167022206Y-105227235D01*
X166962205Y-105167234D01*
X166928720Y-105105911D01*
X166933704Y-105036219D01*
X166974959Y-104980751D01*
X167047922Y-104925422D01*
X167139361Y-104804842D01*
X167194877Y-104664064D01*
X167205500Y-104575602D01*
X167205500Y-102989398D01*
X167194877Y-102900936D01*
X167139361Y-102760158D01*
X167139360Y-102760157D01*
X167139360Y-102760156D01*
X167047922Y-102639577D01*
X166927343Y-102548139D01*
X166786561Y-102492622D01*
X166740926Y-102487142D01*
X166698102Y-102482000D01*
X165111898Y-102482000D01*
X165072853Y-102486688D01*
X165023438Y-102492622D01*
X164882656Y-102548139D01*
X164762077Y-102639577D01*
X164670639Y-102760156D01*
X164615122Y-102900938D01*
X164609188Y-102950353D01*
X164604500Y-102989398D01*
X158010500Y-102989398D01*
X158010500Y-95798435D01*
X158709500Y-95798435D01*
X158709500Y-96001564D01*
X158741277Y-96202194D01*
X158741277Y-96202197D01*
X158804045Y-96395377D01*
X158896268Y-96576372D01*
X159015656Y-96740697D01*
X159015660Y-96740702D01*
X159159297Y-96884339D01*
X159159302Y-96884343D01*
X159187166Y-96904587D01*
X159323631Y-97003734D01*
X159454627Y-97070480D01*
X159504622Y-97095954D01*
X159697803Y-97158722D01*
X159697804Y-97158722D01*
X159697807Y-97158723D01*
X159898435Y-97190500D01*
X159898436Y-97190500D01*
X160101564Y-97190500D01*
X160101565Y-97190500D01*
X160302193Y-97158723D01*
X160302196Y-97158722D01*
X160302197Y-97158722D01*
X160495377Y-97095954D01*
X160495377Y-97095953D01*
X160495380Y-97095953D01*
X160676369Y-97003734D01*
X160840704Y-96884338D01*
X160984338Y-96740704D01*
X161103734Y-96576369D01*
X161195953Y-96395380D01*
X161258723Y-96202193D01*
X161290500Y-96001565D01*
X161290500Y-95798435D01*
X161258723Y-95597807D01*
X161258722Y-95597803D01*
X161258722Y-95597802D01*
X161195954Y-95404622D01*
X161195953Y-95404620D01*
X161103734Y-95223631D01*
X161088480Y-95202635D01*
X160984343Y-95059302D01*
X160984339Y-95059297D01*
X160840702Y-94915660D01*
X160840697Y-94915656D01*
X160676372Y-94796268D01*
X160676371Y-94796267D01*
X160676369Y-94796266D01*
X160585874Y-94750156D01*
X160495377Y-94704045D01*
X160302196Y-94641277D01*
X160151722Y-94617444D01*
X160101565Y-94609500D01*
X159898435Y-94609500D01*
X159831559Y-94620092D01*
X159697805Y-94641277D01*
X159697802Y-94641277D01*
X159504622Y-94704045D01*
X159323627Y-94796268D01*
X159159302Y-94915656D01*
X159159297Y-94915660D01*
X159015660Y-95059297D01*
X159015656Y-95059302D01*
X158896268Y-95223627D01*
X158804045Y-95404622D01*
X158741277Y-95597802D01*
X158741277Y-95597805D01*
X158709500Y-95798435D01*
X158010500Y-95798435D01*
X158010500Y-93424000D01*
X158030185Y-93356961D01*
X158082989Y-93311206D01*
X158134500Y-93300000D01*
X158948667Y-93300000D01*
X159015706Y-93319685D01*
G37*
%TD.AperFunction*%
%TD*%
M02*
