%TF.GenerationSoftware,KiCad,Pcbnew,9.0.4*%
%TF.CreationDate,2025-12-12T14:24:18+03:00*%
%TF.ProjectId,mini_power_logger,6d696e69-5f70-46f7-9765-725f6c6f6767,rev?*%
%TF.SameCoordinates,Original*%
%TF.FileFunction,Copper,L1,Top*%
%TF.FilePolarity,Positive*%
%FSLAX46Y46*%
G04 Gerber Fmt 4.6, Leading zero omitted, Abs format (unit mm)*
G04 Created by KiCad (PCBNEW 9.0.4) date 2025-12-12 14:24:18*
%MOMM*%
%LPD*%
G01*
G04 APERTURE LIST*
G04 Aperture macros list*
%AMRoundRect*
0 Rectangle with rounded corners*
0 $1 Rounding radius*
0 $2 $3 $4 $5 $6 $7 $8 $9 X,Y pos of 4 corners*
0 Add a 4 corners polygon primitive as box body*
4,1,4,$2,$3,$4,$5,$6,$7,$8,$9,$2,$3,0*
0 Add four circle primitives for the rounded corners*
1,1,$1+$1,$2,$3*
1,1,$1+$1,$4,$5*
1,1,$1+$1,$6,$7*
1,1,$1+$1,$8,$9*
0 Add four rect primitives between the rounded corners*
20,1,$1+$1,$2,$3,$4,$5,0*
20,1,$1+$1,$4,$5,$6,$7,0*
20,1,$1+$1,$6,$7,$8,$9,0*
20,1,$1+$1,$8,$9,$2,$3,0*%
G04 Aperture macros list end*
%TA.AperFunction,SMDPad,CuDef*%
%ADD10RoundRect,0.150000X0.150000X-0.512500X0.150000X0.512500X-0.150000X0.512500X-0.150000X-0.512500X0*%
%TD*%
%TA.AperFunction,ComponentPad*%
%ADD11R,1.508000X1.508000*%
%TD*%
%TA.AperFunction,ComponentPad*%
%ADD12C,1.508000*%
%TD*%
%TA.AperFunction,ComponentPad*%
%ADD13C,3.000000*%
%TD*%
%TA.AperFunction,SMDPad,CuDef*%
%ADD14R,1.000000X1.250000*%
%TD*%
%TA.AperFunction,SMDPad,CuDef*%
%ADD15RoundRect,0.225000X0.250000X-0.225000X0.250000X0.225000X-0.250000X0.225000X-0.250000X-0.225000X0*%
%TD*%
%TA.AperFunction,SMDPad,CuDef*%
%ADD16RoundRect,0.200000X-0.275000X0.200000X-0.275000X-0.200000X0.275000X-0.200000X0.275000X0.200000X0*%
%TD*%
%TA.AperFunction,SMDPad,CuDef*%
%ADD17RoundRect,0.200000X-0.200000X-0.275000X0.200000X-0.275000X0.200000X0.275000X-0.200000X0.275000X0*%
%TD*%
%TA.AperFunction,SMDPad,CuDef*%
%ADD18RoundRect,0.237500X0.237500X-0.250000X0.237500X0.250000X-0.237500X0.250000X-0.237500X-0.250000X0*%
%TD*%
%TA.AperFunction,ComponentPad*%
%ADD19R,1.700000X1.700000*%
%TD*%
%TA.AperFunction,ComponentPad*%
%ADD20C,1.700000*%
%TD*%
%TA.AperFunction,SMDPad,CuDef*%
%ADD21RoundRect,0.225000X-0.250000X0.225000X-0.250000X-0.225000X0.250000X-0.225000X0.250000X0.225000X0*%
%TD*%
%TA.AperFunction,SMDPad,CuDef*%
%ADD22RoundRect,0.200000X0.275000X-0.200000X0.275000X0.200000X-0.275000X0.200000X-0.275000X-0.200000X0*%
%TD*%
%TA.AperFunction,SMDPad,CuDef*%
%ADD23RoundRect,0.225000X0.225000X0.250000X-0.225000X0.250000X-0.225000X-0.250000X0.225000X-0.250000X0*%
%TD*%
%TA.AperFunction,SMDPad,CuDef*%
%ADD24RoundRect,0.237500X-0.237500X0.250000X-0.237500X-0.250000X0.237500X-0.250000X0.237500X0.250000X0*%
%TD*%
%TA.AperFunction,ComponentPad*%
%ADD25R,2.000000X2.000000*%
%TD*%
%TA.AperFunction,ComponentPad*%
%ADD26C,2.000000*%
%TD*%
%TA.AperFunction,SMDPad,CuDef*%
%ADD27RoundRect,0.075000X0.650000X0.075000X-0.650000X0.075000X-0.650000X-0.075000X0.650000X-0.075000X0*%
%TD*%
%TA.AperFunction,ComponentPad*%
%ADD28C,1.524000*%
%TD*%
%TA.AperFunction,SMDPad,CuDef*%
%ADD29RoundRect,0.250000X-0.950000X-0.500000X0.950000X-0.500000X0.950000X0.500000X-0.950000X0.500000X0*%
%TD*%
%TA.AperFunction,SMDPad,CuDef*%
%ADD30RoundRect,0.250000X-0.275000X-0.500000X0.275000X-0.500000X0.275000X0.500000X-0.275000X0.500000X0*%
%TD*%
%TA.AperFunction,SMDPad,CuDef*%
%ADD31R,2.500000X1.700000*%
%TD*%
%TA.AperFunction,SMDPad,CuDef*%
%ADD32R,2.600000X1.700000*%
%TD*%
%TA.AperFunction,ComponentPad*%
%ADD33RoundRect,0.250000X0.750000X0.750000X-0.750000X0.750000X-0.750000X-0.750000X0.750000X-0.750000X0*%
%TD*%
%TA.AperFunction,SMDPad,CuDef*%
%ADD34RoundRect,0.276785X1.523215X-0.498215X1.523215X0.498215X-1.523215X0.498215X-1.523215X-0.498215X0*%
%TD*%
%TA.AperFunction,SMDPad,CuDef*%
%ADD35RoundRect,0.150000X0.425000X-0.150000X0.425000X0.150000X-0.425000X0.150000X-0.425000X-0.150000X0*%
%TD*%
%TA.AperFunction,SMDPad,CuDef*%
%ADD36RoundRect,0.075000X0.500000X-0.075000X0.500000X0.075000X-0.500000X0.075000X-0.500000X-0.075000X0*%
%TD*%
%TA.AperFunction,HeatsinkPad*%
%ADD37O,2.100000X1.000000*%
%TD*%
%TA.AperFunction,HeatsinkPad*%
%ADD38O,1.800000X1.000000*%
%TD*%
%TA.AperFunction,SMDPad,CuDef*%
%ADD39RoundRect,0.250000X0.250000X0.475000X-0.250000X0.475000X-0.250000X-0.475000X0.250000X-0.475000X0*%
%TD*%
%TA.AperFunction,SMDPad,CuDef*%
%ADD40RoundRect,0.200000X0.200000X0.275000X-0.200000X0.275000X-0.200000X-0.275000X0.200000X-0.275000X0*%
%TD*%
%TA.AperFunction,SMDPad,CuDef*%
%ADD41R,1.250000X1.000000*%
%TD*%
%TA.AperFunction,ComponentPad*%
%ADD42C,0.810000*%
%TD*%
%TA.AperFunction,ViaPad*%
%ADD43C,0.450000*%
%TD*%
%TA.AperFunction,ViaPad*%
%ADD44C,0.600000*%
%TD*%
%TA.AperFunction,Conductor*%
%ADD45C,0.200000*%
%TD*%
%TA.AperFunction,Conductor*%
%ADD46C,0.130000*%
%TD*%
%TA.AperFunction,Conductor*%
%ADD47C,1.000000*%
%TD*%
%TA.AperFunction,Conductor*%
%ADD48C,0.400000*%
%TD*%
%TA.AperFunction,Conductor*%
%ADD49C,0.600000*%
%TD*%
%TA.AperFunction,Conductor*%
%ADD50C,2.000000*%
%TD*%
%TA.AperFunction,Conductor*%
%ADD51C,2.600000*%
%TD*%
%TA.AperFunction,Conductor*%
%ADD52C,0.169700*%
%TD*%
G04 APERTURE END LIST*
D10*
%TO.P,U5,1,GND*%
%TO.N,GND*%
X176250000Y-84137500D03*
%TO.P,U5,2,SW*%
%TO.N,Net-(U5-SW)*%
X177200000Y-84137500D03*
%TO.P,U5,3,VIN*%
%TO.N,Net-(D2-K)*%
X178150000Y-84137500D03*
%TO.P,U5,4,FB*%
%TO.N,Net-(U5-FB)*%
X178150000Y-81862500D03*
%TO.P,U5,5,EN*%
%TO.N,Net-(U5-EN)*%
X177200000Y-81862500D03*
%TO.P,U5,6,BOOT*%
%TO.N,Net-(U5-BOOT)*%
X176250000Y-81862500D03*
%TD*%
D11*
%TO.P,U4,1,GND*%
%TO.N,GND*%
X161912500Y-78210000D03*
D12*
%TO.P,U4,2,VCC_IN*%
%TO.N,+3.3V*%
X161912500Y-75670000D03*
%TO.P,U4,3,SCL*%
%TO.N,/SD Card & Oled Screen/OLED_SCL*%
X161912500Y-73130000D03*
%TO.P,U4,4,SDA*%
%TO.N,/SD Card & Oled Screen/OLED_SDA*%
X161912500Y-70590000D03*
D13*
%TO.P,U4,S1*%
%TO.N,N/C*%
X162412500Y-85400000D03*
%TO.P,U4,S2*%
X162412500Y-63400000D03*
%TO.P,U4,S3*%
X184412500Y-63400000D03*
%TO.P,U4,S4*%
X184412500Y-85400000D03*
%TD*%
D14*
%TO.P,SW2,1,1*%
%TO.N,GND*%
X192000000Y-60425000D03*
%TO.P,SW2,2,2*%
%TO.N,/stm32f103/BUTTON_1*%
X192000000Y-68175000D03*
%TD*%
D15*
%TO.P,C14,1*%
%TO.N,/stm32f103/BUTTON_2*%
X188800000Y-78150000D03*
%TO.P,C14,2*%
%TO.N,GND*%
X188800000Y-76600000D03*
%TD*%
D16*
%TO.P,R20,1*%
%TO.N,/Type C Connector/CC1*%
X188700000Y-103875000D03*
%TO.P,R20,2*%
%TO.N,GND*%
X188700000Y-105525000D03*
%TD*%
D17*
%TO.P,R2,1*%
%TO.N,+3.3V*%
X184575000Y-60300000D03*
%TO.P,R2,2*%
%TO.N,Net-(U1-NRST)*%
X186225000Y-60300000D03*
%TD*%
D18*
%TO.P,R15,1*%
%TO.N,Net-(D2-K)*%
X180000000Y-83762500D03*
%TO.P,R15,2*%
%TO.N,Net-(U5-EN)*%
X180000000Y-81937500D03*
%TD*%
D15*
%TO.P,C8,1*%
%TO.N,Net-(U1-NRST)*%
X186200000Y-58500000D03*
%TO.P,C8,2*%
%TO.N,GND*%
X186200000Y-56950000D03*
%TD*%
D19*
%TO.P,J1,1*%
%TO.N,/SHUNT_V+*%
X165920000Y-106250000D03*
D20*
%TO.P,J1,2*%
%TO.N,GND*%
X163380000Y-106250000D03*
%TD*%
D21*
%TO.P,C25,1*%
%TO.N,GND*%
X187100000Y-93925000D03*
%TO.P,C25,2*%
%TO.N,+3.3V*%
X187100000Y-95475000D03*
%TD*%
D22*
%TO.P,R5,1*%
%TO.N,+3.3V*%
X188800000Y-91225000D03*
%TO.P,R5,2*%
%TO.N,/stm32f103/BUTTON_3*%
X188800000Y-89575000D03*
%TD*%
D23*
%TO.P,C26,1*%
%TO.N,Net-(U5-FB)*%
X178050000Y-79862500D03*
%TO.P,C26,2*%
%TO.N,Net-(C26-Pad2)*%
X176500000Y-79862500D03*
%TD*%
D17*
%TO.P,R18,1*%
%TO.N,Net-(C26-Pad2)*%
X176400000Y-78162500D03*
%TO.P,R18,2*%
%TO.N,Net-(U5-FB)*%
X178050000Y-78162500D03*
%TD*%
D16*
%TO.P,R21,1*%
%TO.N,/Type C Connector/CC2*%
X186900000Y-103875000D03*
%TO.P,R21,2*%
%TO.N,GND*%
X186900000Y-105525000D03*
%TD*%
D23*
%TO.P,C16,1*%
%TO.N,GND*%
X169475000Y-92100000D03*
%TO.P,C16,2*%
%TO.N,+3.3V*%
X167925000Y-92100000D03*
%TD*%
D24*
%TO.P,R16,1*%
%TO.N,Net-(U5-EN)*%
X181600000Y-81950000D03*
%TO.P,R16,2*%
%TO.N,GND*%
X181600000Y-83775000D03*
%TD*%
D15*
%TO.P,C15,1*%
%TO.N,/stm32f103/BUTTON_3*%
X188800000Y-87975000D03*
%TO.P,C15,2*%
%TO.N,GND*%
X188800000Y-86425000D03*
%TD*%
%TO.P,C2,1*%
%TO.N,+3.3V*%
X190250000Y-95475000D03*
%TO.P,C2,2*%
%TO.N,GND*%
X190250000Y-93925000D03*
%TD*%
D25*
%TO.P,BZ1,1,+*%
%TO.N,+3.3V*%
X174800000Y-102700000D03*
D26*
%TO.P,BZ1,2,-*%
%TO.N,Net-(BZ1--)*%
X179800000Y-102700000D03*
%TD*%
D23*
%TO.P,C22,1*%
%TO.N,Net-(D2-K)*%
X177775000Y-87100000D03*
%TO.P,C22,2*%
%TO.N,GND*%
X176225000Y-87100000D03*
%TD*%
D27*
%TO.P,U2,1,A1*%
%TO.N,GND*%
X172250000Y-95750000D03*
%TO.P,U2,2,A0*%
X172250000Y-95250000D03*
%TO.P,U2,3,~{Alert}*%
%TO.N,/Temp. & Power Sensors/ALERT*%
X172250000Y-94750000D03*
%TO.P,U2,4,SDA*%
%TO.N,/Temp. & Power Sensors/SDA*%
X172250000Y-94250000D03*
%TO.P,U2,5,SCL*%
%TO.N,/Temp. & Power Sensors/SCL*%
X172250000Y-93750000D03*
%TO.P,U2,6,VS*%
%TO.N,+3.3V*%
X167850000Y-93750000D03*
%TO.P,U2,7,GND*%
%TO.N,GND*%
X167850000Y-94250000D03*
%TO.P,U2,8,Vbus*%
%TO.N,/SHUNT_V+*%
X167850000Y-94750000D03*
%TO.P,U2,9,Vin-*%
%TO.N,/SHUNT_V-*%
X167850000Y-95250000D03*
%TO.P,U2,10,Vin+*%
%TO.N,/SHUNT_V+*%
X167850000Y-95750000D03*
%TD*%
D28*
%TO.P,J7,1*%
%TO.N,GND*%
X192570000Y-54000000D03*
%TO.P,J7,2*%
%TO.N,Net-(J7-Pad2)*%
X190030000Y-53980000D03*
%TD*%
%TO.P,J6,1*%
%TO.N,GND*%
X192570000Y-57100000D03*
%TO.P,J6,2*%
%TO.N,Net-(J6-Pad2)*%
X190030000Y-57080000D03*
%TD*%
D29*
%TO.P,D2,1,K*%
%TO.N,Net-(D2-K)*%
X177050000Y-92700000D03*
D30*
%TO.P,D2,2,A*%
%TO.N,/Power/POWER_IN_P*%
X174675000Y-92700000D03*
%TD*%
D31*
%TO.P,L1,1*%
%TO.N,Net-(U5-SW)*%
X182300000Y-89275000D03*
D32*
%TO.P,L1,2*%
%TO.N,+3.3V*%
X182300000Y-95700000D03*
%TD*%
D21*
%TO.P,C24,1*%
%TO.N,GND*%
X188700000Y-93925000D03*
%TO.P,C24,2*%
%TO.N,+3.3V*%
X188700000Y-95475000D03*
%TD*%
D33*
%TO.P,J3,1,Pin_1*%
%TO.N,/SHUNT_V+*%
X165905000Y-103782500D03*
D26*
%TO.P,J3,2,Pin_2*%
%TO.N,GND*%
X162095000Y-103782500D03*
%TD*%
D19*
%TO.P,J1,1*%
%TO.N,/SHUNT_V-*%
X172227502Y-54000000D03*
D20*
%TO.P,J1,2*%
%TO.N,GND*%
X169687502Y-54000000D03*
%TD*%
D34*
%TO.P,R6,1*%
%TO.N,/SHUNT_V+*%
X164000000Y-98550000D03*
%TO.P,R6,2*%
%TO.N,/SHUNT_V-*%
X164000000Y-92450000D03*
%TD*%
D35*
%TO.P,J8,A1,GND*%
%TO.N,GND*%
X191010000Y-105600000D03*
%TO.P,J8,A4,VBUS*%
%TO.N,/USB_PWR*%
X191010000Y-104800000D03*
D36*
%TO.P,J8,A5,CC1*%
%TO.N,/Type C Connector/CC1*%
X191010000Y-103650000D03*
%TO.P,J8,A6,D+*%
%TO.N,/Type C Connector/USB2_P*%
X191010000Y-102650000D03*
%TO.P,J8,A7,D-*%
%TO.N,/Type C Connector/USB2_N*%
X191010000Y-102150000D03*
%TO.P,J8,A8,SBU1*%
%TO.N,unconnected-(J8-SBU1-PadA8)*%
X191010000Y-101150000D03*
D35*
%TO.P,J8,A9,VBUS*%
%TO.N,/USB_PWR*%
X191010000Y-100000000D03*
%TO.P,J8,A12,GND*%
%TO.N,GND*%
X191010000Y-99200000D03*
%TO.P,J8,B1,GND*%
X191010000Y-99200000D03*
%TO.P,J8,B4,VBUS*%
%TO.N,/USB_PWR*%
X191010000Y-100000000D03*
D36*
%TO.P,J8,B5,CC2*%
%TO.N,/Type C Connector/CC2*%
X191010000Y-100650000D03*
%TO.P,J8,B6,D+*%
%TO.N,/Type C Connector/USB2_P*%
X191010000Y-101650000D03*
%TO.P,J8,B7,D-*%
%TO.N,/Type C Connector/USB2_N*%
X191010000Y-103150000D03*
%TO.P,J8,B8,SBU2*%
%TO.N,unconnected-(J8-SBU2-PadB8)*%
X191010000Y-104150000D03*
D35*
%TO.P,J8,B9,VBUS*%
%TO.N,/USB_PWR*%
X191010000Y-104800000D03*
%TO.P,J8,B12,GND*%
%TO.N,GND*%
X191010000Y-105600000D03*
D37*
%TO.P,J8,S1,SHIELD*%
X191585000Y-106720000D03*
D38*
X195765000Y-106720000D03*
D37*
X191585000Y-98080000D03*
D38*
X195765000Y-98080000D03*
%TD*%
D23*
%TO.P,C28,1*%
%TO.N,/USB_PWR*%
X185575000Y-100700000D03*
%TO.P,C28,2*%
%TO.N,GND*%
X184025000Y-100700000D03*
%TD*%
D16*
%TO.P,R8,1*%
%TO.N,Net-(J7-Pad2)*%
X187700000Y-53975000D03*
%TO.P,R8,2*%
%TO.N,+3.3V*%
X187700000Y-55625000D03*
%TD*%
D39*
%TO.P,C21,1*%
%TO.N,Net-(D2-K)*%
X177950000Y-88900000D03*
%TO.P,C21,2*%
%TO.N,GND*%
X176050000Y-88900000D03*
%TD*%
D22*
%TO.P,R19,1*%
%TO.N,Net-(U5-FB)*%
X179675000Y-78112500D03*
%TO.P,R19,2*%
%TO.N,GND*%
X179675000Y-76462500D03*
%TD*%
D19*
%TO.P,J5,1,Pin_1*%
%TO.N,+3.3V*%
X160100000Y-92275000D03*
D20*
%TO.P,J5,2,Pin_2*%
%TO.N,Net-(J5-Pin_2)*%
X160100000Y-89735000D03*
%TD*%
D14*
%TO.P,SW4,1,1*%
%TO.N,GND*%
X192000000Y-80225000D03*
%TO.P,SW4,2,2*%
%TO.N,/stm32f103/BUTTON_3*%
X192000000Y-87975000D03*
%TD*%
D33*
%TO.P,J2,1,Pin_1*%
%TO.N,/SHUNT_V-*%
X172205000Y-56482500D03*
D26*
%TO.P,J2,2,Pin_2*%
%TO.N,GND*%
X168395000Y-56482500D03*
%TD*%
D15*
%TO.P,C13,1*%
%TO.N,/stm32f103/BUTTON_1*%
X188720000Y-68275000D03*
%TO.P,C13,2*%
%TO.N,GND*%
X188800000Y-66725000D03*
%TD*%
D23*
%TO.P,C27,1*%
%TO.N,/USB_PWR*%
X185575000Y-99200000D03*
%TO.P,C27,2*%
%TO.N,GND*%
X184025000Y-99200000D03*
%TD*%
D19*
%TO.P,J4,1,Pin_1*%
%TO.N,GND*%
X176390000Y-54300000D03*
D20*
%TO.P,J4,2,Pin_2*%
%TO.N,+3.3V*%
X178930000Y-54300000D03*
%TO.P,J4,3,Pin_3*%
%TO.N,/stm32f103/DIO*%
X181470000Y-54300000D03*
%TO.P,J4,4,Pin_4*%
%TO.N,/stm32f103/CLK*%
X184010000Y-54300000D03*
%TD*%
D40*
%TO.P,R17,1*%
%TO.N,+3.3V*%
X178100000Y-76462500D03*
%TO.P,R17,2*%
%TO.N,Net-(C26-Pad2)*%
X176450000Y-76462500D03*
%TD*%
D22*
%TO.P,R3,1*%
%TO.N,+3.3V*%
X188800000Y-71650000D03*
%TO.P,R3,2*%
%TO.N,/stm32f103/BUTTON_1*%
X188800000Y-70000000D03*
%TD*%
D41*
%TO.P,SW1,1,1*%
%TO.N,GND*%
X176500000Y-58400000D03*
%TO.P,SW1,2,2*%
%TO.N,Net-(U1-NRST)*%
X184250000Y-58400000D03*
%TD*%
D40*
%TO.P,R7,1*%
%TO.N,Net-(J6-Pad2)*%
X189925000Y-60200000D03*
%TO.P,R7,2*%
%TO.N,+3.3V*%
X188275000Y-60200000D03*
%TD*%
D21*
%TO.P,C23,1*%
%TO.N,Net-(U5-BOOT)*%
X174600000Y-81325000D03*
%TO.P,C23,2*%
%TO.N,Net-(U5-SW)*%
X174600000Y-82875000D03*
%TD*%
D14*
%TO.P,SW3,1,1*%
%TO.N,GND*%
X192000000Y-70325000D03*
%TO.P,SW3,2,2*%
%TO.N,/stm32f103/BUTTON_2*%
X192000000Y-78075000D03*
%TD*%
D19*
%TO.P,J1,1,Pin_1*%
%TO.N,/SHUNT_V+*%
X168360000Y-89400000D03*
D20*
%TO.P,J1,2,Pin_2*%
%TO.N,/Power/POWER_IN_P*%
X170900000Y-89400000D03*
%TO.P,J1,3,Pin_3*%
%TO.N,/USB_PWR*%
X173440000Y-89400000D03*
%TD*%
D22*
%TO.P,R4,1*%
%TO.N,+3.3V*%
X188800000Y-81525000D03*
%TO.P,R4,2*%
%TO.N,/stm32f103/BUTTON_2*%
X188800000Y-79875000D03*
%TD*%
D42*
%TO.P,Y1,1,1*%
%TO.N,Net-(U1-PC14-OSC32_IN)*%
X165100000Y-69900000D03*
%TO.P,Y1,2,2*%
%TO.N,Net-(U1-PC15-OSC32_OUT)*%
X166270000Y-69900000D03*
%TD*%
D43*
%TO.N,GND*%
X168075000Y-77300000D03*
X187600000Y-89500000D03*
X187250000Y-57500000D03*
X171000000Y-73750000D03*
X188800000Y-85375000D03*
X177200000Y-65625000D03*
X175150000Y-90500000D03*
X195625000Y-100675000D03*
X182825000Y-99350000D03*
X166475000Y-94250000D03*
X176550000Y-57350000D03*
X187550000Y-91375000D03*
X168200000Y-82475000D03*
X163325000Y-78150000D03*
X163525000Y-66450000D03*
X193100000Y-80225000D03*
X165775000Y-59500000D03*
X186875000Y-99025000D03*
X169475000Y-91175000D03*
X185900000Y-89500000D03*
X174500000Y-68900000D03*
X187625000Y-92925000D03*
X175150000Y-84950000D03*
X193225000Y-100175000D03*
X188125000Y-101175000D03*
X189350000Y-98650000D03*
X171275000Y-71375000D03*
X185925000Y-91375000D03*
X193300000Y-60300000D03*
X185000000Y-87200000D03*
X194750000Y-67350000D03*
X168575000Y-65800000D03*
X183375000Y-65850000D03*
X184575000Y-82300000D03*
X167875000Y-65650000D03*
X175200000Y-88050000D03*
X194600000Y-83150000D03*
X173850000Y-71750000D03*
X168800000Y-87500000D03*
X175125000Y-85825000D03*
X172250000Y-96225000D03*
X180700000Y-75800000D03*
X188825000Y-65650000D03*
X167975000Y-66500000D03*
X172550000Y-73800000D03*
X182800000Y-100725000D03*
X168875000Y-59450000D03*
X170800000Y-85325000D03*
X190200000Y-92925000D03*
X185000000Y-88900000D03*
X188700000Y-92950000D03*
X188125000Y-97250000D03*
X187800000Y-105575000D03*
X172100000Y-82050000D03*
X168775000Y-86050000D03*
%TO.N,+3.3V*%
X187300000Y-60250000D03*
X191950000Y-94450000D03*
X167900000Y-86800000D03*
X191350000Y-95450000D03*
X179150000Y-80700000D03*
X173000000Y-71850000D03*
X178850000Y-75720000D03*
X163150000Y-76800000D03*
X191950000Y-95450000D03*
X191350000Y-95950000D03*
X159262500Y-67787500D03*
X191350000Y-94950000D03*
X186976670Y-71607339D03*
X164800000Y-71800000D03*
X184250000Y-74150000D03*
X159662500Y-67387500D03*
X191350000Y-94450000D03*
X191950000Y-94950000D03*
X183400000Y-60300000D03*
X191950000Y-95950000D03*
X188750000Y-82600000D03*
X170150000Y-97800000D03*
X166700000Y-91750000D03*
X175200000Y-64900000D03*
X187550000Y-56550000D03*
X159200000Y-68525000D03*
X188750000Y-92150000D03*
%TO.N,Net-(U1-NRST)*%
X172843714Y-78569888D03*
X186200000Y-61150000D03*
%TO.N,/stm32f103/BUTTON_1*%
X170300000Y-78250000D03*
%TO.N,/stm32f103/BUTTON_2*%
X169300000Y-78500000D03*
%TO.N,/stm32f103/BUTTON_3*%
X168200000Y-78750000D03*
%TO.N,/SPI2_MISO*%
X171550000Y-82425000D03*
X159275000Y-71700000D03*
%TO.N,/SPI2_SCK*%
X159350000Y-74538574D03*
X172800000Y-85250000D03*
%TO.N,/SPI2_MOSI*%
X159275000Y-73150000D03*
X171800000Y-84975000D03*
%TO.N,/SPI2_CS*%
X171350000Y-86100000D03*
X159300000Y-70225000D03*
D44*
%TO.N,/USB_PWR*%
X184200000Y-97800000D03*
D43*
%TO.N,/stm32f103/CLK*%
X169650000Y-81100000D03*
%TO.N,/stm32f103/DIO*%
X168900000Y-82200000D03*
%TO.N,Net-(U5-SW)*%
X173600000Y-82350000D03*
X177425000Y-85150000D03*
X177463694Y-85711692D03*
X181300000Y-85100000D03*
X181800000Y-85100000D03*
X181300000Y-85600000D03*
X176900000Y-85150000D03*
X181800000Y-85600000D03*
X176950000Y-85675000D03*
%TO.N,Net-(J6-Pad2)*%
X174850000Y-59300000D03*
%TO.N,/Type C Connector/USB2_P*%
X193133629Y-102233548D03*
%TO.N,/Type C Connector/USB2_N*%
X193133629Y-102936548D03*
%TO.N,/SD Card & Oled Screen/SD_SCK*%
X177000000Y-73600000D03*
X181100000Y-73100000D03*
%TO.N,/UART2_RX*%
X159600000Y-76025000D03*
X171825000Y-76700000D03*
%TO.N,/UART2_TX*%
X174900000Y-73125000D03*
X159650000Y-77525000D03*
%TO.N,/Temp. & Power Sensors/SDA*%
X174700000Y-94400000D03*
X172950000Y-81450000D03*
%TO.N,/Temp. & Power Sensors/SCL*%
X167850000Y-96750000D03*
X172950000Y-80850000D03*
%TO.N,/Temp. & Power Sensors/ALERT*%
X173350000Y-97850000D03*
X172100000Y-80600000D03*
%TO.N,Net-(U5-EN)*%
X177200000Y-80850000D03*
X180800000Y-81150000D03*
%TO.N,Net-(J7-Pad2)*%
X181650000Y-60050000D03*
%TO.N,/SD Card & Oled Screen/OLED_SDA*%
X162700000Y-81050000D03*
%TO.N,/SD Card & Oled Screen/OLED_SCL*%
X163650000Y-81000000D03*
%TO.N,/BUZZER_PIN*%
X170600000Y-82075000D03*
X180175000Y-94075000D03*
%TD*%
D45*
%TO.N,GND*%
X175962500Y-84137500D02*
X175150000Y-84950000D01*
X190200000Y-92925000D02*
X190200000Y-93875000D01*
X188800000Y-65675000D02*
X188825000Y-65650000D01*
X176525000Y-58400000D02*
X176525000Y-57375000D01*
X176050000Y-89600000D02*
X175150000Y-90500000D01*
X188700000Y-92950000D02*
X188700000Y-93925000D01*
X182825000Y-100700000D02*
X182800000Y-100725000D01*
X184025000Y-99200000D02*
X182975000Y-99200000D01*
D46*
X169475000Y-92100000D02*
X169475000Y-91175000D01*
X176050000Y-88900000D02*
X175200000Y-88050000D01*
D45*
X188800000Y-66725000D02*
X188800000Y-65675000D01*
X176050000Y-88900000D02*
X176050000Y-89600000D01*
D46*
X180387500Y-75750000D02*
X179675000Y-76462500D01*
D45*
X193175000Y-60425000D02*
X193300000Y-60300000D01*
X190200000Y-93875000D02*
X190250000Y-93925000D01*
X172250000Y-95250000D02*
X172250000Y-95750000D01*
X176525000Y-57375000D02*
X176550000Y-57350000D01*
X182975000Y-99200000D02*
X182825000Y-99350000D01*
X167850000Y-94250000D02*
X166475000Y-94250000D01*
X187625000Y-92925000D02*
X187400000Y-92925000D01*
D46*
X188800000Y-86425000D02*
X188800000Y-85375000D01*
X180650000Y-75750000D02*
X180387500Y-75750000D01*
X172250000Y-96225000D02*
X172250000Y-95250000D01*
X175275000Y-88050000D02*
X175200000Y-88050000D01*
X176225000Y-87100000D02*
X175275000Y-88050000D01*
D45*
X186750000Y-57500000D02*
X186200000Y-56950000D01*
D46*
X180700000Y-75800000D02*
X180650000Y-75750000D01*
D45*
X188700000Y-105525000D02*
X186900000Y-105525000D01*
X187100000Y-93225000D02*
X187100000Y-93925000D01*
X184025000Y-100700000D02*
X182825000Y-100700000D01*
D46*
X193100000Y-80225000D02*
X192000000Y-80225000D01*
D45*
X176250000Y-84137500D02*
X175962500Y-84137500D01*
X176225000Y-88725000D02*
X176050000Y-88900000D01*
X187250000Y-57500000D02*
X186750000Y-57500000D01*
X187400000Y-92925000D02*
X187100000Y-93225000D01*
X176225000Y-87100000D02*
X176225000Y-88725000D01*
X192000000Y-60425000D02*
X193175000Y-60425000D01*
D47*
%TO.N,+3.3V*%
X159700000Y-67350000D02*
X159662500Y-67387500D01*
X163575000Y-68600000D02*
X162325000Y-67350000D01*
D48*
X187700000Y-55625000D02*
X188250000Y-56175000D01*
X188250000Y-56175000D02*
X188250000Y-60175000D01*
X188250000Y-60175000D02*
X188275000Y-60200000D01*
D47*
X182500000Y-95500000D02*
X188675000Y-95500000D01*
D45*
X167925000Y-92100000D02*
X167850000Y-92175000D01*
D47*
X162325000Y-67350000D02*
X159700000Y-67350000D01*
D45*
X167050000Y-92100000D02*
X166700000Y-91750000D01*
D48*
X187700000Y-55625000D02*
X187712500Y-55637500D01*
X184575000Y-60300000D02*
X183400000Y-60300000D01*
X188800000Y-92100000D02*
X188750000Y-92150000D01*
X187650000Y-56400000D02*
X187550000Y-56500000D01*
X188800000Y-82550000D02*
X188750000Y-82600000D01*
X187712500Y-55637500D02*
X187712500Y-56337500D01*
X188800000Y-81525000D02*
X188800000Y-82550000D01*
D45*
X178100000Y-76462500D02*
X178107500Y-76462500D01*
D47*
X159262500Y-67787500D02*
X159200000Y-67850000D01*
D48*
X187350000Y-60200000D02*
X187300000Y-60250000D01*
D45*
X167850000Y-92175000D02*
X167850000Y-93750000D01*
D47*
X182300000Y-95700000D02*
X182500000Y-95500000D01*
X188675000Y-95500000D02*
X188700000Y-95475000D01*
D48*
X187019331Y-71650000D02*
X186976670Y-71607339D01*
X187550000Y-56500000D02*
X187550000Y-56550000D01*
D47*
X163575000Y-74007500D02*
X163575000Y-68600000D01*
X159200000Y-67850000D02*
X159200000Y-68525000D01*
X190250000Y-95475000D02*
X188700000Y-95475000D01*
X159662500Y-67387500D02*
X159262500Y-67787500D01*
D48*
X188800000Y-91225000D02*
X188800000Y-92100000D01*
D45*
X178107500Y-76462500D02*
X178850000Y-75720000D01*
D48*
X187712500Y-56337500D02*
X187650000Y-56400000D01*
X188800000Y-71650000D02*
X187019331Y-71650000D01*
D45*
X167925000Y-92100000D02*
X167050000Y-92100000D01*
D48*
X188275000Y-60200000D02*
X187350000Y-60200000D01*
D47*
X161912500Y-75670000D02*
X163575000Y-74007500D01*
D48*
%TO.N,Net-(U1-NRST)*%
X184375000Y-58500000D02*
X184275000Y-58400000D01*
X186225000Y-58525000D02*
X186200000Y-58500000D01*
X186225000Y-60300000D02*
X186225000Y-58525000D01*
D45*
X186225000Y-60300000D02*
X186225000Y-61125000D01*
D48*
X186200000Y-58500000D02*
X184375000Y-58500000D01*
D45*
X186225000Y-61125000D02*
X186200000Y-61150000D01*
%TO.N,/stm32f103/BUTTON_1*%
X172736811Y-74251000D02*
X173001000Y-73986811D01*
D48*
X188720000Y-69920000D02*
X188800000Y-70000000D01*
X188720000Y-68275000D02*
X188720000Y-69920000D01*
D45*
X169950000Y-77025000D02*
X172724000Y-74251000D01*
X178700000Y-68275000D02*
X188720000Y-68275000D01*
X173001000Y-73974000D02*
X178700000Y-68275000D01*
X169950000Y-77900000D02*
X169950000Y-77025000D01*
D48*
X192000000Y-68175000D02*
X188820000Y-68175000D01*
X188820000Y-68175000D02*
X188720000Y-68275000D01*
D45*
X172724000Y-74251000D02*
X172736811Y-74251000D01*
X173001000Y-73986811D02*
X173001000Y-73974000D01*
X170300000Y-78250000D02*
X169950000Y-77900000D01*
D48*
%TO.N,/stm32f103/BUTTON_2*%
X188875000Y-78075000D02*
X188800000Y-78150000D01*
D45*
X169550000Y-78750000D02*
X170550000Y-78750000D01*
X170550000Y-78750000D02*
X174950000Y-74350000D01*
X186900000Y-78150000D02*
X188800000Y-78150000D01*
X174950000Y-74350000D02*
X183100000Y-74350000D01*
X183100000Y-74350000D02*
X186900000Y-78150000D01*
D48*
X192000000Y-78075000D02*
X188875000Y-78075000D01*
X188800000Y-79875000D02*
X188800000Y-78150000D01*
D45*
X169300000Y-78500000D02*
X169550000Y-78750000D01*
%TO.N,/stm32f103/BUTTON_3*%
X175250000Y-75100000D02*
X182250000Y-75100000D01*
D48*
X192000000Y-87975000D02*
X188800000Y-87975000D01*
X188800000Y-89575000D02*
X188800000Y-87975000D01*
D45*
X187100000Y-79950000D02*
X187100000Y-87300000D01*
X171150000Y-79200000D02*
X175250000Y-75100000D01*
X187100000Y-87300000D02*
X187775000Y-87975000D01*
X182250000Y-75100000D02*
X187100000Y-79950000D01*
X168200000Y-78750000D02*
X168650000Y-79200000D01*
X187775000Y-87975000D02*
X188800000Y-87975000D01*
X168650000Y-79200000D02*
X171150000Y-79200000D01*
D46*
%TO.N,/SPI2_MISO*%
X159275000Y-71700000D02*
X159375000Y-71600000D01*
D47*
%TO.N,/Power/POWER_IN_P*%
X171700000Y-91800000D02*
X173775000Y-91800000D01*
X173775000Y-91800000D02*
X174675000Y-92700000D01*
X170900000Y-91000000D02*
X171700000Y-91800000D01*
X170900000Y-89400000D02*
X170900000Y-91000000D01*
D49*
%TO.N,/USB_PWR*%
X189300000Y-106900000D02*
X189300000Y-107000000D01*
D47*
X185575000Y-100700000D02*
X185575000Y-99200000D01*
X184200000Y-97800000D02*
X185400000Y-97800000D01*
D49*
X189800000Y-106400000D02*
X189300000Y-106900000D01*
D47*
X185575000Y-97975000D02*
X185575000Y-99200000D01*
D49*
X191010000Y-104800000D02*
X190050000Y-104800000D01*
X190050000Y-104800000D02*
X189800000Y-105050000D01*
X185575000Y-106075000D02*
X185575000Y-100700000D01*
X186500000Y-107000000D02*
X185575000Y-106075000D01*
X191010000Y-100000000D02*
X186275000Y-100000000D01*
X189300000Y-107000000D02*
X186500000Y-107000000D01*
X186275000Y-100000000D02*
X185575000Y-100700000D01*
D47*
X185400000Y-97800000D02*
X185575000Y-97975000D01*
D49*
X189800000Y-105050000D02*
X189800000Y-106400000D01*
D45*
%TO.N,/SHUNT_V+*%
X168950000Y-94750000D02*
X167850000Y-94750000D01*
X169200000Y-95600000D02*
X169200000Y-95000000D01*
X169050000Y-95750000D02*
X169200000Y-95600000D01*
X165050000Y-95750000D02*
X164000000Y-96800000D01*
X169200000Y-95000000D02*
X168950000Y-94750000D01*
X164000000Y-96800000D02*
X164000000Y-98550000D01*
X167850000Y-95750000D02*
X169050000Y-95750000D01*
D50*
X165920000Y-103797500D02*
X165905000Y-103782500D01*
X165920000Y-106250000D02*
X165920000Y-103797500D01*
D45*
X167850000Y-95750000D02*
X165050000Y-95750000D01*
D51*
%TO.N,/SHUNT_V-*%
X164000000Y-88900000D02*
X165000000Y-87900000D01*
X165000000Y-87900000D02*
X165800000Y-87100000D01*
D45*
X164000000Y-94200000D02*
X164000000Y-92450000D01*
D51*
X165800000Y-74300000D02*
X172227502Y-67872498D01*
D45*
X165050000Y-95250000D02*
X164000000Y-94200000D01*
D51*
X164000000Y-91400000D02*
X164100000Y-91500000D01*
X165800000Y-87100000D02*
X165800000Y-74300000D01*
X172227502Y-67872498D02*
X172227502Y-54000000D01*
X164000000Y-88900000D02*
X164000000Y-91400000D01*
D45*
X167850000Y-95250000D02*
X165050000Y-95250000D01*
%TO.N,Net-(U5-BOOT)*%
X174600000Y-81325000D02*
X175325000Y-81325000D01*
X175325000Y-81325000D02*
X175862500Y-81862500D01*
X175862500Y-81862500D02*
X176250000Y-81862500D01*
%TO.N,Net-(U5-SW)*%
X173600000Y-82700000D02*
X173600000Y-82350000D01*
X174600000Y-82875000D02*
X173775000Y-82875000D01*
X173775000Y-82875000D02*
X173600000Y-82700000D01*
%TO.N,Net-(C26-Pad2)*%
X176450000Y-79812500D02*
X176500000Y-79862500D01*
X176450000Y-76462500D02*
X176450000Y-79812500D01*
D48*
%TO.N,Net-(U5-FB)*%
X178050000Y-79862500D02*
X178050000Y-81762500D01*
X178050000Y-78162500D02*
X178050000Y-79862500D01*
X179675000Y-78112500D02*
X178100000Y-78112500D01*
X178050000Y-81762500D02*
X178150000Y-81862500D01*
X178100000Y-78112500D02*
X178050000Y-78162500D01*
%TO.N,Net-(J6-Pad2)*%
X190030000Y-57080000D02*
X190030000Y-60095000D01*
X190030000Y-60095000D02*
X189925000Y-60200000D01*
D45*
X189100000Y-61650000D02*
X177200000Y-61650000D01*
X189925000Y-60200000D02*
X189925000Y-60825000D01*
X189925000Y-60825000D02*
X189100000Y-61650000D01*
X177200000Y-61650000D02*
X174850000Y-59300000D01*
%TO.N,/Type C Connector/CC1*%
X191010000Y-103650000D02*
X188925000Y-103650000D01*
X188925000Y-103650000D02*
X188700000Y-103875000D01*
D52*
%TO.N,/Type C Connector/USB2_P*%
X191625000Y-102650000D02*
X191010000Y-102650000D01*
X191901302Y-102373698D02*
X191625000Y-102650000D01*
X191010000Y-101650000D02*
X191750000Y-101650000D01*
X191850000Y-102100000D02*
X192123698Y-102373698D01*
X192123698Y-102373698D02*
X191901302Y-102373698D01*
X192123698Y-102373698D02*
X192993479Y-102373698D01*
X191750000Y-101650000D02*
X191850000Y-101750000D01*
X191850000Y-101750000D02*
X191850000Y-102100000D01*
X192993479Y-102373698D02*
X193133629Y-102233548D01*
D45*
%TO.N,/Type C Connector/CC2*%
X189500000Y-101900000D02*
X189500000Y-101000000D01*
X189850000Y-100650000D02*
X191010000Y-100650000D01*
X189500000Y-101000000D02*
X189850000Y-100650000D01*
X189200000Y-102200000D02*
X189500000Y-101900000D01*
X186900000Y-102900000D02*
X187600000Y-102200000D01*
X186900000Y-103875000D02*
X186900000Y-102900000D01*
X187600000Y-102200000D02*
X189200000Y-102200000D01*
D52*
%TO.N,/Type C Connector/USB2_N*%
X193133629Y-102936548D02*
X192997081Y-102800000D01*
X192997081Y-102800000D02*
X192103602Y-102800000D01*
X192100000Y-102800000D02*
X191750000Y-103150000D01*
X191010000Y-103150000D02*
X191750000Y-103150000D01*
X191010000Y-102150000D02*
X190250000Y-102150000D01*
X190250000Y-102150000D02*
X190125000Y-102275000D01*
X190125000Y-102925000D02*
X190350000Y-103150000D01*
X190125000Y-102275000D02*
X190125000Y-102925000D01*
X190350000Y-103150000D02*
X191010000Y-103150000D01*
D45*
%TO.N,/SD Card & Oled Screen/SD_SCK*%
X177000000Y-73600000D02*
X177500000Y-73100000D01*
X177500000Y-73100000D02*
X181100000Y-73100000D01*
%TO.N,/Temp. & Power Sensors/SDA*%
X174550000Y-94250000D02*
X174700000Y-94400000D01*
X172250000Y-94250000D02*
X174550000Y-94250000D01*
%TO.N,/Temp. & Power Sensors/SCL*%
X169900000Y-96750000D02*
X167850000Y-96750000D01*
X170600000Y-96050000D02*
X169900000Y-96750000D01*
X170900000Y-93750000D02*
X170600000Y-94050000D01*
X172250000Y-93750000D02*
X170900000Y-93750000D01*
X170600000Y-94050000D02*
X170600000Y-96050000D01*
%TO.N,/Temp. & Power Sensors/ALERT*%
X173350000Y-94750000D02*
X173750000Y-95150000D01*
X172250000Y-94750000D02*
X173350000Y-94750000D01*
X173750000Y-95150000D02*
X173750000Y-97450000D01*
X173750000Y-97450000D02*
X173350000Y-97850000D01*
%TO.N,Net-(U5-EN)*%
X180800000Y-81150000D02*
X180800000Y-81950000D01*
D48*
X181600000Y-81950000D02*
X180800000Y-81950000D01*
X180800000Y-81950000D02*
X180012500Y-81950000D01*
X177200000Y-81862500D02*
X177200000Y-80850000D01*
X180012500Y-81950000D02*
X180000000Y-81937500D01*
D45*
%TO.N,Net-(J7-Pad2)*%
X182500000Y-57300000D02*
X181650000Y-58150000D01*
X184375000Y-57300000D02*
X182500000Y-57300000D01*
X181650000Y-58150000D02*
X181650000Y-60050000D01*
X187700000Y-53975000D02*
X184375000Y-57300000D01*
D48*
X190030000Y-53980000D02*
X187705000Y-53980000D01*
X187705000Y-53980000D02*
X187700000Y-53975000D01*
%TD*%
%TA.AperFunction,Conductor*%
%TO.N,Net-(U5-SW)*%
G36*
X182143039Y-84819685D02*
G01*
X182188794Y-84872489D01*
X182200000Y-84924000D01*
X182200000Y-88100000D01*
X183476000Y-88100000D01*
X183543039Y-88119685D01*
X183588794Y-88172489D01*
X183600000Y-88224000D01*
X183600000Y-89976000D01*
X183580315Y-90043039D01*
X183527511Y-90088794D01*
X183476000Y-90100000D01*
X181124000Y-90100000D01*
X181056961Y-90080315D01*
X181011206Y-90027511D01*
X181000000Y-89976000D01*
X181000000Y-84924000D01*
X181019685Y-84856961D01*
X181072489Y-84811206D01*
X181124000Y-84800000D01*
X182076000Y-84800000D01*
X182143039Y-84819685D01*
G37*
%TD.AperFunction*%
%TD*%
%TA.AperFunction,Conductor*%
%TO.N,Net-(U5-BOOT)*%
G36*
X176007577Y-80569685D02*
G01*
X176014837Y-80574758D01*
X176015021Y-80574862D01*
X176015023Y-80574863D01*
X176015025Y-80574864D01*
X176149410Y-80627859D01*
X176233856Y-80638000D01*
X176551908Y-80638000D01*
X176618947Y-80657685D01*
X176664702Y-80710489D01*
X176674022Y-80772690D01*
X176674500Y-80772690D01*
X176674500Y-80775882D01*
X176674846Y-80778192D01*
X176674500Y-80780818D01*
X176674500Y-80919184D01*
X176694616Y-80994260D01*
X176692953Y-81064110D01*
X176674612Y-81099984D01*
X176647209Y-81137114D01*
X176647206Y-81137119D01*
X176602353Y-81265298D01*
X176602353Y-81265300D01*
X176599500Y-81295730D01*
X176599500Y-82429269D01*
X176602353Y-82459699D01*
X176602354Y-82459701D01*
X176628718Y-82535045D01*
X176632280Y-82604824D01*
X176597552Y-82665451D01*
X176535558Y-82697679D01*
X176511677Y-82700000D01*
X175574000Y-82700000D01*
X175506961Y-82680315D01*
X175461206Y-82627511D01*
X175450000Y-82576000D01*
X175450000Y-82150000D01*
X175400000Y-82100000D01*
X174134050Y-82100000D01*
X174067011Y-82080315D01*
X174046369Y-82063681D01*
X174034823Y-82052135D01*
X174020505Y-82027335D01*
X173922665Y-81929495D01*
X173897864Y-81915176D01*
X173886319Y-81903631D01*
X173877083Y-81886717D01*
X173863784Y-81872769D01*
X173859240Y-81854040D01*
X173852834Y-81842308D01*
X173853644Y-81830973D01*
X173850000Y-81815950D01*
X173850000Y-80674000D01*
X173869685Y-80606961D01*
X173922489Y-80561206D01*
X173974000Y-80550000D01*
X175940538Y-80550000D01*
X176007577Y-80569685D01*
G37*
%TD.AperFunction*%
%TD*%
%TA.AperFunction,Conductor*%
%TO.N,Net-(D2-K)*%
G36*
X179400000Y-92473638D02*
G01*
X179380315Y-92540677D01*
X179363681Y-92561319D01*
X178361319Y-93563681D01*
X178299996Y-93597166D01*
X178273638Y-93600000D01*
X175801362Y-93600000D01*
X175771921Y-93591355D01*
X175741935Y-93584832D01*
X175736919Y-93581077D01*
X175734323Y-93580315D01*
X175713681Y-93563681D01*
X175686319Y-93536319D01*
X175652834Y-93474996D01*
X175650000Y-93448638D01*
X175650000Y-91926362D01*
X175669685Y-91859323D01*
X175686319Y-91838681D01*
X175688681Y-91836319D01*
X175750004Y-91802834D01*
X175776362Y-91800000D01*
X176400000Y-91800000D01*
X177200000Y-91000000D01*
X179400000Y-91000000D01*
X179400000Y-92473638D01*
G37*
%TD.AperFunction*%
%TD*%
%TA.AperFunction,Conductor*%
%TO.N,Net-(U5-FB)*%
G36*
X177784729Y-77230819D02*
G01*
X177784969Y-77229807D01*
X177792511Y-77231588D01*
X177792517Y-77231591D01*
X177852127Y-77238000D01*
X178347872Y-77237999D01*
X178407483Y-77231591D01*
X178411705Y-77230593D01*
X178412593Y-77230023D01*
X178447528Y-77225000D01*
X178601000Y-77225000D01*
X178668039Y-77244685D01*
X178713794Y-77297489D01*
X178725000Y-77349000D01*
X178725000Y-80351894D01*
X178708388Y-80413893D01*
X178660312Y-80497163D01*
X178660312Y-80497164D01*
X178624500Y-80630817D01*
X178624500Y-80769183D01*
X178660312Y-80902836D01*
X178685929Y-80947207D01*
X178708387Y-80986104D01*
X178725000Y-81048104D01*
X178725000Y-82601000D01*
X178705315Y-82668039D01*
X178652511Y-82713794D01*
X178601000Y-82725000D01*
X177879575Y-82725000D01*
X177812536Y-82705315D01*
X177766781Y-82652511D01*
X177756837Y-82583353D01*
X177762534Y-82560045D01*
X177797645Y-82459701D01*
X177797646Y-82459699D01*
X177800500Y-82429269D01*
X177800500Y-81295730D01*
X177797646Y-81265300D01*
X177797646Y-81265298D01*
X177760759Y-81159883D01*
X177752793Y-81137118D01*
X177725387Y-81099984D01*
X177701417Y-81034357D01*
X177705382Y-80994261D01*
X177725500Y-80919183D01*
X177725500Y-80780817D01*
X177689688Y-80647164D01*
X177620505Y-80527335D01*
X177616613Y-80520593D01*
X177600000Y-80458593D01*
X177600000Y-77349000D01*
X177602550Y-77340314D01*
X177601262Y-77331353D01*
X177612240Y-77307312D01*
X177619685Y-77281961D01*
X177626525Y-77276033D01*
X177630287Y-77267797D01*
X177652521Y-77253507D01*
X177672489Y-77236206D01*
X177683003Y-77233918D01*
X177689065Y-77230023D01*
X177724000Y-77225000D01*
X177752475Y-77225000D01*
X177784729Y-77230819D01*
G37*
%TD.AperFunction*%
%TD*%
%TA.AperFunction,Conductor*%
%TO.N,Net-(D2-K)*%
G36*
X180643039Y-82969685D02*
G01*
X180688794Y-83022489D01*
X180700000Y-83074000D01*
X180700000Y-84876877D01*
X180698738Y-84894523D01*
X180694500Y-84923998D01*
X180694500Y-88976000D01*
X180674815Y-89043039D01*
X180622011Y-89088794D01*
X180570500Y-89100000D01*
X179400000Y-89100000D01*
X179400000Y-91000000D01*
X177200000Y-91000000D01*
X177200000Y-90897377D01*
X177205500Y-90867956D01*
X177205500Y-86629500D01*
X177225185Y-86562461D01*
X177277989Y-86516706D01*
X177329500Y-86505500D01*
X177475990Y-86505500D01*
X177476000Y-86505500D01*
X177540941Y-86498518D01*
X177592452Y-86487312D01*
X177630658Y-86476354D01*
X177727571Y-86419675D01*
X177780375Y-86373920D01*
X177780382Y-86373912D01*
X177780387Y-86373908D01*
X177822548Y-86329192D01*
X177822553Y-86329187D01*
X177873439Y-86229111D01*
X177893124Y-86162072D01*
X177905500Y-86076000D01*
X177905500Y-86030687D01*
X177922113Y-85968687D01*
X177953382Y-85914528D01*
X177989194Y-85780875D01*
X177989194Y-85642509D01*
X177953382Y-85508856D01*
X177923796Y-85457611D01*
X177907324Y-85389715D01*
X177913754Y-85361000D01*
X177912584Y-85360687D01*
X177914688Y-85352836D01*
X177950500Y-85219183D01*
X177950500Y-85080817D01*
X177914688Y-84947164D01*
X177912585Y-84939314D01*
X177913222Y-84939143D01*
X177905500Y-84900316D01*
X177905500Y-84891943D01*
X177905500Y-84891932D01*
X177901183Y-84840756D01*
X177894224Y-84799801D01*
X177881397Y-84750075D01*
X177861957Y-84694519D01*
X177855000Y-84653569D01*
X177855000Y-83621430D01*
X177861959Y-83580474D01*
X177862457Y-83579049D01*
X177881397Y-83524925D01*
X177894224Y-83475199D01*
X177901183Y-83434244D01*
X177905500Y-83383068D01*
X177905500Y-83154500D01*
X177925185Y-83087461D01*
X177977989Y-83041706D01*
X178029500Y-83030500D01*
X178600990Y-83030500D01*
X178601000Y-83030500D01*
X178665941Y-83023518D01*
X178717452Y-83012312D01*
X178755658Y-83001354D01*
X178814463Y-82966961D01*
X178877064Y-82950000D01*
X180576000Y-82950000D01*
X180643039Y-82969685D01*
G37*
%TD.AperFunction*%
%TD*%
%TA.AperFunction,Conductor*%
%TO.N,Net-(U5-SW)*%
G36*
X177543039Y-82919685D02*
G01*
X177588794Y-82972489D01*
X177600000Y-83024000D01*
X177600000Y-83383068D01*
X177593041Y-83424023D01*
X177552354Y-83540298D01*
X177552353Y-83540300D01*
X177549500Y-83570730D01*
X177549500Y-84704269D01*
X177552353Y-84734699D01*
X177552354Y-84734701D01*
X177593041Y-84850977D01*
X177600000Y-84891932D01*
X177600000Y-86076000D01*
X177580315Y-86143039D01*
X177527511Y-86188794D01*
X177476000Y-86200000D01*
X176924000Y-86200000D01*
X176856961Y-86180315D01*
X176811206Y-86127511D01*
X176800000Y-86076000D01*
X176800000Y-84891932D01*
X176806959Y-84850977D01*
X176847645Y-84734701D01*
X176847646Y-84734699D01*
X176850500Y-84704269D01*
X176850500Y-83570730D01*
X176847646Y-83540300D01*
X176847645Y-83540298D01*
X176806959Y-83424023D01*
X176800000Y-83383068D01*
X176800000Y-83024000D01*
X176819685Y-82956961D01*
X176872489Y-82911206D01*
X176924000Y-82900000D01*
X177476000Y-82900000D01*
X177543039Y-82919685D01*
G37*
%TD.AperFunction*%
%TD*%
%TA.AperFunction,Conductor*%
%TO.N,/SHUNT_V+*%
G36*
X165615677Y-97719685D02*
G01*
X165636319Y-97736319D01*
X165763681Y-97863681D01*
X165797166Y-97925004D01*
X165800000Y-97951362D01*
X165800000Y-99400000D01*
X166963681Y-100563681D01*
X166997166Y-100625004D01*
X167000000Y-100651362D01*
X167000000Y-107148638D01*
X166991355Y-107178078D01*
X166984832Y-107208065D01*
X166981077Y-107213080D01*
X166980315Y-107215677D01*
X166963681Y-107236319D01*
X166936319Y-107263681D01*
X166874996Y-107297166D01*
X166848638Y-107300000D01*
X164801362Y-107300000D01*
X164734323Y-107280315D01*
X164713681Y-107263681D01*
X164686319Y-107236319D01*
X164652834Y-107174996D01*
X164650000Y-107148638D01*
X164650000Y-102150000D01*
X162236319Y-99736319D01*
X162202834Y-99674996D01*
X162200000Y-99648638D01*
X162200000Y-97951362D01*
X162208644Y-97921921D01*
X162215168Y-97891935D01*
X162218922Y-97886919D01*
X162219685Y-97884323D01*
X162236319Y-97863681D01*
X162363681Y-97736319D01*
X162425004Y-97702834D01*
X162451362Y-97700000D01*
X165548638Y-97700000D01*
X165615677Y-97719685D01*
G37*
%TD.AperFunction*%
%TD*%
%TA.AperFunction,Conductor*%
%TO.N,+3.3V*%
G36*
X192165677Y-94019685D02*
G01*
X192186319Y-94036319D01*
X192313681Y-94163681D01*
X192347166Y-94225004D01*
X192350000Y-94251362D01*
X192350000Y-96248638D01*
X192341355Y-96278078D01*
X192334832Y-96308065D01*
X192331077Y-96313080D01*
X192330315Y-96315677D01*
X192313681Y-96336319D01*
X192286319Y-96363681D01*
X192224996Y-96397166D01*
X192198638Y-96400000D01*
X191201362Y-96400000D01*
X191134323Y-96380315D01*
X191113681Y-96363681D01*
X190750000Y-96000000D01*
X189774000Y-96000000D01*
X189706961Y-95980315D01*
X189661206Y-95927511D01*
X189650000Y-95876000D01*
X189650000Y-95124000D01*
X189669685Y-95056961D01*
X189722489Y-95011206D01*
X189774000Y-95000000D01*
X191050000Y-95000000D01*
X191150000Y-94900000D01*
X191150000Y-94151362D01*
X191158644Y-94121921D01*
X191165168Y-94091935D01*
X191168922Y-94086919D01*
X191169685Y-94084323D01*
X191186319Y-94063681D01*
X191213681Y-94036319D01*
X191275004Y-94002834D01*
X191301362Y-94000000D01*
X192098638Y-94000000D01*
X192165677Y-94019685D01*
G37*
%TD.AperFunction*%
%TD*%
%TA.AperFunction,Conductor*%
%TO.N,GND*%
G36*
X175574000Y-83005500D02*
G01*
X176370500Y-83005500D01*
X176437539Y-83025185D01*
X176483294Y-83077989D01*
X176494500Y-83129500D01*
X176494500Y-83383074D01*
X176498816Y-83434239D01*
X176505774Y-83475189D01*
X176505775Y-83475194D01*
X176518603Y-83524926D01*
X176538041Y-83580473D01*
X176545000Y-83621428D01*
X176545000Y-84653567D01*
X176544642Y-84655832D01*
X176544952Y-84657008D01*
X176541473Y-84675893D01*
X176538962Y-84691790D01*
X176538516Y-84693166D01*
X176518602Y-84750078D01*
X176512851Y-84772371D01*
X176511687Y-84775965D01*
X176499241Y-84794197D01*
X176484132Y-84820653D01*
X176484441Y-84820890D01*
X176482708Y-84823147D01*
X176481412Y-84825418D01*
X176479495Y-84827334D01*
X176479492Y-84827339D01*
X176410313Y-84947161D01*
X176410312Y-84947164D01*
X176374500Y-85080817D01*
X176374500Y-85219182D01*
X176410312Y-85352835D01*
X176410312Y-85352836D01*
X176440620Y-85405332D01*
X176457091Y-85473233D01*
X176453007Y-85499423D01*
X176424500Y-85605815D01*
X176424500Y-85744182D01*
X176460312Y-85877836D01*
X176477887Y-85908276D01*
X176494500Y-85970277D01*
X176494500Y-86076000D01*
X176494501Y-86076009D01*
X176501481Y-86140935D01*
X176501483Y-86140947D01*
X176512688Y-86192453D01*
X176523644Y-86230654D01*
X176523646Y-86230658D01*
X176580323Y-86327568D01*
X176580325Y-86327571D01*
X176626081Y-86380376D01*
X176626091Y-86380387D01*
X176670807Y-86422548D01*
X176670809Y-86422549D01*
X176670813Y-86422553D01*
X176770889Y-86473439D01*
X176837928Y-86493124D01*
X176900000Y-86502049D01*
X176900000Y-90867956D01*
X176767957Y-91000000D01*
X174500000Y-91000000D01*
X174500000Y-89853828D01*
X174506211Y-89841639D01*
X174506212Y-89841636D01*
X174508230Y-89835424D01*
X174562171Y-89669409D01*
X174576765Y-89577259D01*
X174590500Y-89490551D01*
X174590500Y-89309448D01*
X174574019Y-89205397D01*
X174562171Y-89130591D01*
X174506211Y-88958361D01*
X174506211Y-88958360D01*
X174500000Y-88946170D01*
X174500000Y-83800000D01*
X174600000Y-83700000D01*
X175400000Y-83700000D01*
X175400000Y-83048850D01*
X175447989Y-83007268D01*
X175517142Y-82997324D01*
X175574000Y-83005500D01*
G37*
%TD.AperFunction*%
%TD*%
%TA.AperFunction,Conductor*%
%TO.N,GND*%
G36*
X186793834Y-55620783D02*
G01*
X186849767Y-55662655D01*
X186874184Y-55728119D01*
X186874500Y-55736965D01*
X186874500Y-55868102D01*
X186880126Y-55914954D01*
X186885122Y-55956561D01*
X186885122Y-55956563D01*
X186885123Y-55956564D01*
X186902722Y-56001192D01*
X186940639Y-56097343D01*
X187007937Y-56186088D01*
X187032760Y-56251399D01*
X187018332Y-56319763D01*
X187016521Y-56323011D01*
X187013721Y-56327860D01*
X187013719Y-56327865D01*
X186974500Y-56474234D01*
X186974500Y-56625766D01*
X186980974Y-56649926D01*
X187013719Y-56772136D01*
X187037417Y-56813181D01*
X187089485Y-56903365D01*
X187196635Y-57010515D01*
X187327865Y-57086281D01*
X187474234Y-57125500D01*
X187474236Y-57125500D01*
X187575500Y-57125500D01*
X187642539Y-57145185D01*
X187688294Y-57197989D01*
X187699500Y-57249500D01*
X187699500Y-59467404D01*
X187693156Y-59489007D01*
X187691411Y-59511457D01*
X187681101Y-59530062D01*
X187679815Y-59534443D01*
X187674304Y-59542329D01*
X187630249Y-59600425D01*
X187574057Y-59641948D01*
X187531445Y-59649500D01*
X187277525Y-59649500D01*
X187184224Y-59674500D01*
X187184223Y-59674499D01*
X187137512Y-59687016D01*
X187137511Y-59687016D01*
X187116994Y-59698861D01*
X187108951Y-59703119D01*
X187098405Y-59708214D01*
X187077865Y-59713719D01*
X187030905Y-59740830D01*
X187026802Y-59742814D01*
X186996646Y-59747820D01*
X186966950Y-59755024D01*
X186962510Y-59753487D01*
X186957875Y-59754257D01*
X186929800Y-59742166D01*
X186900923Y-59732171D01*
X186896398Y-59727780D01*
X186893704Y-59726620D01*
X186890872Y-59722418D01*
X186874048Y-59706091D01*
X186859583Y-59687016D01*
X186817922Y-59632078D01*
X186817917Y-59632074D01*
X186811928Y-59626085D01*
X186814462Y-59623550D01*
X186782895Y-59580501D01*
X186775500Y-59538319D01*
X186775500Y-59261785D01*
X186795185Y-59194746D01*
X186824011Y-59163412D01*
X186860451Y-59135451D01*
X186952698Y-59015233D01*
X187010687Y-58875236D01*
X187025500Y-58762720D01*
X187025500Y-58237280D01*
X187010687Y-58124764D01*
X186952698Y-57984767D01*
X186860451Y-57864549D01*
X186740233Y-57772302D01*
X186740229Y-57772300D01*
X186676801Y-57746027D01*
X186600236Y-57714313D01*
X186586171Y-57712461D01*
X186487727Y-57699500D01*
X186487720Y-57699500D01*
X185912280Y-57699500D01*
X185912272Y-57699500D01*
X185799764Y-57714313D01*
X185799763Y-57714313D01*
X185659770Y-57772300D01*
X185659767Y-57772301D01*
X185659767Y-57772302D01*
X185617484Y-57804747D01*
X185539545Y-57864552D01*
X185511588Y-57900987D01*
X185508510Y-57903234D01*
X185506926Y-57906703D01*
X185480507Y-57923680D01*
X185455160Y-57942189D01*
X185450423Y-57943014D01*
X185448148Y-57944477D01*
X185413213Y-57949500D01*
X185344800Y-57949500D01*
X185277761Y-57929815D01*
X185232006Y-57877011D01*
X185222096Y-57843383D01*
X185215573Y-57798607D01*
X185164198Y-57693517D01*
X185164196Y-57693515D01*
X185164196Y-57693514D01*
X185081485Y-57610803D01*
X185081483Y-57610802D01*
X184982158Y-57562245D01*
X184930577Y-57515118D01*
X184912662Y-57447584D01*
X184934103Y-57381085D01*
X184948933Y-57363169D01*
X186662819Y-55649284D01*
X186724142Y-55615799D01*
X186793834Y-55620783D01*
G37*
%TD.AperFunction*%
%TA.AperFunction,Conductor*%
G36*
X196004042Y-51910765D02*
G01*
X196028951Y-51912397D01*
X196251586Y-51926989D01*
X196267647Y-51929104D01*
X196506963Y-51976708D01*
X196522606Y-51980900D01*
X196753657Y-52059331D01*
X196768629Y-52065532D01*
X196983293Y-52171392D01*
X196987460Y-52173447D01*
X197001507Y-52181557D01*
X197204377Y-52317111D01*
X197217241Y-52326982D01*
X197400678Y-52487852D01*
X197412147Y-52499321D01*
X197573017Y-52682758D01*
X197582891Y-52695626D01*
X197718442Y-52898492D01*
X197726552Y-52912539D01*
X197834464Y-53131363D01*
X197840671Y-53146349D01*
X197919096Y-53377382D01*
X197923294Y-53393048D01*
X197970893Y-53632340D01*
X197973011Y-53648422D01*
X197987540Y-53870103D01*
X197989235Y-53895956D01*
X197989500Y-53904066D01*
X197989500Y-105895933D01*
X197989235Y-105904042D01*
X197989235Y-105904043D01*
X197973011Y-106151577D01*
X197970893Y-106167659D01*
X197923294Y-106406951D01*
X197919096Y-106422617D01*
X197840671Y-106653650D01*
X197834464Y-106668636D01*
X197726552Y-106887460D01*
X197718442Y-106901507D01*
X197582891Y-107104373D01*
X197573017Y-107117241D01*
X197412147Y-107300678D01*
X197400678Y-107312147D01*
X197217241Y-107473017D01*
X197204373Y-107482891D01*
X197001507Y-107618442D01*
X196987460Y-107626552D01*
X196768636Y-107734464D01*
X196753650Y-107740671D01*
X196522617Y-107819096D01*
X196506951Y-107823294D01*
X196267659Y-107870893D01*
X196251577Y-107873011D01*
X196004043Y-107889235D01*
X195995933Y-107889500D01*
X189421528Y-107889500D01*
X189354489Y-107869815D01*
X189308734Y-107817011D01*
X189298790Y-107747853D01*
X189327815Y-107684297D01*
X189386593Y-107646523D01*
X189397336Y-107643883D01*
X189484460Y-107626552D01*
X189489744Y-107625501D01*
X189608127Y-107576465D01*
X189714669Y-107505276D01*
X189805276Y-107414669D01*
X189876465Y-107308127D01*
X189912738Y-107220552D01*
X189939612Y-107180332D01*
X190305277Y-106814669D01*
X190376465Y-106708127D01*
X190425501Y-106589743D01*
X190450500Y-106464069D01*
X190450500Y-106335931D01*
X190450500Y-105574500D01*
X190470185Y-105507461D01*
X190522989Y-105461706D01*
X190574500Y-105450500D01*
X191088503Y-105450500D01*
X191088511Y-105450499D01*
X191482871Y-105450499D01*
X191482872Y-105450499D01*
X191496321Y-105449053D01*
X191565081Y-105461456D01*
X191616220Y-105509065D01*
X191616967Y-105510342D01*
X191672498Y-105606524D01*
X191768476Y-105702502D01*
X191768477Y-105702503D01*
X191768479Y-105702504D01*
X191886021Y-105770367D01*
X191886022Y-105770367D01*
X191886025Y-105770369D01*
X192017133Y-105805500D01*
X192017135Y-105805500D01*
X192152865Y-105805500D01*
X192152867Y-105805500D01*
X192283975Y-105770369D01*
X192401524Y-105702502D01*
X192497502Y-105606524D01*
X192565369Y-105488975D01*
X192600500Y-105357867D01*
X192600500Y-105222133D01*
X192565369Y-105091025D01*
X192497502Y-104973476D01*
X192401524Y-104877498D01*
X192401522Y-104877497D01*
X192401520Y-104877495D01*
X192283978Y-104809632D01*
X192283979Y-104809632D01*
X192234500Y-104796374D01*
X192152867Y-104774500D01*
X192059499Y-104774500D01*
X191992460Y-104754815D01*
X191946705Y-104702011D01*
X191937434Y-104672320D01*
X191935499Y-104661495D01*
X191935499Y-104602128D01*
X191929091Y-104542517D01*
X191900555Y-104466009D01*
X191898585Y-104454988D01*
X191901209Y-104430940D01*
X191899484Y-104406811D01*
X191905764Y-104389209D01*
X191906166Y-104385530D01*
X191907797Y-104383512D01*
X191910165Y-104376876D01*
X191919719Y-104358126D01*
X191929761Y-104294724D01*
X191935500Y-104258493D01*
X191935500Y-104041506D01*
X191919720Y-103941877D01*
X191918566Y-103938326D01*
X191918435Y-103933765D01*
X191918193Y-103932235D01*
X191918390Y-103932203D01*
X191916566Y-103868485D01*
X191918566Y-103861674D01*
X191919720Y-103858122D01*
X191935500Y-103758493D01*
X191935500Y-103617191D01*
X191955185Y-103550152D01*
X191997502Y-103509803D01*
X192017311Y-103498367D01*
X192244009Y-103271669D01*
X192270936Y-103256965D01*
X192296755Y-103240373D01*
X192302955Y-103239481D01*
X192305332Y-103238184D01*
X192331690Y-103235350D01*
X192570096Y-103235350D01*
X192637135Y-103255035D01*
X192668469Y-103283860D01*
X192673113Y-103289912D01*
X192673114Y-103289913D01*
X192780264Y-103397063D01*
X192911494Y-103472829D01*
X193057863Y-103512048D01*
X193057865Y-103512048D01*
X193209393Y-103512048D01*
X193209395Y-103512048D01*
X193355764Y-103472829D01*
X193486994Y-103397063D01*
X193594144Y-103289913D01*
X193669910Y-103158683D01*
X193709129Y-103012314D01*
X193709129Y-102860782D01*
X193669910Y-102714413D01*
X193669909Y-102714412D01*
X193669909Y-102714410D01*
X193644538Y-102670469D01*
X193631016Y-102647048D01*
X193614543Y-102579150D01*
X193631017Y-102523046D01*
X193669909Y-102455685D01*
X193689181Y-102383760D01*
X193709129Y-102309314D01*
X193709129Y-102157782D01*
X193669910Y-102011413D01*
X193594144Y-101880183D01*
X193486994Y-101773033D01*
X193383702Y-101713397D01*
X193355765Y-101697267D01*
X193282579Y-101677657D01*
X193209395Y-101658048D01*
X193057863Y-101658048D01*
X192911492Y-101697267D01*
X192780264Y-101773033D01*
X192780261Y-101773035D01*
X192673116Y-101880180D01*
X192668166Y-101886632D01*
X192666360Y-101885246D01*
X192661654Y-101895551D01*
X192641820Y-101908297D01*
X192624757Y-101924566D01*
X192611502Y-101927781D01*
X192602876Y-101933325D01*
X192567941Y-101938348D01*
X192409350Y-101938348D01*
X192342311Y-101918663D01*
X192296556Y-101865859D01*
X192285350Y-101814348D01*
X192285350Y-101692687D01*
X192285350Y-101692685D01*
X192255682Y-101581961D01*
X192198367Y-101482689D01*
X192117311Y-101401633D01*
X192017311Y-101301633D01*
X192017309Y-101301632D01*
X192017307Y-101301630D01*
X191997500Y-101290195D01*
X191949284Y-101239628D01*
X191935500Y-101182808D01*
X191935500Y-101041506D01*
X191919720Y-100941877D01*
X191918566Y-100938326D01*
X191918435Y-100933765D01*
X191918193Y-100932235D01*
X191918390Y-100932203D01*
X191916566Y-100868485D01*
X191918566Y-100861674D01*
X191919720Y-100858122D01*
X191935500Y-100758493D01*
X191935500Y-100541506D01*
X191919720Y-100441877D01*
X191919719Y-100441875D01*
X191919719Y-100441874D01*
X191910165Y-100423124D01*
X191897269Y-100354458D01*
X191898585Y-100345010D01*
X191900554Y-100333990D01*
X191929091Y-100257483D01*
X191935500Y-100197873D01*
X191935499Y-100138506D01*
X191937435Y-100127680D01*
X191948315Y-100105855D01*
X191955185Y-100082461D01*
X191963624Y-100075148D01*
X191968609Y-100065150D01*
X191989564Y-100052671D01*
X192007989Y-100036706D01*
X192021200Y-100033831D01*
X192028641Y-100029401D01*
X192039815Y-100029782D01*
X192059500Y-100025500D01*
X192152865Y-100025500D01*
X192152867Y-100025500D01*
X192283975Y-99990369D01*
X192401524Y-99922502D01*
X192497502Y-99826524D01*
X192565369Y-99708975D01*
X192600500Y-99577867D01*
X192600500Y-99442133D01*
X192565369Y-99311025D01*
X192502068Y-99201385D01*
X192497504Y-99193479D01*
X192497499Y-99193473D01*
X192401526Y-99097500D01*
X192401520Y-99097495D01*
X192283978Y-99029632D01*
X192283979Y-99029632D01*
X192268484Y-99025480D01*
X192152867Y-98994500D01*
X192017133Y-98994500D01*
X191901515Y-99025480D01*
X191886021Y-99029632D01*
X191768479Y-99097495D01*
X191768473Y-99097500D01*
X191672500Y-99193473D01*
X191672498Y-99193476D01*
X191616967Y-99289658D01*
X191566399Y-99337873D01*
X191497792Y-99351095D01*
X191496416Y-99350956D01*
X191482873Y-99349500D01*
X191482867Y-99349500D01*
X186549500Y-99349500D01*
X186482461Y-99329815D01*
X186436706Y-99277011D01*
X186425500Y-99225500D01*
X186425500Y-97891232D01*
X186425499Y-97891228D01*
X186417541Y-97851220D01*
X186392816Y-97726918D01*
X186328703Y-97572137D01*
X186253449Y-97459512D01*
X186235627Y-97432839D01*
X186208491Y-97405703D01*
X186175747Y-97372959D01*
X186175745Y-97372955D01*
X185942165Y-97139375D01*
X185942161Y-97139372D01*
X185802866Y-97046297D01*
X185802863Y-97046296D01*
X185693416Y-97000962D01*
X185693414Y-97000961D01*
X185648086Y-96982185D01*
X185648074Y-96982182D01*
X185483771Y-96949500D01*
X185483767Y-96949500D01*
X184116233Y-96949500D01*
X184112292Y-96950284D01*
X183992799Y-96974052D01*
X183923208Y-96967824D01*
X183868031Y-96924960D01*
X183844787Y-96859070D01*
X183860855Y-96791073D01*
X183880931Y-96764750D01*
X183889198Y-96756483D01*
X183940573Y-96651393D01*
X183950500Y-96583260D01*
X183950500Y-96474500D01*
X183970185Y-96407461D01*
X184022989Y-96361706D01*
X184074500Y-96350500D01*
X188758768Y-96350500D01*
X188758768Y-96350499D01*
X188872472Y-96327883D01*
X188896663Y-96325500D01*
X189602887Y-96325500D01*
X189637823Y-96330523D01*
X189673841Y-96341099D01*
X189673842Y-96341099D01*
X189673845Y-96341100D01*
X189703709Y-96345393D01*
X189774000Y-96355500D01*
X190551386Y-96355500D01*
X190618425Y-96375185D01*
X190639067Y-96391819D01*
X190862289Y-96615042D01*
X190862297Y-96615050D01*
X190862305Y-96615057D01*
X190890619Y-96640491D01*
X190911261Y-96657125D01*
X190928837Y-96670411D01*
X191034164Y-96721414D01*
X191101203Y-96741099D01*
X191101204Y-96741099D01*
X191101207Y-96741100D01*
X191131071Y-96745393D01*
X191201362Y-96755500D01*
X191201363Y-96755500D01*
X192198639Y-96755500D01*
X192200638Y-96755392D01*
X192236642Y-96753463D01*
X192236672Y-96753459D01*
X192236683Y-96753459D01*
X192251383Y-96751877D01*
X192263000Y-96750629D01*
X192284827Y-96747595D01*
X192360167Y-96721414D01*
X192395367Y-96709182D01*
X192395369Y-96709181D01*
X192456692Y-96675696D01*
X192463755Y-96670409D01*
X192537684Y-96615065D01*
X192537695Y-96615057D01*
X192565057Y-96587695D01*
X192590491Y-96559381D01*
X192607125Y-96538739D01*
X192620452Y-96521105D01*
X192623054Y-96515726D01*
X192638851Y-96492328D01*
X192659805Y-96439793D01*
X192671434Y-96415767D01*
X192672196Y-96413170D01*
X192672195Y-96413169D01*
X192675480Y-96401977D01*
X192675491Y-96401940D01*
X192677130Y-96396357D01*
X192682208Y-96383629D01*
X192686029Y-96366062D01*
X192691098Y-96348801D01*
X192705500Y-96248638D01*
X192705500Y-95798435D01*
X194509500Y-95798435D01*
X194509500Y-96001564D01*
X194541277Y-96202194D01*
X194541277Y-96202197D01*
X194604045Y-96395377D01*
X194644361Y-96474500D01*
X194687611Y-96559383D01*
X194696268Y-96576372D01*
X194815656Y-96740697D01*
X194815660Y-96740702D01*
X194959297Y-96884339D01*
X194959302Y-96884343D01*
X195080140Y-96972136D01*
X195123631Y-97003734D01*
X195304620Y-97095953D01*
X195304622Y-97095954D01*
X195497803Y-97158722D01*
X195497804Y-97158722D01*
X195497807Y-97158723D01*
X195698435Y-97190500D01*
X195698436Y-97190500D01*
X195901564Y-97190500D01*
X195901565Y-97190500D01*
X196102193Y-97158723D01*
X196102196Y-97158722D01*
X196102197Y-97158722D01*
X196295377Y-97095954D01*
X196295377Y-97095953D01*
X196295380Y-97095953D01*
X196476369Y-97003734D01*
X196640704Y-96884338D01*
X196784338Y-96740704D01*
X196903734Y-96576369D01*
X196995953Y-96395380D01*
X197043633Y-96248635D01*
X197058722Y-96202197D01*
X197058722Y-96202196D01*
X197058723Y-96202193D01*
X197090500Y-96001565D01*
X197090500Y-95798435D01*
X197058723Y-95597807D01*
X197058722Y-95597803D01*
X197058722Y-95597802D01*
X196995954Y-95404622D01*
X196987467Y-95387965D01*
X196903734Y-95223631D01*
X196820866Y-95109572D01*
X196784343Y-95059302D01*
X196784339Y-95059297D01*
X196640702Y-94915660D01*
X196640697Y-94915656D01*
X196476372Y-94796268D01*
X196476371Y-94796267D01*
X196476369Y-94796266D01*
X196382833Y-94748607D01*
X196295377Y-94704045D01*
X196102196Y-94641277D01*
X195951722Y-94617444D01*
X195901565Y-94609500D01*
X195698435Y-94609500D01*
X195631559Y-94620092D01*
X195497805Y-94641277D01*
X195497802Y-94641277D01*
X195304622Y-94704045D01*
X195123627Y-94796268D01*
X194959302Y-94915656D01*
X194959297Y-94915660D01*
X194815660Y-95059297D01*
X194815656Y-95059302D01*
X194696268Y-95223627D01*
X194604045Y-95404622D01*
X194541277Y-95597802D01*
X194541277Y-95597805D01*
X194509500Y-95798435D01*
X192705500Y-95798435D01*
X192705500Y-94251362D01*
X192703463Y-94213358D01*
X192703459Y-94213328D01*
X192703459Y-94213316D01*
X192700629Y-94187002D01*
X192697595Y-94165174D01*
X192697595Y-94165173D01*
X192659182Y-94054632D01*
X192625694Y-93993304D01*
X192565065Y-93912315D01*
X192565060Y-93912310D01*
X192565057Y-93912305D01*
X192565053Y-93912301D01*
X192565047Y-93912294D01*
X192437700Y-93784947D01*
X192409384Y-93759512D01*
X192409383Y-93759511D01*
X192388733Y-93742870D01*
X192376506Y-93733628D01*
X192371163Y-93729589D01*
X192265836Y-93678586D01*
X192265832Y-93678584D01*
X192198798Y-93658901D01*
X192198792Y-93658899D01*
X192108743Y-93645952D01*
X192098638Y-93644500D01*
X191301362Y-93644500D01*
X191301361Y-93644500D01*
X191263375Y-93646536D01*
X191263368Y-93646536D01*
X191263358Y-93646537D01*
X191263354Y-93646537D01*
X191263316Y-93646540D01*
X191237002Y-93649370D01*
X191215174Y-93652404D01*
X191215173Y-93652404D01*
X191104632Y-93690817D01*
X191043304Y-93724305D01*
X190962315Y-93784934D01*
X190962294Y-93784952D01*
X190934949Y-93812297D01*
X190909512Y-93840615D01*
X190909496Y-93840633D01*
X190892875Y-93861259D01*
X190879645Y-93878756D01*
X190879638Y-93878768D01*
X190877367Y-93883455D01*
X190877049Y-93884112D01*
X190861156Y-93907661D01*
X190840276Y-93960000D01*
X190838332Y-93964014D01*
X190828613Y-93984072D01*
X190828610Y-93984080D01*
X190824493Y-93998085D01*
X190824494Y-93998086D01*
X190822849Y-94003686D01*
X190817795Y-94016358D01*
X190813973Y-94033919D01*
X190812726Y-94038169D01*
X190812725Y-94038176D01*
X190808898Y-94051212D01*
X190808896Y-94051220D01*
X190794500Y-94151359D01*
X190794500Y-94283267D01*
X190794062Y-94293684D01*
X190793134Y-94304689D01*
X190774500Y-94374234D01*
X190774500Y-94525721D01*
X190774062Y-94530917D01*
X190763245Y-94558829D01*
X190754815Y-94587539D01*
X190750756Y-94591055D01*
X190748815Y-94596066D01*
X190724622Y-94613701D01*
X190702011Y-94633294D01*
X190695928Y-94634617D01*
X190692354Y-94637223D01*
X190680840Y-94637899D01*
X190650500Y-94644500D01*
X190446526Y-94644500D01*
X190422335Y-94642117D01*
X190333770Y-94624500D01*
X190333767Y-94624500D01*
X188616233Y-94624500D01*
X188616229Y-94624500D01*
X188502528Y-94647117D01*
X188478337Y-94649500D01*
X183946543Y-94649500D01*
X183879504Y-94629815D01*
X183858866Y-94613185D01*
X183806483Y-94560802D01*
X183701393Y-94509427D01*
X183701391Y-94509426D01*
X183633261Y-94499500D01*
X183633260Y-94499500D01*
X180966740Y-94499500D01*
X180966739Y-94499500D01*
X180898607Y-94509426D01*
X180898606Y-94509426D01*
X180831824Y-94542074D01*
X180762951Y-94553832D01*
X180698654Y-94526489D01*
X180659348Y-94468724D01*
X180657510Y-94398878D01*
X180669979Y-94368672D01*
X180709862Y-94299592D01*
X180711281Y-94297135D01*
X180750500Y-94150766D01*
X180750500Y-93999234D01*
X180711281Y-93852865D01*
X180635515Y-93721635D01*
X180528365Y-93614485D01*
X180402607Y-93541878D01*
X180397136Y-93538719D01*
X180323950Y-93519109D01*
X180250766Y-93499500D01*
X180099234Y-93499500D01*
X179952863Y-93538719D01*
X179821635Y-93614485D01*
X179821632Y-93614487D01*
X179714487Y-93721632D01*
X179714485Y-93721635D01*
X179638719Y-93852863D01*
X179609467Y-93962035D01*
X179599500Y-93999234D01*
X179599500Y-94150766D01*
X179609209Y-94187000D01*
X179638719Y-94297136D01*
X179657811Y-94330203D01*
X179714485Y-94428365D01*
X179821635Y-94535515D01*
X179952865Y-94611281D01*
X180099234Y-94650500D01*
X180099236Y-94650500D01*
X180250764Y-94650500D01*
X180250766Y-94650500D01*
X180397135Y-94611281D01*
X180504282Y-94549419D01*
X180572179Y-94532947D01*
X180638206Y-94555799D01*
X180681397Y-94610720D01*
X180688039Y-94680273D01*
X180677681Y-94711266D01*
X180659426Y-94748606D01*
X180659426Y-94748607D01*
X180649500Y-94816739D01*
X180649500Y-96583260D01*
X180659426Y-96651391D01*
X180710803Y-96756485D01*
X180793514Y-96839196D01*
X180793515Y-96839196D01*
X180793517Y-96839198D01*
X180898607Y-96890573D01*
X180932673Y-96895536D01*
X180966739Y-96900500D01*
X183606565Y-96900500D01*
X183673604Y-96920185D01*
X183719359Y-96972989D01*
X183729303Y-97042147D01*
X183700278Y-97105703D01*
X183675456Y-97127601D01*
X183670886Y-97130655D01*
X183657835Y-97139375D01*
X183539373Y-97257837D01*
X183446295Y-97397139D01*
X183382184Y-97551917D01*
X183382182Y-97551925D01*
X183349500Y-97716228D01*
X183349500Y-97883771D01*
X183382182Y-98048074D01*
X183382184Y-98048082D01*
X183446295Y-98202860D01*
X183539373Y-98342162D01*
X183657837Y-98460626D01*
X183750494Y-98522537D01*
X183797137Y-98553703D01*
X183951918Y-98617816D01*
X184116228Y-98650499D01*
X184116232Y-98650500D01*
X184116233Y-98650500D01*
X184600500Y-98650500D01*
X184667539Y-98670185D01*
X184713294Y-98722989D01*
X184724500Y-98774500D01*
X184724500Y-100783771D01*
X184757182Y-100948074D01*
X184757184Y-100948082D01*
X184768671Y-100975813D01*
X184777049Y-101007081D01*
X184789312Y-101100234D01*
X184789313Y-101100236D01*
X184847300Y-101240230D01*
X184847302Y-101240233D01*
X184898875Y-101307443D01*
X184924070Y-101372611D01*
X184924500Y-101382930D01*
X184924500Y-106139069D01*
X184924500Y-106139071D01*
X184924499Y-106139071D01*
X184946466Y-106249497D01*
X184949497Y-106264738D01*
X184949500Y-106264747D01*
X184998532Y-106383123D01*
X185069726Y-106489673D01*
X186085325Y-107505272D01*
X186085332Y-107505278D01*
X186191863Y-107576459D01*
X186191867Y-107576461D01*
X186191874Y-107576466D01*
X186249898Y-107600500D01*
X186310256Y-107625501D01*
X186407697Y-107644883D01*
X186412629Y-107646297D01*
X186437982Y-107662357D01*
X186464575Y-107676268D01*
X186467189Y-107680859D01*
X186471653Y-107683687D01*
X186484296Y-107710902D01*
X186499149Y-107736984D01*
X186498866Y-107742260D01*
X186501092Y-107747052D01*
X186497014Y-107776784D01*
X186495408Y-107806754D01*
X186492317Y-107811039D01*
X186491600Y-107816274D01*
X186472096Y-107839081D01*
X186454542Y-107863425D01*
X186449624Y-107865359D01*
X186446191Y-107869375D01*
X186417458Y-107878016D01*
X186389524Y-107889007D01*
X186379411Y-107889458D01*
X186379282Y-107889497D01*
X186379099Y-107889472D01*
X186378472Y-107889500D01*
X166973298Y-107889500D01*
X166906259Y-107869815D01*
X166860504Y-107817011D01*
X166850560Y-107747853D01*
X166879585Y-107684297D01*
X166932595Y-107648371D01*
X167045367Y-107609182D01*
X167061267Y-107600500D01*
X167106692Y-107575696D01*
X167107279Y-107575257D01*
X167187684Y-107515065D01*
X167187695Y-107515057D01*
X167215057Y-107487695D01*
X167240491Y-107459381D01*
X167257125Y-107438739D01*
X167270452Y-107421105D01*
X167273054Y-107415726D01*
X167288851Y-107392328D01*
X167309805Y-107339793D01*
X167321434Y-107315767D01*
X167322196Y-107313170D01*
X167322195Y-107313169D01*
X167325480Y-107301977D01*
X167325491Y-107301940D01*
X167327130Y-107296357D01*
X167332208Y-107283629D01*
X167336029Y-107266062D01*
X167341098Y-107248801D01*
X167355500Y-107148638D01*
X167355500Y-101666739D01*
X173449500Y-101666739D01*
X173449500Y-103733260D01*
X173459426Y-103801391D01*
X173510803Y-103906485D01*
X173593514Y-103989196D01*
X173593515Y-103989196D01*
X173593517Y-103989198D01*
X173698607Y-104040573D01*
X173732673Y-104045536D01*
X173766739Y-104050500D01*
X173766740Y-104050500D01*
X175833261Y-104050500D01*
X175855971Y-104047191D01*
X175901393Y-104040573D01*
X176006483Y-103989198D01*
X176089198Y-103906483D01*
X176140573Y-103801393D01*
X176150500Y-103733260D01*
X176150500Y-102593713D01*
X178449500Y-102593713D01*
X178449500Y-102806286D01*
X178482131Y-103012314D01*
X178482754Y-103016243D01*
X178542117Y-103198944D01*
X178548444Y-103218414D01*
X178644951Y-103407820D01*
X178769890Y-103579786D01*
X178920213Y-103730109D01*
X179092179Y-103855048D01*
X179092181Y-103855049D01*
X179092184Y-103855051D01*
X179281588Y-103951557D01*
X179483757Y-104017246D01*
X179693713Y-104050500D01*
X179693714Y-104050500D01*
X179906286Y-104050500D01*
X179906287Y-104050500D01*
X180116243Y-104017246D01*
X180318412Y-103951557D01*
X180507816Y-103855051D01*
X180529789Y-103839086D01*
X180679786Y-103730109D01*
X180679788Y-103730106D01*
X180679792Y-103730104D01*
X180830104Y-103579792D01*
X180830106Y-103579788D01*
X180830109Y-103579786D01*
X180955048Y-103407820D01*
X180955047Y-103407820D01*
X180955051Y-103407816D01*
X181051557Y-103218412D01*
X181117246Y-103016243D01*
X181150500Y-102806287D01*
X181150500Y-102593713D01*
X181117246Y-102383757D01*
X181051557Y-102181588D01*
X180955051Y-101992184D01*
X180955049Y-101992181D01*
X180955048Y-101992179D01*
X180830109Y-101820213D01*
X180679786Y-101669890D01*
X180507820Y-101544951D01*
X180318414Y-101448444D01*
X180318413Y-101448443D01*
X180318412Y-101448443D01*
X180116243Y-101382754D01*
X180116241Y-101382753D01*
X180116240Y-101382753D01*
X179954957Y-101357208D01*
X179906287Y-101349500D01*
X179693713Y-101349500D01*
X179645042Y-101357208D01*
X179483760Y-101382753D01*
X179281585Y-101448444D01*
X179092179Y-101544951D01*
X178920213Y-101669890D01*
X178769890Y-101820213D01*
X178644951Y-101992179D01*
X178548444Y-102181585D01*
X178482753Y-102383760D01*
X178449500Y-102593713D01*
X176150500Y-102593713D01*
X176150500Y-101666740D01*
X176140573Y-101598607D01*
X176089198Y-101493517D01*
X176089196Y-101493515D01*
X176089196Y-101493514D01*
X176006485Y-101410803D01*
X175901391Y-101359426D01*
X175833261Y-101349500D01*
X175833260Y-101349500D01*
X173766740Y-101349500D01*
X173766739Y-101349500D01*
X173698608Y-101359426D01*
X173593514Y-101410803D01*
X173510803Y-101493514D01*
X173459426Y-101598608D01*
X173449500Y-101666739D01*
X167355500Y-101666739D01*
X167355500Y-100651362D01*
X167353463Y-100613358D01*
X167353459Y-100613328D01*
X167353459Y-100613316D01*
X167350629Y-100587002D01*
X167347595Y-100565174D01*
X167347595Y-100565173D01*
X167309182Y-100454632D01*
X167275694Y-100393304D01*
X167215065Y-100312315D01*
X167215060Y-100312310D01*
X167215057Y-100312305D01*
X167215053Y-100312301D01*
X167215047Y-100312294D01*
X166191819Y-99289066D01*
X166158334Y-99227743D01*
X166155500Y-99201385D01*
X166155500Y-97951360D01*
X166154811Y-97938512D01*
X166153463Y-97913358D01*
X166153459Y-97913328D01*
X166153459Y-97913316D01*
X166151084Y-97891232D01*
X166150629Y-97887000D01*
X166147595Y-97865173D01*
X166142744Y-97851213D01*
X166109182Y-97754632D01*
X166075694Y-97693304D01*
X166015065Y-97612315D01*
X166015060Y-97612310D01*
X166015057Y-97612305D01*
X166015053Y-97612301D01*
X166015047Y-97612294D01*
X165887702Y-97484949D01*
X165859384Y-97459512D01*
X165859383Y-97459511D01*
X165838733Y-97442870D01*
X165825461Y-97432838D01*
X165821163Y-97429589D01*
X165715836Y-97378586D01*
X165715832Y-97378584D01*
X165648798Y-97358901D01*
X165648792Y-97358899D01*
X165558743Y-97345952D01*
X165548638Y-97344500D01*
X165548637Y-97344500D01*
X164574500Y-97344500D01*
X164565814Y-97341949D01*
X164556853Y-97343238D01*
X164532812Y-97332259D01*
X164507461Y-97324815D01*
X164501533Y-97317974D01*
X164493297Y-97314213D01*
X164479007Y-97291978D01*
X164461706Y-97272011D01*
X164459418Y-97261496D01*
X164455523Y-97255435D01*
X164450500Y-97220500D01*
X164450500Y-97037965D01*
X164470185Y-96970926D01*
X164486819Y-96950284D01*
X165200284Y-96236819D01*
X165261607Y-96203334D01*
X165287965Y-96200500D01*
X166969945Y-96200500D01*
X167026237Y-96214013D01*
X167066874Y-96234719D01*
X167066875Y-96234719D01*
X167066877Y-96234720D01*
X167166507Y-96250500D01*
X167166512Y-96250500D01*
X167259082Y-96250500D01*
X167326121Y-96270185D01*
X167371876Y-96322989D01*
X167381820Y-96392147D01*
X167366470Y-96436497D01*
X167364568Y-96439793D01*
X167313719Y-96527863D01*
X167287393Y-96626117D01*
X167274500Y-96674234D01*
X167274500Y-96825766D01*
X167291865Y-96890573D01*
X167313719Y-96972136D01*
X167351602Y-97037750D01*
X167389485Y-97103365D01*
X167496635Y-97210515D01*
X167627865Y-97286281D01*
X167774234Y-97325500D01*
X167774236Y-97325500D01*
X167925764Y-97325500D01*
X167925766Y-97325500D01*
X168072135Y-97286281D01*
X168191937Y-97217112D01*
X168253937Y-97200500D01*
X169636258Y-97200500D01*
X169703297Y-97220185D01*
X169749052Y-97272989D01*
X169758996Y-97342147D01*
X169729971Y-97405703D01*
X169723939Y-97412181D01*
X169689487Y-97446632D01*
X169689485Y-97446635D01*
X169613719Y-97577863D01*
X169578941Y-97707661D01*
X169574500Y-97724234D01*
X169574500Y-97875766D01*
X169584573Y-97913358D01*
X169613719Y-98022136D01*
X169642587Y-98072136D01*
X169689485Y-98153365D01*
X169796635Y-98260515D01*
X169927865Y-98336281D01*
X170074234Y-98375500D01*
X170074236Y-98375500D01*
X170225764Y-98375500D01*
X170225766Y-98375500D01*
X170372135Y-98336281D01*
X170503365Y-98260515D01*
X170610515Y-98153365D01*
X170686281Y-98022135D01*
X170725500Y-97875766D01*
X170725500Y-97724234D01*
X170686281Y-97577865D01*
X170610515Y-97446635D01*
X170503365Y-97339485D01*
X170372135Y-97263719D01*
X170304536Y-97245606D01*
X170244878Y-97209242D01*
X170214349Y-97146395D01*
X170222644Y-97077019D01*
X170248948Y-97038154D01*
X170960489Y-96326614D01*
X170976143Y-96299500D01*
X171009246Y-96242165D01*
X171009247Y-96242163D01*
X171019798Y-96223888D01*
X171019798Y-96223887D01*
X171019799Y-96223886D01*
X171050500Y-96109309D01*
X171050500Y-95176611D01*
X171070185Y-95109572D01*
X171122989Y-95063817D01*
X171192147Y-95053873D01*
X171255703Y-95082898D01*
X171262181Y-95088930D01*
X171346774Y-95173523D01*
X171346778Y-95173526D01*
X171346780Y-95173528D01*
X171466874Y-95234719D01*
X171466876Y-95234719D01*
X171466878Y-95234720D01*
X171566507Y-95250500D01*
X171566512Y-95250500D01*
X172933493Y-95250500D01*
X173033123Y-95234720D01*
X173033124Y-95234719D01*
X173033126Y-95234719D01*
X173061823Y-95220096D01*
X173086114Y-95215535D01*
X173109271Y-95206898D01*
X173119850Y-95209199D01*
X173130492Y-95207201D01*
X173153393Y-95216496D01*
X173177544Y-95221750D01*
X173190816Y-95231685D01*
X173195232Y-95233478D01*
X173205798Y-95242901D01*
X173263181Y-95300284D01*
X173296666Y-95361607D01*
X173299500Y-95387965D01*
X173299500Y-97172581D01*
X173279815Y-97239620D01*
X173227011Y-97285375D01*
X173207594Y-97292355D01*
X173127865Y-97313719D01*
X173127863Y-97313719D01*
X173127863Y-97313720D01*
X172996635Y-97389485D01*
X172996632Y-97389487D01*
X172889487Y-97496632D01*
X172889485Y-97496635D01*
X172813719Y-97627863D01*
X172779752Y-97754632D01*
X172774500Y-97774234D01*
X172774500Y-97925766D01*
X172794109Y-97998950D01*
X172813719Y-98072136D01*
X172851602Y-98137750D01*
X172889485Y-98203365D01*
X172996635Y-98310515D01*
X173127865Y-98386281D01*
X173274234Y-98425500D01*
X173274236Y-98425500D01*
X173425764Y-98425500D01*
X173425766Y-98425500D01*
X173572135Y-98386281D01*
X173703365Y-98310515D01*
X173810515Y-98203365D01*
X173886281Y-98072135D01*
X173922085Y-97938509D01*
X173954175Y-97882927D01*
X174110489Y-97726614D01*
X174160138Y-97640619D01*
X174169799Y-97623886D01*
X174200500Y-97509309D01*
X174200500Y-95090691D01*
X174178272Y-95007735D01*
X174179935Y-94937889D01*
X174219097Y-94880026D01*
X174283325Y-94852522D01*
X174352228Y-94864108D01*
X174360025Y-94868246D01*
X174442142Y-94915656D01*
X174471655Y-94932696D01*
X174477865Y-94936281D01*
X174624234Y-94975500D01*
X174624236Y-94975500D01*
X174775764Y-94975500D01*
X174775766Y-94975500D01*
X174922135Y-94936281D01*
X175053365Y-94860515D01*
X175160515Y-94753365D01*
X175236281Y-94622135D01*
X175275500Y-94475766D01*
X175275500Y-94324234D01*
X175236281Y-94177865D01*
X175160515Y-94046635D01*
X175091022Y-93977142D01*
X175075472Y-93948665D01*
X175058742Y-93920851D01*
X175058821Y-93918171D01*
X175057537Y-93915819D01*
X175059851Y-93883455D01*
X175060814Y-93851012D01*
X175062329Y-93848800D01*
X175062521Y-93846127D01*
X175081968Y-93820148D01*
X175100316Y-93793381D01*
X175103375Y-93791553D01*
X175104393Y-93790194D01*
X175130560Y-93775188D01*
X175130767Y-93775100D01*
X175252841Y-93724536D01*
X175255340Y-93722618D01*
X175265521Y-93718329D01*
X175292835Y-93715225D01*
X175319546Y-93708742D01*
X175327052Y-93711338D01*
X175334944Y-93710442D01*
X175359598Y-93722597D01*
X175385576Y-93731584D01*
X175393483Y-93739303D01*
X175397611Y-93741339D01*
X175400518Y-93746172D01*
X175412930Y-93758290D01*
X175434939Y-93787690D01*
X175434952Y-93787705D01*
X175462297Y-93815050D01*
X175490615Y-93840487D01*
X175490620Y-93840492D01*
X175511264Y-93857128D01*
X175528858Y-93870426D01*
X175528865Y-93870431D01*
X175534230Y-93873028D01*
X175557670Y-93888850D01*
X175610164Y-93909789D01*
X175614147Y-93911717D01*
X175614148Y-93911718D01*
X175634196Y-93921423D01*
X175634200Y-93921425D01*
X175648042Y-93925488D01*
X175648056Y-93925492D01*
X175653650Y-93927134D01*
X175666369Y-93932208D01*
X175683941Y-93936030D01*
X175701202Y-93941099D01*
X175801362Y-93955500D01*
X175801364Y-93955500D01*
X178273639Y-93955500D01*
X178275638Y-93955392D01*
X178311642Y-93953463D01*
X178311672Y-93953459D01*
X178311683Y-93953459D01*
X178326383Y-93951877D01*
X178338000Y-93950629D01*
X178359827Y-93947595D01*
X178444499Y-93918171D01*
X178470367Y-93909182D01*
X178470369Y-93909181D01*
X178531692Y-93875696D01*
X178564666Y-93851012D01*
X178612684Y-93815065D01*
X178612695Y-93815057D01*
X179615057Y-92812695D01*
X179640491Y-92784381D01*
X179657125Y-92763739D01*
X179670411Y-92746163D01*
X179721414Y-92640836D01*
X179741099Y-92573797D01*
X179741619Y-92570185D01*
X179744449Y-92550500D01*
X179755500Y-92473638D01*
X179755500Y-91000000D01*
X179755500Y-89579500D01*
X179775185Y-89512461D01*
X179827989Y-89466706D01*
X179879500Y-89455500D01*
X180520500Y-89455500D01*
X180587539Y-89475185D01*
X180633294Y-89527989D01*
X180644500Y-89579500D01*
X180644500Y-89976008D01*
X180652625Y-90051570D01*
X180663831Y-90103082D01*
X180681502Y-90160463D01*
X180681505Y-90160469D01*
X180692312Y-90178150D01*
X180706437Y-90217243D01*
X180706586Y-90217198D01*
X180707562Y-90220359D01*
X180709212Y-90224924D01*
X180709425Y-90226388D01*
X180709429Y-90226399D01*
X180760800Y-90331482D01*
X180843514Y-90414196D01*
X180843515Y-90414196D01*
X180843517Y-90414198D01*
X180948607Y-90465573D01*
X180982673Y-90470536D01*
X181016739Y-90475500D01*
X181016740Y-90475500D01*
X183583261Y-90475500D01*
X183605971Y-90472191D01*
X183651393Y-90465573D01*
X183756483Y-90414198D01*
X183839198Y-90331483D01*
X183839199Y-90331482D01*
X183890572Y-90226396D01*
X183890572Y-90226394D01*
X183890573Y-90226393D01*
X183891878Y-90217435D01*
X183902980Y-90181264D01*
X183909441Y-90167922D01*
X183921414Y-90143198D01*
X183941099Y-90076159D01*
X183955500Y-89976000D01*
X183955500Y-88224000D01*
X183947375Y-88148430D01*
X183936169Y-88096919D01*
X183918497Y-88039536D01*
X183857463Y-87939686D01*
X183853587Y-87935213D01*
X183811720Y-87886895D01*
X183811714Y-87886889D01*
X183811708Y-87886882D01*
X183748525Y-87829589D01*
X183748521Y-87829587D01*
X183748518Y-87829585D01*
X183643198Y-87778586D01*
X183643195Y-87778585D01*
X183576160Y-87758901D01*
X183576154Y-87758899D01*
X183486105Y-87745952D01*
X183476000Y-87744500D01*
X183475999Y-87744500D01*
X182679500Y-87744500D01*
X182612461Y-87724815D01*
X182566706Y-87672011D01*
X182555500Y-87620500D01*
X182555500Y-86347355D01*
X182575185Y-86280316D01*
X182627989Y-86234561D01*
X182697147Y-86224617D01*
X182760703Y-86253642D01*
X182786884Y-86285352D01*
X182870564Y-86430289D01*
X182870566Y-86430292D01*
X182870567Y-86430293D01*
X183018233Y-86622736D01*
X183018239Y-86622743D01*
X183189756Y-86794260D01*
X183189762Y-86794265D01*
X183382211Y-86941936D01*
X183592288Y-87063224D01*
X183816400Y-87156054D01*
X184050711Y-87218838D01*
X184231086Y-87242584D01*
X184291211Y-87250500D01*
X184291212Y-87250500D01*
X184533789Y-87250500D01*
X184581888Y-87244167D01*
X184774289Y-87218838D01*
X185008600Y-87156054D01*
X185232712Y-87063224D01*
X185442789Y-86941936D01*
X185635238Y-86794265D01*
X185806765Y-86622738D01*
X185954436Y-86430289D01*
X186075724Y-86220212D01*
X186168554Y-85996100D01*
X186231338Y-85761789D01*
X186263000Y-85521288D01*
X186263000Y-85278712D01*
X186231338Y-85038211D01*
X186168554Y-84803900D01*
X186162325Y-84788863D01*
X186131200Y-84713719D01*
X186075724Y-84579788D01*
X185954436Y-84369711D01*
X185806765Y-84177262D01*
X185806760Y-84177256D01*
X185635243Y-84005739D01*
X185635236Y-84005733D01*
X185442793Y-83858067D01*
X185442792Y-83858066D01*
X185442789Y-83858064D01*
X185232712Y-83736776D01*
X185232705Y-83736773D01*
X185008604Y-83643947D01*
X184854662Y-83602698D01*
X184774289Y-83581162D01*
X184774288Y-83581161D01*
X184774285Y-83581161D01*
X184533789Y-83549500D01*
X184533788Y-83549500D01*
X184291212Y-83549500D01*
X184291211Y-83549500D01*
X184050714Y-83581161D01*
X183816395Y-83643947D01*
X183592294Y-83736773D01*
X183592285Y-83736777D01*
X183382206Y-83858067D01*
X183189763Y-84005733D01*
X183189756Y-84005739D01*
X183018239Y-84177256D01*
X183018233Y-84177263D01*
X182870567Y-84369706D01*
X182749277Y-84579785D01*
X182749275Y-84579789D01*
X182709876Y-84674906D01*
X182666034Y-84729309D01*
X182599740Y-84751373D01*
X182532041Y-84734093D01*
X182489515Y-84692123D01*
X182477165Y-84671919D01*
X182457463Y-84639686D01*
X182453587Y-84635213D01*
X182411720Y-84586895D01*
X182411714Y-84586889D01*
X182411708Y-84586882D01*
X182348525Y-84529589D01*
X182348521Y-84529587D01*
X182348518Y-84529585D01*
X182243198Y-84478586D01*
X182243195Y-84478585D01*
X182176160Y-84458901D01*
X182176154Y-84458899D01*
X182086105Y-84445952D01*
X182076000Y-84444500D01*
X181179500Y-84444500D01*
X181112461Y-84424815D01*
X181066706Y-84372011D01*
X181055500Y-84320500D01*
X181055500Y-83074008D01*
X181055499Y-83073991D01*
X181053342Y-83053931D01*
X181047375Y-82998430D01*
X181036169Y-82946919D01*
X181027045Y-82917295D01*
X181026126Y-82847435D01*
X181063123Y-82788164D01*
X181126291Y-82758305D01*
X181193003Y-82766238D01*
X181209001Y-82772865D01*
X181323960Y-82788000D01*
X181323967Y-82788000D01*
X181876033Y-82788000D01*
X181876040Y-82788000D01*
X181990999Y-82772865D01*
X182134037Y-82713617D01*
X182256867Y-82619367D01*
X182351117Y-82496537D01*
X182410365Y-82353499D01*
X182425500Y-82238540D01*
X182425500Y-81661460D01*
X182410365Y-81546501D01*
X182351117Y-81403463D01*
X182256867Y-81280633D01*
X182161049Y-81207110D01*
X182134036Y-81186382D01*
X182134037Y-81186382D01*
X181991002Y-81127136D01*
X181991000Y-81127135D01*
X181990999Y-81127135D01*
X181965452Y-81123771D01*
X181876047Y-81112000D01*
X181876040Y-81112000D01*
X181480768Y-81112000D01*
X181413729Y-81092315D01*
X181367974Y-81039511D01*
X181360993Y-81020093D01*
X181343114Y-80953367D01*
X181336281Y-80927865D01*
X181332970Y-80922131D01*
X181307412Y-80877863D01*
X181260515Y-80796635D01*
X181153365Y-80689485D01*
X181079147Y-80646635D01*
X181022136Y-80613719D01*
X180931691Y-80589485D01*
X180875766Y-80574500D01*
X180724234Y-80574500D01*
X180577863Y-80613719D01*
X180446635Y-80689485D01*
X180446632Y-80689487D01*
X180339487Y-80796632D01*
X180339485Y-80796635D01*
X180263719Y-80927863D01*
X180262590Y-80932077D01*
X180242355Y-81007595D01*
X180205993Y-81067253D01*
X180143146Y-81097783D01*
X180122582Y-81099500D01*
X179798393Y-81099500D01*
X179731354Y-81079815D01*
X179685599Y-81027011D01*
X179675655Y-80957853D01*
X179683831Y-80928048D01*
X179686275Y-80922145D01*
X179686281Y-80922135D01*
X179725500Y-80775766D01*
X179725500Y-80624234D01*
X179686281Y-80477865D01*
X179684239Y-80474329D01*
X179673778Y-80456209D01*
X179610515Y-80346635D01*
X179503365Y-80239485D01*
X179406040Y-80183294D01*
X179372136Y-80163719D01*
X179281691Y-80139485D01*
X179225766Y-80124500D01*
X179225765Y-80124500D01*
X179204500Y-80124500D01*
X179137461Y-80104815D01*
X179091706Y-80052011D01*
X179080500Y-80000500D01*
X179080500Y-78960457D01*
X179100185Y-78893418D01*
X179152989Y-78847663D01*
X179222147Y-78837719D01*
X179249989Y-78845102D01*
X179268436Y-78852377D01*
X179356898Y-78863000D01*
X179356903Y-78863000D01*
X179993097Y-78863000D01*
X179993102Y-78863000D01*
X180081564Y-78852377D01*
X180222342Y-78796861D01*
X180342922Y-78705422D01*
X180434361Y-78584842D01*
X180489877Y-78444064D01*
X180500500Y-78355602D01*
X180500500Y-77869398D01*
X180489877Y-77780936D01*
X180434361Y-77640158D01*
X180434360Y-77640157D01*
X180434360Y-77640156D01*
X180342922Y-77519577D01*
X180222343Y-77428139D01*
X180106970Y-77382642D01*
X180081564Y-77372623D01*
X180081563Y-77372622D01*
X180081561Y-77372622D01*
X180035926Y-77367142D01*
X179993102Y-77362000D01*
X179356898Y-77362000D01*
X179293710Y-77369587D01*
X179268434Y-77372623D01*
X179241962Y-77383062D01*
X179172375Y-77389343D01*
X179110439Y-77357004D01*
X179075819Y-77296315D01*
X179073185Y-77280963D01*
X179072375Y-77273429D01*
X179067663Y-77251771D01*
X179061169Y-77221919D01*
X179043497Y-77164536D01*
X179040507Y-77159645D01*
X179030117Y-77142646D01*
X178982463Y-77064686D01*
X178972653Y-77053365D01*
X178936720Y-77011895D01*
X178936714Y-77011889D01*
X178936708Y-77011882D01*
X178881377Y-76961709D01*
X178844938Y-76902095D01*
X178841558Y-76855068D01*
X178850500Y-76780603D01*
X178850500Y-76410815D01*
X178870185Y-76343776D01*
X178922989Y-76298021D01*
X178942394Y-76291044D01*
X179072135Y-76256281D01*
X179203365Y-76180515D01*
X179310515Y-76073365D01*
X179386281Y-75942135D01*
X179425500Y-75795766D01*
X179425500Y-75674500D01*
X179445185Y-75607461D01*
X179497989Y-75561706D01*
X179549500Y-75550500D01*
X182012035Y-75550500D01*
X182079074Y-75570185D01*
X182099716Y-75586819D01*
X186613181Y-80100284D01*
X186646666Y-80161607D01*
X186649500Y-80187965D01*
X186649500Y-87359311D01*
X186657112Y-87387717D01*
X186657112Y-87387719D01*
X186657113Y-87387719D01*
X186657113Y-87387720D01*
X186680201Y-87473887D01*
X186739511Y-87576614D01*
X187498386Y-88335489D01*
X187601113Y-88394799D01*
X187625321Y-88401284D01*
X187625324Y-88401286D01*
X187625325Y-88401286D01*
X187655447Y-88409357D01*
X187715691Y-88425500D01*
X187938337Y-88425500D01*
X188005376Y-88445185D01*
X188042255Y-88483861D01*
X188042355Y-88483786D01*
X188043061Y-88484706D01*
X188045724Y-88487499D01*
X188047299Y-88490227D01*
X188047302Y-88490233D01*
X188103951Y-88564059D01*
X188129986Y-88597989D01*
X188139549Y-88610451D01*
X188200989Y-88657595D01*
X188203235Y-88660671D01*
X188206703Y-88662255D01*
X188223673Y-88688661D01*
X188242189Y-88714019D01*
X188243014Y-88718757D01*
X188244477Y-88721033D01*
X188249500Y-88755968D01*
X188249500Y-88831444D01*
X188229815Y-88898483D01*
X188200426Y-88930247D01*
X188132079Y-88982076D01*
X188132074Y-88982082D01*
X188040639Y-89102656D01*
X187985122Y-89243438D01*
X187979188Y-89292853D01*
X187974500Y-89331898D01*
X187974500Y-89818102D01*
X187976913Y-89838196D01*
X187985122Y-89906561D01*
X188040639Y-90047343D01*
X188132077Y-90167922D01*
X188252658Y-90259361D01*
X188252660Y-90259362D01*
X188316774Y-90284646D01*
X188371918Y-90327551D01*
X188395111Y-90393459D01*
X188378990Y-90461444D01*
X188328673Y-90509920D01*
X188316774Y-90515354D01*
X188252660Y-90540637D01*
X188252658Y-90540638D01*
X188132077Y-90632077D01*
X188040639Y-90752656D01*
X187985122Y-90893438D01*
X187980072Y-90935500D01*
X187974500Y-90981898D01*
X187974500Y-91468102D01*
X187977228Y-91490817D01*
X187985122Y-91556561D01*
X187985122Y-91556563D01*
X187985123Y-91556564D01*
X187988159Y-91564262D01*
X188040639Y-91697343D01*
X188132078Y-91817923D01*
X188157988Y-91837571D01*
X188199512Y-91893763D01*
X188204064Y-91963484D01*
X188202839Y-91968467D01*
X188174500Y-92074232D01*
X188174500Y-92074234D01*
X188174500Y-92225766D01*
X188190715Y-92286281D01*
X188213719Y-92372136D01*
X188222713Y-92387713D01*
X188289485Y-92503365D01*
X188396635Y-92610515D01*
X188527865Y-92686281D01*
X188674234Y-92725500D01*
X188674236Y-92725500D01*
X188825764Y-92725500D01*
X188825766Y-92725500D01*
X188972135Y-92686281D01*
X189103365Y-92610515D01*
X189210515Y-92503365D01*
X189286281Y-92372135D01*
X189288755Y-92362898D01*
X189291539Y-92353892D01*
X189295364Y-92343001D01*
X189312984Y-92312485D01*
X189333931Y-92234309D01*
X189350500Y-92172475D01*
X189350500Y-91968555D01*
X189370185Y-91901516D01*
X189399575Y-91869751D01*
X189467922Y-91817922D01*
X189501977Y-91773014D01*
X189559361Y-91697342D01*
X189614877Y-91556564D01*
X189625500Y-91468102D01*
X189625500Y-90981898D01*
X189614877Y-90893436D01*
X189559361Y-90752658D01*
X189559360Y-90752657D01*
X189559360Y-90752656D01*
X189467922Y-90632077D01*
X189347343Y-90540639D01*
X189322612Y-90530886D01*
X189283223Y-90515353D01*
X189228081Y-90472449D01*
X189204888Y-90406541D01*
X189221008Y-90338557D01*
X189271325Y-90290080D01*
X189283214Y-90284649D01*
X189347342Y-90259361D01*
X189467922Y-90167922D01*
X189559361Y-90047342D01*
X189614877Y-89906564D01*
X189625500Y-89818102D01*
X189625500Y-89331898D01*
X189614877Y-89243436D01*
X189559361Y-89102658D01*
X189559360Y-89102657D01*
X189559360Y-89102656D01*
X189467925Y-88982082D01*
X189467920Y-88982076D01*
X189399574Y-88930247D01*
X189397094Y-88926891D01*
X189393297Y-88925157D01*
X189376504Y-88899026D01*
X189358051Y-88874054D01*
X189357135Y-88868888D01*
X189355523Y-88866379D01*
X189350500Y-88831444D01*
X189350500Y-88755968D01*
X189370185Y-88688929D01*
X189399007Y-88657598D01*
X189460451Y-88610451D01*
X189470014Y-88597989D01*
X189488412Y-88574013D01*
X189544840Y-88532811D01*
X189586787Y-88525500D01*
X191026557Y-88525500D01*
X191093596Y-88545185D01*
X191139351Y-88597989D01*
X191149261Y-88631622D01*
X191159426Y-88701391D01*
X191210803Y-88806485D01*
X191293514Y-88889196D01*
X191293515Y-88889196D01*
X191293517Y-88889198D01*
X191398607Y-88940573D01*
X191432673Y-88945536D01*
X191466739Y-88950500D01*
X191466740Y-88950500D01*
X192533261Y-88950500D01*
X192555971Y-88947191D01*
X192601393Y-88940573D01*
X192706483Y-88889198D01*
X192789198Y-88806483D01*
X192840573Y-88701393D01*
X192850500Y-88633260D01*
X192850500Y-87316740D01*
X192840573Y-87248607D01*
X192789198Y-87143517D01*
X192789196Y-87143515D01*
X192789196Y-87143514D01*
X192706485Y-87060803D01*
X192601391Y-87009426D01*
X192533261Y-86999500D01*
X192533260Y-86999500D01*
X191466740Y-86999500D01*
X191466739Y-86999500D01*
X191398608Y-87009426D01*
X191293514Y-87060803D01*
X191210803Y-87143514D01*
X191159426Y-87248608D01*
X191149261Y-87318378D01*
X191120117Y-87381879D01*
X191061268Y-87419543D01*
X191026557Y-87424500D01*
X189586787Y-87424500D01*
X189519748Y-87404815D01*
X189488412Y-87375987D01*
X189460454Y-87339552D01*
X189460452Y-87339550D01*
X189460451Y-87339549D01*
X189340233Y-87247302D01*
X189340229Y-87247300D01*
X189271515Y-87218838D01*
X189200236Y-87189313D01*
X189186171Y-87187461D01*
X189087727Y-87174500D01*
X189087720Y-87174500D01*
X188512280Y-87174500D01*
X188512272Y-87174500D01*
X188399764Y-87189313D01*
X188399763Y-87189313D01*
X188259770Y-87247300D01*
X188259767Y-87247301D01*
X188259767Y-87247302D01*
X188139549Y-87339549D01*
X188139548Y-87339550D01*
X188139547Y-87339551D01*
X188068063Y-87432710D01*
X188011635Y-87473912D01*
X187941889Y-87478067D01*
X187882007Y-87444904D01*
X187586819Y-87149716D01*
X187553334Y-87088393D01*
X187550500Y-87062035D01*
X187550500Y-79890692D01*
X187526286Y-79800325D01*
X187526286Y-79800324D01*
X187523042Y-79788219D01*
X187519799Y-79776113D01*
X187460490Y-79673386D01*
X186518554Y-78731450D01*
X186485069Y-78670127D01*
X186490053Y-78600435D01*
X186531925Y-78544502D01*
X186597389Y-78520085D01*
X186665662Y-78534937D01*
X186668164Y-78536342D01*
X186697033Y-78553009D01*
X186726114Y-78569799D01*
X186840691Y-78600500D01*
X187938337Y-78600500D01*
X188005376Y-78620185D01*
X188042255Y-78658861D01*
X188042355Y-78658786D01*
X188043061Y-78659706D01*
X188045724Y-78662499D01*
X188047299Y-78665227D01*
X188047302Y-78665233D01*
X188081532Y-78709842D01*
X188125781Y-78767509D01*
X188139549Y-78785451D01*
X188200989Y-78832595D01*
X188203235Y-78835671D01*
X188206703Y-78837255D01*
X188223673Y-78863661D01*
X188242189Y-78889019D01*
X188243014Y-78893757D01*
X188244477Y-78896033D01*
X188249500Y-78930968D01*
X188249500Y-79131444D01*
X188229815Y-79198483D01*
X188200426Y-79230247D01*
X188132079Y-79282076D01*
X188132074Y-79282082D01*
X188040639Y-79402656D01*
X187985122Y-79543438D01*
X187983075Y-79560489D01*
X187974500Y-79631898D01*
X187974500Y-80118102D01*
X187977068Y-80139485D01*
X187985122Y-80206561D01*
X188040639Y-80347343D01*
X188132077Y-80467922D01*
X188252658Y-80559361D01*
X188252660Y-80559362D01*
X188316774Y-80584646D01*
X188371918Y-80627551D01*
X188395111Y-80693459D01*
X188378990Y-80761444D01*
X188328673Y-80809920D01*
X188316774Y-80815354D01*
X188252660Y-80840637D01*
X188252658Y-80840638D01*
X188132077Y-80932077D01*
X188040639Y-81052656D01*
X187985122Y-81193438D01*
X187979978Y-81236281D01*
X187974500Y-81281898D01*
X187974500Y-81768102D01*
X187978735Y-81803365D01*
X187985122Y-81856561D01*
X188040639Y-81997343D01*
X188132077Y-82117922D01*
X188200425Y-82169751D01*
X188202905Y-82173107D01*
X188206703Y-82174842D01*
X188223494Y-82200970D01*
X188241948Y-82225943D01*
X188242863Y-82231109D01*
X188244477Y-82233620D01*
X188249500Y-82268555D01*
X188249500Y-82282664D01*
X188232888Y-82344663D01*
X188213719Y-82377864D01*
X188213719Y-82377865D01*
X188174500Y-82524234D01*
X188174500Y-82675766D01*
X188190715Y-82736281D01*
X188213719Y-82822136D01*
X188225384Y-82842340D01*
X188289485Y-82953365D01*
X188396635Y-83060515D01*
X188527865Y-83136281D01*
X188674234Y-83175500D01*
X188674236Y-83175500D01*
X188825764Y-83175500D01*
X188825766Y-83175500D01*
X188972135Y-83136281D01*
X189103365Y-83060515D01*
X189210515Y-82953365D01*
X189286281Y-82822135D01*
X189288754Y-82812902D01*
X189301139Y-82782999D01*
X189312984Y-82762485D01*
X189335196Y-82679589D01*
X189350500Y-82622475D01*
X189350500Y-82268555D01*
X189370185Y-82201516D01*
X189399575Y-82169751D01*
X189467922Y-82117922D01*
X189559360Y-81997343D01*
X189559359Y-81997343D01*
X189559361Y-81997342D01*
X189614877Y-81856564D01*
X189625500Y-81768102D01*
X189625500Y-81281898D01*
X189614877Y-81193436D01*
X189559361Y-81052658D01*
X189559360Y-81052657D01*
X189559360Y-81052656D01*
X189467922Y-80932077D01*
X189347343Y-80840639D01*
X189322612Y-80830886D01*
X189283223Y-80815353D01*
X189228081Y-80772449D01*
X189204888Y-80706541D01*
X189221008Y-80638557D01*
X189271325Y-80590080D01*
X189283214Y-80584649D01*
X189347342Y-80559361D01*
X189467922Y-80467922D01*
X189559361Y-80347342D01*
X189614877Y-80206564D01*
X189625500Y-80118102D01*
X189625500Y-79631898D01*
X189614877Y-79543436D01*
X189559361Y-79402658D01*
X189559360Y-79402657D01*
X189559360Y-79402656D01*
X189467925Y-79282082D01*
X189467920Y-79282076D01*
X189399574Y-79230247D01*
X189397094Y-79226891D01*
X189393297Y-79225157D01*
X189376504Y-79199026D01*
X189358051Y-79174054D01*
X189357135Y-79168888D01*
X189355523Y-79166379D01*
X189350500Y-79131444D01*
X189350500Y-78930968D01*
X189370185Y-78863929D01*
X189399007Y-78832598D01*
X189460451Y-78785451D01*
X189545960Y-78674013D01*
X189602388Y-78632811D01*
X189644336Y-78625500D01*
X191026557Y-78625500D01*
X191093596Y-78645185D01*
X191139351Y-78697989D01*
X191149261Y-78731622D01*
X191159426Y-78801391D01*
X191210803Y-78906485D01*
X191293514Y-78989196D01*
X191293515Y-78989196D01*
X191293517Y-78989198D01*
X191398607Y-79040573D01*
X191432673Y-79045536D01*
X191466739Y-79050500D01*
X191466740Y-79050500D01*
X192533261Y-79050500D01*
X192555971Y-79047191D01*
X192601393Y-79040573D01*
X192706483Y-78989198D01*
X192789198Y-78906483D01*
X192803333Y-78877568D01*
X192850458Y-78825988D01*
X192917992Y-78808072D01*
X192983623Y-78828926D01*
X192996610Y-78837604D01*
X192996611Y-78837604D01*
X192996612Y-78837605D01*
X193032275Y-78852377D01*
X193113173Y-78885886D01*
X193236911Y-78910499D01*
X193236914Y-78910500D01*
X193236916Y-78910500D01*
X193363086Y-78910500D01*
X193363087Y-78910499D01*
X193486827Y-78885886D01*
X193577251Y-78848431D01*
X193603388Y-78837605D01*
X193603392Y-78837603D01*
X193664368Y-78796860D01*
X193708295Y-78767509D01*
X193797509Y-78678295D01*
X193849533Y-78600435D01*
X193867603Y-78573392D01*
X193867605Y-78573388D01*
X193893658Y-78510490D01*
X193915886Y-78456827D01*
X193940500Y-78333084D01*
X193940500Y-78206916D01*
X193940500Y-78206913D01*
X193940499Y-78206911D01*
X193921098Y-78109375D01*
X193915886Y-78083173D01*
X193890843Y-78022714D01*
X193867605Y-77966611D01*
X193867603Y-77966607D01*
X193797512Y-77861709D01*
X193797506Y-77861701D01*
X193708298Y-77772493D01*
X193708290Y-77772487D01*
X193603392Y-77702396D01*
X193603388Y-77702394D01*
X193486831Y-77654115D01*
X193486819Y-77654112D01*
X193363087Y-77629500D01*
X193363084Y-77629500D01*
X193236916Y-77629500D01*
X193236913Y-77629500D01*
X193113180Y-77654112D01*
X193113168Y-77654115D01*
X193021952Y-77691898D01*
X192952483Y-77699367D01*
X192890004Y-77668091D01*
X192854352Y-77608002D01*
X192850500Y-77577337D01*
X192850500Y-77416739D01*
X192840630Y-77349000D01*
X192840573Y-77348607D01*
X192789198Y-77243517D01*
X192789196Y-77243515D01*
X192789196Y-77243514D01*
X192706485Y-77160803D01*
X192601391Y-77109426D01*
X192533261Y-77099500D01*
X192533260Y-77099500D01*
X191466740Y-77099500D01*
X191466739Y-77099500D01*
X191398608Y-77109426D01*
X191293514Y-77160803D01*
X191210803Y-77243514D01*
X191159426Y-77348608D01*
X191149261Y-77418378D01*
X191120117Y-77481879D01*
X191061268Y-77519543D01*
X191026557Y-77524500D01*
X189515511Y-77524500D01*
X189448472Y-77504815D01*
X189440024Y-77498875D01*
X189340234Y-77422302D01*
X189340230Y-77422300D01*
X189244401Y-77382607D01*
X189200236Y-77364313D01*
X189182667Y-77362000D01*
X189087727Y-77349500D01*
X189087720Y-77349500D01*
X188512280Y-77349500D01*
X188512272Y-77349500D01*
X188399764Y-77364313D01*
X188399763Y-77364313D01*
X188259770Y-77422300D01*
X188259767Y-77422301D01*
X188259767Y-77422302D01*
X188253139Y-77427388D01*
X188139549Y-77514549D01*
X188047301Y-77634768D01*
X188045724Y-77637501D01*
X188043789Y-77639345D01*
X188042355Y-77641215D01*
X188042063Y-77640991D01*
X187995156Y-77685716D01*
X187938337Y-77699500D01*
X187137965Y-77699500D01*
X187070926Y-77679815D01*
X187050284Y-77663181D01*
X184309517Y-74922414D01*
X184276032Y-74861091D01*
X184281016Y-74791399D01*
X184322888Y-74735466D01*
X184365101Y-74714960D01*
X184472135Y-74686281D01*
X184603365Y-74610515D01*
X184710515Y-74503365D01*
X184786281Y-74372135D01*
X184825500Y-74225766D01*
X184825500Y-74074234D01*
X184786281Y-73927865D01*
X184710515Y-73796635D01*
X184603365Y-73689485D01*
X184537750Y-73651602D01*
X184472136Y-73613719D01*
X184366871Y-73585514D01*
X184325766Y-73574500D01*
X184174234Y-73574500D01*
X184027863Y-73613719D01*
X183896635Y-73689485D01*
X183896632Y-73689487D01*
X183789487Y-73796632D01*
X183789485Y-73796635D01*
X183730096Y-73899500D01*
X183713719Y-73927865D01*
X183685041Y-74034895D01*
X183648676Y-74094555D01*
X183585829Y-74125084D01*
X183516453Y-74116789D01*
X183477585Y-74090482D01*
X183376616Y-73989513D01*
X183376614Y-73989511D01*
X183325250Y-73959856D01*
X183273888Y-73930201D01*
X183261780Y-73926957D01*
X183249673Y-73923713D01*
X183249670Y-73923712D01*
X183211478Y-73913478D01*
X183159309Y-73899500D01*
X183159308Y-73899500D01*
X181281660Y-73899500D01*
X181214621Y-73879815D01*
X181168866Y-73827011D01*
X181158922Y-73757853D01*
X181187947Y-73694297D01*
X181246725Y-73656523D01*
X181249542Y-73655731D01*
X181322135Y-73636281D01*
X181453365Y-73560515D01*
X181560515Y-73453365D01*
X181636281Y-73322135D01*
X181675500Y-73175766D01*
X181675500Y-73024234D01*
X181636281Y-72877865D01*
X181632526Y-72871362D01*
X181626129Y-72860281D01*
X181560515Y-72746635D01*
X181453365Y-72639485D01*
X181365436Y-72588719D01*
X181322136Y-72563719D01*
X181248950Y-72544109D01*
X181175766Y-72524500D01*
X181024234Y-72524500D01*
X180877863Y-72563719D01*
X180797398Y-72610176D01*
X180758062Y-72632887D01*
X180696063Y-72649500D01*
X177440691Y-72649500D01*
X177350325Y-72673713D01*
X177350324Y-72673712D01*
X177326115Y-72680200D01*
X177326106Y-72680204D01*
X177223392Y-72739505D01*
X177223384Y-72739511D01*
X176967073Y-72995822D01*
X176911486Y-73027915D01*
X176777865Y-73063719D01*
X176777863Y-73063719D01*
X176777863Y-73063720D01*
X176646635Y-73139485D01*
X176646632Y-73139487D01*
X176539487Y-73246632D01*
X176539485Y-73246635D01*
X176463719Y-73377863D01*
X176436791Y-73478361D01*
X176424500Y-73524234D01*
X176424500Y-73675766D01*
X176442624Y-73743409D01*
X176440962Y-73813256D01*
X176401800Y-73871119D01*
X176337572Y-73898623D01*
X176322850Y-73899500D01*
X175170414Y-73899500D01*
X175103375Y-73879815D01*
X175057620Y-73827011D01*
X175047676Y-73757853D01*
X175076701Y-73694297D01*
X175115612Y-73666239D01*
X175115096Y-73665345D01*
X175131758Y-73655725D01*
X175253365Y-73585515D01*
X175360515Y-73478365D01*
X175436281Y-73347135D01*
X175475500Y-73200766D01*
X175475500Y-73049234D01*
X175436281Y-72902865D01*
X175360515Y-72771635D01*
X175253365Y-72664485D01*
X175240989Y-72657339D01*
X175199476Y-72633371D01*
X175151261Y-72582803D01*
X175138040Y-72514196D01*
X175164009Y-72449332D01*
X175173788Y-72438313D01*
X178850284Y-68761819D01*
X178911607Y-68728334D01*
X178937965Y-68725500D01*
X187858337Y-68725500D01*
X187925376Y-68745185D01*
X187962255Y-68783861D01*
X187962355Y-68783786D01*
X187963061Y-68784706D01*
X187965724Y-68787499D01*
X187967299Y-68790227D01*
X187967302Y-68790233D01*
X187999061Y-68831622D01*
X188052598Y-68901393D01*
X188059549Y-68910451D01*
X188120989Y-68957595D01*
X188162189Y-69014019D01*
X188169500Y-69055968D01*
X188169500Y-69318293D01*
X188149815Y-69385332D01*
X188133187Y-69405968D01*
X188132084Y-69407070D01*
X188040638Y-69527658D01*
X187985122Y-69668438D01*
X187982687Y-69688719D01*
X187974500Y-69756898D01*
X187974500Y-70243102D01*
X187980126Y-70289954D01*
X187985122Y-70331561D01*
X187985122Y-70331563D01*
X187985123Y-70331564D01*
X187985723Y-70333086D01*
X188040639Y-70472343D01*
X188132077Y-70592922D01*
X188252658Y-70684361D01*
X188252660Y-70684362D01*
X188316774Y-70709646D01*
X188371918Y-70752551D01*
X188395111Y-70818459D01*
X188378990Y-70886444D01*
X188328673Y-70934920D01*
X188316774Y-70940354D01*
X188252660Y-70965637D01*
X188252658Y-70965638D01*
X188132082Y-71057074D01*
X188126085Y-71063072D01*
X188123473Y-71060460D01*
X188081198Y-71091851D01*
X188038320Y-71099500D01*
X187281293Y-71099500D01*
X187219294Y-71082887D01*
X187198805Y-71071058D01*
X187052436Y-71031839D01*
X186900904Y-71031839D01*
X186754533Y-71071058D01*
X186623305Y-71146824D01*
X186623302Y-71146826D01*
X186516157Y-71253971D01*
X186516155Y-71253974D01*
X186440389Y-71385202D01*
X186401170Y-71531573D01*
X186401170Y-71683104D01*
X186440389Y-71829475D01*
X186467115Y-71875765D01*
X186516155Y-71960704D01*
X186623305Y-72067854D01*
X186754535Y-72143620D01*
X186773793Y-72148780D01*
X186803700Y-72161167D01*
X186806846Y-72162984D01*
X186946856Y-72200500D01*
X186946857Y-72200500D01*
X187091805Y-72200500D01*
X188038320Y-72200500D01*
X188105359Y-72220185D01*
X188124799Y-72238213D01*
X188126085Y-72236928D01*
X188132074Y-72242917D01*
X188132078Y-72242922D01*
X188132082Y-72242925D01*
X188252656Y-72334360D01*
X188252657Y-72334360D01*
X188252658Y-72334361D01*
X188393436Y-72389877D01*
X188481898Y-72400500D01*
X188481903Y-72400500D01*
X189118097Y-72400500D01*
X189118102Y-72400500D01*
X189206564Y-72389877D01*
X189347342Y-72334361D01*
X189467922Y-72242922D01*
X189559361Y-72122342D01*
X189614877Y-71981564D01*
X189625500Y-71893102D01*
X189625500Y-71406898D01*
X189614877Y-71318436D01*
X189559361Y-71177658D01*
X189559360Y-71177657D01*
X189559360Y-71177656D01*
X189467922Y-71057077D01*
X189347343Y-70965639D01*
X189322612Y-70955886D01*
X189283223Y-70940353D01*
X189228081Y-70897449D01*
X189204888Y-70831541D01*
X189221008Y-70763557D01*
X189271325Y-70715080D01*
X189283214Y-70709649D01*
X189347342Y-70684361D01*
X189467922Y-70592922D01*
X189559361Y-70472342D01*
X189614877Y-70331564D01*
X189625500Y-70243102D01*
X189625500Y-70206911D01*
X192659500Y-70206911D01*
X192659500Y-70333088D01*
X192684112Y-70456819D01*
X192684115Y-70456831D01*
X192732394Y-70573388D01*
X192732396Y-70573392D01*
X192802487Y-70678290D01*
X192802493Y-70678298D01*
X192891701Y-70767506D01*
X192891709Y-70767512D01*
X192996607Y-70837603D01*
X192996611Y-70837605D01*
X193113168Y-70885884D01*
X193113173Y-70885886D01*
X193235021Y-70910123D01*
X193236911Y-70910499D01*
X193236914Y-70910500D01*
X193236916Y-70910500D01*
X193363086Y-70910500D01*
X193363087Y-70910499D01*
X193486827Y-70885886D01*
X193603390Y-70837604D01*
X193603392Y-70837603D01*
X193658922Y-70800499D01*
X193708295Y-70767509D01*
X193797509Y-70678295D01*
X193856550Y-70589934D01*
X193867603Y-70573392D01*
X193867605Y-70573388D01*
X193903456Y-70486836D01*
X193915886Y-70456827D01*
X193940500Y-70333084D01*
X193940500Y-70206916D01*
X193940500Y-70206913D01*
X193940499Y-70206911D01*
X193923285Y-70120371D01*
X193915886Y-70083173D01*
X193886039Y-70011115D01*
X193867605Y-69966611D01*
X193867603Y-69966607D01*
X193797512Y-69861709D01*
X193797506Y-69861701D01*
X193708298Y-69772493D01*
X193708290Y-69772487D01*
X193603392Y-69702396D01*
X193603388Y-69702394D01*
X193486831Y-69654115D01*
X193486819Y-69654112D01*
X193363087Y-69629500D01*
X193363084Y-69629500D01*
X193236916Y-69629500D01*
X193236913Y-69629500D01*
X193113180Y-69654112D01*
X193113168Y-69654115D01*
X192996611Y-69702394D01*
X192996607Y-69702396D01*
X192891709Y-69772487D01*
X192891701Y-69772493D01*
X192802493Y-69861701D01*
X192802487Y-69861709D01*
X192732396Y-69966607D01*
X192732394Y-69966611D01*
X192684115Y-70083168D01*
X192684112Y-70083180D01*
X192659500Y-70206911D01*
X189625500Y-70206911D01*
X189625500Y-69756898D01*
X189614877Y-69668436D01*
X189559361Y-69527658D01*
X189559360Y-69527657D01*
X189559360Y-69527656D01*
X189467922Y-69407077D01*
X189347341Y-69315638D01*
X189339948Y-69311481D01*
X189340821Y-69309927D01*
X189332413Y-69303384D01*
X189313297Y-69294654D01*
X189305392Y-69282354D01*
X189293856Y-69273376D01*
X189286883Y-69253553D01*
X189275523Y-69235876D01*
X189271967Y-69211148D01*
X189270672Y-69207465D01*
X189270500Y-69200941D01*
X189270500Y-69055968D01*
X189290185Y-68988929D01*
X189319007Y-68957598D01*
X189380451Y-68910451D01*
X189472698Y-68790233D01*
X189472702Y-68790221D01*
X189474276Y-68787499D01*
X189476213Y-68785651D01*
X189477645Y-68783786D01*
X189477936Y-68784009D01*
X189524844Y-68739284D01*
X189581663Y-68725500D01*
X191026557Y-68725500D01*
X191093596Y-68745185D01*
X191139351Y-68797989D01*
X191149261Y-68831622D01*
X191159426Y-68901391D01*
X191210803Y-69006485D01*
X191293514Y-69089196D01*
X191293515Y-69089196D01*
X191293517Y-69089198D01*
X191398607Y-69140573D01*
X191425560Y-69144500D01*
X191466739Y-69150500D01*
X191466740Y-69150500D01*
X192533261Y-69150500D01*
X192574440Y-69144500D01*
X192601393Y-69140573D01*
X192706483Y-69089198D01*
X192789198Y-69006483D01*
X192840573Y-68901393D01*
X192850500Y-68833260D01*
X192850500Y-67516740D01*
X192840573Y-67448607D01*
X192789198Y-67343517D01*
X192789196Y-67343515D01*
X192789196Y-67343514D01*
X192706485Y-67260803D01*
X192601391Y-67209426D01*
X192533261Y-67199500D01*
X192533260Y-67199500D01*
X191466740Y-67199500D01*
X191466739Y-67199500D01*
X191398608Y-67209426D01*
X191293514Y-67260803D01*
X191210803Y-67343514D01*
X191159426Y-67448608D01*
X191149261Y-67518378D01*
X191120117Y-67581879D01*
X191061268Y-67619543D01*
X191026557Y-67624500D01*
X189402932Y-67624500D01*
X189335893Y-67604815D01*
X189327446Y-67598876D01*
X189260233Y-67547302D01*
X189260230Y-67547300D01*
X189169731Y-67509814D01*
X189120236Y-67489313D01*
X189106171Y-67487461D01*
X189007727Y-67474500D01*
X189007720Y-67474500D01*
X188432280Y-67474500D01*
X188432272Y-67474500D01*
X188319764Y-67489313D01*
X188319763Y-67489313D01*
X188179770Y-67547300D01*
X188179767Y-67547301D01*
X188179767Y-67547302D01*
X188108581Y-67601925D01*
X188059549Y-67639549D01*
X187967301Y-67759768D01*
X187965724Y-67762501D01*
X187963789Y-67764345D01*
X187962355Y-67766215D01*
X187962063Y-67765991D01*
X187915156Y-67810716D01*
X187858337Y-67824500D01*
X178640691Y-67824500D01*
X178559344Y-67846296D01*
X178559344Y-67846297D01*
X178526113Y-67855201D01*
X178526112Y-67855201D01*
X178526110Y-67855202D01*
X178423386Y-67914511D01*
X178423383Y-67914513D01*
X172640511Y-73697384D01*
X172631173Y-73713558D01*
X172611470Y-73739235D01*
X172489237Y-73861469D01*
X172463558Y-73881173D01*
X172447384Y-73890511D01*
X169589513Y-76748383D01*
X169589509Y-76748389D01*
X169530201Y-76851112D01*
X169530200Y-76851117D01*
X169499500Y-76965691D01*
X169499500Y-77800500D01*
X169479815Y-77867539D01*
X169427011Y-77913294D01*
X169375500Y-77924500D01*
X169224234Y-77924500D01*
X169077863Y-77963719D01*
X168946635Y-78039485D01*
X168946632Y-78039487D01*
X168839487Y-78146632D01*
X168839485Y-78146635D01*
X168763270Y-78278642D01*
X168712702Y-78326857D01*
X168644095Y-78340079D01*
X168579231Y-78314111D01*
X168568202Y-78304322D01*
X168553367Y-78289487D01*
X168553365Y-78289485D01*
X168487750Y-78251602D01*
X168422136Y-78213719D01*
X168348950Y-78194109D01*
X168275766Y-78174500D01*
X168124234Y-78174500D01*
X167977863Y-78213719D01*
X167846635Y-78289485D01*
X167846632Y-78289487D01*
X167739487Y-78396632D01*
X167739485Y-78396635D01*
X167681887Y-78496397D01*
X167631319Y-78544612D01*
X167562712Y-78557834D01*
X167497848Y-78531866D01*
X167457320Y-78474952D01*
X167450500Y-78434396D01*
X167450500Y-75035020D01*
X167470185Y-74967981D01*
X167486814Y-74947344D01*
X170659923Y-71774234D01*
X172424500Y-71774234D01*
X172424500Y-71925765D01*
X172463719Y-72072136D01*
X172486360Y-72111351D01*
X172539485Y-72203365D01*
X172646635Y-72310515D01*
X172777865Y-72386281D01*
X172924234Y-72425500D01*
X172924236Y-72425500D01*
X173075764Y-72425500D01*
X173075766Y-72425500D01*
X173222135Y-72386281D01*
X173353365Y-72310515D01*
X173460515Y-72203365D01*
X173536281Y-72072135D01*
X173575500Y-71925766D01*
X173575500Y-71774234D01*
X173536281Y-71627865D01*
X173460515Y-71496635D01*
X173353365Y-71389485D01*
X173279142Y-71346632D01*
X173222136Y-71313719D01*
X173148950Y-71294109D01*
X173075766Y-71274500D01*
X172924234Y-71274500D01*
X172777863Y-71313719D01*
X172646635Y-71389485D01*
X172646632Y-71389487D01*
X172539487Y-71496632D01*
X172539485Y-71496635D01*
X172463719Y-71627863D01*
X172424500Y-71774234D01*
X170659923Y-71774234D01*
X173295662Y-69138495D01*
X173295669Y-69138490D01*
X173302729Y-69131430D01*
X173302731Y-69131429D01*
X173486433Y-68947727D01*
X173602493Y-68787984D01*
X173639137Y-68737549D01*
X173757081Y-68506070D01*
X173808612Y-68347474D01*
X173837362Y-68258991D01*
X173847159Y-68197137D01*
X173869222Y-68057838D01*
X173878003Y-68002400D01*
X173878003Y-67738200D01*
X173878002Y-67738185D01*
X173878002Y-64824234D01*
X174624500Y-64824234D01*
X174624500Y-64975765D01*
X174663719Y-65122136D01*
X174683301Y-65156052D01*
X174739485Y-65253365D01*
X174846635Y-65360515D01*
X174977865Y-65436281D01*
X175124234Y-65475500D01*
X175124236Y-65475500D01*
X175275764Y-65475500D01*
X175275766Y-65475500D01*
X175422135Y-65436281D01*
X175553365Y-65360515D01*
X175660515Y-65253365D01*
X175736281Y-65122135D01*
X175775500Y-64975766D01*
X175775500Y-64824234D01*
X175736281Y-64677865D01*
X175660515Y-64546635D01*
X175553365Y-64439485D01*
X175487750Y-64401602D01*
X175422136Y-64363719D01*
X175348950Y-64344109D01*
X175275766Y-64324500D01*
X175124234Y-64324500D01*
X174977863Y-64363719D01*
X174846635Y-64439485D01*
X174846632Y-64439487D01*
X174739487Y-64546632D01*
X174739485Y-64546635D01*
X174663719Y-64677863D01*
X174624500Y-64824234D01*
X173878002Y-64824234D01*
X173878002Y-59224234D01*
X174274500Y-59224234D01*
X174274500Y-59375766D01*
X174289046Y-59430053D01*
X174313719Y-59522136D01*
X174324402Y-59540639D01*
X174389485Y-59653365D01*
X174496635Y-59760515D01*
X174627865Y-59836281D01*
X174761488Y-59872084D01*
X174817075Y-59904178D01*
X176923386Y-62010489D01*
X177026113Y-62069799D01*
X177050321Y-62076284D01*
X177050324Y-62076286D01*
X177050325Y-62076286D01*
X177080447Y-62084357D01*
X177140691Y-62100500D01*
X182825689Y-62100500D01*
X182892728Y-62120185D01*
X182938483Y-62172989D01*
X182948427Y-62242147D01*
X182924065Y-62299986D01*
X182870567Y-62369706D01*
X182749277Y-62579785D01*
X182749273Y-62579794D01*
X182656447Y-62803895D01*
X182593661Y-63038214D01*
X182562000Y-63278711D01*
X182562000Y-63521288D01*
X182593661Y-63761785D01*
X182656447Y-63996104D01*
X182749273Y-64220205D01*
X182749276Y-64220212D01*
X182870564Y-64430289D01*
X182870566Y-64430292D01*
X182870567Y-64430293D01*
X183018233Y-64622736D01*
X183018239Y-64622743D01*
X183189756Y-64794260D01*
X183189762Y-64794265D01*
X183382211Y-64941936D01*
X183592288Y-65063224D01*
X183816400Y-65156054D01*
X184050711Y-65218838D01*
X184231086Y-65242584D01*
X184291211Y-65250500D01*
X184291212Y-65250500D01*
X184533789Y-65250500D01*
X184581888Y-65244167D01*
X184774289Y-65218838D01*
X185008600Y-65156054D01*
X185232712Y-65063224D01*
X185442789Y-64941936D01*
X185635238Y-64794265D01*
X185806765Y-64622738D01*
X185954436Y-64430289D01*
X186075724Y-64220212D01*
X186168554Y-63996100D01*
X186231338Y-63761789D01*
X186263000Y-63521288D01*
X186263000Y-63278712D01*
X186231338Y-63038211D01*
X186168554Y-62803900D01*
X186075724Y-62579788D01*
X185954436Y-62369711D01*
X185944980Y-62357388D01*
X185900935Y-62299986D01*
X185875741Y-62234817D01*
X185889780Y-62166372D01*
X185938594Y-62116382D01*
X185999311Y-62100500D01*
X189159308Y-62100500D01*
X189159309Y-62100500D01*
X189249673Y-62076286D01*
X189273887Y-62069799D01*
X189376614Y-62010489D01*
X190285489Y-61101614D01*
X190337220Y-61012013D01*
X190387786Y-60963799D01*
X190396377Y-60959903D01*
X190397336Y-60959363D01*
X190397342Y-60959361D01*
X190517922Y-60867922D01*
X190609361Y-60747342D01*
X190664877Y-60606564D01*
X190675500Y-60518102D01*
X190675500Y-59881898D01*
X190664877Y-59793436D01*
X190609361Y-59652658D01*
X190605694Y-59647822D01*
X190580873Y-59582509D01*
X190580500Y-59572899D01*
X190580500Y-58118344D01*
X190600185Y-58051305D01*
X190631615Y-58018026D01*
X190677392Y-57984767D01*
X190754745Y-57928567D01*
X190878567Y-57804745D01*
X190981495Y-57663077D01*
X191060994Y-57507052D01*
X191115106Y-57340511D01*
X191142500Y-57167556D01*
X191142500Y-56992444D01*
X191115106Y-56819489D01*
X191060994Y-56652948D01*
X191060994Y-56652947D01*
X190981494Y-56496922D01*
X190965010Y-56474234D01*
X190878567Y-56355255D01*
X190754745Y-56231433D01*
X190613077Y-56128505D01*
X190457052Y-56049005D01*
X190457049Y-56049004D01*
X190290512Y-55994894D01*
X190204033Y-55981197D01*
X190117556Y-55967500D01*
X189942444Y-55967500D01*
X189884792Y-55976631D01*
X189769487Y-55994894D01*
X189602950Y-56049004D01*
X189602947Y-56049005D01*
X189446922Y-56128505D01*
X189367667Y-56186088D01*
X189305255Y-56231433D01*
X189305253Y-56231435D01*
X189305252Y-56231435D01*
X189181435Y-56355252D01*
X189181435Y-56355253D01*
X189181433Y-56355255D01*
X189137229Y-56416095D01*
X189078505Y-56496922D01*
X189034985Y-56582335D01*
X188987010Y-56633131D01*
X188919189Y-56649926D01*
X188853054Y-56627388D01*
X188809603Y-56572673D01*
X188800500Y-56526040D01*
X188800500Y-56102527D01*
X188800500Y-56102525D01*
X188762984Y-55962515D01*
X188755470Y-55949500D01*
X188690510Y-55836985D01*
X188561819Y-55708294D01*
X188528334Y-55646971D01*
X188525500Y-55620613D01*
X188525500Y-55381903D01*
X188525500Y-55381898D01*
X188514877Y-55293436D01*
X188459361Y-55152658D01*
X188459360Y-55152657D01*
X188459360Y-55152656D01*
X188367922Y-55032077D01*
X188247343Y-54940639D01*
X188218332Y-54929199D01*
X188183223Y-54915353D01*
X188128081Y-54872449D01*
X188104888Y-54806541D01*
X188121008Y-54738557D01*
X188171325Y-54690080D01*
X188183214Y-54684649D01*
X188247342Y-54659361D01*
X188367922Y-54567922D01*
X188367924Y-54567920D01*
X188369026Y-54566819D01*
X188370280Y-54566133D01*
X188374681Y-54562797D01*
X188375181Y-54563457D01*
X188430349Y-54533334D01*
X188456707Y-54530500D01*
X188991655Y-54530500D01*
X189058694Y-54550185D01*
X189091972Y-54581613D01*
X189181433Y-54704745D01*
X189305255Y-54828567D01*
X189446923Y-54931495D01*
X189464993Y-54940702D01*
X189602947Y-55010994D01*
X189602950Y-55010995D01*
X189667835Y-55032077D01*
X189769489Y-55065106D01*
X189942444Y-55092500D01*
X189942445Y-55092500D01*
X190117555Y-55092500D01*
X190117556Y-55092500D01*
X190290511Y-55065106D01*
X190457052Y-55010994D01*
X190613077Y-54931495D01*
X190754745Y-54828567D01*
X190878567Y-54704745D01*
X190981495Y-54563077D01*
X191060994Y-54407052D01*
X191115106Y-54240511D01*
X191142500Y-54067556D01*
X191142500Y-53998435D01*
X194509500Y-53998435D01*
X194509500Y-54201564D01*
X194541277Y-54402194D01*
X194541277Y-54402197D01*
X194604045Y-54595377D01*
X194636647Y-54659361D01*
X194688351Y-54760836D01*
X194696268Y-54776372D01*
X194815656Y-54940697D01*
X194815660Y-54940702D01*
X194959297Y-55084339D01*
X194959302Y-55084343D01*
X195102635Y-55188480D01*
X195123631Y-55203734D01*
X195299680Y-55293436D01*
X195304622Y-55295954D01*
X195497803Y-55358722D01*
X195497804Y-55358722D01*
X195497807Y-55358723D01*
X195698435Y-55390500D01*
X195698436Y-55390500D01*
X195901564Y-55390500D01*
X195901565Y-55390500D01*
X196102193Y-55358723D01*
X196102196Y-55358722D01*
X196102197Y-55358722D01*
X196295377Y-55295954D01*
X196295377Y-55295953D01*
X196295380Y-55295953D01*
X196476369Y-55203734D01*
X196640704Y-55084338D01*
X196784338Y-54940704D01*
X196903734Y-54776369D01*
X196995953Y-54595380D01*
X197017034Y-54530500D01*
X197058722Y-54402197D01*
X197058722Y-54402196D01*
X197058723Y-54402193D01*
X197090500Y-54201565D01*
X197090500Y-53998435D01*
X197058723Y-53797807D01*
X197058722Y-53797803D01*
X197058722Y-53797802D01*
X196995954Y-53604622D01*
X196995953Y-53604620D01*
X196903734Y-53423631D01*
X196794469Y-53273240D01*
X196784343Y-53259302D01*
X196784339Y-53259297D01*
X196640702Y-53115660D01*
X196640697Y-53115656D01*
X196476372Y-52996268D01*
X196476371Y-52996267D01*
X196476369Y-52996266D01*
X196336053Y-52924771D01*
X196295377Y-52904045D01*
X196102196Y-52841277D01*
X195951722Y-52817444D01*
X195901565Y-52809500D01*
X195698435Y-52809500D01*
X195631559Y-52820092D01*
X195497805Y-52841277D01*
X195497802Y-52841277D01*
X195304622Y-52904045D01*
X195123627Y-52996268D01*
X194959302Y-53115656D01*
X194959297Y-53115660D01*
X194815660Y-53259297D01*
X194815656Y-53259302D01*
X194696268Y-53423627D01*
X194604045Y-53604622D01*
X194541277Y-53797802D01*
X194541277Y-53797805D01*
X194509500Y-53998435D01*
X191142500Y-53998435D01*
X191142500Y-53892444D01*
X191115106Y-53719489D01*
X191060994Y-53552948D01*
X191060994Y-53552947D01*
X190993789Y-53421051D01*
X190981495Y-53396923D01*
X190878567Y-53255255D01*
X190754745Y-53131433D01*
X190613077Y-53028505D01*
X190457052Y-52949005D01*
X190457049Y-52949004D01*
X190290512Y-52894894D01*
X190204033Y-52881197D01*
X190117556Y-52867500D01*
X189942444Y-52867500D01*
X189884792Y-52876631D01*
X189769487Y-52894894D01*
X189602950Y-52949004D01*
X189602947Y-52949005D01*
X189446922Y-53028505D01*
X189366095Y-53087229D01*
X189305255Y-53131433D01*
X189305253Y-53131435D01*
X189305252Y-53131435D01*
X189181435Y-53255252D01*
X189181435Y-53255253D01*
X189181433Y-53255255D01*
X189155725Y-53290639D01*
X189091973Y-53378386D01*
X189036643Y-53421051D01*
X188991655Y-53429500D01*
X188465472Y-53429500D01*
X188398433Y-53409815D01*
X188374405Y-53387583D01*
X188373916Y-53388073D01*
X188367925Y-53382082D01*
X188367922Y-53382078D01*
X188367917Y-53382074D01*
X188247343Y-53290639D01*
X188106561Y-53235122D01*
X188060926Y-53229642D01*
X188018102Y-53224500D01*
X187381898Y-53224500D01*
X187342853Y-53229188D01*
X187293438Y-53235122D01*
X187152656Y-53290639D01*
X187032077Y-53382077D01*
X186940639Y-53502656D01*
X186885122Y-53643438D01*
X186881837Y-53670800D01*
X186874500Y-53731898D01*
X186874500Y-53731903D01*
X186874500Y-54112035D01*
X186854815Y-54179074D01*
X186838181Y-54199716D01*
X184224716Y-56813181D01*
X184163393Y-56846666D01*
X184137035Y-56849500D01*
X182440691Y-56849500D01*
X182371944Y-56867920D01*
X182326112Y-56880201D01*
X182326107Y-56880204D01*
X182223393Y-56939505D01*
X182223385Y-56939511D01*
X181289513Y-57873383D01*
X181289509Y-57873389D01*
X181230201Y-57976112D01*
X181230200Y-57976117D01*
X181199500Y-58090691D01*
X181199500Y-59646062D01*
X181182887Y-59708062D01*
X181113720Y-59827861D01*
X181113720Y-59827862D01*
X181113719Y-59827864D01*
X181113719Y-59827865D01*
X181100020Y-59878990D01*
X181074500Y-59974234D01*
X181074500Y-60125765D01*
X181113719Y-60272136D01*
X181151602Y-60337750D01*
X181189485Y-60403365D01*
X181296635Y-60510515D01*
X181427865Y-60586281D01*
X181574234Y-60625500D01*
X181574236Y-60625500D01*
X181725764Y-60625500D01*
X181725766Y-60625500D01*
X181872135Y-60586281D01*
X182003365Y-60510515D01*
X182110515Y-60403365D01*
X182186281Y-60272135D01*
X182225500Y-60125766D01*
X182225500Y-59974234D01*
X182186281Y-59827865D01*
X182179878Y-59816774D01*
X182117113Y-59708062D01*
X182100500Y-59646062D01*
X182100500Y-58387965D01*
X182120185Y-58320926D01*
X182136819Y-58300284D01*
X182650284Y-57786819D01*
X182711607Y-57753334D01*
X182737965Y-57750500D01*
X183150500Y-57750500D01*
X183217539Y-57770185D01*
X183263294Y-57822989D01*
X183274500Y-57874500D01*
X183274500Y-58933260D01*
X183284426Y-59001391D01*
X183335803Y-59106485D01*
X183418514Y-59189196D01*
X183418515Y-59189196D01*
X183418517Y-59189198D01*
X183523607Y-59240573D01*
X183557673Y-59245536D01*
X183591739Y-59250500D01*
X184185948Y-59250500D01*
X184252987Y-59270185D01*
X184298742Y-59322989D01*
X184308686Y-59392147D01*
X184279661Y-59455703D01*
X184231439Y-59489853D01*
X184177300Y-59511203D01*
X184102656Y-59540639D01*
X183982077Y-59632077D01*
X183930249Y-59700425D01*
X183926892Y-59702905D01*
X183925158Y-59706703D01*
X183899029Y-59723494D01*
X183874057Y-59741948D01*
X183868890Y-59742863D01*
X183866380Y-59744477D01*
X183831445Y-59749500D01*
X183585393Y-59749500D01*
X183553300Y-59745275D01*
X183540883Y-59741948D01*
X183475766Y-59724500D01*
X183324234Y-59724500D01*
X183177863Y-59763719D01*
X183046635Y-59839485D01*
X183046632Y-59839487D01*
X182939487Y-59946632D01*
X182939485Y-59946635D01*
X182863719Y-60077863D01*
X182824500Y-60224234D01*
X182824500Y-60375765D01*
X182863719Y-60522136D01*
X182900753Y-60586280D01*
X182939485Y-60653365D01*
X183046635Y-60760515D01*
X183138279Y-60813426D01*
X183168501Y-60830875D01*
X183177865Y-60836281D01*
X183324234Y-60875500D01*
X183324236Y-60875500D01*
X183475764Y-60875500D01*
X183475766Y-60875500D01*
X183553300Y-60854725D01*
X183585393Y-60850500D01*
X183831445Y-60850500D01*
X183898484Y-60870185D01*
X183930249Y-60899575D01*
X183982077Y-60967921D01*
X183993647Y-60976695D01*
X184035171Y-61032887D01*
X184039724Y-61102609D01*
X184005859Y-61163723D01*
X183944330Y-61196827D01*
X183918723Y-61199500D01*
X177437965Y-61199500D01*
X177370926Y-61179815D01*
X177350284Y-61163181D01*
X175454178Y-59267075D01*
X175422084Y-59211487D01*
X175417598Y-59194746D01*
X175386281Y-59077865D01*
X175310515Y-58946635D01*
X175203365Y-58839485D01*
X175137750Y-58801602D01*
X175072136Y-58763719D01*
X174998950Y-58744109D01*
X174925766Y-58724500D01*
X174774234Y-58724500D01*
X174627863Y-58763719D01*
X174496635Y-58839485D01*
X174496632Y-58839487D01*
X174389487Y-58946632D01*
X174389485Y-58946635D01*
X174313719Y-59077863D01*
X174274500Y-59224234D01*
X173878002Y-59224234D01*
X173878002Y-54205513D01*
X177729500Y-54205513D01*
X177729500Y-54394486D01*
X177759059Y-54581118D01*
X177817454Y-54760836D01*
X177880782Y-54885123D01*
X177903240Y-54929199D01*
X178014310Y-55082073D01*
X178147927Y-55215690D01*
X178300801Y-55326760D01*
X178363530Y-55358722D01*
X178469163Y-55412545D01*
X178469165Y-55412545D01*
X178469168Y-55412547D01*
X178546282Y-55437603D01*
X178648881Y-55470940D01*
X178835514Y-55500500D01*
X178835519Y-55500500D01*
X179024486Y-55500500D01*
X179211118Y-55470940D01*
X179390832Y-55412547D01*
X179559199Y-55326760D01*
X179712073Y-55215690D01*
X179845690Y-55082073D01*
X179956760Y-54929199D01*
X180042547Y-54760832D01*
X180082069Y-54639195D01*
X180121507Y-54581521D01*
X180185866Y-54554323D01*
X180254712Y-54566238D01*
X180306188Y-54613482D01*
X180317931Y-54639196D01*
X180357454Y-54760836D01*
X180420782Y-54885123D01*
X180443240Y-54929199D01*
X180554310Y-55082073D01*
X180687927Y-55215690D01*
X180840801Y-55326760D01*
X180903530Y-55358722D01*
X181009163Y-55412545D01*
X181009165Y-55412545D01*
X181009168Y-55412547D01*
X181086282Y-55437603D01*
X181188881Y-55470940D01*
X181375514Y-55500500D01*
X181375519Y-55500500D01*
X181564486Y-55500500D01*
X181751118Y-55470940D01*
X181930832Y-55412547D01*
X182099199Y-55326760D01*
X182252073Y-55215690D01*
X182385690Y-55082073D01*
X182496760Y-54929199D01*
X182582547Y-54760832D01*
X182622069Y-54639195D01*
X182661507Y-54581521D01*
X182725866Y-54554323D01*
X182794712Y-54566238D01*
X182846188Y-54613482D01*
X182857931Y-54639196D01*
X182897454Y-54760836D01*
X182960782Y-54885123D01*
X182983240Y-54929199D01*
X183094310Y-55082073D01*
X183227927Y-55215690D01*
X183380801Y-55326760D01*
X183443530Y-55358722D01*
X183549163Y-55412545D01*
X183549165Y-55412545D01*
X183549168Y-55412547D01*
X183626282Y-55437603D01*
X183728881Y-55470940D01*
X183915514Y-55500500D01*
X183915519Y-55500500D01*
X184104486Y-55500500D01*
X184291118Y-55470940D01*
X184470832Y-55412547D01*
X184639199Y-55326760D01*
X184792073Y-55215690D01*
X184925690Y-55082073D01*
X185036760Y-54929199D01*
X185122547Y-54760832D01*
X185180940Y-54581118D01*
X185188957Y-54530500D01*
X185210500Y-54394486D01*
X185210500Y-54205513D01*
X185180940Y-54018881D01*
X185140999Y-53895956D01*
X185122547Y-53839168D01*
X185122545Y-53839165D01*
X185122545Y-53839163D01*
X185061568Y-53719489D01*
X185036760Y-53670801D01*
X184925690Y-53517927D01*
X184792073Y-53384310D01*
X184639199Y-53273240D01*
X184611844Y-53259302D01*
X184470836Y-53187454D01*
X184291118Y-53129059D01*
X184104486Y-53099500D01*
X184104481Y-53099500D01*
X183915519Y-53099500D01*
X183915514Y-53099500D01*
X183728881Y-53129059D01*
X183549163Y-53187454D01*
X183380800Y-53273240D01*
X183356853Y-53290639D01*
X183227927Y-53384310D01*
X183227925Y-53384312D01*
X183227924Y-53384312D01*
X183094312Y-53517924D01*
X183094312Y-53517925D01*
X183094310Y-53517927D01*
X183068866Y-53552948D01*
X182983240Y-53670800D01*
X182897454Y-53839163D01*
X182857931Y-53960803D01*
X182818493Y-54018478D01*
X182754134Y-54045676D01*
X182685288Y-54033761D01*
X182633812Y-53986516D01*
X182622069Y-53960803D01*
X182600999Y-53895956D01*
X182582547Y-53839168D01*
X182582545Y-53839165D01*
X182582545Y-53839163D01*
X182521568Y-53719489D01*
X182496760Y-53670801D01*
X182385690Y-53517927D01*
X182252073Y-53384310D01*
X182099199Y-53273240D01*
X182071844Y-53259302D01*
X181930836Y-53187454D01*
X181751118Y-53129059D01*
X181564486Y-53099500D01*
X181564481Y-53099500D01*
X181375519Y-53099500D01*
X181375514Y-53099500D01*
X181188881Y-53129059D01*
X181009163Y-53187454D01*
X180840800Y-53273240D01*
X180816853Y-53290639D01*
X180687927Y-53384310D01*
X180687925Y-53384312D01*
X180687924Y-53384312D01*
X180554312Y-53517924D01*
X180554312Y-53517925D01*
X180554310Y-53517927D01*
X180528866Y-53552948D01*
X180443240Y-53670800D01*
X180357454Y-53839163D01*
X180317931Y-53960803D01*
X180278493Y-54018478D01*
X180214134Y-54045676D01*
X180145288Y-54033761D01*
X180093812Y-53986516D01*
X180082069Y-53960803D01*
X180060999Y-53895956D01*
X180042547Y-53839168D01*
X180042545Y-53839165D01*
X180042545Y-53839163D01*
X179981568Y-53719489D01*
X179956760Y-53670801D01*
X179845690Y-53517927D01*
X179712073Y-53384310D01*
X179559199Y-53273240D01*
X179531844Y-53259302D01*
X179390836Y-53187454D01*
X179211118Y-53129059D01*
X179024486Y-53099500D01*
X179024481Y-53099500D01*
X178835519Y-53099500D01*
X178835514Y-53099500D01*
X178648881Y-53129059D01*
X178469163Y-53187454D01*
X178300800Y-53273240D01*
X178276853Y-53290639D01*
X178147927Y-53384310D01*
X178147925Y-53384312D01*
X178147924Y-53384312D01*
X178014312Y-53517924D01*
X178014312Y-53517925D01*
X178014310Y-53517927D01*
X177988866Y-53552948D01*
X177903240Y-53670800D01*
X177817454Y-53839163D01*
X177759059Y-54018881D01*
X177729500Y-54205513D01*
X173878002Y-54205513D01*
X173878002Y-53870097D01*
X173856113Y-53731898D01*
X173837362Y-53613507D01*
X173757081Y-53366428D01*
X173757079Y-53366425D01*
X173757079Y-53366423D01*
X173700434Y-53255252D01*
X173639136Y-53134949D01*
X173486433Y-52924771D01*
X173302731Y-52741069D01*
X173092553Y-52588366D01*
X173020266Y-52551534D01*
X172861078Y-52470422D01*
X172613995Y-52390140D01*
X172357404Y-52349500D01*
X172357399Y-52349500D01*
X172097605Y-52349500D01*
X172097600Y-52349500D01*
X171841008Y-52390140D01*
X171593925Y-52470422D01*
X171362447Y-52588368D01*
X171152276Y-52741066D01*
X171152270Y-52741071D01*
X170968573Y-52924768D01*
X170968568Y-52924774D01*
X170815870Y-53134945D01*
X170697924Y-53366423D01*
X170617642Y-53613506D01*
X170577002Y-53870097D01*
X170577002Y-67137476D01*
X170557317Y-67204515D01*
X170540683Y-67225157D01*
X164637181Y-73128659D01*
X164575858Y-73162144D01*
X164506166Y-73157160D01*
X164450233Y-73115288D01*
X164425816Y-73049824D01*
X164425500Y-73040978D01*
X164425500Y-72457054D01*
X164445185Y-72390015D01*
X164497989Y-72344260D01*
X164567147Y-72334316D01*
X164581575Y-72337275D01*
X164724234Y-72375500D01*
X164724237Y-72375500D01*
X164875764Y-72375500D01*
X164875766Y-72375500D01*
X165022135Y-72336281D01*
X165153365Y-72260515D01*
X165260515Y-72153365D01*
X165336281Y-72022135D01*
X165375500Y-71875766D01*
X165375500Y-71724234D01*
X165336281Y-71577865D01*
X165260515Y-71446635D01*
X165153365Y-71339485D01*
X165087750Y-71301602D01*
X165022136Y-71263719D01*
X164931691Y-71239485D01*
X164875766Y-71224500D01*
X164724234Y-71224500D01*
X164581593Y-71262720D01*
X164511743Y-71261057D01*
X164453881Y-71221894D01*
X164426377Y-71157665D01*
X164425500Y-71142945D01*
X164425500Y-70589934D01*
X164445185Y-70522895D01*
X164497989Y-70477140D01*
X164567147Y-70467196D01*
X164618391Y-70486832D01*
X164742129Y-70569512D01*
X164742142Y-70569519D01*
X164845255Y-70612229D01*
X164879629Y-70626467D01*
X164879631Y-70626467D01*
X164879636Y-70626469D01*
X165025585Y-70655499D01*
X165025589Y-70655500D01*
X165025590Y-70655500D01*
X165174411Y-70655500D01*
X165174412Y-70655499D01*
X165223063Y-70645822D01*
X165320363Y-70626469D01*
X165320366Y-70626467D01*
X165320371Y-70626467D01*
X165437718Y-70577860D01*
X165457857Y-70569519D01*
X165457857Y-70569518D01*
X165457864Y-70569516D01*
X165581603Y-70486836D01*
X165581605Y-70486834D01*
X165581608Y-70486832D01*
X165597317Y-70471122D01*
X165658639Y-70437635D01*
X165728331Y-70442618D01*
X165772683Y-70471122D01*
X165788392Y-70486832D01*
X165788397Y-70486836D01*
X165912129Y-70569512D01*
X165912142Y-70569519D01*
X166015255Y-70612229D01*
X166049629Y-70626467D01*
X166049631Y-70626467D01*
X166049636Y-70626469D01*
X166195585Y-70655499D01*
X166195589Y-70655500D01*
X166195590Y-70655500D01*
X166344411Y-70655500D01*
X166344412Y-70655499D01*
X166393063Y-70645822D01*
X166490363Y-70626469D01*
X166490366Y-70626467D01*
X166490371Y-70626467D01*
X166607718Y-70577860D01*
X166627857Y-70569519D01*
X166627857Y-70569518D01*
X166627864Y-70569516D01*
X166751603Y-70486836D01*
X166751605Y-70486834D01*
X166751608Y-70486832D01*
X166856833Y-70381606D01*
X166856836Y-70381603D01*
X166939516Y-70257864D01*
X166996467Y-70120371D01*
X167025500Y-69974410D01*
X167025500Y-69825590D01*
X167014938Y-69772491D01*
X166996469Y-69679636D01*
X166996466Y-69679627D01*
X166991831Y-69668438D01*
X166975703Y-69629500D01*
X166939519Y-69542142D01*
X166939512Y-69542129D01*
X166856836Y-69418397D01*
X166856833Y-69418393D01*
X166751606Y-69313166D01*
X166751602Y-69313163D01*
X166627870Y-69230487D01*
X166627857Y-69230480D01*
X166490372Y-69173533D01*
X166490363Y-69173530D01*
X166344414Y-69144500D01*
X166344410Y-69144500D01*
X166195590Y-69144500D01*
X166195585Y-69144500D01*
X166049636Y-69173530D01*
X166049627Y-69173533D01*
X165912142Y-69230480D01*
X165912129Y-69230487D01*
X165788397Y-69313163D01*
X165788393Y-69313166D01*
X165772681Y-69328879D01*
X165711358Y-69362364D01*
X165641666Y-69357380D01*
X165597319Y-69328879D01*
X165581606Y-69313166D01*
X165581602Y-69313163D01*
X165457870Y-69230487D01*
X165457857Y-69230480D01*
X165320372Y-69173533D01*
X165320363Y-69173530D01*
X165174414Y-69144500D01*
X165174410Y-69144500D01*
X165025590Y-69144500D01*
X165025585Y-69144500D01*
X164879636Y-69173530D01*
X164879627Y-69173533D01*
X164742142Y-69230480D01*
X164742129Y-69230487D01*
X164618391Y-69313167D01*
X164551713Y-69334045D01*
X164484333Y-69315560D01*
X164437643Y-69263581D01*
X164425500Y-69210065D01*
X164425500Y-68516232D01*
X164425499Y-68516228D01*
X164392817Y-68351925D01*
X164392816Y-68351918D01*
X164349554Y-68247475D01*
X164345140Y-68236819D01*
X164328707Y-68197144D01*
X164328706Y-68197143D01*
X164328704Y-68197137D01*
X164235627Y-68057838D01*
X164235624Y-68057834D01*
X162867165Y-66689375D01*
X162867161Y-66689372D01*
X162727866Y-66596297D01*
X162727863Y-66596296D01*
X162618416Y-66550962D01*
X162618414Y-66550961D01*
X162573086Y-66532185D01*
X162573074Y-66532182D01*
X162408771Y-66499500D01*
X162408767Y-66499500D01*
X159616233Y-66499500D01*
X159616228Y-66499500D01*
X159451925Y-66532182D01*
X159451913Y-66532185D01*
X159406583Y-66550962D01*
X159297143Y-66596292D01*
X159297130Y-66596299D01*
X159157839Y-66689371D01*
X159079856Y-66767354D01*
X159001873Y-66845338D01*
X159001871Y-66845340D01*
X158608286Y-67238925D01*
X158586409Y-67260802D01*
X158539371Y-67307839D01*
X158446297Y-67447133D01*
X158446296Y-67447136D01*
X158417466Y-67516739D01*
X158417466Y-67516740D01*
X158382184Y-67601917D01*
X158382182Y-67601925D01*
X158349500Y-67766228D01*
X158349500Y-68608771D01*
X158382182Y-68773074D01*
X158382184Y-68773082D01*
X158446295Y-68927860D01*
X158539373Y-69067162D01*
X158657837Y-69185626D01*
X158680758Y-69200941D01*
X158797137Y-69278703D01*
X158951918Y-69342816D01*
X159116228Y-69375499D01*
X159116232Y-69375500D01*
X159116233Y-69375500D01*
X159283768Y-69375500D01*
X159283769Y-69375499D01*
X159448082Y-69342816D01*
X159602863Y-69278703D01*
X159742162Y-69185626D01*
X159860626Y-69067162D01*
X159953703Y-68927863D01*
X160017816Y-68773082D01*
X160050500Y-68608767D01*
X160050500Y-68324500D01*
X160070185Y-68257461D01*
X160122989Y-68211706D01*
X160174500Y-68200500D01*
X161921349Y-68200500D01*
X161988388Y-68220185D01*
X162009030Y-68236819D01*
X162688181Y-68915970D01*
X162721666Y-68977293D01*
X162724500Y-69003651D01*
X162724500Y-69571351D01*
X162704815Y-69638390D01*
X162652011Y-69684145D01*
X162582853Y-69694089D01*
X162527616Y-69671670D01*
X162491386Y-69645348D01*
X162336478Y-69566418D01*
X162171141Y-69512697D01*
X162042354Y-69492299D01*
X161999426Y-69485500D01*
X161825574Y-69485500D01*
X161768336Y-69494565D01*
X161653860Y-69512697D01*
X161653857Y-69512697D01*
X161488521Y-69566418D01*
X161333615Y-69645347D01*
X161286431Y-69679629D01*
X161192967Y-69747535D01*
X161192965Y-69747537D01*
X161192964Y-69747537D01*
X161070037Y-69870464D01*
X161070037Y-69870465D01*
X161070035Y-69870467D01*
X161026149Y-69930869D01*
X160967847Y-70011115D01*
X160888918Y-70166021D01*
X160835197Y-70331357D01*
X160835197Y-70331360D01*
X160810572Y-70486836D01*
X160808000Y-70503074D01*
X160808000Y-70676926D01*
X160814043Y-70715080D01*
X160835197Y-70848639D01*
X160835197Y-70848642D01*
X160888918Y-71013978D01*
X160910879Y-71057078D01*
X160967847Y-71168884D01*
X161070035Y-71309533D01*
X161192967Y-71432465D01*
X161333616Y-71534653D01*
X161478839Y-71608648D01*
X161488521Y-71613581D01*
X161653858Y-71667302D01*
X161653859Y-71667302D01*
X161653862Y-71667303D01*
X161825574Y-71694500D01*
X161825575Y-71694500D01*
X161999425Y-71694500D01*
X161999426Y-71694500D01*
X162171138Y-71667303D01*
X162171141Y-71667302D01*
X162171142Y-71667302D01*
X162336478Y-71613581D01*
X162336478Y-71613580D01*
X162336481Y-71613580D01*
X162491384Y-71534653D01*
X162527614Y-71508329D01*
X162593420Y-71484850D01*
X162661474Y-71500675D01*
X162710169Y-71550781D01*
X162724500Y-71608648D01*
X162724500Y-72111351D01*
X162704815Y-72178390D01*
X162652011Y-72224145D01*
X162582853Y-72234089D01*
X162527616Y-72211670D01*
X162491386Y-72185348D01*
X162336478Y-72106418D01*
X162171141Y-72052697D01*
X162042354Y-72032299D01*
X161999426Y-72025500D01*
X161825574Y-72025500D01*
X161768336Y-72034565D01*
X161653860Y-72052697D01*
X161653857Y-72052697D01*
X161488521Y-72106418D01*
X161333615Y-72185347D01*
X161259246Y-72239380D01*
X161192967Y-72287535D01*
X161192965Y-72287537D01*
X161192964Y-72287537D01*
X161070037Y-72410464D01*
X161070037Y-72410465D01*
X161070035Y-72410467D01*
X161026149Y-72470869D01*
X160967847Y-72551115D01*
X160888918Y-72706021D01*
X160835197Y-72871357D01*
X160835197Y-72871360D01*
X160808000Y-73043074D01*
X160808000Y-73216925D01*
X160835197Y-73388639D01*
X160835197Y-73388642D01*
X160888918Y-73553978D01*
X160956330Y-73686280D01*
X160967847Y-73708884D01*
X161070035Y-73849533D01*
X161192967Y-73972465D01*
X161333616Y-74074653D01*
X161488519Y-74153580D01*
X161488521Y-74153581D01*
X161653858Y-74207302D01*
X161653859Y-74207302D01*
X161653862Y-74207303D01*
X161825574Y-74234500D01*
X161825575Y-74234500D01*
X161845848Y-74234500D01*
X161867093Y-74240738D01*
X161889182Y-74242318D01*
X161899966Y-74250390D01*
X161912887Y-74254185D01*
X161927385Y-74270916D01*
X161945116Y-74284190D01*
X161949823Y-74296811D01*
X161958642Y-74306989D01*
X161961793Y-74328905D01*
X161969532Y-74349655D01*
X161966669Y-74362815D01*
X161968586Y-74376147D01*
X161959386Y-74396290D01*
X161954680Y-74417927D01*
X161941410Y-74435653D01*
X161939561Y-74439703D01*
X161933537Y-74446172D01*
X161876346Y-74503364D01*
X161840561Y-74539149D01*
X161779237Y-74572633D01*
X161772279Y-74573940D01*
X161653863Y-74592696D01*
X161653860Y-74592697D01*
X161488523Y-74646417D01*
X161333615Y-74725347D01*
X161284943Y-74760710D01*
X161192967Y-74827535D01*
X161192965Y-74827537D01*
X161192964Y-74827537D01*
X161070037Y-74950464D01*
X161070037Y-74950465D01*
X161070035Y-74950467D01*
X161034711Y-74999086D01*
X160967847Y-75091115D01*
X160888918Y-75246021D01*
X160835197Y-75411357D01*
X160835197Y-75411360D01*
X160813159Y-75550500D01*
X160808000Y-75583074D01*
X160808000Y-75756926D01*
X160814152Y-75795765D01*
X160835197Y-75928639D01*
X160835197Y-75928642D01*
X160888918Y-76093978D01*
X160966956Y-76247135D01*
X160967847Y-76248884D01*
X161070035Y-76389533D01*
X161192967Y-76512465D01*
X161333616Y-76614653D01*
X161488519Y-76693580D01*
X161488521Y-76693581D01*
X161653858Y-76747302D01*
X161653859Y-76747302D01*
X161653862Y-76747303D01*
X161825574Y-76774500D01*
X161825575Y-76774500D01*
X161999425Y-76774500D01*
X161999426Y-76774500D01*
X162171138Y-76747303D01*
X162171141Y-76747302D01*
X162171142Y-76747302D01*
X162336478Y-76693581D01*
X162336478Y-76693580D01*
X162336481Y-76693580D01*
X162394205Y-76664167D01*
X162462874Y-76651272D01*
X162527614Y-76677548D01*
X162567872Y-76734654D01*
X162574500Y-76774653D01*
X162574500Y-76875765D01*
X162613719Y-77022136D01*
X162631751Y-77053368D01*
X162689485Y-77153365D01*
X162796635Y-77260515D01*
X162927865Y-77336281D01*
X163074234Y-77375500D01*
X163074236Y-77375500D01*
X163225764Y-77375500D01*
X163225766Y-77375500D01*
X163372135Y-77336281D01*
X163503365Y-77260515D01*
X163610515Y-77153365D01*
X163686281Y-77022135D01*
X163725500Y-76875766D01*
X163725500Y-76724234D01*
X163686281Y-76577865D01*
X163610515Y-76446635D01*
X163503365Y-76339485D01*
X163390509Y-76274327D01*
X163372136Y-76263719D01*
X163298950Y-76244109D01*
X163225766Y-76224500D01*
X163074234Y-76224500D01*
X163066107Y-76224500D01*
X163066107Y-76221451D01*
X163011376Y-76212897D01*
X162959136Y-76166500D01*
X162940273Y-76099224D01*
X162946332Y-76062427D01*
X162989803Y-75928638D01*
X163008558Y-75810220D01*
X163038487Y-75747086D01*
X163043332Y-75741955D01*
X163937819Y-74847469D01*
X163999142Y-74813984D01*
X164068834Y-74818968D01*
X164124767Y-74860840D01*
X164149184Y-74926304D01*
X164149500Y-74935150D01*
X164149500Y-80409081D01*
X164129815Y-80476120D01*
X164077011Y-80521875D01*
X164007853Y-80531819D01*
X163963500Y-80516468D01*
X163872138Y-80463720D01*
X163872135Y-80463719D01*
X163725766Y-80424500D01*
X163574234Y-80424500D01*
X163427863Y-80463719D01*
X163296635Y-80539485D01*
X163237679Y-80598440D01*
X163176355Y-80631924D01*
X163106664Y-80626938D01*
X163062318Y-80598438D01*
X163053367Y-80589487D01*
X163053365Y-80589485D01*
X162966763Y-80539485D01*
X162922136Y-80513719D01*
X162788324Y-80477865D01*
X162775766Y-80474500D01*
X162624234Y-80474500D01*
X162477863Y-80513719D01*
X162346635Y-80589485D01*
X162346632Y-80589487D01*
X162239487Y-80696632D01*
X162239485Y-80696635D01*
X162163719Y-80827863D01*
X162130092Y-80953364D01*
X162124500Y-80974234D01*
X162124500Y-81125766D01*
X162133675Y-81160008D01*
X162163719Y-81272136D01*
X162201602Y-81337750D01*
X162239485Y-81403365D01*
X162346635Y-81510515D01*
X162477865Y-81586281D01*
X162624234Y-81625500D01*
X162624236Y-81625500D01*
X162775764Y-81625500D01*
X162775766Y-81625500D01*
X162922135Y-81586281D01*
X163053365Y-81510515D01*
X163112319Y-81451561D01*
X163173642Y-81418076D01*
X163243334Y-81423060D01*
X163287681Y-81451561D01*
X163296635Y-81460515D01*
X163427865Y-81536281D01*
X163574234Y-81575500D01*
X163574236Y-81575500D01*
X163725764Y-81575500D01*
X163725766Y-81575500D01*
X163872135Y-81536281D01*
X163963501Y-81483530D01*
X164031399Y-81467058D01*
X164097426Y-81489910D01*
X164140617Y-81544831D01*
X164149500Y-81590918D01*
X164149500Y-84258630D01*
X164129815Y-84325669D01*
X164077011Y-84371424D01*
X164007853Y-84381368D01*
X163944297Y-84352343D01*
X163927124Y-84334116D01*
X163806766Y-84177263D01*
X163806760Y-84177256D01*
X163635243Y-84005739D01*
X163635236Y-84005733D01*
X163442793Y-83858067D01*
X163442792Y-83858066D01*
X163442789Y-83858064D01*
X163232712Y-83736776D01*
X163232705Y-83736773D01*
X163008604Y-83643947D01*
X162854662Y-83602698D01*
X162774289Y-83581162D01*
X162774288Y-83581161D01*
X162774285Y-83581161D01*
X162533789Y-83549500D01*
X162533788Y-83549500D01*
X162291212Y-83549500D01*
X162291211Y-83549500D01*
X162050714Y-83581161D01*
X161816395Y-83643947D01*
X161592294Y-83736773D01*
X161592285Y-83736777D01*
X161382206Y-83858067D01*
X161189763Y-84005733D01*
X161189756Y-84005739D01*
X161018239Y-84177256D01*
X161018233Y-84177263D01*
X160870567Y-84369706D01*
X160749277Y-84579785D01*
X160749273Y-84579794D01*
X160656447Y-84803895D01*
X160593661Y-85038214D01*
X160562000Y-85278711D01*
X160562000Y-85521288D01*
X160593661Y-85761785D01*
X160656447Y-85996104D01*
X160747178Y-86215148D01*
X160749276Y-86220212D01*
X160870564Y-86430289D01*
X160870566Y-86430292D01*
X160870567Y-86430293D01*
X161018233Y-86622736D01*
X161018239Y-86622743D01*
X161189756Y-86794260D01*
X161189762Y-86794265D01*
X161382211Y-86941936D01*
X161592288Y-87063224D01*
X161816400Y-87156054D01*
X162050711Y-87218838D01*
X162231086Y-87242584D01*
X162291211Y-87250500D01*
X162291212Y-87250500D01*
X162533789Y-87250500D01*
X162581888Y-87244167D01*
X162774289Y-87218838D01*
X163008600Y-87156054D01*
X163117529Y-87110933D01*
X163186998Y-87103465D01*
X163249478Y-87134740D01*
X163285130Y-87194829D01*
X163282637Y-87264654D01*
X163252663Y-87313176D01*
X162741071Y-87824768D01*
X162741071Y-87824769D01*
X162741069Y-87824771D01*
X162695933Y-87886895D01*
X162588365Y-88034948D01*
X162470420Y-88266426D01*
X162470418Y-88266432D01*
X162455284Y-88313014D01*
X162455284Y-88313015D01*
X162445374Y-88343514D01*
X162390140Y-88513506D01*
X162349500Y-88770097D01*
X162349500Y-91242439D01*
X162329815Y-91309478D01*
X162277011Y-91355233D01*
X162260097Y-91361515D01*
X162225681Y-91371514D01*
X162089262Y-91452193D01*
X162089256Y-91452197D01*
X161977197Y-91564256D01*
X161977190Y-91564265D01*
X161896514Y-91700681D01*
X161896513Y-91700684D01*
X161852298Y-91852871D01*
X161852297Y-91852877D01*
X161849500Y-91888421D01*
X161849500Y-93011558D01*
X161849501Y-93011583D01*
X161852297Y-93047120D01*
X161896515Y-93199320D01*
X161977190Y-93335734D01*
X161977197Y-93335743D01*
X162089256Y-93447802D01*
X162089260Y-93447805D01*
X162089262Y-93447807D01*
X162225680Y-93528485D01*
X162260906Y-93538719D01*
X162377871Y-93572701D01*
X162377874Y-93572701D01*
X162377876Y-93572702D01*
X162413429Y-93575500D01*
X163425500Y-93575499D01*
X163492539Y-93595183D01*
X163538294Y-93647987D01*
X163549500Y-93699499D01*
X163549500Y-94259309D01*
X163568496Y-94330201D01*
X163568495Y-94330201D01*
X163568496Y-94330203D01*
X163580199Y-94373883D01*
X163580200Y-94373885D01*
X163580201Y-94373887D01*
X163639511Y-94476614D01*
X163639513Y-94476616D01*
X164575216Y-95412319D01*
X164608701Y-95473642D01*
X164603717Y-95543334D01*
X164575216Y-95587681D01*
X163639513Y-96523383D01*
X163639509Y-96523389D01*
X163580201Y-96626112D01*
X163580200Y-96626117D01*
X163549500Y-96740691D01*
X163549500Y-97220500D01*
X163529815Y-97287539D01*
X163477011Y-97333294D01*
X163425500Y-97344500D01*
X162451361Y-97344500D01*
X162413375Y-97346536D01*
X162413368Y-97346536D01*
X162413358Y-97346537D01*
X162413354Y-97346537D01*
X162413316Y-97346540D01*
X162387002Y-97349370D01*
X162365174Y-97352404D01*
X162365173Y-97352404D01*
X162254632Y-97390817D01*
X162193304Y-97424305D01*
X162112315Y-97484934D01*
X162112294Y-97484952D01*
X161984949Y-97612297D01*
X161959512Y-97640615D01*
X161959506Y-97640623D01*
X161942875Y-97661259D01*
X161929645Y-97678756D01*
X161929638Y-97678768D01*
X161927049Y-97684112D01*
X161911156Y-97707661D01*
X161890276Y-97760000D01*
X161888332Y-97764014D01*
X161878613Y-97784072D01*
X161878610Y-97784080D01*
X161874493Y-97798085D01*
X161874494Y-97798086D01*
X161872849Y-97803686D01*
X161867795Y-97816358D01*
X161863973Y-97833919D01*
X161862726Y-97838169D01*
X161862725Y-97838176D01*
X161858898Y-97851212D01*
X161858896Y-97851220D01*
X161844500Y-97951359D01*
X161844500Y-99648639D01*
X161846536Y-99686624D01*
X161846540Y-99686683D01*
X161849370Y-99712997D01*
X161852404Y-99734825D01*
X161852404Y-99734826D01*
X161890817Y-99845367D01*
X161924305Y-99906695D01*
X161984934Y-99987684D01*
X161984952Y-99987705D01*
X164258181Y-102260933D01*
X164291666Y-102322256D01*
X164294500Y-102348614D01*
X164294500Y-107148639D01*
X164296536Y-107186624D01*
X164296540Y-107186683D01*
X164299370Y-107212997D01*
X164302404Y-107234825D01*
X164302404Y-107234826D01*
X164340817Y-107345367D01*
X164374305Y-107406695D01*
X164434934Y-107487684D01*
X164434952Y-107487705D01*
X164462297Y-107515050D01*
X164462305Y-107515057D01*
X164490619Y-107540491D01*
X164511261Y-107557125D01*
X164528837Y-107570411D01*
X164634164Y-107621414D01*
X164701203Y-107641099D01*
X164701206Y-107641099D01*
X164701208Y-107641100D01*
X164712767Y-107642762D01*
X164776323Y-107671787D01*
X164814097Y-107730565D01*
X164814097Y-107800435D01*
X164776323Y-107859213D01*
X164712767Y-107888238D01*
X164695120Y-107889500D01*
X160004067Y-107889500D01*
X159995957Y-107889235D01*
X159748422Y-107873011D01*
X159732340Y-107870893D01*
X159493048Y-107823294D01*
X159477382Y-107819096D01*
X159422408Y-107800435D01*
X159352735Y-107776784D01*
X159246349Y-107740671D01*
X159231363Y-107734464D01*
X159012539Y-107626552D01*
X158998492Y-107618442D01*
X158795626Y-107482891D01*
X158782758Y-107473017D01*
X158767211Y-107459383D01*
X158626316Y-107335821D01*
X158599321Y-107312147D01*
X158587852Y-107300678D01*
X158482306Y-107180326D01*
X158426979Y-107117238D01*
X158417108Y-107104373D01*
X158360311Y-107019371D01*
X158281557Y-106901507D01*
X158273447Y-106887460D01*
X158271392Y-106883293D01*
X158165532Y-106668629D01*
X158159331Y-106653657D01*
X158080900Y-106422606D01*
X158076708Y-106406963D01*
X158029104Y-106167647D01*
X158026989Y-106151586D01*
X158010765Y-105904042D01*
X158010500Y-105895933D01*
X158010500Y-95798435D01*
X158709500Y-95798435D01*
X158709500Y-96001564D01*
X158741277Y-96202194D01*
X158741277Y-96202197D01*
X158804045Y-96395377D01*
X158844361Y-96474500D01*
X158887611Y-96559383D01*
X158896268Y-96576372D01*
X159015656Y-96740697D01*
X159015660Y-96740702D01*
X159159297Y-96884339D01*
X159159302Y-96884343D01*
X159280140Y-96972136D01*
X159323631Y-97003734D01*
X159504620Y-97095953D01*
X159504622Y-97095954D01*
X159697803Y-97158722D01*
X159697804Y-97158722D01*
X159697807Y-97158723D01*
X159898435Y-97190500D01*
X159898436Y-97190500D01*
X160101564Y-97190500D01*
X160101565Y-97190500D01*
X160302193Y-97158723D01*
X160302196Y-97158722D01*
X160302197Y-97158722D01*
X160495377Y-97095954D01*
X160495377Y-97095953D01*
X160495380Y-97095953D01*
X160676369Y-97003734D01*
X160840704Y-96884338D01*
X160984338Y-96740704D01*
X161103734Y-96576369D01*
X161195953Y-96395380D01*
X161243633Y-96248635D01*
X161258722Y-96202197D01*
X161258722Y-96202196D01*
X161258723Y-96202193D01*
X161290500Y-96001565D01*
X161290500Y-95798435D01*
X161258723Y-95597807D01*
X161258722Y-95597803D01*
X161258722Y-95597802D01*
X161195954Y-95404622D01*
X161187467Y-95387965D01*
X161103734Y-95223631D01*
X161020866Y-95109572D01*
X160984343Y-95059302D01*
X160984339Y-95059297D01*
X160840702Y-94915660D01*
X160840697Y-94915656D01*
X160676372Y-94796268D01*
X160676371Y-94796267D01*
X160676369Y-94796266D01*
X160582833Y-94748607D01*
X160495377Y-94704045D01*
X160302196Y-94641277D01*
X160151722Y-94617444D01*
X160101565Y-94609500D01*
X159898435Y-94609500D01*
X159831559Y-94620092D01*
X159697805Y-94641277D01*
X159697802Y-94641277D01*
X159504622Y-94704045D01*
X159323627Y-94796268D01*
X159159302Y-94915656D01*
X159159297Y-94915660D01*
X159015660Y-95059297D01*
X159015656Y-95059302D01*
X158896268Y-95223627D01*
X158804045Y-95404622D01*
X158741277Y-95597802D01*
X158741277Y-95597805D01*
X158709500Y-95798435D01*
X158010500Y-95798435D01*
X158010500Y-89640513D01*
X158899500Y-89640513D01*
X158899500Y-89829486D01*
X158929059Y-90016118D01*
X158987454Y-90195836D01*
X159053522Y-90325500D01*
X159073240Y-90364199D01*
X159184310Y-90517073D01*
X159317927Y-90650690D01*
X159470801Y-90761760D01*
X159567207Y-90810881D01*
X159624385Y-90840015D01*
X159675181Y-90887990D01*
X159691976Y-90955811D01*
X159669439Y-91021946D01*
X159614723Y-91065397D01*
X159568090Y-91074500D01*
X159216739Y-91074500D01*
X159148608Y-91084426D01*
X159043514Y-91135803D01*
X158960803Y-91218514D01*
X158909426Y-91323608D01*
X158899500Y-91391739D01*
X158899500Y-93158260D01*
X158909426Y-93226391D01*
X158960803Y-93331485D01*
X159043514Y-93414196D01*
X159043515Y-93414196D01*
X159043517Y-93414198D01*
X159148607Y-93465573D01*
X159182673Y-93470536D01*
X159216739Y-93475500D01*
X159216740Y-93475500D01*
X160983261Y-93475500D01*
X161005971Y-93472191D01*
X161051393Y-93465573D01*
X161156483Y-93414198D01*
X161239198Y-93331483D01*
X161290573Y-93226393D01*
X161300500Y-93158260D01*
X161300500Y-91391740D01*
X161290573Y-91323607D01*
X161239198Y-91218517D01*
X161239196Y-91218515D01*
X161239196Y-91218514D01*
X161156485Y-91135803D01*
X161051391Y-91084426D01*
X160983261Y-91074500D01*
X160983260Y-91074500D01*
X160631910Y-91074500D01*
X160564871Y-91054815D01*
X160519116Y-91002011D01*
X160509172Y-90932853D01*
X160538197Y-90869297D01*
X160575615Y-90840015D01*
X160610224Y-90822380D01*
X160729199Y-90761760D01*
X160882073Y-90650690D01*
X161015690Y-90517073D01*
X161126760Y-90364199D01*
X161212547Y-90195832D01*
X161270940Y-90016118D01*
X161277294Y-89975998D01*
X161300500Y-89829486D01*
X161300500Y-89640513D01*
X161270940Y-89453881D01*
X161231305Y-89331898D01*
X161212547Y-89274168D01*
X161212545Y-89274165D01*
X161212545Y-89274163D01*
X161133425Y-89118882D01*
X161126760Y-89105801D01*
X161015690Y-88952927D01*
X160882073Y-88819310D01*
X160729199Y-88708240D01*
X160690773Y-88688661D01*
X160560836Y-88622454D01*
X160381118Y-88564059D01*
X160194486Y-88534500D01*
X160194481Y-88534500D01*
X160005519Y-88534500D01*
X160005514Y-88534500D01*
X159818881Y-88564059D01*
X159639163Y-88622454D01*
X159470800Y-88708240D01*
X159405109Y-88755968D01*
X159317927Y-88819310D01*
X159317925Y-88819312D01*
X159317924Y-88819312D01*
X159184312Y-88952924D01*
X159184312Y-88952925D01*
X159184310Y-88952927D01*
X159163128Y-88982082D01*
X159073240Y-89105800D01*
X158987454Y-89274163D01*
X158929059Y-89453881D01*
X158899500Y-89640513D01*
X158010500Y-89640513D01*
X158010500Y-77449234D01*
X159074500Y-77449234D01*
X159074500Y-77600766D01*
X159085055Y-77640158D01*
X159113719Y-77747136D01*
X159133234Y-77780936D01*
X159189485Y-77878365D01*
X159296635Y-77985515D01*
X159427865Y-78061281D01*
X159574234Y-78100500D01*
X159574236Y-78100500D01*
X159725764Y-78100500D01*
X159725766Y-78100500D01*
X159872135Y-78061281D01*
X160003365Y-77985515D01*
X160110515Y-77878365D01*
X160186281Y-77747135D01*
X160225500Y-77600766D01*
X160225500Y-77449234D01*
X160186281Y-77302865D01*
X160184634Y-77300013D01*
X160161830Y-77260515D01*
X160110515Y-77171635D01*
X160003365Y-77064485D01*
X159912277Y-77011895D01*
X159872136Y-76988719D01*
X159786192Y-76965691D01*
X159725766Y-76949500D01*
X159574234Y-76949500D01*
X159427863Y-76988719D01*
X159296635Y-77064485D01*
X159296632Y-77064487D01*
X159189487Y-77171632D01*
X159189485Y-77171635D01*
X159113719Y-77302863D01*
X159080152Y-77428139D01*
X159074500Y-77449234D01*
X158010500Y-77449234D01*
X158010500Y-75949234D01*
X159024500Y-75949234D01*
X159024500Y-76100766D01*
X159036191Y-76144398D01*
X159063719Y-76247136D01*
X159091643Y-76295500D01*
X159139485Y-76378365D01*
X159246635Y-76485515D01*
X159377865Y-76561281D01*
X159524234Y-76600500D01*
X159524236Y-76600500D01*
X159675764Y-76600500D01*
X159675766Y-76600500D01*
X159822135Y-76561281D01*
X159953365Y-76485515D01*
X160060515Y-76378365D01*
X160136281Y-76247135D01*
X160175500Y-76100766D01*
X160175500Y-75949234D01*
X160136281Y-75802865D01*
X160131496Y-75794578D01*
X160101104Y-75741937D01*
X160060515Y-75671635D01*
X159953365Y-75564485D01*
X159887750Y-75526602D01*
X159822136Y-75488719D01*
X159748950Y-75469109D01*
X159675766Y-75449500D01*
X159524234Y-75449500D01*
X159377863Y-75488719D01*
X159246635Y-75564485D01*
X159246632Y-75564487D01*
X159139487Y-75671632D01*
X159139485Y-75671635D01*
X159063719Y-75802863D01*
X159026402Y-75942135D01*
X159024500Y-75949234D01*
X158010500Y-75949234D01*
X158010500Y-74462808D01*
X158774500Y-74462808D01*
X158774500Y-74614339D01*
X158813719Y-74760710D01*
X158831438Y-74791399D01*
X158889485Y-74891939D01*
X158996635Y-74999089D01*
X159127865Y-75074855D01*
X159274234Y-75114074D01*
X159274236Y-75114074D01*
X159425764Y-75114074D01*
X159425766Y-75114074D01*
X159572135Y-75074855D01*
X159703365Y-74999089D01*
X159810515Y-74891939D01*
X159886281Y-74760709D01*
X159925500Y-74614340D01*
X159925500Y-74462808D01*
X159886281Y-74316439D01*
X159882537Y-74309955D01*
X159843487Y-74242318D01*
X159810515Y-74185209D01*
X159703365Y-74078059D01*
X159628603Y-74034895D01*
X159572136Y-74002293D01*
X159498950Y-73982683D01*
X159425766Y-73963074D01*
X159274234Y-73963074D01*
X159215271Y-73978872D01*
X159127863Y-74002293D01*
X158996635Y-74078059D01*
X158996632Y-74078061D01*
X158889487Y-74185206D01*
X158889485Y-74185209D01*
X158813719Y-74316437D01*
X158774500Y-74462808D01*
X158010500Y-74462808D01*
X158010500Y-73074234D01*
X158699500Y-73074234D01*
X158699500Y-73225765D01*
X158738719Y-73372136D01*
X158748249Y-73388642D01*
X158814485Y-73503365D01*
X158921635Y-73610515D01*
X159052865Y-73686281D01*
X159199234Y-73725500D01*
X159199236Y-73725500D01*
X159215541Y-73725500D01*
X159350766Y-73725500D01*
X159497135Y-73686281D01*
X159628365Y-73610515D01*
X159735515Y-73503365D01*
X159811281Y-73372135D01*
X159850500Y-73225766D01*
X159850500Y-73074234D01*
X159811281Y-72927865D01*
X159735515Y-72796635D01*
X159628365Y-72689485D01*
X159559109Y-72649500D01*
X159497136Y-72613719D01*
X159423950Y-72594109D01*
X159350766Y-72574500D01*
X159199234Y-72574500D01*
X159052863Y-72613719D01*
X158921635Y-72689485D01*
X158921632Y-72689487D01*
X158814487Y-72796632D01*
X158814485Y-72796635D01*
X158738719Y-72927863D01*
X158699500Y-73074234D01*
X158010500Y-73074234D01*
X158010500Y-71624234D01*
X158699500Y-71624234D01*
X158699500Y-71775765D01*
X158738719Y-71922136D01*
X158740815Y-71925766D01*
X158814485Y-72053365D01*
X158921635Y-72160515D01*
X159052865Y-72236281D01*
X159199234Y-72275500D01*
X159199236Y-72275500D01*
X159350764Y-72275500D01*
X159350766Y-72275500D01*
X159497135Y-72236281D01*
X159628365Y-72160515D01*
X159735515Y-72053365D01*
X159811281Y-71922135D01*
X159850500Y-71775766D01*
X159850500Y-71624234D01*
X159811281Y-71477865D01*
X159735515Y-71346635D01*
X159628365Y-71239485D01*
X159562750Y-71201602D01*
X159497136Y-71163719D01*
X159419604Y-71142945D01*
X159350766Y-71124500D01*
X159199234Y-71124500D01*
X159052863Y-71163719D01*
X158921635Y-71239485D01*
X158921632Y-71239487D01*
X158814487Y-71346632D01*
X158814485Y-71346635D01*
X158738719Y-71477863D01*
X158699500Y-71624234D01*
X158010500Y-71624234D01*
X158010500Y-70149234D01*
X158724500Y-70149234D01*
X158724500Y-70300766D01*
X158733160Y-70333086D01*
X158763719Y-70447136D01*
X158801602Y-70512750D01*
X158839485Y-70578365D01*
X158946635Y-70685515D01*
X159077865Y-70761281D01*
X159224234Y-70800500D01*
X159224236Y-70800500D01*
X159375764Y-70800500D01*
X159375766Y-70800500D01*
X159522135Y-70761281D01*
X159653365Y-70685515D01*
X159760515Y-70578365D01*
X159836281Y-70447135D01*
X159875500Y-70300766D01*
X159875500Y-70149234D01*
X159836281Y-70002865D01*
X159760515Y-69871635D01*
X159653365Y-69764485D01*
X159587750Y-69726602D01*
X159522136Y-69688719D01*
X159446437Y-69668436D01*
X159375766Y-69649500D01*
X159224234Y-69649500D01*
X159077863Y-69688719D01*
X158946635Y-69764485D01*
X158946632Y-69764487D01*
X158839487Y-69871632D01*
X158839485Y-69871635D01*
X158763719Y-70002863D01*
X158761508Y-70011115D01*
X158724500Y-70149234D01*
X158010500Y-70149234D01*
X158010500Y-63278711D01*
X160562000Y-63278711D01*
X160562000Y-63521288D01*
X160593661Y-63761785D01*
X160656447Y-63996104D01*
X160749273Y-64220205D01*
X160749276Y-64220212D01*
X160870564Y-64430289D01*
X160870566Y-64430292D01*
X160870567Y-64430293D01*
X161018233Y-64622736D01*
X161018239Y-64622743D01*
X161189756Y-64794260D01*
X161189762Y-64794265D01*
X161382211Y-64941936D01*
X161592288Y-65063224D01*
X161816400Y-65156054D01*
X162050711Y-65218838D01*
X162231086Y-65242584D01*
X162291211Y-65250500D01*
X162291212Y-65250500D01*
X162533789Y-65250500D01*
X162581888Y-65244167D01*
X162774289Y-65218838D01*
X163008600Y-65156054D01*
X163232712Y-65063224D01*
X163442789Y-64941936D01*
X163635238Y-64794265D01*
X163806765Y-64622738D01*
X163954436Y-64430289D01*
X164075724Y-64220212D01*
X164168554Y-63996100D01*
X164231338Y-63761789D01*
X164263000Y-63521288D01*
X164263000Y-63278712D01*
X164231338Y-63038211D01*
X164168554Y-62803900D01*
X164075724Y-62579788D01*
X163954436Y-62369711D01*
X163856553Y-62242147D01*
X163806766Y-62177263D01*
X163806760Y-62177256D01*
X163635243Y-62005739D01*
X163635236Y-62005733D01*
X163442793Y-61858067D01*
X163442792Y-61858066D01*
X163442789Y-61858064D01*
X163232712Y-61736776D01*
X163232705Y-61736773D01*
X163008604Y-61643947D01*
X162774285Y-61581161D01*
X162533789Y-61549500D01*
X162533788Y-61549500D01*
X162291212Y-61549500D01*
X162291211Y-61549500D01*
X162050714Y-61581161D01*
X161816395Y-61643947D01*
X161592294Y-61736773D01*
X161592285Y-61736777D01*
X161382206Y-61858067D01*
X161189763Y-62005733D01*
X161189756Y-62005739D01*
X161018239Y-62177256D01*
X161018233Y-62177263D01*
X160870567Y-62369706D01*
X160749277Y-62579785D01*
X160749273Y-62579794D01*
X160656447Y-62803895D01*
X160593661Y-63038214D01*
X160562000Y-63278711D01*
X158010500Y-63278711D01*
X158010500Y-53998435D01*
X158709500Y-53998435D01*
X158709500Y-54201564D01*
X158741277Y-54402194D01*
X158741277Y-54402197D01*
X158804045Y-54595377D01*
X158836647Y-54659361D01*
X158888351Y-54760836D01*
X158896268Y-54776372D01*
X159015656Y-54940697D01*
X159015660Y-54940702D01*
X159159297Y-55084339D01*
X159159302Y-55084343D01*
X159302635Y-55188480D01*
X159323631Y-55203734D01*
X159499680Y-55293436D01*
X159504622Y-55295954D01*
X159697803Y-55358722D01*
X159697804Y-55358722D01*
X159697807Y-55358723D01*
X159898435Y-55390500D01*
X159898436Y-55390500D01*
X160101564Y-55390500D01*
X160101565Y-55390500D01*
X160302193Y-55358723D01*
X160302196Y-55358722D01*
X160302197Y-55358722D01*
X160495377Y-55295954D01*
X160495377Y-55295953D01*
X160495380Y-55295953D01*
X160676369Y-55203734D01*
X160840704Y-55084338D01*
X160984338Y-54940704D01*
X161103734Y-54776369D01*
X161195953Y-54595380D01*
X161217034Y-54530500D01*
X161258722Y-54402197D01*
X161258722Y-54402196D01*
X161258723Y-54402193D01*
X161290500Y-54201565D01*
X161290500Y-53998435D01*
X161258723Y-53797807D01*
X161258722Y-53797803D01*
X161258722Y-53797802D01*
X161195954Y-53604622D01*
X161195953Y-53604620D01*
X161103734Y-53423631D01*
X160994469Y-53273240D01*
X160984343Y-53259302D01*
X160984339Y-53259297D01*
X160840702Y-53115660D01*
X160840697Y-53115656D01*
X160676372Y-52996268D01*
X160676371Y-52996267D01*
X160676369Y-52996266D01*
X160536053Y-52924771D01*
X160495377Y-52904045D01*
X160302196Y-52841277D01*
X160151722Y-52817444D01*
X160101565Y-52809500D01*
X159898435Y-52809500D01*
X159831559Y-52820092D01*
X159697805Y-52841277D01*
X159697802Y-52841277D01*
X159504622Y-52904045D01*
X159323627Y-52996268D01*
X159159302Y-53115656D01*
X159159297Y-53115660D01*
X159015660Y-53259297D01*
X159015656Y-53259302D01*
X158896268Y-53423627D01*
X158804045Y-53604622D01*
X158741277Y-53797802D01*
X158741277Y-53797805D01*
X158709500Y-53998435D01*
X158010500Y-53998435D01*
X158010500Y-53904066D01*
X158010765Y-53895957D01*
X158011067Y-53891342D01*
X158026989Y-53648411D01*
X158029104Y-53632354D01*
X158076709Y-53393033D01*
X158080898Y-53377397D01*
X158159332Y-53146337D01*
X158165529Y-53131375D01*
X158273450Y-52912533D01*
X158281553Y-52898498D01*
X158417116Y-52695614D01*
X158426973Y-52682768D01*
X158587857Y-52499315D01*
X158599315Y-52487857D01*
X158782768Y-52326973D01*
X158795614Y-52317116D01*
X158998498Y-52181553D01*
X159012533Y-52173450D01*
X159231375Y-52065529D01*
X159246337Y-52059332D01*
X159477397Y-51980898D01*
X159493033Y-51976709D01*
X159732354Y-51929104D01*
X159748411Y-51926989D01*
X159972936Y-51912273D01*
X159995958Y-51910765D01*
X160004067Y-51910500D01*
X195995933Y-51910500D01*
X196004042Y-51910765D01*
G37*
%TD.AperFunction*%
%TA.AperFunction,Conductor*%
G36*
X187861443Y-104221008D02*
G01*
X187909920Y-104271325D01*
X187915350Y-104283214D01*
X187919889Y-104294724D01*
X187940639Y-104347343D01*
X188032077Y-104467922D01*
X188152656Y-104559360D01*
X188152657Y-104559360D01*
X188152658Y-104559361D01*
X188293436Y-104614877D01*
X188381898Y-104625500D01*
X188381903Y-104625500D01*
X189018096Y-104625500D01*
X189018102Y-104625500D01*
X189074550Y-104618721D01*
X189143457Y-104630273D01*
X189195181Y-104677245D01*
X189213299Y-104744725D01*
X189203894Y-104789289D01*
X189174500Y-104860251D01*
X189174497Y-104860261D01*
X189149500Y-104985928D01*
X189149500Y-106079192D01*
X189140855Y-106108632D01*
X189134332Y-106138619D01*
X189130577Y-106143634D01*
X189129815Y-106146231D01*
X189113181Y-106166873D01*
X188966873Y-106313181D01*
X188905550Y-106346666D01*
X188879192Y-106349500D01*
X186820808Y-106349500D01*
X186753769Y-106329815D01*
X186733127Y-106313181D01*
X186261819Y-105841873D01*
X186228334Y-105780550D01*
X186225500Y-105754192D01*
X186225500Y-104691409D01*
X186245185Y-104624370D01*
X186297989Y-104578615D01*
X186367147Y-104568671D01*
X186394990Y-104576055D01*
X186401482Y-104578615D01*
X186493436Y-104614877D01*
X186581898Y-104625500D01*
X186581903Y-104625500D01*
X187218097Y-104625500D01*
X187218102Y-104625500D01*
X187306564Y-104614877D01*
X187447342Y-104559361D01*
X187567922Y-104467922D01*
X187659361Y-104347342D01*
X187684646Y-104283223D01*
X187727551Y-104228081D01*
X187793459Y-104204888D01*
X187861443Y-104221008D01*
G37*
%TD.AperFunction*%
%TA.AperFunction,Conductor*%
G36*
X189033856Y-100670185D02*
G01*
X189079611Y-100722989D01*
X189089555Y-100792147D01*
X189083355Y-100810060D01*
X189084426Y-100810347D01*
X189080200Y-100826117D01*
X189049500Y-100940691D01*
X189049500Y-101625500D01*
X189029815Y-101692539D01*
X188977011Y-101738294D01*
X188925500Y-101749500D01*
X187540691Y-101749500D01*
X187452858Y-101773035D01*
X187426114Y-101780201D01*
X187394941Y-101798199D01*
X187394940Y-101798198D01*
X187323389Y-101839508D01*
X187323384Y-101839512D01*
X186539513Y-102623383D01*
X186539509Y-102623389D01*
X186480201Y-102726112D01*
X186480200Y-102726113D01*
X186480201Y-102726114D01*
X186469275Y-102766890D01*
X186432910Y-102826550D01*
X186370063Y-102857079D01*
X186300687Y-102848784D01*
X186246809Y-102804299D01*
X186225535Y-102737747D01*
X186225500Y-102734796D01*
X186225500Y-101382930D01*
X186245185Y-101315891D01*
X186251125Y-101307443D01*
X186255583Y-101301633D01*
X186302698Y-101240233D01*
X186360687Y-101100236D01*
X186372953Y-101007057D01*
X186375359Y-100994135D01*
X186377628Y-100984744D01*
X186392816Y-100948082D01*
X186422212Y-100800293D01*
X186422806Y-100797839D01*
X186439028Y-100769686D01*
X186454102Y-100740870D01*
X186455597Y-100739348D01*
X186508128Y-100686818D01*
X186569451Y-100653334D01*
X186595808Y-100650500D01*
X188966817Y-100650500D01*
X189033856Y-100670185D01*
G37*
%TD.AperFunction*%
%TA.AperFunction,Conductor*%
G36*
X175877245Y-75570185D02*
G01*
X175923000Y-75622989D01*
X175932944Y-75692147D01*
X175903919Y-75755703D01*
X175885132Y-75773304D01*
X175857076Y-75794579D01*
X175765639Y-75915156D01*
X175710122Y-76055938D01*
X175704253Y-76104815D01*
X175699500Y-76144398D01*
X175699500Y-76780602D01*
X175705126Y-76827454D01*
X175710122Y-76869061D01*
X175765639Y-77009843D01*
X175857077Y-77130422D01*
X175943000Y-77195579D01*
X175984524Y-77251771D01*
X175989075Y-77321493D01*
X175955210Y-77382607D01*
X175928853Y-77402466D01*
X175927661Y-77403135D01*
X175807077Y-77494577D01*
X175715639Y-77615156D01*
X175660122Y-77755938D01*
X175654188Y-77805353D01*
X175649500Y-77844398D01*
X175649500Y-78480602D01*
X175651124Y-78494122D01*
X175660122Y-78569061D01*
X175660122Y-78569063D01*
X175660123Y-78569064D01*
X175672494Y-78600435D01*
X175715639Y-78709843D01*
X175807077Y-78830422D01*
X175912675Y-78910499D01*
X175927658Y-78921861D01*
X175927659Y-78921861D01*
X175935050Y-78926017D01*
X175933419Y-78928917D01*
X175937544Y-78932122D01*
X175956703Y-78940872D01*
X175964582Y-78953132D01*
X175976088Y-78962073D01*
X175983090Y-78981932D01*
X175994477Y-78999650D01*
X175998014Y-79024256D01*
X175999323Y-79027966D01*
X175999500Y-79034585D01*
X175999500Y-79037347D01*
X175979815Y-79104386D01*
X175950987Y-79135722D01*
X175864551Y-79202047D01*
X175864550Y-79202048D01*
X175864549Y-79202049D01*
X175772302Y-79322267D01*
X175772300Y-79322270D01*
X175714313Y-79462263D01*
X175714313Y-79462264D01*
X175699500Y-79574772D01*
X175699500Y-80070500D01*
X175679815Y-80137539D01*
X175627011Y-80183294D01*
X175575500Y-80194500D01*
X173973991Y-80194500D01*
X173898429Y-80202625D01*
X173846917Y-80213831D01*
X173789536Y-80231502D01*
X173789534Y-80231503D01*
X173719194Y-80274500D01*
X173689686Y-80292537D01*
X173689683Y-80292539D01*
X173689678Y-80292543D01*
X173636895Y-80338279D01*
X173636879Y-80338295D01*
X173579591Y-80401472D01*
X173579585Y-80401481D01*
X173569374Y-80422570D01*
X173522440Y-80474329D01*
X173454973Y-80492496D01*
X173388395Y-80471305D01*
X173370089Y-80456209D01*
X173303367Y-80389487D01*
X173303365Y-80389485D01*
X173230373Y-80347343D01*
X173172136Y-80313719D01*
X173088428Y-80291290D01*
X173025766Y-80274500D01*
X172874234Y-80274500D01*
X172727864Y-80313719D01*
X172724534Y-80315099D01*
X172721498Y-80315425D01*
X172720014Y-80315823D01*
X172719951Y-80315591D01*
X172655064Y-80322566D01*
X172592585Y-80291290D01*
X172569696Y-80262537D01*
X172560515Y-80246635D01*
X172453365Y-80139485D01*
X172385467Y-80100284D01*
X172322136Y-80063719D01*
X172248950Y-80044109D01*
X172175766Y-80024500D01*
X172024234Y-80024500D01*
X171877863Y-80063719D01*
X171746635Y-80139485D01*
X171746632Y-80139487D01*
X171639487Y-80246632D01*
X171639485Y-80246635D01*
X171563719Y-80377863D01*
X171538682Y-80471305D01*
X171524500Y-80524234D01*
X171524500Y-80675766D01*
X171532746Y-80706541D01*
X171563719Y-80822136D01*
X171574402Y-80840639D01*
X171639485Y-80953365D01*
X171746635Y-81060515D01*
X171877865Y-81136281D01*
X172024234Y-81175500D01*
X172024236Y-81175500D01*
X172175763Y-81175500D01*
X172175766Y-81175500D01*
X172239789Y-81158345D01*
X172309635Y-81160008D01*
X172367497Y-81199170D01*
X172395002Y-81263398D01*
X172391654Y-81310212D01*
X172374500Y-81374232D01*
X172374500Y-81374234D01*
X172374500Y-81525766D01*
X172390715Y-81586281D01*
X172413719Y-81672136D01*
X172451602Y-81737750D01*
X172489485Y-81803365D01*
X172596635Y-81910515D01*
X172727865Y-81986281D01*
X172874234Y-82025500D01*
X172874236Y-82025500D01*
X172929548Y-82025500D01*
X172996587Y-82045185D01*
X173042342Y-82097989D01*
X173052286Y-82167147D01*
X173049323Y-82181589D01*
X173024500Y-82274234D01*
X173024500Y-82425766D01*
X173043463Y-82496536D01*
X173063719Y-82572136D01*
X173092782Y-82622474D01*
X173132888Y-82691938D01*
X173146641Y-82727462D01*
X173149500Y-82740543D01*
X173149500Y-82759309D01*
X173170997Y-82839536D01*
X173171741Y-82842313D01*
X173171747Y-82842340D01*
X173180199Y-82873884D01*
X173180201Y-82873887D01*
X173239511Y-82976614D01*
X173498386Y-83235489D01*
X173498387Y-83235490D01*
X173498389Y-83235491D01*
X173557693Y-83269729D01*
X173557696Y-83269732D01*
X173591937Y-83289500D01*
X173601114Y-83294799D01*
X173715691Y-83325500D01*
X173738337Y-83325500D01*
X173805376Y-83345185D01*
X173842255Y-83383861D01*
X173842355Y-83383785D01*
X173843065Y-83384711D01*
X173845724Y-83387499D01*
X173847300Y-83390229D01*
X173847302Y-83390233D01*
X173939549Y-83510451D01*
X174059767Y-83602698D01*
X174199764Y-83660687D01*
X174312280Y-83675500D01*
X174312287Y-83675500D01*
X174887713Y-83675500D01*
X174887720Y-83675500D01*
X175000236Y-83660687D01*
X175140233Y-83602698D01*
X175260451Y-83510451D01*
X175352698Y-83390233D01*
X175400000Y-83276036D01*
X175400000Y-83700000D01*
X174600000Y-83700000D01*
X174500000Y-83800000D01*
X174500000Y-88836038D01*
X174497659Y-88831444D01*
X174466760Y-88770801D01*
X174355690Y-88617927D01*
X174222073Y-88484310D01*
X174069199Y-88373240D01*
X173900836Y-88287454D01*
X173721118Y-88229059D01*
X173534486Y-88199500D01*
X173534481Y-88199500D01*
X173345519Y-88199500D01*
X173345514Y-88199500D01*
X173158881Y-88229059D01*
X172979163Y-88287454D01*
X172810800Y-88373240D01*
X172723579Y-88436610D01*
X172657927Y-88484310D01*
X172657925Y-88484312D01*
X172657924Y-88484312D01*
X172524312Y-88617924D01*
X172524312Y-88617925D01*
X172524310Y-88617927D01*
X172521022Y-88622453D01*
X172413240Y-88770800D01*
X172327454Y-88939163D01*
X172287931Y-89060803D01*
X172248493Y-89118478D01*
X172184134Y-89145676D01*
X172115288Y-89133761D01*
X172063812Y-89086516D01*
X172052069Y-89060803D01*
X172029705Y-88991976D01*
X172012547Y-88939168D01*
X172012545Y-88939165D01*
X172012545Y-88939163D01*
X171957659Y-88831444D01*
X171926760Y-88770801D01*
X171815690Y-88617927D01*
X171682073Y-88484310D01*
X171529199Y-88373240D01*
X171360836Y-88287454D01*
X171181118Y-88229059D01*
X170994486Y-88199500D01*
X170994481Y-88199500D01*
X170805519Y-88199500D01*
X170805514Y-88199500D01*
X170618881Y-88229059D01*
X170439163Y-88287454D01*
X170270800Y-88373240D01*
X170183579Y-88436610D01*
X170117927Y-88484310D01*
X170117925Y-88484312D01*
X170117924Y-88484312D01*
X169984312Y-88617924D01*
X169984312Y-88617925D01*
X169984310Y-88617927D01*
X169981022Y-88622453D01*
X169873240Y-88770800D01*
X169794985Y-88924385D01*
X169747010Y-88975181D01*
X169679189Y-88991976D01*
X169613054Y-88969439D01*
X169569603Y-88914723D01*
X169560500Y-88868090D01*
X169560500Y-88516739D01*
X169550573Y-88448608D01*
X169550573Y-88448607D01*
X169499198Y-88343517D01*
X169499196Y-88343515D01*
X169499196Y-88343514D01*
X169416485Y-88260803D01*
X169311391Y-88209426D01*
X169243261Y-88199500D01*
X169243260Y-88199500D01*
X167476740Y-88199500D01*
X167476739Y-88199500D01*
X167408608Y-88209426D01*
X167303513Y-88260803D01*
X167299598Y-88264718D01*
X167299582Y-88264736D01*
X167220802Y-88343517D01*
X167203518Y-88378870D01*
X167203516Y-88378874D01*
X167169426Y-88448606D01*
X167169426Y-88448607D01*
X167159500Y-88516739D01*
X167159500Y-90283260D01*
X167169426Y-90351391D01*
X167220803Y-90456485D01*
X167303514Y-90539196D01*
X167303515Y-90539196D01*
X167303517Y-90539198D01*
X167408607Y-90590573D01*
X167442673Y-90595536D01*
X167476739Y-90600500D01*
X167476740Y-90600500D01*
X169243261Y-90600500D01*
X169271750Y-90596349D01*
X169311393Y-90590573D01*
X169416483Y-90539198D01*
X169499198Y-90456483D01*
X169550573Y-90351393D01*
X169560500Y-90283260D01*
X169560500Y-89931909D01*
X169580185Y-89864870D01*
X169632989Y-89819115D01*
X169702147Y-89809171D01*
X169765703Y-89838196D01*
X169794984Y-89875613D01*
X169873240Y-90029199D01*
X169984310Y-90182073D01*
X169984312Y-90182075D01*
X170013181Y-90210944D01*
X170046666Y-90272267D01*
X170049500Y-90298625D01*
X170049500Y-91083771D01*
X170082182Y-91248075D01*
X170082185Y-91248085D01*
X170093127Y-91274501D01*
X170146296Y-91402863D01*
X170146297Y-91402866D01*
X170239372Y-91542161D01*
X170239375Y-91542165D01*
X171157834Y-92460624D01*
X171157838Y-92460627D01*
X171297137Y-92553704D01*
X171297139Y-92553705D01*
X171297143Y-92553707D01*
X171379222Y-92587703D01*
X171406584Y-92599037D01*
X171451918Y-92617816D01*
X171616228Y-92650499D01*
X171616232Y-92650500D01*
X171616233Y-92650500D01*
X171783767Y-92650500D01*
X173371349Y-92650500D01*
X173438388Y-92670185D01*
X173459030Y-92686819D01*
X173763181Y-92990970D01*
X173796666Y-93052293D01*
X173799500Y-93078650D01*
X173799500Y-93239363D01*
X173814953Y-93356753D01*
X173814956Y-93356762D01*
X173875464Y-93502842D01*
X173950027Y-93600014D01*
X173975221Y-93665183D01*
X173961183Y-93733628D01*
X173912369Y-93783617D01*
X173851651Y-93799500D01*
X173449500Y-93799500D01*
X173382461Y-93779815D01*
X173336706Y-93727011D01*
X173325500Y-93675500D01*
X173325500Y-93641506D01*
X173309720Y-93541878D01*
X173309719Y-93541876D01*
X173309719Y-93541874D01*
X173248528Y-93421780D01*
X173248526Y-93421778D01*
X173248523Y-93421774D01*
X173153225Y-93326476D01*
X173153221Y-93326473D01*
X173153220Y-93326472D01*
X173033126Y-93265281D01*
X173033124Y-93265280D01*
X173033121Y-93265279D01*
X172933493Y-93249500D01*
X172933488Y-93249500D01*
X171566512Y-93249500D01*
X171566507Y-93249500D01*
X171466877Y-93265279D01*
X171426238Y-93285986D01*
X171369945Y-93299500D01*
X170840691Y-93299500D01*
X170750325Y-93323713D01*
X170750324Y-93323712D01*
X170726116Y-93330199D01*
X170726113Y-93330200D01*
X170623386Y-93389511D01*
X170623383Y-93389513D01*
X170239513Y-93773383D01*
X170239509Y-93773389D01*
X170180201Y-93876112D01*
X170180200Y-93876117D01*
X170149500Y-93990691D01*
X170149500Y-95812035D01*
X170129815Y-95879074D01*
X170113181Y-95899716D01*
X169749716Y-96263181D01*
X169722788Y-96277884D01*
X169696970Y-96294477D01*
X169690769Y-96295368D01*
X169688393Y-96296666D01*
X169662035Y-96299500D01*
X169436965Y-96299500D01*
X169369926Y-96279815D01*
X169324171Y-96227011D01*
X169314227Y-96157853D01*
X169343252Y-96094297D01*
X169349284Y-96087819D01*
X169435539Y-96001564D01*
X169560489Y-95876614D01*
X169619799Y-95773887D01*
X169633412Y-95723082D01*
X169650500Y-95659309D01*
X169650500Y-94940691D01*
X169619799Y-94826114D01*
X169576143Y-94750500D01*
X169560489Y-94723386D01*
X169226614Y-94389511D01*
X169136843Y-94337681D01*
X169123888Y-94330201D01*
X169107112Y-94325706D01*
X169107110Y-94325705D01*
X169099673Y-94323713D01*
X169009309Y-94299500D01*
X168918055Y-94299500D01*
X168909585Y-94298326D01*
X168885212Y-94287343D01*
X168859572Y-94279815D01*
X168853851Y-94273212D01*
X168845884Y-94269623D01*
X168831318Y-94247208D01*
X168813817Y-94227011D01*
X168812573Y-94218363D01*
X168807812Y-94211036D01*
X168807676Y-94184308D01*
X168803873Y-94157853D01*
X168807503Y-94149904D01*
X168807459Y-94141168D01*
X168821793Y-94118612D01*
X168832898Y-94094297D01*
X168838930Y-94087819D01*
X168848523Y-94078225D01*
X168848528Y-94078220D01*
X168909719Y-93958126D01*
X168910458Y-93953459D01*
X168925500Y-93858493D01*
X168925500Y-93641506D01*
X168909720Y-93541878D01*
X168909719Y-93541876D01*
X168909719Y-93541874D01*
X168848528Y-93421780D01*
X168848526Y-93421778D01*
X168848523Y-93421774D01*
X168753225Y-93326476D01*
X168753221Y-93326473D01*
X168753220Y-93326472D01*
X168633126Y-93265281D01*
X168633124Y-93265280D01*
X168633121Y-93265279D01*
X168533493Y-93249500D01*
X168533488Y-93249500D01*
X168424500Y-93249500D01*
X168415814Y-93246949D01*
X168406853Y-93248238D01*
X168382812Y-93237259D01*
X168357461Y-93229815D01*
X168351533Y-93222974D01*
X168343297Y-93219213D01*
X168329007Y-93196978D01*
X168311706Y-93177011D01*
X168309418Y-93166496D01*
X168305523Y-93160435D01*
X168300500Y-93125500D01*
X168300500Y-92993431D01*
X168320185Y-92926392D01*
X168372989Y-92880637D01*
X168377048Y-92878870D01*
X168401463Y-92868757D01*
X168440233Y-92852698D01*
X168560451Y-92760451D01*
X168652698Y-92640233D01*
X168710687Y-92500236D01*
X168725500Y-92387720D01*
X168725500Y-91812280D01*
X168710687Y-91699764D01*
X168652698Y-91559767D01*
X168560451Y-91439549D01*
X168440233Y-91347302D01*
X168440229Y-91347300D01*
X168348918Y-91309478D01*
X168300236Y-91289313D01*
X168286171Y-91287461D01*
X168187727Y-91274500D01*
X168187720Y-91274500D01*
X167662280Y-91274500D01*
X167662272Y-91274500D01*
X167549764Y-91289313D01*
X167549763Y-91289313D01*
X167409769Y-91347300D01*
X167409766Y-91347302D01*
X167327092Y-91410740D01*
X167261923Y-91435934D01*
X167193478Y-91421895D01*
X167163925Y-91400045D01*
X167053367Y-91289487D01*
X167053365Y-91289485D01*
X166981641Y-91248075D01*
X166922136Y-91213719D01*
X166848950Y-91194109D01*
X166775766Y-91174500D01*
X166624234Y-91174500D01*
X166477863Y-91213719D01*
X166346635Y-91289485D01*
X166346632Y-91289487D01*
X166239487Y-91396632D01*
X166239485Y-91396635D01*
X166179619Y-91500325D01*
X166129051Y-91548540D01*
X166060444Y-91561762D01*
X165995580Y-91535794D01*
X165984551Y-91526005D01*
X165910743Y-91452197D01*
X165910740Y-91452195D01*
X165910738Y-91452193D01*
X165816790Y-91396632D01*
X165798507Y-91385819D01*
X165750824Y-91334749D01*
X165739156Y-91298484D01*
X165737703Y-91289313D01*
X165709859Y-91113507D01*
X165700410Y-91084427D01*
X165656569Y-90949496D01*
X165650500Y-90911178D01*
X165650500Y-89635020D01*
X165670185Y-89567981D01*
X165686815Y-89547343D01*
X166068160Y-89165997D01*
X166068167Y-89165992D01*
X166075226Y-89158932D01*
X166075229Y-89158931D01*
X167058931Y-88175229D01*
X167211635Y-87965051D01*
X167329579Y-87733573D01*
X167397511Y-87524500D01*
X167409860Y-87486493D01*
X167426357Y-87382332D01*
X167426963Y-87379422D01*
X167442073Y-87351149D01*
X167455815Y-87322162D01*
X167458439Y-87320527D01*
X167459897Y-87317801D01*
X167487901Y-87302182D01*
X167515127Y-87285230D01*
X167518219Y-87285274D01*
X167520918Y-87283769D01*
X167552920Y-87285769D01*
X167584989Y-87286228D01*
X167589123Y-87288033D01*
X167590652Y-87288129D01*
X167592570Y-87289538D01*
X167610358Y-87297305D01*
X167677865Y-87336281D01*
X167824234Y-87375500D01*
X167824236Y-87375500D01*
X167975764Y-87375500D01*
X167975766Y-87375500D01*
X168122135Y-87336281D01*
X168253365Y-87260515D01*
X168360515Y-87153365D01*
X168436281Y-87022135D01*
X168475500Y-86875766D01*
X168475500Y-86724234D01*
X168436281Y-86577865D01*
X168360515Y-86446635D01*
X168253365Y-86339485D01*
X168172863Y-86293007D01*
X168122136Y-86263719D01*
X168048950Y-86244109D01*
X167975766Y-86224500D01*
X167824234Y-86224500D01*
X167677863Y-86263719D01*
X167636499Y-86287601D01*
X167630597Y-86289032D01*
X167626011Y-86293007D01*
X167597048Y-86297171D01*
X167568599Y-86304073D01*
X167562861Y-86302087D01*
X167556853Y-86302951D01*
X167530231Y-86290793D01*
X167502572Y-86281220D01*
X167498819Y-86276447D01*
X167493297Y-86273926D01*
X167477473Y-86249303D01*
X167459382Y-86226298D01*
X167457965Y-86218948D01*
X167455523Y-86215148D01*
X167450500Y-86180213D01*
X167450500Y-86024234D01*
X170774500Y-86024234D01*
X170774500Y-86175766D01*
X170788040Y-86226298D01*
X170813719Y-86322136D01*
X170835758Y-86360308D01*
X170889485Y-86453365D01*
X170996635Y-86560515D01*
X171127865Y-86636281D01*
X171274234Y-86675500D01*
X171274236Y-86675500D01*
X171425764Y-86675500D01*
X171425766Y-86675500D01*
X171572135Y-86636281D01*
X171703365Y-86560515D01*
X171810515Y-86453365D01*
X171886281Y-86322135D01*
X171925500Y-86175766D01*
X171925500Y-86024234D01*
X171886281Y-85877865D01*
X171810515Y-85746635D01*
X171810512Y-85746632D01*
X171810511Y-85746630D01*
X171809784Y-85745682D01*
X171809418Y-85744737D01*
X171806451Y-85739597D01*
X171807252Y-85739134D01*
X171784588Y-85680514D01*
X171798625Y-85612069D01*
X171847438Y-85562078D01*
X171876058Y-85550421D01*
X172022135Y-85511281D01*
X172112885Y-85458885D01*
X172180785Y-85442412D01*
X172246812Y-85465264D01*
X172282272Y-85504270D01*
X172339485Y-85603365D01*
X172446635Y-85710515D01*
X172577865Y-85786281D01*
X172724234Y-85825500D01*
X172724236Y-85825500D01*
X172875764Y-85825500D01*
X172875766Y-85825500D01*
X173022135Y-85786281D01*
X173153365Y-85710515D01*
X173260515Y-85603365D01*
X173336281Y-85472135D01*
X173375500Y-85325766D01*
X173375500Y-85174234D01*
X173336281Y-85027865D01*
X173260515Y-84896635D01*
X173153365Y-84789485D01*
X173057424Y-84734093D01*
X173022136Y-84713719D01*
X172941537Y-84692123D01*
X172875766Y-84674500D01*
X172724234Y-84674500D01*
X172577865Y-84713719D01*
X172577864Y-84713719D01*
X172577862Y-84713720D01*
X172577861Y-84713720D01*
X172487113Y-84766114D01*
X172419213Y-84782587D01*
X172353186Y-84759734D01*
X172317726Y-84720727D01*
X172260515Y-84621635D01*
X172153365Y-84514485D01*
X172087750Y-84476602D01*
X172022136Y-84438719D01*
X171948950Y-84419109D01*
X171875766Y-84399500D01*
X171724234Y-84399500D01*
X171577863Y-84438719D01*
X171446635Y-84514485D01*
X171446632Y-84514487D01*
X171339487Y-84621632D01*
X171339485Y-84621635D01*
X171263719Y-84752863D01*
X171224500Y-84899234D01*
X171224500Y-85050765D01*
X171263719Y-85197136D01*
X171280249Y-85225766D01*
X171339485Y-85328365D01*
X171339488Y-85328368D01*
X171340217Y-85329318D01*
X171340584Y-85330267D01*
X171343549Y-85335403D01*
X171342748Y-85335865D01*
X171365411Y-85394488D01*
X171351373Y-85462932D01*
X171302559Y-85512922D01*
X171273934Y-85524580D01*
X171127865Y-85563719D01*
X171127863Y-85563719D01*
X171127863Y-85563720D01*
X170996635Y-85639485D01*
X170996632Y-85639487D01*
X170889487Y-85746632D01*
X170889485Y-85746635D01*
X170813719Y-85877863D01*
X170782038Y-85996100D01*
X170774500Y-86024234D01*
X167450500Y-86024234D01*
X167450500Y-82124234D01*
X168324500Y-82124234D01*
X168324500Y-82275766D01*
X168330226Y-82297135D01*
X168363719Y-82422136D01*
X168367317Y-82428367D01*
X168439485Y-82553365D01*
X168546635Y-82660515D01*
X168677865Y-82736281D01*
X168824234Y-82775500D01*
X168824236Y-82775500D01*
X168975764Y-82775500D01*
X168975766Y-82775500D01*
X169122135Y-82736281D01*
X169253365Y-82660515D01*
X169360515Y-82553365D01*
X169436281Y-82422135D01*
X169475500Y-82275766D01*
X169475500Y-82124234D01*
X169436281Y-81977865D01*
X169360515Y-81846635D01*
X169360513Y-81846633D01*
X169356451Y-81839597D01*
X169358260Y-81838552D01*
X169337077Y-81783745D01*
X169351121Y-81715301D01*
X169399939Y-81665316D01*
X169468032Y-81649658D01*
X169492727Y-81653660D01*
X169574234Y-81675500D01*
X169574237Y-81675500D01*
X169725764Y-81675500D01*
X169725766Y-81675500D01*
X169872135Y-81636281D01*
X169946305Y-81593458D01*
X170014203Y-81576986D01*
X170080230Y-81599838D01*
X170123421Y-81654759D01*
X170130063Y-81724312D01*
X170115691Y-81762846D01*
X170063720Y-81852861D01*
X170063720Y-81852862D01*
X170024500Y-81999234D01*
X170024500Y-82150765D01*
X170063719Y-82297136D01*
X170093800Y-82349236D01*
X170139485Y-82428365D01*
X170246635Y-82535515D01*
X170348800Y-82594500D01*
X170377861Y-82611279D01*
X170377865Y-82611281D01*
X170524234Y-82650500D01*
X170524236Y-82650500D01*
X170675764Y-82650500D01*
X170675766Y-82650500D01*
X170822135Y-82611281D01*
X170842907Y-82599287D01*
X170910806Y-82582813D01*
X170976834Y-82605663D01*
X171012297Y-82644672D01*
X171013718Y-82647134D01*
X171013719Y-82647135D01*
X171089485Y-82778365D01*
X171196635Y-82885515D01*
X171327865Y-82961281D01*
X171474234Y-83000500D01*
X171474236Y-83000500D01*
X171625764Y-83000500D01*
X171625766Y-83000500D01*
X171772135Y-82961281D01*
X171903365Y-82885515D01*
X172010515Y-82778365D01*
X172086281Y-82647135D01*
X172125500Y-82500766D01*
X172125500Y-82349234D01*
X172086281Y-82202865D01*
X172010515Y-82071635D01*
X171903365Y-81964485D01*
X171837750Y-81926602D01*
X171772136Y-81888719D01*
X171698950Y-81869109D01*
X171625766Y-81849500D01*
X171474234Y-81849500D01*
X171327862Y-81888719D01*
X171307088Y-81900714D01*
X171239187Y-81917185D01*
X171173161Y-81894333D01*
X171137702Y-81855326D01*
X171096374Y-81783745D01*
X171060515Y-81721635D01*
X170953365Y-81614485D01*
X170859887Y-81560515D01*
X170822136Y-81538719D01*
X170716871Y-81510514D01*
X170675766Y-81499500D01*
X170524234Y-81499500D01*
X170377865Y-81538719D01*
X170377864Y-81538719D01*
X170377862Y-81538720D01*
X170377861Y-81538720D01*
X170303695Y-81581540D01*
X170235794Y-81598013D01*
X170169768Y-81575160D01*
X170126577Y-81520239D01*
X170119936Y-81450685D01*
X170134309Y-81412152D01*
X170139383Y-81403365D01*
X170186281Y-81322135D01*
X170225500Y-81175766D01*
X170225500Y-81024234D01*
X170186281Y-80877865D01*
X170110515Y-80746635D01*
X170003365Y-80639485D01*
X169932270Y-80598438D01*
X169872136Y-80563719D01*
X169753081Y-80531819D01*
X169725766Y-80524500D01*
X169574234Y-80524500D01*
X169427863Y-80563719D01*
X169296635Y-80639485D01*
X169296632Y-80639487D01*
X169189487Y-80746632D01*
X169189485Y-80746635D01*
X169113719Y-80877863D01*
X169074500Y-81024234D01*
X169074500Y-81175765D01*
X169113719Y-81322136D01*
X169153153Y-81390437D01*
X169189485Y-81453365D01*
X169189486Y-81453366D01*
X169193549Y-81460403D01*
X169191740Y-81461447D01*
X169212922Y-81516258D01*
X169198876Y-81584702D01*
X169150056Y-81634685D01*
X169081963Y-81650341D01*
X169057263Y-81646336D01*
X168975766Y-81624500D01*
X168824234Y-81624500D01*
X168677863Y-81663719D01*
X168546635Y-81739485D01*
X168546632Y-81739487D01*
X168439487Y-81846632D01*
X168439485Y-81846635D01*
X168363719Y-81977863D01*
X168350955Y-82025500D01*
X168324500Y-82124234D01*
X167450500Y-82124234D01*
X167450500Y-79065603D01*
X167470185Y-78998564D01*
X167522989Y-78952809D01*
X167592147Y-78942865D01*
X167655703Y-78971890D01*
X167681887Y-79003603D01*
X167739485Y-79103365D01*
X167846635Y-79210515D01*
X167977865Y-79286281D01*
X168111488Y-79322084D01*
X168167075Y-79354178D01*
X168373386Y-79560489D01*
X168476113Y-79619799D01*
X168500321Y-79626284D01*
X168500324Y-79626286D01*
X168500325Y-79626286D01*
X168521288Y-79631903D01*
X168590691Y-79650500D01*
X168590693Y-79650500D01*
X171209308Y-79650500D01*
X171209309Y-79650500D01*
X171299673Y-79626286D01*
X171323887Y-79619799D01*
X171426614Y-79560489D01*
X172152042Y-78835059D01*
X172213363Y-78801576D01*
X172283054Y-78806560D01*
X172338988Y-78848431D01*
X172347108Y-78860742D01*
X172383199Y-78923253D01*
X172490349Y-79030403D01*
X172621579Y-79106169D01*
X172767948Y-79145388D01*
X172767950Y-79145388D01*
X172919478Y-79145388D01*
X172919480Y-79145388D01*
X173065849Y-79106169D01*
X173197079Y-79030403D01*
X173304229Y-78923253D01*
X173379995Y-78792023D01*
X173419214Y-78645654D01*
X173419214Y-78494122D01*
X173379995Y-78347753D01*
X173304229Y-78216523D01*
X173197079Y-78109373D01*
X173134568Y-78073282D01*
X173086353Y-78022714D01*
X173073131Y-77954107D01*
X173099099Y-77889242D01*
X173108879Y-77878223D01*
X175400285Y-75586819D01*
X175461608Y-75553334D01*
X175487966Y-75550500D01*
X175810206Y-75550500D01*
X175877245Y-75570185D01*
G37*
%TD.AperFunction*%
%TA.AperFunction,Conductor*%
G36*
X166338546Y-92208270D02*
G01*
X166339597Y-92206451D01*
X166346633Y-92210513D01*
X166346635Y-92210515D01*
X166477865Y-92286281D01*
X166611488Y-92322084D01*
X166667073Y-92354177D01*
X166773386Y-92460490D01*
X166773388Y-92460491D01*
X166773392Y-92460494D01*
X166796157Y-92473637D01*
X166876113Y-92519799D01*
X166888366Y-92523082D01*
X166990691Y-92550500D01*
X167086110Y-92550500D01*
X167094854Y-92551752D01*
X167118930Y-92562730D01*
X167144318Y-92570185D01*
X167150222Y-92576998D01*
X167158427Y-92580740D01*
X167172747Y-92602994D01*
X167190073Y-92622989D01*
X167191840Y-92627048D01*
X167197299Y-92640228D01*
X167197300Y-92640229D01*
X167197302Y-92640233D01*
X167289549Y-92760451D01*
X167350989Y-92807595D01*
X167353235Y-92810671D01*
X167356703Y-92812255D01*
X167373673Y-92838661D01*
X167392189Y-92864019D01*
X167393014Y-92868757D01*
X167394477Y-92871033D01*
X167399500Y-92905968D01*
X167399500Y-93125500D01*
X167379815Y-93192539D01*
X167327011Y-93238294D01*
X167275500Y-93249500D01*
X167166507Y-93249500D01*
X167066878Y-93265279D01*
X166946778Y-93326473D01*
X166946774Y-93326476D01*
X166851476Y-93421774D01*
X166851473Y-93421778D01*
X166790279Y-93541878D01*
X166774500Y-93641506D01*
X166774500Y-93858493D01*
X166790279Y-93958121D01*
X166790280Y-93958124D01*
X166790281Y-93958126D01*
X166851472Y-94078220D01*
X166851473Y-94078221D01*
X166851476Y-94078225D01*
X166935570Y-94162319D01*
X166969055Y-94223642D01*
X166964071Y-94293334D01*
X166935570Y-94337681D01*
X166851476Y-94421774D01*
X166851473Y-94421778D01*
X166790279Y-94541878D01*
X166774500Y-94641506D01*
X166774500Y-94675500D01*
X166754815Y-94742539D01*
X166702011Y-94788294D01*
X166650500Y-94799500D01*
X165287965Y-94799500D01*
X165220926Y-94779815D01*
X165200284Y-94763181D01*
X164486819Y-94049716D01*
X164453334Y-93988393D01*
X164450500Y-93962035D01*
X164450500Y-93699499D01*
X164470185Y-93632460D01*
X164522989Y-93586705D01*
X164574500Y-93575499D01*
X165586558Y-93575499D01*
X165586570Y-93575499D01*
X165622124Y-93572702D01*
X165774320Y-93528485D01*
X165910738Y-93447807D01*
X166022807Y-93335738D01*
X166103485Y-93199320D01*
X166147702Y-93047124D01*
X166150500Y-93011571D01*
X166150499Y-92311459D01*
X166170183Y-92244422D01*
X166222987Y-92198667D01*
X166292146Y-92188723D01*
X166338546Y-92208270D01*
G37*
%TD.AperFunction*%
%TA.AperFunction,Conductor*%
G36*
X172224712Y-89666238D02*
G01*
X172276188Y-89713482D01*
X172287931Y-89739196D01*
X172327454Y-89860836D01*
X172386133Y-89975999D01*
X172413240Y-90029199D01*
X172524310Y-90182073D01*
X172657927Y-90315690D01*
X172810801Y-90426760D01*
X172886976Y-90465573D01*
X172979163Y-90512545D01*
X172979165Y-90512545D01*
X172979168Y-90512547D01*
X173061185Y-90539196D01*
X173158881Y-90570940D01*
X173345514Y-90600500D01*
X173345519Y-90600500D01*
X173534486Y-90600500D01*
X173721118Y-90570940D01*
X173900832Y-90512547D01*
X174069199Y-90426760D01*
X174222073Y-90315690D01*
X174355690Y-90182073D01*
X174466760Y-90029199D01*
X174500000Y-89963961D01*
X174500000Y-91000000D01*
X176697247Y-91000000D01*
X176289067Y-91408181D01*
X176227744Y-91441666D01*
X176201386Y-91444500D01*
X175776361Y-91444500D01*
X175738375Y-91446536D01*
X175738368Y-91446536D01*
X175738358Y-91446537D01*
X175738354Y-91446537D01*
X175738316Y-91446540D01*
X175712002Y-91449370D01*
X175690174Y-91452404D01*
X175690173Y-91452404D01*
X175579632Y-91490817D01*
X175518304Y-91524305D01*
X175437315Y-91584934D01*
X175437294Y-91584952D01*
X175434949Y-91587297D01*
X175409515Y-91615612D01*
X175392386Y-91636867D01*
X175334992Y-91676713D01*
X175265167Y-91679204D01*
X175248384Y-91673618D01*
X175106762Y-91614956D01*
X175106760Y-91614955D01*
X174989370Y-91599501D01*
X174989367Y-91599500D01*
X174989361Y-91599500D01*
X174989354Y-91599500D01*
X174828650Y-91599500D01*
X174761611Y-91579815D01*
X174740969Y-91563181D01*
X174317165Y-91139375D01*
X174317161Y-91139372D01*
X174177866Y-91046297D01*
X174177863Y-91046296D01*
X174066093Y-91000000D01*
X174023082Y-90982184D01*
X174023074Y-90982182D01*
X173858771Y-90949500D01*
X173858767Y-90949500D01*
X172103651Y-90949500D01*
X172036612Y-90929815D01*
X172015970Y-90913181D01*
X171786819Y-90684030D01*
X171753334Y-90622707D01*
X171750500Y-90596349D01*
X171750500Y-90298625D01*
X171770185Y-90231586D01*
X171786819Y-90210944D01*
X171799270Y-90198493D01*
X171815690Y-90182073D01*
X171926760Y-90029199D01*
X172012547Y-89860832D01*
X172052069Y-89739195D01*
X172091507Y-89681521D01*
X172155866Y-89654323D01*
X172224712Y-89666238D01*
G37*
%TD.AperFunction*%
%TD*%
M02*
