%TF.GenerationSoftware,KiCad,Pcbnew,9.0.4*%
%TF.CreationDate,2025-12-12T14:24:18+03:00*%
%TF.ProjectId,mini_power_logger,6d696e69-5f70-46f7-9765-725f6c6f6767,rev?*%
%TF.SameCoordinates,Original*%
%TF.FileFunction,Copper,L4,Bot*%
%TF.FilePolarity,Positive*%
%FSLAX46Y46*%
G04 Gerber Fmt 4.6, Leading zero omitted, Abs format (unit mm)*
G04 Created by KiCad (PCBNEW 9.0.4) date 2025-12-12 14:24:18*
%MOMM*%
%LPD*%
G01*
G04 APERTURE LIST*
G04 Aperture macros list*
%AMRoundRect*
0 Rectangle with rounded corners*
0 $1 Rounding radius*
0 $2 $3 $4 $5 $6 $7 $8 $9 X,Y pos of 4 corners*
0 Add a 4 corners polygon primitive as box body*
4,1,4,$2,$3,$4,$5,$6,$7,$8,$9,$2,$3,0*
0 Add four circle primitives for the rounded corners*
1,1,$1+$1,$2,$3*
1,1,$1+$1,$4,$5*
1,1,$1+$1,$6,$7*
1,1,$1+$1,$8,$9*
0 Add four rect primitives between the rounded corners*
20,1,$1+$1,$2,$3,$4,$5,0*
20,1,$1+$1,$4,$5,$6,$7,0*
20,1,$1+$1,$6,$7,$8,$9,0*
20,1,$1+$1,$8,$9,$2,$3,0*%
G04 Aperture macros list end*
%TA.AperFunction,ComponentPad*%
%ADD10R,1.508000X1.508000*%
%TD*%
%TA.AperFunction,ComponentPad*%
%ADD11C,1.508000*%
%TD*%
%TA.AperFunction,ComponentPad*%
%ADD12C,3.000000*%
%TD*%
%TA.AperFunction,ComponentPad*%
%ADD13R,1.700000X1.700000*%
%TD*%
%TA.AperFunction,ComponentPad*%
%ADD14C,1.700000*%
%TD*%
%TA.AperFunction,ComponentPad*%
%ADD15R,2.000000X2.000000*%
%TD*%
%TA.AperFunction,ComponentPad*%
%ADD16C,2.000000*%
%TD*%
%TA.AperFunction,ComponentPad*%
%ADD17C,1.524000*%
%TD*%
%TA.AperFunction,ComponentPad*%
%ADD18RoundRect,0.250000X0.750000X0.750000X-0.750000X0.750000X-0.750000X-0.750000X0.750000X-0.750000X0*%
%TD*%
%TA.AperFunction,HeatsinkPad*%
%ADD19O,2.100000X1.000000*%
%TD*%
%TA.AperFunction,HeatsinkPad*%
%ADD20O,1.800000X1.000000*%
%TD*%
%TA.AperFunction,SMDPad,CuDef*%
%ADD21RoundRect,0.200000X-0.200000X-0.275000X0.200000X-0.275000X0.200000X0.275000X-0.200000X0.275000X0*%
%TD*%
%TA.AperFunction,SMDPad,CuDef*%
%ADD22R,1.600000X0.700000*%
%TD*%
%TA.AperFunction,SMDPad,CuDef*%
%ADD23R,1.600000X1.400000*%
%TD*%
%TA.AperFunction,SMDPad,CuDef*%
%ADD24R,2.200000X1.400000*%
%TD*%
%TA.AperFunction,SMDPad,CuDef*%
%ADD25R,1.400000X1.800000*%
%TD*%
%TA.AperFunction,SMDPad,CuDef*%
%ADD26RoundRect,0.150000X0.587500X0.150000X-0.587500X0.150000X-0.587500X-0.150000X0.587500X-0.150000X0*%
%TD*%
%TA.AperFunction,SMDPad,CuDef*%
%ADD27RoundRect,0.225000X-0.250000X0.225000X-0.250000X-0.225000X0.250000X-0.225000X0.250000X0.225000X0*%
%TD*%
%TA.AperFunction,SMDPad,CuDef*%
%ADD28RoundRect,0.225000X0.250000X-0.225000X0.250000X0.225000X-0.250000X0.225000X-0.250000X-0.225000X0*%
%TD*%
%TA.AperFunction,SMDPad,CuDef*%
%ADD29RoundRect,0.200000X0.200000X0.275000X-0.200000X0.275000X-0.200000X-0.275000X0.200000X-0.275000X0*%
%TD*%
%TA.AperFunction,SMDPad,CuDef*%
%ADD30RoundRect,0.225000X-0.225000X-0.375000X0.225000X-0.375000X0.225000X0.375000X-0.225000X0.375000X0*%
%TD*%
%TA.AperFunction,SMDPad,CuDef*%
%ADD31RoundRect,0.250000X0.700000X0.300000X-0.700000X0.300000X-0.700000X-0.300000X0.700000X-0.300000X0*%
%TD*%
%TA.AperFunction,SMDPad,CuDef*%
%ADD32RoundRect,0.200000X-0.275000X0.200000X-0.275000X-0.200000X0.275000X-0.200000X0.275000X0.200000X0*%
%TD*%
%TA.AperFunction,SMDPad,CuDef*%
%ADD33RoundRect,0.225000X0.225000X0.250000X-0.225000X0.250000X-0.225000X-0.250000X0.225000X-0.250000X0*%
%TD*%
%TA.AperFunction,SMDPad,CuDef*%
%ADD34R,1.600000X0.800000*%
%TD*%
%TA.AperFunction,SMDPad,CuDef*%
%ADD35R,0.279400X1.473200*%
%TD*%
%TA.AperFunction,SMDPad,CuDef*%
%ADD36R,1.473200X0.279400*%
%TD*%
%TA.AperFunction,SMDPad,CuDef*%
%ADD37RoundRect,0.237500X-0.250000X-0.237500X0.250000X-0.237500X0.250000X0.237500X-0.250000X0.237500X0*%
%TD*%
%TA.AperFunction,SMDPad,CuDef*%
%ADD38RoundRect,0.200000X0.275000X-0.200000X0.275000X0.200000X-0.275000X0.200000X-0.275000X-0.200000X0*%
%TD*%
%TA.AperFunction,SMDPad,CuDef*%
%ADD39RoundRect,0.225000X-0.225000X-0.250000X0.225000X-0.250000X0.225000X0.250000X-0.225000X0.250000X0*%
%TD*%
%TA.AperFunction,ComponentPad*%
%ADD40C,0.810000*%
%TD*%
%TA.AperFunction,SMDPad,CuDef*%
%ADD41RoundRect,0.150000X-0.825000X-0.150000X0.825000X-0.150000X0.825000X0.150000X-0.825000X0.150000X0*%
%TD*%
%TA.AperFunction,ViaPad*%
%ADD42C,0.450000*%
%TD*%
%TA.AperFunction,ViaPad*%
%ADD43C,0.600000*%
%TD*%
%TA.AperFunction,Conductor*%
%ADD44C,0.130000*%
%TD*%
%TA.AperFunction,Conductor*%
%ADD45C,0.200000*%
%TD*%
%TA.AperFunction,Conductor*%
%ADD46C,1.000000*%
%TD*%
%TA.AperFunction,Conductor*%
%ADD47C,0.400000*%
%TD*%
%TA.AperFunction,Conductor*%
%ADD48C,1.600000*%
%TD*%
%TA.AperFunction,Conductor*%
%ADD49C,0.169700*%
%TD*%
G04 APERTURE END LIST*
D10*
%TO.P,U4,1,GND*%
%TO.N,GND*%
X161912500Y-78210000D03*
D11*
%TO.P,U4,2,VCC_IN*%
%TO.N,+3.3V*%
X161912500Y-75670000D03*
%TO.P,U4,3,SCL*%
%TO.N,/SD Card & Oled Screen/OLED_SCL*%
X161912500Y-73130000D03*
%TO.P,U4,4,SDA*%
%TO.N,/SD Card & Oled Screen/OLED_SDA*%
X161912500Y-70590000D03*
D12*
%TO.P,U4,S1*%
%TO.N,N/C*%
X162412500Y-85400000D03*
%TO.P,U4,S2*%
X162412500Y-63400000D03*
%TO.P,U4,S3*%
X184412500Y-63400000D03*
%TO.P,U4,S4*%
X184412500Y-85400000D03*
%TD*%
D13*
%TO.P,J1,1*%
%TO.N,/SHUNT_V+*%
X165920000Y-106250000D03*
D14*
%TO.P,J1,2*%
%TO.N,GND*%
X163380000Y-106250000D03*
%TD*%
D15*
%TO.P,BZ1,1,+*%
%TO.N,+3.3V*%
X174800000Y-102700000D03*
D16*
%TO.P,BZ1,2,-*%
%TO.N,Net-(BZ1--)*%
X179800000Y-102700000D03*
%TD*%
D17*
%TO.P,J7,1*%
%TO.N,GND*%
X192570000Y-54000000D03*
%TO.P,J7,2*%
%TO.N,Net-(J7-Pad2)*%
X190030000Y-53980000D03*
%TD*%
%TO.P,J6,1*%
%TO.N,GND*%
X192570000Y-57100000D03*
%TO.P,J6,2*%
%TO.N,Net-(J6-Pad2)*%
X190030000Y-57080000D03*
%TD*%
D18*
%TO.P,J3,1,Pin_1*%
%TO.N,/SHUNT_V+*%
X165905000Y-103782500D03*
D16*
%TO.P,J3,2,Pin_2*%
%TO.N,GND*%
X162095000Y-103782500D03*
%TD*%
D13*
%TO.P,J1,1*%
%TO.N,/SHUNT_V-*%
X172227502Y-54000000D03*
D14*
%TO.P,J1,2*%
%TO.N,GND*%
X169687502Y-54000000D03*
%TD*%
D19*
%TO.P,J8,S1,SHIELD*%
%TO.N,GND*%
X191585000Y-106720000D03*
D20*
X195765000Y-106720000D03*
D19*
X191585000Y-98080000D03*
D20*
X195765000Y-98080000D03*
%TD*%
D13*
%TO.P,J5,1,Pin_1*%
%TO.N,+3.3V*%
X160100000Y-92275000D03*
D14*
%TO.P,J5,2,Pin_2*%
%TO.N,Net-(J5-Pin_2)*%
X160100000Y-89735000D03*
%TD*%
D18*
%TO.P,J2,1,Pin_1*%
%TO.N,/SHUNT_V-*%
X172205000Y-56482500D03*
D16*
%TO.P,J2,2,Pin_2*%
%TO.N,GND*%
X168395000Y-56482500D03*
%TD*%
D13*
%TO.P,J4,1,Pin_1*%
%TO.N,GND*%
X176390000Y-54300000D03*
D14*
%TO.P,J4,2,Pin_2*%
%TO.N,+3.3V*%
X178930000Y-54300000D03*
%TO.P,J4,3,Pin_3*%
%TO.N,/stm32f103/DIO*%
X181470000Y-54300000D03*
%TO.P,J4,4,Pin_4*%
%TO.N,/stm32f103/CLK*%
X184010000Y-54300000D03*
%TD*%
D13*
%TO.P,J1,1,Pin_1*%
%TO.N,/SHUNT_V+*%
X168360000Y-89400000D03*
D14*
%TO.P,J1,2,Pin_2*%
%TO.N,/Power/POWER_IN_P*%
X170900000Y-89400000D03*
%TO.P,J1,3,Pin_3*%
%TO.N,/USB_PWR*%
X173440000Y-89400000D03*
%TD*%
D21*
%TO.P,R9,1*%
%TO.N,Net-(J6-Pad2)*%
X164350000Y-61000000D03*
%TO.P,R9,2*%
%TO.N,Net-(U3A-+)*%
X166000000Y-61000000D03*
%TD*%
D22*
%TO.P,P1,1,DAT2*%
%TO.N,unconnected-(P1-DAT2-Pad1)*%
X182800000Y-77470000D03*
%TO.P,P1,2,DAT3*%
%TO.N,/SD Card & Oled Screen/SD_CS*%
X182800000Y-76370000D03*
%TO.P,P1,3,CMD*%
%TO.N,/SD Card & Oled Screen/SD_MOSI*%
X182800000Y-75270000D03*
%TO.P,P1,4,VDD*%
%TO.N,+3.3V*%
X182800000Y-74170000D03*
%TO.P,P1,5,CLK*%
%TO.N,/SD Card & Oled Screen/SD_SCK*%
X182800000Y-73070000D03*
%TO.P,P1,6,VSS*%
%TO.N,GND*%
X182800000Y-71970000D03*
%TO.P,P1,7,DAT0*%
%TO.N,/SD Card & Oled Screen/SD_MISO*%
X182800000Y-70870000D03*
%TO.P,P1,8,DAT1*%
%TO.N,unconnected-(P1-DAT1-Pad8)*%
X182800000Y-69770000D03*
%TO.P,P1,9,CD*%
%TO.N,unconnected-(P1-CD-Pad9)*%
X182800000Y-68670000D03*
D23*
%TO.P,P1,G1,GND*%
%TO.N,GND*%
X183400000Y-67370000D03*
D24*
%TO.P,P1,G2,GND*%
X192900000Y-67370000D03*
%TO.P,P1,G3,GND*%
X192900000Y-83070000D03*
D25*
%TO.P,P1,G4,GND*%
X183300000Y-82170000D03*
%TD*%
D26*
%TO.P,Q1,1,B*%
%TO.N,Net-(Q1-B)*%
X181900000Y-96600000D03*
%TO.P,Q1,2,E*%
%TO.N,GND*%
X181900000Y-98500000D03*
%TO.P,Q1,3,C*%
%TO.N,Net-(BZ1--)*%
X180025000Y-97550000D03*
%TD*%
D27*
%TO.P,C20,1*%
%TO.N,/Temp. & Power Sensors/ADC_TEMP2*%
X177100000Y-62925000D03*
%TO.P,C20,2*%
%TO.N,GND*%
X177100000Y-64475000D03*
%TD*%
D28*
%TO.P,C17,1*%
%TO.N,Net-(U3A-+)*%
X167650000Y-61075000D03*
%TO.P,C17,2*%
%TO.N,GND*%
X167650000Y-59525000D03*
%TD*%
D29*
%TO.P,R12,1*%
%TO.N,+3.3V*%
X169450000Y-97800000D03*
%TO.P,R12,2*%
%TO.N,/Temp. & Power Sensors/SCL*%
X167800000Y-97800000D03*
%TD*%
D27*
%TO.P,C10,1*%
%TO.N,+3.3V*%
X176900000Y-82425000D03*
%TO.P,C10,2*%
%TO.N,GND*%
X176900000Y-83975000D03*
%TD*%
D30*
%TO.P,D1,1,K*%
%TO.N,+3.3V*%
X175950000Y-99900000D03*
%TO.P,D1,2,A*%
%TO.N,Net-(BZ1--)*%
X179250000Y-99900000D03*
%TD*%
D31*
%TO.P,Y2,1,1*%
%TO.N,Net-(U1-PD1_OSC_OUT)*%
X174650000Y-70150000D03*
%TO.P,Y2,2,2*%
%TO.N,GND*%
X170950000Y-70150000D03*
%TO.P,Y2,3,3*%
%TO.N,Net-(U1-PD0_OSC_IN)*%
X170950000Y-67850000D03*
%TO.P,Y2,4,4*%
%TO.N,GND*%
X174650000Y-67850000D03*
%TD*%
D28*
%TO.P,C9,1*%
%TO.N,Net-(U1-PC15-OSC32_OUT)*%
X168000000Y-69775000D03*
%TO.P,C9,2*%
%TO.N,GND*%
X168000000Y-68225000D03*
%TD*%
D27*
%TO.P,C7,1*%
%TO.N,+3.3V*%
X164300000Y-76600000D03*
%TO.P,C7,2*%
%TO.N,GND*%
X164300000Y-78150000D03*
%TD*%
D32*
%TO.P,R1,1*%
%TO.N,Net-(J5-Pin_2)*%
X159400000Y-84050000D03*
%TO.P,R1,2*%
%TO.N,GND*%
X159400000Y-85700000D03*
%TD*%
D28*
%TO.P,C18,1*%
%TO.N,Net-(U3B-+)*%
X177400000Y-60025000D03*
%TO.P,C18,2*%
%TO.N,GND*%
X177400000Y-58475000D03*
%TD*%
D27*
%TO.P,C19,1*%
%TO.N,/Temp. & Power Sensors/ADC_TEMP1*%
X167900000Y-62925000D03*
%TO.P,C19,2*%
%TO.N,GND*%
X167900000Y-64475000D03*
%TD*%
D33*
%TO.P,C12,1*%
%TO.N,Net-(U1-PD0_OSC_IN)*%
X171275000Y-66100000D03*
%TO.P,C12,2*%
%TO.N,GND*%
X169725000Y-66100000D03*
%TD*%
D29*
%TO.P,R10,1*%
%TO.N,Net-(J7-Pad2)*%
X180625000Y-60000000D03*
%TO.P,R10,2*%
%TO.N,Net-(U3B-+)*%
X178975000Y-60000000D03*
%TD*%
D34*
%TO.P,C1,1*%
%TO.N,+3.3V*%
X159200000Y-69421429D03*
%TO.P,C1,2*%
%TO.N,/SPI2_CS*%
X159200000Y-70877143D03*
%TO.P,C1,3*%
%TO.N,/SPI2_MISO*%
X159200000Y-72332858D03*
%TO.P,C1,4*%
%TO.N,/SPI2_MOSI*%
X159200000Y-73788572D03*
%TO.P,C1,5*%
%TO.N,/SPI2_SCK*%
X159200000Y-75244286D03*
%TO.P,C1,6*%
%TO.N,/UART2_RX*%
X159200000Y-76700000D03*
%TO.P,C1,7*%
%TO.N,/UART2_TX*%
X159200000Y-78155715D03*
%TO.P,C1,8*%
%TO.N,GND*%
X159200000Y-79611429D03*
%TD*%
D28*
%TO.P,C11,1*%
%TO.N,Net-(U1-PD1_OSC_OUT)*%
X177200000Y-70175000D03*
%TO.P,C11,2*%
%TO.N,GND*%
X177200000Y-68625000D03*
%TD*%
D33*
%TO.P,C3,1*%
%TO.N,+3.3V*%
X167125000Y-72700000D03*
%TO.P,C3,2*%
%TO.N,GND*%
X165575000Y-72700000D03*
%TD*%
D35*
%TO.P,U1,1,VBAT*%
%TO.N,+3.3V*%
X167850000Y-75283600D03*
%TO.P,U1,2,PC13-TAMPER-RTC*%
%TO.N,unconnected-(U1-PC13-TAMPER-RTC-Pad2)*%
X168349999Y-75283600D03*
%TO.P,U1,3,PC14-OSC32_IN*%
%TO.N,Net-(U1-PC14-OSC32_IN)*%
X168850001Y-75283600D03*
%TO.P,U1,4,PC15-OSC32_OUT*%
%TO.N,Net-(U1-PC15-OSC32_OUT)*%
X169350000Y-75283599D03*
%TO.P,U1,5,PD0_OSC_IN*%
%TO.N,Net-(U1-PD0_OSC_IN)*%
X169849999Y-75283600D03*
%TO.P,U1,6,PD1_OSC_OUT*%
%TO.N,Net-(U1-PD1_OSC_OUT)*%
X170350000Y-75283600D03*
%TO.P,U1,7,NRST*%
%TO.N,Net-(U1-NRST)*%
X170850000Y-75283600D03*
%TO.P,U1,8,VSSA*%
%TO.N,GND*%
X171350001Y-75283600D03*
%TO.P,U1,9,VDDA*%
%TO.N,+3.3V*%
X171850000Y-75283599D03*
%TO.P,U1,10,PA0_WKUP*%
%TO.N,unconnected-(U1-PA0_WKUP-Pad10)*%
X172349999Y-75283600D03*
%TO.P,U1,11,PA1*%
%TO.N,/Temp. & Power Sensors/ADC_TEMP1*%
X172850001Y-75283600D03*
%TO.P,U1,12,PA2*%
%TO.N,/UART2_TX*%
X173350000Y-75283600D03*
D36*
%TO.P,U1,13,PA3*%
%TO.N,/UART2_RX*%
X174816400Y-76750000D03*
%TO.P,U1,14,PA4*%
%TO.N,/Temp. & Power Sensors/ADC_TEMP2*%
X174816400Y-77249999D03*
%TO.P,U1,15,PA5*%
%TO.N,/SD Card & Oled Screen/SD_SCK*%
X174816400Y-77750001D03*
%TO.P,U1,16,PA6*%
%TO.N,/SD Card & Oled Screen/SD_MISO*%
X174816401Y-78250000D03*
%TO.P,U1,17,PA7*%
%TO.N,/SD Card & Oled Screen/SD_MOSI*%
X174816400Y-78749999D03*
%TO.P,U1,18,PB0*%
%TO.N,/SD Card & Oled Screen/SD_CS*%
X174816400Y-79250000D03*
%TO.P,U1,19,PB1*%
%TO.N,unconnected-(U1-PB1-Pad19)*%
X174816400Y-79750000D03*
%TO.P,U1,20,PB2*%
%TO.N,/Temp. & Power Sensors/ALERT*%
X174816400Y-80250001D03*
%TO.P,U1,21,PB10*%
%TO.N,/Temp. & Power Sensors/SCL*%
X174816401Y-80750000D03*
%TO.P,U1,22,PB11*%
%TO.N,/Temp. & Power Sensors/SDA*%
X174816400Y-81249999D03*
%TO.P,U1,23,VSS*%
%TO.N,GND*%
X174816400Y-81750001D03*
%TO.P,U1,24,VDD*%
%TO.N,+3.3V*%
X174816400Y-82250000D03*
D35*
%TO.P,U1,25,PB12*%
%TO.N,unconnected-(U1-PB12-Pad25)*%
X173350000Y-83716400D03*
%TO.P,U1,26,PB13*%
%TO.N,/SPI2_SCK*%
X172850001Y-83716400D03*
%TO.P,U1,27,PB14*%
%TO.N,/SPI2_MISO*%
X172349999Y-83716400D03*
%TO.P,U1,28,PB15*%
%TO.N,/SPI2_MOSI*%
X171850000Y-83716401D03*
%TO.P,U1,29,PA8*%
%TO.N,/SPI2_CS*%
X171350001Y-83716400D03*
%TO.P,U1,30,PA9*%
%TO.N,/BUZZER_PIN*%
X170850000Y-83716400D03*
%TO.P,U1,31,PA10*%
%TO.N,unconnected-(U1-PA10-Pad31)*%
X170350000Y-83716400D03*
%TO.P,U1,32,PA11*%
%TO.N,/Type C Connector/USB2_N*%
X169849999Y-83716400D03*
%TO.P,U1,33,PA12*%
%TO.N,/Type C Connector/USB2_P*%
X169350000Y-83716401D03*
%TO.P,U1,34,PA13*%
%TO.N,/stm32f103/DIO*%
X168850001Y-83716400D03*
%TO.P,U1,35,VSS*%
%TO.N,GND*%
X168349999Y-83716400D03*
%TO.P,U1,36,VDD*%
%TO.N,+3.3V*%
X167850000Y-83716400D03*
D36*
%TO.P,U1,37,PA14*%
%TO.N,/stm32f103/CLK*%
X166383600Y-82250000D03*
%TO.P,U1,38,PA15*%
%TO.N,unconnected-(U1-PA15-Pad38)*%
X166383600Y-81750001D03*
%TO.P,U1,39,PB3*%
%TO.N,/stm32f103/BUTTON_1*%
X166383600Y-81249999D03*
%TO.P,U1,40,PB4*%
%TO.N,/stm32f103/BUTTON_2*%
X166383599Y-80750000D03*
%TO.P,U1,41,PB5*%
%TO.N,/stm32f103/BUTTON_3*%
X166383600Y-80250001D03*
%TO.P,U1,42,PB6*%
%TO.N,/SD Card & Oled Screen/OLED_SCL*%
X166383600Y-79750000D03*
%TO.P,U1,43,PB7*%
%TO.N,/SD Card & Oled Screen/OLED_SDA*%
X166383600Y-79250000D03*
%TO.P,U1,44,BOOT0*%
%TO.N,Net-(J5-Pin_2)*%
X166383600Y-78749999D03*
%TO.P,U1,45,PB8*%
%TO.N,unconnected-(U1-PB8-Pad45)*%
X166383599Y-78250000D03*
%TO.P,U1,46,PB9*%
%TO.N,unconnected-(U1-PB9-Pad46)*%
X166383600Y-77750001D03*
%TO.P,U1,47,VSS*%
%TO.N,GND*%
X166383600Y-77249999D03*
%TO.P,U1,48,VDD*%
%TO.N,+3.3V*%
X166383600Y-76750000D03*
%TD*%
D37*
%TO.P,R14,1*%
%TO.N,/BUZZER_PIN*%
X180200000Y-95000000D03*
%TO.P,R14,2*%
%TO.N,Net-(Q1-B)*%
X182025000Y-95000000D03*
%TD*%
D38*
%TO.P,R11,1*%
%TO.N,+3.3V*%
X174800000Y-97125000D03*
%TO.P,R11,2*%
%TO.N,/Temp. & Power Sensors/SDA*%
X174800000Y-95475000D03*
%TD*%
D21*
%TO.P,R13,1*%
%TO.N,+3.3V*%
X170900000Y-97800000D03*
%TO.P,R13,2*%
%TO.N,/Temp. & Power Sensors/ALERT*%
X172550000Y-97800000D03*
%TD*%
D39*
%TO.P,C4,1*%
%TO.N,+3.3V*%
X172075000Y-72800000D03*
%TO.P,C4,2*%
%TO.N,GND*%
X173625000Y-72800000D03*
%TD*%
D28*
%TO.P,C6,1*%
%TO.N,Net-(U1-PC14-OSC32_IN)*%
X163500000Y-69700000D03*
%TO.P,C6,2*%
%TO.N,GND*%
X163500000Y-68150000D03*
%TD*%
D33*
%TO.P,C5,1*%
%TO.N,+3.3V*%
X167775000Y-85800000D03*
%TO.P,C5,2*%
%TO.N,GND*%
X166225000Y-85800000D03*
%TD*%
D40*
%TO.P,Y1,1,1*%
%TO.N,Net-(U1-PC14-OSC32_IN)*%
X165100000Y-69900000D03*
%TO.P,Y1,2,2*%
%TO.N,Net-(U1-PC15-OSC32_OUT)*%
X166270000Y-69900000D03*
%TD*%
D41*
%TO.P,U3,1*%
%TO.N,/Temp. & Power Sensors/ADC_TEMP1*%
X170000000Y-64070000D03*
%TO.P,U3,2,-*%
X170000000Y-62800000D03*
%TO.P,U3,3,+*%
%TO.N,Net-(U3A-+)*%
X170000000Y-61530000D03*
%TO.P,U3,4,V-*%
%TO.N,GND*%
X170000000Y-60260000D03*
%TO.P,U3,5,+*%
%TO.N,Net-(U3B-+)*%
X174950000Y-60260000D03*
%TO.P,U3,6,-*%
%TO.N,/Temp. & Power Sensors/ADC_TEMP2*%
X174950000Y-61530000D03*
%TO.P,U3,7*%
X174950000Y-62800000D03*
%TO.P,U3,8,V+*%
%TO.N,+3.3V*%
X174950000Y-64070000D03*
%TD*%
D42*
%TO.N,GND*%
X168075000Y-77300000D03*
X187600000Y-89500000D03*
X187250000Y-57500000D03*
X171000000Y-73750000D03*
X188800000Y-85375000D03*
X177200000Y-65625000D03*
X175150000Y-90500000D03*
X195625000Y-100675000D03*
X182825000Y-99350000D03*
X166475000Y-94250000D03*
X176550000Y-57350000D03*
X187550000Y-91375000D03*
X168200000Y-82475000D03*
X163325000Y-78150000D03*
X163525000Y-66450000D03*
X193100000Y-80225000D03*
X165775000Y-59500000D03*
X186875000Y-99025000D03*
X169475000Y-91175000D03*
X185900000Y-89500000D03*
X174500000Y-68900000D03*
X187625000Y-92925000D03*
X175150000Y-84950000D03*
X193225000Y-100175000D03*
X188125000Y-101175000D03*
X189350000Y-98650000D03*
X171275000Y-71375000D03*
X185925000Y-91375000D03*
X193300000Y-60300000D03*
X185000000Y-87200000D03*
X194750000Y-67350000D03*
X168575000Y-65800000D03*
X183375000Y-65850000D03*
X184575000Y-82300000D03*
X167875000Y-65650000D03*
X175200000Y-88050000D03*
X194600000Y-83150000D03*
X173850000Y-71750000D03*
X168800000Y-87500000D03*
X175125000Y-85825000D03*
X172250000Y-96225000D03*
X180700000Y-75800000D03*
X188825000Y-65650000D03*
X167975000Y-66500000D03*
X172550000Y-73800000D03*
X182800000Y-100725000D03*
X168875000Y-59450000D03*
X170800000Y-85325000D03*
X190200000Y-92925000D03*
X185000000Y-88900000D03*
X188700000Y-92950000D03*
X188125000Y-97250000D03*
X187800000Y-105575000D03*
X172100000Y-82050000D03*
X168775000Y-86050000D03*
%TO.N,+3.3V*%
X187300000Y-60250000D03*
X191950000Y-94450000D03*
X167900000Y-86800000D03*
X191350000Y-95450000D03*
X179150000Y-80700000D03*
X173000000Y-71850000D03*
X178850000Y-75720000D03*
X163150000Y-76800000D03*
X191950000Y-95450000D03*
X191350000Y-95950000D03*
X159262500Y-67787500D03*
X191350000Y-94950000D03*
X186976670Y-71607339D03*
X164800000Y-71800000D03*
X184250000Y-74150000D03*
X159662500Y-67387500D03*
X191350000Y-94450000D03*
X191950000Y-94950000D03*
X183400000Y-60300000D03*
X191950000Y-95950000D03*
X188750000Y-82600000D03*
X170150000Y-97800000D03*
X166700000Y-91750000D03*
X175200000Y-64900000D03*
X187550000Y-56550000D03*
X159200000Y-68525000D03*
X188750000Y-92150000D03*
%TO.N,Net-(U1-NRST)*%
X172843714Y-78569888D03*
X186200000Y-61150000D03*
%TO.N,/stm32f103/BUTTON_1*%
X170300000Y-78250000D03*
%TO.N,/stm32f103/BUTTON_2*%
X169300000Y-78500000D03*
%TO.N,/stm32f103/BUTTON_3*%
X168200000Y-78750000D03*
%TO.N,/SPI2_MISO*%
X171550000Y-82425000D03*
X159275000Y-71700000D03*
%TO.N,/SPI2_SCK*%
X159350000Y-74538574D03*
X172800000Y-85250000D03*
%TO.N,/SPI2_MOSI*%
X159275000Y-73150000D03*
X171800000Y-84975000D03*
%TO.N,/SPI2_CS*%
X171350000Y-86100000D03*
X159300000Y-70225000D03*
D43*
%TO.N,/USB_PWR*%
X184200000Y-97800000D03*
D42*
%TO.N,/stm32f103/CLK*%
X169650000Y-81100000D03*
%TO.N,/stm32f103/DIO*%
X168900000Y-82200000D03*
%TO.N,Net-(U5-SW)*%
X173600000Y-82350000D03*
X177425000Y-85150000D03*
X177463694Y-85711692D03*
X181300000Y-85100000D03*
X181800000Y-85100000D03*
X181300000Y-85600000D03*
X176900000Y-85150000D03*
X181800000Y-85600000D03*
X176950000Y-85675000D03*
%TO.N,Net-(J6-Pad2)*%
X174850000Y-59300000D03*
%TO.N,/Type C Connector/USB2_P*%
X193133629Y-102233548D03*
%TO.N,/Type C Connector/USB2_N*%
X193133629Y-102936548D03*
%TO.N,/SD Card & Oled Screen/SD_SCK*%
X177000000Y-73600000D03*
X181100000Y-73100000D03*
%TO.N,/UART2_RX*%
X159600000Y-76025000D03*
X171825000Y-76700000D03*
%TO.N,/UART2_TX*%
X174900000Y-73125000D03*
X159650000Y-77525000D03*
%TO.N,/Temp. & Power Sensors/SDA*%
X174700000Y-94400000D03*
X172950000Y-81450000D03*
%TO.N,/Temp. & Power Sensors/SCL*%
X167850000Y-96750000D03*
X172950000Y-80850000D03*
%TO.N,/Temp. & Power Sensors/ALERT*%
X173350000Y-97850000D03*
X172100000Y-80600000D03*
%TO.N,Net-(U5-EN)*%
X177200000Y-80850000D03*
X180800000Y-81150000D03*
%TO.N,Net-(J7-Pad2)*%
X181650000Y-60050000D03*
%TO.N,/SD Card & Oled Screen/OLED_SDA*%
X162700000Y-81050000D03*
%TO.N,/SD Card & Oled Screen/OLED_SCL*%
X163650000Y-81000000D03*
%TO.N,/BUZZER_PIN*%
X170600000Y-82075000D03*
X180175000Y-94075000D03*
%TD*%
D44*
%TO.N,GND*%
X174650000Y-68750000D02*
X174500000Y-68900000D01*
X183400000Y-65875000D02*
X183375000Y-65850000D01*
X174650000Y-67850000D02*
X174650000Y-68750000D01*
X177400000Y-58475000D02*
X176550000Y-57625000D01*
X177200000Y-68625000D02*
X174775000Y-68625000D01*
D45*
X173287810Y-81750001D02*
X172987811Y-82050000D01*
D44*
X168000000Y-68225000D02*
X168000000Y-66525000D01*
X173625000Y-72800000D02*
X173625000Y-71975000D01*
X168575000Y-65875000D02*
X168800000Y-66100000D01*
X170000000Y-60260000D02*
X169190000Y-59450000D01*
D45*
X166225000Y-86575000D02*
X167150000Y-87500000D01*
D44*
X174775000Y-68625000D02*
X174500000Y-68900000D01*
D45*
X179000000Y-84275000D02*
X178700000Y-83975000D01*
D44*
X194600000Y-83150000D02*
X194520000Y-83070000D01*
D45*
X172987811Y-82050000D02*
X172100000Y-82050000D01*
D44*
X167875000Y-65650000D02*
X167875000Y-64500000D01*
D45*
X168024999Y-77249999D02*
X166383600Y-77249999D01*
X174816400Y-81750001D02*
X173287810Y-81750001D01*
D44*
X163500000Y-68150000D02*
X163500000Y-66475000D01*
X194730000Y-67370000D02*
X192900000Y-67370000D01*
X182825000Y-99350000D02*
X182750000Y-99350000D01*
X182750000Y-99350000D02*
X181900000Y-98500000D01*
X167650000Y-59525000D02*
X165800000Y-59525000D01*
X168000000Y-66525000D02*
X167975000Y-66500000D01*
X168575000Y-65800000D02*
X168575000Y-65875000D01*
D45*
X168075000Y-77300000D02*
X168024999Y-77249999D01*
D44*
X177200000Y-65625000D02*
X177200000Y-64575000D01*
X194520000Y-83070000D02*
X192900000Y-83070000D01*
D45*
X173150000Y-73800000D02*
X172550000Y-73800000D01*
X171350001Y-75283600D02*
X171350001Y-74100001D01*
D44*
X183400000Y-67370000D02*
X183400000Y-65875000D01*
D45*
X178700000Y-83975000D02*
X176900000Y-83975000D01*
D44*
X168800000Y-66100000D02*
X169725000Y-66100000D01*
X169190000Y-59450000D02*
X168875000Y-59450000D01*
X163500000Y-66475000D02*
X163525000Y-66450000D01*
D45*
X173625000Y-73325000D02*
X173150000Y-73800000D01*
X173625000Y-72800000D02*
X173625000Y-73325000D01*
X164300000Y-78150000D02*
X163325000Y-78150000D01*
D44*
X176550000Y-57625000D02*
X176550000Y-57350000D01*
X171275000Y-71375000D02*
X170950000Y-71050000D01*
X167875000Y-64500000D02*
X167900000Y-64475000D01*
X183300000Y-82170000D02*
X184445000Y-82170000D01*
D45*
X168349999Y-82624999D02*
X168200000Y-82475000D01*
X168349999Y-83716400D02*
X168349999Y-82624999D01*
D44*
X173625000Y-71975000D02*
X173850000Y-71750000D01*
D45*
X171350001Y-74100001D02*
X171000000Y-73750000D01*
D44*
X165800000Y-59525000D02*
X165775000Y-59500000D01*
X177200000Y-64575000D02*
X177100000Y-64475000D01*
D45*
X166225000Y-85800000D02*
X166225000Y-86575000D01*
D44*
X184445000Y-82170000D02*
X184575000Y-82300000D01*
D45*
X167150000Y-87500000D02*
X168800000Y-87500000D01*
D44*
X170950000Y-71050000D02*
X170950000Y-70150000D01*
X194750000Y-67350000D02*
X194730000Y-67370000D01*
D46*
%TO.N,+3.3V*%
X170150000Y-97800000D02*
X170150000Y-95200000D01*
D47*
X178625000Y-80700000D02*
X176900000Y-82425000D01*
D45*
X171850000Y-72775000D02*
X171850000Y-75283599D01*
D47*
X174800000Y-102700000D02*
X174800000Y-101050000D01*
X163175000Y-76825000D02*
X163150000Y-76800000D01*
X186984009Y-71600000D02*
X186976670Y-71607339D01*
D45*
X167225000Y-72275000D02*
X167225000Y-73375000D01*
X170900000Y-97800000D02*
X170150000Y-97800000D01*
X166383600Y-76750000D02*
X164375000Y-76750000D01*
D47*
X175950000Y-99900000D02*
X175950000Y-98275000D01*
X164300000Y-76825000D02*
X163175000Y-76825000D01*
D45*
X167775000Y-86675000D02*
X167900000Y-86800000D01*
X174816400Y-82250000D02*
X176725000Y-82250000D01*
D47*
X179150000Y-80700000D02*
X178625000Y-80700000D01*
D45*
X167850000Y-83716400D02*
X167850000Y-85725000D01*
X184230000Y-74170000D02*
X184250000Y-74150000D01*
X164375000Y-76750000D02*
X164300000Y-76825000D01*
X172775000Y-71850000D02*
X171850000Y-72775000D01*
X167225000Y-73375000D02*
X167850000Y-74000000D01*
X167850000Y-85725000D02*
X167775000Y-85800000D01*
X164800000Y-71800000D02*
X166750000Y-71800000D01*
X182800000Y-74170000D02*
X184230000Y-74170000D01*
X166700000Y-91750000D02*
X166800000Y-91850000D01*
D47*
X186984009Y-71600000D02*
X187000670Y-71600000D01*
D45*
X166750000Y-71800000D02*
X167225000Y-72275000D01*
D47*
X175950000Y-98275000D02*
X174800000Y-97125000D01*
D45*
X167775000Y-85800000D02*
X167775000Y-86675000D01*
D46*
X170150000Y-95200000D02*
X166700000Y-91750000D01*
D47*
X174800000Y-101050000D02*
X175950000Y-99900000D01*
D45*
X170150000Y-97800000D02*
X169450000Y-97800000D01*
D47*
X174950000Y-64650000D02*
X175200000Y-64900000D01*
D45*
X167850000Y-74000000D02*
X167850000Y-75283600D01*
D44*
X159200000Y-69421429D02*
X159200000Y-68525000D01*
D45*
X173000000Y-71850000D02*
X172775000Y-71850000D01*
D47*
X174950000Y-64070000D02*
X174950000Y-64650000D01*
D45*
X176725000Y-82250000D02*
X176900000Y-82425000D01*
X177160615Y-82164385D02*
X176900000Y-82425000D01*
%TO.N,Net-(U1-PC14-OSC32_IN)*%
X165550000Y-71100000D02*
X166644044Y-71100000D01*
X165100000Y-69900000D02*
X163700000Y-69900000D01*
X168850001Y-73305957D02*
X168850001Y-75283600D01*
X165100000Y-70650000D02*
X165550000Y-71100000D01*
X165100000Y-69900000D02*
X165100000Y-70650000D01*
X163700000Y-69900000D02*
X163500000Y-69700000D01*
X166644044Y-71100000D02*
X168850001Y-73305957D01*
%TO.N,Net-(U1-NRST)*%
X170850000Y-76600000D02*
X170850000Y-75283600D01*
X172843714Y-78569888D02*
X172473826Y-78200000D01*
X172450000Y-78200000D02*
X170850000Y-76600000D01*
X172473826Y-78200000D02*
X172450000Y-78200000D01*
%TO.N,Net-(U1-PC15-OSC32_OUT)*%
X166395000Y-69775000D02*
X166270000Y-69900000D01*
X166270000Y-70120000D02*
X169350000Y-73200000D01*
X166270000Y-69900000D02*
X166270000Y-70120000D01*
X169350000Y-73200000D02*
X169350000Y-75283599D01*
X168000000Y-69775000D02*
X166395000Y-69775000D01*
%TO.N,Net-(U1-PD1_OSC_OUT)*%
X173250000Y-70150000D02*
X170350000Y-73050000D01*
X174650000Y-70150000D02*
X177175000Y-70150000D01*
X170350000Y-73050000D02*
X170350000Y-75283600D01*
X174650000Y-70150000D02*
X173250000Y-70150000D01*
X177175000Y-70150000D02*
X177200000Y-70175000D01*
%TO.N,Net-(U1-PD0_OSC_IN)*%
X170950000Y-67850000D02*
X170950000Y-66425000D01*
X170950000Y-66425000D02*
X171275000Y-66100000D01*
X169774000Y-75207601D02*
X169849999Y-75283600D01*
X170950000Y-67850000D02*
X169774000Y-69026000D01*
X169774000Y-69026000D02*
X169774000Y-75207601D01*
%TO.N,/stm32f103/BUTTON_1*%
X170300000Y-78900000D02*
X167950001Y-81249999D01*
X170300000Y-78250000D02*
X170300000Y-78900000D01*
X167950001Y-81249999D02*
X166383600Y-81249999D01*
%TO.N,/stm32f103/BUTTON_2*%
X169300000Y-78500000D02*
X169300000Y-79200000D01*
X169300000Y-79200000D02*
X167750000Y-80750000D01*
X167750000Y-80750000D02*
X166383599Y-80750000D01*
%TO.N,/stm32f103/BUTTON_3*%
X168200000Y-79750000D02*
X167699999Y-80250001D01*
X168200000Y-78750000D02*
X168200000Y-79750000D01*
X167699999Y-80250001D02*
X166383600Y-80250001D01*
%TO.N,Net-(U3A-+)*%
X166075000Y-61075000D02*
X166000000Y-61000000D01*
X170000000Y-61530000D02*
X168105000Y-61530000D01*
X168105000Y-61530000D02*
X167650000Y-61075000D01*
X167650000Y-61075000D02*
X166075000Y-61075000D01*
%TO.N,Net-(U3B-+)*%
X175185000Y-60025000D02*
X174950000Y-60260000D01*
X178975000Y-60000000D02*
X177425000Y-60000000D01*
X177400000Y-60025000D02*
X175185000Y-60025000D01*
X177425000Y-60000000D02*
X177400000Y-60025000D01*
D44*
%TO.N,/SPI2_MISO*%
X159200000Y-72332858D02*
X159200000Y-71775000D01*
D45*
X172075000Y-82625000D02*
X171750000Y-82625000D01*
D44*
X159200000Y-71775000D02*
X159275000Y-71700000D01*
D45*
X171750000Y-82625000D02*
X171550000Y-82425000D01*
X172349999Y-82899999D02*
X172075000Y-82625000D01*
X172349999Y-83716400D02*
X172349999Y-82899999D01*
D44*
%TO.N,/SPI2_SCK*%
X159336426Y-74538574D02*
X159200000Y-74675000D01*
D45*
X172800000Y-85250000D02*
X172850001Y-85199999D01*
D44*
X159200000Y-74675000D02*
X159200000Y-75244286D01*
D45*
X172850001Y-85199999D02*
X172850001Y-83716400D01*
D44*
X159350000Y-74538574D02*
X159336426Y-74538574D01*
%TO.N,/SPI2_MOSI*%
X159200000Y-73225000D02*
X159275000Y-73150000D01*
X159200000Y-73788572D02*
X159200000Y-73225000D01*
D45*
X171800000Y-83766401D02*
X171850000Y-83716401D01*
X171800000Y-84975000D02*
X171800000Y-83766401D01*
%TO.N,/SPI2_CS*%
X171350000Y-86100000D02*
X171350001Y-83716400D01*
D44*
X159200000Y-70325000D02*
X159300000Y-70225000D01*
X159200000Y-70877143D02*
X159200000Y-70325000D01*
D45*
%TO.N,/Temp. & Power Sensors/ADC_TEMP1*%
X170000000Y-64070000D02*
X170000000Y-62800000D01*
X171775000Y-62800000D02*
X176575000Y-67600000D01*
X178175000Y-67900000D02*
X178175000Y-70425000D01*
X170000000Y-62800000D02*
X168025000Y-62800000D01*
X172950000Y-76300000D02*
X172850001Y-76200001D01*
X178175000Y-70425000D02*
X175718199Y-72881801D01*
X172850001Y-76200001D02*
X172850001Y-75283600D01*
X175718199Y-76106801D02*
X175525000Y-76300000D01*
X170000000Y-62800000D02*
X171775000Y-62800000D01*
X175525000Y-76300000D02*
X172950000Y-76300000D01*
X176575000Y-67600000D02*
X177875000Y-67600000D01*
X168025000Y-62800000D02*
X167900000Y-62925000D01*
X177875000Y-67600000D02*
X178175000Y-67900000D01*
X175718199Y-72881801D02*
X175718199Y-76106801D01*
%TO.N,/Temp. & Power Sensors/ADC_TEMP2*%
X176150000Y-76975000D02*
X175875001Y-77249999D01*
X179750000Y-69400000D02*
X176150000Y-73000000D01*
X179750000Y-63300000D02*
X179750000Y-69400000D01*
X175075000Y-62925000D02*
X174950000Y-62800000D01*
X174950000Y-62800000D02*
X174950000Y-61530000D01*
X179375000Y-62925000D02*
X179750000Y-63300000D01*
X177100000Y-62925000D02*
X175075000Y-62925000D01*
X175875001Y-77249999D02*
X174816400Y-77249999D01*
X176150000Y-73000000D02*
X176150000Y-76975000D01*
X177100000Y-62925000D02*
X179375000Y-62925000D01*
D46*
%TO.N,/USB_PWR*%
X184000000Y-106800000D02*
X179100000Y-106800000D01*
X184200000Y-97800000D02*
X184400000Y-98000000D01*
X184400000Y-98000000D02*
X184400000Y-106400000D01*
X184400000Y-106400000D02*
X184000000Y-106800000D01*
X177800000Y-91400000D02*
X175800000Y-89400000D01*
X177800000Y-105500000D02*
X177800000Y-91400000D01*
X175800000Y-89400000D02*
X173440000Y-89400000D01*
X179100000Y-106800000D02*
X177800000Y-105500000D01*
D48*
%TO.N,/SHUNT_V+*%
X164700000Y-89400000D02*
X162700000Y-91400000D01*
X162700000Y-99400000D02*
X165905000Y-102605000D01*
X162700000Y-91400000D02*
X162700000Y-99400000D01*
X165905000Y-102605000D02*
X165905000Y-103782500D01*
X168360000Y-89400000D02*
X164700000Y-89400000D01*
D45*
%TO.N,/stm32f103/CLK*%
X167550000Y-82250000D02*
X166383600Y-82250000D01*
X169650000Y-81100000D02*
X168700000Y-81100000D01*
X168700000Y-81100000D02*
X167550000Y-82250000D01*
%TO.N,/stm32f103/DIO*%
X168850001Y-82249999D02*
X168850001Y-83716400D01*
X168900000Y-82200000D02*
X168850001Y-82249999D01*
%TO.N,Net-(U5-SW)*%
X176850000Y-85100000D02*
X176200000Y-85100000D01*
X176200000Y-85100000D02*
X173600000Y-82500000D01*
X173600000Y-82500000D02*
X173600000Y-82350000D01*
X176900000Y-85150000D02*
X176850000Y-85100000D01*
%TO.N,Net-(J5-Pin_2)*%
X164876000Y-78924000D02*
X163326000Y-78924000D01*
X166383600Y-78749999D02*
X165050001Y-78749999D01*
X165050001Y-78749999D02*
X164876000Y-78924000D01*
X160100000Y-89735000D02*
X160500000Y-89335000D01*
X160500000Y-89335000D02*
X160500000Y-85150000D01*
X160500000Y-85150000D02*
X159400000Y-84050000D01*
X159400000Y-82850000D02*
X159400000Y-84050000D01*
X163326000Y-78924000D02*
X159400000Y-82850000D01*
%TO.N,Net-(J6-Pad2)*%
X174150000Y-58600000D02*
X164800000Y-58600000D01*
X164800000Y-58600000D02*
X164350000Y-59050000D01*
X164350000Y-59050000D02*
X164350000Y-61000000D01*
X174850000Y-59300000D02*
X174150000Y-58600000D01*
D49*
%TO.N,/Type C Connector/USB2_P*%
X169388648Y-85824994D02*
X169388648Y-83755049D01*
X190662139Y-101311350D02*
X190237456Y-101311350D01*
X190095208Y-101169102D02*
X176237456Y-87311350D01*
X191562139Y-101611350D02*
X191562139Y-101628301D01*
X190237456Y-101311350D02*
X190095208Y-101169102D01*
X194162456Y-101311350D02*
X191862139Y-101311350D01*
X176237456Y-87311350D02*
X170412456Y-87311350D01*
X194273059Y-102373698D02*
X194588650Y-102058107D01*
X194588650Y-102058107D02*
X194588650Y-101737544D01*
X169388654Y-86287548D02*
X169388654Y-85825000D01*
X169388654Y-85825000D02*
X169388648Y-85824994D01*
X193273778Y-102373697D02*
X193824152Y-102373697D01*
X193824152Y-102373697D02*
X193824153Y-102373698D01*
X170412456Y-87311350D02*
X169388654Y-86287548D01*
X190962139Y-101628301D02*
X190962139Y-101611350D01*
X194588650Y-101737544D02*
X194162456Y-101311350D01*
X193133629Y-102233548D02*
X193273778Y-102373697D01*
X169388648Y-83755049D02*
X169350000Y-83716401D01*
X193824153Y-102373698D02*
X194273059Y-102373698D01*
X191862139Y-101311350D02*
G75*
G03*
X191562050Y-101611350I-39J-300050D01*
G01*
X191262139Y-101928301D02*
G75*
G02*
X190962099Y-101628301I-39J300001D01*
G01*
X190962139Y-101611350D02*
G75*
G03*
X190662139Y-101311361I-300039J-50D01*
G01*
X191562139Y-101628301D02*
G75*
G02*
X191262139Y-101928339I-300039J1D01*
G01*
%TO.N,/Type C Connector/USB2_N*%
X195011350Y-101562456D02*
X195011350Y-102233195D01*
X193273778Y-102796399D02*
X193133629Y-102936548D01*
X169811354Y-86112460D02*
X170587544Y-86888650D01*
X193824152Y-102796399D02*
X193273778Y-102796399D01*
X193824153Y-102796398D02*
X193824152Y-102796399D01*
X194448147Y-102796398D02*
X193824153Y-102796398D01*
X170587544Y-86888650D02*
X176412544Y-86888650D01*
X176412544Y-86888650D02*
X190412544Y-100888650D01*
X169849999Y-83716400D02*
X169811350Y-83755049D01*
X169811354Y-85825000D02*
X169811354Y-86112460D01*
X195011350Y-102233195D02*
X194448147Y-102796398D01*
X169811350Y-85824996D02*
X169811354Y-85825000D01*
X194337544Y-100888650D02*
X195011350Y-101562456D01*
X169811350Y-83755049D02*
X169811350Y-85824996D01*
X190412544Y-100888650D02*
X194337544Y-100888650D01*
D45*
%TO.N,/SD Card & Oled Screen/SD_CS*%
X178930000Y-76370000D02*
X178650000Y-76650000D01*
X177850000Y-79250000D02*
X174816400Y-79250000D01*
X178650000Y-78450000D02*
X177850000Y-79250000D01*
X182800000Y-76370000D02*
X178930000Y-76370000D01*
X178650000Y-76650000D02*
X178650000Y-78450000D01*
%TO.N,/SD Card & Oled Screen/SD_SCK*%
X174816400Y-77750001D02*
X176599999Y-77750001D01*
X177050000Y-74300000D02*
X177050000Y-73650000D01*
X182770000Y-73100000D02*
X182800000Y-73070000D01*
X177050000Y-77300000D02*
X177050000Y-74300000D01*
X177050000Y-73650000D02*
X177000000Y-73600000D01*
X181100000Y-73100000D02*
X182770000Y-73100000D01*
X176599999Y-77750001D02*
X177050000Y-77300000D01*
%TO.N,/SD Card & Oled Screen/SD_MISO*%
X177600000Y-72500000D02*
X177600000Y-77800000D01*
X182800000Y-70870000D02*
X179230000Y-70870000D01*
X179230000Y-70870000D02*
X177600000Y-72500000D01*
X177150000Y-78250000D02*
X174816401Y-78250000D01*
X177600000Y-77800000D02*
X177150000Y-78250000D01*
%TO.N,/SD Card & Oled Screen/SD_MOSI*%
X182800000Y-75270000D02*
X178530000Y-75270000D01*
X178150000Y-75650000D02*
X178150000Y-78200000D01*
X178150000Y-78200000D02*
X177600001Y-78749999D01*
X177600001Y-78749999D02*
X174816400Y-78749999D01*
X178530000Y-75270000D02*
X178150000Y-75650000D01*
D44*
%TO.N,/UART2_RX*%
X159600000Y-76025000D02*
X159325000Y-76025000D01*
X174816400Y-76750000D02*
X171875000Y-76750000D01*
X159200000Y-76150000D02*
X159200000Y-76700000D01*
X159325000Y-76025000D02*
X159200000Y-76150000D01*
X171875000Y-76750000D02*
X171825000Y-76700000D01*
%TO.N,/UART2_TX*%
X174525000Y-73125000D02*
X174900000Y-73125000D01*
X159650000Y-77525000D02*
X159450000Y-77525000D01*
X173350000Y-74300000D02*
X174525000Y-73125000D01*
X173350000Y-75283600D02*
X173350000Y-74300000D01*
X159450000Y-77525000D02*
X159200000Y-77775000D01*
X159200000Y-77775000D02*
X159200000Y-78155715D01*
D45*
%TO.N,/Temp. & Power Sensors/SDA*%
X174800000Y-94500000D02*
X174700000Y-94400000D01*
X174800000Y-95475000D02*
X174800000Y-94500000D01*
X172950000Y-81450000D02*
X173049998Y-81450000D01*
X173049998Y-81450000D02*
X173249999Y-81249999D01*
X173249999Y-81249999D02*
X174816400Y-81249999D01*
D47*
%TO.N,Net-(BZ1--)*%
X179800000Y-102700000D02*
X179800000Y-100450000D01*
X180025000Y-97550000D02*
X179300000Y-98275000D01*
X179800000Y-100450000D02*
X179250000Y-99900000D01*
X179300000Y-99850000D02*
X179250000Y-99900000D01*
X179300000Y-98275000D02*
X179300000Y-99850000D01*
%TO.N,Net-(Q1-B)*%
X181900000Y-96600000D02*
X181900000Y-95125000D01*
X181900000Y-95125000D02*
X182025000Y-95000000D01*
D45*
%TO.N,/Temp. & Power Sensors/SCL*%
X167800000Y-97800000D02*
X167800000Y-96800000D01*
X167800000Y-96800000D02*
X167850000Y-96750000D01*
X173050000Y-80750000D02*
X174816401Y-80750000D01*
X172950000Y-80850000D02*
X173050000Y-80750000D01*
%TO.N,/Temp. & Power Sensors/ALERT*%
X172550000Y-97800000D02*
X173300000Y-97800000D01*
X172449999Y-80250001D02*
X172100000Y-80600000D01*
X174816400Y-80250001D02*
X172449999Y-80250001D01*
X173300000Y-97800000D02*
X173350000Y-97850000D01*
%TO.N,Net-(U5-EN)*%
X177200000Y-80850000D02*
X178300000Y-79750000D01*
X179550000Y-79750000D02*
X180300000Y-79750000D01*
X180600000Y-80050000D02*
X180800000Y-80250000D01*
X180300000Y-79750000D02*
X180600000Y-80050000D01*
X180800000Y-80250000D02*
X180800000Y-81150000D01*
X178300000Y-79750000D02*
X179550000Y-79750000D01*
%TO.N,Net-(J7-Pad2)*%
X181600000Y-60000000D02*
X181650000Y-60050000D01*
X180625000Y-60000000D02*
X181600000Y-60000000D01*
%TO.N,/SD Card & Oled Screen/OLED_SDA*%
X164500000Y-79250000D02*
X162700000Y-81050000D01*
X166383600Y-79250000D02*
X164500000Y-79250000D01*
%TO.N,/SD Card & Oled Screen/OLED_SCL*%
X164900000Y-79750000D02*
X163650000Y-81000000D01*
X166383600Y-79750000D02*
X164900000Y-79750000D01*
%TO.N,/BUZZER_PIN*%
X170850000Y-83716400D02*
X170850000Y-82325000D01*
X170625000Y-82100000D02*
X170600000Y-82075000D01*
X170850000Y-82325000D02*
X170625000Y-82100000D01*
X180175000Y-94075000D02*
X180175000Y-94975000D01*
X180175000Y-94975000D02*
X180200000Y-95000000D01*
%TD*%
%TA.AperFunction,Conductor*%
%TO.N,GND*%
G36*
X196004042Y-51910765D02*
G01*
X196028951Y-51912397D01*
X196251586Y-51926989D01*
X196267647Y-51929104D01*
X196506963Y-51976708D01*
X196522606Y-51980900D01*
X196753657Y-52059331D01*
X196768629Y-52065532D01*
X196983293Y-52171392D01*
X196987460Y-52173447D01*
X197001507Y-52181557D01*
X197204377Y-52317111D01*
X197217241Y-52326982D01*
X197400678Y-52487852D01*
X197412147Y-52499321D01*
X197573017Y-52682758D01*
X197582891Y-52695626D01*
X197718442Y-52898492D01*
X197726552Y-52912539D01*
X197834464Y-53131363D01*
X197840671Y-53146349D01*
X197919096Y-53377382D01*
X197923294Y-53393048D01*
X197970893Y-53632340D01*
X197973011Y-53648422D01*
X197989235Y-53895956D01*
X197989500Y-53904066D01*
X197989500Y-105895933D01*
X197989235Y-105904042D01*
X197989235Y-105904043D01*
X197973011Y-106151577D01*
X197970893Y-106167659D01*
X197923294Y-106406951D01*
X197919096Y-106422617D01*
X197840671Y-106653650D01*
X197834464Y-106668636D01*
X197726552Y-106887460D01*
X197718442Y-106901507D01*
X197582891Y-107104373D01*
X197573017Y-107117241D01*
X197412147Y-107300678D01*
X197400678Y-107312147D01*
X197217241Y-107473017D01*
X197204373Y-107482891D01*
X197001507Y-107618442D01*
X196987460Y-107626552D01*
X196768636Y-107734464D01*
X196753650Y-107740671D01*
X196522617Y-107819096D01*
X196506951Y-107823294D01*
X196267659Y-107870893D01*
X196251577Y-107873011D01*
X196004043Y-107889235D01*
X195995933Y-107889500D01*
X184141227Y-107889500D01*
X184122305Y-107883943D01*
X184102592Y-107883328D01*
X184089467Y-107874301D01*
X184074188Y-107869815D01*
X184061274Y-107854911D01*
X184045023Y-107843735D01*
X184038862Y-107829046D01*
X184028433Y-107817011D01*
X184025626Y-107797490D01*
X184017998Y-107779304D01*
X184020755Y-107763618D01*
X184018489Y-107747853D01*
X184026682Y-107729912D01*
X184030097Y-107710490D01*
X184040897Y-107698785D01*
X184047514Y-107684297D01*
X184064105Y-107673634D01*
X184077479Y-107659141D01*
X184100437Y-107650285D01*
X184106292Y-107646523D01*
X184110026Y-107645490D01*
X184113516Y-107644582D01*
X184248082Y-107617816D01*
X184293415Y-107599037D01*
X184402863Y-107553704D01*
X184542162Y-107460627D01*
X185060626Y-106942162D01*
X185153703Y-106802863D01*
X185217816Y-106648082D01*
X185250500Y-106483767D01*
X185250500Y-105222133D01*
X191569500Y-105222133D01*
X191569500Y-105357867D01*
X191604631Y-105488975D01*
X191604632Y-105488978D01*
X191672495Y-105606520D01*
X191672497Y-105606522D01*
X191672498Y-105606524D01*
X191768476Y-105702502D01*
X191768477Y-105702503D01*
X191768479Y-105702504D01*
X191886021Y-105770367D01*
X191886022Y-105770367D01*
X191886025Y-105770369D01*
X192017133Y-105805500D01*
X192017135Y-105805500D01*
X192152865Y-105805500D01*
X192152867Y-105805500D01*
X192283975Y-105770369D01*
X192401524Y-105702502D01*
X192497502Y-105606524D01*
X192565369Y-105488975D01*
X192600500Y-105357867D01*
X192600500Y-105222133D01*
X192565369Y-105091025D01*
X192561453Y-105084243D01*
X192497504Y-104973479D01*
X192497499Y-104973473D01*
X192401526Y-104877500D01*
X192401520Y-104877495D01*
X192283978Y-104809632D01*
X192283979Y-104809632D01*
X192268484Y-104805480D01*
X192152867Y-104774500D01*
X192017133Y-104774500D01*
X191901515Y-104805480D01*
X191886021Y-104809632D01*
X191768479Y-104877495D01*
X191768473Y-104877500D01*
X191672500Y-104973473D01*
X191672495Y-104973479D01*
X191604632Y-105091021D01*
X191604631Y-105091025D01*
X191569500Y-105222133D01*
X185250500Y-105222133D01*
X185250500Y-97916233D01*
X185217816Y-97751918D01*
X185214399Y-97743668D01*
X185186417Y-97676113D01*
X185153707Y-97597143D01*
X185153700Y-97597130D01*
X185060627Y-97457838D01*
X185060624Y-97457834D01*
X184742165Y-97139375D01*
X184742161Y-97139372D01*
X184602866Y-97046297D01*
X184602863Y-97046296D01*
X184448082Y-96982184D01*
X184448073Y-96982181D01*
X184283771Y-96949500D01*
X184283767Y-96949500D01*
X184116233Y-96949500D01*
X184116228Y-96949500D01*
X183951926Y-96982181D01*
X183951917Y-96982184D01*
X183797136Y-97046296D01*
X183797133Y-97046297D01*
X183657838Y-97139372D01*
X183657834Y-97139375D01*
X183539375Y-97257834D01*
X183539372Y-97257838D01*
X183446297Y-97397133D01*
X183446296Y-97397136D01*
X183382184Y-97551917D01*
X183382181Y-97551926D01*
X183349500Y-97716228D01*
X183349500Y-97883771D01*
X183382181Y-98048073D01*
X183382184Y-98048082D01*
X183446296Y-98202863D01*
X183446297Y-98202865D01*
X183528602Y-98326042D01*
X183549480Y-98392719D01*
X183549500Y-98394933D01*
X183549500Y-105825500D01*
X183529815Y-105892539D01*
X183477011Y-105938294D01*
X183425500Y-105949500D01*
X179503651Y-105949500D01*
X179436612Y-105929815D01*
X179415970Y-105913181D01*
X178686819Y-105184030D01*
X178653334Y-105122707D01*
X178650500Y-105096349D01*
X178650500Y-103759758D01*
X178670185Y-103692719D01*
X178722989Y-103646964D01*
X178792147Y-103637020D01*
X178855703Y-103666045D01*
X178862181Y-103672077D01*
X178920213Y-103730109D01*
X179092179Y-103855048D01*
X179092181Y-103855049D01*
X179092184Y-103855051D01*
X179281588Y-103951557D01*
X179483757Y-104017246D01*
X179693713Y-104050500D01*
X179693714Y-104050500D01*
X179906286Y-104050500D01*
X179906287Y-104050500D01*
X180116243Y-104017246D01*
X180318412Y-103951557D01*
X180507816Y-103855051D01*
X180529789Y-103839086D01*
X180679786Y-103730109D01*
X180679788Y-103730106D01*
X180679792Y-103730104D01*
X180830104Y-103579792D01*
X180830106Y-103579788D01*
X180830109Y-103579786D01*
X180955048Y-103407820D01*
X180955047Y-103407820D01*
X180955051Y-103407816D01*
X181051557Y-103218412D01*
X181117246Y-103016243D01*
X181150500Y-102806287D01*
X181150500Y-102593713D01*
X181117246Y-102383757D01*
X181051557Y-102181588D01*
X180955051Y-101992184D01*
X180955049Y-101992181D01*
X180955048Y-101992179D01*
X180830109Y-101820213D01*
X180679786Y-101669890D01*
X180507817Y-101544949D01*
X180418204Y-101499288D01*
X180367409Y-101451313D01*
X180350500Y-101388804D01*
X180350500Y-100377527D01*
X180350500Y-100377525D01*
X180312984Y-100237515D01*
X180284405Y-100188015D01*
X180240510Y-100111985D01*
X180086819Y-99958294D01*
X180053334Y-99896971D01*
X180050500Y-99870613D01*
X180050500Y-99487286D01*
X180050499Y-99487272D01*
X180044556Y-99442133D01*
X180035687Y-99374764D01*
X179977698Y-99234767D01*
X179885451Y-99114549D01*
X179885448Y-99114547D01*
X179880503Y-99108102D01*
X179881946Y-99106994D01*
X179853334Y-99054594D01*
X179850500Y-99028236D01*
X179850500Y-98554386D01*
X179870185Y-98487347D01*
X179886815Y-98466709D01*
X180116706Y-98236817D01*
X180178029Y-98203333D01*
X180204387Y-98200499D01*
X180660371Y-98200499D01*
X180660372Y-98200499D01*
X180719983Y-98194091D01*
X180854831Y-98143796D01*
X180970046Y-98057546D01*
X181056296Y-97942331D01*
X181106591Y-97807483D01*
X181113000Y-97747873D01*
X181112999Y-97372242D01*
X181132683Y-97305204D01*
X181185487Y-97259449D01*
X181250255Y-97248954D01*
X181264627Y-97250500D01*
X182535372Y-97250499D01*
X182594983Y-97244091D01*
X182729831Y-97193796D01*
X182845046Y-97107546D01*
X182931296Y-96992331D01*
X182981591Y-96857483D01*
X182988000Y-96797873D01*
X182987999Y-96402128D01*
X182981591Y-96342517D01*
X182973604Y-96321104D01*
X182931297Y-96207671D01*
X182931293Y-96207664D01*
X182845047Y-96092455D01*
X182845044Y-96092452D01*
X182729835Y-96006206D01*
X182729828Y-96006202D01*
X182609406Y-95961288D01*
X182553472Y-95919417D01*
X182529055Y-95853953D01*
X182543907Y-95785680D01*
X182577250Y-95746732D01*
X182694367Y-95656867D01*
X182788617Y-95534037D01*
X182847865Y-95390999D01*
X182863000Y-95276040D01*
X182863000Y-94851934D01*
X182882685Y-94784895D01*
X182935489Y-94739140D01*
X183004647Y-94729196D01*
X183068203Y-94758221D01*
X183074681Y-94764253D01*
X189746841Y-101436413D01*
X189970145Y-101659717D01*
X190056114Y-101709352D01*
X190065121Y-101714552D01*
X190069417Y-101717032D01*
X190180141Y-101746700D01*
X190294771Y-101746700D01*
X190434132Y-101746700D01*
X190501171Y-101766385D01*
X190546926Y-101819189D01*
X190552724Y-101837142D01*
X190553246Y-101836984D01*
X190555013Y-101842810D01*
X190555014Y-101842813D01*
X190594589Y-101938347D01*
X190610456Y-101976649D01*
X190610459Y-101976655D01*
X190690939Y-102097087D01*
X190690942Y-102097090D01*
X190690943Y-102097092D01*
X190793384Y-102199519D01*
X190913840Y-102279991D01*
X191047681Y-102335415D01*
X191189764Y-102363660D01*
X191199002Y-102363658D01*
X191199601Y-102363658D01*
X191199602Y-102363659D01*
X191210792Y-102363657D01*
X191210920Y-102363694D01*
X191262196Y-102363687D01*
X191262196Y-102363689D01*
X191334619Y-102363680D01*
X191476679Y-102335406D01*
X191610495Y-102279962D01*
X191730924Y-102199480D01*
X191833340Y-102097052D01*
X191913806Y-101976612D01*
X191913807Y-101976608D01*
X191913810Y-101976604D01*
X191969230Y-101842797D01*
X191969229Y-101842797D01*
X191969233Y-101842790D01*
X191969234Y-101842781D01*
X191971000Y-101836963D01*
X191973149Y-101837614D01*
X192000865Y-101784611D01*
X192061575Y-101750028D01*
X192090110Y-101746700D01*
X192535406Y-101746700D01*
X192602445Y-101766385D01*
X192648200Y-101819189D01*
X192658144Y-101888347D01*
X192642793Y-101932699D01*
X192630859Y-101953368D01*
X192597348Y-102011411D01*
X192574390Y-102097093D01*
X192558129Y-102157782D01*
X192558129Y-102309314D01*
X192572691Y-102363658D01*
X192597348Y-102455682D01*
X192597349Y-102455685D01*
X192636241Y-102523048D01*
X192652714Y-102590948D01*
X192636241Y-102647048D01*
X192597349Y-102714410D01*
X192597348Y-102714413D01*
X192558129Y-102860782D01*
X192558129Y-103012313D01*
X192597348Y-103158684D01*
X192622403Y-103202079D01*
X192673114Y-103289913D01*
X192780264Y-103397063D01*
X192911494Y-103472829D01*
X193057863Y-103512048D01*
X193057865Y-103512048D01*
X193209393Y-103512048D01*
X193209395Y-103512048D01*
X193355764Y-103472829D01*
X193486994Y-103397063D01*
X193594144Y-103289913D01*
X193594148Y-103289905D01*
X193599092Y-103283464D01*
X193600897Y-103284849D01*
X193605603Y-103274547D01*
X193625429Y-103261805D01*
X193642489Y-103245537D01*
X193655748Y-103242319D01*
X193664381Y-103236772D01*
X193699313Y-103231749D01*
X193699315Y-103231749D01*
X193766837Y-103231749D01*
X193881467Y-103231749D01*
X193881470Y-103231748D01*
X193889078Y-103231748D01*
X194505460Y-103231748D01*
X194505462Y-103231748D01*
X194616186Y-103202080D01*
X194715458Y-103144765D01*
X195359717Y-102500506D01*
X195417032Y-102401234D01*
X195446700Y-102290510D01*
X195446700Y-102175880D01*
X195446700Y-101505141D01*
X195417032Y-101394417D01*
X195359717Y-101295145D01*
X195278661Y-101214089D01*
X194604855Y-100540283D01*
X194555219Y-100511625D01*
X194505584Y-100482968D01*
X194450221Y-100468134D01*
X194394859Y-100453300D01*
X194394858Y-100453300D01*
X190644234Y-100453300D01*
X190577195Y-100433615D01*
X190556553Y-100416981D01*
X189581705Y-99442133D01*
X191569500Y-99442133D01*
X191569500Y-99577867D01*
X191604631Y-99708975D01*
X191604632Y-99708978D01*
X191672495Y-99826520D01*
X191672497Y-99826522D01*
X191672498Y-99826524D01*
X191768476Y-99922502D01*
X191768477Y-99922503D01*
X191768479Y-99922504D01*
X191886021Y-99990367D01*
X191886022Y-99990367D01*
X191886025Y-99990369D01*
X192017133Y-100025500D01*
X192017135Y-100025500D01*
X192152865Y-100025500D01*
X192152867Y-100025500D01*
X192283975Y-99990369D01*
X192401524Y-99922502D01*
X192497502Y-99826524D01*
X192565369Y-99708975D01*
X192600500Y-99577867D01*
X192600500Y-99442133D01*
X192565369Y-99311025D01*
X192561912Y-99305038D01*
X192497504Y-99193479D01*
X192497499Y-99193473D01*
X192401526Y-99097500D01*
X192401520Y-99097495D01*
X192283978Y-99029632D01*
X192283979Y-99029632D01*
X192233847Y-99016199D01*
X192152867Y-98994500D01*
X192017133Y-98994500D01*
X191936153Y-99016199D01*
X191886021Y-99029632D01*
X191768479Y-99097495D01*
X191768473Y-99097500D01*
X191672500Y-99193473D01*
X191672495Y-99193479D01*
X191604632Y-99311021D01*
X191604631Y-99311025D01*
X191569500Y-99442133D01*
X189581705Y-99442133D01*
X184290934Y-94151362D01*
X190494500Y-94151362D01*
X190494500Y-96048639D01*
X190496536Y-96086624D01*
X190496540Y-96086683D01*
X190499370Y-96112997D01*
X190502404Y-96134825D01*
X190502404Y-96134826D01*
X190540817Y-96245367D01*
X190574305Y-96306695D01*
X190634934Y-96387684D01*
X190634952Y-96387705D01*
X190762297Y-96515050D01*
X190762305Y-96515057D01*
X190790619Y-96540491D01*
X190811261Y-96557125D01*
X190828837Y-96570411D01*
X190934164Y-96621414D01*
X191001203Y-96641099D01*
X191001204Y-96641099D01*
X191001207Y-96641100D01*
X191031071Y-96645393D01*
X191101362Y-96655500D01*
X191101363Y-96655500D01*
X191998639Y-96655500D01*
X192000638Y-96655392D01*
X192036642Y-96653463D01*
X192036672Y-96653459D01*
X192036683Y-96653459D01*
X192051383Y-96651877D01*
X192063000Y-96650629D01*
X192084827Y-96647595D01*
X192160167Y-96621414D01*
X192195367Y-96609182D01*
X192195369Y-96609181D01*
X192256692Y-96575696D01*
X192263755Y-96570409D01*
X192337684Y-96515065D01*
X192337695Y-96515057D01*
X192465057Y-96387695D01*
X192490491Y-96359381D01*
X192507125Y-96338739D01*
X192520452Y-96321105D01*
X192523054Y-96315726D01*
X192538851Y-96292328D01*
X192559805Y-96239793D01*
X192571434Y-96215767D01*
X192572196Y-96213170D01*
X192572195Y-96213169D01*
X192575480Y-96201977D01*
X192575491Y-96201940D01*
X192577130Y-96196357D01*
X192582208Y-96183629D01*
X192586029Y-96166062D01*
X192591098Y-96148801D01*
X192605500Y-96048638D01*
X192605500Y-95798435D01*
X194509500Y-95798435D01*
X194509500Y-96001565D01*
X194510235Y-96006204D01*
X194541277Y-96202194D01*
X194541277Y-96202197D01*
X194604045Y-96395377D01*
X194627107Y-96440638D01*
X194695923Y-96575696D01*
X194696268Y-96576372D01*
X194815656Y-96740697D01*
X194815660Y-96740702D01*
X194959297Y-96884339D01*
X194959302Y-96884343D01*
X195083394Y-96974500D01*
X195123631Y-97003734D01*
X195283206Y-97085042D01*
X195304622Y-97095954D01*
X195497803Y-97158722D01*
X195497804Y-97158722D01*
X195497807Y-97158723D01*
X195698435Y-97190500D01*
X195698436Y-97190500D01*
X195901564Y-97190500D01*
X195901565Y-97190500D01*
X196102193Y-97158723D01*
X196102196Y-97158722D01*
X196102197Y-97158722D01*
X196295377Y-97095954D01*
X196295377Y-97095953D01*
X196295380Y-97095953D01*
X196476369Y-97003734D01*
X196640704Y-96884338D01*
X196784338Y-96740704D01*
X196903734Y-96576369D01*
X196995953Y-96395380D01*
X197003404Y-96372449D01*
X197058722Y-96202197D01*
X197058722Y-96202196D01*
X197058723Y-96202193D01*
X197090500Y-96001565D01*
X197090500Y-95798435D01*
X197058723Y-95597807D01*
X197058722Y-95597803D01*
X197058722Y-95597802D01*
X196995954Y-95404622D01*
X196930441Y-95276047D01*
X196903734Y-95223631D01*
X196825705Y-95116233D01*
X196784343Y-95059302D01*
X196784339Y-95059297D01*
X196640702Y-94915660D01*
X196640697Y-94915656D01*
X196476372Y-94796268D01*
X196476371Y-94796267D01*
X196476369Y-94796266D01*
X196364254Y-94739140D01*
X196295377Y-94704045D01*
X196102196Y-94641277D01*
X195951722Y-94617444D01*
X195901565Y-94609500D01*
X195698435Y-94609500D01*
X195631559Y-94620092D01*
X195497805Y-94641277D01*
X195497802Y-94641277D01*
X195304622Y-94704045D01*
X195123627Y-94796268D01*
X194959302Y-94915656D01*
X194959297Y-94915660D01*
X194815660Y-95059297D01*
X194815656Y-95059302D01*
X194696268Y-95223627D01*
X194604045Y-95404622D01*
X194541277Y-95597802D01*
X194541277Y-95597805D01*
X194528156Y-95680649D01*
X194509500Y-95798435D01*
X192605500Y-95798435D01*
X192605500Y-94151362D01*
X192603463Y-94113358D01*
X192603459Y-94113328D01*
X192603459Y-94113316D01*
X192600629Y-94087002D01*
X192597595Y-94065174D01*
X192597595Y-94065173D01*
X192559182Y-93954632D01*
X192525694Y-93893304D01*
X192465065Y-93812315D01*
X192465060Y-93812310D01*
X192465057Y-93812305D01*
X192465053Y-93812301D01*
X192465047Y-93812294D01*
X192237702Y-93584949D01*
X192209384Y-93559512D01*
X192209383Y-93559511D01*
X192188733Y-93542870D01*
X192181914Y-93537716D01*
X192171163Y-93529589D01*
X192065836Y-93478586D01*
X192065832Y-93478584D01*
X191998798Y-93458901D01*
X191998792Y-93458899D01*
X191908743Y-93445952D01*
X191898638Y-93444500D01*
X191201362Y-93444500D01*
X191201361Y-93444500D01*
X191163375Y-93446536D01*
X191163368Y-93446536D01*
X191163358Y-93446537D01*
X191163354Y-93446537D01*
X191163316Y-93446540D01*
X191137002Y-93449370D01*
X191115174Y-93452404D01*
X191115173Y-93452404D01*
X191004632Y-93490817D01*
X190943304Y-93524305D01*
X190862315Y-93584934D01*
X190862294Y-93584952D01*
X190634949Y-93812297D01*
X190609512Y-93840615D01*
X190609511Y-93840616D01*
X190592870Y-93861266D01*
X190579592Y-93878833D01*
X190579590Y-93878835D01*
X190528584Y-93984167D01*
X190508901Y-94051201D01*
X190508899Y-94051207D01*
X190494500Y-94151362D01*
X184290934Y-94151362D01*
X182213806Y-92074234D01*
X188174500Y-92074234D01*
X188174500Y-92225765D01*
X188213719Y-92372136D01*
X188251602Y-92437750D01*
X188289485Y-92503365D01*
X188396635Y-92610515D01*
X188527865Y-92686281D01*
X188674234Y-92725500D01*
X188674236Y-92725500D01*
X188825764Y-92725500D01*
X188825766Y-92725500D01*
X188972135Y-92686281D01*
X189103365Y-92610515D01*
X189210515Y-92503365D01*
X189286281Y-92372135D01*
X189325500Y-92225766D01*
X189325500Y-92074234D01*
X189286281Y-91927865D01*
X189210515Y-91796635D01*
X189103365Y-91689485D01*
X189037750Y-91651602D01*
X188972136Y-91613719D01*
X188898950Y-91594109D01*
X188825766Y-91574500D01*
X188674234Y-91574500D01*
X188527863Y-91613719D01*
X188396635Y-91689485D01*
X188396632Y-91689487D01*
X188289487Y-91796632D01*
X188289485Y-91796635D01*
X188213719Y-91927863D01*
X188174500Y-92074234D01*
X182213806Y-92074234D01*
X176706753Y-86567181D01*
X176673268Y-86505858D01*
X176678252Y-86436166D01*
X176720124Y-86380233D01*
X176785588Y-86355816D01*
X176794434Y-86355500D01*
X182547658Y-86355500D01*
X182551178Y-86355395D01*
X182568796Y-86354871D01*
X182583517Y-86353994D01*
X182588623Y-86353653D01*
X182702317Y-86325921D01*
X182702319Y-86325919D01*
X182706677Y-86324857D01*
X182776471Y-86328094D01*
X182833436Y-86368551D01*
X182843449Y-86383325D01*
X182870563Y-86430288D01*
X183018233Y-86622736D01*
X183018239Y-86622743D01*
X183189756Y-86794260D01*
X183189762Y-86794265D01*
X183382211Y-86941936D01*
X183592288Y-87063224D01*
X183816400Y-87156054D01*
X184050711Y-87218838D01*
X184231086Y-87242584D01*
X184291211Y-87250500D01*
X184291212Y-87250500D01*
X184533789Y-87250500D01*
X184581888Y-87244167D01*
X184774289Y-87218838D01*
X185008600Y-87156054D01*
X185232712Y-87063224D01*
X185442789Y-86941936D01*
X185635238Y-86794265D01*
X185806765Y-86622738D01*
X185954436Y-86430289D01*
X186075724Y-86220212D01*
X186168554Y-85996100D01*
X186231338Y-85761789D01*
X186263000Y-85521288D01*
X186263000Y-85278712D01*
X186231338Y-85038211D01*
X186168554Y-84803900D01*
X186162745Y-84789877D01*
X186108735Y-84659485D01*
X186075724Y-84579788D01*
X185954436Y-84369711D01*
X185881544Y-84274716D01*
X185806766Y-84177263D01*
X185806760Y-84177256D01*
X185635243Y-84005739D01*
X185635236Y-84005733D01*
X185442793Y-83858067D01*
X185442792Y-83858066D01*
X185442789Y-83858064D01*
X185232712Y-83736776D01*
X185232705Y-83736773D01*
X185008604Y-83643947D01*
X184774285Y-83581161D01*
X184533789Y-83549500D01*
X184533788Y-83549500D01*
X184291212Y-83549500D01*
X184291211Y-83549500D01*
X184050714Y-83581161D01*
X183816395Y-83643947D01*
X183592294Y-83736773D01*
X183592285Y-83736777D01*
X183382206Y-83858067D01*
X183189763Y-84005733D01*
X183189756Y-84005739D01*
X183018239Y-84177256D01*
X183018233Y-84177263D01*
X182870570Y-84369702D01*
X182870564Y-84369711D01*
X182843001Y-84417450D01*
X182792432Y-84465664D01*
X182723825Y-84478885D01*
X182700679Y-84474424D01*
X182647815Y-84458901D01*
X182647809Y-84458899D01*
X182557760Y-84445952D01*
X182547655Y-84444500D01*
X176724000Y-84444500D01*
X176723991Y-84444500D01*
X176648429Y-84452625D01*
X176596917Y-84463831D01*
X176539536Y-84481502D01*
X176539534Y-84481503D01*
X176451686Y-84535202D01*
X176439686Y-84542537D01*
X176439681Y-84542541D01*
X176435547Y-84545564D01*
X176434590Y-84544256D01*
X176377597Y-84570264D01*
X176308442Y-84560300D01*
X176272305Y-84535202D01*
X174688984Y-82951881D01*
X174655499Y-82890558D01*
X174660483Y-82820866D01*
X174702355Y-82764933D01*
X174767819Y-82740516D01*
X174776665Y-82740200D01*
X175586261Y-82740200D01*
X175608971Y-82736891D01*
X175654393Y-82730273D01*
X175689523Y-82713098D01*
X175701610Y-82710302D01*
X175709048Y-82705523D01*
X175743983Y-82700500D01*
X175967441Y-82700500D01*
X176034480Y-82720185D01*
X176080235Y-82772989D01*
X176087217Y-82792410D01*
X176089312Y-82800232D01*
X176089313Y-82800236D01*
X176147302Y-82940233D01*
X176239549Y-83060451D01*
X176359767Y-83152698D01*
X176499764Y-83210687D01*
X176612280Y-83225500D01*
X176612287Y-83225500D01*
X177187713Y-83225500D01*
X177187720Y-83225500D01*
X177300236Y-83210687D01*
X177440233Y-83152698D01*
X177560451Y-83060451D01*
X177652698Y-82940233D01*
X177710687Y-82800236D01*
X177725500Y-82687720D01*
X177725500Y-82524234D01*
X188174500Y-82524234D01*
X188174500Y-82675766D01*
X188182473Y-82705523D01*
X188213719Y-82822136D01*
X188230647Y-82851455D01*
X188289485Y-82953365D01*
X188396635Y-83060515D01*
X188527865Y-83136281D01*
X188674234Y-83175500D01*
X188674236Y-83175500D01*
X188825764Y-83175500D01*
X188825766Y-83175500D01*
X188972135Y-83136281D01*
X189103365Y-83060515D01*
X189210515Y-82953365D01*
X189286281Y-82822135D01*
X189325500Y-82675766D01*
X189325500Y-82524234D01*
X189286281Y-82377865D01*
X189210515Y-82246635D01*
X189103365Y-82139485D01*
X189031492Y-82097989D01*
X188972136Y-82063719D01*
X188898950Y-82044109D01*
X188825766Y-82024500D01*
X188674234Y-82024500D01*
X188527863Y-82063719D01*
X188396635Y-82139485D01*
X188396632Y-82139487D01*
X188289487Y-82246632D01*
X188289485Y-82246635D01*
X188213719Y-82377863D01*
X188183380Y-82491093D01*
X188174500Y-82524234D01*
X177725500Y-82524234D01*
X177725500Y-82429387D01*
X177745185Y-82362348D01*
X177761819Y-82341706D01*
X178816706Y-81286819D01*
X178878029Y-81253334D01*
X178904387Y-81250500D01*
X178964607Y-81250500D01*
X178996700Y-81254725D01*
X179074234Y-81275500D01*
X179074236Y-81275500D01*
X179225764Y-81275500D01*
X179225766Y-81275500D01*
X179372135Y-81236281D01*
X179503365Y-81160515D01*
X179610515Y-81053365D01*
X179686281Y-80922135D01*
X179725500Y-80775766D01*
X179725500Y-80624234D01*
X179686281Y-80477865D01*
X179633530Y-80386498D01*
X179617058Y-80318601D01*
X179639910Y-80252574D01*
X179694831Y-80209383D01*
X179740918Y-80200500D01*
X180062035Y-80200500D01*
X180091475Y-80209144D01*
X180121462Y-80215668D01*
X180126477Y-80219422D01*
X180129074Y-80220185D01*
X180149716Y-80236819D01*
X180313181Y-80400284D01*
X180346666Y-80461607D01*
X180349500Y-80487965D01*
X180349500Y-80746062D01*
X180332887Y-80808062D01*
X180263720Y-80927861D01*
X180263720Y-80927862D01*
X180263719Y-80927864D01*
X180263719Y-80927865D01*
X180224500Y-81074234D01*
X180224500Y-81225766D01*
X180234583Y-81263398D01*
X180263719Y-81372136D01*
X180290243Y-81418076D01*
X180339485Y-81503365D01*
X180446635Y-81610515D01*
X180577865Y-81686281D01*
X180724234Y-81725500D01*
X180724236Y-81725500D01*
X180875764Y-81725500D01*
X180875766Y-81725500D01*
X181022135Y-81686281D01*
X181153365Y-81610515D01*
X181260515Y-81503365D01*
X181336281Y-81372135D01*
X181375500Y-81225766D01*
X181375500Y-81074234D01*
X181336281Y-80927865D01*
X181333449Y-80922960D01*
X181267113Y-80808062D01*
X181250500Y-80746062D01*
X181250500Y-80190693D01*
X181250499Y-80190689D01*
X181225178Y-80096185D01*
X181221767Y-80083460D01*
X181219799Y-80076113D01*
X181212643Y-80063719D01*
X181160492Y-79973389D01*
X181160488Y-79973384D01*
X180876614Y-79689511D01*
X180576616Y-79389513D01*
X180576614Y-79389511D01*
X180473887Y-79330201D01*
X180435065Y-79319799D01*
X180435062Y-79319798D01*
X180403045Y-79311219D01*
X180359309Y-79299500D01*
X180359308Y-79299500D01*
X178736965Y-79299500D01*
X178669926Y-79279815D01*
X178624171Y-79227011D01*
X178614227Y-79157853D01*
X178643252Y-79094297D01*
X178649284Y-79087819D01*
X178723706Y-79013397D01*
X179010490Y-78726614D01*
X179057232Y-78645654D01*
X179069798Y-78623889D01*
X179075297Y-78603365D01*
X179079153Y-78588975D01*
X179100500Y-78509309D01*
X179100500Y-78206911D01*
X192659500Y-78206911D01*
X192659500Y-78333088D01*
X192684112Y-78456819D01*
X192684115Y-78456831D01*
X192732394Y-78573388D01*
X192732396Y-78573392D01*
X192802487Y-78678290D01*
X192802493Y-78678298D01*
X192891701Y-78767506D01*
X192891709Y-78767512D01*
X192996607Y-78837603D01*
X192996611Y-78837605D01*
X193113168Y-78885884D01*
X193113173Y-78885886D01*
X193215374Y-78906215D01*
X193236911Y-78910499D01*
X193236914Y-78910500D01*
X193236916Y-78910500D01*
X193363086Y-78910500D01*
X193363087Y-78910499D01*
X193486827Y-78885886D01*
X193585745Y-78844913D01*
X193603388Y-78837605D01*
X193603392Y-78837603D01*
X193655490Y-78802791D01*
X193708295Y-78767509D01*
X193797509Y-78678295D01*
X193840884Y-78613380D01*
X193867603Y-78573392D01*
X193867605Y-78573388D01*
X193890599Y-78517874D01*
X193915886Y-78456827D01*
X193940500Y-78333084D01*
X193940500Y-78206916D01*
X193940500Y-78206913D01*
X193940499Y-78206911D01*
X193934052Y-78174500D01*
X193915886Y-78083173D01*
X193897347Y-78038415D01*
X193867605Y-77966611D01*
X193867603Y-77966607D01*
X193797512Y-77861709D01*
X193797506Y-77861701D01*
X193708298Y-77772493D01*
X193708290Y-77772487D01*
X193603392Y-77702396D01*
X193603388Y-77702394D01*
X193486831Y-77654115D01*
X193486819Y-77654112D01*
X193363087Y-77629500D01*
X193363084Y-77629500D01*
X193236916Y-77629500D01*
X193236913Y-77629500D01*
X193113180Y-77654112D01*
X193113168Y-77654115D01*
X192996611Y-77702394D01*
X192996607Y-77702396D01*
X192891709Y-77772487D01*
X192891701Y-77772493D01*
X192802493Y-77861701D01*
X192802487Y-77861709D01*
X192732396Y-77966607D01*
X192732394Y-77966611D01*
X192684115Y-78083168D01*
X192684112Y-78083180D01*
X192659500Y-78206911D01*
X179100500Y-78206911D01*
X179100500Y-76944500D01*
X179120185Y-76877461D01*
X179172989Y-76831706D01*
X179224500Y-76820500D01*
X181557631Y-76820500D01*
X181624670Y-76840185D01*
X181670425Y-76892989D01*
X181680369Y-76962147D01*
X181669032Y-76998959D01*
X181659428Y-77018604D01*
X181659425Y-77018611D01*
X181649500Y-77086739D01*
X181649500Y-77853260D01*
X181659426Y-77921391D01*
X181659427Y-77921393D01*
X181701273Y-78006992D01*
X181710803Y-78026485D01*
X181793514Y-78109196D01*
X181793515Y-78109196D01*
X181793517Y-78109198D01*
X181898607Y-78160573D01*
X181932673Y-78165536D01*
X181966739Y-78170500D01*
X181966740Y-78170500D01*
X183633261Y-78170500D01*
X183655971Y-78167191D01*
X183701393Y-78160573D01*
X183806483Y-78109198D01*
X183889198Y-78026483D01*
X183940573Y-77921393D01*
X183950500Y-77853260D01*
X183950500Y-77086740D01*
X183940573Y-77018607D01*
X183918990Y-76974459D01*
X183907231Y-76905589D01*
X183918991Y-76865539D01*
X183940573Y-76821392D01*
X183950500Y-76753260D01*
X183950500Y-75986739D01*
X183940573Y-75918607D01*
X183918991Y-75874461D01*
X183907231Y-75805589D01*
X183918991Y-75765539D01*
X183940573Y-75721392D01*
X183946962Y-75677546D01*
X183950500Y-75653260D01*
X183950500Y-74886740D01*
X183944123Y-74842972D01*
X183953936Y-74773795D01*
X183999591Y-74720905D01*
X184066593Y-74701094D01*
X184098912Y-74705317D01*
X184174234Y-74725500D01*
X184174237Y-74725500D01*
X184325764Y-74725500D01*
X184325766Y-74725500D01*
X184472135Y-74686281D01*
X184603365Y-74610515D01*
X184710515Y-74503365D01*
X184786281Y-74372135D01*
X184825500Y-74225766D01*
X184825500Y-74074234D01*
X184786281Y-73927865D01*
X184710515Y-73796635D01*
X184603365Y-73689485D01*
X184537750Y-73651602D01*
X184472136Y-73613719D01*
X184395015Y-73593055D01*
X184325766Y-73574500D01*
X184174234Y-73574500D01*
X184174232Y-73574500D01*
X184104983Y-73593055D01*
X184035133Y-73591392D01*
X183977271Y-73552229D01*
X183949768Y-73488000D01*
X183950188Y-73455395D01*
X183950500Y-73453260D01*
X183950500Y-72686740D01*
X183940573Y-72618607D01*
X183889198Y-72513517D01*
X183889196Y-72513515D01*
X183889196Y-72513514D01*
X183806485Y-72430803D01*
X183795637Y-72425500D01*
X183701393Y-72379427D01*
X183701391Y-72379426D01*
X183633261Y-72369500D01*
X183633260Y-72369500D01*
X181966740Y-72369500D01*
X181966739Y-72369500D01*
X181898608Y-72379426D01*
X181793514Y-72430803D01*
X181710802Y-72513515D01*
X181678319Y-72579961D01*
X181667373Y-72591940D01*
X181660632Y-72606703D01*
X181644291Y-72617204D01*
X181631191Y-72631543D01*
X181614895Y-72636095D01*
X181601854Y-72644477D01*
X181566919Y-72649500D01*
X181503937Y-72649500D01*
X181441937Y-72632887D01*
X181350267Y-72579961D01*
X181322136Y-72563719D01*
X181220163Y-72536396D01*
X181175766Y-72524500D01*
X181024234Y-72524500D01*
X180877863Y-72563719D01*
X180746635Y-72639485D01*
X180746632Y-72639487D01*
X180639487Y-72746632D01*
X180639485Y-72746635D01*
X180563719Y-72877863D01*
X180544251Y-72950521D01*
X180524500Y-73024234D01*
X180524500Y-73175766D01*
X180540801Y-73236603D01*
X180563719Y-73322136D01*
X180574166Y-73340230D01*
X180639485Y-73453365D01*
X180746635Y-73560515D01*
X180877865Y-73636281D01*
X181024234Y-73675500D01*
X181024236Y-73675500D01*
X181175764Y-73675500D01*
X181175766Y-73675500D01*
X181322135Y-73636281D01*
X181441937Y-73567112D01*
X181457425Y-73562962D01*
X181469002Y-73555523D01*
X181503937Y-73550500D01*
X181543271Y-73550500D01*
X181610310Y-73570185D01*
X181656065Y-73622989D01*
X181666009Y-73692147D01*
X181661745Y-73711106D01*
X181659426Y-73718611D01*
X181649500Y-73786739D01*
X181649500Y-74553260D01*
X181659425Y-74621388D01*
X181659428Y-74621395D01*
X181669032Y-74641041D01*
X181680790Y-74709915D01*
X181653446Y-74774211D01*
X181595681Y-74813518D01*
X181557631Y-74819500D01*
X178470691Y-74819500D01*
X178380325Y-74843713D01*
X178380324Y-74843712D01*
X178356116Y-74850199D01*
X178356113Y-74850200D01*
X178253382Y-74909513D01*
X178249987Y-74912119D01*
X178246605Y-74913426D01*
X178246348Y-74913575D01*
X178246324Y-74913534D01*
X178184818Y-74937314D01*
X178116373Y-74923276D01*
X178066383Y-74874463D01*
X178050500Y-74813744D01*
X178050500Y-72737965D01*
X178070185Y-72670926D01*
X178086819Y-72650284D01*
X179380284Y-71356819D01*
X179441607Y-71323334D01*
X179467965Y-71320500D01*
X181581585Y-71320500D01*
X181648624Y-71340185D01*
X181692985Y-71390039D01*
X181710802Y-71426484D01*
X181793514Y-71509196D01*
X181793515Y-71509196D01*
X181793517Y-71509198D01*
X181898607Y-71560573D01*
X181906109Y-71561666D01*
X181966739Y-71570500D01*
X181966740Y-71570500D01*
X183633261Y-71570500D01*
X183661805Y-71566341D01*
X183701393Y-71560573D01*
X183760714Y-71531573D01*
X186401170Y-71531573D01*
X186401170Y-71683104D01*
X186440389Y-71829475D01*
X186441539Y-71831466D01*
X186516155Y-71960704D01*
X186623305Y-72067854D01*
X186754535Y-72143620D01*
X186900904Y-72182839D01*
X186900906Y-72182839D01*
X187052434Y-72182839D01*
X187052436Y-72182839D01*
X187052437Y-72182838D01*
X187060492Y-72181778D01*
X187060922Y-72185049D01*
X187115375Y-72186323D01*
X187173254Y-72225460D01*
X187200787Y-72289676D01*
X187201670Y-72304451D01*
X187201670Y-78121670D01*
X189203040Y-78121670D01*
X189203040Y-70206911D01*
X192659500Y-70206911D01*
X192659500Y-70333088D01*
X192684112Y-70456819D01*
X192684115Y-70456831D01*
X192732394Y-70573388D01*
X192732396Y-70573392D01*
X192802487Y-70678290D01*
X192802493Y-70678298D01*
X192891701Y-70767506D01*
X192891709Y-70767512D01*
X192996607Y-70837603D01*
X192996611Y-70837605D01*
X193094813Y-70878281D01*
X193113173Y-70885886D01*
X193197693Y-70902698D01*
X193236911Y-70910499D01*
X193236914Y-70910500D01*
X193236916Y-70910500D01*
X193363086Y-70910500D01*
X193363087Y-70910499D01*
X193486827Y-70885886D01*
X193603390Y-70837604D01*
X193603392Y-70837603D01*
X193700189Y-70772925D01*
X193708295Y-70767509D01*
X193797509Y-70678295D01*
X193849490Y-70600500D01*
X193867603Y-70573392D01*
X193867605Y-70573388D01*
X193894848Y-70507618D01*
X193915886Y-70456827D01*
X193940500Y-70333084D01*
X193940500Y-70206916D01*
X193940500Y-70206913D01*
X193940499Y-70206911D01*
X193929827Y-70153260D01*
X193915886Y-70083173D01*
X193886039Y-70011115D01*
X193867605Y-69966611D01*
X193867603Y-69966607D01*
X193797512Y-69861709D01*
X193797506Y-69861701D01*
X193708298Y-69772493D01*
X193708290Y-69772487D01*
X193603392Y-69702396D01*
X193603388Y-69702394D01*
X193486831Y-69654115D01*
X193486819Y-69654112D01*
X193363087Y-69629500D01*
X193363084Y-69629500D01*
X193236916Y-69629500D01*
X193236913Y-69629500D01*
X193113180Y-69654112D01*
X193113168Y-69654115D01*
X192996611Y-69702394D01*
X192996607Y-69702396D01*
X192891709Y-69772487D01*
X192891701Y-69772493D01*
X192802493Y-69861701D01*
X192802487Y-69861709D01*
X192732396Y-69966607D01*
X192732394Y-69966611D01*
X192684115Y-70083168D01*
X192684112Y-70083180D01*
X192659500Y-70206911D01*
X189203040Y-70206911D01*
X189203040Y-69116960D01*
X187201670Y-69116960D01*
X187201670Y-70910226D01*
X187181985Y-70977265D01*
X187129181Y-71023020D01*
X187060492Y-71032896D01*
X187060492Y-71032900D01*
X187060479Y-71032898D01*
X187060023Y-71032964D01*
X187058304Y-71032611D01*
X187052437Y-71031839D01*
X187052436Y-71031839D01*
X186900904Y-71031839D01*
X186754533Y-71071058D01*
X186623305Y-71146824D01*
X186623302Y-71146826D01*
X186516157Y-71253971D01*
X186516155Y-71253974D01*
X186440389Y-71385202D01*
X186401170Y-71531573D01*
X183760714Y-71531573D01*
X183806483Y-71509198D01*
X183832055Y-71483626D01*
X183879917Y-71435765D01*
X183889196Y-71426485D01*
X183889198Y-71426483D01*
X183940573Y-71321393D01*
X183950500Y-71253260D01*
X183950500Y-70486740D01*
X183950346Y-70485686D01*
X183940573Y-70418607D01*
X183919622Y-70375751D01*
X183918990Y-70374459D01*
X183907231Y-70305589D01*
X183918991Y-70265539D01*
X183940573Y-70221393D01*
X183950500Y-70153260D01*
X183950500Y-69386740D01*
X183946948Y-69362364D01*
X183940573Y-69318607D01*
X183936715Y-69310716D01*
X183918990Y-69274459D01*
X183907231Y-69205589D01*
X183918991Y-69165539D01*
X183940573Y-69121393D01*
X183950500Y-69053260D01*
X183950500Y-68286740D01*
X183940573Y-68218607D01*
X183889198Y-68113517D01*
X183889196Y-68113515D01*
X183889196Y-68113514D01*
X183806485Y-68030803D01*
X183701391Y-67979426D01*
X183633261Y-67969500D01*
X183633260Y-67969500D01*
X181966740Y-67969500D01*
X181966739Y-67969500D01*
X181898608Y-67979426D01*
X181793514Y-68030803D01*
X181710803Y-68113514D01*
X181659426Y-68218608D01*
X181649500Y-68286739D01*
X181649500Y-69053260D01*
X181659425Y-69121388D01*
X181659428Y-69121395D01*
X181681009Y-69165541D01*
X181692767Y-69234414D01*
X181681009Y-69274459D01*
X181659428Y-69318604D01*
X181659425Y-69318611D01*
X181649500Y-69386739D01*
X181649500Y-70153260D01*
X181659425Y-70221388D01*
X181659428Y-70221395D01*
X181669032Y-70241041D01*
X181680790Y-70309915D01*
X181653446Y-70374211D01*
X181595681Y-70413518D01*
X181557631Y-70419500D01*
X179666966Y-70419500D01*
X179599927Y-70399815D01*
X179554172Y-70347011D01*
X179544228Y-70277853D01*
X179573253Y-70214297D01*
X179579285Y-70207819D01*
X179820497Y-69966607D01*
X180110490Y-69676614D01*
X180169799Y-69573887D01*
X180176285Y-69549675D01*
X180176286Y-69549675D01*
X180176286Y-69549671D01*
X180200500Y-69459309D01*
X180200500Y-63278711D01*
X182562000Y-63278711D01*
X182562000Y-63521288D01*
X182593661Y-63761785D01*
X182656447Y-63996104D01*
X182663196Y-64012397D01*
X182749276Y-64220212D01*
X182870564Y-64430289D01*
X182870566Y-64430292D01*
X182870567Y-64430293D01*
X183018233Y-64622736D01*
X183018239Y-64622743D01*
X183189756Y-64794260D01*
X183189762Y-64794265D01*
X183382211Y-64941936D01*
X183592288Y-65063224D01*
X183816400Y-65156054D01*
X184050711Y-65218838D01*
X184231086Y-65242584D01*
X184291211Y-65250500D01*
X184291212Y-65250500D01*
X184533789Y-65250500D01*
X184581888Y-65244167D01*
X184774289Y-65218838D01*
X185008600Y-65156054D01*
X185232712Y-65063224D01*
X185442789Y-64941936D01*
X185635238Y-64794265D01*
X185806765Y-64622738D01*
X185954436Y-64430289D01*
X186075724Y-64220212D01*
X186168554Y-63996100D01*
X186231338Y-63761789D01*
X186263000Y-63521288D01*
X186263000Y-63278712D01*
X186261877Y-63270185D01*
X186251628Y-63192331D01*
X186231338Y-63038211D01*
X186168554Y-62803900D01*
X186075724Y-62579788D01*
X185954436Y-62369711D01*
X185868496Y-62257711D01*
X185806766Y-62177263D01*
X185806760Y-62177256D01*
X185635243Y-62005739D01*
X185635236Y-62005733D01*
X185442793Y-61858067D01*
X185442792Y-61858066D01*
X185442789Y-61858064D01*
X185232712Y-61736776D01*
X185232705Y-61736773D01*
X185008604Y-61643947D01*
X184808142Y-61590233D01*
X184774289Y-61581162D01*
X184774288Y-61581161D01*
X184774285Y-61581161D01*
X184533789Y-61549500D01*
X184533788Y-61549500D01*
X184291212Y-61549500D01*
X184291211Y-61549500D01*
X184050714Y-61581161D01*
X183816395Y-61643947D01*
X183592294Y-61736773D01*
X183592285Y-61736777D01*
X183382206Y-61858067D01*
X183189763Y-62005733D01*
X183189756Y-62005739D01*
X183018239Y-62177256D01*
X183018233Y-62177263D01*
X182870567Y-62369706D01*
X182870564Y-62369710D01*
X182870564Y-62369711D01*
X182864508Y-62380201D01*
X182749277Y-62579785D01*
X182749273Y-62579794D01*
X182656447Y-62803895D01*
X182593661Y-63038214D01*
X182562000Y-63278711D01*
X180200500Y-63278711D01*
X180200500Y-63240691D01*
X180169799Y-63126114D01*
X180169799Y-63126113D01*
X180110489Y-63023386D01*
X179651614Y-62564511D01*
X179600250Y-62534856D01*
X179548888Y-62505201D01*
X179536780Y-62501957D01*
X179524673Y-62498713D01*
X179524670Y-62498712D01*
X179486478Y-62488478D01*
X179434309Y-62474500D01*
X179434308Y-62474500D01*
X177961663Y-62474500D01*
X177894624Y-62454815D01*
X177857744Y-62416138D01*
X177857645Y-62416215D01*
X177856934Y-62415288D01*
X177854276Y-62412501D01*
X177852698Y-62409768D01*
X177852698Y-62409767D01*
X177760451Y-62289549D01*
X177640233Y-62197302D01*
X177640229Y-62197300D01*
X177570752Y-62168522D01*
X177500236Y-62139313D01*
X177486171Y-62137461D01*
X177387727Y-62124500D01*
X177387720Y-62124500D01*
X176812280Y-62124500D01*
X176812272Y-62124500D01*
X176699764Y-62139313D01*
X176699763Y-62139313D01*
X176559770Y-62197300D01*
X176559767Y-62197301D01*
X176559767Y-62197302D01*
X176439549Y-62289549D01*
X176439548Y-62289550D01*
X176439547Y-62289551D01*
X176382646Y-62363705D01*
X176367157Y-62375014D01*
X176355145Y-62389967D01*
X176339523Y-62395192D01*
X176326218Y-62404908D01*
X176307070Y-62406048D01*
X176288884Y-62412132D01*
X176272917Y-62408082D01*
X176256472Y-62409062D01*
X176239747Y-62399669D01*
X176221159Y-62394955D01*
X176204083Y-62379640D01*
X176195552Y-62374849D01*
X176193644Y-62372851D01*
X176189042Y-62367923D01*
X176132546Y-62292454D01*
X176086083Y-62257671D01*
X176078576Y-62249633D01*
X176067631Y-62227850D01*
X176053021Y-62208333D01*
X176052223Y-62197185D01*
X176047207Y-62187201D01*
X176049776Y-62162958D01*
X176048037Y-62138641D01*
X176053392Y-62128833D01*
X176054570Y-62117720D01*
X176069838Y-62098714D01*
X176081522Y-62077318D01*
X176094885Y-62065738D01*
X176132546Y-62037546D01*
X176218796Y-61922331D01*
X176269091Y-61787483D01*
X176275500Y-61727873D01*
X176275499Y-61332128D01*
X176269091Y-61272517D01*
X176251653Y-61225764D01*
X176219454Y-61139433D01*
X176219453Y-61139432D01*
X176218796Y-61137669D01*
X176171309Y-61074234D01*
X185624500Y-61074234D01*
X185624500Y-61225766D01*
X185637027Y-61272517D01*
X185663719Y-61372136D01*
X185701602Y-61437750D01*
X185739485Y-61503365D01*
X185846635Y-61610515D01*
X185977865Y-61686281D01*
X186124234Y-61725500D01*
X186124236Y-61725500D01*
X186275764Y-61725500D01*
X186275766Y-61725500D01*
X186422135Y-61686281D01*
X186553365Y-61610515D01*
X186660515Y-61503365D01*
X186736281Y-61372135D01*
X186775500Y-61225766D01*
X186775500Y-61074234D01*
X186736281Y-60927865D01*
X186660515Y-60796635D01*
X186553365Y-60689485D01*
X186487750Y-60651602D01*
X186422136Y-60613719D01*
X186346437Y-60593436D01*
X186275766Y-60574500D01*
X186124234Y-60574500D01*
X185977863Y-60613719D01*
X185846635Y-60689485D01*
X185846632Y-60689487D01*
X185739487Y-60796632D01*
X185739485Y-60796635D01*
X185663719Y-60927863D01*
X185625184Y-61071681D01*
X185624500Y-61074234D01*
X176171309Y-61074234D01*
X176132546Y-61022454D01*
X176084659Y-60986605D01*
X176076207Y-60977023D01*
X176066607Y-60956483D01*
X176053021Y-60938333D01*
X176052098Y-60925437D01*
X176046625Y-60913725D01*
X176049654Y-60891255D01*
X176048037Y-60868641D01*
X176054232Y-60857294D01*
X176055960Y-60844482D01*
X176070655Y-60827217D01*
X176081522Y-60807318D01*
X176094885Y-60795738D01*
X176132546Y-60767546D01*
X176218796Y-60652331D01*
X176237059Y-60603365D01*
X176254663Y-60556167D01*
X176267932Y-60538440D01*
X176277132Y-60518297D01*
X176288462Y-60511015D01*
X176296534Y-60500233D01*
X176317282Y-60492494D01*
X176335910Y-60480523D01*
X176357826Y-60477371D01*
X176361998Y-60475816D01*
X176370845Y-60475500D01*
X176538337Y-60475500D01*
X176605376Y-60495185D01*
X176642255Y-60533861D01*
X176642355Y-60533785D01*
X176643065Y-60534711D01*
X176645724Y-60537499D01*
X176647301Y-60540231D01*
X176647302Y-60540233D01*
X176739549Y-60660451D01*
X176859767Y-60752698D01*
X176999764Y-60810687D01*
X177112280Y-60825500D01*
X177112287Y-60825500D01*
X177687713Y-60825500D01*
X177687720Y-60825500D01*
X177800236Y-60810687D01*
X177940233Y-60752698D01*
X178060451Y-60660451D01*
X178120408Y-60582313D01*
X178176834Y-60541113D01*
X178246580Y-60536958D01*
X178307501Y-60571170D01*
X178317586Y-60582877D01*
X178382077Y-60667922D01*
X178502656Y-60759360D01*
X178502657Y-60759360D01*
X178502658Y-60759361D01*
X178643436Y-60814877D01*
X178731898Y-60825500D01*
X178731903Y-60825500D01*
X179218097Y-60825500D01*
X179218102Y-60825500D01*
X179306564Y-60814877D01*
X179447342Y-60759361D01*
X179567922Y-60667922D01*
X179659361Y-60547342D01*
X179684646Y-60483223D01*
X179727551Y-60428081D01*
X179793459Y-60404888D01*
X179861443Y-60421008D01*
X179909920Y-60471325D01*
X179915350Y-60483214D01*
X179928864Y-60517483D01*
X179940639Y-60547343D01*
X180032077Y-60667922D01*
X180152656Y-60759360D01*
X180152657Y-60759360D01*
X180152658Y-60759361D01*
X180293436Y-60814877D01*
X180381898Y-60825500D01*
X180381903Y-60825500D01*
X180868097Y-60825500D01*
X180868102Y-60825500D01*
X180956564Y-60814877D01*
X181097342Y-60759361D01*
X181217922Y-60667922D01*
X181258822Y-60613986D01*
X181315014Y-60572464D01*
X181384735Y-60567912D01*
X181419625Y-60581524D01*
X181427862Y-60586280D01*
X181427864Y-60586280D01*
X181427865Y-60586281D01*
X181574234Y-60625500D01*
X181574236Y-60625500D01*
X181725764Y-60625500D01*
X181725766Y-60625500D01*
X181872135Y-60586281D01*
X182003365Y-60510515D01*
X182110515Y-60403365D01*
X182186281Y-60272135D01*
X182199116Y-60224234D01*
X182824500Y-60224234D01*
X182824500Y-60375766D01*
X182838518Y-60428081D01*
X182863719Y-60522136D01*
X182896544Y-60578990D01*
X182939485Y-60653365D01*
X183046635Y-60760515D01*
X183177865Y-60836281D01*
X183324234Y-60875500D01*
X183324236Y-60875500D01*
X183475764Y-60875500D01*
X183475766Y-60875500D01*
X183622135Y-60836281D01*
X183753365Y-60760515D01*
X183860515Y-60653365D01*
X183936281Y-60522135D01*
X183975500Y-60375766D01*
X183975500Y-60224234D01*
X183962103Y-60174234D01*
X186724500Y-60174234D01*
X186724500Y-60325766D01*
X186737897Y-60375764D01*
X186763719Y-60472136D01*
X186792587Y-60522136D01*
X186839485Y-60603365D01*
X186946635Y-60710515D01*
X187077865Y-60786281D01*
X187224234Y-60825500D01*
X187224236Y-60825500D01*
X187375764Y-60825500D01*
X187375766Y-60825500D01*
X187522135Y-60786281D01*
X187653365Y-60710515D01*
X187760515Y-60603365D01*
X187836281Y-60472135D01*
X187875500Y-60325766D01*
X187875500Y-60174234D01*
X187836281Y-60027865D01*
X187760515Y-59896635D01*
X187653365Y-59789485D01*
X187587750Y-59751602D01*
X187522136Y-59713719D01*
X187448950Y-59694109D01*
X187375766Y-59674500D01*
X187224234Y-59674500D01*
X187077863Y-59713719D01*
X186946635Y-59789485D01*
X186946632Y-59789487D01*
X186839487Y-59896632D01*
X186839485Y-59896635D01*
X186763719Y-60027863D01*
X186737487Y-60125766D01*
X186724500Y-60174234D01*
X183962103Y-60174234D01*
X183936281Y-60077865D01*
X183860515Y-59946635D01*
X183753365Y-59839485D01*
X183687750Y-59801602D01*
X183622136Y-59763719D01*
X183548950Y-59744109D01*
X183475766Y-59724500D01*
X183324234Y-59724500D01*
X183177863Y-59763719D01*
X183046635Y-59839485D01*
X183046632Y-59839487D01*
X182939487Y-59946632D01*
X182939485Y-59946635D01*
X182863719Y-60077863D01*
X182831476Y-60198200D01*
X182824500Y-60224234D01*
X182199116Y-60224234D01*
X182225500Y-60125766D01*
X182225500Y-59974234D01*
X182186281Y-59827865D01*
X182110515Y-59696635D01*
X182003365Y-59589485D01*
X181934109Y-59549500D01*
X181872136Y-59513719D01*
X181760452Y-59483794D01*
X181725766Y-59474500D01*
X181574234Y-59474500D01*
X181447708Y-59508402D01*
X181377858Y-59506739D01*
X181319996Y-59467576D01*
X181313579Y-59458221D01*
X181309361Y-59452659D01*
X181309361Y-59452658D01*
X181251052Y-59375766D01*
X181217922Y-59332077D01*
X181097343Y-59240639D01*
X180956561Y-59185122D01*
X180910926Y-59179642D01*
X180868102Y-59174500D01*
X180381898Y-59174500D01*
X180342853Y-59179188D01*
X180293438Y-59185122D01*
X180152656Y-59240639D01*
X180032077Y-59332077D01*
X179940638Y-59452658D01*
X179940637Y-59452660D01*
X179915354Y-59516774D01*
X179872449Y-59571918D01*
X179806541Y-59595111D01*
X179738556Y-59578990D01*
X179690080Y-59528673D01*
X179684646Y-59516774D01*
X179659362Y-59452660D01*
X179659361Y-59452658D01*
X179567922Y-59332077D01*
X179447343Y-59240639D01*
X179306561Y-59185122D01*
X179260926Y-59179642D01*
X179218102Y-59174500D01*
X178731898Y-59174500D01*
X178692853Y-59179188D01*
X178643438Y-59185122D01*
X178502656Y-59240639D01*
X178382077Y-59332077D01*
X178298516Y-59442270D01*
X178242323Y-59483794D01*
X178172602Y-59488345D01*
X178111488Y-59454480D01*
X178101337Y-59442832D01*
X178082594Y-59418406D01*
X178060451Y-59389549D01*
X177940233Y-59297302D01*
X177940229Y-59297300D01*
X177846615Y-59258524D01*
X177800236Y-59239313D01*
X177786171Y-59237461D01*
X177687727Y-59224500D01*
X177687720Y-59224500D01*
X177112280Y-59224500D01*
X177112272Y-59224500D01*
X176999764Y-59239313D01*
X176999763Y-59239313D01*
X176859770Y-59297300D01*
X176859767Y-59297301D01*
X176859767Y-59297302D01*
X176813344Y-59332924D01*
X176739549Y-59389549D01*
X176647301Y-59509768D01*
X176645724Y-59512501D01*
X176643789Y-59514345D01*
X176642355Y-59516215D01*
X176642063Y-59515991D01*
X176595156Y-59560716D01*
X176538337Y-59574500D01*
X175533849Y-59574500D01*
X175466810Y-59554815D01*
X175421055Y-59502011D01*
X175411111Y-59432853D01*
X175414071Y-59418418D01*
X175425500Y-59375766D01*
X175425500Y-59224234D01*
X175386281Y-59077865D01*
X175310515Y-58946635D01*
X175203365Y-58839485D01*
X175072135Y-58763719D01*
X174938510Y-58727914D01*
X174882924Y-58695821D01*
X174426616Y-58239513D01*
X174426614Y-58239511D01*
X174375250Y-58209856D01*
X174323888Y-58180201D01*
X174311780Y-58176957D01*
X174299673Y-58173713D01*
X174299670Y-58173712D01*
X174261478Y-58163478D01*
X174209309Y-58149500D01*
X164740691Y-58149500D01*
X164650325Y-58173713D01*
X164650324Y-58173712D01*
X164626116Y-58180199D01*
X164626113Y-58180200D01*
X164523386Y-58239511D01*
X164523383Y-58239513D01*
X163989513Y-58773383D01*
X163989509Y-58773389D01*
X163930201Y-58876112D01*
X163930200Y-58876117D01*
X163899500Y-58990691D01*
X163899500Y-60162486D01*
X163879815Y-60229525D01*
X163850425Y-60261290D01*
X163757077Y-60332077D01*
X163665639Y-60452656D01*
X163610122Y-60593438D01*
X163604188Y-60642853D01*
X163599500Y-60681898D01*
X163599500Y-61318102D01*
X163605126Y-61364954D01*
X163610122Y-61406561D01*
X163665639Y-61547343D01*
X163757077Y-61667922D01*
X163877656Y-61759360D01*
X163877657Y-61759360D01*
X163877658Y-61759361D01*
X164018436Y-61814877D01*
X164106898Y-61825500D01*
X164106903Y-61825500D01*
X164593097Y-61825500D01*
X164593102Y-61825500D01*
X164681564Y-61814877D01*
X164822342Y-61759361D01*
X164942922Y-61667922D01*
X165034361Y-61547342D01*
X165059646Y-61483223D01*
X165102551Y-61428081D01*
X165168459Y-61404888D01*
X165236443Y-61421008D01*
X165284920Y-61471325D01*
X165290350Y-61483214D01*
X165305886Y-61522612D01*
X165315639Y-61547343D01*
X165407077Y-61667922D01*
X165527656Y-61759360D01*
X165527657Y-61759360D01*
X165527658Y-61759361D01*
X165668436Y-61814877D01*
X165756898Y-61825500D01*
X165756903Y-61825500D01*
X166243097Y-61825500D01*
X166243102Y-61825500D01*
X166331564Y-61814877D01*
X166472342Y-61759361D01*
X166592922Y-61667922D01*
X166611104Y-61643946D01*
X166663710Y-61574575D01*
X166667066Y-61572094D01*
X166668801Y-61568297D01*
X166694928Y-61551506D01*
X166719903Y-61533051D01*
X166725070Y-61532135D01*
X166727579Y-61530523D01*
X166762514Y-61525500D01*
X166788337Y-61525500D01*
X166855376Y-61545185D01*
X166892255Y-61583861D01*
X166892355Y-61583785D01*
X166893065Y-61584711D01*
X166895724Y-61587499D01*
X166897301Y-61590231D01*
X166897302Y-61590233D01*
X166989549Y-61710451D01*
X167109767Y-61802698D01*
X167249764Y-61860687D01*
X167362280Y-61875500D01*
X167769199Y-61875500D01*
X167784688Y-61879650D01*
X167798435Y-61878996D01*
X167831200Y-61892114D01*
X167832932Y-61893114D01*
X167881147Y-61943681D01*
X167894369Y-62012289D01*
X167868401Y-62077153D01*
X167811486Y-62117681D01*
X167770931Y-62124500D01*
X167612272Y-62124500D01*
X167499764Y-62139313D01*
X167499763Y-62139313D01*
X167359770Y-62197300D01*
X167359767Y-62197301D01*
X167359767Y-62197302D01*
X167239549Y-62289549D01*
X167148911Y-62407671D01*
X167147300Y-62409770D01*
X167089313Y-62549763D01*
X167089313Y-62549764D01*
X167074500Y-62662272D01*
X167074500Y-63187727D01*
X167089313Y-63300235D01*
X167089313Y-63300236D01*
X167146169Y-63437499D01*
X167147302Y-63440233D01*
X167239549Y-63560451D01*
X167359767Y-63652698D01*
X167499764Y-63710687D01*
X167612280Y-63725500D01*
X167612287Y-63725500D01*
X168187713Y-63725500D01*
X168187720Y-63725500D01*
X168300236Y-63710687D01*
X168440233Y-63652698D01*
X168518352Y-63592754D01*
X168583520Y-63567560D01*
X168651965Y-63581598D01*
X168701955Y-63630411D01*
X168717619Y-63698503D01*
X168710020Y-63734462D01*
X168680910Y-63812511D01*
X168680909Y-63812515D01*
X168680909Y-63812517D01*
X168674500Y-63872127D01*
X168674500Y-63872134D01*
X168674500Y-63872135D01*
X168674500Y-64267870D01*
X168674501Y-64267876D01*
X168680908Y-64327483D01*
X168731202Y-64462328D01*
X168731206Y-64462335D01*
X168817452Y-64577544D01*
X168817455Y-64577547D01*
X168932664Y-64663793D01*
X168932671Y-64663797D01*
X169067517Y-64714091D01*
X169067516Y-64714091D01*
X169074444Y-64714835D01*
X169127127Y-64720500D01*
X170872872Y-64720499D01*
X170932483Y-64714091D01*
X171067331Y-64663796D01*
X171182546Y-64577546D01*
X171268796Y-64462331D01*
X171319091Y-64327483D01*
X171325500Y-64267873D01*
X171325499Y-63872128D01*
X171319091Y-63812517D01*
X171300169Y-63761785D01*
X171268797Y-63677671D01*
X171268793Y-63677664D01*
X171182547Y-63562456D01*
X171182548Y-63562456D01*
X171182546Y-63562454D01*
X171144890Y-63534265D01*
X171132064Y-63517130D01*
X171115716Y-63503312D01*
X171111542Y-63489716D01*
X171103021Y-63478333D01*
X171101494Y-63456983D01*
X171095212Y-63436519D01*
X171099051Y-63422824D01*
X171098037Y-63408641D01*
X171108295Y-63389854D01*
X171114074Y-63369243D01*
X171127553Y-63354586D01*
X171131522Y-63347318D01*
X171136859Y-63342289D01*
X171140739Y-63338842D01*
X171182546Y-63307546D01*
X171195581Y-63290133D01*
X171204976Y-63281789D01*
X171225669Y-63272030D01*
X171243985Y-63258319D01*
X171261411Y-63255174D01*
X171268171Y-63251987D01*
X171274484Y-63252815D01*
X171287320Y-63250500D01*
X171537035Y-63250500D01*
X171604074Y-63270185D01*
X171624716Y-63286819D01*
X176298386Y-67960489D01*
X176401113Y-68019799D01*
X176425321Y-68026284D01*
X176425324Y-68026286D01*
X176425325Y-68026286D01*
X176442179Y-68030802D01*
X176515691Y-68050500D01*
X177600500Y-68050500D01*
X177667539Y-68070185D01*
X177713294Y-68122989D01*
X177724500Y-68174500D01*
X177724500Y-69264278D01*
X177704815Y-69331317D01*
X177652011Y-69377072D01*
X177584314Y-69387216D01*
X177569323Y-69385243D01*
X177487727Y-69374500D01*
X177487720Y-69374500D01*
X176912280Y-69374500D01*
X176912272Y-69374500D01*
X176799764Y-69389313D01*
X176799763Y-69389313D01*
X176659770Y-69447300D01*
X176659767Y-69447301D01*
X176659767Y-69447302D01*
X176539549Y-69539549D01*
X176454038Y-69650988D01*
X176397612Y-69692189D01*
X176355664Y-69699500D01*
X176020492Y-69699500D01*
X175953453Y-69679815D01*
X175907698Y-69627011D01*
X175905931Y-69622953D01*
X175891467Y-69588034D01*
X175874536Y-69547159D01*
X175778282Y-69421718D01*
X175652841Y-69325464D01*
X175636296Y-69318611D01*
X175506762Y-69264956D01*
X175506760Y-69264955D01*
X175389370Y-69249501D01*
X175389367Y-69249500D01*
X175389361Y-69249500D01*
X175389354Y-69249500D01*
X173910636Y-69249500D01*
X173793246Y-69264953D01*
X173793237Y-69264956D01*
X173647160Y-69325463D01*
X173521718Y-69421718D01*
X173425463Y-69547160D01*
X173394069Y-69622953D01*
X173350228Y-69677356D01*
X173283934Y-69699421D01*
X173279508Y-69699500D01*
X173190691Y-69699500D01*
X173104758Y-69722525D01*
X173076113Y-69730201D01*
X173060004Y-69739502D01*
X172973389Y-69789508D01*
X172973384Y-69789512D01*
X170436181Y-72326716D01*
X170374858Y-72360201D01*
X170305166Y-72355217D01*
X170249233Y-72313345D01*
X170224816Y-72247881D01*
X170224500Y-72239035D01*
X170224500Y-69263964D01*
X170244185Y-69196925D01*
X170260815Y-69176287D01*
X170650284Y-68786817D01*
X170711607Y-68753333D01*
X170737965Y-68750499D01*
X171689363Y-68750499D01*
X171806753Y-68735046D01*
X171806757Y-68735044D01*
X171806762Y-68735044D01*
X171952841Y-68674536D01*
X172078282Y-68578282D01*
X172174536Y-68452841D01*
X172235044Y-68306762D01*
X172250500Y-68189361D01*
X172250499Y-67510640D01*
X172250499Y-67510638D01*
X172250499Y-67510636D01*
X172235046Y-67393246D01*
X172235044Y-67393239D01*
X172235044Y-67393238D01*
X172174536Y-67247159D01*
X172078282Y-67121718D01*
X171952841Y-67025464D01*
X171899440Y-67003344D01*
X171845038Y-66959503D01*
X171822974Y-66893209D01*
X171840254Y-66825510D01*
X171871406Y-66790411D01*
X171910451Y-66760451D01*
X172002698Y-66640233D01*
X172060687Y-66500236D01*
X172075500Y-66387720D01*
X172075500Y-65812280D01*
X172060687Y-65699764D01*
X172002698Y-65559767D01*
X171910451Y-65439549D01*
X171790233Y-65347302D01*
X171790229Y-65347300D01*
X171726801Y-65321027D01*
X171650236Y-65289313D01*
X171636171Y-65287461D01*
X171537727Y-65274500D01*
X171537720Y-65274500D01*
X171012280Y-65274500D01*
X171012272Y-65274500D01*
X170899764Y-65289313D01*
X170899763Y-65289313D01*
X170759770Y-65347300D01*
X170759767Y-65347301D01*
X170759767Y-65347302D01*
X170742549Y-65360514D01*
X170639549Y-65439549D01*
X170547300Y-65559770D01*
X170489313Y-65699763D01*
X170489313Y-65699764D01*
X170474500Y-65812272D01*
X170474500Y-66387727D01*
X170489313Y-66500237D01*
X170490061Y-66502042D01*
X170490823Y-66505873D01*
X170491417Y-66508090D01*
X170491271Y-66508128D01*
X170499500Y-66549495D01*
X170499500Y-66825500D01*
X170479815Y-66892539D01*
X170427011Y-66938294D01*
X170375501Y-66949500D01*
X170210636Y-66949500D01*
X170093246Y-66964953D01*
X170093237Y-66964956D01*
X169947160Y-67025463D01*
X169821718Y-67121718D01*
X169725463Y-67247160D01*
X169664956Y-67393237D01*
X169664955Y-67393239D01*
X169649500Y-67510638D01*
X169649500Y-68189363D01*
X169664953Y-68306753D01*
X169664956Y-68306762D01*
X169689244Y-68365398D01*
X169696713Y-68434868D01*
X169665438Y-68497347D01*
X169662364Y-68500532D01*
X169413513Y-68749383D01*
X169413509Y-68749389D01*
X169354201Y-68852112D01*
X169354200Y-68852117D01*
X169323500Y-68966691D01*
X169323500Y-72237034D01*
X169303815Y-72304073D01*
X169251011Y-72349828D01*
X169181853Y-72359772D01*
X169118297Y-72330747D01*
X169111819Y-72324715D01*
X168347677Y-71560573D01*
X167567886Y-70780783D01*
X167534402Y-70719461D01*
X167539386Y-70649769D01*
X167581258Y-70593836D01*
X167646722Y-70569419D01*
X167671747Y-70570163D01*
X167712280Y-70575500D01*
X167712287Y-70575500D01*
X168287713Y-70575500D01*
X168287720Y-70575500D01*
X168400236Y-70560687D01*
X168540233Y-70502698D01*
X168660451Y-70410451D01*
X168752698Y-70290233D01*
X168810687Y-70150236D01*
X168825500Y-70037720D01*
X168825500Y-69512280D01*
X168810687Y-69399764D01*
X168752698Y-69259767D01*
X168660451Y-69139549D01*
X168540233Y-69047302D01*
X168540229Y-69047300D01*
X168476801Y-69021027D01*
X168400236Y-68989313D01*
X168386171Y-68987461D01*
X168287727Y-68974500D01*
X168287720Y-68974500D01*
X167712280Y-68974500D01*
X167712272Y-68974500D01*
X167599764Y-68989313D01*
X167599763Y-68989313D01*
X167459770Y-69047300D01*
X167459767Y-69047301D01*
X167459767Y-69047302D01*
X167368987Y-69116960D01*
X167339549Y-69139549D01*
X167247301Y-69259768D01*
X167245724Y-69262501D01*
X167243789Y-69264345D01*
X167242355Y-69266215D01*
X167242063Y-69265991D01*
X167195156Y-69310716D01*
X167138337Y-69324500D01*
X166806184Y-69324500D01*
X166739145Y-69304815D01*
X166737293Y-69303602D01*
X166627870Y-69230487D01*
X166627857Y-69230480D01*
X166490372Y-69173533D01*
X166490363Y-69173530D01*
X166344414Y-69144500D01*
X166344410Y-69144500D01*
X166195590Y-69144500D01*
X166195585Y-69144500D01*
X166049636Y-69173530D01*
X166049627Y-69173533D01*
X165912142Y-69230480D01*
X165912129Y-69230487D01*
X165788397Y-69313163D01*
X165788393Y-69313166D01*
X165772681Y-69328879D01*
X165711358Y-69362364D01*
X165641666Y-69357380D01*
X165597319Y-69328879D01*
X165581606Y-69313166D01*
X165581602Y-69313163D01*
X165457870Y-69230487D01*
X165457857Y-69230480D01*
X165320372Y-69173533D01*
X165320363Y-69173530D01*
X165174414Y-69144500D01*
X165174410Y-69144500D01*
X165025590Y-69144500D01*
X165025585Y-69144500D01*
X164879636Y-69173530D01*
X164879627Y-69173533D01*
X164742142Y-69230480D01*
X164742129Y-69230487D01*
X164618397Y-69313163D01*
X164522934Y-69408626D01*
X164461610Y-69442110D01*
X164391919Y-69437126D01*
X164335986Y-69395254D01*
X164312315Y-69337129D01*
X164310687Y-69324764D01*
X164252698Y-69184767D01*
X164160451Y-69064549D01*
X164040233Y-68972302D01*
X164040229Y-68972300D01*
X163976801Y-68946027D01*
X163900236Y-68914313D01*
X163886171Y-68912461D01*
X163787727Y-68899500D01*
X163787720Y-68899500D01*
X163212280Y-68899500D01*
X163212272Y-68899500D01*
X163099764Y-68914313D01*
X163099763Y-68914313D01*
X162959770Y-68972300D01*
X162959767Y-68972301D01*
X162959767Y-68972302D01*
X162839549Y-69064549D01*
X162755925Y-69173530D01*
X162747300Y-69184770D01*
X162689313Y-69324763D01*
X162689313Y-69324764D01*
X162674500Y-69437272D01*
X162674500Y-69536299D01*
X162654815Y-69603338D01*
X162602011Y-69649093D01*
X162532853Y-69659037D01*
X162494205Y-69646784D01*
X162336478Y-69566418D01*
X162171141Y-69512697D01*
X162042354Y-69492299D01*
X161999426Y-69485500D01*
X161825574Y-69485500D01*
X161768336Y-69494565D01*
X161653860Y-69512697D01*
X161653857Y-69512697D01*
X161488521Y-69566418D01*
X161333615Y-69645347D01*
X161286175Y-69679815D01*
X161192967Y-69747535D01*
X161192965Y-69747537D01*
X161192964Y-69747537D01*
X161070037Y-69870464D01*
X161070037Y-69870465D01*
X161070035Y-69870467D01*
X161031998Y-69922820D01*
X160967847Y-70011115D01*
X160888918Y-70166021D01*
X160835197Y-70331357D01*
X160835197Y-70331360D01*
X160808000Y-70503074D01*
X160808000Y-70676925D01*
X160835197Y-70848639D01*
X160835197Y-70848642D01*
X160888918Y-71013978D01*
X160949488Y-71132853D01*
X160967847Y-71168884D01*
X161070035Y-71309533D01*
X161192967Y-71432465D01*
X161333616Y-71534653D01*
X161471680Y-71605000D01*
X161488521Y-71613581D01*
X161653858Y-71667302D01*
X161653859Y-71667302D01*
X161653862Y-71667303D01*
X161825574Y-71694500D01*
X161825575Y-71694500D01*
X161999425Y-71694500D01*
X161999426Y-71694500D01*
X162171138Y-71667303D01*
X162171141Y-71667302D01*
X162171142Y-71667302D01*
X162336478Y-71613581D01*
X162336478Y-71613580D01*
X162336481Y-71613580D01*
X162491384Y-71534653D01*
X162632033Y-71432465D01*
X162754965Y-71309533D01*
X162857153Y-71168884D01*
X162936080Y-71013981D01*
X162936458Y-71012819D01*
X162989802Y-70848642D01*
X162989802Y-70848641D01*
X162989803Y-70848638D01*
X163017000Y-70676926D01*
X163017000Y-70616185D01*
X163036685Y-70549146D01*
X163089489Y-70503391D01*
X163157183Y-70493246D01*
X163212280Y-70500500D01*
X163212287Y-70500500D01*
X163787713Y-70500500D01*
X163787720Y-70500500D01*
X163900236Y-70485687D01*
X164040233Y-70427698D01*
X164083597Y-70394423D01*
X164107446Y-70376124D01*
X164128766Y-70367881D01*
X164147997Y-70355523D01*
X164168276Y-70352607D01*
X164172615Y-70350930D01*
X164182932Y-70350500D01*
X164430698Y-70350500D01*
X164497737Y-70370185D01*
X164518379Y-70386819D01*
X164613181Y-70481621D01*
X164646666Y-70542944D01*
X164649500Y-70569302D01*
X164649500Y-70709308D01*
X164673712Y-70799672D01*
X164680200Y-70823885D01*
X164680200Y-70823886D01*
X164688121Y-70837605D01*
X164739511Y-70926614D01*
X164739513Y-70926616D01*
X164825716Y-71012819D01*
X164859201Y-71074142D01*
X164854217Y-71143834D01*
X164812345Y-71199767D01*
X164746881Y-71224184D01*
X164738035Y-71224500D01*
X164724234Y-71224500D01*
X164577863Y-71263719D01*
X164446635Y-71339485D01*
X164446632Y-71339487D01*
X164339487Y-71446632D01*
X164339485Y-71446635D01*
X164263719Y-71577863D01*
X164232467Y-71694500D01*
X164224500Y-71724234D01*
X164224500Y-71875766D01*
X164230886Y-71899598D01*
X164263719Y-72022136D01*
X164292587Y-72072136D01*
X164339485Y-72153365D01*
X164446635Y-72260515D01*
X164577865Y-72336281D01*
X164724234Y-72375500D01*
X164724236Y-72375500D01*
X164875764Y-72375500D01*
X164875766Y-72375500D01*
X165022135Y-72336281D01*
X165141937Y-72267112D01*
X165203937Y-72250500D01*
X166204404Y-72250500D01*
X166271443Y-72270185D01*
X166317198Y-72322989D01*
X166327343Y-72390686D01*
X166324500Y-72412272D01*
X166324500Y-72987727D01*
X166339313Y-73100235D01*
X166339313Y-73100236D01*
X166389304Y-73220926D01*
X166397302Y-73240233D01*
X166489549Y-73360451D01*
X166609767Y-73452698D01*
X166749764Y-73510687D01*
X166754750Y-73512752D01*
X166809153Y-73556593D01*
X166814684Y-73565312D01*
X166818073Y-73571181D01*
X166864511Y-73651614D01*
X166864513Y-73651616D01*
X167363181Y-74150284D01*
X167377884Y-74177211D01*
X167394477Y-74203030D01*
X167395368Y-74209230D01*
X167396666Y-74211607D01*
X167399500Y-74237965D01*
X167399500Y-74356017D01*
X167386901Y-74410476D01*
X167369728Y-74445604D01*
X167369725Y-74445611D01*
X167361311Y-74503367D01*
X167359800Y-74513740D01*
X167359800Y-76053460D01*
X167365704Y-76093981D01*
X167371015Y-76130433D01*
X167361201Y-76199610D01*
X167315545Y-76252500D01*
X167248542Y-76272310D01*
X167230433Y-76271015D01*
X167221593Y-76269727D01*
X167153460Y-76259800D01*
X165613740Y-76259800D01*
X165613739Y-76259800D01*
X165545608Y-76269726D01*
X165510477Y-76286901D01*
X165498389Y-76289697D01*
X165490952Y-76294477D01*
X165456017Y-76299500D01*
X165224498Y-76299500D01*
X165157459Y-76279815D01*
X165111704Y-76227011D01*
X165109937Y-76222953D01*
X165086553Y-76166500D01*
X165052698Y-76084767D01*
X164960451Y-75964549D01*
X164840233Y-75872302D01*
X164840229Y-75872300D01*
X164758131Y-75838294D01*
X164700236Y-75814313D01*
X164686171Y-75812461D01*
X164587727Y-75799500D01*
X164587720Y-75799500D01*
X164012280Y-75799500D01*
X164012272Y-75799500D01*
X163899764Y-75814313D01*
X163899763Y-75814313D01*
X163759770Y-75872300D01*
X163759767Y-75872301D01*
X163759767Y-75872302D01*
X163639549Y-75964549D01*
X163566443Y-76059823D01*
X163547300Y-76084770D01*
X163504698Y-76187621D01*
X163460857Y-76242024D01*
X163394563Y-76264089D01*
X163358044Y-76259943D01*
X163281170Y-76239345D01*
X163225766Y-76224500D01*
X163074234Y-76224500D01*
X163066107Y-76224500D01*
X163066107Y-76221451D01*
X163011376Y-76212897D01*
X162959136Y-76166500D01*
X162940273Y-76099224D01*
X162946332Y-76062427D01*
X162989803Y-75928638D01*
X163017000Y-75756926D01*
X163017000Y-75583074D01*
X162989803Y-75411362D01*
X162989802Y-75411358D01*
X162989802Y-75411357D01*
X162936081Y-75246021D01*
X162857152Y-75091115D01*
X162754965Y-74950467D01*
X162632033Y-74827535D01*
X162491384Y-74725347D01*
X162414711Y-74686280D01*
X162336478Y-74646418D01*
X162171141Y-74592697D01*
X162042354Y-74572299D01*
X161999426Y-74565500D01*
X161825574Y-74565500D01*
X161768336Y-74574565D01*
X161653860Y-74592697D01*
X161653857Y-74592697D01*
X161488521Y-74646418D01*
X161333615Y-74725347D01*
X161266933Y-74773795D01*
X161192967Y-74827535D01*
X161192965Y-74827537D01*
X161192964Y-74827537D01*
X161070037Y-74950464D01*
X161070037Y-74950465D01*
X161070035Y-74950467D01*
X161026149Y-75010869D01*
X160967847Y-75091115D01*
X160888918Y-75246021D01*
X160835197Y-75411357D01*
X160835197Y-75411360D01*
X160808000Y-75583074D01*
X160808000Y-75756925D01*
X160835197Y-75928639D01*
X160835197Y-75928642D01*
X160888918Y-76093978D01*
X160956535Y-76226683D01*
X160967847Y-76248884D01*
X161070035Y-76389533D01*
X161192967Y-76512465D01*
X161333616Y-76614653D01*
X161488519Y-76693580D01*
X161488521Y-76693581D01*
X161653858Y-76747302D01*
X161653859Y-76747302D01*
X161653862Y-76747303D01*
X161825574Y-76774500D01*
X161825575Y-76774500D01*
X161999425Y-76774500D01*
X161999426Y-76774500D01*
X162171138Y-76747303D01*
X162171141Y-76747302D01*
X162171142Y-76747302D01*
X162336478Y-76693581D01*
X162336478Y-76693580D01*
X162336481Y-76693580D01*
X162394205Y-76664167D01*
X162462874Y-76651272D01*
X162527614Y-76677548D01*
X162567872Y-76734654D01*
X162574500Y-76774653D01*
X162574500Y-76875766D01*
X162592917Y-76944500D01*
X162613719Y-77022136D01*
X162622902Y-77038041D01*
X162689485Y-77153365D01*
X162796635Y-77260515D01*
X162927865Y-77336281D01*
X163074234Y-77375500D01*
X163102525Y-77375500D01*
X163850505Y-77375500D01*
X163891871Y-77383728D01*
X163891910Y-77383583D01*
X163894126Y-77384176D01*
X163897958Y-77384939D01*
X163899764Y-77385687D01*
X164012280Y-77400500D01*
X164012287Y-77400500D01*
X164587713Y-77400500D01*
X164587720Y-77400500D01*
X164700236Y-77385687D01*
X164840233Y-77327698D01*
X164960451Y-77235451D01*
X164960452Y-77235448D01*
X164966898Y-77230503D01*
X164968005Y-77231946D01*
X164986010Y-77222115D01*
X165011829Y-77205523D01*
X165018029Y-77204631D01*
X165020406Y-77203334D01*
X165046764Y-77200500D01*
X165262071Y-77200500D01*
X165329110Y-77220185D01*
X165374865Y-77272989D01*
X165384809Y-77342147D01*
X165362990Y-77396552D01*
X165357801Y-77403818D01*
X165306426Y-77508909D01*
X165296500Y-77577040D01*
X165296500Y-77922961D01*
X165305119Y-77982119D01*
X165306218Y-78006992D01*
X165305909Y-78012451D01*
X165296499Y-78077040D01*
X165296499Y-78179007D01*
X165296302Y-78182494D01*
X165285706Y-78212252D01*
X165276814Y-78242538D01*
X165274081Y-78244906D01*
X165272867Y-78248316D01*
X165247861Y-78267625D01*
X165224010Y-78288293D01*
X165219955Y-78289175D01*
X165217566Y-78291020D01*
X165207448Y-78291895D01*
X165172499Y-78299499D01*
X164990692Y-78299499D01*
X164904759Y-78322524D01*
X164876114Y-78330200D01*
X164773387Y-78389508D01*
X164773385Y-78389510D01*
X164725715Y-78437181D01*
X164664392Y-78470666D01*
X164638034Y-78473500D01*
X163266691Y-78473500D01*
X163152114Y-78504201D01*
X163152112Y-78504201D01*
X163152112Y-78504202D01*
X163113296Y-78526613D01*
X163113295Y-78526613D01*
X163049389Y-78563508D01*
X163049384Y-78563512D01*
X159039513Y-82573383D01*
X159039509Y-82573389D01*
X158980201Y-82676112D01*
X158980200Y-82676117D01*
X158949500Y-82790691D01*
X158949500Y-83243055D01*
X158929815Y-83310094D01*
X158877011Y-83355849D01*
X158870999Y-83358405D01*
X158866038Y-83360362D01*
X158852656Y-83365639D01*
X158732077Y-83457077D01*
X158640639Y-83577656D01*
X158585122Y-83718438D01*
X158579188Y-83767853D01*
X158574500Y-83806898D01*
X158574500Y-84293102D01*
X158580126Y-84339954D01*
X158585122Y-84381561D01*
X158640639Y-84522343D01*
X158732077Y-84642922D01*
X158852656Y-84734360D01*
X158852657Y-84734360D01*
X158852658Y-84734361D01*
X158993436Y-84789877D01*
X159081898Y-84800500D01*
X159462035Y-84800500D01*
X159529074Y-84820185D01*
X159549716Y-84836819D01*
X160013181Y-85300284D01*
X160046666Y-85361607D01*
X160049500Y-85387965D01*
X160049500Y-88421627D01*
X160029815Y-88488666D01*
X159977011Y-88534421D01*
X159944899Y-88544100D01*
X159818880Y-88564060D01*
X159639163Y-88622454D01*
X159470800Y-88708240D01*
X159384695Y-88770800D01*
X159317927Y-88819310D01*
X159317925Y-88819312D01*
X159317924Y-88819312D01*
X159184312Y-88952924D01*
X159184312Y-88952925D01*
X159184310Y-88952927D01*
X159155939Y-88991976D01*
X159073240Y-89105800D01*
X158987454Y-89274163D01*
X158929059Y-89453881D01*
X158899500Y-89640513D01*
X158899500Y-89829486D01*
X158929059Y-90016118D01*
X158987454Y-90195836D01*
X159066714Y-90351391D01*
X159073240Y-90364199D01*
X159184310Y-90517073D01*
X159317927Y-90650690D01*
X159470801Y-90761760D01*
X159567207Y-90810881D01*
X159624385Y-90840015D01*
X159675181Y-90887990D01*
X159691976Y-90955811D01*
X159669439Y-91021946D01*
X159614723Y-91065397D01*
X159568090Y-91074500D01*
X159216739Y-91074500D01*
X159148608Y-91084426D01*
X159043514Y-91135803D01*
X158960803Y-91218514D01*
X158909426Y-91323608D01*
X158899500Y-91391739D01*
X158899500Y-93158260D01*
X158909426Y-93226391D01*
X158960803Y-93331485D01*
X159043514Y-93414196D01*
X159043515Y-93414196D01*
X159043517Y-93414198D01*
X159148607Y-93465573D01*
X159182673Y-93470536D01*
X159216739Y-93475500D01*
X159216740Y-93475500D01*
X160983261Y-93475500D01*
X161005971Y-93472191D01*
X161051393Y-93465573D01*
X161156483Y-93414198D01*
X161239198Y-93331483D01*
X161290573Y-93226393D01*
X161300500Y-93158260D01*
X161300500Y-91391740D01*
X161290573Y-91323607D01*
X161239198Y-91218517D01*
X161239196Y-91218515D01*
X161239196Y-91218514D01*
X161156485Y-91135803D01*
X161051391Y-91084426D01*
X160983261Y-91074500D01*
X160983260Y-91074500D01*
X160631910Y-91074500D01*
X160564871Y-91054815D01*
X160519116Y-91002011D01*
X160509172Y-90932853D01*
X160538197Y-90869297D01*
X160575615Y-90840015D01*
X160610224Y-90822380D01*
X160729199Y-90761760D01*
X160882073Y-90650690D01*
X161015690Y-90517073D01*
X161126760Y-90364199D01*
X161212547Y-90195832D01*
X161270940Y-90016118D01*
X161300500Y-89829486D01*
X161300500Y-89640513D01*
X161270940Y-89453881D01*
X161243846Y-89370497D01*
X161212547Y-89274168D01*
X161212545Y-89274165D01*
X161212545Y-89274163D01*
X161126759Y-89105800D01*
X161015690Y-88952927D01*
X160986819Y-88924056D01*
X160953334Y-88862733D01*
X160950500Y-88836375D01*
X160950500Y-86854366D01*
X160970185Y-86787327D01*
X161022989Y-86741572D01*
X161092147Y-86731628D01*
X161155703Y-86760653D01*
X161162181Y-86766685D01*
X161189756Y-86794260D01*
X161189762Y-86794265D01*
X161382211Y-86941936D01*
X161592288Y-87063224D01*
X161816400Y-87156054D01*
X162050711Y-87218838D01*
X162231086Y-87242584D01*
X162291211Y-87250500D01*
X162291212Y-87250500D01*
X162533789Y-87250500D01*
X162581888Y-87244167D01*
X162774289Y-87218838D01*
X163008600Y-87156054D01*
X163232712Y-87063224D01*
X163442789Y-86941936D01*
X163635238Y-86794265D01*
X163806765Y-86622738D01*
X163954436Y-86430289D01*
X164075724Y-86220212D01*
X164168554Y-85996100D01*
X164231338Y-85761789D01*
X164263000Y-85521288D01*
X164263000Y-85278712D01*
X164231338Y-85038211D01*
X164168554Y-84803900D01*
X164162745Y-84789877D01*
X164108735Y-84659485D01*
X164075724Y-84579788D01*
X163954436Y-84369711D01*
X163881544Y-84274716D01*
X163806766Y-84177263D01*
X163806760Y-84177256D01*
X163635243Y-84005739D01*
X163635236Y-84005733D01*
X163442793Y-83858067D01*
X163442792Y-83858066D01*
X163442789Y-83858064D01*
X163232712Y-83736776D01*
X163232705Y-83736773D01*
X163008604Y-83643947D01*
X162774285Y-83581161D01*
X162533789Y-83549500D01*
X162533788Y-83549500D01*
X162291212Y-83549500D01*
X162291211Y-83549500D01*
X162050714Y-83581161D01*
X161816395Y-83643947D01*
X161592294Y-83736773D01*
X161592285Y-83736777D01*
X161382206Y-83858067D01*
X161189763Y-84005733D01*
X161189756Y-84005739D01*
X161018239Y-84177256D01*
X161018233Y-84177263D01*
X160870569Y-84369703D01*
X160870565Y-84369708D01*
X160870564Y-84369711D01*
X160863721Y-84381564D01*
X160763317Y-84555466D01*
X160712749Y-84603681D01*
X160644142Y-84616903D01*
X160579277Y-84590935D01*
X160568249Y-84581146D01*
X160261819Y-84274716D01*
X160228334Y-84213393D01*
X160225500Y-84187035D01*
X160225500Y-83806903D01*
X160225500Y-83806898D01*
X160214877Y-83718436D01*
X160159361Y-83577658D01*
X160159360Y-83577657D01*
X160159360Y-83577656D01*
X160067922Y-83457077D01*
X159947343Y-83365639D01*
X159936807Y-83361484D01*
X159929009Y-83358409D01*
X159912418Y-83345500D01*
X159893297Y-83336768D01*
X159885397Y-83324476D01*
X159873866Y-83315504D01*
X159866887Y-83295674D01*
X159855523Y-83277990D01*
X159851970Y-83253283D01*
X159850673Y-83249596D01*
X159850500Y-83243055D01*
X159850500Y-83087965D01*
X159870185Y-83020926D01*
X159886819Y-83000284D01*
X161912819Y-80974284D01*
X161974142Y-80940799D01*
X162043834Y-80945783D01*
X162099767Y-80987655D01*
X162124184Y-81053119D01*
X162124500Y-81061965D01*
X162124500Y-81125766D01*
X162133675Y-81160008D01*
X162163719Y-81272136D01*
X162201602Y-81337750D01*
X162239485Y-81403365D01*
X162346635Y-81510515D01*
X162477865Y-81586281D01*
X162624234Y-81625500D01*
X162624236Y-81625500D01*
X162775764Y-81625500D01*
X162775766Y-81625500D01*
X162922135Y-81586281D01*
X163053365Y-81510515D01*
X163112319Y-81451561D01*
X163173642Y-81418076D01*
X163243334Y-81423060D01*
X163287681Y-81451561D01*
X163296635Y-81460515D01*
X163427865Y-81536281D01*
X163574234Y-81575500D01*
X163574236Y-81575500D01*
X163725764Y-81575500D01*
X163725766Y-81575500D01*
X163872135Y-81536281D01*
X164003365Y-81460515D01*
X164110515Y-81353365D01*
X164186281Y-81222135D01*
X164222085Y-81088509D01*
X164254176Y-81032926D01*
X165050284Y-80236819D01*
X165077211Y-80222115D01*
X165103030Y-80205523D01*
X165109230Y-80204631D01*
X165111607Y-80203334D01*
X165137965Y-80200500D01*
X165172500Y-80200500D01*
X165239539Y-80220185D01*
X165285294Y-80272989D01*
X165296500Y-80324500D01*
X165296500Y-80422961D01*
X165305119Y-80482119D01*
X165305119Y-80517875D01*
X165296499Y-80577039D01*
X165296499Y-80922960D01*
X165305119Y-80982125D01*
X165305119Y-81017881D01*
X165297214Y-81072136D01*
X165296500Y-81077039D01*
X165296500Y-81422959D01*
X165296515Y-81423060D01*
X165305120Y-81482124D01*
X165305120Y-81517876D01*
X165302083Y-81538720D01*
X165296500Y-81577041D01*
X165296500Y-81922961D01*
X165304382Y-81977064D01*
X165305120Y-81982124D01*
X165305120Y-82017877D01*
X165296500Y-82077040D01*
X165296500Y-82077044D01*
X165296500Y-82422960D01*
X165306426Y-82491091D01*
X165357803Y-82596185D01*
X165440514Y-82678896D01*
X165440515Y-82678896D01*
X165440517Y-82678898D01*
X165545607Y-82730273D01*
X165579673Y-82735236D01*
X165613739Y-82740200D01*
X165613740Y-82740200D01*
X167153461Y-82740200D01*
X167190773Y-82734763D01*
X167221593Y-82730273D01*
X167221593Y-82730272D01*
X167230432Y-82728985D01*
X167299609Y-82738798D01*
X167352499Y-82784453D01*
X167372310Y-82851455D01*
X167371015Y-82869566D01*
X167369727Y-82878407D01*
X167359800Y-82946540D01*
X167359800Y-82946544D01*
X167359800Y-84486260D01*
X167369726Y-84554391D01*
X167386901Y-84589523D01*
X167399500Y-84643983D01*
X167399500Y-84906567D01*
X167379815Y-84973606D01*
X167327011Y-85019361D01*
X167322954Y-85021127D01*
X167259773Y-85047298D01*
X167259770Y-85047299D01*
X167139549Y-85139549D01*
X167047300Y-85259770D01*
X166989313Y-85399763D01*
X166989313Y-85399764D01*
X166974500Y-85512272D01*
X166974500Y-86087727D01*
X166989313Y-86200235D01*
X166989313Y-86200236D01*
X167041373Y-86325921D01*
X167047302Y-86340233D01*
X167139549Y-86460451D01*
X167259767Y-86552698D01*
X167259773Y-86552700D01*
X167262493Y-86554271D01*
X167264334Y-86556201D01*
X167266215Y-86557645D01*
X167265990Y-86557938D01*
X167310712Y-86604835D01*
X167324500Y-86661662D01*
X167324500Y-86875765D01*
X167363719Y-87022136D01*
X167387442Y-87063224D01*
X167439485Y-87153365D01*
X167546635Y-87260515D01*
X167677865Y-87336281D01*
X167824234Y-87375500D01*
X167824236Y-87375500D01*
X167975764Y-87375500D01*
X167975766Y-87375500D01*
X168122135Y-87336281D01*
X168253365Y-87260515D01*
X168360515Y-87153365D01*
X168436281Y-87022135D01*
X168475500Y-86875766D01*
X168475500Y-86724234D01*
X168436281Y-86577865D01*
X168427936Y-86563411D01*
X168411461Y-86495512D01*
X168434311Y-86429484D01*
X168436920Y-86425954D01*
X168502698Y-86340233D01*
X168560687Y-86200236D01*
X168575500Y-86087720D01*
X168575500Y-85512280D01*
X168575368Y-85511281D01*
X168570215Y-85472136D01*
X168560687Y-85399764D01*
X168502698Y-85259767D01*
X168410451Y-85139549D01*
X168410449Y-85139547D01*
X168410448Y-85139546D01*
X168349013Y-85092405D01*
X168346765Y-85089327D01*
X168343297Y-85087743D01*
X168326323Y-85061331D01*
X168307810Y-85035977D01*
X168306984Y-85031238D01*
X168305523Y-85028965D01*
X168300500Y-84994030D01*
X168300500Y-84837928D01*
X168320185Y-84770889D01*
X168372989Y-84725134D01*
X168442147Y-84715190D01*
X168496556Y-84737012D01*
X168503813Y-84742193D01*
X168503818Y-84742198D01*
X168608908Y-84793573D01*
X168642974Y-84798536D01*
X168677040Y-84803500D01*
X168677041Y-84803500D01*
X168829298Y-84803500D01*
X168896337Y-84823185D01*
X168942092Y-84875989D01*
X168953298Y-84927500D01*
X168953298Y-85890530D01*
X168953304Y-85890619D01*
X168953304Y-86230233D01*
X168953304Y-86344863D01*
X168955751Y-86353994D01*
X168982972Y-86455588D01*
X169006023Y-86495512D01*
X169040287Y-86554859D01*
X170145145Y-87659717D01*
X170244417Y-87717032D01*
X170355141Y-87746700D01*
X170469771Y-87746700D01*
X176005766Y-87746700D01*
X176072805Y-87766385D01*
X176093447Y-87783019D01*
X182273247Y-93962819D01*
X182306732Y-94024142D01*
X182301748Y-94093834D01*
X182259876Y-94149767D01*
X182194412Y-94174184D01*
X182185566Y-94174500D01*
X181736452Y-94174500D01*
X181634274Y-94187953D01*
X181621501Y-94189635D01*
X181621500Y-94189635D01*
X181621497Y-94189636D01*
X181478463Y-94248882D01*
X181355633Y-94343133D01*
X181261383Y-94465961D01*
X181227061Y-94548824D01*
X181183220Y-94603227D01*
X181116926Y-94625292D01*
X181049227Y-94608013D01*
X181001616Y-94556876D01*
X180997939Y-94548824D01*
X180972262Y-94486834D01*
X180963617Y-94465963D01*
X180963616Y-94465962D01*
X180963616Y-94465961D01*
X180869368Y-94343134D01*
X180869363Y-94343130D01*
X180793748Y-94285109D01*
X180752547Y-94228682D01*
X180748392Y-94158936D01*
X180749462Y-94154638D01*
X180750500Y-94150766D01*
X180750500Y-93999234D01*
X180711281Y-93852865D01*
X180635515Y-93721635D01*
X180528365Y-93614485D01*
X180462750Y-93576602D01*
X180397136Y-93538719D01*
X180323950Y-93519109D01*
X180250766Y-93499500D01*
X180099234Y-93499500D01*
X179952863Y-93538719D01*
X179821635Y-93614485D01*
X179821632Y-93614487D01*
X179714487Y-93721632D01*
X179714485Y-93721635D01*
X179638719Y-93852863D01*
X179599500Y-93999234D01*
X179599500Y-94150767D01*
X179609065Y-94186465D01*
X179607402Y-94256315D01*
X179568238Y-94314177D01*
X179564777Y-94316932D01*
X179530635Y-94343130D01*
X179436382Y-94465963D01*
X179377136Y-94608997D01*
X179377135Y-94609002D01*
X179362000Y-94723952D01*
X179362000Y-95276047D01*
X179373771Y-95365452D01*
X179376552Y-95386574D01*
X179377135Y-95390997D01*
X179377136Y-95391002D01*
X179436382Y-95534036D01*
X179436383Y-95534037D01*
X179530633Y-95656867D01*
X179653463Y-95751117D01*
X179653462Y-95751117D01*
X179731689Y-95783519D01*
X179796501Y-95810365D01*
X179911460Y-95825500D01*
X179911467Y-95825500D01*
X180488533Y-95825500D01*
X180488540Y-95825500D01*
X180603499Y-95810365D01*
X180746537Y-95751117D01*
X180869367Y-95656867D01*
X180963617Y-95534037D01*
X180997939Y-95451176D01*
X181006556Y-95440482D01*
X181010950Y-95427469D01*
X181028049Y-95413810D01*
X181041780Y-95396772D01*
X181054810Y-95392435D01*
X181065542Y-95383863D01*
X181087311Y-95381617D01*
X181108074Y-95374707D01*
X181121380Y-95378103D01*
X181135043Y-95376694D01*
X181154569Y-95386574D01*
X181175773Y-95391986D01*
X181186442Y-95402701D01*
X181197387Y-95408239D01*
X181209708Y-95426067D01*
X181219414Y-95435815D01*
X181223768Y-95443226D01*
X181261383Y-95534037D01*
X181328537Y-95621555D01*
X181332414Y-95628153D01*
X181339122Y-95654917D01*
X181349070Y-95680649D01*
X181349500Y-95690966D01*
X181349500Y-95828992D01*
X181329815Y-95896031D01*
X181277011Y-95941786D01*
X181238754Y-95952282D01*
X181205016Y-95955908D01*
X181070171Y-96006202D01*
X181070164Y-96006206D01*
X180954955Y-96092452D01*
X180954952Y-96092455D01*
X180868706Y-96207664D01*
X180868702Y-96207671D01*
X180826395Y-96321105D01*
X180818409Y-96342517D01*
X180812000Y-96402127D01*
X180812000Y-96402134D01*
X180812000Y-96402135D01*
X180812000Y-96777756D01*
X180792315Y-96844795D01*
X180739511Y-96890550D01*
X180674747Y-96901045D01*
X180660373Y-96899500D01*
X180660364Y-96899500D01*
X179389629Y-96899500D01*
X179389623Y-96899501D01*
X179330016Y-96905908D01*
X179195171Y-96956202D01*
X179195164Y-96956206D01*
X179079955Y-97042452D01*
X179079952Y-97042455D01*
X178993706Y-97157664D01*
X178993702Y-97157671D01*
X178943410Y-97292513D01*
X178943409Y-97292517D01*
X178937000Y-97352127D01*
X178937000Y-97352134D01*
X178937000Y-97352135D01*
X178937000Y-97747870D01*
X178937001Y-97747879D01*
X178941492Y-97789656D01*
X178929085Y-97858415D01*
X178905884Y-97890588D01*
X178862182Y-97934291D01*
X178800859Y-97967777D01*
X178731168Y-97962793D01*
X178675234Y-97920923D01*
X178650816Y-97855458D01*
X178650500Y-97846611D01*
X178650500Y-91316232D01*
X178650499Y-91316228D01*
X178631063Y-91218517D01*
X178617816Y-91151918D01*
X178585748Y-91074500D01*
X178577594Y-91054815D01*
X178553706Y-90997142D01*
X178553705Y-90997140D01*
X178553704Y-90997137D01*
X178460626Y-90857838D01*
X178460622Y-90857834D01*
X178460620Y-90857831D01*
X178460619Y-90857830D01*
X176342165Y-88739375D01*
X176342161Y-88739372D01*
X176202866Y-88646297D01*
X176202863Y-88646296D01*
X176093416Y-88600962D01*
X176093414Y-88600961D01*
X176048086Y-88582185D01*
X176048074Y-88582182D01*
X175883771Y-88549500D01*
X175883767Y-88549500D01*
X174338625Y-88549500D01*
X174271586Y-88529815D01*
X174250944Y-88513181D01*
X174222075Y-88484312D01*
X174222073Y-88484310D01*
X174069199Y-88373240D01*
X173900836Y-88287454D01*
X173721118Y-88229059D01*
X173534486Y-88199500D01*
X173534481Y-88199500D01*
X173345519Y-88199500D01*
X173345514Y-88199500D01*
X173158881Y-88229059D01*
X172979163Y-88287454D01*
X172810800Y-88373240D01*
X172751939Y-88416006D01*
X172657927Y-88484310D01*
X172657925Y-88484312D01*
X172657924Y-88484312D01*
X172524312Y-88617924D01*
X172524312Y-88617925D01*
X172524310Y-88617927D01*
X172521022Y-88622453D01*
X172413240Y-88770800D01*
X172327454Y-88939163D01*
X172287931Y-89060803D01*
X172248493Y-89118478D01*
X172184134Y-89145676D01*
X172115288Y-89133761D01*
X172063812Y-89086516D01*
X172052069Y-89060803D01*
X172024248Y-88975181D01*
X172012547Y-88939168D01*
X172012545Y-88939165D01*
X172012545Y-88939163D01*
X171967290Y-88850347D01*
X171926760Y-88770801D01*
X171815690Y-88617927D01*
X171682073Y-88484310D01*
X171529199Y-88373240D01*
X171360836Y-88287454D01*
X171181118Y-88229059D01*
X170994486Y-88199500D01*
X170994481Y-88199500D01*
X170805519Y-88199500D01*
X170805514Y-88199500D01*
X170618881Y-88229059D01*
X170439163Y-88287454D01*
X170270800Y-88373240D01*
X170211939Y-88416006D01*
X170117927Y-88484310D01*
X170117925Y-88484312D01*
X170117924Y-88484312D01*
X169984312Y-88617924D01*
X169984312Y-88617925D01*
X169984310Y-88617927D01*
X169981022Y-88622453D01*
X169873240Y-88770800D01*
X169794985Y-88924385D01*
X169747010Y-88975181D01*
X169679189Y-88991976D01*
X169613054Y-88969439D01*
X169569603Y-88914723D01*
X169560500Y-88868090D01*
X169560500Y-88516739D01*
X169550573Y-88448608D01*
X169534634Y-88416004D01*
X169499198Y-88343517D01*
X169499196Y-88343515D01*
X169499196Y-88343514D01*
X169416485Y-88260803D01*
X169311391Y-88209426D01*
X169243261Y-88199500D01*
X169243260Y-88199500D01*
X167476740Y-88199500D01*
X167476739Y-88199500D01*
X167408608Y-88209426D01*
X167352408Y-88236901D01*
X167297948Y-88249500D01*
X164795681Y-88249500D01*
X164795657Y-88249499D01*
X164790546Y-88249499D01*
X164609453Y-88249499D01*
X164549832Y-88258942D01*
X164430589Y-88277829D01*
X164258363Y-88333787D01*
X164258360Y-88333788D01*
X164097002Y-88416006D01*
X163950505Y-88522441D01*
X163950500Y-88522445D01*
X161822443Y-90650502D01*
X161766309Y-90727766D01*
X161757876Y-90739374D01*
X161741612Y-90761760D01*
X161716004Y-90797005D01*
X161633788Y-90958360D01*
X161633787Y-90958363D01*
X161577829Y-91130589D01*
X161549499Y-91309455D01*
X161549499Y-91495656D01*
X161549500Y-91495681D01*
X161549500Y-99305038D01*
X161549499Y-99305053D01*
X161549499Y-99490544D01*
X161577829Y-99669410D01*
X161633787Y-99841636D01*
X161633788Y-99841639D01*
X161661982Y-99896971D01*
X161709571Y-99990369D01*
X161716006Y-100002997D01*
X161822440Y-100149493D01*
X161822444Y-100149497D01*
X161822447Y-100149501D01*
X161910459Y-100237513D01*
X161954829Y-100281883D01*
X161954840Y-100281893D01*
X164524241Y-102851294D01*
X164557726Y-102912617D01*
X164559500Y-102955158D01*
X164554500Y-102993139D01*
X164554500Y-102993140D01*
X164554500Y-102993143D01*
X164554500Y-104571863D01*
X164569953Y-104689253D01*
X164569956Y-104689262D01*
X164619814Y-104809631D01*
X164630464Y-104835341D01*
X164726718Y-104960782D01*
X164776832Y-104999236D01*
X164818034Y-105055661D01*
X164822189Y-105125407D01*
X164789029Y-105185288D01*
X164780803Y-105193513D01*
X164729426Y-105298608D01*
X164719500Y-105366739D01*
X164719500Y-107133260D01*
X164729426Y-107201391D01*
X164780803Y-107306485D01*
X164863514Y-107389196D01*
X164863515Y-107389196D01*
X164863517Y-107389198D01*
X164968607Y-107440573D01*
X165002673Y-107445536D01*
X165036739Y-107450500D01*
X165036740Y-107450500D01*
X166803261Y-107450500D01*
X166825971Y-107447191D01*
X166871393Y-107440573D01*
X166976483Y-107389198D01*
X167059198Y-107306483D01*
X167110573Y-107201393D01*
X167120500Y-107133260D01*
X167120500Y-105366740D01*
X167110573Y-105298607D01*
X167059198Y-105193517D01*
X167059196Y-105193515D01*
X167059196Y-105193514D01*
X167037948Y-105172266D01*
X167004463Y-105110943D01*
X167009447Y-105041251D01*
X167050141Y-104986211D01*
X167083282Y-104960782D01*
X167179536Y-104835341D01*
X167240044Y-104689262D01*
X167255500Y-104571861D01*
X167255499Y-102993140D01*
X167255499Y-102993139D01*
X167255499Y-102993136D01*
X167240046Y-102875746D01*
X167240044Y-102875741D01*
X167240044Y-102875738D01*
X167179536Y-102729659D01*
X167179535Y-102729658D01*
X167179535Y-102729657D01*
X167081125Y-102601406D01*
X167055931Y-102536237D01*
X167055501Y-102525920D01*
X167055501Y-102514454D01*
X167053292Y-102500505D01*
X167027171Y-102335591D01*
X166971211Y-102163361D01*
X166960952Y-102143226D01*
X166888996Y-102002006D01*
X166870546Y-101976611D01*
X166782559Y-101855506D01*
X166782555Y-101855502D01*
X166782553Y-101855499D01*
X166654501Y-101727447D01*
X166654500Y-101727446D01*
X166651389Y-101724335D01*
X166651374Y-101724321D01*
X163886819Y-98959766D01*
X163853334Y-98898443D01*
X163850500Y-98872085D01*
X163850500Y-91927915D01*
X163870185Y-91860876D01*
X163886819Y-91840234D01*
X165140234Y-90586819D01*
X165201557Y-90553334D01*
X165227915Y-90550500D01*
X167297948Y-90550500D01*
X167352407Y-90563098D01*
X167408607Y-90590573D01*
X167442673Y-90595536D01*
X167476739Y-90600500D01*
X167476740Y-90600500D01*
X169243261Y-90600500D01*
X169265971Y-90597191D01*
X169311393Y-90590573D01*
X169416483Y-90539198D01*
X169499198Y-90456483D01*
X169550573Y-90351393D01*
X169560500Y-90283260D01*
X169560500Y-89931909D01*
X169580185Y-89864870D01*
X169632989Y-89819115D01*
X169702147Y-89809171D01*
X169765703Y-89838196D01*
X169794984Y-89875613D01*
X169873240Y-90029199D01*
X169984310Y-90182073D01*
X170117927Y-90315690D01*
X170270801Y-90426760D01*
X170329136Y-90456483D01*
X170439163Y-90512545D01*
X170439165Y-90512545D01*
X170439168Y-90512547D01*
X170521185Y-90539196D01*
X170618881Y-90570940D01*
X170805514Y-90600500D01*
X170805519Y-90600500D01*
X170994486Y-90600500D01*
X171181118Y-90570940D01*
X171244025Y-90550500D01*
X171360832Y-90512547D01*
X171529199Y-90426760D01*
X171682073Y-90315690D01*
X171815690Y-90182073D01*
X171926760Y-90029199D01*
X172012547Y-89860832D01*
X172052069Y-89739195D01*
X172091507Y-89681521D01*
X172155866Y-89654323D01*
X172224712Y-89666238D01*
X172276188Y-89713482D01*
X172287931Y-89739196D01*
X172327454Y-89860836D01*
X172363668Y-89931909D01*
X172413240Y-90029199D01*
X172524310Y-90182073D01*
X172657927Y-90315690D01*
X172810801Y-90426760D01*
X172869136Y-90456483D01*
X172979163Y-90512545D01*
X172979165Y-90512545D01*
X172979168Y-90512547D01*
X173061185Y-90539196D01*
X173158881Y-90570940D01*
X173345514Y-90600500D01*
X173345519Y-90600500D01*
X173534486Y-90600500D01*
X173721118Y-90570940D01*
X173784025Y-90550500D01*
X173900832Y-90512547D01*
X174069199Y-90426760D01*
X174222073Y-90315690D01*
X174250944Y-90286819D01*
X174312267Y-90253334D01*
X174338625Y-90250500D01*
X175396349Y-90250500D01*
X175463388Y-90270185D01*
X175484030Y-90286819D01*
X176913181Y-91715969D01*
X176946666Y-91777292D01*
X176949500Y-91803650D01*
X176949500Y-99267564D01*
X176929815Y-99334603D01*
X176877011Y-99380358D01*
X176807853Y-99390302D01*
X176744297Y-99361277D01*
X176710939Y-99315017D01*
X176677699Y-99234770D01*
X176677698Y-99234767D01*
X176585451Y-99114549D01*
X176585448Y-99114547D01*
X176585447Y-99114545D01*
X176549013Y-99086588D01*
X176507811Y-99030160D01*
X176500500Y-98988213D01*
X176500500Y-98202527D01*
X176500500Y-98202525D01*
X176462984Y-98062515D01*
X176462982Y-98062512D01*
X176462982Y-98062510D01*
X176462981Y-98062509D01*
X176440683Y-98023888D01*
X176440681Y-98023886D01*
X176408287Y-97967777D01*
X176390510Y-97936986D01*
X175661819Y-97208294D01*
X175628334Y-97146971D01*
X175625500Y-97120613D01*
X175625500Y-96881903D01*
X175625500Y-96881898D01*
X175614877Y-96793436D01*
X175559361Y-96652658D01*
X175559360Y-96652657D01*
X175559360Y-96652656D01*
X175467922Y-96532077D01*
X175347343Y-96440639D01*
X175322612Y-96430886D01*
X175283223Y-96415353D01*
X175228081Y-96372449D01*
X175204888Y-96306541D01*
X175221008Y-96238557D01*
X175271325Y-96190080D01*
X175283214Y-96184649D01*
X175347342Y-96159361D01*
X175467922Y-96067922D01*
X175559361Y-95947342D01*
X175614877Y-95806564D01*
X175625500Y-95718102D01*
X175625500Y-95231898D01*
X175614877Y-95143436D01*
X175559361Y-95002658D01*
X175559360Y-95002657D01*
X175559360Y-95002656D01*
X175467922Y-94882077D01*
X175347343Y-94790639D01*
X175330055Y-94783822D01*
X175329009Y-94783409D01*
X175312418Y-94770500D01*
X175293297Y-94761768D01*
X175285397Y-94749476D01*
X175273866Y-94740504D01*
X175266887Y-94720674D01*
X175255523Y-94702990D01*
X175251970Y-94678283D01*
X175250673Y-94674596D01*
X175250500Y-94668055D01*
X175250500Y-94585392D01*
X175254725Y-94553299D01*
X175255924Y-94548824D01*
X175275500Y-94475766D01*
X175275500Y-94324234D01*
X175236281Y-94177865D01*
X175160515Y-94046635D01*
X175053365Y-93939485D01*
X174987750Y-93901602D01*
X174922136Y-93863719D01*
X174848950Y-93844109D01*
X174775766Y-93824500D01*
X174624234Y-93824500D01*
X174477863Y-93863719D01*
X174346635Y-93939485D01*
X174346632Y-93939487D01*
X174239487Y-94046632D01*
X174239485Y-94046635D01*
X174163719Y-94177863D01*
X174139971Y-94266495D01*
X174124500Y-94324234D01*
X174124500Y-94475766D01*
X174160200Y-94609002D01*
X174163720Y-94622137D01*
X174163720Y-94622138D01*
X174203777Y-94691518D01*
X174220250Y-94759418D01*
X174197398Y-94825445D01*
X174171317Y-94852321D01*
X174132077Y-94882078D01*
X174040639Y-95002656D01*
X173985122Y-95143438D01*
X173979188Y-95192853D01*
X173974500Y-95231898D01*
X173974500Y-95718102D01*
X173977938Y-95746730D01*
X173985122Y-95806561D01*
X173985122Y-95806563D01*
X173985123Y-95806564D01*
X173993968Y-95828992D01*
X174040639Y-95947343D01*
X174132077Y-96067922D01*
X174252658Y-96159361D01*
X174252660Y-96159362D01*
X174316774Y-96184646D01*
X174371918Y-96227551D01*
X174395111Y-96293459D01*
X174378990Y-96361444D01*
X174328673Y-96409920D01*
X174316774Y-96415354D01*
X174252660Y-96440637D01*
X174252658Y-96440638D01*
X174132077Y-96532077D01*
X174040639Y-96652656D01*
X173985122Y-96793438D01*
X173979188Y-96842853D01*
X173974500Y-96881898D01*
X173974500Y-96881903D01*
X173974500Y-97361258D01*
X173954815Y-97428297D01*
X173902011Y-97474052D01*
X173832853Y-97483996D01*
X173769297Y-97454971D01*
X173762819Y-97448939D01*
X173703367Y-97389487D01*
X173703365Y-97389485D01*
X173637750Y-97351602D01*
X173572136Y-97313719D01*
X173492992Y-97292513D01*
X173425766Y-97274500D01*
X173312514Y-97274500D01*
X173245475Y-97254815D01*
X173213710Y-97225425D01*
X173142922Y-97132077D01*
X173022343Y-97040639D01*
X172899842Y-96992331D01*
X172881564Y-96985123D01*
X172881563Y-96985122D01*
X172881561Y-96985122D01*
X172835926Y-96979642D01*
X172793102Y-96974500D01*
X172306898Y-96974500D01*
X172267853Y-96979188D01*
X172218438Y-96985122D01*
X172077656Y-97040639D01*
X171957077Y-97132077D01*
X171865638Y-97252658D01*
X171865637Y-97252660D01*
X171840354Y-97316774D01*
X171797449Y-97371918D01*
X171731541Y-97395111D01*
X171663556Y-97378990D01*
X171615080Y-97328673D01*
X171609646Y-97316774D01*
X171584362Y-97252660D01*
X171584361Y-97252658D01*
X171492922Y-97132077D01*
X171372343Y-97040639D01*
X171249842Y-96992331D01*
X171231564Y-96985123D01*
X171231563Y-96985122D01*
X171231561Y-96985122D01*
X171185926Y-96979642D01*
X171143102Y-96974500D01*
X171143097Y-96974500D01*
X171124500Y-96974500D01*
X171057461Y-96954815D01*
X171011706Y-96902011D01*
X171000500Y-96850500D01*
X171000500Y-95116232D01*
X171000499Y-95116228D01*
X170989175Y-95059297D01*
X170967816Y-94951918D01*
X170933801Y-94869799D01*
X170903704Y-94797137D01*
X170903702Y-94797135D01*
X170903702Y-94797133D01*
X170810627Y-94657838D01*
X170810624Y-94657834D01*
X167242165Y-91089375D01*
X167242161Y-91089372D01*
X167102866Y-90996297D01*
X167102863Y-90996296D01*
X166948082Y-90932184D01*
X166948073Y-90932181D01*
X166783771Y-90899500D01*
X166783767Y-90899500D01*
X166616233Y-90899500D01*
X166616228Y-90899500D01*
X166451926Y-90932181D01*
X166451917Y-90932184D01*
X166297136Y-90996296D01*
X166297133Y-90996297D01*
X166157838Y-91089372D01*
X166157834Y-91089375D01*
X166039375Y-91207834D01*
X166039372Y-91207838D01*
X165946297Y-91347133D01*
X165946296Y-91347136D01*
X165882184Y-91501917D01*
X165882181Y-91501926D01*
X165849500Y-91666228D01*
X165849500Y-91833771D01*
X165882181Y-91998073D01*
X165882184Y-91998082D01*
X165946296Y-92152863D01*
X165946297Y-92152866D01*
X166039372Y-92292161D01*
X166039375Y-92292165D01*
X169263181Y-95515970D01*
X169296666Y-95577293D01*
X169299500Y-95603651D01*
X169299500Y-96853379D01*
X169279815Y-96920418D01*
X169227011Y-96966173D01*
X169190285Y-96976494D01*
X169118441Y-96985121D01*
X168977656Y-97040639D01*
X168857077Y-97132077D01*
X168765638Y-97252658D01*
X168765637Y-97252660D01*
X168740354Y-97316774D01*
X168697449Y-97371918D01*
X168631541Y-97395111D01*
X168563556Y-97378990D01*
X168515080Y-97328673D01*
X168509646Y-97316774D01*
X168484362Y-97252660D01*
X168484361Y-97252658D01*
X168387797Y-97125319D01*
X168390264Y-97123447D01*
X168363964Y-97075281D01*
X168368948Y-97005589D01*
X168377740Y-96986926D01*
X168386281Y-96972135D01*
X168425500Y-96825766D01*
X168425500Y-96674234D01*
X168386281Y-96527865D01*
X168378880Y-96515047D01*
X168376129Y-96510281D01*
X168310515Y-96396635D01*
X168203365Y-96289485D01*
X168126951Y-96245367D01*
X168072136Y-96213719D01*
X167983912Y-96190080D01*
X167925766Y-96174500D01*
X167774234Y-96174500D01*
X167627863Y-96213719D01*
X167496635Y-96289485D01*
X167496632Y-96289487D01*
X167389487Y-96396632D01*
X167389485Y-96396635D01*
X167313719Y-96527863D01*
X167279520Y-96655499D01*
X167274500Y-96674234D01*
X167274500Y-96825766D01*
X167291859Y-96890550D01*
X167309752Y-96957330D01*
X167308089Y-97027180D01*
X167268926Y-97085042D01*
X167264903Y-97088226D01*
X167207078Y-97132076D01*
X167115639Y-97252656D01*
X167060122Y-97393438D01*
X167054188Y-97442853D01*
X167049500Y-97481898D01*
X167049500Y-98118102D01*
X167052586Y-98143797D01*
X167060122Y-98206561D01*
X167115639Y-98347343D01*
X167207077Y-98467922D01*
X167327656Y-98559360D01*
X167327657Y-98559360D01*
X167327658Y-98559361D01*
X167468436Y-98614877D01*
X167556898Y-98625500D01*
X167556903Y-98625500D01*
X168043097Y-98625500D01*
X168043102Y-98625500D01*
X168131564Y-98614877D01*
X168272342Y-98559361D01*
X168392922Y-98467922D01*
X168484361Y-98347342D01*
X168509646Y-98283223D01*
X168552551Y-98228081D01*
X168618459Y-98204888D01*
X168686443Y-98221008D01*
X168734920Y-98271325D01*
X168740350Y-98283214D01*
X168751115Y-98310512D01*
X168765639Y-98347343D01*
X168857077Y-98467922D01*
X168977656Y-98559360D01*
X168977657Y-98559360D01*
X168977658Y-98559361D01*
X169118436Y-98614877D01*
X169206898Y-98625500D01*
X169206903Y-98625500D01*
X169693097Y-98625500D01*
X169693102Y-98625500D01*
X169781564Y-98614877D01*
X169792950Y-98610386D01*
X169862534Y-98604103D01*
X169885894Y-98611179D01*
X169901913Y-98617814D01*
X169901918Y-98617816D01*
X170066228Y-98650499D01*
X170066232Y-98650500D01*
X170066233Y-98650500D01*
X170233768Y-98650500D01*
X170233769Y-98650499D01*
X170398082Y-98617816D01*
X170438490Y-98601077D01*
X170507959Y-98593609D01*
X170531433Y-98600284D01*
X170568436Y-98614877D01*
X170656898Y-98625500D01*
X170656903Y-98625500D01*
X171143097Y-98625500D01*
X171143102Y-98625500D01*
X171231564Y-98614877D01*
X171372342Y-98559361D01*
X171492922Y-98467922D01*
X171584361Y-98347342D01*
X171609646Y-98283223D01*
X171652551Y-98228081D01*
X171718459Y-98204888D01*
X171786443Y-98221008D01*
X171834920Y-98271325D01*
X171840350Y-98283214D01*
X171851115Y-98310512D01*
X171865639Y-98347343D01*
X171957077Y-98467922D01*
X172077656Y-98559360D01*
X172077657Y-98559360D01*
X172077658Y-98559361D01*
X172218436Y-98614877D01*
X172306898Y-98625500D01*
X172306903Y-98625500D01*
X172793097Y-98625500D01*
X172793102Y-98625500D01*
X172881564Y-98614877D01*
X173022342Y-98559361D01*
X173142922Y-98467922D01*
X173142928Y-98467913D01*
X173148916Y-98461927D01*
X173150304Y-98463315D01*
X173197639Y-98428329D01*
X173267359Y-98423768D01*
X173272343Y-98424993D01*
X173274234Y-98425500D01*
X173274236Y-98425500D01*
X173425764Y-98425500D01*
X173425766Y-98425500D01*
X173572135Y-98386281D01*
X173703365Y-98310515D01*
X173810515Y-98203365D01*
X173886281Y-98072135D01*
X173925500Y-97925766D01*
X173925500Y-97810707D01*
X173945185Y-97743668D01*
X173997989Y-97697913D01*
X174067147Y-97687969D01*
X174124339Y-97714088D01*
X174125319Y-97712797D01*
X174252656Y-97809360D01*
X174252657Y-97809360D01*
X174252658Y-97809361D01*
X174393436Y-97864877D01*
X174481898Y-97875500D01*
X174720613Y-97875500D01*
X174787652Y-97895185D01*
X174808294Y-97911819D01*
X175363181Y-98466705D01*
X175396666Y-98528028D01*
X175399500Y-98554386D01*
X175399500Y-98988213D01*
X175379815Y-99055252D01*
X175350987Y-99086588D01*
X175314552Y-99114545D01*
X175222300Y-99234770D01*
X175164313Y-99374763D01*
X175164313Y-99374764D01*
X175149500Y-99487272D01*
X175149500Y-99870613D01*
X175129815Y-99937652D01*
X175113181Y-99958294D01*
X174359491Y-100711983D01*
X174359489Y-100711986D01*
X174328097Y-100766360D01*
X174299682Y-100815578D01*
X174296705Y-100820734D01*
X174296703Y-100820737D01*
X174287017Y-100837512D01*
X174287016Y-100837514D01*
X174287016Y-100837515D01*
X174249500Y-100977525D01*
X174249500Y-100977527D01*
X174249500Y-101225500D01*
X174229815Y-101292539D01*
X174177011Y-101338294D01*
X174125500Y-101349500D01*
X173766739Y-101349500D01*
X173698608Y-101359426D01*
X173593514Y-101410803D01*
X173510803Y-101493514D01*
X173459426Y-101598608D01*
X173449500Y-101666739D01*
X173449500Y-103733260D01*
X173459426Y-103801391D01*
X173510803Y-103906485D01*
X173593514Y-103989196D01*
X173593515Y-103989196D01*
X173593517Y-103989198D01*
X173698607Y-104040573D01*
X173732673Y-104045536D01*
X173766739Y-104050500D01*
X173766740Y-104050500D01*
X175833261Y-104050500D01*
X175855971Y-104047191D01*
X175901393Y-104040573D01*
X176006483Y-103989198D01*
X176089198Y-103906483D01*
X176140573Y-103801393D01*
X176150500Y-103733260D01*
X176150500Y-101666740D01*
X176140573Y-101598607D01*
X176089198Y-101493517D01*
X176089196Y-101493515D01*
X176089196Y-101493514D01*
X176006485Y-101410803D01*
X175901391Y-101359426D01*
X175833261Y-101349500D01*
X175833260Y-101349500D01*
X175578386Y-101349500D01*
X175511347Y-101329815D01*
X175465592Y-101277011D01*
X175455648Y-101207853D01*
X175484673Y-101144297D01*
X175490705Y-101137819D01*
X175741705Y-100886819D01*
X175803028Y-100853334D01*
X175829386Y-100850500D01*
X176212713Y-100850500D01*
X176212720Y-100850500D01*
X176325236Y-100835687D01*
X176465233Y-100777698D01*
X176585451Y-100685451D01*
X176677698Y-100565233D01*
X176710939Y-100484983D01*
X176754780Y-100430579D01*
X176821074Y-100408514D01*
X176888773Y-100425793D01*
X176936384Y-100476930D01*
X176949500Y-100532435D01*
X176949500Y-105583771D01*
X176982181Y-105748073D01*
X176982184Y-105748082D01*
X177046296Y-105902863D01*
X177046297Y-105902866D01*
X177139372Y-106042161D01*
X177139375Y-106042165D01*
X178557834Y-107460624D01*
X178557838Y-107460627D01*
X178697137Y-107553704D01*
X178697139Y-107553705D01*
X178697143Y-107553707D01*
X178749172Y-107575257D01*
X178806584Y-107599037D01*
X178851918Y-107617816D01*
X178986495Y-107644584D01*
X178989973Y-107645489D01*
X179016984Y-107661678D01*
X179044875Y-107676268D01*
X179046714Y-107679497D01*
X179049903Y-107681409D01*
X179063874Y-107709632D01*
X179079449Y-107736983D01*
X179079250Y-107740693D01*
X179080900Y-107744026D01*
X179077394Y-107775320D01*
X179075710Y-107806753D01*
X179073535Y-107809768D01*
X179073122Y-107813462D01*
X179053261Y-107837884D01*
X179034844Y-107863425D01*
X179031384Y-107864786D01*
X179029039Y-107867670D01*
X178999120Y-107877479D01*
X178969825Y-107889006D01*
X178963044Y-107889309D01*
X178962648Y-107889439D01*
X178961931Y-107889358D01*
X178958773Y-107889500D01*
X160004067Y-107889500D01*
X159995957Y-107889235D01*
X159748422Y-107873011D01*
X159732340Y-107870893D01*
X159493048Y-107823294D01*
X159477382Y-107819096D01*
X159246349Y-107740671D01*
X159231363Y-107734464D01*
X159012539Y-107626552D01*
X158998492Y-107618442D01*
X158795626Y-107482891D01*
X158782758Y-107473017D01*
X158768626Y-107460624D01*
X158687181Y-107389198D01*
X158599321Y-107312147D01*
X158587852Y-107300678D01*
X158500780Y-107201391D01*
X158426979Y-107117238D01*
X158417108Y-107104373D01*
X158360311Y-107019371D01*
X158281557Y-106901507D01*
X158273447Y-106887460D01*
X158271392Y-106883293D01*
X158165532Y-106668629D01*
X158159331Y-106653657D01*
X158080900Y-106422606D01*
X158076708Y-106406963D01*
X158029104Y-106167647D01*
X158026989Y-106151586D01*
X158010765Y-105904042D01*
X158010500Y-105895933D01*
X158010500Y-95798435D01*
X158709500Y-95798435D01*
X158709500Y-96001565D01*
X158710235Y-96006204D01*
X158741277Y-96202194D01*
X158741277Y-96202197D01*
X158804045Y-96395377D01*
X158827107Y-96440638D01*
X158895923Y-96575696D01*
X158896268Y-96576372D01*
X159015656Y-96740697D01*
X159015660Y-96740702D01*
X159159297Y-96884339D01*
X159159302Y-96884343D01*
X159283394Y-96974500D01*
X159323631Y-97003734D01*
X159483206Y-97085042D01*
X159504622Y-97095954D01*
X159697803Y-97158722D01*
X159697804Y-97158722D01*
X159697807Y-97158723D01*
X159898435Y-97190500D01*
X159898436Y-97190500D01*
X160101564Y-97190500D01*
X160101565Y-97190500D01*
X160302193Y-97158723D01*
X160302196Y-97158722D01*
X160302197Y-97158722D01*
X160495377Y-97095954D01*
X160495377Y-97095953D01*
X160495380Y-97095953D01*
X160676369Y-97003734D01*
X160840704Y-96884338D01*
X160984338Y-96740704D01*
X161103734Y-96576369D01*
X161195953Y-96395380D01*
X161203404Y-96372449D01*
X161258722Y-96202197D01*
X161258722Y-96202196D01*
X161258723Y-96202193D01*
X161290500Y-96001565D01*
X161290500Y-95798435D01*
X161258723Y-95597807D01*
X161258722Y-95597803D01*
X161258722Y-95597802D01*
X161195954Y-95404622D01*
X161130441Y-95276047D01*
X161103734Y-95223631D01*
X161025705Y-95116233D01*
X160984343Y-95059302D01*
X160984339Y-95059297D01*
X160840702Y-94915660D01*
X160840697Y-94915656D01*
X160676372Y-94796268D01*
X160676371Y-94796267D01*
X160676369Y-94796266D01*
X160564254Y-94739140D01*
X160495377Y-94704045D01*
X160302196Y-94641277D01*
X160151722Y-94617444D01*
X160101565Y-94609500D01*
X159898435Y-94609500D01*
X159831559Y-94620092D01*
X159697805Y-94641277D01*
X159697802Y-94641277D01*
X159504622Y-94704045D01*
X159323627Y-94796268D01*
X159159302Y-94915656D01*
X159159297Y-94915660D01*
X159015660Y-95059297D01*
X159015656Y-95059302D01*
X158896268Y-95223627D01*
X158804045Y-95404622D01*
X158741277Y-95597802D01*
X158741277Y-95597805D01*
X158728156Y-95680649D01*
X158709500Y-95798435D01*
X158010500Y-95798435D01*
X158010500Y-78954085D01*
X158030185Y-78887046D01*
X158082989Y-78841291D01*
X158152147Y-78831347D01*
X158188961Y-78842685D01*
X158193515Y-78844911D01*
X158193517Y-78844913D01*
X158279702Y-78887046D01*
X158298607Y-78896288D01*
X158366739Y-78906215D01*
X158366740Y-78906215D01*
X160033261Y-78906215D01*
X160055971Y-78902906D01*
X160101393Y-78896288D01*
X160206483Y-78844913D01*
X160289198Y-78762198D01*
X160340573Y-78657108D01*
X160350500Y-78588975D01*
X160350500Y-77722455D01*
X160340573Y-77654322D01*
X160289198Y-77549232D01*
X160289196Y-77549230D01*
X160289196Y-77549229D01*
X160260767Y-77520800D01*
X160250254Y-77501546D01*
X160235830Y-77485015D01*
X160229761Y-77464018D01*
X160227282Y-77459477D01*
X160225771Y-77451185D01*
X160225500Y-77449344D01*
X160225500Y-77449234D01*
X160225463Y-77449098D01*
X160224420Y-77442011D01*
X160224486Y-77441536D01*
X160224439Y-77441175D01*
X160224539Y-77441161D01*
X160228312Y-77414265D01*
X160228961Y-77386265D01*
X160233222Y-77379269D01*
X160234127Y-77372819D01*
X160244475Y-77360793D01*
X160259416Y-77336264D01*
X160289198Y-77306483D01*
X160340573Y-77201393D01*
X160350500Y-77133260D01*
X160350500Y-76266740D01*
X160340573Y-76198607D01*
X160289198Y-76093517D01*
X160289196Y-76093515D01*
X160289196Y-76093514D01*
X160255505Y-76059823D01*
X160222020Y-75998500D01*
X160227004Y-75928808D01*
X160255505Y-75884461D01*
X160289198Y-75850769D01*
X160340573Y-75745679D01*
X160350500Y-75677546D01*
X160350500Y-74811026D01*
X160340573Y-74742893D01*
X160289198Y-74637803D01*
X160289196Y-74637801D01*
X160289196Y-74637800D01*
X160255506Y-74604110D01*
X160222021Y-74542787D01*
X160227005Y-74473095D01*
X160255506Y-74428748D01*
X160289196Y-74395057D01*
X160289198Y-74395055D01*
X160340573Y-74289965D01*
X160350500Y-74221832D01*
X160350500Y-73355312D01*
X160340573Y-73287179D01*
X160289198Y-73182089D01*
X160289196Y-73182087D01*
X160289196Y-73182086D01*
X160255506Y-73148396D01*
X160251167Y-73140450D01*
X160243920Y-73135025D01*
X160234685Y-73110265D01*
X160222021Y-73087073D01*
X160222666Y-73078043D01*
X160219503Y-73069561D01*
X160225119Y-73043740D01*
X160225167Y-73043074D01*
X160808000Y-73043074D01*
X160808000Y-73216925D01*
X160835197Y-73388639D01*
X160835197Y-73388642D01*
X160888918Y-73553978D01*
X160941228Y-73656642D01*
X160967847Y-73708884D01*
X161070035Y-73849533D01*
X161192967Y-73972465D01*
X161333616Y-74074653D01*
X161461127Y-74139623D01*
X161488521Y-74153581D01*
X161653858Y-74207302D01*
X161653859Y-74207302D01*
X161653862Y-74207303D01*
X161825574Y-74234500D01*
X161825575Y-74234500D01*
X161999425Y-74234500D01*
X161999426Y-74234500D01*
X162171138Y-74207303D01*
X162171141Y-74207302D01*
X162171142Y-74207302D01*
X162336478Y-74153581D01*
X162336478Y-74153580D01*
X162336481Y-74153580D01*
X162491384Y-74074653D01*
X162632033Y-73972465D01*
X162754965Y-73849533D01*
X162857153Y-73708884D01*
X162936080Y-73553981D01*
X162939348Y-73543922D01*
X162989802Y-73388642D01*
X162989802Y-73388641D01*
X162989803Y-73388638D01*
X163017000Y-73216926D01*
X163017000Y-73043074D01*
X162989803Y-72871362D01*
X162989802Y-72871358D01*
X162989802Y-72871357D01*
X162936081Y-72706021D01*
X162914917Y-72664485D01*
X162857153Y-72551116D01*
X162754965Y-72410467D01*
X162632033Y-72287535D01*
X162491384Y-72185347D01*
X162428614Y-72153364D01*
X162336478Y-72106418D01*
X162171141Y-72052697D01*
X162042354Y-72032299D01*
X161999426Y-72025500D01*
X161825574Y-72025500D01*
X161768336Y-72034565D01*
X161653860Y-72052697D01*
X161653857Y-72052697D01*
X161488521Y-72106418D01*
X161333615Y-72185347D01*
X161278405Y-72225460D01*
X161192967Y-72287535D01*
X161192965Y-72287537D01*
X161192964Y-72287537D01*
X161070037Y-72410464D01*
X161070037Y-72410465D01*
X161070035Y-72410467D01*
X161068724Y-72412272D01*
X160967847Y-72551115D01*
X160888918Y-72706021D01*
X160835197Y-72871357D01*
X160835197Y-72871360D01*
X160808000Y-73043074D01*
X160225167Y-73043074D01*
X160227005Y-73017381D01*
X160232823Y-73008327D01*
X160234355Y-73001288D01*
X160255506Y-72973034D01*
X160278019Y-72950521D01*
X160289196Y-72939343D01*
X160289198Y-72939341D01*
X160340573Y-72834251D01*
X160350500Y-72766118D01*
X160350500Y-71899598D01*
X160340573Y-71831465D01*
X160289198Y-71726375D01*
X160289196Y-71726373D01*
X160289196Y-71726372D01*
X160255505Y-71692681D01*
X160222020Y-71631358D01*
X160227004Y-71561666D01*
X160255506Y-71517318D01*
X160289196Y-71483628D01*
X160289198Y-71483626D01*
X160340573Y-71378536D01*
X160350500Y-71310403D01*
X160350500Y-70443883D01*
X160340573Y-70375750D01*
X160289198Y-70270660D01*
X160289196Y-70270658D01*
X160289196Y-70270657D01*
X160255506Y-70236967D01*
X160222021Y-70175644D01*
X160227005Y-70105952D01*
X160255506Y-70061605D01*
X160289196Y-70027914D01*
X160289198Y-70027912D01*
X160340573Y-69922822D01*
X160350500Y-69854689D01*
X160350500Y-68988169D01*
X160348508Y-68974500D01*
X160340573Y-68920037D01*
X160337775Y-68914313D01*
X160289198Y-68814946D01*
X160289196Y-68814944D01*
X160289196Y-68814943D01*
X160206485Y-68732232D01*
X160101391Y-68680855D01*
X160033261Y-68670929D01*
X160033260Y-68670929D01*
X159899500Y-68670929D01*
X159832461Y-68651244D01*
X159786706Y-68598440D01*
X159775500Y-68546929D01*
X159775500Y-68449236D01*
X159775500Y-68449234D01*
X159736281Y-68302865D01*
X159718638Y-68272306D01*
X159702166Y-68204410D01*
X159717435Y-68150443D01*
X159722347Y-68141532D01*
X159723015Y-68140865D01*
X159798781Y-68009635D01*
X159802298Y-67996508D01*
X159809578Y-67983303D01*
X159824100Y-67968897D01*
X159834746Y-67951427D01*
X159850243Y-67942964D01*
X159859182Y-67934098D01*
X159871160Y-67931542D01*
X159877595Y-67928028D01*
X159877125Y-67926892D01*
X159884633Y-67923782D01*
X159884635Y-67923781D01*
X160015865Y-67848015D01*
X160123015Y-67740865D01*
X160198781Y-67609635D01*
X160238000Y-67463266D01*
X160238000Y-67311734D01*
X160198781Y-67165365D01*
X160123015Y-67034135D01*
X160015865Y-66926985D01*
X159950250Y-66889102D01*
X159884636Y-66851219D01*
X159811450Y-66831609D01*
X159738266Y-66812000D01*
X159586734Y-66812000D01*
X159440363Y-66851219D01*
X159309135Y-66926985D01*
X159309132Y-66926987D01*
X159201987Y-67034132D01*
X159201985Y-67034135D01*
X159126218Y-67165365D01*
X159123111Y-67172869D01*
X159121549Y-67172222D01*
X159090230Y-67223593D01*
X159047400Y-67246979D01*
X159047869Y-67248111D01*
X159040365Y-67251218D01*
X158909135Y-67326985D01*
X158909132Y-67326987D01*
X158801987Y-67434132D01*
X158801985Y-67434135D01*
X158726219Y-67565363D01*
X158687000Y-67711734D01*
X158687000Y-67863266D01*
X158719164Y-67983303D01*
X158726219Y-68009634D01*
X158726220Y-68009637D01*
X158743860Y-68040190D01*
X158760333Y-68108090D01*
X158741237Y-68163263D01*
X158743548Y-68164597D01*
X158663720Y-68302861D01*
X158663720Y-68302862D01*
X158663719Y-68302864D01*
X158663719Y-68302865D01*
X158662675Y-68306762D01*
X158624500Y-68449234D01*
X158624500Y-68546929D01*
X158604815Y-68613968D01*
X158552011Y-68659723D01*
X158500500Y-68670929D01*
X158366739Y-68670929D01*
X158298608Y-68680855D01*
X158188960Y-68734459D01*
X158120087Y-68746218D01*
X158055790Y-68718874D01*
X158016483Y-68661110D01*
X158010500Y-68623058D01*
X158010500Y-63278711D01*
X160562000Y-63278711D01*
X160562000Y-63521288D01*
X160593661Y-63761785D01*
X160656447Y-63996104D01*
X160663196Y-64012397D01*
X160749276Y-64220212D01*
X160870564Y-64430289D01*
X160870566Y-64430292D01*
X160870567Y-64430293D01*
X161018233Y-64622736D01*
X161018239Y-64622743D01*
X161189756Y-64794260D01*
X161189762Y-64794265D01*
X161382211Y-64941936D01*
X161592288Y-65063224D01*
X161816400Y-65156054D01*
X162050711Y-65218838D01*
X162231086Y-65242584D01*
X162291211Y-65250500D01*
X162291212Y-65250500D01*
X162533789Y-65250500D01*
X162581888Y-65244167D01*
X162774289Y-65218838D01*
X163008600Y-65156054D01*
X163232712Y-65063224D01*
X163442789Y-64941936D01*
X163635238Y-64794265D01*
X163806765Y-64622738D01*
X163954436Y-64430289D01*
X164075724Y-64220212D01*
X164168554Y-63996100D01*
X164231338Y-63761789D01*
X164263000Y-63521288D01*
X164263000Y-63278712D01*
X164261877Y-63270185D01*
X164251628Y-63192331D01*
X164231338Y-63038211D01*
X164168554Y-62803900D01*
X164075724Y-62579788D01*
X163954436Y-62369711D01*
X163868496Y-62257711D01*
X163806766Y-62177263D01*
X163806760Y-62177256D01*
X163635243Y-62005739D01*
X163635236Y-62005733D01*
X163442793Y-61858067D01*
X163442792Y-61858066D01*
X163442789Y-61858064D01*
X163232712Y-61736776D01*
X163232705Y-61736773D01*
X163008604Y-61643947D01*
X162808142Y-61590233D01*
X162774289Y-61581162D01*
X162774288Y-61581161D01*
X162774285Y-61581161D01*
X162533789Y-61549500D01*
X162533788Y-61549500D01*
X162291212Y-61549500D01*
X162291211Y-61549500D01*
X162050714Y-61581161D01*
X161816395Y-61643947D01*
X161592294Y-61736773D01*
X161592285Y-61736777D01*
X161382206Y-61858067D01*
X161189763Y-62005733D01*
X161189756Y-62005739D01*
X161018239Y-62177256D01*
X161018233Y-62177263D01*
X160870567Y-62369706D01*
X160870564Y-62369710D01*
X160870564Y-62369711D01*
X160864508Y-62380201D01*
X160749277Y-62579785D01*
X160749273Y-62579794D01*
X160656447Y-62803895D01*
X160593661Y-63038214D01*
X160562000Y-63278711D01*
X158010500Y-63278711D01*
X158010500Y-55693145D01*
X170854500Y-55693145D01*
X170854500Y-57271863D01*
X170869953Y-57389253D01*
X170869956Y-57389262D01*
X170930464Y-57535341D01*
X171026718Y-57660782D01*
X171152159Y-57757036D01*
X171298238Y-57817544D01*
X171415639Y-57833000D01*
X172994360Y-57832999D01*
X172994363Y-57832999D01*
X173111753Y-57817546D01*
X173111757Y-57817544D01*
X173111762Y-57817544D01*
X173257841Y-57757036D01*
X173383282Y-57660782D01*
X173479536Y-57535341D01*
X173540044Y-57389262D01*
X173555500Y-57271861D01*
X173555499Y-56474234D01*
X186974500Y-56474234D01*
X186974500Y-56625765D01*
X187013719Y-56772136D01*
X187041058Y-56819487D01*
X187089485Y-56903365D01*
X187196635Y-57010515D01*
X187327865Y-57086281D01*
X187474234Y-57125500D01*
X187474236Y-57125500D01*
X187625764Y-57125500D01*
X187625766Y-57125500D01*
X187772135Y-57086281D01*
X187903365Y-57010515D01*
X187921436Y-56992444D01*
X188917500Y-56992444D01*
X188917500Y-57167555D01*
X188944894Y-57340512D01*
X188999004Y-57507049D01*
X188999005Y-57507052D01*
X189077335Y-57660781D01*
X189078505Y-57663077D01*
X189181433Y-57804745D01*
X189305255Y-57928567D01*
X189446923Y-58031495D01*
X189523448Y-58070486D01*
X189602947Y-58110994D01*
X189602950Y-58110995D01*
X189686218Y-58138050D01*
X189769489Y-58165106D01*
X189942444Y-58192500D01*
X189942445Y-58192500D01*
X190117555Y-58192500D01*
X190117556Y-58192500D01*
X190290511Y-58165106D01*
X190457052Y-58110994D01*
X190613077Y-58031495D01*
X190754745Y-57928567D01*
X190878567Y-57804745D01*
X190981495Y-57663077D01*
X191060994Y-57507052D01*
X191115106Y-57340511D01*
X191142500Y-57167556D01*
X191142500Y-56992444D01*
X191115106Y-56819489D01*
X191060994Y-56652948D01*
X191060994Y-56652947D01*
X190981494Y-56496922D01*
X190878567Y-56355255D01*
X190754745Y-56231433D01*
X190613077Y-56128505D01*
X190457052Y-56049005D01*
X190457049Y-56049004D01*
X190290512Y-55994894D01*
X190161751Y-55974500D01*
X190117556Y-55967500D01*
X189942444Y-55967500D01*
X189898249Y-55974500D01*
X189769487Y-55994894D01*
X189602950Y-56049004D01*
X189602947Y-56049005D01*
X189446922Y-56128505D01*
X189366095Y-56187229D01*
X189305255Y-56231433D01*
X189305253Y-56231435D01*
X189305252Y-56231435D01*
X189181435Y-56355252D01*
X189181435Y-56355253D01*
X189181433Y-56355255D01*
X189137229Y-56416095D01*
X189078505Y-56496922D01*
X188999005Y-56652947D01*
X188999004Y-56652950D01*
X188944894Y-56819487D01*
X188917500Y-56992444D01*
X187921436Y-56992444D01*
X188010515Y-56903365D01*
X188086281Y-56772135D01*
X188125500Y-56625766D01*
X188125500Y-56474234D01*
X188086281Y-56327865D01*
X188010515Y-56196635D01*
X187903365Y-56089485D01*
X187833250Y-56049004D01*
X187772136Y-56013719D01*
X187698950Y-55994109D01*
X187625766Y-55974500D01*
X187474234Y-55974500D01*
X187327863Y-56013719D01*
X187196635Y-56089485D01*
X187196632Y-56089487D01*
X187089487Y-56196632D01*
X187089485Y-56196635D01*
X187013719Y-56327863D01*
X186974500Y-56474234D01*
X173555499Y-56474234D01*
X173555499Y-55693140D01*
X173555499Y-55693139D01*
X173555499Y-55693136D01*
X173540046Y-55575746D01*
X173540044Y-55575739D01*
X173540044Y-55575738D01*
X173479536Y-55429659D01*
X173383282Y-55304218D01*
X173345899Y-55275533D01*
X173304697Y-55219105D01*
X173300543Y-55149358D01*
X173333707Y-55089476D01*
X173366698Y-55056485D01*
X173366700Y-55056483D01*
X173418075Y-54951393D01*
X173428002Y-54883260D01*
X173428002Y-54205513D01*
X177729500Y-54205513D01*
X177729500Y-54394486D01*
X177759059Y-54581118D01*
X177817454Y-54760836D01*
X177879833Y-54883260D01*
X177903240Y-54929199D01*
X178014310Y-55082073D01*
X178147927Y-55215690D01*
X178300801Y-55326760D01*
X178363530Y-55358722D01*
X178469163Y-55412545D01*
X178469165Y-55412545D01*
X178469168Y-55412547D01*
X178565497Y-55443846D01*
X178648881Y-55470940D01*
X178835514Y-55500500D01*
X178835519Y-55500500D01*
X179024486Y-55500500D01*
X179211118Y-55470940D01*
X179390832Y-55412547D01*
X179559199Y-55326760D01*
X179712073Y-55215690D01*
X179845690Y-55082073D01*
X179956760Y-54929199D01*
X180042547Y-54760832D01*
X180082069Y-54639195D01*
X180121507Y-54581521D01*
X180185866Y-54554323D01*
X180254712Y-54566238D01*
X180306188Y-54613482D01*
X180317931Y-54639196D01*
X180357454Y-54760836D01*
X180419833Y-54883260D01*
X180443240Y-54929199D01*
X180554310Y-55082073D01*
X180687927Y-55215690D01*
X180840801Y-55326760D01*
X180903530Y-55358722D01*
X181009163Y-55412545D01*
X181009165Y-55412545D01*
X181009168Y-55412547D01*
X181105497Y-55443846D01*
X181188881Y-55470940D01*
X181375514Y-55500500D01*
X181375519Y-55500500D01*
X181564486Y-55500500D01*
X181751118Y-55470940D01*
X181930832Y-55412547D01*
X182099199Y-55326760D01*
X182252073Y-55215690D01*
X182385690Y-55082073D01*
X182496760Y-54929199D01*
X182582547Y-54760832D01*
X182622069Y-54639195D01*
X182661507Y-54581521D01*
X182725866Y-54554323D01*
X182794712Y-54566238D01*
X182846188Y-54613482D01*
X182857931Y-54639196D01*
X182897454Y-54760836D01*
X182959833Y-54883260D01*
X182983240Y-54929199D01*
X183094310Y-55082073D01*
X183227927Y-55215690D01*
X183380801Y-55326760D01*
X183443530Y-55358722D01*
X183549163Y-55412545D01*
X183549165Y-55412545D01*
X183549168Y-55412547D01*
X183645497Y-55443846D01*
X183728881Y-55470940D01*
X183915514Y-55500500D01*
X183915519Y-55500500D01*
X184104486Y-55500500D01*
X184291118Y-55470940D01*
X184470832Y-55412547D01*
X184639199Y-55326760D01*
X184792073Y-55215690D01*
X184925690Y-55082073D01*
X185036760Y-54929199D01*
X185122547Y-54760832D01*
X185180940Y-54581118D01*
X185185184Y-54554323D01*
X185210500Y-54394486D01*
X185210500Y-54205513D01*
X185180940Y-54018881D01*
X185150725Y-53925891D01*
X185143634Y-53904066D01*
X185139858Y-53892444D01*
X188917500Y-53892444D01*
X188917500Y-54067555D01*
X188944894Y-54240512D01*
X188999004Y-54407049D01*
X188999005Y-54407052D01*
X189074045Y-54554323D01*
X189078505Y-54563077D01*
X189181433Y-54704745D01*
X189305255Y-54828567D01*
X189446923Y-54931495D01*
X189464993Y-54940702D01*
X189602947Y-55010994D01*
X189602950Y-55010995D01*
X189686218Y-55038050D01*
X189769489Y-55065106D01*
X189942444Y-55092500D01*
X189942445Y-55092500D01*
X190117555Y-55092500D01*
X190117556Y-55092500D01*
X190290511Y-55065106D01*
X190457052Y-55010994D01*
X190613077Y-54931495D01*
X190754745Y-54828567D01*
X190878567Y-54704745D01*
X190981495Y-54563077D01*
X191060994Y-54407052D01*
X191115106Y-54240511D01*
X191142500Y-54067556D01*
X191142500Y-53998435D01*
X194509500Y-53998435D01*
X194509500Y-54201564D01*
X194541277Y-54402194D01*
X194541277Y-54402197D01*
X194604045Y-54595377D01*
X194604047Y-54595380D01*
X194688351Y-54760836D01*
X194696268Y-54776372D01*
X194815656Y-54940697D01*
X194815660Y-54940702D01*
X194959297Y-55084339D01*
X194959302Y-55084343D01*
X195080220Y-55172194D01*
X195123631Y-55203734D01*
X195264544Y-55275533D01*
X195304622Y-55295954D01*
X195497803Y-55358722D01*
X195497804Y-55358722D01*
X195497807Y-55358723D01*
X195698435Y-55390500D01*
X195698436Y-55390500D01*
X195901564Y-55390500D01*
X195901565Y-55390500D01*
X196102193Y-55358723D01*
X196102196Y-55358722D01*
X196102197Y-55358722D01*
X196295377Y-55295954D01*
X196295377Y-55295953D01*
X196295380Y-55295953D01*
X196476369Y-55203734D01*
X196640704Y-55084338D01*
X196784338Y-54940704D01*
X196903734Y-54776369D01*
X196995953Y-54595380D01*
X197009293Y-54554323D01*
X197058722Y-54402197D01*
X197058722Y-54402196D01*
X197058723Y-54402193D01*
X197090500Y-54201565D01*
X197090500Y-53998435D01*
X197058723Y-53797807D01*
X197058722Y-53797803D01*
X197058722Y-53797802D01*
X196995954Y-53604622D01*
X196995953Y-53604620D01*
X196903734Y-53423631D01*
X196794469Y-53273240D01*
X196784343Y-53259302D01*
X196784339Y-53259297D01*
X196640702Y-53115660D01*
X196640697Y-53115656D01*
X196476372Y-52996268D01*
X196476371Y-52996267D01*
X196476369Y-52996266D01*
X196372838Y-52943514D01*
X196295377Y-52904045D01*
X196102196Y-52841277D01*
X195951722Y-52817444D01*
X195901565Y-52809500D01*
X195698435Y-52809500D01*
X195631559Y-52820092D01*
X195497805Y-52841277D01*
X195497802Y-52841277D01*
X195304622Y-52904045D01*
X195123627Y-52996268D01*
X194959302Y-53115656D01*
X194959297Y-53115660D01*
X194815660Y-53259297D01*
X194815656Y-53259302D01*
X194696268Y-53423627D01*
X194604045Y-53604622D01*
X194541277Y-53797802D01*
X194541277Y-53797805D01*
X194509500Y-53998435D01*
X191142500Y-53998435D01*
X191142500Y-53892444D01*
X191115106Y-53719489D01*
X191060994Y-53552948D01*
X191060994Y-53552947D01*
X190981494Y-53396922D01*
X190878567Y-53255255D01*
X190754745Y-53131433D01*
X190613077Y-53028505D01*
X190457052Y-52949005D01*
X190457049Y-52949004D01*
X190290512Y-52894894D01*
X190204033Y-52881197D01*
X190117556Y-52867500D01*
X189942444Y-52867500D01*
X189884792Y-52876631D01*
X189769487Y-52894894D01*
X189602950Y-52949004D01*
X189602947Y-52949005D01*
X189446922Y-53028505D01*
X189366095Y-53087229D01*
X189305255Y-53131433D01*
X189305253Y-53131435D01*
X189305252Y-53131435D01*
X189181435Y-53255252D01*
X189181435Y-53255253D01*
X189181433Y-53255255D01*
X189178493Y-53259302D01*
X189078505Y-53396922D01*
X188999005Y-53552947D01*
X188999004Y-53552950D01*
X188944894Y-53719487D01*
X188917500Y-53892444D01*
X185139858Y-53892444D01*
X185122547Y-53839168D01*
X185122545Y-53839165D01*
X185122545Y-53839163D01*
X185061568Y-53719489D01*
X185036760Y-53670801D01*
X184925690Y-53517927D01*
X184792073Y-53384310D01*
X184639199Y-53273240D01*
X184611844Y-53259302D01*
X184470836Y-53187454D01*
X184291118Y-53129059D01*
X184104486Y-53099500D01*
X184104481Y-53099500D01*
X183915519Y-53099500D01*
X183915514Y-53099500D01*
X183728881Y-53129059D01*
X183549163Y-53187454D01*
X183380800Y-53273240D01*
X183293579Y-53336610D01*
X183227927Y-53384310D01*
X183227925Y-53384312D01*
X183227924Y-53384312D01*
X183094312Y-53517924D01*
X183094312Y-53517925D01*
X183094310Y-53517927D01*
X183068866Y-53552948D01*
X182983240Y-53670800D01*
X182897454Y-53839163D01*
X182857931Y-53960803D01*
X182818493Y-54018478D01*
X182754134Y-54045676D01*
X182685288Y-54033761D01*
X182633812Y-53986516D01*
X182622069Y-53960803D01*
X182600999Y-53895956D01*
X182582547Y-53839168D01*
X182582545Y-53839165D01*
X182582545Y-53839163D01*
X182521568Y-53719489D01*
X182496760Y-53670801D01*
X182385690Y-53517927D01*
X182252073Y-53384310D01*
X182099199Y-53273240D01*
X182071844Y-53259302D01*
X181930836Y-53187454D01*
X181751118Y-53129059D01*
X181564486Y-53099500D01*
X181564481Y-53099500D01*
X181375519Y-53099500D01*
X181375514Y-53099500D01*
X181188881Y-53129059D01*
X181009163Y-53187454D01*
X180840800Y-53273240D01*
X180753579Y-53336610D01*
X180687927Y-53384310D01*
X180687925Y-53384312D01*
X180687924Y-53384312D01*
X180554312Y-53517924D01*
X180554312Y-53517925D01*
X180554310Y-53517927D01*
X180528866Y-53552948D01*
X180443240Y-53670800D01*
X180357454Y-53839163D01*
X180317931Y-53960803D01*
X180278493Y-54018478D01*
X180214134Y-54045676D01*
X180145288Y-54033761D01*
X180093812Y-53986516D01*
X180082069Y-53960803D01*
X180060999Y-53895956D01*
X180042547Y-53839168D01*
X180042545Y-53839165D01*
X180042545Y-53839163D01*
X179981568Y-53719489D01*
X179956760Y-53670801D01*
X179845690Y-53517927D01*
X179712073Y-53384310D01*
X179559199Y-53273240D01*
X179531844Y-53259302D01*
X179390836Y-53187454D01*
X179211118Y-53129059D01*
X179024486Y-53099500D01*
X179024481Y-53099500D01*
X178835519Y-53099500D01*
X178835514Y-53099500D01*
X178648881Y-53129059D01*
X178469163Y-53187454D01*
X178300800Y-53273240D01*
X178213579Y-53336610D01*
X178147927Y-53384310D01*
X178147925Y-53384312D01*
X178147924Y-53384312D01*
X178014312Y-53517924D01*
X178014312Y-53517925D01*
X178014310Y-53517927D01*
X177988866Y-53552948D01*
X177903240Y-53670800D01*
X177817454Y-53839163D01*
X177759059Y-54018881D01*
X177729500Y-54205513D01*
X173428002Y-54205513D01*
X173428002Y-53116740D01*
X173418075Y-53048607D01*
X173366700Y-52943517D01*
X173366698Y-52943515D01*
X173366698Y-52943514D01*
X173283987Y-52860803D01*
X173178893Y-52809426D01*
X173110763Y-52799500D01*
X173110762Y-52799500D01*
X171344242Y-52799500D01*
X171344241Y-52799500D01*
X171276110Y-52809426D01*
X171171016Y-52860803D01*
X171088305Y-52943514D01*
X171036928Y-53048608D01*
X171027002Y-53116739D01*
X171027002Y-54883260D01*
X171036928Y-54951391D01*
X171088305Y-55056485D01*
X171101758Y-55069938D01*
X171135243Y-55131261D01*
X171130259Y-55200953D01*
X171089564Y-55255994D01*
X171026720Y-55304216D01*
X170930463Y-55429660D01*
X170869956Y-55575737D01*
X170869955Y-55575739D01*
X170854501Y-55693129D01*
X170854501Y-55693136D01*
X170854500Y-55693145D01*
X158010500Y-55693145D01*
X158010500Y-53998435D01*
X158709500Y-53998435D01*
X158709500Y-54201564D01*
X158741277Y-54402194D01*
X158741277Y-54402197D01*
X158804045Y-54595377D01*
X158804047Y-54595380D01*
X158888351Y-54760836D01*
X158896268Y-54776372D01*
X159015656Y-54940697D01*
X159015660Y-54940702D01*
X159159297Y-55084339D01*
X159159302Y-55084343D01*
X159280220Y-55172194D01*
X159323631Y-55203734D01*
X159464544Y-55275533D01*
X159504622Y-55295954D01*
X159697803Y-55358722D01*
X159697804Y-55358722D01*
X159697807Y-55358723D01*
X159898435Y-55390500D01*
X159898436Y-55390500D01*
X160101564Y-55390500D01*
X160101565Y-55390500D01*
X160302193Y-55358723D01*
X160302196Y-55358722D01*
X160302197Y-55358722D01*
X160495377Y-55295954D01*
X160495377Y-55295953D01*
X160495380Y-55295953D01*
X160676369Y-55203734D01*
X160840704Y-55084338D01*
X160984338Y-54940704D01*
X161103734Y-54776369D01*
X161195953Y-54595380D01*
X161209293Y-54554323D01*
X161258722Y-54402197D01*
X161258722Y-54402196D01*
X161258723Y-54402193D01*
X161290500Y-54201565D01*
X161290500Y-53998435D01*
X161258723Y-53797807D01*
X161258722Y-53797803D01*
X161258722Y-53797802D01*
X161195954Y-53604622D01*
X161195953Y-53604620D01*
X161103734Y-53423631D01*
X160994469Y-53273240D01*
X160984343Y-53259302D01*
X160984339Y-53259297D01*
X160840702Y-53115660D01*
X160840697Y-53115656D01*
X160676372Y-52996268D01*
X160676371Y-52996267D01*
X160676369Y-52996266D01*
X160572838Y-52943514D01*
X160495377Y-52904045D01*
X160302196Y-52841277D01*
X160151722Y-52817444D01*
X160101565Y-52809500D01*
X159898435Y-52809500D01*
X159831559Y-52820092D01*
X159697805Y-52841277D01*
X159697802Y-52841277D01*
X159504622Y-52904045D01*
X159323627Y-52996268D01*
X159159302Y-53115656D01*
X159159297Y-53115660D01*
X159015660Y-53259297D01*
X159015656Y-53259302D01*
X158896268Y-53423627D01*
X158804045Y-53604622D01*
X158741277Y-53797802D01*
X158741277Y-53797805D01*
X158709500Y-53998435D01*
X158010500Y-53998435D01*
X158010500Y-53904066D01*
X158010765Y-53895957D01*
X158017198Y-53797802D01*
X158026989Y-53648411D01*
X158029104Y-53632354D01*
X158076709Y-53393033D01*
X158080898Y-53377397D01*
X158159332Y-53146337D01*
X158165529Y-53131375D01*
X158273450Y-52912533D01*
X158281553Y-52898498D01*
X158417116Y-52695614D01*
X158426973Y-52682768D01*
X158587857Y-52499315D01*
X158599315Y-52487857D01*
X158782768Y-52326973D01*
X158795614Y-52317116D01*
X158998498Y-52181553D01*
X159012533Y-52173450D01*
X159231375Y-52065529D01*
X159246337Y-52059332D01*
X159477397Y-51980898D01*
X159493033Y-51976709D01*
X159732354Y-51929104D01*
X159748411Y-51926989D01*
X159972936Y-51912273D01*
X159995958Y-51910765D01*
X160004067Y-51910500D01*
X195995933Y-51910500D01*
X196004042Y-51910765D01*
G37*
%TD.AperFunction*%
%TA.AperFunction,Conductor*%
G36*
X174045403Y-83582952D02*
G01*
X174051881Y-83588984D01*
X175923386Y-85460489D01*
X176026113Y-85519799D01*
X176043658Y-85524500D01*
X176140691Y-85550500D01*
X176140692Y-85550500D01*
X176148541Y-85552603D01*
X176147914Y-85554942D01*
X176200571Y-85578230D01*
X176239049Y-85636550D01*
X176244500Y-85672911D01*
X176244500Y-85876008D01*
X176252625Y-85951570D01*
X176263831Y-86003082D01*
X176281502Y-86060463D01*
X176281503Y-86060465D01*
X176310675Y-86108189D01*
X176342537Y-86160314D01*
X176342542Y-86160320D01*
X176342543Y-86160321D01*
X176388279Y-86213104D01*
X176388285Y-86213110D01*
X176388292Y-86213118D01*
X176407167Y-86230233D01*
X176415117Y-86237442D01*
X176451557Y-86297057D01*
X176449981Y-86366909D01*
X176410891Y-86424820D01*
X176346697Y-86452405D01*
X176331822Y-86453300D01*
X172012735Y-86453300D01*
X171945696Y-86433615D01*
X171899941Y-86380811D01*
X171889997Y-86311653D01*
X171892960Y-86297207D01*
X171925500Y-86175766D01*
X171925500Y-86024234D01*
X171886281Y-85877865D01*
X171885209Y-85876008D01*
X171817113Y-85758062D01*
X171812962Y-85742573D01*
X171805523Y-85730997D01*
X171800500Y-85696062D01*
X171800500Y-85665815D01*
X171820185Y-85598776D01*
X171872989Y-85553021D01*
X171892394Y-85546044D01*
X172022135Y-85511281D01*
X172112885Y-85458885D01*
X172180785Y-85442412D01*
X172246812Y-85465264D01*
X172282272Y-85504270D01*
X172339485Y-85603365D01*
X172446635Y-85710515D01*
X172577865Y-85786281D01*
X172724234Y-85825500D01*
X172724236Y-85825500D01*
X172875764Y-85825500D01*
X172875766Y-85825500D01*
X173022135Y-85786281D01*
X173153365Y-85710515D01*
X173260515Y-85603365D01*
X173336281Y-85472135D01*
X173375500Y-85325766D01*
X173375500Y-85174234D01*
X173336281Y-85027865D01*
X173317112Y-84994664D01*
X173312962Y-84979176D01*
X173305524Y-84967601D01*
X173300501Y-84932666D01*
X173300501Y-84927500D01*
X173320186Y-84860461D01*
X173372990Y-84814706D01*
X173424501Y-84803500D01*
X173522961Y-84803500D01*
X173545671Y-84800191D01*
X173591093Y-84793573D01*
X173696183Y-84742198D01*
X173778898Y-84659483D01*
X173830273Y-84554393D01*
X173840200Y-84486260D01*
X173840200Y-83676665D01*
X173859885Y-83609626D01*
X173912689Y-83563871D01*
X173981847Y-83553927D01*
X174045403Y-83582952D01*
G37*
%TD.AperFunction*%
%TA.AperFunction,Conductor*%
G36*
X170612449Y-84794089D02*
G01*
X170677040Y-84803500D01*
X170779009Y-84803500D01*
X170782496Y-84803697D01*
X170812254Y-84814292D01*
X170842540Y-84823185D01*
X170844908Y-84825917D01*
X170848318Y-84827132D01*
X170867627Y-84852137D01*
X170888295Y-84875989D01*
X170888809Y-84879567D01*
X170891022Y-84882433D01*
X170899500Y-84927499D01*
X170899500Y-85325764D01*
X170899500Y-85696063D01*
X170882887Y-85758062D01*
X170877332Y-85767685D01*
X170813719Y-85877863D01*
X170774500Y-86024234D01*
X170774500Y-86160566D01*
X170754815Y-86227605D01*
X170702011Y-86273360D01*
X170632853Y-86283304D01*
X170569297Y-86254279D01*
X170562819Y-86248247D01*
X170283023Y-85968451D01*
X170268321Y-85941528D01*
X170251728Y-85915709D01*
X170250835Y-85909504D01*
X170249538Y-85907128D01*
X170246704Y-85880774D01*
X170246704Y-85876000D01*
X170246704Y-85767685D01*
X170246700Y-85767670D01*
X170246700Y-84927500D01*
X170266385Y-84860461D01*
X170319189Y-84814706D01*
X170370700Y-84803500D01*
X170522961Y-84803500D01*
X170561565Y-84797875D01*
X170582123Y-84794880D01*
X170594304Y-84794880D01*
X170606995Y-84793781D01*
X170612449Y-84794089D01*
G37*
%TD.AperFunction*%
%TA.AperFunction,Conductor*%
G36*
X167600067Y-76359485D02*
G01*
X167677039Y-76370700D01*
X167677040Y-76370700D01*
X168022961Y-76370700D01*
X168061565Y-76365075D01*
X168082123Y-76362080D01*
X168117876Y-76362080D01*
X168177039Y-76370700D01*
X168177040Y-76370700D01*
X168522960Y-76370700D01*
X168582122Y-76362080D01*
X168617878Y-76362080D01*
X168677040Y-76370700D01*
X168677041Y-76370700D01*
X169022962Y-76370700D01*
X169082126Y-76362080D01*
X169117882Y-76362080D01*
X169177039Y-76370699D01*
X169177040Y-76370699D01*
X169522961Y-76370699D01*
X169582118Y-76362080D01*
X169617874Y-76362080D01*
X169677038Y-76370700D01*
X169677039Y-76370700D01*
X170022960Y-76370700D01*
X170061564Y-76365075D01*
X170082121Y-76362079D01*
X170106994Y-76360981D01*
X170112450Y-76361289D01*
X170177040Y-76370700D01*
X170279008Y-76370700D01*
X170282495Y-76370897D01*
X170312253Y-76381492D01*
X170342539Y-76390385D01*
X170344907Y-76393117D01*
X170348317Y-76394332D01*
X170367626Y-76419337D01*
X170388294Y-76443189D01*
X170389176Y-76447243D01*
X170391021Y-76449633D01*
X170391896Y-76459750D01*
X170399500Y-76494700D01*
X170399500Y-76659309D01*
X170416897Y-76724234D01*
X170416897Y-76724235D01*
X170430199Y-76773885D01*
X170457113Y-76820500D01*
X170489511Y-76876614D01*
X172173386Y-78560490D01*
X172214090Y-78583990D01*
X172262306Y-78634557D01*
X172271866Y-78659284D01*
X172307433Y-78792023D01*
X172383199Y-78923253D01*
X172490349Y-79030403D01*
X172621579Y-79106169D01*
X172767948Y-79145388D01*
X172767950Y-79145388D01*
X172919478Y-79145388D01*
X172919480Y-79145388D01*
X173065849Y-79106169D01*
X173197079Y-79030403D01*
X173304229Y-78923253D01*
X173379995Y-78792023D01*
X173419214Y-78645654D01*
X173419214Y-78494122D01*
X173379995Y-78347753D01*
X173304229Y-78216523D01*
X173197079Y-78109373D01*
X173065849Y-78033607D01*
X172932224Y-77997802D01*
X172876638Y-77965709D01*
X172750442Y-77839513D01*
X172750440Y-77839511D01*
X172732563Y-77829189D01*
X172708202Y-77815124D01*
X172682523Y-77795419D01*
X172264285Y-77377181D01*
X172230800Y-77315858D01*
X172235784Y-77246166D01*
X172277656Y-77190233D01*
X172343120Y-77165816D01*
X172351966Y-77165500D01*
X173605300Y-77165500D01*
X173611157Y-77167220D01*
X173617153Y-77166068D01*
X173644292Y-77176949D01*
X173672339Y-77185185D01*
X173676335Y-77189797D01*
X173682004Y-77192070D01*
X173698955Y-77215901D01*
X173718094Y-77237989D01*
X173719865Y-77245299D01*
X173722502Y-77249006D01*
X173726421Y-77272351D01*
X173729163Y-77283666D01*
X173729300Y-77286574D01*
X173729300Y-77422959D01*
X173738792Y-77488112D01*
X173739078Y-77494166D01*
X173737920Y-77498928D01*
X173737920Y-77517876D01*
X173729301Y-77577040D01*
X173729300Y-77577044D01*
X173729300Y-77922961D01*
X173737920Y-77982126D01*
X173737920Y-78017882D01*
X173729301Y-78077039D01*
X173729301Y-78422960D01*
X173737920Y-78482118D01*
X173737920Y-78517874D01*
X173731711Y-78560488D01*
X173729300Y-78577039D01*
X173729300Y-78922959D01*
X173733835Y-78954085D01*
X173737920Y-78982122D01*
X173737920Y-79017875D01*
X173729300Y-79077040D01*
X173729300Y-79422960D01*
X173737182Y-79477063D01*
X173737920Y-79482123D01*
X173739018Y-79506994D01*
X173738709Y-79512461D01*
X173729300Y-79577040D01*
X173729300Y-79679007D01*
X173729103Y-79682495D01*
X173718508Y-79712251D01*
X173709615Y-79742540D01*
X173706882Y-79744908D01*
X173705668Y-79748318D01*
X173680667Y-79767623D01*
X173656811Y-79788295D01*
X173652754Y-79789177D01*
X173650367Y-79791021D01*
X173640256Y-79791896D01*
X173605300Y-79799501D01*
X172390690Y-79799501D01*
X172323499Y-79817505D01*
X172276111Y-79830202D01*
X172276106Y-79830205D01*
X172232694Y-79855268D01*
X172232695Y-79855269D01*
X172173388Y-79889509D01*
X172067075Y-79995822D01*
X172011488Y-80027915D01*
X171965846Y-80040144D01*
X171877865Y-80063719D01*
X171877863Y-80063719D01*
X171877863Y-80063720D01*
X171746635Y-80139485D01*
X171746632Y-80139487D01*
X171639487Y-80246632D01*
X171639485Y-80246635D01*
X171563719Y-80377863D01*
X171524500Y-80524234D01*
X171524500Y-80675765D01*
X171563719Y-80822136D01*
X171567027Y-80827865D01*
X171639485Y-80953365D01*
X171746635Y-81060515D01*
X171877865Y-81136281D01*
X172024234Y-81175500D01*
X172024236Y-81175500D01*
X172175763Y-81175500D01*
X172175766Y-81175500D01*
X172239789Y-81158345D01*
X172309635Y-81160008D01*
X172367497Y-81199170D01*
X172395002Y-81263398D01*
X172391654Y-81310212D01*
X172374500Y-81374232D01*
X172374500Y-81374234D01*
X172374500Y-81525766D01*
X172390715Y-81586281D01*
X172413719Y-81672136D01*
X172451602Y-81737750D01*
X172489485Y-81803365D01*
X172596635Y-81910515D01*
X172727865Y-81986281D01*
X172874234Y-82025500D01*
X172874236Y-82025500D01*
X172929548Y-82025500D01*
X172996587Y-82045185D01*
X173042342Y-82097989D01*
X173052286Y-82167147D01*
X173049323Y-82181589D01*
X173024500Y-82274234D01*
X173024500Y-82425766D01*
X173025470Y-82429387D01*
X173037212Y-82473207D01*
X173036616Y-82498201D01*
X173040175Y-82522947D01*
X173035799Y-82532527D01*
X173035549Y-82543057D01*
X173021536Y-82563760D01*
X173011150Y-82586503D01*
X173002288Y-82592197D01*
X172996386Y-82600919D01*
X172973405Y-82610760D01*
X172952372Y-82624277D01*
X172936516Y-82626556D01*
X172932158Y-82628423D01*
X172917437Y-82629300D01*
X172767765Y-82629300D01*
X172700726Y-82609615D01*
X172680084Y-82592981D01*
X172351616Y-82264513D01*
X172351614Y-82264511D01*
X172300250Y-82234856D01*
X172248888Y-82205201D01*
X172225831Y-82199023D01*
X172225817Y-82199019D01*
X172224673Y-82198713D01*
X172134309Y-82174500D01*
X172126428Y-82174500D01*
X172111795Y-82170890D01*
X172094102Y-82160583D01*
X172074457Y-82154815D01*
X172062283Y-82142048D01*
X172051422Y-82135721D01*
X172045854Y-82124818D01*
X172034109Y-82112500D01*
X172010517Y-82071638D01*
X172010513Y-82071633D01*
X171903367Y-81964487D01*
X171903365Y-81964485D01*
X171831435Y-81922956D01*
X171772136Y-81888719D01*
X171698950Y-81869109D01*
X171625766Y-81849500D01*
X171474234Y-81849500D01*
X171327862Y-81888719D01*
X171307088Y-81900714D01*
X171239187Y-81917185D01*
X171173161Y-81894333D01*
X171137702Y-81855326D01*
X171125691Y-81834522D01*
X171060515Y-81721635D01*
X170953365Y-81614485D01*
X170852512Y-81556257D01*
X170822136Y-81538719D01*
X170744347Y-81517876D01*
X170675766Y-81499500D01*
X170524234Y-81499500D01*
X170377865Y-81538719D01*
X170377864Y-81538719D01*
X170377862Y-81538720D01*
X170377861Y-81538720D01*
X170303695Y-81581540D01*
X170235794Y-81598013D01*
X170169768Y-81575160D01*
X170126577Y-81520239D01*
X170119936Y-81450685D01*
X170134309Y-81412152D01*
X170139383Y-81403365D01*
X170186281Y-81322135D01*
X170225500Y-81175766D01*
X170225500Y-81024234D01*
X170186281Y-80877865D01*
X170110515Y-80746635D01*
X170003365Y-80639485D01*
X169895206Y-80577039D01*
X169872136Y-80563719D01*
X169798950Y-80544109D01*
X169725766Y-80524500D01*
X169611965Y-80524500D01*
X169544926Y-80504815D01*
X169499171Y-80452011D01*
X169489227Y-80382853D01*
X169518252Y-80319297D01*
X169524284Y-80312819D01*
X170092195Y-79744908D01*
X170660489Y-79176614D01*
X170717978Y-79077040D01*
X170719799Y-79073886D01*
X170750500Y-78959309D01*
X170750500Y-78653937D01*
X170767112Y-78591937D01*
X170836281Y-78472135D01*
X170875500Y-78325766D01*
X170875500Y-78174234D01*
X170836281Y-78027865D01*
X170760515Y-77896635D01*
X170653365Y-77789485D01*
X170587750Y-77751602D01*
X170522136Y-77713719D01*
X170448950Y-77694109D01*
X170375766Y-77674500D01*
X170224234Y-77674500D01*
X170077863Y-77713719D01*
X169946635Y-77789485D01*
X169946632Y-77789487D01*
X169839487Y-77896632D01*
X169839480Y-77896641D01*
X169793097Y-77976978D01*
X169742530Y-78025193D01*
X169673922Y-78038415D01*
X169623711Y-78022364D01*
X169554005Y-77982119D01*
X169522136Y-77963719D01*
X169448950Y-77944109D01*
X169375766Y-77924500D01*
X169224234Y-77924500D01*
X169077863Y-77963719D01*
X168946635Y-78039485D01*
X168946632Y-78039487D01*
X168839487Y-78146632D01*
X168839485Y-78146635D01*
X168763270Y-78278642D01*
X168712702Y-78326857D01*
X168644095Y-78340079D01*
X168579231Y-78314111D01*
X168568202Y-78304322D01*
X168553367Y-78289487D01*
X168553365Y-78289485D01*
X168472051Y-78242538D01*
X168422136Y-78213719D01*
X168305600Y-78182494D01*
X168275766Y-78174500D01*
X168124234Y-78174500D01*
X167977863Y-78213719D01*
X167846635Y-78289485D01*
X167846632Y-78289487D01*
X167739487Y-78396632D01*
X167739485Y-78396635D01*
X167702086Y-78461412D01*
X167651518Y-78509627D01*
X167582911Y-78522849D01*
X167518047Y-78496881D01*
X167477519Y-78439967D01*
X167470699Y-78399411D01*
X167470699Y-78077039D01*
X167462080Y-78017882D01*
X167462080Y-77982126D01*
X167470700Y-77922961D01*
X167470700Y-77577040D01*
X167460773Y-77508909D01*
X167460773Y-77508908D01*
X167409398Y-77403818D01*
X167409396Y-77403816D01*
X167409396Y-77403815D01*
X167343262Y-77337681D01*
X167309777Y-77276358D01*
X167314761Y-77206666D01*
X167343260Y-77162320D01*
X167409398Y-77096183D01*
X167460773Y-76991093D01*
X167470700Y-76922960D01*
X167470700Y-76577040D01*
X167460773Y-76508907D01*
X167459485Y-76500067D01*
X167463227Y-76473683D01*
X167463278Y-76447030D01*
X167468059Y-76439620D01*
X167469298Y-76430890D01*
X167486712Y-76410716D01*
X167501163Y-76388323D01*
X167509191Y-76384674D01*
X167514953Y-76378000D01*
X167540509Y-76370443D01*
X167564773Y-76359418D01*
X167577715Y-76359442D01*
X167581955Y-76358189D01*
X167600067Y-76359485D01*
G37*
%TD.AperFunction*%
%TA.AperFunction,Conductor*%
G36*
X171193834Y-72945783D02*
G01*
X171249767Y-72987655D01*
X171274184Y-73053119D01*
X171274500Y-73061965D01*
X171274500Y-73087727D01*
X171289313Y-73200235D01*
X171289313Y-73200236D01*
X171347300Y-73340230D01*
X171347301Y-73340232D01*
X171347302Y-73340233D01*
X171373875Y-73374864D01*
X171399070Y-73440031D01*
X171399500Y-73450350D01*
X171399500Y-74162070D01*
X171379815Y-74229109D01*
X171327011Y-74274864D01*
X171257853Y-74284808D01*
X171203450Y-74262990D01*
X171196185Y-74257803D01*
X171091091Y-74206426D01*
X171022961Y-74196500D01*
X171022960Y-74196500D01*
X170924500Y-74196500D01*
X170857461Y-74176815D01*
X170811706Y-74124011D01*
X170800500Y-74072500D01*
X170800500Y-73287965D01*
X170820185Y-73220926D01*
X170836819Y-73200284D01*
X171062819Y-72974284D01*
X171124142Y-72940799D01*
X171193834Y-72945783D01*
G37*
%TD.AperFunction*%
%TA.AperFunction,Conductor*%
G36*
X176394318Y-70620185D02*
G01*
X176440073Y-70672989D01*
X176441840Y-70677048D01*
X176447299Y-70690228D01*
X176447299Y-70690229D01*
X176447301Y-70690232D01*
X176447302Y-70690233D01*
X176539549Y-70810451D01*
X176659767Y-70902698D01*
X176678603Y-70910500D01*
X176771462Y-70948964D01*
X176825865Y-70992805D01*
X176847930Y-71059099D01*
X176830651Y-71126799D01*
X176811690Y-71151206D01*
X175351963Y-72610934D01*
X175350198Y-72609169D01*
X175303878Y-72642970D01*
X175234131Y-72647103D01*
X175199967Y-72633655D01*
X175122138Y-72588720D01*
X175122135Y-72588719D01*
X174975766Y-72549500D01*
X174824234Y-72549500D01*
X174677863Y-72588719D01*
X174546635Y-72664485D01*
X174546634Y-72664485D01*
X174536130Y-72674990D01*
X174477971Y-72706743D01*
X174478147Y-72707397D01*
X174475454Y-72708118D01*
X174474805Y-72708473D01*
X174472876Y-72708809D01*
X174418475Y-72723386D01*
X174418474Y-72723385D01*
X174364627Y-72737814D01*
X174364622Y-72737816D01*
X174269878Y-72792516D01*
X174269875Y-72792518D01*
X173017516Y-74044877D01*
X173000326Y-74074653D01*
X172965773Y-74134500D01*
X172915208Y-74182715D01*
X172858387Y-74196500D01*
X172677041Y-74196500D01*
X172640450Y-74201831D01*
X172617876Y-74205120D01*
X172593006Y-74206218D01*
X172587536Y-74205909D01*
X172522959Y-74196500D01*
X172420993Y-74196500D01*
X172417506Y-74196303D01*
X172387749Y-74185708D01*
X172357461Y-74176815D01*
X172355092Y-74174082D01*
X172351683Y-74172868D01*
X172332377Y-74147867D01*
X172311706Y-74124011D01*
X172310823Y-74119954D01*
X172308980Y-74117567D01*
X172308104Y-74107456D01*
X172300500Y-74072500D01*
X172300500Y-73739145D01*
X172320185Y-73672106D01*
X172372989Y-73626351D01*
X172408313Y-73616206D01*
X172450236Y-73610687D01*
X172590233Y-73552698D01*
X172710451Y-73460451D01*
X172802698Y-73340233D01*
X172860687Y-73200236D01*
X172875500Y-73087720D01*
X172875500Y-72549500D01*
X172895185Y-72482461D01*
X172947989Y-72436706D01*
X172999500Y-72425500D01*
X173075764Y-72425500D01*
X173075766Y-72425500D01*
X173222135Y-72386281D01*
X173353365Y-72310515D01*
X173460515Y-72203365D01*
X173536281Y-72072135D01*
X173575500Y-71925766D01*
X173575500Y-71774234D01*
X173536281Y-71627865D01*
X173460515Y-71496635D01*
X173353365Y-71389485D01*
X173287750Y-71351602D01*
X173222136Y-71313719D01*
X173148950Y-71294109D01*
X173075766Y-71274500D01*
X173061964Y-71274500D01*
X172994925Y-71254815D01*
X172949170Y-71202011D01*
X172939226Y-71132853D01*
X172968251Y-71069297D01*
X172974283Y-71062819D01*
X173110489Y-70926613D01*
X173264178Y-70772923D01*
X173325499Y-70739440D01*
X173395190Y-70744424D01*
X173450231Y-70785119D01*
X173469669Y-70810450D01*
X173490505Y-70837605D01*
X173521718Y-70878282D01*
X173647159Y-70974536D01*
X173793238Y-71035044D01*
X173910639Y-71050500D01*
X175389360Y-71050499D01*
X175389363Y-71050499D01*
X175506753Y-71035046D01*
X175506757Y-71035044D01*
X175506762Y-71035044D01*
X175652841Y-70974536D01*
X175778282Y-70878282D01*
X175874536Y-70752841D01*
X175905931Y-70677047D01*
X175949772Y-70622644D01*
X176016066Y-70600579D01*
X176020492Y-70600500D01*
X176327279Y-70600500D01*
X176394318Y-70620185D01*
G37*
%TD.AperFunction*%
%TA.AperFunction,Conductor*%
G36*
X179204074Y-63395185D02*
G01*
X179224716Y-63411819D01*
X179263181Y-63450284D01*
X179296666Y-63511607D01*
X179299500Y-63537965D01*
X179299500Y-69162034D01*
X179279815Y-69229073D01*
X179263181Y-69249715D01*
X178837181Y-69675715D01*
X178775858Y-69709200D01*
X178706166Y-69704216D01*
X178650233Y-69662344D01*
X178625816Y-69596880D01*
X178625500Y-69588034D01*
X178625500Y-67840693D01*
X178625500Y-67840691D01*
X178594799Y-67726114D01*
X178594799Y-67726113D01*
X178535489Y-67623386D01*
X178151614Y-67239511D01*
X178100250Y-67209856D01*
X178048888Y-67180201D01*
X178036780Y-67176957D01*
X178024673Y-67173713D01*
X178024670Y-67173712D01*
X177986478Y-67163478D01*
X177934309Y-67149500D01*
X177934308Y-67149500D01*
X176812965Y-67149500D01*
X176745926Y-67129815D01*
X176725284Y-67113181D01*
X175279234Y-65667131D01*
X175245749Y-65605808D01*
X175250733Y-65536116D01*
X175292605Y-65480183D01*
X175334818Y-65459677D01*
X175422135Y-65436281D01*
X175553365Y-65360515D01*
X175660515Y-65253365D01*
X175736281Y-65122135D01*
X175775500Y-64975766D01*
X175775500Y-64836976D01*
X175795185Y-64769937D01*
X175847989Y-64724182D01*
X175875135Y-64716736D01*
X175874932Y-64715876D01*
X175882479Y-64714092D01*
X175882481Y-64714091D01*
X175882483Y-64714091D01*
X176017331Y-64663796D01*
X176132546Y-64577546D01*
X176218796Y-64462331D01*
X176269091Y-64327483D01*
X176275500Y-64267873D01*
X176275499Y-63872128D01*
X176269091Y-63812517D01*
X176250171Y-63761789D01*
X176215697Y-63669359D01*
X176216938Y-63668896D01*
X176204025Y-63609552D01*
X176228439Y-63544087D01*
X176284370Y-63502213D01*
X176354062Y-63497224D01*
X176415387Y-63530706D01*
X176426082Y-63542900D01*
X176439549Y-63560451D01*
X176559767Y-63652698D01*
X176699764Y-63710687D01*
X176812280Y-63725500D01*
X176812287Y-63725500D01*
X177387713Y-63725500D01*
X177387720Y-63725500D01*
X177500236Y-63710687D01*
X177640233Y-63652698D01*
X177760451Y-63560451D01*
X177852698Y-63440233D01*
X177852700Y-63440225D01*
X177854276Y-63437499D01*
X177856210Y-63435654D01*
X177857645Y-63433785D01*
X177857936Y-63434008D01*
X177904844Y-63389284D01*
X177961663Y-63375500D01*
X179137035Y-63375500D01*
X179204074Y-63395185D01*
G37*
%TD.AperFunction*%
%TA.AperFunction,Conductor*%
G36*
X173979074Y-59070185D02*
G01*
X173999716Y-59086819D01*
X174245821Y-59332924D01*
X174253837Y-59346809D01*
X174264021Y-59356066D01*
X174277914Y-59388510D01*
X174295303Y-59453408D01*
X174293641Y-59523256D01*
X174254479Y-59581118D01*
X174190251Y-59608623D01*
X174175530Y-59609500D01*
X174077130Y-59609500D01*
X174077123Y-59609501D01*
X174017516Y-59615908D01*
X173882671Y-59666202D01*
X173882664Y-59666206D01*
X173767455Y-59752452D01*
X173767452Y-59752455D01*
X173681206Y-59867664D01*
X173681202Y-59867671D01*
X173630910Y-60002513D01*
X173630909Y-60002517D01*
X173624500Y-60062127D01*
X173624500Y-60062134D01*
X173624500Y-60062135D01*
X173624500Y-60457870D01*
X173624501Y-60457876D01*
X173630908Y-60517483D01*
X173681202Y-60652328D01*
X173681206Y-60652335D01*
X173767452Y-60767544D01*
X173767453Y-60767544D01*
X173767454Y-60767546D01*
X173792479Y-60786280D01*
X173805108Y-60795734D01*
X173846978Y-60851668D01*
X173851962Y-60921360D01*
X173818476Y-60982683D01*
X173805108Y-60994266D01*
X173767452Y-61022455D01*
X173681206Y-61137664D01*
X173681202Y-61137671D01*
X173630910Y-61272513D01*
X173630909Y-61272517D01*
X173624500Y-61332127D01*
X173624500Y-61332134D01*
X173624500Y-61332135D01*
X173624500Y-61727870D01*
X173624501Y-61727876D01*
X173630908Y-61787483D01*
X173681202Y-61922328D01*
X173681206Y-61922335D01*
X173767452Y-62037544D01*
X173767453Y-62037544D01*
X173767454Y-62037546D01*
X173794432Y-62057742D01*
X173805108Y-62065734D01*
X173846978Y-62121668D01*
X173851962Y-62191360D01*
X173818476Y-62252683D01*
X173805108Y-62264266D01*
X173767452Y-62292455D01*
X173681206Y-62407664D01*
X173681202Y-62407671D01*
X173630910Y-62542513D01*
X173630909Y-62542517D01*
X173624500Y-62602127D01*
X173624500Y-62602134D01*
X173624500Y-62602135D01*
X173624500Y-62997870D01*
X173624501Y-62997876D01*
X173630908Y-63057483D01*
X173681202Y-63192328D01*
X173681206Y-63192335D01*
X173767452Y-63307544D01*
X173767453Y-63307544D01*
X173767454Y-63307546D01*
X173794432Y-63327742D01*
X173805108Y-63335734D01*
X173846978Y-63391668D01*
X173851962Y-63461360D01*
X173818476Y-63522683D01*
X173805108Y-63534266D01*
X173767452Y-63562455D01*
X173681206Y-63677664D01*
X173681202Y-63677671D01*
X173642297Y-63781983D01*
X173600426Y-63837917D01*
X173534962Y-63862334D01*
X173466689Y-63847482D01*
X173438434Y-63826331D01*
X172051616Y-62439513D01*
X172051614Y-62439511D01*
X171948887Y-62380201D01*
X171910427Y-62369896D01*
X171910424Y-62369895D01*
X171878254Y-62361275D01*
X171834309Y-62349500D01*
X171834308Y-62349500D01*
X171287320Y-62349500D01*
X171220281Y-62329815D01*
X171204976Y-62318211D01*
X171195581Y-62309866D01*
X171182546Y-62292454D01*
X171140739Y-62261157D01*
X171136859Y-62257711D01*
X171120976Y-62232318D01*
X171103021Y-62208333D01*
X171102639Y-62203004D01*
X171099807Y-62198475D01*
X171100173Y-62168522D01*
X171098037Y-62138641D01*
X171100597Y-62133951D01*
X171100663Y-62128611D01*
X171117162Y-62103616D01*
X171131522Y-62077318D01*
X171138529Y-62071246D01*
X171139154Y-62070300D01*
X171140107Y-62069878D01*
X171144885Y-62065738D01*
X171182546Y-62037546D01*
X171268796Y-61922331D01*
X171319091Y-61787483D01*
X171325500Y-61727873D01*
X171325499Y-61332128D01*
X171319091Y-61272517D01*
X171301653Y-61225764D01*
X171268797Y-61137671D01*
X171268793Y-61137664D01*
X171182547Y-61022455D01*
X171182544Y-61022452D01*
X171067335Y-60936206D01*
X171067328Y-60936202D01*
X170932482Y-60885908D01*
X170932483Y-60885908D01*
X170872883Y-60879501D01*
X170872881Y-60879500D01*
X170872873Y-60879500D01*
X170872864Y-60879500D01*
X169127129Y-60879500D01*
X169127123Y-60879501D01*
X169067516Y-60885908D01*
X168932671Y-60936202D01*
X168932664Y-60936206D01*
X168817457Y-61022451D01*
X168817451Y-61022457D01*
X168811948Y-61029809D01*
X168808291Y-61032546D01*
X168806393Y-61036703D01*
X168780575Y-61053294D01*
X168756015Y-61071681D01*
X168750385Y-61072696D01*
X168747615Y-61074477D01*
X168712680Y-61079500D01*
X168599500Y-61079500D01*
X168532461Y-61059815D01*
X168486706Y-61007011D01*
X168475500Y-60955500D01*
X168475500Y-60812286D01*
X168475499Y-60812272D01*
X168473322Y-60795734D01*
X168460687Y-60699764D01*
X168402698Y-60559767D01*
X168310451Y-60439549D01*
X168190233Y-60347302D01*
X168190229Y-60347300D01*
X168119738Y-60318102D01*
X168050236Y-60289313D01*
X168036171Y-60287461D01*
X167937727Y-60274500D01*
X167937720Y-60274500D01*
X167362280Y-60274500D01*
X167362272Y-60274500D01*
X167249764Y-60289313D01*
X167249763Y-60289313D01*
X167109770Y-60347300D01*
X167109767Y-60347301D01*
X167109767Y-60347302D01*
X166989549Y-60439549D01*
X166989548Y-60439550D01*
X166989547Y-60439551D01*
X166917909Y-60532911D01*
X166861481Y-60574113D01*
X166791735Y-60578268D01*
X166730815Y-60544055D01*
X166704180Y-60502916D01*
X166684361Y-60452658D01*
X166684360Y-60452657D01*
X166684360Y-60452656D01*
X166592922Y-60332077D01*
X166472343Y-60240639D01*
X166331561Y-60185122D01*
X166285926Y-60179642D01*
X166243102Y-60174500D01*
X165756898Y-60174500D01*
X165717853Y-60179188D01*
X165668438Y-60185122D01*
X165527656Y-60240639D01*
X165407077Y-60332077D01*
X165315638Y-60452658D01*
X165315637Y-60452660D01*
X165290354Y-60516774D01*
X165247449Y-60571918D01*
X165181541Y-60595111D01*
X165113556Y-60578990D01*
X165065080Y-60528673D01*
X165059646Y-60516774D01*
X165034362Y-60452660D01*
X165034361Y-60452658D01*
X164942922Y-60332077D01*
X164849575Y-60261290D01*
X164808051Y-60205097D01*
X164800500Y-60162486D01*
X164800500Y-59287965D01*
X164809144Y-59258524D01*
X164815668Y-59228538D01*
X164819422Y-59223522D01*
X164820185Y-59220926D01*
X164836819Y-59200284D01*
X164950284Y-59086819D01*
X165011607Y-59053334D01*
X165037965Y-59050500D01*
X173912035Y-59050500D01*
X173979074Y-59070185D01*
G37*
%TD.AperFunction*%
%TD*%
%TA.AperFunction,Conductor*%
%TO.N,Net-(U5-SW)*%
G36*
X182614694Y-84819685D02*
G01*
X182660449Y-84872489D01*
X182670393Y-84941647D01*
X182667431Y-84956085D01*
X182649478Y-85023088D01*
X182642806Y-85047989D01*
X182612001Y-85281979D01*
X182612000Y-85281989D01*
X182612000Y-85518011D01*
X182642807Y-85752014D01*
X182667429Y-85843907D01*
X182665767Y-85913756D01*
X182626605Y-85971619D01*
X182562376Y-85999123D01*
X182547655Y-86000000D01*
X176724000Y-86000000D01*
X176656961Y-85980315D01*
X176611206Y-85927511D01*
X176600000Y-85876000D01*
X176600000Y-84924000D01*
X176619685Y-84856961D01*
X176672489Y-84811206D01*
X176724000Y-84800000D01*
X182547655Y-84800000D01*
X182614694Y-84819685D01*
G37*
%TD.AperFunction*%
%TD*%
%TA.AperFunction,Conductor*%
%TO.N,+3.3V*%
G36*
X191965677Y-93819685D02*
G01*
X191986319Y-93836319D01*
X192213681Y-94063681D01*
X192247166Y-94125004D01*
X192250000Y-94151362D01*
X192250000Y-96048638D01*
X192241355Y-96078078D01*
X192234832Y-96108065D01*
X192231077Y-96113080D01*
X192230315Y-96115677D01*
X192213681Y-96136319D01*
X192086319Y-96263681D01*
X192024996Y-96297166D01*
X191998638Y-96300000D01*
X191101362Y-96300000D01*
X191034323Y-96280315D01*
X191013681Y-96263681D01*
X190886319Y-96136319D01*
X190852834Y-96074996D01*
X190850000Y-96048638D01*
X190850000Y-94151362D01*
X190869685Y-94084323D01*
X190886319Y-94063681D01*
X191113681Y-93836319D01*
X191175004Y-93802834D01*
X191201362Y-93800000D01*
X191898638Y-93800000D01*
X191965677Y-93819685D01*
G37*
%TD.AperFunction*%
%TD*%
M02*
