%TF.GenerationSoftware,KiCad,Pcbnew,9.0.4*%
%TF.CreationDate,2025-12-12T14:24:18+03:00*%
%TF.ProjectId,mini_power_logger,6d696e69-5f70-46f7-9765-725f6c6f6767,rev?*%
%TF.SameCoordinates,Original*%
%TF.FileFunction,Paste,Bot*%
%TF.FilePolarity,Positive*%
%FSLAX46Y46*%
G04 Gerber Fmt 4.6, Leading zero omitted, Abs format (unit mm)*
G04 Created by KiCad (PCBNEW 9.0.4) date 2025-12-12 14:24:18*
%MOMM*%
%LPD*%
G01*
G04 APERTURE LIST*
G04 Aperture macros list*
%AMRoundRect*
0 Rectangle with rounded corners*
0 $1 Rounding radius*
0 $2 $3 $4 $5 $6 $7 $8 $9 X,Y pos of 4 corners*
0 Add a 4 corners polygon primitive as box body*
4,1,4,$2,$3,$4,$5,$6,$7,$8,$9,$2,$3,0*
0 Add four circle primitives for the rounded corners*
1,1,$1+$1,$2,$3*
1,1,$1+$1,$4,$5*
1,1,$1+$1,$6,$7*
1,1,$1+$1,$8,$9*
0 Add four rect primitives between the rounded corners*
20,1,$1+$1,$2,$3,$4,$5,0*
20,1,$1+$1,$4,$5,$6,$7,0*
20,1,$1+$1,$6,$7,$8,$9,0*
20,1,$1+$1,$8,$9,$2,$3,0*%
G04 Aperture macros list end*
%ADD10RoundRect,0.200000X-0.200000X-0.275000X0.200000X-0.275000X0.200000X0.275000X-0.200000X0.275000X0*%
%ADD11R,1.600000X0.700000*%
%ADD12R,1.600000X1.400000*%
%ADD13R,2.200000X1.400000*%
%ADD14R,1.400000X1.800000*%
%ADD15RoundRect,0.150000X0.587500X0.150000X-0.587500X0.150000X-0.587500X-0.150000X0.587500X-0.150000X0*%
%ADD16RoundRect,0.225000X-0.250000X0.225000X-0.250000X-0.225000X0.250000X-0.225000X0.250000X0.225000X0*%
%ADD17RoundRect,0.225000X0.250000X-0.225000X0.250000X0.225000X-0.250000X0.225000X-0.250000X-0.225000X0*%
%ADD18RoundRect,0.200000X0.200000X0.275000X-0.200000X0.275000X-0.200000X-0.275000X0.200000X-0.275000X0*%
%ADD19RoundRect,0.225000X-0.225000X-0.375000X0.225000X-0.375000X0.225000X0.375000X-0.225000X0.375000X0*%
%ADD20RoundRect,0.250000X0.700000X0.300000X-0.700000X0.300000X-0.700000X-0.300000X0.700000X-0.300000X0*%
%ADD21RoundRect,0.200000X-0.275000X0.200000X-0.275000X-0.200000X0.275000X-0.200000X0.275000X0.200000X0*%
%ADD22RoundRect,0.225000X0.225000X0.250000X-0.225000X0.250000X-0.225000X-0.250000X0.225000X-0.250000X0*%
%ADD23R,1.600000X0.800000*%
%ADD24R,0.279400X1.473200*%
%ADD25R,1.473200X0.279400*%
%ADD26RoundRect,0.237500X-0.250000X-0.237500X0.250000X-0.237500X0.250000X0.237500X-0.250000X0.237500X0*%
%ADD27RoundRect,0.200000X0.275000X-0.200000X0.275000X0.200000X-0.275000X0.200000X-0.275000X-0.200000X0*%
%ADD28RoundRect,0.225000X-0.225000X-0.250000X0.225000X-0.250000X0.225000X0.250000X-0.225000X0.250000X0*%
%ADD29RoundRect,0.150000X-0.825000X-0.150000X0.825000X-0.150000X0.825000X0.150000X-0.825000X0.150000X0*%
G04 APERTURE END LIST*
D10*
%TO.C,R9*%
X164350000Y-61000000D03*
X166000000Y-61000000D03*
%TD*%
D11*
%TO.C,P1*%
X182800000Y-77470000D03*
X182800000Y-76370000D03*
X182800000Y-75270000D03*
X182800000Y-74170000D03*
X182800000Y-73070000D03*
X182800000Y-71970000D03*
X182800000Y-70870000D03*
X182800000Y-69770000D03*
X182800000Y-68670000D03*
D12*
X183400000Y-67370000D03*
D13*
X192900000Y-67370000D03*
X192900000Y-83070000D03*
D14*
X183300000Y-82170000D03*
%TD*%
D15*
%TO.C,Q1*%
X181900000Y-96600000D03*
X181900000Y-98500000D03*
X180025000Y-97550000D03*
%TD*%
D16*
%TO.C,C20*%
X177100000Y-62925000D03*
X177100000Y-64475000D03*
%TD*%
D17*
%TO.C,C17*%
X167650000Y-61075000D03*
X167650000Y-59525000D03*
%TD*%
D18*
%TO.C,R12*%
X169450000Y-97800000D03*
X167800000Y-97800000D03*
%TD*%
D16*
%TO.C,C10*%
X176900000Y-82425000D03*
X176900000Y-83975000D03*
%TD*%
D19*
%TO.C,D1*%
X175950000Y-99900000D03*
X179250000Y-99900000D03*
%TD*%
D20*
%TO.C,Y2*%
X174650000Y-70150000D03*
X170950000Y-70150000D03*
X170950000Y-67850000D03*
X174650000Y-67850000D03*
%TD*%
D17*
%TO.C,C9*%
X168000000Y-69775000D03*
X168000000Y-68225000D03*
%TD*%
D16*
%TO.C,C7*%
X164300000Y-76600000D03*
X164300000Y-78150000D03*
%TD*%
D21*
%TO.C,R1*%
X159400000Y-84050000D03*
X159400000Y-85700000D03*
%TD*%
D17*
%TO.C,C18*%
X177400000Y-60025000D03*
X177400000Y-58475000D03*
%TD*%
D16*
%TO.C,C19*%
X167900000Y-62925000D03*
X167900000Y-64475000D03*
%TD*%
D22*
%TO.C,C12*%
X171275000Y-66100000D03*
X169725000Y-66100000D03*
%TD*%
D18*
%TO.C,R10*%
X180625000Y-60000000D03*
X178975000Y-60000000D03*
%TD*%
D23*
%TO.C,C1*%
X159200000Y-69421429D03*
X159200000Y-70877143D03*
X159200000Y-72332858D03*
X159200000Y-73788572D03*
X159200000Y-75244286D03*
X159200000Y-76700000D03*
X159200000Y-78155715D03*
X159200000Y-79611429D03*
%TD*%
D17*
%TO.C,C11*%
X177200000Y-70175000D03*
X177200000Y-68625000D03*
%TD*%
D22*
%TO.C,C3*%
X167125000Y-72700000D03*
X165575000Y-72700000D03*
%TD*%
D24*
%TO.C,U1*%
X167850000Y-75283600D03*
X168349999Y-75283600D03*
X168850001Y-75283600D03*
X169350000Y-75283599D03*
X169849999Y-75283600D03*
X170350000Y-75283600D03*
X170850000Y-75283600D03*
X171350001Y-75283600D03*
X171850000Y-75283599D03*
X172349999Y-75283600D03*
X172850001Y-75283600D03*
X173350000Y-75283600D03*
D25*
X174816400Y-76750000D03*
X174816400Y-77249999D03*
X174816400Y-77750001D03*
X174816401Y-78250000D03*
X174816400Y-78749999D03*
X174816400Y-79250000D03*
X174816400Y-79750000D03*
X174816400Y-80250001D03*
X174816401Y-80750000D03*
X174816400Y-81249999D03*
X174816400Y-81750001D03*
X174816400Y-82250000D03*
D24*
X173350000Y-83716400D03*
X172850001Y-83716400D03*
X172349999Y-83716400D03*
X171850000Y-83716401D03*
X171350001Y-83716400D03*
X170850000Y-83716400D03*
X170350000Y-83716400D03*
X169849999Y-83716400D03*
X169350000Y-83716401D03*
X168850001Y-83716400D03*
X168349999Y-83716400D03*
X167850000Y-83716400D03*
D25*
X166383600Y-82250000D03*
X166383600Y-81750001D03*
X166383600Y-81249999D03*
X166383599Y-80750000D03*
X166383600Y-80250001D03*
X166383600Y-79750000D03*
X166383600Y-79250000D03*
X166383600Y-78749999D03*
X166383599Y-78250000D03*
X166383600Y-77750001D03*
X166383600Y-77249999D03*
X166383600Y-76750000D03*
%TD*%
D26*
%TO.C,R14*%
X180200000Y-95000000D03*
X182025000Y-95000000D03*
%TD*%
D27*
%TO.C,R11*%
X174800000Y-97125000D03*
X174800000Y-95475000D03*
%TD*%
D10*
%TO.C,R13*%
X170900000Y-97800000D03*
X172550000Y-97800000D03*
%TD*%
D28*
%TO.C,C4*%
X172075000Y-72800000D03*
X173625000Y-72800000D03*
%TD*%
D17*
%TO.C,C6*%
X163500000Y-69700000D03*
X163500000Y-68150000D03*
%TD*%
D22*
%TO.C,C5*%
X167775000Y-85800000D03*
X166225000Y-85800000D03*
%TD*%
D29*
%TO.C,U3*%
X170000000Y-64070000D03*
X170000000Y-62800000D03*
X170000000Y-61530000D03*
X170000000Y-60260000D03*
X174950000Y-60260000D03*
X174950000Y-61530000D03*
X174950000Y-62800000D03*
X174950000Y-64070000D03*
%TD*%
M02*
